<svg width="154" height="63" viewBox="0 0 154 63" fill="none" xmlns="http://www.w3.org/2000/svg">
<path opacity="0.1" d="M1 21C1 11 11 1 26 1H36C51 1 61 11 61 21V41C61 51 31 61 31 61C31 61 1 51 1 41V21Z" fill="#4A90E2" stroke="#4A90E2" stroke-width="2"/>
<path d="M31 19C32.6569 19 34 17.6569 34 16C34 14.3431 32.6569 13 31 13C29.3431 13 28 14.3431 28 16C28 17.6569 29.3431 19 31 19Z" fill="#4A90E2"/>
<path d="M16 34C17.6569 34 19 32.6569 19 31C19 29.3431 17.6569 28 16 28C14.3431 28 13 29.3431 13 31C13 32.6569 14.3431 34 16 34Z" fill="#4A90E2"/>
<path d="M46 34C47.6569 34 49 32.6569 49 31C49 29.3431 47.6569 28 46 28C44.3431 28 43 29.3431 43 31C43 32.6569 44.3431 34 46 34Z" fill="#4A90E2"/>
<path d="M31 49C32.6569 49 34 47.6569 34 46C34 44.3431 32.6569 43 31 43C29.3431 43 28 44.3431 28 46C28 47.6569 29.3431 49 31 49Z" fill="#4A90E2"/>
<path d="M16 31L31 16L46 31M16 31L31 46L46 31M16 31H46" stroke="#4A90E2" stroke-width="2"/>
<path d="M77.032 14.132H85.794V17.408H77.032V14.132ZM77.344 21.62H87.25V25H73.158V6.8H86.912V10.18H77.344V21.62ZM94.3714 25V10.232H88.5474V6.8H104.407V10.232H98.5834V25H94.3714ZM119.154 6.8H123.366V25H119.154V6.8ZM110.886 25H106.674V6.8H110.886V25ZM119.466 17.538H110.574V13.976H119.466V17.538ZM127.672 25V6.8H131.884V25H127.672ZM144.913 25.312C143.509 25.312 142.2 25.0867 140.987 24.636C139.791 24.168 138.751 23.5093 137.867 22.66C136.983 21.8107 136.29 20.814 135.787 19.67C135.302 18.526 135.059 17.2693 135.059 15.9C135.059 14.5307 135.302 13.274 135.787 12.13C136.29 10.986 136.983 9.98933 137.867 9.14C138.768 8.29067 139.817 7.64067 141.013 7.19C142.209 6.722 143.518 6.488 144.939 6.488C146.516 6.488 147.938 6.76533 149.203 7.32C150.486 7.85733 151.56 8.65467 152.427 9.712L149.723 12.208C149.099 11.4973 148.406 10.9687 147.643 10.622C146.88 10.258 146.048 10.076 145.147 10.076C144.298 10.076 143.518 10.2147 142.807 10.492C142.096 10.7693 141.481 11.168 140.961 11.688C140.441 12.208 140.034 12.8233 139.739 13.534C139.462 14.2447 139.323 15.0333 139.323 15.9C139.323 16.7667 139.462 17.5553 139.739 18.266C140.034 18.9767 140.441 19.592 140.961 20.112C141.481 20.632 142.096 21.0307 142.807 21.308C143.518 21.5853 144.298 21.724 145.147 21.724C146.048 21.724 146.88 21.5507 147.643 21.204C148.406 20.84 149.099 20.294 149.723 19.566L152.427 22.062C151.56 23.1193 150.486 23.9253 149.203 24.48C147.938 25.0347 146.508 25.312 144.913 25.312Z" fill="#2C3E50"/>
<path d="M70.766 53L78.878 34.8H83.038L91.176 53H86.756L80.1 36.932H81.764L75.082 53H70.766ZM74.822 49.1L75.94 45.902H85.3L86.444 49.1H74.822ZM93.0643 53V34.8H97.2763V53H93.0643Z" fill="#4A90E2"/>
</svg>
