<svg width="106" height="103" viewBox="0 0 106 103" fill="none" xmlns="http://www.w3.org/2000/svg">
<path d="M44 80C66.0914 80 84 62.0914 84 40C84 17.9086 66.0914 0 44 0C21.9086 0 4 17.9086 4 40C4 62.0914 21.9086 80 44 80Z" fill="#4CAF50"/>
<path d="M24 20C37.3333 6.66667 50.6667 6.66667 64 20C77.3333 33.3333 90.6667 33.3333 104 20" stroke="white" stroke-width="3"/>
<path d="M24 30C37.3333 16.6667 50.6667 16.6667 64 30C77.3333 43.3333 90.6667 43.3333 104 30" stroke="white" stroke-width="2"/>
<path d="M15.5234 88.3672L12.5 100H10.7578L8.3125 90.3438L5.92188 100H4.21875L1.14062 88.3672H2.72656L5.17188 98.0391L7.57812 88.3672H9.14844L11.5781 98.1328L14.0078 88.3672H15.5234ZM21.9141 100H17.3203V98.8125H18.8438V89.5547H17.3203V88.3672H21.9141V89.5547H20.3906V98.8125H21.9141V100ZM31.9062 100H24.5469V88.3672H26.0938V98.625H31.9062V100ZM43.2812 94.1953C43.2812 95.2526 43.0495 96.2109 42.5859 97.0703C42.1276 97.9297 41.5156 98.5964 40.75 99.0703C40.2188 99.3984 39.625 99.6354 38.9688 99.7812C38.3177 99.9271 37.4583 100 36.3906 100H33.4531V88.3672H36.3594C37.4948 88.3672 38.3958 88.4505 39.0625 88.6172C39.7344 88.7786 40.3021 89.0026 40.7656 89.2891C41.5573 89.7839 42.1745 90.4427 42.6172 91.2656C43.0599 92.0885 43.2812 93.0651 43.2812 94.1953ZM41.6641 94.1719C41.6641 93.2604 41.5052 92.4922 41.1875 91.8672C40.8698 91.2422 40.3958 90.75 39.7656 90.3906C39.3073 90.1302 38.8203 89.9505 38.3047 89.8516C37.7891 89.7474 37.1719 89.6953 36.4531 89.6953H35V98.6719H36.4531C37.1979 98.6719 37.8464 98.6172 38.3984 98.5078C38.9557 98.3984 39.4661 98.1953 39.9297 97.8984C40.5078 97.5286 40.9401 97.0417 41.2266 96.4375C41.5182 95.8333 41.6641 95.0781 41.6641 94.1719ZM54.7656 99.1562C54.4792 99.2812 54.2188 99.3984 53.9844 99.5078C53.7552 99.6172 53.4531 99.7318 53.0781 99.8516C52.7604 99.9505 52.4141 100.034 52.0391 100.102C51.6693 100.174 51.2604 100.211 50.8125 100.211C49.9688 100.211 49.2005 100.094 48.5078 99.8594C47.8203 99.6198 47.2214 99.2474 46.7109 98.7422C46.2109 98.2474 45.8203 97.6198 45.5391 96.8594C45.2578 96.0938 45.1172 95.2057 45.1172 94.1953C45.1172 93.237 45.2526 92.3802 45.5234 91.625C45.7943 90.8698 46.1849 90.2318 46.6953 89.7109C47.1901 89.2057 47.7865 88.8203 48.4844 88.5547C49.1875 88.2891 49.9661 88.1562 50.8203 88.1562C51.4453 88.1562 52.0677 88.2318 52.6875 88.3828C53.3125 88.5339 54.0052 88.7995 54.7656 89.1797V91.0156H54.6484C54.0078 90.4792 53.3724 90.0885 52.7422 89.8438C52.112 89.599 51.4375 89.4766 50.7188 89.4766C50.1302 89.4766 49.599 89.5729 49.125 89.7656C48.6562 89.9531 48.237 90.2474 47.8672 90.6484C47.5078 91.0391 47.2266 91.5339 47.0234 92.1328C46.8255 92.7266 46.7266 93.4141 46.7266 94.1953C46.7266 95.013 46.8359 95.7161 47.0547 96.3047C47.2786 96.8932 47.5651 97.3724 47.9141 97.7422C48.2786 98.1276 48.7031 98.4141 49.1875 98.6016C49.6771 98.7839 50.1927 98.875 50.7344 98.875C51.4792 98.875 52.1771 98.7474 52.8281 98.4922C53.4792 98.237 54.0885 97.8542 54.6562 97.3438H54.7656V99.1562ZM66.125 100H64.4766L63.3359 96.7578H58.3047L57.1641 100H55.5938L59.8281 88.3672H61.8906L66.125 100ZM62.8594 95.4297L60.8203 89.7188L58.7734 95.4297H62.8594ZM77.5156 100H75.5078L71.6172 95.375H69.4375V100H67.8906V88.3672H71.1484C71.8516 88.3672 72.4375 88.4141 72.9062 88.5078C73.375 88.5964 73.7969 88.7578 74.1719 88.9922C74.5938 89.2578 74.9219 89.5938 75.1562 90C75.3958 90.401 75.5156 90.9115 75.5156 91.5312C75.5156 92.3698 75.3047 93.0729 74.8828 93.6406C74.4609 94.2031 73.8802 94.6276 73.1406 94.9141L77.5156 100ZM73.8984 91.6406C73.8984 91.3073 73.8385 91.013 73.7188 90.7578C73.6042 90.4974 73.4115 90.2786 73.1406 90.1016C72.9167 89.9505 72.651 89.8464 72.3438 89.7891C72.0365 89.7266 71.6745 89.6953 71.2578 89.6953H69.4375V94.0859H71C71.4896 94.0859 71.9167 94.0443 72.2812 93.9609C72.6458 93.8724 72.9557 93.7109 73.2109 93.4766C73.4453 93.2578 73.6172 93.0078 73.7266 92.7266C73.8411 92.4401 73.8984 92.0781 73.8984 91.6406ZM86.6797 100H79.0156V88.3672H86.6797V89.7422H80.5625V92.9297H86.6797V94.3047H80.5625V98.625H86.6797V100Z" fill="#333333"/>
</svg>
