<svg width="85" height="83" viewBox="0 0 85 83" fill="none" xmlns="http://www.w3.org/2000/svg">
<path d="M2 60L42 0L82 60H2Z" fill="#8BC34A"/>
<path d="M22 60L42 20L62 60" fill="#689F38"/>
<path d="M8.03125 73.9141C8.26562 74.1745 8.4375 74.4609 8.54688 74.7734C8.66146 75.0807 8.71875 75.4401 8.71875 75.8516C8.71875 76.8307 8.35677 77.638 7.63281 78.2734C6.90885 78.9089 6.01042 79.2266 4.9375 79.2266C4.44271 79.2266 3.94792 79.151 3.45312 79C2.95833 78.8438 2.53125 78.6562 2.17188 78.4375L1.83594 79.0078H1.21094L1.10156 75.2109H1.73438C1.86458 75.6797 2.01562 76.1042 2.1875 76.4844C2.36458 76.8594 2.59635 77.2109 2.88281 77.5391C3.15365 77.8464 3.46875 78.0911 3.82812 78.2734C4.19271 78.4557 4.61458 78.5469 5.09375 78.5469C5.45312 78.5469 5.76562 78.5 6.03125 78.4062C6.30208 78.3125 6.52083 78.1797 6.6875 78.0078C6.85417 77.8359 6.97656 77.6354 7.05469 77.4062C7.13802 77.1719 7.17969 76.9036 7.17969 76.6016C7.17969 76.1589 7.05469 75.7474 6.80469 75.3672C6.55469 74.9818 6.18229 74.6901 5.6875 74.4922C5.34896 74.3568 4.96094 74.2083 4.52344 74.0469C4.08594 73.8802 3.70833 73.724 3.39062 73.5781C2.76562 73.2969 2.27865 72.9297 1.92969 72.4766C1.58594 72.0182 1.41406 71.4219 1.41406 70.6875C1.41406 70.2656 1.5 69.8724 1.67188 69.5078C1.84375 69.1432 2.08854 68.8177 2.40625 68.5312C2.70833 68.2604 3.0651 68.0495 3.47656 67.8984C3.88802 67.7422 4.31771 67.6641 4.76562 67.6641C5.27604 67.6641 5.73177 67.7422 6.13281 67.8984C6.53906 68.0547 6.90885 68.237 7.24219 68.4453L7.5625 67.9141H8.1875L8.25 71.5938H7.61719C7.5026 71.1719 7.3724 70.7682 7.22656 70.3828C7.08594 69.9974 6.90104 69.6484 6.67188 69.3359C6.44792 69.0339 6.17448 68.7943 5.85156 68.6172C5.52865 68.4349 5.13281 68.3438 4.66406 68.3438C4.16927 68.3438 3.7474 68.5026 3.39844 68.8203C3.04948 69.138 2.875 69.526 2.875 69.9844C2.875 70.4635 2.98698 70.862 3.21094 71.1797C3.4349 71.4922 3.76042 71.75 4.1875 71.9531C4.56771 72.1354 4.9401 72.2943 5.30469 72.4297C5.67448 72.5599 6.03125 72.7005 6.375 72.8516C6.6875 72.987 6.98698 73.1406 7.27344 73.3125C7.5651 73.4844 7.81771 73.6849 8.03125 73.9141ZM20.3438 68.4688C20.2083 68.474 20.0443 68.5052 19.8516 68.5625C19.6589 68.6146 19.5 68.6797 19.375 68.7578C19.1979 68.8672 19.0547 69.0078 18.9453 69.1797C18.8411 69.3516 18.737 69.5547 18.6328 69.7891C18.2839 70.6172 17.7604 71.9089 17.0625 73.6641C16.3646 75.4141 15.6458 77.2396 14.9062 79.1406H14.2578C13.5078 77.125 12.7839 75.1823 12.0859 73.3125C11.388 71.4427 10.9141 70.1797 10.6641 69.5234C10.6016 69.362 10.5182 69.2214 10.4141 69.1016C10.3099 68.9766 10.1719 68.8594 10 68.75C9.85938 68.6615 9.70312 68.5964 9.53125 68.5547C9.35938 68.5078 9.20052 68.4792 9.05469 68.4688V67.9141H13.6406V68.4688C13.25 68.4896 12.9193 68.5286 12.6484 68.5859C12.3828 68.6432 12.25 68.7448 12.25 68.8906C12.25 68.9479 12.2604 69.0156 12.2812 69.0938C12.3021 69.1719 12.3203 69.2344 12.3359 69.2812C12.5286 69.7917 12.8411 70.625 13.2734 71.7812C13.7057 72.9323 14.3203 74.5729 15.1172 76.7031C15.513 75.7396 15.9688 74.6016 16.4844 73.2891C17 71.9766 17.3464 71.0755 17.5234 70.5859C17.6953 70.112 17.7943 69.7839 17.8203 69.6016C17.8516 69.4193 17.8672 69.2708 17.8672 69.1562C17.8672 69.0365 17.8125 68.9375 17.7031 68.8594C17.599 68.776 17.4583 68.7057 17.2812 68.6484C17.1094 68.5964 16.9349 68.5573 16.7578 68.5312C16.5807 68.5052 16.401 68.4844 16.2188 68.4688V67.9141H20.3438V68.4688ZM35.8672 68.4688C35.737 68.474 35.5859 68.5052 35.4141 68.5625C35.2422 68.6146 35.0833 68.6849 34.9375 68.7734C34.7552 68.888 34.6068 69.0208 34.4922 69.1719C34.3828 69.3177 34.2865 69.5234 34.2031 69.7891C33.8333 70.9922 33.4036 72.3984 32.9141 74.0078C32.4245 75.612 31.8958 77.3229 31.3281 79.1406H30.6094L27.8125 70.6094L24.8984 79.1406H24.2109C23.6953 77.3177 23.1615 75.4271 22.6094 73.4688C22.0573 71.5052 21.6875 70.1901 21.5 69.5234C21.4531 69.362 21.3828 69.2188 21.2891 69.0938C21.2005 68.9688 21.0781 68.8542 20.9219 68.75C20.7917 68.6615 20.638 68.5964 20.4609 68.5547C20.2891 68.5078 20.1328 68.4792 19.9922 68.4688V67.9141H24.5156V68.4688C24.1198 68.4896 23.7812 68.5286 23.5 68.5859C23.224 68.6432 23.0859 68.7396 23.0859 68.875C23.0859 68.9271 23.0938 68.9974 23.1094 69.0859C23.125 69.1693 23.138 69.237 23.1484 69.2891C23.2682 69.7474 23.4792 70.5052 23.7812 71.5625C24.0885 72.6146 24.5417 74.1927 25.1406 76.2969L27.9062 68.0703H28.6719L31.4609 76.4766C31.8359 75.1849 32.1589 74.0573 32.4297 73.0938C32.7005 72.125 32.9245 71.2969 33.1016 70.6094C33.2266 70.125 33.3047 69.7943 33.3359 69.6172C33.3672 69.4349 33.3828 69.2812 33.3828 69.1562C33.3828 68.9792 33.2604 68.8307 33.0156 68.7109C32.776 68.5911 32.3854 68.5104 31.8438 68.4688V67.9141H35.8672V68.4688ZM50.9844 74.5703C50.8594 74.5859 50.6901 74.612 50.4766 74.6484C50.2682 74.6797 50.099 74.7266 49.9688 74.7891C49.8125 74.8672 49.7005 74.9792 49.6328 75.125C49.5703 75.2656 49.5391 75.4323 49.5391 75.625V76.4844C49.5391 77.1094 49.5417 77.5312 49.5469 77.75C49.5573 77.9688 49.5677 78.1484 49.5781 78.2891C48.8854 78.6016 48.1953 78.8411 47.5078 79.0078C46.8203 79.1745 46.1458 79.2578 45.4844 79.2578C44.776 79.2578 44.0938 79.125 43.4375 78.8594C42.7812 78.5938 42.2083 78.2161 41.7188 77.7266C41.224 77.2318 40.8307 76.6302 40.5391 75.9219C40.2474 75.2135 40.1016 74.4219 40.1016 73.5469C40.1016 72.7031 40.2396 71.9219 40.5156 71.2031C40.7969 70.4792 41.1927 69.8516 41.7031 69.3203C42.1979 68.7995 42.7865 68.3958 43.4688 68.1094C44.1562 67.8177 44.8906 67.6719 45.6719 67.6719C46.2969 67.6719 46.8411 67.7474 47.3047 67.8984C47.7682 68.0495 48.1771 68.2318 48.5312 68.4453L48.8516 67.9141H49.4766L49.5469 71.7891H48.9062C48.7969 71.362 48.6615 70.9427 48.5 70.5312C48.3385 70.1146 48.1302 69.7422 47.875 69.4141C47.6198 69.0859 47.3073 68.8255 46.9375 68.6328C46.5729 68.4349 46.1354 68.3359 45.625 68.3359C45.0677 68.3359 44.5703 68.4505 44.1328 68.6797C43.6953 68.9036 43.3151 69.2396 42.9922 69.6875C42.6745 70.1198 42.4297 70.6589 42.2578 71.3047C42.0859 71.9505 42 72.6719 42 73.4688C42 74.1719 42.0833 74.8359 42.25 75.4609C42.4219 76.0807 42.6693 76.6172 42.9922 77.0703C43.3151 77.5339 43.7188 77.8984 44.2031 78.1641C44.6875 78.4297 45.237 78.5625 45.8516 78.5625C46.3099 78.5625 46.7266 78.4922 47.1016 78.3516C47.4818 78.2109 47.75 78.0625 47.9062 77.9062C47.9479 77.6354 47.9688 77.362 47.9688 77.0859C47.974 76.8099 47.9766 76.5755 47.9766 76.3828V75.7734C47.9766 75.5547 47.9453 75.362 47.8828 75.1953C47.8255 75.0234 47.7031 74.8984 47.5156 74.8203C47.3438 74.7422 47.1094 74.6849 46.8125 74.6484C46.5208 74.6068 46.2917 74.5807 46.125 74.5703V74H50.9844V74.5703ZM57.5625 72.2891C57.5625 72.5547 57.4974 72.7917 57.3672 73C57.237 73.2031 57.0365 73.3047 56.7656 73.3047C56.474 73.3047 56.25 73.2292 56.0938 73.0781C55.9427 72.9271 55.8672 72.7604 55.8672 72.5781C55.8672 72.4635 55.875 72.3594 55.8906 72.2656C55.9115 72.1719 55.9297 72.0781 55.9453 71.9844C55.7005 71.9844 55.4141 72.0833 55.0859 72.2812C54.7578 72.4792 54.4792 72.7604 54.25 73.125V77.6094C54.25 77.7917 54.2839 77.9401 54.3516 78.0547C54.4245 78.1693 54.5365 78.2552 54.6875 78.3125C54.8177 78.3646 54.9844 78.4036 55.1875 78.4297C55.3958 78.4557 55.5755 78.474 55.7266 78.4844V79H51.6641V78.4844C51.7839 78.474 51.9062 78.4635 52.0312 78.4531C52.1615 78.4427 52.2734 78.4219 52.3672 78.3906C52.513 78.3438 52.6198 78.263 52.6875 78.1484C52.7604 78.0286 52.7969 77.875 52.7969 77.6875V72.9297C52.7969 72.7682 52.7578 72.6094 52.6797 72.4531C52.6068 72.2969 52.5026 72.1719 52.3672 72.0781C52.2682 72.0156 52.151 71.9714 52.0156 71.9453C51.8802 71.9141 51.7344 71.8932 51.5781 71.8828V71.375L54.1406 71.2031L54.25 71.3125V72.3984H54.2891C54.612 71.9766 54.9714 71.6562 55.3672 71.4375C55.763 71.2188 56.125 71.1094 56.4531 71.1094C56.7812 71.1094 57.0469 71.2161 57.25 71.4297C57.4583 71.6432 57.5625 71.9297 57.5625 72.2891ZM65.7344 75.0703C65.7344 75.612 65.6484 76.1458 65.4766 76.6719C65.3047 77.1927 65.0599 77.6354 64.7422 78C64.3828 78.4167 63.9661 78.7266 63.4922 78.9297C63.0182 79.1328 62.487 79.2344 61.8984 79.2344C61.4089 79.2344 60.9427 79.1432 60.5 78.9609C60.0573 78.7734 59.6641 78.5026 59.3203 78.1484C58.9818 77.7995 58.7109 77.375 58.5078 76.875C58.3099 76.3698 58.2109 75.8047 58.2109 75.1797C58.2109 73.9766 58.5599 72.9922 59.2578 72.2266C59.9609 71.4609 60.8802 71.0781 62.0156 71.0781C63.0938 71.0781 63.9818 71.4427 64.6797 72.1719C65.3828 72.8958 65.7344 73.862 65.7344 75.0703ZM64.1172 75.0859C64.1172 74.6953 64.0781 74.2839 64 73.8516C63.9219 73.4141 63.8047 73.0443 63.6484 72.7422C63.4818 72.4193 63.263 72.1615 62.9922 71.9688C62.7214 71.7708 62.3906 71.6719 62 71.6719C61.599 71.6719 61.2552 71.7708 60.9688 71.9688C60.6875 72.1667 60.4583 72.4375 60.2812 72.7812C60.1146 73.099 59.9974 73.4609 59.9297 73.8672C59.862 74.2734 59.8281 74.6667 59.8281 75.0469C59.8281 75.5469 59.8672 76.0104 59.9453 76.4375C60.0286 76.8594 60.1589 77.237 60.3359 77.5703C60.513 77.9036 60.7344 78.1667 61 78.3594C61.2708 78.5469 61.6042 78.6406 62 78.6406C62.651 78.6406 63.1667 78.3255 63.5469 77.6953C63.9271 77.0651 64.1172 76.1953 64.1172 75.0859ZM75.1094 78.8594L72.6016 79.0312L72.4844 78.9219V77.9453H72.4375C72.3125 78.0755 72.1719 78.2161 72.0156 78.3672C71.8594 78.513 71.6797 78.6458 71.4766 78.7656C71.2422 78.9062 71.0156 79.013 70.7969 79.0859C70.5781 79.1589 70.2682 79.1953 69.8672 79.1953C69.1849 79.1953 68.6641 78.974 68.3047 78.5312C67.9505 78.0833 67.7734 77.4349 67.7734 76.5859V72.8984C67.7734 72.7109 67.737 72.5547 67.6641 72.4297C67.5964 72.2995 67.4948 72.1875 67.3594 72.0938C67.2656 72.0312 67.1484 71.987 67.0078 71.9609C66.8672 71.9297 66.7188 71.9089 66.5625 71.8984V71.3906L69.1328 71.2031L69.25 71.3125V76.6641C69.25 77.2214 69.375 77.6406 69.625 77.9219C69.875 78.2031 70.1745 78.3438 70.5234 78.3438C70.8099 78.3438 71.0651 78.2995 71.2891 78.2109C71.513 78.1224 71.7005 78.0182 71.8516 77.8984C71.9922 77.7891 72.1146 77.6745 72.2188 77.5547C72.3281 77.4297 72.4115 77.3151 72.4688 77.2109V72.8438C72.4688 72.6719 72.4323 72.5208 72.3594 72.3906C72.2865 72.2552 72.1849 72.1406 72.0547 72.0469C71.9609 71.9844 71.8203 71.9479 71.6328 71.9375C71.4505 71.9219 71.2448 71.9089 71.0156 71.8984V71.3906L73.8125 71.2031L73.9297 71.3125V77.4297C73.9297 77.6068 73.9661 77.7578 74.0391 77.8828C74.112 78.0078 74.2135 78.1146 74.3438 78.2031C74.4375 78.2604 74.5495 78.2995 74.6797 78.3203C74.8099 78.3359 74.9531 78.3464 75.1094 78.3516V78.8594ZM83.0938 72.2109C83.401 72.5755 83.638 73 83.8047 73.4844C83.9766 73.9635 84.0625 74.513 84.0625 75.1328C84.0625 75.7422 83.9609 76.2995 83.7578 76.8047C83.5547 77.3047 83.2865 77.7318 82.9531 78.0859C82.6042 78.4453 82.2161 78.7214 81.7891 78.9141C81.362 79.1068 80.9089 79.2031 80.4297 79.2031C79.9661 79.2031 79.5859 79.151 79.2891 79.0469C78.9922 78.9427 78.75 78.8203 78.5625 78.6797H78.5V80.9922C78.5 81.1797 78.5365 81.3359 78.6094 81.4609C78.6823 81.5859 78.7943 81.6771 78.9453 81.7344C79.0703 81.7812 79.2474 81.8255 79.4766 81.8672C79.7109 81.9141 79.9036 81.9401 80.0547 81.9453V82.4688H75.75V81.9453C75.9115 81.9349 76.0677 81.9219 76.2188 81.9062C76.3698 81.8906 76.5052 81.8646 76.625 81.8281C76.7812 81.776 76.8906 81.6849 76.9531 81.5547C77.0156 81.4245 77.0469 81.2708 77.0469 81.0938V72.8984C77.0469 72.7422 77.0078 72.5911 76.9297 72.4453C76.8516 72.2995 76.75 72.1823 76.625 72.0938C76.5312 72.0312 76.401 71.9844 76.2344 71.9531C76.0677 71.9167 75.9062 71.8932 75.75 71.8828V71.375L78.375 71.2031L78.4844 71.2969V72.1641L78.5469 72.1797C78.8177 71.8672 79.1536 71.6068 79.5547 71.3984C79.9557 71.1901 80.3542 71.0859 80.75 71.0859C81.2292 71.0859 81.6667 71.1875 82.0625 71.3906C82.4635 71.5938 82.8073 71.8672 83.0938 72.2109ZM81.8203 77.75C82.0286 77.4271 82.1823 77.0521 82.2812 76.625C82.3802 76.1979 82.4297 75.7214 82.4297 75.1953C82.4297 74.8099 82.388 74.4167 82.3047 74.0156C82.2214 73.6146 82.0911 73.2656 81.9141 72.9688C81.737 72.6667 81.5052 72.4219 81.2188 72.2344C80.9323 72.0469 80.5885 71.9531 80.1875 71.9531C79.8021 71.9531 79.474 72.0391 79.2031 72.2109C78.9323 72.3776 78.6979 72.5781 78.5 72.8125V77.3672C78.5469 77.5078 78.6224 77.6536 78.7266 77.8047C78.8359 77.9557 78.9557 78.0859 79.0859 78.1953C79.2474 78.3255 79.4219 78.4323 79.6094 78.5156C79.7969 78.5938 80.026 78.6328 80.2969 78.6328C80.5885 78.6328 80.8698 78.5573 81.1406 78.4062C81.4115 78.25 81.638 78.0312 81.8203 77.75Z" fill="#333333"/>
</svg>
