<svg width="188" height="50" viewBox="0 0 188 50" fill="none" xmlns="http://www.w3.org/2000/svg">
<path d="M10.9017 0C30.9017 0 40.9017 30 20.9017 50C0.901699 30 -9.0983 0 10.9017 0Z" fill="#93C5FD"/>
<path d="M10.9015 10C20.9015 10 25.9015 30 15.9015 40C5.90153 30 0.901533 10 10.9015 10Z" fill="#F9FAFB"/>
<path d="M5.90186 17C7.00642 17 7.90186 16.1046 7.90186 15C7.90186 13.8954 7.00642 13 5.90186 13C4.79729 13 3.90186 13.8954 3.90186 15C3.90186 16.1046 4.79729 17 5.90186 17Z" fill="#1F2937"/>
<path d="M15.9019 17C17.0064 17 17.9019 16.1046 17.9019 15C17.9019 13.8954 17.0064 13 15.9019 13C14.7973 13 13.9019 13.8954 13.9019 15C13.9019 16.1046 14.7973 17 15.9019 17Z" fill="#1F2937"/>
<path d="M7.90186 18H13.9019L10.9019 22L7.90186 18Z" fill="#F59E0B"/>
<path d="M56.104 10.8C57.352 10.8 58.516 11.16 59.596 11.88C60.7 12.6 61.588 13.572 62.26 14.796C62.932 16.02 63.268 17.388 63.268 18.9C63.268 20.388 62.932 21.744 62.26 22.968C61.588 24.192 60.7 25.176 59.596 25.92C58.516 26.64 57.352 27 56.104 27H49.48L49.84 26.352V33.804C49.84 34.428 49.648 34.956 49.264 35.388C48.88 35.796 48.376 36 47.752 36C47.152 36 46.66 35.796 46.276 35.388C45.892 34.956 45.7 34.428 45.7 33.804V12.996C45.7 12.372 45.904 11.856 46.312 11.448C46.744 11.016 47.272 10.8 47.896 10.8H56.104ZM56.104 22.896C56.56 22.896 57.004 22.704 57.436 22.32C57.868 21.936 58.228 21.444 58.516 20.844C58.804 20.22 58.948 19.572 58.948 18.9C58.948 18.204 58.804 17.556 58.516 16.956C58.228 16.356 57.868 15.876 57.436 15.516C57.004 15.132 56.56 14.94 56.104 14.94H49.408L49.84 14.292V23.472L49.444 22.896H56.104ZM71.8914 33.804C71.8914 34.428 71.6634 34.956 71.2074 35.388C70.7514 35.796 70.2234 36 69.6234 36C68.9514 36 68.4114 35.796 68.0034 35.388C67.5954 34.956 67.3914 34.428 67.3914 33.804V12.996C67.3914 12.372 67.6074 11.856 68.0394 11.448C68.4714 11.016 69.0234 10.8 69.6954 10.8C70.2714 10.8 70.7754 11.016 71.2074 11.448C71.6634 11.856 71.8914 12.372 71.8914 12.996V33.804ZM96.4215 10.8C96.9975 10.8 97.4655 10.992 97.8255 11.376C98.1855 11.76 98.3655 12.24 98.3655 12.816V33.804C98.3655 34.428 98.1495 34.956 97.7175 35.388C97.3095 35.796 96.7935 36 96.1695 36C95.8575 36 95.5335 35.952 95.1975 35.856C94.8855 35.736 94.6455 35.58 94.4775 35.388L80.3295 17.424L81.2655 16.848V33.984C81.2655 34.56 81.0735 35.04 80.6895 35.424C80.3295 35.808 79.8495 36 79.2495 36C78.6735 36 78.2055 35.808 77.8455 35.424C77.4855 35.04 77.3055 34.56 77.3055 33.984V12.996C77.3055 12.372 77.5095 11.856 77.9175 11.448C78.3495 11.016 78.8775 10.8 79.5015 10.8C79.8375 10.8 80.1855 10.872 80.5455 11.016C80.9055 11.136 81.1695 11.328 81.3375 11.592L95.0535 29.088L94.4415 29.52V12.816C94.4415 12.24 94.6215 11.76 94.9815 11.376C95.3415 10.992 95.8215 10.8 96.4215 10.8ZM115.658 36.36C113.834 36.36 112.13 36.024 110.546 35.352C108.962 34.68 107.57 33.756 106.37 32.58C105.17 31.38 104.222 30 103.526 28.44C102.854 26.88 102.518 25.2 102.518 23.4C102.518 21.6 102.854 19.92 103.526 18.36C104.222 16.8 105.17 15.432 106.37 14.256C107.57 13.056 108.962 12.12 110.546 11.448C112.13 10.776 113.834 10.44 115.658 10.44C116.786 10.44 117.878 10.56 118.934 10.8C119.99 11.04 120.962 11.4 121.85 11.88C122.21 12.072 122.474 12.336 122.642 12.672C122.834 12.984 122.93 13.308 122.93 13.644C122.93 14.22 122.738 14.736 122.354 15.192C121.97 15.648 121.478 15.876 120.878 15.876C120.686 15.876 120.482 15.852 120.266 15.804C120.074 15.756 119.882 15.684 119.69 15.588C119.09 15.324 118.454 15.12 117.782 14.976C117.11 14.832 116.402 14.76 115.658 14.76C114.098 14.76 112.67 15.156 111.374 15.948C110.102 16.716 109.082 17.76 108.314 19.08C107.57 20.376 107.198 21.816 107.198 23.4C107.198 24.96 107.57 26.4 108.314 27.72C109.082 29.04 110.102 30.096 111.374 30.888C112.67 31.656 114.098 32.04 115.658 32.04C116.378 32.04 117.17 31.968 118.034 31.824C118.898 31.68 119.606 31.488 120.158 31.248L119.834 32.328V26.172L120.446 26.712H116.45C115.826 26.712 115.298 26.508 114.866 26.1C114.458 25.692 114.254 25.176 114.254 24.552C114.254 23.928 114.458 23.412 114.866 23.004C115.298 22.596 115.826 22.392 116.45 22.392H122.354C122.978 22.392 123.494 22.608 123.902 23.04C124.31 23.448 124.514 23.964 124.514 24.588V32.22C124.514 32.7 124.394 33.096 124.154 33.408C123.938 33.72 123.686 33.972 123.398 34.164C122.294 34.836 121.082 35.376 119.762 35.784C118.466 36.168 117.098 36.36 115.658 36.36ZM146.737 10.764C147.361 10.764 147.865 10.98 148.249 11.412C148.633 11.82 148.825 12.336 148.825 12.96V25.992C148.825 27.984 148.393 29.748 147.529 31.284C146.689 32.82 145.525 34.02 144.037 34.884C142.549 35.748 140.821 36.18 138.853 36.18C136.885 36.18 135.145 35.748 133.633 34.884C132.145 34.02 130.969 32.82 130.105 31.284C129.265 29.748 128.845 27.984 128.845 25.992V12.96C128.845 12.336 129.061 11.82 129.493 11.412C129.925 10.98 130.477 10.764 131.149 10.764C131.701 10.764 132.193 10.98 132.625 11.412C133.081 11.82 133.309 12.336 133.309 12.96V25.992C133.309 27.192 133.561 28.236 134.065 29.124C134.593 29.988 135.277 30.66 136.117 31.14C136.981 31.62 137.893 31.86 138.853 31.86C139.885 31.86 140.845 31.62 141.733 31.14C142.621 30.66 143.341 29.988 143.893 29.124C144.445 28.236 144.721 27.192 144.721 25.992V12.96C144.721 12.336 144.901 11.82 145.261 11.412C145.621 10.98 146.113 10.764 146.737 10.764ZM158.727 33.804C158.727 34.428 158.499 34.956 158.043 35.388C157.587 35.796 157.059 36 156.459 36C155.787 36 155.247 35.796 154.839 35.388C154.431 34.956 154.227 34.428 154.227 33.804V12.996C154.227 12.372 154.443 11.856 154.875 11.448C155.307 11.016 155.859 10.8 156.531 10.8C157.107 10.8 157.611 11.016 158.043 11.448C158.499 11.856 158.727 12.372 158.727 12.996V33.804ZM183.257 10.8C183.833 10.8 184.301 10.992 184.661 11.376C185.021 11.76 185.201 12.24 185.201 12.816V33.804C185.201 34.428 184.985 34.956 184.553 35.388C184.145 35.796 183.629 36 183.005 36C182.693 36 182.369 35.952 182.033 35.856C181.721 35.736 181.481 35.58 181.313 35.388L167.165 17.424L168.101 16.848V33.984C168.101 34.56 167.909 35.04 167.525 35.424C167.165 35.808 166.685 36 166.085 36C165.509 36 165.041 35.808 164.681 35.424C164.321 35.04 164.141 34.56 164.141 33.984V12.996C164.141 12.372 164.345 11.856 164.753 11.448C165.185 11.016 165.713 10.8 166.337 10.8C166.673 10.8 167.021 10.872 167.381 11.016C167.741 11.136 168.005 11.328 168.173 11.592L181.889 29.088L181.277 29.52V12.816C181.277 12.24 181.457 11.76 181.817 11.376C182.177 10.992 182.657 10.8 183.257 10.8Z" fill="#1F2937"/>
</svg>
