<svg width="192" height="122" viewBox="0 0 192 122" fill="none" xmlns="http://www.w3.org/2000/svg">
<path d="M1 11C21 1 41 21 61 11" stroke="#DAA520" stroke-width="2"/>
<path d="M11 6L16 1L11 6ZM26 6L31 1L26 6ZM41 6L46 1L41 6Z" fill="black"/>
<path d="M11 6L16 1M26 6L31 1M41 6L46 1" stroke="#DAA520" stroke-width="1.5"/>
<path d="M1 111C21 121 41 101 61 111" stroke="#DAA520" stroke-width="2"/>
<path d="M11 116L16 121L11 116ZM26 116L31 121L26 116ZM41 116L46 121L41 116Z" fill="black"/>
<path d="M11 116L16 121M26 116L31 121M41 116L46 121" stroke="#DAA520" stroke-width="1.5"/>
<path d="M11.9311 68V64.544L16.3951 63.248L15.4831 64.64V37.76L16.5871 39.2L11.9311 37.904V34.448L25.8511 34.208V37.664L21.2911 39.2L22.3471 37.712V49.376L21.2911 48.32H36.9391L35.8831 49.376V37.76L36.9391 39.152L32.3311 37.904V34.448L46.2511 34.208V37.664L41.7871 39.152L42.7471 37.712V64.64L41.7871 63.248L46.2511 64.544V68H32.3311V64.544L36.7471 63.248L35.8831 64.64V52.16L36.9391 53.264H21.2911L22.3471 52.16V64.64L21.4831 63.248L25.8511 64.544V68H11.9311ZM70.511 64.592L69.599 63.248L73.727 64.544V67.952L65.327 68.384L64.415 63.776L64.895 63.92C63.615 65.488 62.223 66.656 60.719 67.424C59.215 68.192 57.663 68.576 56.063 68.576C54.015 68.576 52.319 67.92 50.975 66.608C49.631 65.296 48.959 63.408 48.959 60.944C48.959 59.12 49.343 57.68 50.111 56.624C50.911 55.536 52.063 54.752 53.567 54.272C55.071 53.792 56.895 53.552 59.039 53.552H64.271L63.791 54.08V50.912C63.791 49.408 63.423 48.336 62.687 47.696C61.983 47.056 60.943 46.736 59.567 46.736C58.895 46.736 58.175 46.8 57.407 46.928C56.639 47.056 55.807 47.248 54.911 47.504L55.583 46.784L54.959 50.672H50.783L50.399 43.664C52.575 43.024 54.559 42.56 56.351 42.272C58.175 41.952 59.839 41.792 61.343 41.792C64.319 41.792 66.591 42.432 68.159 43.712C69.727 44.992 70.511 46.976 70.511 49.664V64.592ZM55.727 60.272C55.727 61.456 55.999 62.336 56.543 62.912C57.119 63.456 57.839 63.728 58.703 63.728C59.503 63.728 60.383 63.488 61.343 63.008C62.303 62.496 63.215 61.808 64.079 60.944L63.791 62.096V56.624L64.271 57.104H60.143C58.479 57.104 57.327 57.36 56.687 57.872C56.047 58.384 55.727 59.184 55.727 60.272ZM75.6733 68V64.544L79.5613 63.44L78.8893 64.448V46.016L79.6573 47.168L75.6733 45.968V42.512L84.1213 42.128L84.9853 46.688L84.1213 46.496C85.5613 44.992 86.9852 43.84 88.3932 43.04C89.8013 42.208 91.3053 41.792 92.9053 41.792C93.9293 41.792 95.0173 41.952 96.1693 42.272L95.7373 51.008H91.8013L91.1293 45.968L91.7533 47.264C91.5613 47.2 91.3533 47.152 91.1293 47.12C90.9373 47.088 90.7453 47.072 90.5533 47.072C89.5613 47.072 88.5693 47.376 87.5773 47.984C86.6173 48.592 85.7853 49.376 85.0813 50.336L85.6093 48.512V64.448L84.8413 63.44L89.5933 64.544V68H75.6733ZM112.94 42.56L123.788 42.176V45.584L121.052 46.784L121.964 45.776L114.044 68.096H106.172L99.2124 46.016L100.172 46.784L97.2924 46.016V42.56L109.052 42.176V45.584L105.548 46.64L106.028 45.776L110.924 63.824H110.396L115.82 46.16L116.204 46.688L112.94 46.016V42.56ZM136.044 68.576C133.708 68.576 131.66 68.096 129.9 67.136C128.14 66.144 126.764 64.688 125.772 62.768C124.812 60.816 124.332 58.448 124.332 55.664C124.332 52.784 124.844 50.32 125.868 48.272C126.924 46.192 128.396 44.592 130.284 43.472C132.172 42.352 134.396 41.792 136.956 41.792C139.452 41.792 141.484 42.288 143.052 43.28C144.62 44.272 145.772 45.632 146.508 47.36C147.244 49.056 147.612 50.976 147.612 53.12C147.612 53.664 147.58 54.208 147.516 54.752C147.484 55.296 147.42 55.872 147.324 56.48H129.756V52.496H141.564L140.7 53.12C140.732 51.84 140.604 50.72 140.316 49.76C140.06 48.768 139.612 48 138.972 47.456C138.364 46.912 137.516 46.64 136.428 46.64C135.18 46.64 134.172 47.008 133.404 47.744C132.636 48.448 132.076 49.408 131.724 50.624C131.404 51.84 131.244 53.2 131.244 54.704C131.244 56.4 131.452 57.92 131.868 59.264C132.284 60.608 132.956 61.664 133.884 62.432C134.844 63.2 136.092 63.584 137.628 63.584C138.716 63.584 139.884 63.392 141.132 63.008C142.412 62.592 143.74 61.984 145.116 61.184L147.372 64.784C145.516 66.064 143.612 67.024 141.66 67.664C139.74 68.272 137.868 68.576 136.044 68.576ZM157.972 48.848C157.972 49.584 158.292 50.176 158.932 50.624C159.572 51.072 160.388 51.456 161.38 51.776C162.404 52.096 163.476 52.432 164.596 52.784C165.748 53.136 166.82 53.6 167.812 54.176C168.836 54.72 169.668 55.456 170.308 56.384C170.948 57.312 171.268 58.512 171.268 59.984C171.268 61.872 170.756 63.456 169.732 64.736C168.708 66.016 167.316 66.976 165.556 67.616C163.796 68.256 161.812 68.576 159.604 68.576C158.324 68.576 156.964 68.464 155.523 68.24C154.116 68.016 152.66 67.712 151.156 67.328L151.444 60.08H155.668L156.196 64.304L155.62 63.488C156.26 63.68 156.964 63.84 157.732 63.968C158.5 64.064 159.172 64.112 159.748 64.112C160.58 64.112 161.348 64 162.052 63.776C162.788 63.552 163.38 63.232 163.828 62.816C164.308 62.368 164.548 61.808 164.548 61.136C164.548 60.368 164.228 59.76 163.588 59.312C162.948 58.864 162.116 58.48 161.092 58.16C160.1 57.84 159.044 57.504 157.924 57.152C156.836 56.8 155.78 56.336 154.756 55.76C153.764 55.184 152.948 54.416 152.308 53.456C151.668 52.496 151.348 51.248 151.348 49.712C151.348 47.856 151.812 46.352 152.74 45.2C153.668 44.016 154.9 43.152 156.436 42.608C158.004 42.064 159.716 41.792 161.572 41.792C162.884 41.792 164.276 41.92 165.748 42.176C167.22 42.4 168.724 42.736 170.26 43.184L170.02 49.616H165.748L164.98 45.824L165.892 46.832C164.388 46.416 163.06 46.208 161.908 46.208C160.724 46.208 159.764 46.448 159.028 46.928C158.324 47.376 157.972 48.016 157.972 48.848ZM183.611 68.576C181.403 68.576 179.723 67.92 178.571 66.608C177.451 65.264 176.891 63.28 176.891 60.656V45.968L177.755 46.832H173.147V43.232L177.851 42.128L176.891 43.28V36.752L183.659 35.552V43.28L182.939 42.368H190.235L190.139 46.832H182.939L183.659 45.968V59.744C183.659 61.12 183.883 62.112 184.331 62.72C184.779 63.328 185.451 63.632 186.347 63.632C186.859 63.632 187.419 63.552 188.027 63.392C188.667 63.2 189.355 62.96 190.091 62.672L191.339 66.368C188.651 67.84 186.075 68.576 183.611 68.576Z" fill="#654321"/>
<path d="M47.3771 85.194H45.7031L46.0271 84.924V89.172L45.7751 88.866L48.0071 89.226V90H43.0031V89.226L44.8211 88.848L44.5511 89.172V78.282L44.8571 78.624L43.0031 78.3V77.526L46.0631 77.436H48.0971C49.0211 77.436 49.7831 77.592 50.3831 77.904C50.9831 78.216 51.4331 78.648 51.7331 79.2C52.0331 79.752 52.1831 80.394 52.1831 81.126C52.1831 81.93 52.0031 82.638 51.6431 83.25C51.2831 83.862 50.7431 84.342 50.0231 84.69C49.3151 85.026 48.4331 85.194 47.3771 85.194ZM47.8811 78.534H45.7571L46.0271 78.264V84.366L45.7031 84.096H47.3771C48.4331 84.096 49.2431 83.832 49.8071 83.304C50.3831 82.776 50.6711 82.062 50.6711 81.162C50.6711 80.346 50.4311 79.704 49.9511 79.236C49.4831 78.768 48.7931 78.534 47.8811 78.534ZM53.2687 90V89.226L55.0507 88.848L54.8167 89.172V78.3L55.1227 78.642L53.2687 78.3V77.526L56.3467 77.436H58.4527C59.8087 77.436 60.8347 77.718 61.5307 78.282C62.2267 78.846 62.5747 79.662 62.5747 80.73C62.5747 81.714 62.2627 82.518 61.6387 83.142C61.0267 83.766 60.0907 84.144 58.8307 84.276L58.8127 84.096C59.2807 84.144 59.6587 84.252 59.9467 84.42C60.2467 84.576 60.4987 84.792 60.7027 85.068C60.9067 85.332 61.1047 85.662 61.2967 86.058L62.8087 89.118L62.3587 88.812L63.8707 89.226V90H61.6567L60.0007 86.454C59.7727 85.938 59.5507 85.542 59.3347 85.266C59.1307 84.978 58.8727 84.774 58.5607 84.654C58.2607 84.534 57.8287 84.474 57.2647 84.474L56.0227 84.492L56.2927 84.24V89.172L56.0587 88.848L58.1467 89.226V90H53.2687ZM56.2927 83.808L56.0227 83.412H57.7327C58.8007 83.412 59.6227 83.196 60.1987 82.764C60.7747 82.32 61.0627 81.672 61.0627 80.82C61.0627 80.076 60.8287 79.512 60.3607 79.128C59.8927 78.732 59.1967 78.534 58.2727 78.534H56.0227L56.2927 78.264V83.808ZM69.7064 78.21L67.9424 78.606L68.1404 78.354V89.118L67.9424 88.866L69.7064 89.226V90H65.1164V89.226L66.8624 88.866L66.6644 89.118V78.354L66.8984 78.624L65.1164 78.3V77.526L69.7064 77.436V78.21ZM85.7365 78.21L83.9365 78.624L84.1705 78.228V89.172L83.9365 88.848L85.7365 89.226V90H81.2545V89.226L83.0905 88.848L82.8025 89.172V79.074L83.0365 79.092L78.9505 86.724L77.9605 86.796L74.0005 79.056L74.2165 79.038V89.172L74.0005 88.866L75.7825 89.226V90H71.4445V89.226L73.2445 88.848L72.9925 89.172V78.228L73.2445 78.624L71.4445 78.3V77.526L74.8105 77.436L78.7165 85.338H78.5005L82.5325 77.526L85.7365 77.436V78.21ZM95.6658 87.048H96.5658V90H87.4758V89.226L89.2578 88.848L89.0238 89.172V78.3L89.2578 78.624L87.4758 78.3V77.526L90.4818 77.436H96.3498V80.28H95.4498L95.1258 78.3L95.4318 78.534H90.2298L90.4998 78.264V83.304L90.2298 83.034H95.0358V84.114H90.2298L90.4998 83.808V89.172L90.2298 88.902H95.6658L95.3418 89.172L95.6658 87.048ZM102.259 90V89.226L104.005 88.866L103.807 89.118V78.3L104.059 78.624L102.259 78.3V77.526L105.265 77.436H110.971L110.989 80.298H110.089L109.765 78.336L110.071 78.534H105.013L105.283 78.264V83.43L105.013 83.178H109.639V84.276H105.013L105.283 84.024V89.118L105.067 88.866L107.227 89.226V90H102.259ZM121.701 89.208L121.287 88.848L122.979 89.226V90H118.299V89.226L120.171 88.866L120.027 89.118L119.073 86.238L119.343 86.454H113.835L114.087 86.238L113.061 89.082L112.971 88.884L114.807 89.226V90H110.379V89.226L112.035 88.848L111.657 89.172L116.049 77.454L117.543 77.4L121.701 89.208ZM114.285 85.608L114.141 85.374H119.055L118.893 85.626L116.535 78.3L116.877 78.318L114.285 85.608ZM123.405 90V89.226L125.187 88.848L124.953 89.172V78.3L125.259 78.642L123.405 78.3V77.526L126.483 77.436H128.589C129.945 77.436 130.971 77.718 131.667 78.282C132.363 78.846 132.711 79.662 132.711 80.73C132.711 81.714 132.399 82.518 131.775 83.142C131.163 83.766 130.227 84.144 128.967 84.276L128.949 84.096C129.417 84.144 129.795 84.252 130.083 84.42C130.383 84.576 130.635 84.792 130.839 85.068C131.043 85.332 131.241 85.662 131.433 86.058L132.945 89.118L132.495 88.812L134.007 89.226V90H131.793L130.137 86.454C129.909 85.938 129.687 85.542 129.471 85.266C129.267 84.978 129.009 84.774 128.697 84.654C128.397 84.534 127.965 84.474 127.401 84.474L126.159 84.492L126.429 84.24V89.172L126.195 88.848L128.283 89.226V90H123.405ZM126.429 83.808L126.159 83.412H127.869C128.937 83.412 129.759 83.196 130.335 82.764C130.911 82.32 131.199 81.672 131.199 80.82C131.199 80.076 130.965 79.512 130.497 79.128C130.029 78.732 129.333 78.534 128.409 78.534H126.159L126.429 78.264V83.808ZM149.545 78.21L147.745 78.624L147.979 78.228V89.172L147.745 88.848L149.545 89.226V90H145.063V89.226L146.899 88.848L146.611 89.172V79.074L146.845 79.092L142.759 86.724L141.769 86.796L137.809 79.056L138.025 79.038V89.172L137.809 88.866L139.591 89.226V90H135.253V89.226L137.053 88.848L136.801 89.172V78.228L137.053 78.624L135.253 78.3V77.526L138.619 77.436L142.525 85.338H142.309L146.341 77.526L149.545 77.436V78.21ZM152.948 80.496C152.948 80.952 153.068 81.324 153.308 81.612C153.548 81.9 153.866 82.14 154.262 82.332C154.67 82.512 155.114 82.674 155.594 82.818C156.074 82.962 156.554 83.124 157.034 83.304C157.514 83.472 157.952 83.688 158.348 83.952C158.744 84.204 159.062 84.54 159.302 84.96C159.554 85.368 159.68 85.884 159.68 86.508C159.68 87.348 159.464 88.038 159.032 88.578C158.612 89.118 158.048 89.52 157.34 89.784C156.632 90.036 155.858 90.162 155.018 90.162C154.418 90.162 153.806 90.102 153.182 89.982C152.558 89.85 151.946 89.658 151.346 89.406L151.454 86.454H152.336L152.642 88.758L152.462 88.452C152.882 88.644 153.32 88.788 153.776 88.884C154.232 88.98 154.676 89.028 155.108 89.028C155.672 89.028 156.188 88.944 156.656 88.776C157.124 88.596 157.502 88.338 157.79 88.002C158.078 87.654 158.222 87.222 158.222 86.706C158.222 86.226 158.096 85.842 157.844 85.554C157.604 85.254 157.286 85.008 156.89 84.816C156.494 84.624 156.056 84.456 155.576 84.312C155.096 84.168 154.616 84.018 154.136 83.862C153.656 83.694 153.218 83.484 152.822 83.232C152.426 82.98 152.102 82.656 151.85 82.26C151.61 81.852 151.49 81.336 151.49 80.712C151.49 79.944 151.676 79.308 152.048 78.804C152.432 78.288 152.948 77.904 153.596 77.652C154.256 77.4 154.988 77.274 155.792 77.274C156.356 77.274 156.944 77.334 157.556 77.454C158.168 77.574 158.768 77.76 159.356 78.012L159.212 80.838H158.312L158.042 78.678L158.258 78.894C157.898 78.738 157.508 78.618 157.088 78.534C156.668 78.45 156.248 78.408 155.828 78.408C155.336 78.408 154.868 78.48 154.424 78.624C153.98 78.756 153.62 78.978 153.344 79.29C153.08 79.59 152.948 79.992 152.948 80.496Z" fill="#8B4513"/>
<path d="M51 64C52.6569 64 54 62.6569 54 61C54 59.3431 52.6569 58 51 58C49.3431 58 48 59.3431 48 61C48 62.6569 49.3431 64 51 64Z" fill="#DAA520"/>
<path d="M151 64C152.657 64 154 62.6569 154 61C154 59.3431 152.657 58 151 58C149.343 58 148 59.3431 148 61C148 62.6569 149.343 64 151 64Z" fill="#DAA520"/>
</svg>
