<svg width="74" height="72" viewBox="0 0 74 72" fill="none" xmlns="http://www.w3.org/2000/svg">
<path d="M37 15.4C37 23.9 30.3 30.8 22 30.8C13.7 30.8 7 23.9 7 15.4C7 6.9 13.7 0 22 0C30.3 0 37 6.9 37 15.4Z" fill="#F57C00"/>
<path d="M5.7 37.9C2.9 34.9 1.2 30.9 1.2 26.6C1.2 17.4 8.69999 9.90002 17.9 9.90002C27.1 9.90002 34.6 17.4 34.6 26.6C34.6 30.9 32.9 34.9 30.1 37.9L34 49.6H0L5.7 37.9Z" fill="#FF9800"/>
<path d="M17 9.90002L37 29.9H17V9.90002Z" fill="white"/>
<path d="M52 15.4C52 23.9 45.3 30.8 37 30.8C28.7 30.8 22 23.9 22 15.4C22 6.9 28.7 0 37 0C45.3 0 52 6.9 52 15.4Z" fill="#F57C00"/>
<path d="M20.7 37.9C17.9 34.9 16.2 30.9 16.2 26.6C16.2 17.4 23.7 9.90002 32.9 9.90002C42.1 9.90002 49.6 17.4 49.6 26.6C49.6 30.9 47.9 34.9 45.1 37.9L49 49.6H15L20.7 37.9Z" fill="#FF9800"/>
<path d="M32 9.90002L52 29.9H32V9.90002Z" fill="white"/>
<path d="M67 15.4C67 23.9 60.3 30.8 52 30.8C43.7 30.8 37 23.9 37 15.4C37 6.9 43.7 0 52 0C60.3 0 67 6.9 67 15.4Z" fill="#F57C00"/>
<path d="M35.7 37.9C32.9 34.9 31.2 30.9 31.2 26.6C31.2 17.4 38.7 9.90002 47.9 9.90002C57.1 9.90002 64.6 17.4 64.6 26.6C64.6 30.9 62.9 34.9 60.1 37.9L64 49.6H30L35.7 37.9Z" fill="#FF9800"/>
<path d="M47 9.90002L67 29.9H47V9.90002Z" fill="white"/>
<path d="M12.8145 61.4697C12.8145 62.6592 12.5537 63.7373 12.0322 64.7041C11.5166 65.6709 10.8281 66.4209 9.9668 66.9541C9.36914 67.3232 8.70117 67.5898 7.96289 67.7539C7.23047 67.918 6.26367 68 5.0625 68H1.75781V54.9131H5.02734C6.30469 54.9131 7.31836 55.0068 8.06836 55.1943C8.82422 55.376 9.46289 55.6279 9.98438 55.9502C10.875 56.5068 11.5693 57.248 12.0674 58.1738C12.5654 59.0996 12.8145 60.1982 12.8145 61.4697ZM10.9951 61.4434C10.9951 60.418 10.8164 59.5537 10.459 58.8506C10.1016 58.1475 9.56836 57.5938 8.85938 57.1895C8.34375 56.8965 7.7959 56.6943 7.21582 56.583C6.63574 56.4658 5.94141 56.4072 5.13281 56.4072H3.49805V66.5059H5.13281C5.9707 66.5059 6.7002 66.4443 7.32129 66.3213C7.94824 66.1982 8.52246 65.9697 9.04395 65.6357C9.69434 65.2197 10.1807 64.6719 10.5029 63.9922C10.8311 63.3125 10.9951 62.4629 10.9951 61.4434ZM23.7129 63.2627H16.4795C16.4795 63.8662 16.5703 64.3936 16.752 64.8447C16.9336 65.29 17.1826 65.6562 17.499 65.9434C17.8037 66.2246 18.1641 66.4355 18.5801 66.5762C19.002 66.7168 19.4648 66.7871 19.9688 66.7871C20.6367 66.7871 21.3076 66.6553 21.9814 66.3916C22.6611 66.1221 23.1445 65.8584 23.4316 65.6006H23.5195V67.4023C22.9629 67.6367 22.3945 67.833 21.8145 67.9912C21.2344 68.1494 20.625 68.2285 19.9863 68.2285C18.3574 68.2285 17.0859 67.7891 16.1719 66.9102C15.2578 66.0254 14.8008 64.7715 14.8008 63.1484C14.8008 61.543 15.2373 60.2686 16.1104 59.3252C16.9893 58.3818 18.1436 57.9102 19.5732 57.9102C20.8975 57.9102 21.917 58.2969 22.6318 59.0703C23.3525 59.8438 23.7129 60.9424 23.7129 62.3662V63.2627ZM22.1045 61.9971C22.0986 61.1299 21.8789 60.459 21.4453 59.9844C21.0176 59.5098 20.3643 59.2725 19.4854 59.2725C18.6006 59.2725 17.8945 59.5332 17.3672 60.0547C16.8457 60.5762 16.5498 61.2236 16.4795 61.9971H22.1045ZM27.8877 68H26.2354V54.3242H27.8877V68ZM32.9326 56.5391H31.0693V54.8252H32.9326V56.5391ZM32.8271 68H31.1748V58.1826H32.8271V68ZM44.0596 66.8838C44.0596 68.5479 43.6816 69.7695 42.9258 70.5488C42.1699 71.3281 41.0068 71.7178 39.4365 71.7178C38.915 71.7178 38.4053 71.6797 37.9072 71.6035C37.415 71.5332 36.9287 71.4307 36.4482 71.2959V69.6084H36.5361C36.8057 69.7139 37.2334 69.8428 37.8193 69.9951C38.4053 70.1533 38.9912 70.2324 39.5771 70.2324C40.1396 70.2324 40.6055 70.165 40.9746 70.0303C41.3438 69.8955 41.6309 69.708 41.8359 69.4678C42.041 69.2393 42.1875 68.9639 42.2754 68.6416C42.3633 68.3193 42.4072 67.959 42.4072 67.5605V66.6641C41.9092 67.0625 41.4316 67.3613 40.9746 67.5605C40.5234 67.7539 39.9463 67.8506 39.2432 67.8506C38.0713 67.8506 37.1396 67.4287 36.4482 66.585C35.7627 65.7354 35.4199 64.54 35.4199 62.999C35.4199 62.1553 35.5371 61.4287 35.7715 60.8193C36.0117 60.2041 36.3369 59.6738 36.7471 59.2285C37.1279 58.8125 37.5908 58.4902 38.1357 58.2617C38.6807 58.0273 39.2227 57.9102 39.7617 57.9102C40.3301 57.9102 40.8047 57.9688 41.1855 58.0859C41.5723 58.1973 41.9795 58.3701 42.4072 58.6045L42.5127 58.1826H44.0596V66.8838ZM42.4072 65.3018V59.9492C41.9678 59.75 41.5576 59.6094 41.1768 59.5273C40.8018 59.4395 40.4268 59.3955 40.0518 59.3955C39.1436 59.3955 38.4287 59.7002 37.9072 60.3096C37.3857 60.9189 37.125 61.8037 37.125 62.9639C37.125 64.0654 37.3184 64.9004 37.7051 65.4688C38.0918 66.0371 38.7334 66.3213 39.6299 66.3213C40.1104 66.3213 40.5908 66.2305 41.0713 66.0488C41.5576 65.8613 42.0029 65.6123 42.4072 65.3018ZM55.5205 68H53.8682V62.4102C53.8682 61.959 53.8418 61.5371 53.7891 61.1445C53.7363 60.7461 53.6396 60.4355 53.499 60.2129C53.3525 59.9668 53.1416 59.7852 52.8662 59.668C52.5908 59.5449 52.2334 59.4834 51.7939 59.4834C51.3428 59.4834 50.8711 59.5947 50.3789 59.8174C49.8867 60.04 49.415 60.3242 48.9639 60.6699V68H47.3115V54.3242H48.9639V59.2725C49.4795 58.8447 50.0127 58.5107 50.5635 58.2705C51.1143 58.0303 51.6797 57.9102 52.2598 57.9102C53.3203 57.9102 54.1289 58.2295 54.6855 58.8682C55.2422 59.5068 55.5205 60.4268 55.5205 61.6279V68ZM63.7998 67.9121C63.4893 67.9941 63.1494 68.0615 62.7803 68.1143C62.417 68.167 62.0918 68.1934 61.8047 68.1934C60.8027 68.1934 60.041 67.9238 59.5195 67.3848C58.998 66.8457 58.7373 65.9814 58.7373 64.792V59.5713H57.6211V58.1826H58.7373V55.3613H60.3896V58.1826H63.7998V59.5713H60.3896V64.0449C60.3896 64.5605 60.4014 64.9648 60.4248 65.2578C60.4482 65.5449 60.5303 65.8145 60.6709 66.0664C60.7998 66.3008 60.9756 66.4736 61.1982 66.585C61.4268 66.6904 61.7725 66.7432 62.2354 66.7432C62.5049 66.7432 62.7861 66.7051 63.0791 66.6289C63.3721 66.5469 63.583 66.4795 63.7119 66.4268H63.7998V67.9121ZM72.8174 65.1699C72.8174 66.0664 72.4453 66.8018 71.7012 67.376C70.9629 67.9502 69.9521 68.2373 68.6689 68.2373C67.9424 68.2373 67.2744 68.1523 66.665 67.9824C66.0615 67.8066 65.5547 67.6162 65.1445 67.4111V65.5566H65.2324C65.7539 65.9492 66.334 66.2627 66.9727 66.4971C67.6113 66.7256 68.2236 66.8398 68.8096 66.8398C69.5361 66.8398 70.1045 66.7227 70.5146 66.4883C70.9248 66.2539 71.1299 65.8848 71.1299 65.3809C71.1299 64.9941 71.0186 64.7012 70.7959 64.502C70.5732 64.3027 70.1455 64.1328 69.5127 63.9922C69.2783 63.9395 68.9707 63.8779 68.5898 63.8076C68.2148 63.7373 67.8721 63.6611 67.5615 63.5791C66.7002 63.3506 66.0879 63.0166 65.7246 62.5771C65.3672 62.1318 65.1885 61.5869 65.1885 60.9424C65.1885 60.5381 65.2705 60.1572 65.4346 59.7998C65.6045 59.4424 65.8594 59.123 66.1992 58.8418C66.5273 58.5664 66.9434 58.3496 67.4473 58.1914C67.957 58.0273 68.5254 57.9453 69.1523 57.9453C69.7383 57.9453 70.3301 58.0186 70.9277 58.165C71.5312 58.3057 72.0322 58.4785 72.4307 58.6836V60.4502H72.3428C71.9209 60.1396 71.4082 59.8789 70.8047 59.668C70.2012 59.4512 69.6094 59.3428 69.0293 59.3428C68.4258 59.3428 67.916 59.46 67.5 59.6943C67.084 59.9229 66.876 60.2656 66.876 60.7227C66.876 61.127 67.002 61.4316 67.2539 61.6367C67.5 61.8418 67.8984 62.0088 68.4492 62.1377C68.7539 62.208 69.0938 62.2783 69.4688 62.3486C69.8496 62.4189 70.166 62.4834 70.418 62.542C71.1855 62.7178 71.7773 63.0195 72.1934 63.4473C72.6094 63.8809 72.8174 64.4551 72.8174 65.1699Z" fill="#4A148C"/>
</svg>
