<svg width="252" height="62" viewBox="0 0 252 62" fill="none" xmlns="http://www.w3.org/2000/svg">
<path d="M0 11L20 31L0 51L11 62L42 31L11 0L0 11Z" fill="#7ED321"/>
<path d="M45.9297 51L59.125 16.6406H64.0234L78.0859 51H72.9062L68.8984 40.5938H54.5312L50.7578 51H45.9297ZM55.8438 36.8906H67.4922L63.9062 27.375C62.8125 24.4844 62 22.1094 61.4688 20.25C61.0312 22.4531 60.4141 24.6406 59.6172 26.8125L55.8438 36.8906ZM97.4922 51V47.3438C95.5547 50.1562 92.9219 51.5625 89.5938 51.5625C88.125 51.5625 86.75 51.2812 85.4688 50.7188C84.2031 50.1562 83.2578 49.4531 82.6328 48.6094C82.0234 47.75 81.5938 46.7031 81.3438 45.4688C81.1719 44.6406 81.0859 43.3281 81.0859 41.5312V26.1094H85.3047V39.9141C85.3047 42.1172 85.3906 43.6016 85.5625 44.3672C85.8281 45.4766 86.3906 46.3516 87.25 46.9922C88.1094 47.6172 89.1719 47.9297 90.4375 47.9297C91.7031 47.9297 92.8906 47.6094 94 46.9688C95.1094 46.3125 95.8906 45.4297 96.3438 44.3203C96.8125 43.1953 97.0469 41.5703 97.0469 39.4453V26.1094H101.266V51H97.4922ZM117.109 47.2266L117.719 50.9531C116.531 51.2031 115.469 51.3281 114.531 51.3281C113 51.3281 111.812 51.0859 110.969 50.6016C110.125 50.1172 109.531 49.4844 109.188 48.7031C108.844 47.9062 108.672 46.2422 108.672 43.7109V29.3906H105.578V26.1094H108.672V19.9453L112.867 17.4141V26.1094H117.109V29.3906H112.867V43.9453C112.867 45.1484 112.938 45.9219 113.078 46.2656C113.234 46.6094 113.477 46.8828 113.805 47.0859C114.148 47.2891 114.633 47.3906 115.258 47.3906C115.727 47.3906 116.344 47.3359 117.109 47.2266ZM119.688 38.5547C119.688 33.9453 120.969 30.5312 123.531 28.3125C125.672 26.4688 128.281 25.5469 131.359 25.5469C134.781 25.5469 137.578 26.6719 139.75 28.9219C141.922 31.1562 143.008 34.25 143.008 38.2031C143.008 41.4062 142.523 43.9297 141.555 45.7734C140.602 47.6016 139.203 49.0234 137.359 50.0391C135.531 51.0547 133.531 51.5625 131.359 51.5625C127.875 51.5625 125.055 50.4453 122.898 48.2109C120.758 45.9766 119.688 42.7578 119.688 38.5547ZM124.023 38.5547C124.023 41.7422 124.719 44.1328 126.109 45.7266C127.5 47.3047 129.25 48.0938 131.359 48.0938C133.453 48.0938 135.195 47.2969 136.586 45.7031C137.977 44.1094 138.672 41.6797 138.672 38.4141C138.672 35.3359 137.969 33.0078 136.562 31.4297C135.172 29.8359 133.438 29.0391 131.359 29.0391C129.25 29.0391 127.5 29.8281 126.109 31.4062C124.719 32.9844 124.023 35.3672 124.023 38.5547ZM148.375 51V16.6406H155.219L163.352 40.9688C164.102 43.2344 164.648 44.9297 164.992 46.0547C165.383 44.8047 165.992 42.9688 166.82 40.5469L175.047 16.6406H181.164V51H176.781V22.2422L166.797 51H162.695L152.758 21.75V51H148.375ZM204.203 47.9297C202.641 49.2578 201.133 50.1953 199.68 50.7422C198.242 51.2891 196.695 51.5625 195.039 51.5625C192.305 51.5625 190.203 50.8984 188.734 49.5703C187.266 48.2266 186.531 46.5156 186.531 44.4375C186.531 43.2188 186.805 42.1094 187.352 41.1094C187.914 40.0938 188.641 39.2812 189.531 38.6719C190.438 38.0625 191.453 37.6016 192.578 37.2891C193.406 37.0703 194.656 36.8594 196.328 36.6562C199.734 36.25 202.242 35.7656 203.852 35.2031C203.867 34.625 203.875 34.2578 203.875 34.1016C203.875 32.3828 203.477 31.1719 202.68 30.4688C201.602 29.5156 200 29.0391 197.875 29.0391C195.891 29.0391 194.422 29.3906 193.469 30.0938C192.531 30.7812 191.836 32.0078 191.383 33.7734L187.258 33.2109C187.633 31.4453 188.25 30.0234 189.109 28.9453C189.969 27.8516 191.211 27.0156 192.836 26.4375C194.461 25.8438 196.344 25.5469 198.484 25.5469C200.609 25.5469 202.336 25.7969 203.664 26.2969C204.992 26.7969 205.969 27.4297 206.594 28.1953C207.219 28.9453 207.656 29.8984 207.906 31.0547C208.047 31.7734 208.117 33.0703 208.117 34.9453V40.5703C208.117 44.4922 208.203 46.9766 208.375 48.0234C208.562 49.0547 208.922 50.0469 209.453 51H205.047C204.609 50.125 204.328 49.1016 204.203 47.9297ZM203.852 38.5078C202.32 39.1328 200.023 39.6641 196.961 40.1016C195.227 40.3516 194 40.6328 193.281 40.9453C192.562 41.2578 192.008 41.7188 191.617 42.3281C191.227 42.9219 191.031 43.5859 191.031 44.3203C191.031 45.4453 191.453 46.3828 192.297 47.1328C193.156 47.8828 194.406 48.2578 196.047 48.2578C197.672 48.2578 199.117 47.9062 200.383 47.2031C201.648 46.4844 202.578 45.5078 203.172 44.2734C203.625 43.3203 203.852 41.9141 203.852 40.0547V38.5078ZM223.891 47.2266L224.5 50.9531C223.312 51.2031 222.25 51.3281 221.312 51.3281C219.781 51.3281 218.594 51.0859 217.75 50.6016C216.906 50.1172 216.312 49.4844 215.969 48.7031C215.625 47.9062 215.453 46.2422 215.453 43.7109V29.3906H212.359V26.1094H215.453V19.9453L219.648 17.4141V26.1094H223.891V29.3906H219.648V43.9453C219.648 45.1484 219.719 45.9219 219.859 46.2656C220.016 46.6094 220.258 46.8828 220.586 47.0859C220.93 47.2891 221.414 47.3906 222.039 47.3906C222.508 47.3906 223.125 47.3359 223.891 47.2266ZM245.078 42.9844L249.438 43.5234C248.75 46.0703 247.477 48.0469 245.617 49.4531C243.758 50.8594 241.383 51.5625 238.492 51.5625C234.852 51.5625 231.961 50.4453 229.82 48.2109C227.695 45.9609 226.633 42.8125 226.633 38.7656C226.633 34.5781 227.711 31.3281 229.867 29.0156C232.023 26.7031 234.82 25.5469 238.258 25.5469C241.586 25.5469 244.305 26.6797 246.414 28.9453C248.523 31.2109 249.578 34.3984 249.578 38.5078C249.578 38.7578 249.57 39.1328 249.555 39.6328H230.992C231.148 42.3672 231.922 44.4609 233.312 45.9141C234.703 47.3672 236.438 48.0938 238.516 48.0938C240.062 48.0938 241.383 47.6875 242.477 46.875C243.57 46.0625 244.438 44.7656 245.078 42.9844ZM231.227 36.1641H245.125C244.938 34.0703 244.406 32.5 243.531 31.4531C242.188 29.8281 240.445 29.0156 238.305 29.0156C236.367 29.0156 234.734 29.6641 233.406 30.9609C232.094 32.2578 231.367 33.9922 231.227 36.1641Z" fill="#333333"/>
</svg>
