<svg width="206" height="86" viewBox="0 0 206 86" fill="none" xmlns="http://www.w3.org/2000/svg">
<path d="M3 28C36.3333 -5.33333 69.6667 -5.33333 103 28C136.333 61.3333 169.667 61.3333 203 28" stroke="#2C3E50" stroke-width="6" stroke-linecap="round"/>
<path d="M3 38C36.3333 18 69.6667 18 103 38C136.333 58 169.667 58 203 38" stroke="#34495E" stroke-width="2" stroke-dasharray="5 5"/>
<path d="M17.8008 62.7852V64.8359H12V80H9.63281V64.8359H3.83203V62.7852H17.8008ZM20.0039 62.7852H22.3594V69.8984H31.3125V62.7852H33.668V80H31.3125V71.9492H22.3594V80H20.0039V62.7852ZM45.293 70.6719C46.3867 70.6719 47.25 70.4531 47.8828 70.0156C48.5234 69.5781 48.8438 68.7891 48.8438 67.6484C48.8438 66.4219 48.3984 65.5859 47.5078 65.1406C47.0312 64.9062 46.3945 64.7891 45.5977 64.7891H39.9023V70.6719H45.293ZM37.5703 62.7852H45.5391C46.8516 62.7852 47.9336 62.9766 48.7852 63.3594C50.4023 64.0938 51.2109 65.4492 51.2109 67.4258C51.2109 68.457 50.9961 69.3008 50.5664 69.957C50.1445 70.6133 49.5508 71.1406 48.7852 71.5391C49.457 71.8125 49.9609 72.1719 50.2969 72.6172C50.6406 73.0625 50.832 73.7852 50.8711 74.7852L50.9531 77.0938C50.9766 77.75 51.0312 78.2383 51.1172 78.5586C51.2578 79.1055 51.5078 79.457 51.8672 79.6133V80H49.0078C48.9297 79.8516 48.8672 79.6602 48.8203 79.4258C48.7734 79.1914 48.7344 78.7383 48.7031 78.0664L48.5625 75.1953C48.5078 74.0703 48.0898 73.3164 47.3086 72.9336C46.8633 72.7227 46.1641 72.6172 45.2109 72.6172H39.9023V80H37.5703V62.7852ZM54.8555 62.7852H67.4062V64.8945H57.1289V70.1211H66.6328V72.1133H57.1289V77.9492H67.582V80H54.8555V62.7852ZM79.4766 72.9453L76.8633 65.3398L74.0859 72.9453H79.4766ZM75.6445 62.7852H78.2812L84.5273 80H81.9727L80.2266 74.8438H73.418L71.5547 80H69.1641L75.6445 62.7852ZM93.2578 78.0078C94.0469 78.0078 94.6953 77.9258 95.2031 77.7617C96.1094 77.457 96.8516 76.8711 97.4297 76.0039C97.8906 75.3086 98.2227 74.418 98.4258 73.332C98.543 72.6836 98.6016 72.082 98.6016 71.5273C98.6016 69.3945 98.1758 67.7383 97.3242 66.5586C96.4805 65.3789 95.1172 64.7891 93.2344 64.7891H89.0977V78.0078H93.2578ZM86.7539 62.7852H93.7266C96.0938 62.7852 97.9297 63.625 99.2344 65.3047C100.398 66.8203 100.98 68.7617 100.98 71.1289C100.98 72.957 100.637 74.6094 99.9492 76.0859C98.7383 78.6953 96.6562 80 93.7031 80H86.7539V62.7852ZM103.992 62.7852H106.324V77.9492H115.043V80H103.992V62.7852ZM117.879 62.7852H120.234V80H117.879V62.7852ZM124.031 62.7852H126.785L135.48 76.7305V62.7852H137.695V80H135.082L126.258 66.0664V80H124.031V62.7852ZM141.598 62.7852H154.148V64.8945H143.871V70.1211H153.375V72.1133H143.871V77.9492H154.324V80H141.598V62.7852Z" fill="#2C3E50"/>
</svg>
