<svg width="325" height="60" viewBox="0 0 325 60" fill="none" xmlns="http://www.w3.org/2000/svg">
<path d="M30 60C46.5685 60 60 46.5685 60 30C60 13.4315 46.5685 0 30 0C13.4315 0 0 13.4315 0 30C0 46.5685 13.4315 60 30 60Z" fill="#42A5F5"/>
<path d="M14.9999 20C19.9999 10 39.9999 10 44.9999 20C49.9999 30 39.9999 50 29.9999 50C19.9999 50 9.99985 30 14.9999 20Z" fill="white"/>
<path d="M22 28H38V32H22V28Z" fill="#42A5F5"/>
<path d="M94.7305 40.1016C94.0859 40.3828 93.5 40.6465 92.9727 40.8926C92.457 41.1387 91.7773 41.3965 90.9336 41.666C90.2188 41.8887 89.4395 42.0762 88.5957 42.2285C87.7637 42.3926 86.8438 42.4746 85.8359 42.4746C83.9375 42.4746 82.209 42.2109 80.6504 41.6836C79.1035 41.1445 77.7559 40.3066 76.6074 39.1699C75.4824 38.0566 74.6035 36.6445 73.9707 34.9336C73.3379 33.2109 73.0215 31.2129 73.0215 28.9395C73.0215 26.7832 73.3262 24.8555 73.9355 23.1562C74.5449 21.457 75.4238 20.0215 76.5723 18.8496C77.6855 17.7129 79.0273 16.8457 80.5977 16.248C82.1797 15.6504 83.9316 15.3516 85.8535 15.3516C87.2598 15.3516 88.6602 15.5215 90.0547 15.8613C91.4609 16.2012 93.0195 16.7988 94.7305 17.6543V21.7852H94.4668C93.0254 20.5781 91.5957 19.6992 90.1777 19.1484C88.7598 18.5977 87.2422 18.3223 85.625 18.3223C84.3008 18.3223 83.1055 18.5391 82.0391 18.9727C80.9844 19.3945 80.041 20.0566 79.209 20.959C78.4004 21.8379 77.7676 22.9512 77.3105 24.2988C76.8652 25.6348 76.6426 27.1816 76.6426 28.9395C76.6426 30.7793 76.8887 32.3613 77.3809 33.6855C77.8848 35.0098 78.5293 36.0879 79.3145 36.9199C80.1348 37.7871 81.0898 38.4316 82.1797 38.8535C83.2812 39.2637 84.4414 39.4688 85.6602 39.4688C87.3359 39.4688 88.9062 39.1816 90.3711 38.6074C91.8359 38.0332 93.207 37.1719 94.4844 36.0234H94.7305V40.1016ZM114.646 42H111.359V39.9082C111.066 40.1074 110.668 40.3887 110.164 40.752C109.672 41.1035 109.191 41.3848 108.723 41.5957C108.172 41.8652 107.539 42.0879 106.824 42.2637C106.109 42.4512 105.271 42.5449 104.311 42.5449C102.541 42.5449 101.041 41.959 99.8105 40.7871C98.5801 39.6152 97.9648 38.1211 97.9648 36.3047C97.9648 34.8164 98.2812 33.6152 98.9141 32.7012C99.5586 31.7754 100.473 31.0488 101.656 30.5215C102.852 29.9941 104.287 29.6367 105.963 29.4492C107.639 29.2617 109.438 29.1211 111.359 29.0273V28.5176C111.359 27.7676 111.225 27.1465 110.955 26.6543C110.697 26.1621 110.322 25.7754 109.83 25.4941C109.361 25.2246 108.799 25.043 108.143 24.9492C107.486 24.8555 106.801 24.8086 106.086 24.8086C105.219 24.8086 104.252 24.9258 103.186 25.1602C102.119 25.3828 101.018 25.7109 99.8809 26.1445H99.7051V22.7871C100.35 22.6113 101.281 22.418 102.5 22.207C103.719 21.9961 104.92 21.8906 106.104 21.8906C107.486 21.8906 108.688 22.0078 109.707 22.2422C110.738 22.4648 111.629 22.8516 112.379 23.4023C113.117 23.9414 113.68 24.6387 114.066 25.4941C114.453 26.3496 114.646 27.4102 114.646 28.6758V42ZM111.359 37.166V31.6992C110.352 31.7578 109.162 31.8457 107.791 31.9629C106.432 32.0801 105.354 32.25 104.557 32.4727C103.607 32.7422 102.84 33.1641 102.254 33.7383C101.668 34.3008 101.375 35.0801 101.375 36.0762C101.375 37.2012 101.715 38.0508 102.395 38.625C103.074 39.1875 104.111 39.4688 105.506 39.4688C106.666 39.4688 107.727 39.2461 108.688 38.8008C109.648 38.3438 110.539 37.7988 111.359 37.166ZM138.289 32.0332C138.289 33.6738 138.055 35.1504 137.586 36.4629C137.129 37.7754 136.508 38.877 135.723 39.7676C134.891 40.6934 133.977 41.3906 132.98 41.8594C131.984 42.3164 130.889 42.5449 129.693 42.5449C128.58 42.5449 127.607 42.4102 126.775 42.1406C125.943 41.8828 125.123 41.5312 124.314 41.0859L124.104 42H121.01V14.6484H124.314V24.4219C125.24 23.6602 126.225 23.0391 127.268 22.5586C128.311 22.0664 129.482 21.8203 130.783 21.8203C133.104 21.8203 134.932 22.7109 136.268 24.4922C137.615 26.2734 138.289 28.7871 138.289 32.0332ZM134.879 32.1211C134.879 29.7773 134.492 28.002 133.719 26.7949C132.945 25.5762 131.697 24.9668 129.975 24.9668C129.014 24.9668 128.041 25.1777 127.057 25.5996C126.072 26.0098 125.158 26.543 124.314 27.1992V38.4492C125.252 38.8711 126.055 39.1641 126.723 39.3281C127.402 39.4922 128.17 39.5742 129.025 39.5742C130.854 39.5742 132.283 38.9766 133.314 37.7812C134.357 36.5742 134.879 34.6875 134.879 32.1211ZM160.174 32.1914C160.174 35.3906 159.354 37.916 157.713 39.7676C156.072 41.6191 153.875 42.5449 151.121 42.5449C148.344 42.5449 146.135 41.6191 144.494 39.7676C142.865 37.916 142.051 35.3906 142.051 32.1914C142.051 28.9922 142.865 26.4668 144.494 24.6152C146.135 22.752 148.344 21.8203 151.121 21.8203C153.875 21.8203 156.072 22.752 157.713 24.6152C159.354 26.4668 160.174 28.9922 160.174 32.1914ZM156.764 32.1914C156.764 29.6484 156.266 27.7617 155.27 26.5312C154.273 25.2891 152.891 24.668 151.121 24.668C149.328 24.668 147.934 25.2891 146.938 26.5312C145.953 27.7617 145.461 29.6484 145.461 32.1914C145.461 34.6523 145.959 36.5215 146.955 37.7988C147.951 39.0645 149.34 39.6973 151.121 39.6973C152.879 39.6973 154.256 39.0703 155.252 37.8164C156.26 36.5508 156.764 34.6758 156.764 32.1914ZM182.041 32.1914C182.041 35.3906 181.221 37.916 179.58 39.7676C177.939 41.6191 175.742 42.5449 172.988 42.5449C170.211 42.5449 168.002 41.6191 166.361 39.7676C164.732 37.916 163.918 35.3906 163.918 32.1914C163.918 28.9922 164.732 26.4668 166.361 24.6152C168.002 22.752 170.211 21.8203 172.988 21.8203C175.742 21.8203 177.939 22.752 179.58 24.6152C181.221 26.4668 182.041 28.9922 182.041 32.1914ZM178.631 32.1914C178.631 29.6484 178.133 27.7617 177.137 26.5312C176.141 25.2891 174.758 24.668 172.988 24.668C171.195 24.668 169.801 25.2891 168.805 26.5312C167.82 27.7617 167.328 29.6484 167.328 32.1914C167.328 34.6523 167.826 36.5215 168.822 37.7988C169.818 39.0645 171.207 39.6973 172.988 39.6973C174.746 39.6973 176.123 39.0703 177.119 37.8164C178.127 36.5508 178.631 34.6758 178.631 32.1914ZM190.514 42H187.209V14.6484H190.514V42ZM232.086 28.9395C232.086 31.3184 231.564 33.4746 230.521 35.4082C229.49 37.3418 228.113 38.8418 226.391 39.9082C225.195 40.6465 223.859 41.1797 222.383 41.5078C220.918 41.8359 218.984 42 216.582 42H209.973V15.8262H216.512C219.066 15.8262 221.094 16.0137 222.594 16.3887C224.105 16.752 225.383 17.2559 226.426 17.9004C228.207 19.0137 229.596 20.4961 230.592 22.3477C231.588 24.1992 232.086 26.3965 232.086 28.9395ZM228.447 28.8867C228.447 26.8359 228.09 25.1074 227.375 23.7012C226.66 22.2949 225.594 21.1875 224.176 20.3789C223.145 19.793 222.049 19.3887 220.889 19.166C219.729 18.9316 218.34 18.8145 216.723 18.8145H213.453V39.0117H216.723C218.398 39.0117 219.857 38.8887 221.1 38.6426C222.354 38.3965 223.502 37.9395 224.545 37.2715C225.846 36.4395 226.818 35.3438 227.463 33.9844C228.119 32.625 228.447 30.9258 228.447 28.8867ZM253.883 32.5254H239.416C239.416 33.7324 239.598 34.7871 239.961 35.6895C240.324 36.5801 240.822 37.3125 241.455 37.8867C242.064 38.4492 242.785 38.8711 243.617 39.1523C244.461 39.4336 245.387 39.5742 246.395 39.5742C247.73 39.5742 249.072 39.3105 250.42 38.7832C251.779 38.2441 252.746 37.7168 253.32 37.2012H253.496V40.8047C252.383 41.2734 251.246 41.666 250.086 41.9824C248.926 42.2988 247.707 42.457 246.43 42.457C243.172 42.457 240.629 41.5781 238.801 39.8203C236.973 38.0508 236.059 35.543 236.059 32.2969C236.059 29.0859 236.932 26.5371 238.678 24.6504C240.436 22.7637 242.744 21.8203 245.604 21.8203C248.252 21.8203 250.291 22.5938 251.721 24.1406C253.162 25.6875 253.883 27.8848 253.883 30.7324V32.5254ZM250.666 29.9941C250.654 28.2598 250.215 26.918 249.348 25.9688C248.492 25.0195 247.186 24.5449 245.428 24.5449C243.658 24.5449 242.246 25.0664 241.191 26.1094C240.148 27.1523 239.557 28.4473 239.416 29.9941H250.666ZM275.311 42H272.006V30.8203C272.006 29.918 271.953 29.0742 271.848 28.2891C271.742 27.4922 271.549 26.8711 271.268 26.4258C270.975 25.9336 270.553 25.5703 270.002 25.3359C269.451 25.0898 268.736 24.9668 267.857 24.9668C266.955 24.9668 266.012 25.1895 265.027 25.6348C264.043 26.0801 263.1 26.6484 262.197 27.3398V42H258.893V22.3652H262.197V24.5449C263.229 23.6895 264.295 23.0215 265.396 22.541C266.498 22.0605 267.629 21.8203 268.789 21.8203C270.91 21.8203 272.527 22.459 273.641 23.7363C274.754 25.0137 275.311 26.8535 275.311 29.2559V42ZM291.869 41.8242C291.248 41.9883 290.568 42.123 289.83 42.2285C289.104 42.334 288.453 42.3867 287.879 42.3867C285.875 42.3867 284.352 41.8477 283.309 40.7695C282.266 39.6914 281.744 37.9629 281.744 35.584V25.1426H279.512V22.3652H281.744V16.7227H285.049V22.3652H291.869V25.1426H285.049V34.0898C285.049 35.1211 285.072 35.9297 285.119 36.5156C285.166 37.0898 285.33 37.6289 285.611 38.1328C285.869 38.6016 286.221 38.9473 286.666 39.1699C287.123 39.3809 287.814 39.4863 288.74 39.4863C289.279 39.4863 289.842 39.4102 290.428 39.2578C291.014 39.0938 291.436 38.959 291.693 38.8535H291.869V41.8242ZM311.135 42H307.848V39.9082C307.555 40.1074 307.156 40.3887 306.652 40.752C306.16 41.1035 305.68 41.3848 305.211 41.5957C304.66 41.8652 304.027 42.0879 303.312 42.2637C302.598 42.4512 301.76 42.5449 300.799 42.5449C299.029 42.5449 297.529 41.959 296.299 40.7871C295.068 39.6152 294.453 38.1211 294.453 36.3047C294.453 34.8164 294.77 33.6152 295.402 32.7012C296.047 31.7754 296.961 31.0488 298.145 30.5215C299.34 29.9941 300.775 29.6367 302.451 29.4492C304.127 29.2617 305.926 29.1211 307.848 29.0273V28.5176C307.848 27.7676 307.713 27.1465 307.443 26.6543C307.186 26.1621 306.811 25.7754 306.318 25.4941C305.85 25.2246 305.287 25.043 304.631 24.9492C303.975 24.8555 303.289 24.8086 302.574 24.8086C301.707 24.8086 300.74 24.9258 299.674 25.1602C298.607 25.3828 297.506 25.7109 296.369 26.1445H296.193V22.7871C296.838 22.6113 297.77 22.418 298.988 22.207C300.207 21.9961 301.408 21.8906 302.592 21.8906C303.975 21.8906 305.176 22.0078 306.195 22.2422C307.227 22.4648 308.117 22.8516 308.867 23.4023C309.605 23.9414 310.168 24.6387 310.555 25.4941C310.941 26.3496 311.135 27.4102 311.135 28.6758V42ZM307.848 37.166V31.6992C306.84 31.7578 305.65 31.8457 304.279 31.9629C302.92 32.0801 301.842 32.25 301.045 32.4727C300.096 32.7422 299.328 33.1641 298.742 33.7383C298.156 34.3008 297.863 35.0801 297.863 36.0762C297.863 37.2012 298.203 38.0508 298.883 38.625C299.562 39.1875 300.6 39.4688 301.994 39.4688C303.154 39.4688 304.215 39.2461 305.176 38.8008C306.137 38.3438 307.027 37.7988 307.848 37.166ZM320.838 42H317.533V14.6484H320.838V42Z" fill="#1A237E"/>
</svg>
