<svg width="204" height="114" viewBox="0 0 204 114" fill="none" xmlns="http://www.w3.org/2000/svg">
<path d="M2 2H202L192 82L102 112L12 82L2 2Z" fill="#1A237E" stroke="#FFD700" stroke-width="3"/>
<path d="M102 72C113.046 72 122 65.2843 122 57C122 48.7157 113.046 42 102 42C90.9543 42 82 48.7157 82 57C82 65.2843 90.9543 72 102 72Z" fill="#874B00" stroke="#FFD700"/>
<path d="M87 57H117H87Z" fill="black"/>
<path d="M87 57H117" stroke="white"/>
<path d="M102 42V72V42Z" fill="black"/>
<path d="M102 42V72" stroke="white"/>
<path d="M39.9281 12.32H46.9281V38H39.9281V12.32ZM61.8434 12.32H68.2434V38H62.2434L56.5234 24.52V38H50.1234V12.32H56.1234L61.8434 26.04V12.32ZM71.4516 12.32H83.2116C85.3449 12.32 86.8516 12.7733 87.7316 13.68C88.6382 14.5867 89.0916 15.7867 89.0916 17.28V20.56C89.0916 21.6 88.9582 22.5067 88.6916 23.28C88.4516 24.0533 87.9449 24.6533 87.1716 25.08C87.9449 25.4267 88.4516 25.9467 88.6916 26.64C88.9582 27.3333 89.0916 28.1867 89.0916 29.2V33.04C89.0916 34.5333 88.6382 35.7333 87.7316 36.64C86.8516 37.5467 85.3449 38 83.2116 38H71.4516V12.32ZM82.2116 32.52V28.32C82.2116 28.0267 82.1316 27.8133 81.9716 27.68C81.8116 27.52 81.5582 27.44 81.2116 27.44H78.3316V33.4H81.2116C81.5582 33.4 81.8116 33.3333 81.9716 33.2C82.1316 33.04 82.2116 32.8133 82.2116 32.52ZM82.2116 21.96V17.8C82.2116 17.5067 82.1316 17.2933 81.9716 17.16C81.8116 17 81.5582 16.92 81.2116 16.92H78.3316V22.84H81.2116C81.5582 22.84 81.8116 22.7733 81.9716 22.64C82.1316 22.48 82.2116 22.2533 82.2116 21.96ZM92.0766 12.32H99.0766V38H92.0766V12.32ZM94.3966 38V33H107.037V38H94.3966ZM124.359 29.2V34.16H111.519V29.2H124.359ZM128.759 38H121.719L117.879 19.96L113.919 38H107.039L113.639 12.32H122.159L128.759 38ZM140.198 32.12V28.48C140.198 28.1867 140.118 27.9733 139.958 27.84C139.798 27.68 139.544 27.6 139.198 27.6H135.358C133.278 27.6 131.851 27.1333 131.078 26.2C130.331 25.2667 129.958 24.0533 129.958 22.56V17.28C129.958 15.7867 130.398 14.5867 131.278 13.68C132.158 12.7733 133.664 12.32 135.798 12.32H141.278C143.411 12.32 144.918 12.7733 145.798 13.68C146.678 14.5867 147.118 15.7867 147.118 17.28V20.36H140.118V18.2C140.118 17.9067 140.038 17.6933 139.878 17.56C139.718 17.4 139.464 17.32 139.118 17.32H137.958C137.611 17.32 137.358 17.4 137.198 17.56C137.038 17.6933 136.958 17.9067 136.958 18.2V22C136.958 22.2933 137.038 22.52 137.198 22.68C137.358 22.8133 137.611 22.88 137.958 22.88H141.718C143.798 22.88 145.224 23.32 145.998 24.2C146.798 25.08 147.198 26.2667 147.198 27.76V33.04C147.198 34.5333 146.758 35.7333 145.878 36.64C144.998 37.5467 143.491 38 141.358 38H135.918C133.784 38 132.264 37.5467 131.358 36.64C130.478 35.7333 130.038 34.5333 130.038 33.04V29.96H137.038V32.12C137.038 32.4133 137.118 32.64 137.278 32.8C137.438 32.9333 137.691 33 138.038 33H139.198C139.544 33 139.798 32.9333 139.958 32.8C140.118 32.64 140.198 32.4133 140.198 32.12ZM153.526 14.72H160.526V38H153.526V14.72ZM165.486 12.32V17.32H148.606V12.32H165.486Z" fill="#FFD700"/>
<path d="M65.6227 90.552V86.88C65.6227 86.592 65.5747 86.408 65.4787 86.328C65.3987 86.232 65.2147 86.184 64.9267 86.184H63.1507C62.3827 86.184 61.8227 86 61.4707 85.632C61.1347 85.264 60.9667 84.736 60.9667 84.048V80.088C60.9667 79.4 61.1427 78.88 61.4947 78.528C61.8627 78.16 62.4307 77.976 63.1987 77.976H65.5507C66.3347 77.976 66.9027 78.16 67.2547 78.528C67.6067 78.88 67.7827 79.4 67.7827 80.088V82.296H65.5987V80.424C65.5987 80.136 65.5507 79.952 65.4547 79.872C65.3747 79.776 65.1827 79.728 64.8787 79.728H63.8707C63.5827 79.728 63.3907 79.776 63.2947 79.872C63.1987 79.952 63.1507 80.136 63.1507 80.424V83.76C63.1507 84.032 63.1987 84.216 63.2947 84.312C63.3907 84.408 63.5827 84.456 63.8707 84.456H65.6227C66.3907 84.456 66.9507 84.64 67.3027 85.008C67.6547 85.36 67.8307 85.88 67.8307 86.568V90.888C67.8307 91.576 67.6467 92.104 67.2787 92.472C66.9267 92.824 66.3667 93 65.5987 93H63.2467C62.4787 93 61.9107 92.824 61.5427 92.472C61.1907 92.104 61.0147 91.576 61.0147 90.888V88.68H63.1987V90.552C63.1987 90.824 63.2467 91.008 63.3427 91.104C63.4387 91.2 63.6307 91.248 63.9187 91.248H64.9267C65.2147 91.248 65.3987 91.2 65.4787 91.104C65.5747 91.008 65.6227 90.824 65.6227 90.552ZM74.99 84.744V80.424C74.99 80.136 74.942 79.952 74.846 79.872C74.766 79.776 74.574 79.728 74.27 79.728H70.286V77.976H74.918C75.702 77.976 76.27 78.16 76.622 78.528C76.99 78.88 77.174 79.4 77.174 80.088V85.08C77.174 85.768 76.99 86.296 76.622 86.664C76.27 87.016 75.702 87.192 74.918 87.192H71.054V85.464H74.27C74.574 85.464 74.766 85.416 74.846 85.32C74.942 85.224 74.99 85.032 74.99 84.744ZM69.998 77.976H72.158V93H69.998V77.976ZM83.9638 88.44V80.424C83.9638 80.136 83.9158 79.952 83.8198 79.872C83.7398 79.776 83.5478 79.728 83.2438 79.728H82.4518V77.976H83.8918C84.6758 77.976 85.2438 78.16 85.5958 78.528C85.9638 78.88 86.1478 79.4 86.1478 80.088V88.44H83.9638ZM83.9638 90.552V87.432H86.1478V90.888C86.1478 91.576 85.9638 92.104 85.5958 92.472C85.2438 92.824 84.6758 93 83.8918 93H82.3078V91.248H83.2438C83.5478 91.248 83.7398 91.2 83.8198 91.104C83.9158 91.008 83.9638 90.824 83.9638 90.552ZM81.1558 80.424V88.464H78.9718V80.088C78.9718 79.4 79.1478 78.88 79.4998 78.528C79.8678 78.16 80.4438 77.976 81.2278 77.976H82.6678V79.728H81.8758C81.5878 79.728 81.3958 79.776 81.2998 79.872C81.2038 79.952 81.1558 80.136 81.1558 80.424ZM81.1558 87.264V90.552C81.1558 90.824 81.2038 91.008 81.2998 91.104C81.3958 91.2 81.5878 91.248 81.8758 91.248H82.6198V93H81.2278C80.4438 93 79.8678 92.824 79.4998 92.472C79.1478 92.104 78.9718 91.576 78.9718 90.888V87.264H81.1558ZM93.5056 84.504V80.424C93.5056 80.136 93.4576 79.952 93.3616 79.872C93.2816 79.776 93.0896 79.728 92.7856 79.728H88.8016V77.976H93.4336C94.2176 77.976 94.7856 78.16 95.1376 78.528C95.5056 78.88 95.6896 79.4 95.6896 80.088V84.792C95.6896 85.496 95.5056 86.032 95.1376 86.4C94.7856 86.752 94.2176 86.928 93.4336 86.928H89.5696V85.2H92.7856C93.0896 85.2 93.2816 85.152 93.3616 85.056C93.4576 84.96 93.5056 84.776 93.5056 84.504ZM88.5136 77.976H90.6736V93H88.5136V77.976ZM91.5376 86.064H93.7456L96.4576 93H94.1056L91.5376 86.064ZM99.4213 78.264H101.581V93H99.4213V78.264ZM104.101 77.976V79.728H96.9013V77.976H104.101ZM109.779 90.552V86.88C109.779 86.592 109.731 86.408 109.635 86.328C109.555 86.232 109.371 86.184 109.083 86.184H107.307C106.539 86.184 105.979 86 105.627 85.632C105.291 85.264 105.123 84.736 105.123 84.048V80.088C105.123 79.4 105.299 78.88 105.651 78.528C106.019 78.16 106.587 77.976 107.355 77.976H109.707C110.491 77.976 111.059 78.16 111.411 78.528C111.763 78.88 111.939 79.4 111.939 80.088V82.296H109.755V80.424C109.755 80.136 109.707 79.952 109.611 79.872C109.531 79.776 109.339 79.728 109.035 79.728H108.027C107.739 79.728 107.547 79.776 107.451 79.872C107.355 79.952 107.307 80.136 107.307 80.424V83.76C107.307 84.032 107.355 84.216 107.451 84.312C107.547 84.408 107.739 84.456 108.027 84.456H109.779C110.547 84.456 111.107 84.64 111.459 85.008C111.811 85.36 111.987 85.88 111.987 86.568V90.888C111.987 91.576 111.803 92.104 111.435 92.472C111.083 92.824 110.523 93 109.755 93H107.403C106.635 93 106.067 92.824 105.699 92.472C105.347 92.104 105.171 91.576 105.171 90.888V88.68H107.355V90.552C107.355 90.824 107.403 91.008 107.499 91.104C107.595 91.2 107.787 91.248 108.075 91.248H109.083C109.371 91.248 109.555 91.2 109.635 91.104C109.731 91.008 109.779 90.824 109.779 90.552ZM117.623 77.976H122.831C123.615 77.976 124.183 78.16 124.535 78.528C124.903 78.88 125.087 79.4 125.087 80.088V83.904C125.087 84.304 125.007 84.632 124.847 84.888C124.687 85.144 124.447 85.312 124.127 85.392C124.447 85.472 124.687 85.624 124.847 85.848C125.007 86.072 125.087 86.384 125.087 86.784V90.888C125.087 91.576 124.903 92.104 124.535 92.472C124.183 92.824 123.615 93 122.831 93H117.623V77.976ZM122.903 90.6V86.904C122.903 86.616 122.855 86.432 122.759 86.352C122.679 86.256 122.487 86.208 122.183 86.208H119.807V91.296H122.183C122.487 91.296 122.679 91.248 122.759 91.152C122.855 91.056 122.903 90.872 122.903 90.6ZM122.903 83.808V80.376C122.903 80.088 122.855 79.904 122.759 79.824C122.679 79.728 122.487 79.68 122.183 79.68H119.807V84.504H122.183C122.487 84.504 122.679 84.456 122.759 84.36C122.855 84.264 122.903 84.08 122.903 83.808ZM133.251 87.768V89.52H128.331V87.768H133.251ZM135.147 93H132.963L130.707 79.848L128.667 93H126.483L129.147 77.976H132.291L135.147 93ZM141.67 84.504V80.424C141.67 80.136 141.622 79.952 141.526 79.872C141.446 79.776 141.254 79.728 140.95 79.728H136.966V77.976H141.598C142.382 77.976 142.95 78.16 143.302 78.528C143.67 78.88 143.854 79.4 143.854 80.088V84.792C143.854 85.496 143.67 86.032 143.302 86.4C142.95 86.752 142.382 86.928 141.598 86.928H137.734V85.2H140.95C141.254 85.2 141.446 85.152 141.526 85.056C141.622 84.96 141.67 84.776 141.67 84.504ZM136.678 77.976H138.838V93H136.678V77.976ZM139.702 86.064H141.91L144.622 93H142.27L139.702 86.064Z" fill="white"/>
</svg>
