<svg width="220" height="122" viewBox="0 0 220 122" fill="none" xmlns="http://www.w3.org/2000/svg">
<path d="M10 121L40 1L70 121" fill="url(#paint0_linear_771_195)"/>
<path d="M10 121L40 1L70 121" stroke="#B8860B" stroke-width="1.5"/>
<path d="M30 121L60 21L90 121" fill="#DAA520"/>
<path d="M30 121L60 21L90 121" stroke="#B8860B" stroke-width="1.5"/>
<g opacity="0.8">
<path d="M37 21H35V101H37V21Z" fill="#B8860B"/>
<path d="M57 31H55V101H57V31Z" fill="#B8860B"/>
<path d="M77 41H75V101H77V41Z" fill="#B8860B"/>
</g>
<path d="M10.6873 58.104C6.87925 58.104 4.14325 60.584 2.47925 65.544C2.44725 65.64 2.35125 65.688 2.19125 65.688C2.03125 65.656 1.95125 65.592 1.95125 65.496C2.07925 64.216 2.22325 62.568 2.38325 60.552C2.54325 58.504 2.62325 56.968 2.62325 55.944C2.62325 55.784 2.70325 55.704 2.86325 55.704C3.05525 55.704 3.15125 55.784 3.15125 55.944C3.15125 56.648 4.06325 57 5.88725 57C8.63925 57.096 11.8553 57.144 15.5353 57.144C17.4233 57.144 19.4233 57.112 21.5353 57.048L24.7993 57C26.0153 57 26.8953 56.92 27.4393 56.76C28.0153 56.6 28.3833 56.28 28.5433 55.8C28.5753 55.672 28.6713 55.608 28.8313 55.608C29.0233 55.608 29.1193 55.672 29.1193 55.8C29.0233 56.76 28.9113 58.296 28.7833 60.408C28.6873 62.52 28.6393 64.216 28.6393 65.496C28.6393 65.592 28.5593 65.64 28.3993 65.64C28.2393 65.64 28.1433 65.592 28.1113 65.496C27.6313 63.032 26.7353 61.192 25.4233 59.976C24.1113 58.728 22.4953 58.104 20.5753 58.104C19.6473 58.104 19.0233 58.312 18.7033 58.728C18.4153 59.112 18.2713 59.864 18.2713 60.984V83.112C18.2713 84.104 18.3673 84.824 18.5593 85.272C18.7513 85.72 19.1193 86.024 19.6633 86.184C20.2073 86.344 21.0713 86.424 22.2553 86.424C22.3513 86.424 22.3993 86.52 22.3993 86.712C22.3993 86.904 22.3513 87 22.2553 87C21.1033 87 20.1913 86.984 19.5193 86.952L15.5353 86.904L11.6473 86.952C10.9753 86.984 10.0473 87 8.86325 87C8.76725 87 8.71925 86.904 8.71925 86.712C8.71925 86.52 8.76725 86.424 8.86325 86.424C10.0153 86.424 10.8633 86.344 11.4073 86.184C11.9833 86.024 12.3673 85.72 12.5593 85.272C12.7833 84.792 12.8953 84.072 12.8953 83.112V60.888C12.8953 59.8 12.7513 59.064 12.4633 58.68C12.1753 58.296 11.5833 58.104 10.6873 58.104ZM47.5993 87.576C44.6233 87.576 41.9673 86.888 39.6313 85.512C37.3273 84.104 35.5353 82.216 34.2553 79.848C33.0073 77.448 32.3833 74.84 32.3833 72.024C32.3833 68.728 33.2153 65.912 34.8793 63.576C36.5433 61.208 38.6713 59.432 41.2633 58.248C43.8873 57.064 46.5593 56.472 49.2793 56.472C52.3193 56.472 54.9913 57.192 57.2953 58.632C59.5993 60.04 61.3593 61.912 62.5753 64.248C63.8233 66.584 64.4473 69.064 64.4473 71.688C64.4473 74.6 63.6793 77.272 62.1433 79.704C60.6073 82.136 58.5433 84.056 55.9513 85.464C53.3913 86.872 50.6073 87.576 47.5993 87.576ZM49.1833 86.376C50.9753 86.376 52.5753 85.864 53.9833 84.84C55.4233 83.784 56.5433 82.264 57.3433 80.28C58.1433 78.264 58.5433 75.864 58.5433 73.08C58.5433 70.136 58.0953 67.512 57.1993 65.208C56.3033 62.872 55.0073 61.048 53.3113 59.736C51.6153 58.424 49.6313 57.768 47.3593 57.768C44.4473 57.768 42.2073 58.872 40.6393 61.08C39.0713 63.256 38.2873 66.312 38.2873 70.248C38.2873 73.352 38.7513 76.136 39.6793 78.6C40.6393 81.032 41.9353 82.936 43.5673 84.312C45.2313 85.688 47.1033 86.376 49.1833 86.376ZM86.9893 87.576C83.3413 87.576 80.1733 86.904 77.4853 85.56C74.7973 84.184 72.7333 82.328 71.2933 79.992C69.8533 77.656 69.1333 75.064 69.1333 72.216C69.1333 69.176 69.9333 66.456 71.5333 64.056C73.1653 61.656 75.4053 59.8 78.2533 58.488C81.1013 57.144 84.3013 56.472 87.8533 56.472C89.3893 56.472 90.9253 56.6 92.4613 56.856C93.9973 57.08 95.2293 57.384 96.1573 57.768C96.5093 57.896 96.7013 58.008 96.7333 58.104C96.7973 58.168 96.8453 58.424 96.8773 58.872L97.5013 65.544C97.5013 65.64 97.4053 65.704 97.2133 65.736C97.0533 65.768 96.9573 65.72 96.9253 65.592C96.5093 64.536 95.8373 63.384 94.9093 62.136C93.9813 60.888 92.7653 59.8 91.2613 58.872C89.7573 57.944 88.0133 57.48 86.0293 57.48C83.9813 57.48 82.1093 58.04 80.4133 59.16C78.7173 60.28 77.3733 61.88 76.3813 63.96C75.4213 66.04 74.9413 68.456 74.9413 71.208C74.9413 74.216 75.5013 76.904 76.6213 79.272C77.7733 81.64 79.3573 83.48 81.3733 84.792C83.3893 86.104 85.6613 86.76 88.1893 86.76C89.5013 86.76 90.5093 86.616 91.2133 86.328C91.9173 86.04 92.4293 85.48 92.7493 84.648C93.0693 83.816 93.2292 82.584 93.2292 80.952C93.2292 79.288 93.1333 78.136 92.9413 77.496C92.7493 76.824 92.3333 76.376 91.6933 76.152C91.0853 75.928 89.9973 75.816 88.4293 75.816C88.2373 75.816 88.1413 75.688 88.1413 75.432C88.1413 75.336 88.1573 75.256 88.1893 75.192C88.2533 75.096 88.3173 75.048 88.3813 75.048C91.1013 75.208 93.3093 75.288 95.0052 75.288C96.6373 75.288 98.3333 75.24 100.093 75.144C100.221 75.144 100.285 75.256 100.285 75.48C100.317 75.704 100.253 75.816 100.093 75.816C99.5173 75.784 99.1013 75.896 98.8453 76.152C98.6213 76.376 98.4773 76.856 98.4133 77.592C98.3493 78.328 98.3173 79.608 98.3173 81.432C98.3173 82.872 98.3653 83.896 98.4613 84.504C98.5893 85.112 98.6533 85.496 98.6533 85.656C98.6533 85.848 98.6213 85.976 98.5573 86.04C98.4933 86.104 98.3493 86.168 98.1253 86.232C93.9973 87.128 90.2853 87.576 86.9893 87.576ZM110.819 74.664H124.643L124.979 76.008H110.099L110.819 74.664ZM136.307 86.424C136.467 86.424 136.547 86.52 136.547 86.712C136.547 86.904 136.467 87 136.307 87C135.667 87 134.675 86.968 133.331 86.904C131.923 86.84 130.915 86.808 130.307 86.808C129.507 86.808 128.531 86.84 127.379 86.904C126.291 86.968 125.427 87 124.787 87C124.659 87 124.595 86.904 124.595 86.712C124.595 86.52 124.659 86.424 124.787 86.424C125.619 86.424 126.211 86.344 126.563 86.184C126.947 85.992 127.139 85.672 127.139 85.224C127.139 84.68 126.819 83.768 126.179 82.488L116.435 63.24L118.787 59.112L109.235 80.184C108.819 81.112 108.611 81.976 108.611 82.776C108.611 83.928 109.011 84.824 109.811 85.464C110.643 86.104 111.747 86.424 113.123 86.424C113.283 86.424 113.363 86.52 113.363 86.712C113.363 86.904 113.283 87 113.123 87C112.547 87 111.715 86.968 110.627 86.904C109.411 86.84 108.355 86.808 107.459 86.808C106.595 86.808 105.555 86.84 104.339 86.904C103.251 86.968 102.371 87 101.699 87C101.571 87 101.507 86.904 101.507 86.712C101.507 86.52 101.571 86.424 101.699 86.424C102.595 86.424 103.347 86.248 103.955 85.896C104.563 85.512 105.171 84.856 105.779 83.928C106.387 82.968 107.107 81.56 107.939 79.704L118.355 56.808C118.419 56.712 118.563 56.664 118.787 56.664C119.043 56.664 119.187 56.712 119.219 56.808L131.219 80.424C132.339 82.696 133.267 84.264 134.003 85.128C134.739 85.992 135.507 86.424 136.307 86.424Z" fill="#2E2E2E"/>
<path d="M146.474 82.92C146.474 83.752 146.538 84.36 146.666 84.744C146.794 85.096 147.034 85.336 147.386 85.464C147.77 85.592 148.378 85.656 149.21 85.656H150.842C153.338 85.656 155.498 85 157.322 83.688C159.146 82.344 160.362 80.536 160.97 78.264C160.97 78.2 161.034 78.168 161.162 78.168C161.226 78.168 161.29 78.2 161.354 78.264C161.45 78.296 161.498 78.328 161.498 78.36C161.21 81.528 161.066 84.168 161.066 86.28C161.066 86.536 161.002 86.728 160.874 86.856C160.778 86.952 160.602 87 160.346 87H137.69C137.626 87 137.594 86.904 137.594 86.712C137.594 86.52 137.626 86.424 137.69 86.424C138.714 86.424 139.45 86.344 139.898 86.184C140.378 86.024 140.698 85.72 140.858 85.272C141.05 84.792 141.146 84.072 141.146 83.112V60.888C141.146 59.928 141.05 59.224 140.858 58.776C140.698 58.328 140.378 58.024 139.898 57.864C139.418 57.672 138.682 57.576 137.69 57.576C137.626 57.576 137.594 57.48 137.594 57.288C137.594 57.096 137.626 57 137.69 57L140.138 57.048C141.61 57.112 142.826 57.144 143.786 57.144C144.746 57.144 145.962 57.112 147.434 57.048L149.882 57C149.978 57 150.026 57.096 150.026 57.288C150.026 57.48 149.978 57.576 149.882 57.576C148.89 57.576 148.154 57.672 147.674 57.864C147.194 58.024 146.874 58.344 146.714 58.824C146.554 59.272 146.474 59.976 146.474 60.936V82.92ZM173.302 83.112C173.302 84.104 173.382 84.824 173.542 85.272C173.702 85.72 174.006 86.024 174.454 86.184C174.934 86.344 175.686 86.424 176.71 86.424C176.806 86.424 176.854 86.52 176.854 86.712C176.854 86.904 176.806 87 176.71 87C175.654 87 174.822 86.984 174.214 86.952L170.566 86.904L167.014 86.952C166.374 86.984 165.51 87 164.422 87C164.358 87 164.326 86.904 164.326 86.712C164.326 86.52 164.358 86.424 164.422 86.424C165.446 86.424 166.198 86.344 166.678 86.184C167.158 86.024 167.478 85.72 167.638 85.272C167.83 84.792 167.926 84.072 167.926 83.112V60.888C167.926 59.928 167.83 59.224 167.638 58.776C167.478 58.328 167.158 58.024 166.678 57.864C166.198 57.672 165.446 57.576 164.422 57.576C164.358 57.576 164.326 57.48 164.326 57.288C164.326 57.096 164.358 57 164.422 57L167.014 57.048C168.486 57.112 169.67 57.144 170.566 57.144C171.558 57.144 172.79 57.112 174.262 57.048L176.71 57C176.806 57 176.854 57.096 176.854 57.288C176.854 57.48 176.806 57.576 176.71 57.576C175.718 57.576 174.982 57.672 174.502 57.864C174.022 58.056 173.702 58.392 173.542 58.872C173.382 59.32 173.302 60.024 173.302 60.984V83.112ZM184.909 58.104L186.301 58.2L185.773 80.904C185.741 82.632 186.077 83.992 186.781 84.984C187.517 85.944 188.541 86.424 189.853 86.424C189.949 86.424 189.997 86.52 189.997 86.712C189.997 86.904 189.949 87 189.853 87C188.989 87 188.317 86.984 187.837 86.952L185.197 86.904L182.173 86.952C181.661 86.984 180.973 87 180.109 87C180.013 87 179.965 86.904 179.965 86.712C179.965 86.52 180.013 86.424 180.109 86.424C181.421 86.424 182.461 85.928 183.229 84.936C183.997 83.944 184.397 82.6 184.429 80.904L184.909 58.104ZM218.797 86.424C218.861 86.424 218.893 86.52 218.893 86.712C218.893 86.904 218.861 87 218.797 87C217.709 87 216.845 86.984 216.205 86.952L212.653 86.904L209.053 86.952C208.445 86.984 207.613 87 206.557 87C206.461 87 206.413 86.904 206.413 86.712C206.413 86.52 206.461 86.424 206.557 86.424C207.581 86.424 208.333 86.344 208.812 86.184C209.325 85.992 209.661 85.672 209.821 85.224C209.981 84.776 210.029 84.072 209.965 83.112L208.861 61.8L211.309 57.96L199.069 86.664C199.005 86.792 198.877 86.856 198.685 86.856C198.493 86.856 198.365 86.792 198.301 86.664L184.812 60.984C184.173 59.8 183.501 58.936 182.797 58.392C182.125 57.848 181.341 57.576 180.445 57.576C180.349 57.576 180.301 57.48 180.301 57.288C180.301 57.096 180.349 57 180.445 57L182.701 57.048C183.149 57.08 183.725 57.096 184.429 57.096L186.973 57.048C187.261 57.016 187.629 57 188.077 57C188.493 57 188.813 57.144 189.037 57.432C189.261 57.72 189.677 58.408 190.285 59.496L201.037 79.656L198.637 83.976L209.869 58.2C210.061 57.752 210.253 57.448 210.445 57.288C210.669 57.096 210.957 57 211.309 57C211.597 57 211.917 57.016 212.269 57.048C212.653 57.08 213.085 57.096 213.565 57.096L216.397 57.048C216.845 57.016 217.485 57 218.317 57C218.413 57 218.461 57.096 218.461 57.288C218.461 57.48 218.413 57.576 218.317 57.576C216.813 57.576 215.725 57.88 215.053 58.488C214.381 59.096 214.077 60.04 214.141 61.32L215.293 83.112C215.357 84.104 215.469 84.824 215.629 85.272C215.821 85.72 216.141 86.024 216.589 86.184C217.069 86.344 217.805 86.424 218.797 86.424Z" fill="#B8860B"/>
<path d="M32.0381 108.64C32.0381 108.949 32.0701 109.173 32.1341 109.312C32.1981 109.451 32.3155 109.547 32.4861 109.6C32.6568 109.643 32.9341 109.664 33.3181 109.664H35.0621C35.6701 109.664 36.1555 109.477 36.5181 109.104C36.8808 108.731 37.1208 108.213 37.2381 107.552C37.2381 107.52 37.2648 107.509 37.3181 107.52C37.3821 107.52 37.4141 107.536 37.4141 107.568C37.3181 108.453 37.2701 109.184 37.2701 109.76C37.2701 109.845 37.2541 109.909 37.2221 109.952C37.1901 109.984 37.1261 110 37.0301 110H29.6381C29.6168 110 29.6061 109.968 29.6061 109.904C29.6061 109.84 29.6168 109.808 29.6381 109.808C30.0435 109.808 30.3368 109.781 30.5181 109.728C30.7101 109.675 30.8381 109.573 30.9021 109.424C30.9661 109.264 30.9981 109.024 30.9981 108.704V101.296C30.9981 100.976 30.9661 100.741 30.9021 100.592C30.8381 100.443 30.7101 100.341 30.5181 100.288C30.3368 100.224 30.0435 100.192 29.6381 100.192C29.6168 100.192 29.6061 100.16 29.6061 100.096C29.6061 100.032 29.6168 100 29.6381 100L30.4221 100.016C30.8701 100.037 31.2328 100.048 31.5101 100.048C31.8088 100.048 32.1821 100.037 32.6301 100.016L33.3981 100C33.4301 100 33.4461 100.032 33.4461 100.096C33.4461 100.16 33.4301 100.192 33.3981 100.192C33.0035 100.192 32.7101 100.224 32.5181 100.288C32.3261 100.341 32.1981 100.448 32.1341 100.608C32.0701 100.757 32.0381 100.992 32.0381 101.312V108.64ZM46.7614 101.76C46.7614 100.715 46.2974 100.192 45.3694 100.192C45.3374 100.192 45.3214 100.16 45.3214 100.096C45.3214 100.032 45.3374 100 45.3694 100L46.0574 100.016C46.4414 100.037 46.7454 100.048 46.9694 100.048C47.1507 100.048 47.412 100.037 47.7534 100.016L48.4254 100C48.4467 100 48.4574 100.032 48.4574 100.096C48.4574 100.16 48.4467 100.192 48.4254 100.192C47.572 100.192 47.1454 100.715 47.1454 101.76V106.304C47.1454 107.531 46.804 108.491 46.1214 109.184C45.4387 109.867 44.5214 110.208 43.3694 110.208C42.58 110.208 41.8867 110.053 41.2894 109.744C40.7027 109.435 40.244 108.997 39.9134 108.432C39.5934 107.856 39.4334 107.184 39.4334 106.416V101.296C39.4334 100.976 39.4014 100.741 39.3374 100.592C39.2734 100.443 39.1454 100.341 38.9534 100.288C38.772 100.224 38.4787 100.192 38.0734 100.192C38.052 100.192 38.0414 100.16 38.0414 100.096C38.0414 100.032 38.052 100 38.0734 100L38.8574 100.016C39.3054 100.037 39.668 100.048 39.9454 100.048C40.2334 100.048 40.612 100.037 41.0814 100.016L41.8174 100C41.8494 100 41.8654 100.032 41.8654 100.096C41.8654 100.16 41.8494 100.192 41.8174 100.192C41.4227 100.192 41.1294 100.224 40.9374 100.288C40.756 100.352 40.6334 100.464 40.5694 100.624C40.5054 100.773 40.4734 101.008 40.4734 101.328V105.856C40.4734 107.115 40.756 108.075 41.3214 108.736C41.8867 109.397 42.6867 109.728 43.7214 109.728C44.6814 109.728 45.428 109.429 45.9614 108.832C46.4947 108.224 46.7614 107.387 46.7614 106.32V101.76ZM55.3893 110C55.3679 110 55.3573 109.968 55.3573 109.904C55.3573 109.84 55.3679 109.808 55.3893 109.808C55.6773 109.808 55.8853 109.787 56.0133 109.744C56.1413 109.701 56.2053 109.632 56.2053 109.536C56.2053 109.44 56.1573 109.323 56.0613 109.184L50.9093 101.36C50.6319 100.933 50.3546 100.635 50.0773 100.464C49.8106 100.283 49.4906 100.192 49.1173 100.192C49.0959 100.192 49.0853 100.16 49.0853 100.096C49.0853 100.032 49.0959 100 49.1173 100L49.7253 100.016C50.0026 100.037 50.2053 100.048 50.3333 100.048C50.6959 100.048 51.1333 100.037 51.6453 100.016L52.4773 100C52.5093 100 52.5253 100.032 52.5253 100.096C52.5253 100.16 52.5093 100.192 52.4773 100.192C52.1999 100.192 51.9919 100.213 51.8533 100.256C51.7253 100.299 51.6613 100.373 51.6613 100.48C51.6613 100.565 51.7093 100.683 51.8053 100.832L56.9893 108.672C57.2666 109.088 57.5493 109.381 57.8373 109.552C58.1359 109.723 58.5039 109.808 58.9413 109.808C58.9626 109.808 58.9733 109.84 58.9733 109.904C58.9733 109.968 58.9626 110 58.9413 110C58.6639 110 58.4453 109.995 58.2853 109.984L57.4053 109.968L56.1733 109.984C55.9813 109.995 55.7199 110 55.3893 110ZM49.0533 110C49.0213 110 49.0053 109.968 49.0053 109.904C49.0053 109.84 49.0213 109.808 49.0533 109.808C49.7893 109.808 50.5146 109.323 51.2293 108.352L53.6453 105.04L53.8373 105.216L51.5813 108.368C51.3359 108.731 51.2133 109.024 51.2133 109.248C51.2133 109.621 51.5279 109.808 52.1573 109.808C52.1893 109.808 52.2053 109.84 52.2053 109.904C52.2053 109.968 52.1893 110 52.1573 110C51.8373 110 51.5919 109.995 51.4213 109.984L50.3173 109.968L49.6453 109.984C49.5279 109.995 49.3306 110 49.0533 110ZM53.8853 104.8L56.0453 101.744C56.3333 101.339 56.4773 101.008 56.4773 100.752C56.4773 100.379 56.1786 100.192 55.5813 100.192C55.5493 100.192 55.5333 100.16 55.5333 100.096C55.5333 100.032 55.5493 100 55.5813 100L56.3013 100.016C56.7066 100.037 57.0746 100.048 57.4053 100.048C57.5973 100.048 57.8213 100.037 58.0773 100.016L58.6693 100C58.7013 100 58.7173 100.032 58.7173 100.096C58.7173 100.16 58.7013 100.192 58.6693 100.192C58.3173 100.192 57.9493 100.325 57.5653 100.592C57.1813 100.859 56.7973 101.253 56.4133 101.776L54.0933 104.96L53.8853 104.8ZM68.3708 101.76C68.3708 100.715 67.9068 100.192 66.9788 100.192C66.9468 100.192 66.9308 100.16 66.9308 100.096C66.9308 100.032 66.9468 100 66.9788 100L67.6667 100.016C68.0508 100.037 68.3548 100.048 68.5788 100.048C68.7601 100.048 69.0214 100.037 69.3628 100.016L70.0348 100C70.0561 100 70.0668 100.032 70.0668 100.096C70.0668 100.16 70.0561 100.192 70.0348 100.192C69.1814 100.192 68.7548 100.715 68.7548 101.76V106.304C68.7548 107.531 68.4134 108.491 67.7308 109.184C67.0481 109.867 66.1308 110.208 64.9788 110.208C64.1894 110.208 63.4961 110.053 62.8988 109.744C62.3121 109.435 61.8534 108.997 61.5228 108.432C61.2028 107.856 61.0428 107.184 61.0428 106.416V101.296C61.0428 100.976 61.0108 100.741 60.9468 100.592C60.8828 100.443 60.7548 100.341 60.5628 100.288C60.3814 100.224 60.0881 100.192 59.6828 100.192C59.6614 100.192 59.6508 100.16 59.6508 100.096C59.6508 100.032 59.6614 100 59.6828 100L60.4668 100.016C60.9148 100.037 61.2774 100.048 61.5548 100.048C61.8428 100.048 62.2214 100.037 62.6908 100.016L63.4268 100C63.4588 100 63.4748 100.032 63.4748 100.096C63.4748 100.16 63.4588 100.192 63.4268 100.192C63.0321 100.192 62.7388 100.224 62.5468 100.288C62.3654 100.352 62.2428 100.464 62.1788 100.624C62.1148 100.773 62.0828 101.008 62.0828 101.328V105.856C62.0828 107.115 62.3654 108.075 62.9308 108.736C63.4961 109.397 64.2961 109.728 65.3308 109.728C66.2908 109.728 67.0374 109.429 67.5708 108.832C68.1041 108.224 68.3708 107.387 68.3708 106.32V101.76ZM79.2546 110C78.988 110 78.476 109.547 77.7186 108.64C76.972 107.723 76.0706 106.464 75.0146 104.864L75.9106 104.592C76.8386 105.925 77.612 106.965 78.2306 107.712C78.86 108.448 79.4146 108.981 79.8946 109.312C80.3746 109.643 80.844 109.808 81.3026 109.808C81.3346 109.808 81.3506 109.84 81.3506 109.904C81.3506 109.968 81.3346 110 81.3026 110H79.2546ZM75.2226 99.952C76.0653 99.952 76.716 100.144 77.1746 100.528C77.6333 100.912 77.8626 101.424 77.8626 102.064C77.8626 102.629 77.6973 103.147 77.3666 103.616C77.036 104.075 76.588 104.443 76.0226 104.72C75.468 104.987 74.8706 105.12 74.2306 105.12C74.1666 105.12 73.9266 105.104 73.5106 105.072V108.704C73.5106 109.035 73.5426 109.275 73.6066 109.424C73.6706 109.573 73.7933 109.675 73.9746 109.728C74.1666 109.781 74.4653 109.808 74.8706 109.808C74.9026 109.808 74.9186 109.84 74.9186 109.904C74.9186 109.968 74.9026 110 74.8706 110C74.54 110 74.2786 109.995 74.0866 109.984L72.9826 109.968L71.8946 109.984C71.7026 109.995 71.4306 110 71.0786 110C71.0573 110 71.0466 109.968 71.0466 109.904C71.0466 109.84 71.0573 109.808 71.0786 109.808C71.484 109.808 71.7826 109.781 71.9746 109.728C72.1666 109.664 72.3 109.557 72.3746 109.408C72.4493 109.259 72.4866 109.024 72.4866 108.704V101.296C72.4866 100.976 72.4493 100.741 72.3746 100.592C72.3106 100.443 72.1826 100.341 71.9906 100.288C71.8093 100.224 71.516 100.192 71.1106 100.192C71.0786 100.192 71.0626 100.16 71.0626 100.096C71.0626 100.032 71.0786 100 71.1106 100L71.8946 100.016C72.3426 100.037 72.7053 100.048 72.9826 100.048C73.2173 100.048 73.436 100.043 73.6386 100.032C73.8413 100.021 74.012 100.011 74.1506 100C74.556 99.968 74.9133 99.952 75.2226 99.952ZM76.7746 102.528C76.7746 101.696 76.588 101.099 76.2146 100.736C75.852 100.373 75.3186 100.192 74.6146 100.192C74.1986 100.192 73.9106 100.267 73.7506 100.416C73.5906 100.565 73.5106 100.869 73.5106 101.328V104.688C73.7666 104.731 74.0813 104.752 74.4546 104.752C75.2866 104.752 75.8786 104.571 76.2306 104.208C76.5933 103.845 76.7746 103.285 76.7746 102.528ZM87.4504 101.712C87.685 101.339 87.8024 101.024 87.8024 100.768C87.8024 100.384 87.5144 100.192 86.9384 100.192C86.917 100.192 86.9064 100.16 86.9064 100.096C86.9064 100.032 86.917 100 86.9384 100L87.6904 100.016C88.0957 100.037 88.469 100.048 88.8104 100.048C88.9917 100.048 89.2104 100.037 89.4664 100.016L90.0584 100C90.0797 100 90.0904 100.032 90.0904 100.096C90.0904 100.16 90.0797 100.192 90.0584 100.192C89.6744 100.192 89.285 100.336 88.8904 100.624C88.4957 100.901 88.1437 101.285 87.8344 101.776L85.3224 105.632L85.0504 105.392L87.4504 101.712ZM81.9944 101.424C81.6957 100.965 81.413 100.645 81.1464 100.464C80.8797 100.283 80.5704 100.192 80.2184 100.192C80.1864 100.192 80.1704 100.16 80.1704 100.096C80.1704 100.032 80.1864 100 80.2184 100C80.3464 100 80.5384 100.011 80.7944 100.032L81.3544 100.048C81.717 100.048 82.1757 100.037 82.7304 100.016L83.5944 100C83.6157 100 83.6264 100.032 83.6264 100.096C83.6264 100.16 83.6157 100.192 83.5944 100.192C83.0397 100.192 82.7624 100.304 82.7624 100.528C82.7624 100.645 82.8157 100.773 82.9224 100.912L85.6584 104.928L84.8744 105.648L81.9944 101.424ZM85.6904 104.896V108.704C85.6904 109.035 85.7224 109.275 85.7864 109.424C85.8504 109.573 85.973 109.675 86.1544 109.728C86.3464 109.781 86.645 109.808 87.0504 109.808C87.0824 109.808 87.0984 109.84 87.0984 109.904C87.0984 109.968 87.0824 110 87.0504 110C86.7197 110 86.4637 109.995 86.2824 109.984L85.1624 109.968L84.0584 109.984C83.8664 109.995 83.605 110 83.2744 110C83.2424 110 83.2264 109.968 83.2264 109.904C83.2264 109.84 83.2424 109.808 83.2744 109.808C83.6797 109.808 83.973 109.781 84.1544 109.728C84.3464 109.675 84.4744 109.573 84.5384 109.424C84.613 109.264 84.6504 109.024 84.6504 108.704V105.04L85.6904 104.896ZM102.598 110C102.332 110 101.82 109.547 101.062 108.64C100.316 107.723 99.4144 106.464 98.3584 104.864L99.2544 104.592C100.182 105.925 100.956 106.965 101.574 107.712C102.204 108.448 102.758 108.981 103.238 109.312C103.718 109.643 104.188 109.808 104.646 109.808C104.678 109.808 104.694 109.84 104.694 109.904C104.694 109.968 104.678 110 104.646 110H102.598ZM98.5664 99.952C99.409 99.952 100.06 100.144 100.518 100.528C100.977 100.912 101.206 101.424 101.206 102.064C101.206 102.629 101.041 103.147 100.71 103.616C100.38 104.075 99.9317 104.443 99.3664 104.72C98.8117 104.987 98.2144 105.12 97.5744 105.12C97.5104 105.12 97.2704 105.104 96.8544 105.072V108.704C96.8544 109.035 96.8864 109.275 96.9504 109.424C97.0144 109.573 97.137 109.675 97.3184 109.728C97.5104 109.781 97.809 109.808 98.2144 109.808C98.2464 109.808 98.2624 109.84 98.2624 109.904C98.2624 109.968 98.2464 110 98.2144 110C97.8837 110 97.6224 109.995 97.4304 109.984L96.3264 109.968L95.2384 109.984C95.0464 109.995 94.7744 110 94.4224 110C94.401 110 94.3904 109.968 94.3904 109.904C94.3904 109.84 94.401 109.808 94.4224 109.808C94.8277 109.808 95.1264 109.781 95.3184 109.728C95.5104 109.664 95.6437 109.557 95.7184 109.408C95.793 109.259 95.8304 109.024 95.8304 108.704V101.296C95.8304 100.976 95.793 100.741 95.7184 100.592C95.6544 100.443 95.5264 100.341 95.3344 100.288C95.153 100.224 94.8597 100.192 94.4544 100.192C94.4224 100.192 94.4064 100.16 94.4064 100.096C94.4064 100.032 94.4224 100 94.4544 100L95.2384 100.016C95.6864 100.037 96.049 100.048 96.3264 100.048C96.561 100.048 96.7797 100.043 96.9824 100.032C97.185 100.021 97.3557 100.011 97.4944 100C97.8997 99.968 98.257 99.952 98.5664 99.952ZM100.118 102.528C100.118 101.696 99.9317 101.099 99.5584 100.736C99.1957 100.373 98.6624 100.192 97.9584 100.192C97.5424 100.192 97.2544 100.267 97.0944 100.416C96.9344 100.565 96.8544 100.869 96.8544 101.328V104.688C97.1104 104.731 97.425 104.752 97.7984 104.752C98.6304 104.752 99.2224 104.571 99.5744 104.208C99.937 103.845 100.118 103.285 100.118 102.528ZM105.188 110C105.167 110 105.156 109.968 105.156 109.904C105.156 109.84 105.167 109.808 105.188 109.808C105.593 109.808 105.887 109.781 106.068 109.728C106.26 109.675 106.388 109.573 106.452 109.424C106.527 109.264 106.564 109.024 106.564 108.704V101.296C106.564 100.976 106.527 100.741 106.452 100.592C106.388 100.443 106.26 100.341 106.068 100.288C105.887 100.224 105.593 100.192 105.188 100.192C105.167 100.192 105.156 100.16 105.156 100.096C105.156 100.032 105.167 100 105.188 100H111.62C111.716 100 111.764 100.048 111.764 100.144L111.796 102.112C111.796 102.144 111.764 102.165 111.7 102.176C111.647 102.176 111.62 102.16 111.62 102.128C111.588 101.563 111.417 101.125 111.108 100.816C110.799 100.496 110.388 100.336 109.876 100.336H108.9C108.527 100.336 108.249 100.368 108.068 100.432C107.887 100.485 107.759 100.581 107.684 100.72C107.62 100.859 107.588 101.077 107.588 101.376V108.64C107.588 108.928 107.62 109.147 107.684 109.296C107.759 109.435 107.881 109.531 108.052 109.584C108.223 109.637 108.489 109.664 108.852 109.664H110.132C110.644 109.664 111.071 109.483 111.412 109.12C111.753 108.757 111.983 108.256 112.1 107.616C112.1 107.595 112.121 107.584 112.164 107.584C112.196 107.584 112.223 107.595 112.244 107.616C112.276 107.627 112.292 107.637 112.292 107.648C112.196 108.32 112.148 109.024 112.148 109.76C112.148 109.845 112.127 109.909 112.084 109.952C112.052 109.984 111.988 110 111.892 110H105.188ZM110.996 106.272C110.996 105.803 110.879 105.467 110.644 105.264C110.42 105.061 110.041 104.96 109.508 104.96H107.108V104.624H109.556C110.068 104.624 110.431 104.539 110.644 104.368C110.868 104.197 110.98 103.909 110.98 103.504C110.98 103.483 111.012 103.472 111.076 103.472C111.14 103.472 111.172 103.483 111.172 103.504L111.156 104.8C111.156 105.109 111.161 105.344 111.172 105.504L111.188 106.272C111.188 106.293 111.156 106.304 111.092 106.304C111.028 106.304 110.996 106.293 110.996 106.272ZM116.358 105.28H120.598L120.71 105.6H116.198L116.358 105.28ZM124.278 109.808C124.32 109.808 124.342 109.84 124.342 109.904C124.342 109.968 124.32 110 124.278 110C124.075 110 123.76 109.989 123.334 109.968C122.907 109.947 122.598 109.936 122.406 109.936C122.171 109.936 121.872 109.947 121.51 109.968C121.168 109.989 120.907 110 120.726 110C120.683 110 120.662 109.968 120.662 109.904C120.662 109.84 120.683 109.808 120.726 109.808C121.131 109.808 121.419 109.771 121.59 109.696C121.771 109.621 121.862 109.488 121.862 109.296C121.862 109.136 121.798 108.912 121.67 108.624L118.118 101.12L118.518 100.624L115.414 107.968C115.264 108.331 115.19 108.629 115.19 108.864C115.19 109.493 115.712 109.808 116.758 109.808C116.811 109.808 116.838 109.84 116.838 109.904C116.838 109.968 116.811 110 116.758 110C116.566 110 116.288 109.989 115.926 109.968C115.52 109.947 115.168 109.936 114.87 109.936C114.592 109.936 114.272 109.947 113.91 109.968C113.59 109.989 113.323 110 113.11 110C113.056 110 113.03 109.968 113.03 109.904C113.03 109.84 113.056 109.808 113.11 109.808C113.408 109.808 113.659 109.755 113.862 109.648C114.075 109.531 114.272 109.333 114.454 109.056C114.646 108.768 114.854 108.357 115.078 107.824L118.454 99.856C118.475 99.824 118.512 99.808 118.566 99.808C118.619 99.808 118.651 99.824 118.662 99.856L122.438 107.808C122.8 108.597 123.11 109.131 123.366 109.408C123.622 109.675 123.926 109.808 124.278 109.808ZM127.288 108.64C127.288 108.949 127.32 109.173 127.384 109.312C127.448 109.451 127.565 109.547 127.736 109.6C127.907 109.643 128.184 109.664 128.568 109.664H130.312C130.92 109.664 131.405 109.477 131.768 109.104C132.131 108.731 132.371 108.213 132.488 107.552C132.488 107.52 132.515 107.509 132.568 107.52C132.632 107.52 132.664 107.536 132.664 107.568C132.568 108.453 132.52 109.184 132.52 109.76C132.52 109.845 132.504 109.909 132.472 109.952C132.44 109.984 132.376 110 132.28 110H124.888C124.867 110 124.856 109.968 124.856 109.904C124.856 109.84 124.867 109.808 124.888 109.808C125.293 109.808 125.587 109.781 125.768 109.728C125.96 109.675 126.088 109.573 126.152 109.424C126.216 109.264 126.248 109.024 126.248 108.704V101.296C126.248 100.976 126.216 100.741 126.152 100.592C126.088 100.443 125.96 100.341 125.768 100.288C125.587 100.224 125.293 100.192 124.888 100.192C124.867 100.192 124.856 100.16 124.856 100.096C124.856 100.032 124.867 100 124.888 100L125.672 100.016C126.12 100.037 126.483 100.048 126.76 100.048C127.059 100.048 127.432 100.037 127.88 100.016L128.648 100C128.68 100 128.696 100.032 128.696 100.096C128.696 100.16 128.68 100.192 128.648 100.192C128.253 100.192 127.96 100.224 127.768 100.288C127.576 100.341 127.448 100.448 127.384 100.608C127.32 100.757 127.288 100.992 127.288 101.312V108.64ZM137.297 110C137.276 110 137.265 109.968 137.265 109.904C137.265 109.84 137.276 109.808 137.297 109.808C137.703 109.808 137.996 109.781 138.177 109.728C138.369 109.675 138.497 109.573 138.561 109.424C138.636 109.264 138.673 109.024 138.673 108.704V101.296C138.673 100.976 138.636 100.741 138.561 100.592C138.497 100.443 138.369 100.341 138.177 100.288C137.996 100.224 137.703 100.192 137.297 100.192C137.276 100.192 137.265 100.16 137.265 100.096C137.265 100.032 137.276 100 137.297 100H143.729C143.825 100 143.873 100.048 143.873 100.144L143.905 102.112C143.905 102.144 143.873 102.165 143.809 102.176C143.756 102.176 143.729 102.16 143.729 102.128C143.697 101.563 143.527 101.125 143.217 100.816C142.908 100.496 142.497 100.336 141.985 100.336H141.009C140.636 100.336 140.359 100.368 140.177 100.432C139.996 100.485 139.868 100.581 139.793 100.72C139.729 100.859 139.697 101.077 139.697 101.376V108.64C139.697 108.928 139.729 109.147 139.793 109.296C139.868 109.435 139.991 109.531 140.161 109.584C140.332 109.637 140.599 109.664 140.961 109.664H142.241C142.753 109.664 143.18 109.483 143.521 109.12C143.863 108.757 144.092 108.256 144.209 107.616C144.209 107.595 144.231 107.584 144.273 107.584C144.305 107.584 144.332 107.595 144.353 107.616C144.385 107.627 144.401 107.637 144.401 107.648C144.305 108.32 144.257 109.024 144.257 109.76C144.257 109.845 144.236 109.909 144.193 109.952C144.161 109.984 144.097 110 144.001 110H137.297ZM143.105 106.272C143.105 105.803 142.988 105.467 142.753 105.264C142.529 105.061 142.151 104.96 141.617 104.96H139.217V104.624H141.665C142.177 104.624 142.54 104.539 142.753 104.368C142.977 104.197 143.089 103.909 143.089 103.504C143.089 103.483 143.121 103.472 143.185 103.472C143.249 103.472 143.281 103.483 143.281 103.504L143.265 104.8C143.265 105.109 143.271 105.344 143.281 105.504L143.297 106.272C143.297 106.293 143.265 106.304 143.201 106.304C143.137 106.304 143.105 106.293 143.105 106.272ZM147.523 101.872C147.523 102.288 147.624 102.651 147.827 102.96C148.03 103.269 148.275 103.531 148.563 103.744C148.851 103.947 149.256 104.208 149.779 104.528C150.334 104.859 150.766 105.136 151.075 105.36C151.384 105.584 151.646 105.872 151.859 106.224C152.083 106.565 152.195 106.976 152.195 107.456C152.195 107.968 152.067 108.432 151.811 108.848C151.555 109.264 151.176 109.595 150.675 109.84C150.184 110.075 149.592 110.192 148.899 110.192C148.078 110.192 147.326 110.005 146.643 109.632C146.59 109.6 146.552 109.563 146.531 109.52C146.52 109.477 146.51 109.413 146.499 109.328L146.291 107.152C146.28 107.109 146.302 107.083 146.355 107.072C146.419 107.061 146.456 107.077 146.467 107.12C146.627 107.877 146.942 108.539 147.411 109.104C147.88 109.659 148.499 109.936 149.267 109.936C149.8 109.936 150.248 109.792 150.611 109.504C150.984 109.205 151.171 108.736 151.171 108.096C151.171 107.616 151.064 107.2 150.851 106.848C150.638 106.496 150.376 106.208 150.067 105.984C149.768 105.749 149.358 105.477 148.835 105.168C148.323 104.859 147.918 104.592 147.619 104.368C147.331 104.144 147.086 103.861 146.883 103.52C146.68 103.179 146.579 102.779 146.579 102.32C146.579 101.787 146.718 101.333 146.995 100.96C147.283 100.576 147.651 100.293 148.099 100.112C148.558 99.92 149.043 99.824 149.555 99.824C150.184 99.824 150.808 99.952 151.427 100.208C151.587 100.261 151.667 100.352 151.667 100.48L151.779 102.304C151.779 102.357 151.747 102.384 151.683 102.384C151.63 102.384 151.598 102.363 151.587 102.32C151.512 101.765 151.288 101.253 150.915 100.784C150.542 100.304 150.003 100.064 149.299 100.064C148.702 100.064 148.254 100.24 147.955 100.592C147.667 100.933 147.523 101.36 147.523 101.872ZM156.071 100.288C155.409 100.288 154.908 100.459 154.567 100.8C154.236 101.141 153.996 101.723 153.847 102.544C153.847 102.565 153.815 102.576 153.751 102.576C153.697 102.576 153.671 102.565 153.671 102.544C153.713 102.16 153.761 101.659 153.815 101.04C153.868 100.421 153.895 99.9573 153.895 99.648C153.895 99.5947 153.921 99.568 153.975 99.568C154.039 99.568 154.071 99.5947 154.071 99.648C154.071 99.8827 154.359 100 154.935 100C155.852 100.032 156.924 100.048 158.151 100.048C158.78 100.048 159.447 100.037 160.151 100.016L161.239 100C161.623 100 161.905 99.9733 162.087 99.92C162.279 99.8667 162.401 99.76 162.455 99.6C162.465 99.5573 162.497 99.536 162.551 99.536C162.604 99.536 162.631 99.5573 162.631 99.6C162.599 99.9093 162.567 100.379 162.535 101.008C162.503 101.637 162.487 102.149 162.487 102.544C162.487 102.565 162.455 102.576 162.391 102.576C162.327 102.576 162.295 102.565 162.295 102.544C162.263 101.712 162.092 101.131 161.783 100.8C161.473 100.459 160.961 100.288 160.247 100.288C159.767 100.288 159.425 100.309 159.223 100.352C159.02 100.395 158.881 100.485 158.807 100.624C158.732 100.763 158.695 100.997 158.695 101.328V108.704C158.695 109.035 158.732 109.275 158.807 109.424C158.881 109.573 159.025 109.675 159.239 109.728C159.452 109.781 159.788 109.808 160.247 109.808C160.279 109.808 160.295 109.84 160.295 109.904C160.295 109.968 160.279 110 160.247 110C159.895 110 159.612 109.995 159.399 109.984L158.151 109.968L156.951 109.984C156.737 109.995 156.444 110 156.071 110C156.049 110 156.039 109.968 156.039 109.904C156.039 109.84 156.049 109.808 156.071 109.808C156.529 109.808 156.865 109.781 157.079 109.728C157.292 109.675 157.436 109.573 157.511 109.424C157.596 109.264 157.639 109.024 157.639 108.704V101.296C157.639 100.965 157.601 100.736 157.527 100.608C157.452 100.469 157.313 100.384 157.111 100.352C156.908 100.309 156.561 100.288 156.071 100.288ZM165.342 105.28H169.582L169.694 105.6H165.182L165.342 105.28ZM173.262 109.808C173.305 109.808 173.326 109.84 173.326 109.904C173.326 109.968 173.305 110 173.262 110C173.059 110 172.745 109.989 172.318 109.968C171.891 109.947 171.582 109.936 171.39 109.936C171.155 109.936 170.857 109.947 170.494 109.968C170.153 109.989 169.891 110 169.71 110C169.667 110 169.646 109.968 169.646 109.904C169.646 109.84 169.667 109.808 169.71 109.808C170.115 109.808 170.403 109.771 170.574 109.696C170.755 109.621 170.846 109.488 170.846 109.296C170.846 109.136 170.782 108.912 170.654 108.624L167.102 101.12L167.502 100.624L164.398 107.968C164.249 108.331 164.174 108.629 164.174 108.864C164.174 109.493 164.697 109.808 165.742 109.808C165.795 109.808 165.822 109.84 165.822 109.904C165.822 109.968 165.795 110 165.742 110C165.55 110 165.273 109.989 164.91 109.968C164.505 109.947 164.153 109.936 163.854 109.936C163.577 109.936 163.257 109.947 162.894 109.968C162.574 109.989 162.307 110 162.094 110C162.041 110 162.014 109.968 162.014 109.904C162.014 109.84 162.041 109.808 162.094 109.808C162.393 109.808 162.643 109.755 162.846 109.648C163.059 109.531 163.257 109.333 163.438 109.056C163.63 108.768 163.838 108.357 164.062 107.824L167.438 99.856C167.459 99.824 167.497 99.808 167.55 99.808C167.603 99.808 167.635 99.824 167.646 99.856L171.422 107.808C171.785 108.597 172.094 109.131 172.35 109.408C172.606 109.675 172.91 109.808 173.262 109.808ZM175.196 100.288C174.534 100.288 174.033 100.459 173.692 100.8C173.361 101.141 173.121 101.723 172.972 102.544C172.972 102.565 172.94 102.576 172.876 102.576C172.822 102.576 172.796 102.565 172.796 102.544C172.838 102.16 172.886 101.659 172.94 101.04C172.993 100.421 173.02 99.9573 173.02 99.648C173.02 99.5947 173.046 99.568 173.1 99.568C173.164 99.568 173.196 99.5947 173.196 99.648C173.196 99.8827 173.484 100 174.06 100C174.977 100.032 176.049 100.048 177.276 100.048C177.905 100.048 178.572 100.037 179.276 100.016L180.364 100C180.748 100 181.03 99.9733 181.212 99.92C181.404 99.8667 181.526 99.76 181.58 99.6C181.59 99.5573 181.622 99.536 181.676 99.536C181.729 99.536 181.756 99.5573 181.756 99.6C181.724 99.9093 181.692 100.379 181.66 101.008C181.628 101.637 181.612 102.149 181.612 102.544C181.612 102.565 181.58 102.576 181.516 102.576C181.452 102.576 181.42 102.565 181.42 102.544C181.388 101.712 181.217 101.131 180.908 100.8C180.598 100.459 180.086 100.288 179.372 100.288C178.892 100.288 178.55 100.309 178.348 100.352C178.145 100.395 178.006 100.485 177.932 100.624C177.857 100.763 177.82 100.997 177.82 101.328V108.704C177.82 109.035 177.857 109.275 177.932 109.424C178.006 109.573 178.15 109.675 178.364 109.728C178.577 109.781 178.913 109.808 179.372 109.808C179.404 109.808 179.42 109.84 179.42 109.904C179.42 109.968 179.404 110 179.372 110C179.02 110 178.737 109.995 178.524 109.984L177.276 109.968L176.076 109.984C175.862 109.995 175.569 110 175.196 110C175.174 110 175.164 109.968 175.164 109.904C175.164 109.84 175.174 109.808 175.196 109.808C175.654 109.808 175.99 109.781 176.204 109.728C176.417 109.675 176.561 109.573 176.636 109.424C176.721 109.264 176.764 109.024 176.764 108.704V101.296C176.764 100.965 176.726 100.736 176.652 100.608C176.577 100.469 176.438 100.384 176.236 100.352C176.033 100.309 175.686 100.288 175.196 100.288ZM183.016 110C182.995 110 182.984 109.968 182.984 109.904C182.984 109.84 182.995 109.808 183.016 109.808C183.421 109.808 183.715 109.781 183.896 109.728C184.088 109.675 184.216 109.573 184.28 109.424C184.355 109.264 184.392 109.024 184.392 108.704V101.296C184.392 100.976 184.355 100.741 184.28 100.592C184.216 100.443 184.088 100.341 183.896 100.288C183.715 100.224 183.421 100.192 183.016 100.192C182.995 100.192 182.984 100.16 182.984 100.096C182.984 100.032 182.995 100 183.016 100H189.448C189.544 100 189.592 100.048 189.592 100.144L189.624 102.112C189.624 102.144 189.592 102.165 189.528 102.176C189.475 102.176 189.448 102.16 189.448 102.128C189.416 101.563 189.245 101.125 188.936 100.816C188.627 100.496 188.216 100.336 187.704 100.336H186.728C186.355 100.336 186.077 100.368 185.896 100.432C185.715 100.485 185.587 100.581 185.512 100.72C185.448 100.859 185.416 101.077 185.416 101.376V108.64C185.416 108.928 185.448 109.147 185.512 109.296C185.587 109.435 185.709 109.531 185.88 109.584C186.051 109.637 186.317 109.664 186.68 109.664H187.96C188.472 109.664 188.899 109.483 189.24 109.12C189.581 108.757 189.811 108.256 189.928 107.616C189.928 107.595 189.949 107.584 189.992 107.584C190.024 107.584 190.051 107.595 190.072 107.616C190.104 107.627 190.12 107.637 190.12 107.648C190.024 108.32 189.976 109.024 189.976 109.76C189.976 109.845 189.955 109.909 189.912 109.952C189.88 109.984 189.816 110 189.72 110H183.016ZM188.824 106.272C188.824 105.803 188.707 105.467 188.472 105.264C188.248 105.061 187.869 104.96 187.336 104.96H184.936V104.624H187.384C187.896 104.624 188.259 104.539 188.472 104.368C188.696 104.197 188.808 103.909 188.808 103.504C188.808 103.483 188.84 103.472 188.904 103.472C188.968 103.472 189 103.483 189 103.504L188.984 104.8C188.984 105.109 188.989 105.344 189 105.504L189.016 106.272C189.016 106.293 188.984 106.304 188.92 106.304C188.856 106.304 188.824 106.293 188.824 106.272Z" fill="#4A4A4A"/>
<defs>
<linearGradient id="paint0_linear_771_195" x1="10" y1="12001" x2="9610" y2="7201" gradientUnits="userSpaceOnUse">
<stop stop-color="#D97706"/>
<stop offset="1" stop-color="#4A4A4A"/>
</linearGradient>
</defs>
</svg>
