<svg width="60" height="84" viewBox="0 0 60 84" fill="none" xmlns="http://www.w3.org/2000/svg">
<path d="M30 60C46.5685 60 60 46.5685 60 30C60 13.4315 46.5685 0 30 0C13.4315 0 0 13.4315 0 30C0 46.5685 13.4315 60 30 60Z" fill="#8BC34A"/>
<path d="M15 30C25 10 35 10 45 30" stroke="white" stroke-width="3"/>
<path d="M20 40C26.6667 30 33.3333 30 40 40" stroke="white" stroke-width="2"/>
<path d="M8.50781 75.625H12.1719V80.25C10.8281 80.8333 9.49479 81.125 8.17188 81.125C6.36458 81.125 4.91927 80.599 3.83594 79.5469C2.75781 78.4896 2.21875 77.1875 2.21875 75.6406C2.21875 74.0104 2.77865 72.6536 3.89844 71.5703C5.01823 70.487 6.42188 69.9453 8.10938 69.9453C8.72396 69.9453 9.30729 70.013 9.85938 70.1484C10.4115 70.2786 11.1094 70.5208 11.9531 70.875V72.4688C10.651 71.7135 9.35938 71.3359 8.07812 71.3359C6.88542 71.3359 5.88021 71.7422 5.0625 72.5547C4.24479 73.3672 3.83594 74.3646 3.83594 75.5469C3.83594 76.7865 4.24479 77.7995 5.0625 78.5859C5.88021 79.3724 6.93229 79.7656 8.21875 79.7656C8.84375 79.7656 9.59115 79.6224 10.4609 79.3359L10.6094 79.2891V77.0156H8.50781V75.625ZM14.5 81V70.0859H17.2344C18.3385 70.0859 19.2135 70.3594 19.8594 70.9062C20.5104 71.4531 20.8359 72.1927 20.8359 73.125C20.8359 73.7604 20.6771 74.3099 20.3594 74.7734C20.0417 75.237 19.5859 75.5833 18.9922 75.8125C19.3411 76.0417 19.6823 76.3542 20.0156 76.75C20.349 77.1458 20.8177 77.8359 21.4219 78.8203C21.8021 79.4401 22.1068 79.9062 22.3359 80.2188L22.9141 81H21.0547L20.5781 80.2812C20.5625 80.2552 20.5312 80.2109 20.4844 80.1484L20.1797 79.7188L19.6953 78.9219L19.1719 78.0703C18.849 77.6224 18.5521 77.2656 18.2812 77C18.0156 76.7344 17.7734 76.5443 17.5547 76.4297C17.3411 76.3099 16.9792 76.25 16.4688 76.25H16.0625V81H14.5ZM16.5312 71.4141H16.0625V74.8594H16.6562C17.4479 74.8594 17.9896 74.7917 18.2812 74.6562C18.5781 74.5208 18.8073 74.3177 18.9688 74.0469C19.1354 73.7708 19.2188 73.4583 19.2188 73.1094C19.2188 72.7656 19.1276 72.4557 18.9453 72.1797C18.763 71.8984 18.5052 71.7005 18.1719 71.5859C17.8438 71.4714 17.2969 71.4141 16.5312 71.4141ZM24.1406 70.0859H25.7031V81H24.1406V70.0859ZM36.7969 70.0859H38.2812V81H36.9375L29.6406 72.6016V81H28.1719V70.0859H29.4375L36.7969 78.5547V70.0859ZM46.7969 70.0859H48.75L44.0156 75.2578L49.9141 81H47.7734L42.2031 75.6094V81H40.6406V70.0859H42.2031V75.0781L46.7969 70.0859ZM57.6953 70.0859H59.5859L55.5547 75.2266V81H53.9531V75.2266L49.9219 70.0859H51.8125L54.7344 73.8516L57.6953 70.0859Z" fill="#333333"/>
</svg>
