<svg width="318" height="82" viewBox="0 0 318 82" fill="none" xmlns="http://www.w3.org/2000/svg">
<path d="M40 80C62.0914 80 80 62.0914 80 40C80 17.9086 62.0914 0 40 0C17.9086 0 0 17.9086 0 40C0 62.0914 17.9086 80 40 80Z" fill="#8B4513"/>
<path d="M25 20C30.3043 20 35.3914 22.1071 39.1421 25.8579C42.8929 29.6086 45 34.6957 45 40C45 45.3043 42.8929 50.3914 39.1421 54.1421C35.3914 57.8929 30.3043 60 25 60C25 63.9782 26.5804 67.7936 29.3934 70.6066C32.2064 73.4196 36.0218 75 40 75C43.9782 75 47.7936 73.4196 50.6066 70.6066C53.4196 67.7936 55 63.9782 55 60C49.6957 60 44.6086 57.8929 40.8579 54.1421C37.1071 50.3914 35 45.3043 35 40C35 34.6957 37.1071 29.6086 40.8579 25.8579C44.6086 22.1071 49.6957 20 55 20H25Z" fill="#FFF8DC"/>
<path d="M93.2273 70V35.0909H114.295V38.8409H97.4545V50.6364H113.205V54.3864H97.4545V66.25H114.568V70H93.2273ZM132.756 43.8182V47.2273H119.188V43.8182H132.756ZM123.142 37.5455H127.165V62.5C127.165 63.6364 127.33 64.4886 127.659 65.0568C128 65.6136 128.432 65.9886 128.955 66.1818C129.489 66.3636 130.051 66.4545 130.642 66.4545C131.085 66.4545 131.449 66.4318 131.733 66.3864C132.017 66.3295 132.244 66.2841 132.415 66.25L133.233 69.8636C132.96 69.9659 132.58 70.0682 132.091 70.1705C131.602 70.2841 130.983 70.3409 130.233 70.3409C129.097 70.3409 127.983 70.0966 126.892 69.608C125.813 69.1193 124.915 68.375 124.199 67.375C123.494 66.375 123.142 65.1136 123.142 63.5909V37.5455ZM143.392 54.25V70H139.369V35.0909H143.392V47.9091H143.733C144.347 46.5568 145.267 45.483 146.494 44.6875C147.733 43.8807 149.381 43.4773 151.438 43.4773C153.222 43.4773 154.784 43.8352 156.125 44.5511C157.466 45.2557 158.506 46.3409 159.244 47.8068C159.994 49.2614 160.369 51.1136 160.369 53.3636V70H156.347V53.6364C156.347 51.5568 155.807 49.9489 154.727 48.8125C153.659 47.6648 152.176 47.0909 150.278 47.0909C148.96 47.0909 147.778 47.3693 146.733 47.9261C145.699 48.483 144.881 49.2955 144.278 50.3636C143.688 51.4318 143.392 52.7273 143.392 54.25ZM171.751 54.25V70H167.729V43.8182H171.615V47.9091H171.956C172.57 46.5795 173.501 45.5114 174.751 44.7045C176.001 43.8864 177.615 43.4773 179.592 43.4773C181.365 43.4773 182.916 43.8409 184.246 44.5682C185.575 45.2841 186.609 46.375 187.348 47.8409C188.087 49.2955 188.456 51.1364 188.456 53.3636V70H184.433V53.6364C184.433 51.5795 183.899 49.9773 182.831 48.8295C181.763 47.6705 180.297 47.0909 178.433 47.0909C177.149 47.0909 176.001 47.3693 174.99 47.9261C173.99 48.483 173.2 49.2955 172.621 50.3636C172.041 51.4318 171.751 52.7273 171.751 54.25ZM195.807 70V43.8182H199.83V70H195.807ZM197.852 39.4545C197.068 39.4545 196.392 39.1875 195.824 38.6534C195.267 38.1193 194.989 37.4773 194.989 36.7273C194.989 35.9773 195.267 35.3352 195.824 34.8011C196.392 34.267 197.068 34 197.852 34C198.636 34 199.307 34.267 199.864 34.8011C200.432 35.3352 200.716 35.9773 200.716 36.7273C200.716 37.4773 200.432 38.1193 199.864 38.6534C199.307 39.1875 198.636 39.4545 197.852 39.4545ZM207.743 70V35.0909H219.538C222.277 35.0909 224.516 35.5852 226.254 36.5739C228.004 37.5511 229.3 38.875 230.141 40.5455C230.982 42.2159 231.402 44.0795 231.402 46.1364C231.402 48.1932 230.982 50.0625 230.141 51.7443C229.311 53.4261 228.027 54.767 226.288 55.767C224.55 56.7557 222.322 57.25 219.607 57.25H211.152V53.5H219.47C221.345 53.5 222.851 53.1761 223.987 52.5284C225.124 51.8807 225.947 51.0057 226.459 49.9034C226.982 48.7898 227.243 47.5341 227.243 46.1364C227.243 44.7386 226.982 43.4886 226.459 42.3864C225.947 41.2841 225.118 40.4205 223.97 39.7955C222.822 39.1591 221.3 38.8409 219.402 38.8409H211.97V70H207.743ZM241.689 35.0909V70H237.666V35.0909H241.689ZM256.761 70.6136C255.102 70.6136 253.597 70.3011 252.244 69.6761C250.892 69.0398 249.818 68.125 249.023 66.9318C248.227 65.7273 247.83 64.2727 247.83 62.5682C247.83 61.0682 248.125 59.8523 248.716 58.9205C249.307 57.9773 250.097 57.2386 251.085 56.7045C252.074 56.1705 253.165 55.7727 254.358 55.5114C255.563 55.2386 256.773 55.0227 257.989 54.8636C259.58 54.6591 260.869 54.5057 261.858 54.4034C262.858 54.2898 263.585 54.1023 264.04 53.8409C264.506 53.5795 264.739 53.125 264.739 52.4773V52.3409C264.739 50.6591 264.278 49.3523 263.358 48.4205C262.449 47.4886 261.068 47.0227 259.216 47.0227C257.295 47.0227 255.79 47.4432 254.699 48.2841C253.608 49.125 252.841 50.0227 252.398 50.9773L248.58 49.6136C249.261 48.0227 250.17 46.7841 251.307 45.8977C252.455 45 253.705 44.375 255.057 44.0227C256.42 43.6591 257.761 43.4773 259.08 43.4773C259.92 43.4773 260.886 43.5795 261.977 43.7841C263.08 43.9773 264.142 44.3807 265.165 44.9943C266.199 45.608 267.057 46.5341 267.739 47.7727C268.42 49.0114 268.761 50.6705 268.761 52.75V70H264.739V66.4545H264.534C264.261 67.0227 263.807 67.6307 263.17 68.2784C262.534 68.9261 261.688 69.4773 260.631 69.9318C259.574 70.3864 258.284 70.6136 256.761 70.6136ZM257.375 67C258.966 67 260.307 66.6875 261.398 66.0625C262.5 65.4375 263.33 64.6307 263.886 63.642C264.455 62.6534 264.739 61.6136 264.739 60.5227V56.8409C264.568 57.0455 264.193 57.233 263.614 57.4034C263.045 57.5625 262.386 57.7045 261.636 57.8295C260.898 57.9432 260.176 58.0455 259.472 58.1364C258.778 58.2159 258.216 58.2841 257.784 58.3409C256.739 58.4773 255.761 58.6989 254.852 59.0057C253.955 59.3011 253.227 59.75 252.67 60.3523C252.125 60.9432 251.852 61.75 251.852 62.7727C251.852 64.1705 252.369 65.2273 253.403 65.9432C254.449 66.6477 255.773 67 257.375 67ZM287.49 43.8182V47.2273H273.922V43.8182H287.49ZM277.876 37.5455H281.899V62.5C281.899 63.6364 282.064 64.4886 282.393 65.0568C282.734 65.6136 283.166 65.9886 283.689 66.1818C284.223 66.3636 284.786 66.4545 285.376 66.4545C285.82 66.4545 286.183 66.4318 286.467 66.3864C286.751 66.3295 286.979 66.2841 287.149 66.25L287.967 69.8636C287.695 69.9659 287.314 70.0682 286.825 70.1705C286.337 70.2841 285.717 70.3409 284.967 70.3409C283.831 70.3409 282.717 70.0966 281.626 69.608C280.547 69.1193 279.649 68.375 278.933 67.375C278.229 66.375 277.876 65.1136 277.876 63.5909V37.5455ZM304.237 70.5455C301.714 70.5455 299.538 69.9886 297.709 68.875C295.891 67.75 294.487 66.1818 293.499 64.1705C292.521 62.1477 292.033 59.7955 292.033 57.1136C292.033 54.4318 292.521 52.0682 293.499 50.0227C294.487 47.9659 295.862 46.3636 297.624 45.2159C299.396 44.0568 301.464 43.4773 303.828 43.4773C305.192 43.4773 306.538 43.7045 307.868 44.1591C309.197 44.6136 310.408 45.3523 311.499 46.375C312.589 47.3864 313.459 48.7273 314.107 50.3977C314.754 52.0682 315.078 54.125 315.078 56.5682V58.2727H294.896V54.7955H310.987C310.987 53.3182 310.692 52 310.101 50.8409C309.521 49.6818 308.692 48.767 307.612 48.0966C306.544 47.4261 305.283 47.0909 303.828 47.0909C302.226 47.0909 300.839 47.4886 299.669 48.2841C298.51 49.0682 297.618 50.0909 296.993 51.3523C296.368 52.6136 296.055 53.9659 296.055 55.4091V57.7273C296.055 59.7045 296.396 61.3807 297.078 62.7557C297.771 64.1193 298.732 65.1591 299.959 65.875C301.186 66.5795 302.612 66.9318 304.237 66.9318C305.294 66.9318 306.249 66.7841 307.101 66.4886C307.964 66.1818 308.709 65.7273 309.334 65.125C309.959 64.5114 310.442 63.75 310.783 62.8409L314.669 63.9318C314.26 65.25 313.572 66.4091 312.607 67.4091C311.641 68.3977 310.447 69.1705 309.027 69.7273C307.607 70.2727 306.01 70.5455 304.237 70.5455Z" fill="#8B4513"/>
</svg>
