<svg width="197" height="67" viewBox="0 0 197 67" fill="none" xmlns="http://www.w3.org/2000/svg">
<path d="M20 37C33.3333 10.3333 46.6667 10.3333 60 37C46.6667 50.3333 33.3333 50.3333 20 37Z" fill="#7FB069"/>
<path d="M10 47C30 27 50 27 70 47C50 60.3333 30 60.3333 10 47Z" fill="#5C8D51"/>
<path d="M0 57C26.6667 43.6667 53.3333 43.6667 80 57C53.3333 70.3333 26.6667 70.3333 0 57Z" fill="#497A3F"/>
<path d="M30 32C36.6667 18.6667 43.3333 18.6667 50 32C43.3333 38.6667 36.6667 38.6667 30 32Z" fill="#E8B5CE"/>
<path d="M20 37C33.3333 23.6667 46.6667 23.6667 60 37C46.6667 43.6667 33.3333 43.6667 20 37Z" fill="#E091B1"/>
<path d="M15 42C31.6667 28.6667 48.3333 28.6667 65 42C48.3333 48.6667 31.6667 48.6667 15 42Z" fill="#D66A93"/>
<path d="M22.8125 12.2969C22.8125 13.4531 22.5833 14.4792 22.125 15.375C21.6771 16.2604 21.0521 16.9948 20.25 17.5781C19.4583 18.1615 18.5885 18.5885 17.6406 18.8594C16.6927 19.1302 15.6875 19.2656 14.625 19.2656H12.1406V25.9844C12.1406 26.349 12.1979 26.6719 12.3125 26.9531C12.4375 27.224 12.6875 27.4323 13.0625 27.5781C13.25 27.651 13.5781 27.7188 14.0469 27.7812C14.526 27.8438 14.9635 27.8802 15.3594 27.8906V29H5.84375V27.8906C6.09375 27.8698 6.45312 27.8333 6.92188 27.7812C7.40104 27.7292 7.73438 27.6615 7.92188 27.5781C8.23438 27.4427 8.45833 27.2448 8.59375 26.9844C8.73958 26.724 8.8125 26.3906 8.8125 25.9844V9.98438C8.8125 9.61979 8.76042 9.29167 8.65625 9C8.55208 8.70833 8.30729 8.48958 7.92188 8.34375C7.52604 8.20833 7.13021 8.11458 6.73438 8.0625C6.34896 8 6.01562 7.95833 5.73438 7.9375V6.82812H15.8594C17.9219 6.82812 19.5938 7.32812 20.875 8.32812C22.1667 9.31771 22.8125 10.6406 22.8125 12.2969ZM18.0625 16.0781C18.4167 15.5781 18.651 15.0625 18.7656 14.5312C18.8802 13.9896 18.9375 13.5052 18.9375 13.0781C18.9375 12.4844 18.8646 11.8802 18.7188 11.2656C18.5833 10.651 18.3438 10.1146 18 9.65625C17.6354 9.16667 17.1562 8.78646 16.5625 8.51562C15.9688 8.24479 15.2292 8.10938 14.3438 8.10938H12.1406V17.9062H13.7344C14.8594 17.9062 15.7708 17.7344 16.4688 17.3906C17.1771 17.0365 17.7083 16.599 18.0625 16.0781ZM41.4844 28.7188L36.4688 29.0625L36.2344 28.8438V26.8906H36.1406C35.8906 27.151 35.6094 27.4323 35.2969 27.7344C34.9844 28.026 34.625 28.2917 34.2188 28.5312C33.75 28.8125 33.2969 29.026 32.8594 29.1719C32.4219 29.3177 31.8021 29.3906 31 29.3906C29.6354 29.3906 28.5938 28.9479 27.875 28.0625C27.1667 27.1667 26.8125 25.8698 26.8125 24.1719V16.7969C26.8125 16.4219 26.7396 16.1094 26.5938 15.8594C26.4583 15.599 26.2552 15.375 25.9844 15.1875C25.7969 15.0625 25.5625 14.974 25.2812 14.9219C25 14.8594 24.7031 14.8177 24.3906 14.7969V13.7812L29.5312 13.4062L29.7656 13.625V24.3281C29.7656 25.4427 30.0156 26.2812 30.5156 26.8438C31.0156 27.4062 31.6146 27.6875 32.3125 27.6875C32.8854 27.6875 33.3958 27.599 33.8438 27.4219C34.2917 27.2448 34.6667 27.0365 34.9688 26.7969C35.25 26.5781 35.4948 26.349 35.7031 26.1094C35.9219 25.8594 36.0885 25.6302 36.2031 25.4219V16.6875C36.2031 16.3438 36.1302 16.0417 35.9844 15.7812C35.8385 15.5104 35.6354 15.2812 35.375 15.0938C35.1875 14.9688 34.9062 14.8958 34.5312 14.875C34.1667 14.8438 33.7552 14.8177 33.2969 14.7969V13.7812L38.8906 13.4062L39.125 13.625V25.8594C39.125 26.2135 39.1979 26.5156 39.3438 26.7656C39.4896 27.0156 39.6927 27.2292 39.9531 27.4062C40.1406 27.5208 40.3646 27.599 40.625 27.6406C40.8854 27.6719 41.1719 27.6927 41.4844 27.7031V28.7188ZM55.1719 15.5781C55.1719 16.1094 55.0417 16.5833 54.7812 17C54.5208 17.4062 54.1198 17.6094 53.5781 17.6094C52.9948 17.6094 52.5469 17.4583 52.2344 17.1562C51.9323 16.8542 51.7812 16.5208 51.7812 16.1562C51.7812 15.9271 51.7969 15.7188 51.8281 15.5312C51.8698 15.3438 51.9062 15.1562 51.9375 14.9688C51.4479 14.9688 50.875 15.1667 50.2188 15.5625C49.5625 15.9583 49.0052 16.5208 48.5469 17.25V26.2188C48.5469 26.5833 48.6146 26.8802 48.75 27.1094C48.8958 27.3385 49.1198 27.5104 49.4219 27.625C49.6823 27.7292 50.0156 27.8073 50.4219 27.8594C50.8385 27.9115 51.1979 27.9479 51.5 27.9688V29H43.375V27.9688C43.6146 27.9479 43.8594 27.9271 44.1094 27.9062C44.3698 27.8854 44.5938 27.8438 44.7812 27.7812C45.0729 27.6875 45.2865 27.526 45.4219 27.2969C45.5677 27.0573 45.6406 26.75 45.6406 26.375V16.8594C45.6406 16.5365 45.5625 16.2188 45.4062 15.9062C45.2604 15.5938 45.0521 15.3438 44.7812 15.1562C44.5833 15.0312 44.349 14.9427 44.0781 14.8906C43.8073 14.8281 43.5156 14.7865 43.2031 14.7656V13.75L48.3281 13.4062L48.5469 13.625V15.7969H48.625C49.2708 14.9531 49.9896 14.3125 50.7812 13.875C51.5729 13.4375 52.2969 13.2188 52.9531 13.2188C53.6094 13.2188 54.1406 13.4323 54.5469 13.8594C54.9635 14.2865 55.1719 14.8594 55.1719 15.5781ZM70.1875 25.375C69.5417 26.6042 68.6771 27.5833 67.5938 28.3125C66.5104 29.0417 65.2656 29.4062 63.8594 29.4062C62.6198 29.4062 61.5312 29.1875 60.5938 28.75C59.6667 28.3125 58.901 27.7188 58.2969 26.9688C57.6927 26.2188 57.2396 25.3438 56.9375 24.3438C56.6458 23.3438 56.5 22.2865 56.5 21.1719C56.5 20.1719 56.6562 19.1927 56.9688 18.2344C57.2917 17.2656 57.7604 16.3958 58.375 15.625C58.9688 14.8854 59.7031 14.2917 60.5781 13.8438C61.4635 13.3854 62.4531 13.1562 63.5469 13.1562C64.6719 13.1562 65.6354 13.3333 66.4375 13.6875C67.2396 14.0417 67.8906 14.526 68.3906 15.1406C68.8698 15.724 69.224 16.4115 69.4531 17.2031C69.6927 17.9948 69.8125 18.8542 69.8125 19.7812V20.8125H59.6094C59.6094 21.8229 59.7031 22.7396 59.8906 23.5625C60.0885 24.3854 60.3958 25.1094 60.8125 25.7344C61.2188 26.3385 61.75 26.8177 62.4062 27.1719C63.0625 27.5156 63.8438 27.6875 64.75 27.6875C65.6771 27.6875 66.474 27.474 67.1406 27.0469C67.8177 26.6094 68.4688 25.8281 69.0938 24.7031L70.1875 25.375ZM66.7344 19.5C66.7344 18.9167 66.6823 18.2917 66.5781 17.625C66.4844 16.9583 66.3281 16.401 66.1094 15.9531C65.8698 15.474 65.5417 15.0833 65.125 14.7812C64.7083 14.4792 64.1719 14.3281 63.5156 14.3281C62.4219 14.3281 61.5104 14.7865 60.7812 15.7031C60.0625 16.6094 59.6719 17.875 59.6094 19.5H66.7344ZM93.8906 18.8281C94.3594 19.349 94.7031 19.9219 94.9219 20.5469C95.151 21.1615 95.2656 21.8802 95.2656 22.7031C95.2656 24.6615 94.5417 26.276 93.0938 27.5469C91.6458 28.8177 89.849 29.4531 87.7031 29.4531C86.7135 29.4531 85.724 29.3021 84.7344 29C83.7448 28.6875 82.8906 28.3125 82.1719 27.875L81.5 29.0156H80.25L80.0312 21.4219H81.2969C81.5573 22.3594 81.8594 23.2083 82.2031 23.9688C82.5573 24.7188 83.0208 25.4219 83.5938 26.0781C84.1354 26.6927 84.7656 27.1823 85.4844 27.5469C86.2135 27.9115 87.0573 28.0938 88.0156 28.0938C88.7344 28.0938 89.3594 28 89.8906 27.8125C90.4323 27.625 90.8698 27.3594 91.2031 27.0156C91.5365 26.6719 91.7812 26.2708 91.9375 25.8125C92.1042 25.3438 92.1875 24.8073 92.1875 24.2031C92.1875 23.3177 91.9375 22.4948 91.4375 21.7344C90.9375 20.9635 90.1927 20.3802 89.2031 19.9844C88.526 19.7135 87.75 19.4167 86.875 19.0938C86 18.7604 85.2448 18.4479 84.6094 18.1562C83.3594 17.5938 82.3854 16.8594 81.6875 15.9531C81 15.0365 80.6562 13.8438 80.6562 12.375C80.6562 11.5312 80.8281 10.7448 81.1719 10.0156C81.5156 9.28646 82.0052 8.63542 82.6406 8.0625C83.2448 7.52083 83.9583 7.09896 84.7812 6.79688C85.6042 6.48438 86.4635 6.32812 87.3594 6.32812C88.3802 6.32812 89.2917 6.48438 90.0938 6.79688C90.9062 7.10938 91.6458 7.47396 92.3125 7.89062L92.9531 6.82812H94.2031L94.3281 14.1875H93.0625C92.8333 13.3438 92.5729 12.5365 92.2812 11.7656C92 10.9948 91.6302 10.2969 91.1719 9.67188C90.724 9.06771 90.1771 8.58854 89.5312 8.23438C88.8854 7.86979 88.0938 7.6875 87.1562 7.6875C86.1667 7.6875 85.3229 8.00521 84.625 8.64062C83.9271 9.27604 83.5781 10.0521 83.5781 10.9688C83.5781 11.9271 83.8021 12.724 84.25 13.3594C84.6979 13.9844 85.349 14.5 86.2031 14.9062C86.9635 15.2708 87.7083 15.5885 88.4375 15.8594C89.1771 16.1198 89.8906 16.401 90.5781 16.7031C91.2031 16.974 91.8021 17.2812 92.375 17.625C92.9583 17.9688 93.4635 18.3698 93.8906 18.8281ZM111.344 25.375C110.698 26.6042 109.833 27.5833 108.75 28.3125C107.667 29.0417 106.422 29.4062 105.016 29.4062C103.776 29.4062 102.688 29.1875 101.75 28.75C100.823 28.3125 100.057 27.7188 99.4531 26.9688C98.849 26.2188 98.3958 25.3438 98.0938 24.3438C97.8021 23.3438 97.6562 22.2865 97.6562 21.1719C97.6562 20.1719 97.8125 19.1927 98.125 18.2344C98.4479 17.2656 98.9167 16.3958 99.5312 15.625C100.125 14.8854 100.859 14.2917 101.734 13.8438C102.62 13.3854 103.609 13.1562 104.703 13.1562C105.828 13.1562 106.792 13.3333 107.594 13.6875C108.396 14.0417 109.047 14.526 109.547 15.1406C110.026 15.724 110.38 16.4115 110.609 17.2031C110.849 17.9948 110.969 18.8542 110.969 19.7812V20.8125H100.766C100.766 21.8229 100.859 22.7396 101.047 23.5625C101.245 24.3854 101.552 25.1094 101.969 25.7344C102.375 26.3385 102.906 26.8177 103.562 27.1719C104.219 27.5156 105 27.6875 105.906 27.6875C106.833 27.6875 107.63 27.474 108.297 27.0469C108.974 26.6094 109.625 25.8281 110.25 24.7031L111.344 25.375ZM107.891 19.5C107.891 18.9167 107.839 18.2917 107.734 17.625C107.641 16.9583 107.484 16.401 107.266 15.9531C107.026 15.474 106.698 15.0833 106.281 14.7812C105.865 14.4792 105.328 14.3281 104.672 14.3281C103.578 14.3281 102.667 14.7865 101.938 15.7031C101.219 16.6094 100.828 17.875 100.766 19.5H107.891ZM124.922 15.5781C124.922 16.1094 124.792 16.5833 124.531 17C124.271 17.4062 123.87 17.6094 123.328 17.6094C122.745 17.6094 122.297 17.4583 121.984 17.1562C121.682 16.8542 121.531 16.5208 121.531 16.1562C121.531 15.9271 121.547 15.7188 121.578 15.5312C121.62 15.3438 121.656 15.1562 121.688 14.9688C121.198 14.9688 120.625 15.1667 119.969 15.5625C119.312 15.9583 118.755 16.5208 118.297 17.25V26.2188C118.297 26.5833 118.365 26.8802 118.5 27.1094C118.646 27.3385 118.87 27.5104 119.172 27.625C119.432 27.7292 119.766 27.8073 120.172 27.8594C120.589 27.9115 120.948 27.9479 121.25 27.9688V29H113.125V27.9688C113.365 27.9479 113.609 27.9271 113.859 27.9062C114.12 27.8854 114.344 27.8438 114.531 27.7812C114.823 27.6875 115.036 27.526 115.172 27.2969C115.318 27.0573 115.391 26.75 115.391 26.375V16.8594C115.391 16.5365 115.312 16.2188 115.156 15.9062C115.01 15.5938 114.802 15.3438 114.531 15.1562C114.333 15.0312 114.099 14.9427 113.828 14.8906C113.557 14.8281 113.266 14.7865 112.953 14.7656V13.75L118.078 13.4062L118.297 13.625V15.7969H118.375C119.021 14.9531 119.74 14.3125 120.531 13.875C121.323 13.4375 122.047 13.2188 122.703 13.2188C123.359 13.2188 123.891 13.4323 124.297 13.8594C124.714 14.2865 124.922 14.8594 124.922 15.5781ZM139.938 25.375C139.292 26.6042 138.427 27.5833 137.344 28.3125C136.26 29.0417 135.016 29.4062 133.609 29.4062C132.37 29.4062 131.281 29.1875 130.344 28.75C129.417 28.3125 128.651 27.7188 128.047 26.9688C127.443 26.2188 126.99 25.3438 126.688 24.3438C126.396 23.3438 126.25 22.2865 126.25 21.1719C126.25 20.1719 126.406 19.1927 126.719 18.2344C127.042 17.2656 127.51 16.3958 128.125 15.625C128.719 14.8854 129.453 14.2917 130.328 13.8438C131.214 13.3854 132.203 13.1562 133.297 13.1562C134.422 13.1562 135.385 13.3333 136.188 13.6875C136.99 14.0417 137.641 14.526 138.141 15.1406C138.62 15.724 138.974 16.4115 139.203 17.2031C139.443 17.9948 139.562 18.8542 139.562 19.7812V20.8125H129.359C129.359 21.8229 129.453 22.7396 129.641 23.5625C129.839 24.3854 130.146 25.1094 130.562 25.7344C130.969 26.3385 131.5 26.8177 132.156 27.1719C132.812 27.5156 133.594 27.6875 134.5 27.6875C135.427 27.6875 136.224 27.474 136.891 27.0469C137.568 26.6094 138.219 25.8281 138.844 24.7031L139.938 25.375ZM136.484 19.5C136.484 18.9167 136.432 18.2917 136.328 17.625C136.234 16.9583 136.078 16.401 135.859 15.9531C135.62 15.474 135.292 15.0833 134.875 14.7812C134.458 14.4792 133.922 14.3281 133.266 14.3281C132.172 14.3281 131.26 14.7865 130.531 15.7031C129.812 16.6094 129.422 17.875 129.359 19.5H136.484ZM158.734 29H151.188V27.9688C151.427 27.9479 151.688 27.9271 151.969 27.9062C152.26 27.8854 152.5 27.8438 152.688 27.7812C152.979 27.6875 153.193 27.526 153.328 27.2969C153.474 27.0573 153.547 26.75 153.547 26.375V18.4531C153.547 17.3594 153.286 16.5156 152.766 15.9219C152.255 15.3281 151.63 15.0312 150.891 15.0312C150.339 15.0312 149.833 15.1198 149.375 15.2969C148.917 15.4635 148.51 15.6719 148.156 15.9219C147.812 16.1615 147.536 16.4219 147.328 16.7031C147.13 16.974 146.984 17.1927 146.891 17.3594V26.2188C146.891 26.5729 146.964 26.8646 147.109 27.0938C147.255 27.3229 147.474 27.5 147.766 27.625C147.984 27.7292 148.219 27.8073 148.469 27.8594C148.729 27.9115 148.995 27.9479 149.266 27.9688V29H141.719V27.9688C141.958 27.9479 142.203 27.9271 142.453 27.9062C142.714 27.8854 142.938 27.8438 143.125 27.7812C143.417 27.6875 143.63 27.526 143.766 27.2969C143.911 27.0573 143.984 26.75 143.984 26.375V16.8594C143.984 16.5052 143.906 16.1823 143.75 15.8906C143.604 15.5885 143.396 15.3438 143.125 15.1562C142.927 15.0312 142.693 14.9427 142.422 14.8906C142.151 14.8281 141.859 14.7865 141.547 14.7656V13.75L146.672 13.4062L146.891 13.625V15.7969H146.969C147.219 15.5469 147.531 15.25 147.906 14.9062C148.281 14.5521 148.635 14.2656 148.969 14.0469C149.354 13.7969 149.812 13.5885 150.344 13.4219C150.875 13.2552 151.474 13.1719 152.141 13.1719C153.62 13.1719 154.714 13.6354 155.422 14.5625C156.141 15.4792 156.5 16.7031 156.5 18.2344V26.25C156.5 26.6146 156.562 26.9115 156.688 27.1406C156.812 27.3594 157.026 27.5312 157.328 27.6562C157.578 27.7604 157.792 27.8333 157.969 27.875C158.156 27.9167 158.411 27.9479 158.734 27.9688V29ZM168.109 29H160.656V27.9688C160.896 27.9479 161.141 27.9271 161.391 27.9062C161.651 27.8854 161.875 27.8438 162.062 27.7812C162.354 27.6875 162.568 27.526 162.703 27.2969C162.849 27.0573 162.922 26.75 162.922 26.375V16.8594C162.922 16.526 162.844 16.224 162.688 15.9531C162.542 15.6719 162.333 15.4375 162.062 15.25C161.865 15.125 161.578 15.0208 161.203 14.9375C160.828 14.8438 160.484 14.7865 160.172 14.7656V13.75L165.609 13.4062L165.828 13.625V26.1875C165.828 26.5521 165.896 26.8542 166.031 27.0938C166.177 27.3333 166.401 27.5104 166.703 27.625C166.932 27.7188 167.156 27.7969 167.375 27.8594C167.594 27.9115 167.839 27.9479 168.109 27.9688V29ZM166.141 7.32812C166.141 7.92188 165.943 8.44271 165.547 8.89062C165.161 9.32812 164.682 9.54688 164.109 9.54688C163.578 9.54688 163.115 9.33854 162.719 8.92188C162.333 8.49479 162.141 8.01042 162.141 7.46875C162.141 6.89583 162.333 6.39583 162.719 5.96875C163.115 5.54167 163.578 5.32812 164.109 5.32812C164.703 5.32812 165.188 5.53125 165.562 5.9375C165.948 6.33333 166.141 6.79688 166.141 7.32812ZM179.516 28.3281C178.839 28.6094 178.198 28.8438 177.594 29.0312C176.99 29.2292 176.25 29.3281 175.375 29.3281C174.083 29.3281 173.172 29.0052 172.641 28.3594C172.12 27.7031 171.859 26.7812 171.859 25.5938V15.1562H169.078V13.6562H171.922V8.85938H174.766V13.6562H179.188V15.1562H174.797V23.7656C174.797 24.4115 174.818 24.9531 174.859 25.3906C174.911 25.8177 175.026 26.1927 175.203 26.5156C175.37 26.8177 175.62 27.0469 175.953 27.2031C176.286 27.3594 176.734 27.4375 177.297 27.4375C177.557 27.4375 177.938 27.4167 178.438 27.375C178.948 27.3229 179.307 27.2604 179.516 27.1875V28.3281ZM179.891 34.0312C179.891 33.5104 180.031 33.0833 180.312 32.75C180.604 32.4271 180.964 32.2656 181.391 32.2656C181.724 32.2656 182.01 32.3281 182.25 32.4531C182.49 32.5781 182.703 32.7396 182.891 32.9375C183.047 33.0938 183.214 33.3073 183.391 33.5781C183.568 33.849 183.708 34.0729 183.812 34.25C184.333 33.9688 184.953 33.2344 185.672 32.0469C186.401 30.8594 186.927 29.8177 187.25 28.9219C186.26 26.4531 185.365 24.2448 184.562 22.2969C183.76 20.349 182.922 18.3333 182.047 16.25C181.849 15.7708 181.516 15.401 181.047 15.1406C180.578 14.8698 180.109 14.6979 179.641 14.625V13.5938H186.672V14.6875C186.359 14.6979 185.984 14.7656 185.547 14.8906C185.109 15.0052 184.891 15.1406 184.891 15.2969C184.891 15.3594 184.911 15.4635 184.953 15.6094C185.005 15.7552 185.062 15.9062 185.125 16.0625C185.521 17.0938 186.125 18.5833 186.938 20.5312C187.75 22.4688 188.38 24.0208 188.828 25.1875C189.297 24.0729 189.781 22.9219 190.281 21.7344C190.792 20.5365 191.359 19.125 191.984 17.5C192.057 17.3021 192.161 17.0312 192.297 16.6875C192.432 16.3333 192.5 16.0312 192.5 15.7812C192.5 15.5104 192.26 15.2604 191.781 15.0312C191.312 14.7917 190.865 14.6458 190.438 14.5938V13.5938H196.156V14.5625C195.844 14.6146 195.432 14.7969 194.922 15.1094C194.411 15.4115 194.031 15.8438 193.781 16.4062C192.542 19.2812 191.438 21.901 190.469 24.2656C189.51 26.6302 188.781 28.3698 188.281 29.4844C187.625 30.9427 187.036 32.0781 186.516 32.8906C186.005 33.7135 185.505 34.3594 185.016 34.8281C184.536 35.2656 184.099 35.5573 183.703 35.7031C183.318 35.8594 182.917 35.9375 182.5 35.9375C181.688 35.9375 181.047 35.7448 180.578 35.3594C180.12 34.974 179.891 34.5312 179.891 34.0312Z" fill="#2D4B2A"/>
<path d="M83.5938 52.3711C83.9453 52.7617 84.2031 53.1914 84.3672 53.6602C84.5391 54.1211 84.625 54.6602 84.625 55.2773C84.625 56.7461 84.082 57.957 82.9961 58.9102C81.9102 59.8633 80.5625 60.3398 78.9531 60.3398C78.2109 60.3398 77.4688 60.2266 76.7266 60C75.9844 59.7656 75.3438 59.4844 74.8047 59.1562L74.3008 60.0117H73.3633L73.1992 54.3164H74.1484C74.3438 55.0195 74.5703 55.6562 74.8281 56.2266C75.0938 56.7891 75.4414 57.3164 75.8711 57.8086C76.2773 58.2695 76.75 58.6367 77.2891 58.9102C77.8359 59.1836 78.4688 59.3203 79.1875 59.3203C79.7266 59.3203 80.1953 59.25 80.5938 59.1094C81 58.9688 81.3281 58.7695 81.5781 58.5117C81.8281 58.2539 82.0117 57.9531 82.1289 57.6094C82.2539 57.2578 82.3164 56.8555 82.3164 56.4023C82.3164 55.7383 82.1289 55.1211 81.7539 54.5508C81.3789 53.9727 80.8203 53.5352 80.0781 53.2383C79.5703 53.0352 78.9883 52.8125 78.332 52.5703C77.6758 52.3203 77.1094 52.0859 76.6328 51.8672C75.6953 51.4453 74.9648 50.8945 74.4414 50.2148C73.9258 49.5273 73.668 48.6328 73.668 47.5312C73.668 46.8984 73.7969 46.3086 74.0547 45.7617C74.3125 45.2148 74.6797 44.7266 75.1562 44.2969C75.6094 43.8906 76.1445 43.5742 76.7617 43.3477C77.3789 43.1133 78.0234 42.9961 78.6953 42.9961C79.4609 42.9961 80.1445 43.1133 80.7461 43.3477C81.3555 43.582 81.9102 43.8555 82.4102 44.168L82.8906 43.3711H83.8281L83.9219 48.8906H82.9727C82.8008 48.2578 82.6055 47.6523 82.3867 47.0742C82.1758 46.4961 81.8984 45.9727 81.5547 45.5039C81.2188 45.0508 80.8086 44.6914 80.3242 44.4258C79.8398 44.1523 79.2461 44.0156 78.543 44.0156C77.8008 44.0156 77.168 44.2539 76.6445 44.7305C76.1211 45.207 75.8594 45.7891 75.8594 46.4766C75.8594 47.1953 76.0273 47.793 76.3633 48.2695C76.6992 48.7383 77.1875 49.125 77.8281 49.4297C78.3984 49.7031 78.957 49.9414 79.5039 50.1445C80.0586 50.3398 80.5938 50.5508 81.1094 50.7773C81.5781 50.9805 82.0273 51.2109 82.457 51.4688C82.8945 51.7266 83.2734 52.0273 83.5938 52.3711ZM105.238 47.4727C105.238 48.3398 105.066 49.1094 104.723 49.7812C104.387 50.4453 103.918 50.9961 103.316 51.4336C102.723 51.8711 102.07 52.1914 101.359 52.3945C100.648 52.5977 99.8945 52.6992 99.0977 52.6992H97.2344V57.7383C97.2344 58.0117 97.2773 58.2539 97.3633 58.4648C97.457 58.668 97.6445 58.8242 97.9258 58.9336C98.0664 58.9883 98.3125 59.0391 98.6641 59.0859C99.0234 59.1328 99.3516 59.1602 99.6484 59.168V60H92.5117V59.168C92.6992 59.1523 92.9688 59.125 93.3203 59.0859C93.6797 59.0469 93.9297 58.9961 94.0703 58.9336C94.3047 58.832 94.4727 58.6836 94.5742 58.4883C94.6836 58.293 94.7383 58.043 94.7383 57.7383V45.7383C94.7383 45.4648 94.6992 45.2188 94.6211 45C94.543 44.7812 94.3594 44.6172 94.0703 44.5078C93.7734 44.4062 93.4766 44.3359 93.1797 44.2969C92.8906 44.25 92.6406 44.2188 92.4297 44.2031V43.3711H100.023C101.57 43.3711 102.824 43.7461 103.785 44.4961C104.754 45.2383 105.238 46.2305 105.238 47.4727ZM101.676 50.3086C101.941 49.9336 102.117 49.5469 102.203 49.1484C102.289 48.7422 102.332 48.3789 102.332 48.0586C102.332 47.6133 102.277 47.1602 102.168 46.6992C102.066 46.2383 101.887 45.8359 101.629 45.4922C101.355 45.125 100.996 44.8398 100.551 44.6367C100.105 44.4336 99.5508 44.332 98.8867 44.332H97.2344V51.6797H98.4297C99.2734 51.6797 99.957 51.5508 100.48 51.293C101.012 51.0273 101.41 50.6992 101.676 50.3086ZM128.453 60H121.527V59.168C122.137 59.1289 122.641 59.0508 123.039 58.9336C123.445 58.8164 123.648 58.6719 123.648 58.5C123.648 58.4297 123.641 58.3438 123.625 58.2422C123.609 58.1406 123.586 58.0508 123.555 57.9727L122.172 54.2461H116.348C116.129 54.793 115.949 55.2695 115.809 55.6758C115.676 56.082 115.555 56.457 115.445 56.8008C115.344 57.1367 115.273 57.4102 115.234 57.6211C115.195 57.832 115.176 58.0039 115.176 58.1367C115.176 58.4492 115.422 58.6914 115.914 58.8633C116.406 59.0352 116.961 59.1367 117.578 59.168V60H111.32V59.168C111.523 59.1523 111.777 59.1094 112.082 59.0391C112.387 58.9609 112.637 58.8594 112.832 58.7344C113.145 58.5234 113.387 58.3047 113.559 58.0781C113.73 57.8438 113.898 57.5234 114.062 57.1172C114.898 55.0312 115.82 52.6875 116.828 50.0859C117.836 47.4844 118.734 45.168 119.523 43.1367H120.461L126.004 57.4805C126.121 57.7852 126.254 58.0312 126.402 58.2188C126.551 58.4062 126.758 58.5898 127.023 58.7695C127.203 58.8789 127.438 58.9727 127.727 59.0508C128.016 59.1211 128.258 59.1602 128.453 59.168V60ZM121.75 53.2031L119.23 46.7578L116.758 53.2031H121.75Z" fill="#2D4B2A"/>
</svg>
