<svg width="237" height="199" viewBox="0 0 237 199" fill="none" xmlns="http://www.w3.org/2000/svg">
<path d="M69 38V138C69 151.333 75.6667 158 89 158H129C142.333 158 149 151.333 149 138V38" stroke="#2B5797" stroke-width="8"/>
<path d="M149 78C169 78 179 84.6667 179 98C179 111.333 169 118 149 118" stroke="#2B5797" stroke-width="8"/>
<path d="M69 38C75.6667 31.3333 82.3333 31.3333 89 38C95.6667 44.6667 102.333 44.6667 109 38C115.667 31.3333 122.333 31.3333 129 38C135.667 44.6667 142.333 44.6667 149 38" stroke="#2B5797" stroke-width="8"/>
<path d="M109 8C115.667 1.33333 122.333 1.33333 129 8C135.667 14.6667 135.667 21.3333 129 28C122.333 34.6667 115.667 34.6667 109 28C102.333 21.3333 102.333 14.6667 109 8Z" stroke="#DAA520" stroke-width="6"/>
<path d="M20.9062 181.828C21.5729 182.286 22.1146 182.865 22.5312 183.562C22.9479 184.25 23.1562 185.062 23.1562 186C23.1562 187.125 22.9167 188.078 22.4375 188.859C21.9688 189.63 21.2917 190.24 20.4062 190.688C19.4688 191.167 18.3854 191.505 17.1562 191.703C15.9375 191.901 14.5 192 12.8438 192H1.32812V190.781C1.65104 190.75 2.05729 190.703 2.54688 190.641C3.03646 190.578 3.38021 190.505 3.57812 190.422C3.96354 190.266 4.22396 190.062 4.35938 189.812C4.50521 189.552 4.57812 189.219 4.57812 188.812V173.188C4.57812 172.812 4.52083 172.5 4.40625 172.25C4.29167 172 4.01562 171.781 3.57812 171.594C3.25521 171.458 2.88021 171.349 2.45312 171.266C2.02604 171.172 1.65104 171.099 1.32812 171.047V169.828H13.375C16.4062 169.828 18.5938 170.245 19.9375 171.078C21.2812 171.911 21.9531 173.141 21.9531 174.766C21.9531 175.516 21.8021 176.177 21.5 176.75C21.1979 177.312 20.7656 177.802 20.2031 178.219C19.6927 178.604 19.0833 178.938 18.375 179.219C17.6667 179.5 16.9062 179.734 16.0938 179.922V180.219C16.9062 180.302 17.75 180.484 18.625 180.766C19.5 181.036 20.2604 181.391 20.9062 181.828ZM15.875 175.156C15.875 173.927 15.526 172.969 14.8281 172.281C14.1406 171.594 13.1042 171.25 11.7188 171.25C11.5208 171.25 11.2604 171.26 10.9375 171.281C10.625 171.292 10.3542 171.302 10.125 171.312V179.531H10.9375C12.625 179.531 13.8698 179.141 14.6719 178.359C15.474 177.568 15.875 176.5 15.875 175.156ZM16.9688 185.797C16.9688 184.255 16.5104 183.073 15.5938 182.25C14.6771 181.427 13.3594 181.016 11.6406 181.016C11.4427 181.016 11.1771 181.026 10.8438 181.047C10.5208 181.057 10.2812 181.068 10.125 181.078V189.188C10.2188 189.573 10.5104 189.901 11 190.172C11.4896 190.432 12.0833 190.562 12.7812 190.562C14.0208 190.562 15.026 190.146 15.7969 189.312C16.5781 188.479 16.9688 187.307 16.9688 185.797ZM43.2656 191.672C42.8073 191.87 42.2656 192.052 41.6406 192.219C41.0156 192.385 40.3542 192.469 39.6562 192.469C38.375 192.469 37.4323 192.281 36.8281 191.906C36.224 191.521 35.8125 190.974 35.5938 190.266H35.5C35.1458 190.62 34.8021 190.922 34.4688 191.172C34.1458 191.422 33.7969 191.635 33.4219 191.812C32.9323 192.042 32.4583 192.208 32 192.312C31.5521 192.427 30.9219 192.484 30.1094 192.484C28.901 192.484 27.8698 192.13 27.0156 191.422C26.1615 190.703 25.7344 189.755 25.7344 188.578C25.7344 187.901 25.8281 187.328 26.0156 186.859C26.2031 186.38 26.4688 185.958 26.8125 185.594C27.125 185.26 27.4844 184.984 27.8906 184.766C28.3073 184.547 28.7604 184.344 29.25 184.156C30.1875 183.812 31.3125 183.458 32.625 183.094C33.9375 182.719 34.8958 182.385 35.5 182.094V180.594C35.5 180.333 35.4792 179.99 35.4375 179.562C35.3958 179.135 35.3073 178.776 35.1719 178.484C35.026 178.151 34.7969 177.87 34.4844 177.641C34.1719 177.411 33.7604 177.297 33.25 177.297C32.7917 177.297 32.4062 177.365 32.0938 177.5C31.7917 177.625 31.5469 177.755 31.3594 177.891C31.3906 178.099 31.4792 178.417 31.625 178.844C31.7708 179.271 31.8438 179.682 31.8438 180.078C31.8438 180.255 31.7969 180.479 31.7031 180.75C31.6094 181.01 31.474 181.219 31.2969 181.375C31.0573 181.583 30.7865 181.745 30.4844 181.859C30.1927 181.974 29.7396 182.031 29.125 182.031C28.25 182.031 27.5885 181.823 27.1406 181.406C26.6927 180.979 26.4688 180.427 26.4688 179.75C26.4688 179.167 26.6979 178.646 27.1562 178.188C27.625 177.719 28.1927 177.333 28.8594 177.031C29.5156 176.719 30.2708 176.479 31.125 176.312C31.9792 176.135 32.7708 176.047 33.5 176.047C34.5104 176.047 35.4375 176.109 36.2812 176.234C37.125 176.349 37.8854 176.594 38.5625 176.969C39.2083 177.333 39.7188 177.865 40.0938 178.562C40.4792 179.25 40.6719 180.151 40.6719 181.266C40.6719 182.443 40.6458 183.839 40.5938 185.453C40.5521 187.068 40.5312 188.13 40.5312 188.641C40.5312 189.109 40.599 189.479 40.7344 189.75C40.8802 190.021 41.099 190.224 41.3906 190.359C41.5677 190.443 41.8438 190.495 42.2188 190.516C42.6042 190.526 42.9531 190.531 43.2656 190.531V191.672ZM35.5 183.531C34.9167 183.729 34.3385 183.958 33.7656 184.219C33.1927 184.469 32.724 184.734 32.3594 185.016C31.974 185.307 31.6719 185.682 31.4531 186.141C31.2344 186.589 31.125 187.12 31.125 187.734C31.125 188.547 31.3073 189.135 31.6719 189.5C32.0469 189.865 32.5052 190.047 33.0469 190.047C33.6198 190.047 34.0885 189.932 34.4531 189.703C34.8281 189.464 35.1562 189.172 35.4375 188.828L35.5 183.531ZM62.2812 177.641C61.8125 177.714 61.3542 177.891 60.9062 178.172C60.4688 178.453 60.1042 178.891 59.8125 179.484C59.0833 181.005 58.3646 182.542 57.6562 184.094C56.9583 185.635 56.2708 187.13 55.5938 188.578C55.3854 189.016 55.1458 189.578 54.875 190.266C54.6146 190.953 54.3958 191.578 54.2188 192.141H51.3438C50.1458 189.359 49.1198 187.052 48.2656 185.219C47.4219 183.385 46.526 181.417 45.5781 179.312C45.3594 178.823 45.0156 178.438 44.5469 178.156C44.0885 177.875 43.6198 177.703 43.1406 177.641V176.5H52.7656V177.641C52.4115 177.651 51.9948 177.729 51.5156 177.875C51.0365 178.021 50.7969 178.208 50.7969 178.438C50.7969 178.5 50.8177 178.594 50.8594 178.719C50.901 178.844 50.9531 178.984 51.0156 179.141C51.349 179.932 51.849 181.073 52.5156 182.562C53.1927 184.052 53.9062 185.62 54.6562 187.266C55.1771 186.13 55.6719 185.021 56.1406 183.938C56.6198 182.844 57.2083 181.453 57.9062 179.766C58 179.516 58.0521 179.312 58.0625 179.156C58.0833 179 58.0938 178.896 58.0938 178.844C58.0938 178.656 58 178.495 57.8125 178.359C57.6354 178.214 57.4219 178.089 57.1719 177.984C56.9115 177.88 56.6615 177.802 56.4219 177.75C56.1823 177.698 55.9844 177.661 55.8281 177.641V176.5H62.2812V177.641ZM80.4844 191.672C80.026 191.87 79.4844 192.052 78.8594 192.219C78.2344 192.385 77.5729 192.469 76.875 192.469C75.5938 192.469 74.651 192.281 74.0469 191.906C73.4427 191.521 73.0312 190.974 72.8125 190.266H72.7188C72.3646 190.62 72.0208 190.922 71.6875 191.172C71.3646 191.422 71.0156 191.635 70.6406 191.812C70.151 192.042 69.6771 192.208 69.2188 192.312C68.7708 192.427 68.1406 192.484 67.3281 192.484C66.1198 192.484 65.0885 192.13 64.2344 191.422C63.3802 190.703 62.9531 189.755 62.9531 188.578C62.9531 187.901 63.0469 187.328 63.2344 186.859C63.4219 186.38 63.6875 185.958 64.0312 185.594C64.3438 185.26 64.7031 184.984 65.1094 184.766C65.526 184.547 65.9792 184.344 66.4688 184.156C67.4062 183.812 68.5312 183.458 69.8438 183.094C71.1562 182.719 72.1146 182.385 72.7188 182.094V180.594C72.7188 180.333 72.6979 179.99 72.6562 179.562C72.6146 179.135 72.526 178.776 72.3906 178.484C72.2448 178.151 72.0156 177.87 71.7031 177.641C71.3906 177.411 70.9792 177.297 70.4688 177.297C70.0104 177.297 69.625 177.365 69.3125 177.5C69.0104 177.625 68.7656 177.755 68.5781 177.891C68.6094 178.099 68.6979 178.417 68.8438 178.844C68.9896 179.271 69.0625 179.682 69.0625 180.078C69.0625 180.255 69.0156 180.479 68.9219 180.75C68.8281 181.01 68.6927 181.219 68.5156 181.375C68.276 181.583 68.0052 181.745 67.7031 181.859C67.4115 181.974 66.9583 182.031 66.3438 182.031C65.4688 182.031 64.8073 181.823 64.3594 181.406C63.9115 180.979 63.6875 180.427 63.6875 179.75C63.6875 179.167 63.9167 178.646 64.375 178.188C64.8438 177.719 65.4115 177.333 66.0781 177.031C66.7344 176.719 67.4896 176.479 68.3438 176.312C69.1979 176.135 69.9896 176.047 70.7188 176.047C71.7292 176.047 72.6562 176.109 73.5 176.234C74.3438 176.349 75.1042 176.594 75.7812 176.969C76.4271 177.333 76.9375 177.865 77.3125 178.562C77.6979 179.25 77.8906 180.151 77.8906 181.266C77.8906 182.443 77.8646 183.839 77.8125 185.453C77.7708 187.068 77.75 188.13 77.75 188.641C77.75 189.109 77.8177 189.479 77.9531 189.75C78.099 190.021 78.3177 190.224 78.6094 190.359C78.7865 190.443 79.0625 190.495 79.4375 190.516C79.8229 190.526 80.1719 190.531 80.4844 190.531V191.672ZM72.7188 183.531C72.1354 183.729 71.5573 183.958 70.9844 184.219C70.4115 184.469 69.9427 184.734 69.5781 185.016C69.1927 185.307 68.8906 185.682 68.6719 186.141C68.4531 186.589 68.3438 187.12 68.3438 187.734C68.3438 188.547 68.526 189.135 68.8906 189.5C69.2656 189.865 69.724 190.047 70.2656 190.047C70.8385 190.047 71.3073 189.932 71.6719 189.703C72.0469 189.464 72.375 189.172 72.6562 188.828L72.7188 183.531ZM97.25 179.359C97.25 180.151 97.0052 180.849 96.5156 181.453C96.026 182.047 95.3802 182.344 94.5781 182.344C93.8177 182.344 93.1719 182.151 92.6406 181.766C92.1198 181.38 91.8594 180.812 91.8594 180.062C91.8594 179.698 91.8854 179.417 91.9375 179.219C91.9896 179.01 92.0365 178.818 92.0781 178.641C91.599 178.661 91.0938 178.828 90.5625 179.141C90.0312 179.453 89.5625 179.87 89.1562 180.391V188.969C89.1562 189.333 89.2135 189.635 89.3281 189.875C89.4427 190.115 89.6354 190.302 89.9062 190.438C90.1354 190.552 90.5052 190.651 91.0156 190.734C91.5365 190.807 91.9115 190.849 92.1406 190.859V192H81.6875V190.859C81.9479 190.839 82.2083 190.812 82.4688 190.781C82.7396 190.74 82.9688 190.688 83.1562 190.625C83.4896 190.51 83.7188 190.333 83.8438 190.094C83.9688 189.854 84.0312 189.542 84.0312 189.156V180.062C84.0312 179.688 83.9427 179.354 83.7656 179.062C83.5885 178.76 83.375 178.521 83.125 178.344C82.9375 178.219 82.6979 178.115 82.4062 178.031C82.125 177.948 81.8125 177.891 81.4688 177.859V176.719L88.9219 176.312L89.1562 176.547V178.812H89.2188C89.9375 177.979 90.6979 177.328 91.5 176.859C92.3125 176.38 93.1562 176.141 94.0312 176.141C95 176.141 95.776 176.443 96.3594 177.047C96.9531 177.641 97.25 178.411 97.25 179.359ZM108.219 192H98.3438V190.859C98.6146 190.839 98.8802 190.812 99.1406 190.781C99.401 190.75 99.625 190.698 99.8125 190.625C100.146 190.5 100.38 190.323 100.516 190.094C100.651 189.854 100.719 189.542 100.719 189.156V180.062C100.719 179.698 100.635 179.38 100.469 179.109C100.302 178.828 100.094 178.604 99.8438 178.438C99.6562 178.312 99.3698 178.193 98.9844 178.078C98.6094 177.964 98.2656 177.891 97.9531 177.859V176.719L105.609 176.312L105.844 176.547V188.953C105.844 189.318 105.922 189.63 106.078 189.891C106.234 190.141 106.458 190.328 106.75 190.453C106.958 190.547 107.188 190.63 107.438 190.703C107.688 190.776 107.948 190.828 108.219 190.859V192ZM105.938 170.688C105.938 171.479 105.63 172.156 105.016 172.719C104.411 173.271 103.693 173.547 102.859 173.547C102.016 173.547 101.286 173.271 100.672 172.719C100.068 172.156 99.7656 171.479 99.7656 170.688C99.7656 169.896 100.068 169.219 100.672 168.656C101.286 168.094 102.016 167.812 102.859 167.812C103.703 167.812 104.427 168.094 105.031 168.656C105.635 169.219 105.938 169.896 105.938 170.688ZM127.516 191.672C127.057 191.87 126.516 192.052 125.891 192.219C125.266 192.385 124.604 192.469 123.906 192.469C122.625 192.469 121.682 192.281 121.078 191.906C120.474 191.521 120.062 190.974 119.844 190.266H119.75C119.396 190.62 119.052 190.922 118.719 191.172C118.396 191.422 118.047 191.635 117.672 191.812C117.182 192.042 116.708 192.208 116.25 192.312C115.802 192.427 115.172 192.484 114.359 192.484C113.151 192.484 112.12 192.13 111.266 191.422C110.411 190.703 109.984 189.755 109.984 188.578C109.984 187.901 110.078 187.328 110.266 186.859C110.453 186.38 110.719 185.958 111.062 185.594C111.375 185.26 111.734 184.984 112.141 184.766C112.557 184.547 113.01 184.344 113.5 184.156C114.438 183.812 115.562 183.458 116.875 183.094C118.188 182.719 119.146 182.385 119.75 182.094V180.594C119.75 180.333 119.729 179.99 119.688 179.562C119.646 179.135 119.557 178.776 119.422 178.484C119.276 178.151 119.047 177.87 118.734 177.641C118.422 177.411 118.01 177.297 117.5 177.297C117.042 177.297 116.656 177.365 116.344 177.5C116.042 177.625 115.797 177.755 115.609 177.891C115.641 178.099 115.729 178.417 115.875 178.844C116.021 179.271 116.094 179.682 116.094 180.078C116.094 180.255 116.047 180.479 115.953 180.75C115.859 181.01 115.724 181.219 115.547 181.375C115.307 181.583 115.036 181.745 114.734 181.859C114.443 181.974 113.99 182.031 113.375 182.031C112.5 182.031 111.839 181.823 111.391 181.406C110.943 180.979 110.719 180.427 110.719 179.75C110.719 179.167 110.948 178.646 111.406 178.188C111.875 177.719 112.443 177.333 113.109 177.031C113.766 176.719 114.521 176.479 115.375 176.312C116.229 176.135 117.021 176.047 117.75 176.047C118.76 176.047 119.688 176.109 120.531 176.234C121.375 176.349 122.135 176.594 122.812 176.969C123.458 177.333 123.969 177.865 124.344 178.562C124.729 179.25 124.922 180.151 124.922 181.266C124.922 182.443 124.896 183.839 124.844 185.453C124.802 187.068 124.781 188.13 124.781 188.641C124.781 189.109 124.849 189.479 124.984 189.75C125.13 190.021 125.349 190.224 125.641 190.359C125.818 190.443 126.094 190.495 126.469 190.516C126.854 190.526 127.203 190.531 127.516 190.531V191.672ZM119.75 183.531C119.167 183.729 118.589 183.958 118.016 184.219C117.443 184.469 116.974 184.734 116.609 185.016C116.224 185.307 115.922 185.682 115.703 186.141C115.484 186.589 115.375 187.12 115.375 187.734C115.375 188.547 115.557 189.135 115.922 189.5C116.297 189.865 116.755 190.047 117.297 190.047C117.87 190.047 118.339 189.932 118.703 189.703C119.078 189.464 119.406 189.172 119.688 188.828L119.75 183.531ZM149.344 192H139.938V190.859C140.135 190.839 140.375 190.812 140.656 190.781C140.938 190.75 141.151 190.698 141.297 190.625C141.516 190.51 141.672 190.344 141.766 190.125C141.859 189.906 141.906 189.583 141.906 189.156V181.844C141.906 180.781 141.708 179.984 141.312 179.453C140.927 178.911 140.354 178.641 139.594 178.641C139.177 178.641 138.786 178.703 138.422 178.828C138.068 178.953 137.719 179.135 137.375 179.375C137.073 179.583 136.828 179.797 136.641 180.016C136.464 180.234 136.312 180.427 136.188 180.594V188.984C136.188 189.349 136.24 189.656 136.344 189.906C136.448 190.146 136.62 190.328 136.859 190.453C137.026 190.547 137.234 190.63 137.484 190.703C137.734 190.776 137.979 190.828 138.219 190.859V192H128.719V190.859C128.979 190.839 129.24 190.812 129.5 190.781C129.771 190.74 130 190.688 130.188 190.625C130.521 190.51 130.75 190.333 130.875 190.094C131 189.854 131.062 189.542 131.062 189.156V180.062C131.062 179.74 130.979 179.422 130.812 179.109C130.646 178.797 130.427 178.542 130.156 178.344C129.969 178.219 129.729 178.115 129.438 178.031C129.156 177.948 128.844 177.891 128.5 177.859V176.719L135.953 176.312L136.188 176.547V178.812H136.25C136.542 178.552 136.896 178.24 137.312 177.875C137.729 177.51 138.115 177.214 138.469 176.984C138.854 176.734 139.359 176.521 139.984 176.344C140.609 176.167 141.276 176.078 141.984 176.078C143.682 176.078 144.953 176.562 145.797 177.531C146.651 178.49 147.078 179.766 147.078 181.359V189.016C147.078 189.401 147.135 189.708 147.25 189.938C147.365 190.167 147.578 190.349 147.891 190.484C148.057 190.557 148.26 190.63 148.5 190.703C148.75 190.776 149.031 190.828 149.344 190.859V192ZM170.562 181.828C171.229 182.286 171.771 182.865 172.188 183.562C172.604 184.25 172.812 185.062 172.812 186C172.812 187.125 172.573 188.078 172.094 188.859C171.625 189.63 170.948 190.24 170.062 190.688C169.125 191.167 168.042 191.505 166.812 191.703C165.594 191.901 164.156 192 162.5 192H150.984V190.781C151.307 190.75 151.714 190.703 152.203 190.641C152.693 190.578 153.036 190.505 153.234 190.422C153.62 190.266 153.88 190.062 154.016 189.812C154.161 189.552 154.234 189.219 154.234 188.812V173.188C154.234 172.812 154.177 172.5 154.062 172.25C153.948 172 153.672 171.781 153.234 171.594C152.911 171.458 152.536 171.349 152.109 171.266C151.682 171.172 151.307 171.099 150.984 171.047V169.828H163.031C166.062 169.828 168.25 170.245 169.594 171.078C170.938 171.911 171.609 173.141 171.609 174.766C171.609 175.516 171.458 176.177 171.156 176.75C170.854 177.312 170.422 177.802 169.859 178.219C169.349 178.604 168.74 178.938 168.031 179.219C167.323 179.5 166.562 179.734 165.75 179.922V180.219C166.562 180.302 167.406 180.484 168.281 180.766C169.156 181.036 169.917 181.391 170.562 181.828ZM165.531 175.156C165.531 173.927 165.182 172.969 164.484 172.281C163.797 171.594 162.76 171.25 161.375 171.25C161.177 171.25 160.917 171.26 160.594 171.281C160.281 171.292 160.01 171.302 159.781 171.312V179.531H160.594C162.281 179.531 163.526 179.141 164.328 178.359C165.13 177.568 165.531 176.5 165.531 175.156ZM166.625 185.797C166.625 184.255 166.167 183.073 165.25 182.25C164.333 181.427 163.016 181.016 161.297 181.016C161.099 181.016 160.833 181.026 160.5 181.047C160.177 181.057 159.938 181.068 159.781 181.078V189.188C159.875 189.573 160.167 189.901 160.656 190.172C161.146 190.432 161.74 190.562 162.438 190.562C163.677 190.562 164.682 190.146 165.453 189.312C166.234 188.479 166.625 187.307 166.625 185.797ZM190.625 179.359C190.625 180.151 190.38 180.849 189.891 181.453C189.401 182.047 188.755 182.344 187.953 182.344C187.193 182.344 186.547 182.151 186.016 181.766C185.495 181.38 185.234 180.812 185.234 180.062C185.234 179.698 185.26 179.417 185.312 179.219C185.365 179.01 185.411 178.818 185.453 178.641C184.974 178.661 184.469 178.828 183.938 179.141C183.406 179.453 182.938 179.87 182.531 180.391V188.969C182.531 189.333 182.589 189.635 182.703 189.875C182.818 190.115 183.01 190.302 183.281 190.438C183.51 190.552 183.88 190.651 184.391 190.734C184.911 190.807 185.286 190.849 185.516 190.859V192H175.062V190.859C175.323 190.839 175.583 190.812 175.844 190.781C176.115 190.74 176.344 190.688 176.531 190.625C176.865 190.51 177.094 190.333 177.219 190.094C177.344 189.854 177.406 189.542 177.406 189.156V180.062C177.406 179.688 177.318 179.354 177.141 179.062C176.964 178.76 176.75 178.521 176.5 178.344C176.312 178.219 176.073 178.115 175.781 178.031C175.5 177.948 175.188 177.891 174.844 177.859V176.719L182.297 176.312L182.531 176.547V178.812H182.594C183.312 177.979 184.073 177.328 184.875 176.859C185.688 176.38 186.531 176.141 187.406 176.141C188.375 176.141 189.151 176.443 189.734 177.047C190.328 177.641 190.625 178.411 190.625 179.359ZM208.516 188.266C208.151 188.859 207.708 189.422 207.188 189.953C206.677 190.474 206.094 190.922 205.438 191.297C204.74 191.693 204.031 191.99 203.312 192.188C202.604 192.396 201.786 192.5 200.859 192.5C199.318 192.5 197.984 192.281 196.859 191.844C195.745 191.406 194.823 190.818 194.094 190.078C193.365 189.339 192.818 188.469 192.453 187.469C192.099 186.458 191.922 185.365 191.922 184.188C191.922 183.125 192.115 182.109 192.5 181.141C192.896 180.161 193.453 179.292 194.172 178.531C194.88 177.792 195.771 177.193 196.844 176.734C197.927 176.276 199.135 176.047 200.469 176.047C201.927 176.047 203.125 176.224 204.062 176.578C205 176.932 205.776 177.422 206.391 178.047C206.984 178.641 207.417 179.344 207.688 180.156C207.958 180.958 208.094 181.802 208.094 182.688V183.703H197.531C197.531 185.839 197.943 187.464 198.766 188.578C199.589 189.693 200.896 190.25 202.688 190.25C203.667 190.25 204.547 189.984 205.328 189.453C206.109 188.911 206.776 188.229 207.328 187.406L208.516 188.266ZM202.547 182.328C202.547 181.703 202.516 181.062 202.453 180.406C202.391 179.75 202.281 179.214 202.125 178.797C201.948 178.307 201.703 177.938 201.391 177.688C201.089 177.438 200.703 177.312 200.234 177.312C199.432 177.312 198.792 177.719 198.312 178.531C197.833 179.344 197.573 180.63 197.531 182.391L202.547 182.328ZM236.969 177.641C236.49 177.714 236.047 177.875 235.641 178.125C235.234 178.365 234.891 178.818 234.609 179.484C233.88 181.266 233.297 182.703 232.859 183.797C232.422 184.891 231.807 186.469 231.016 188.531C230.849 188.958 230.646 189.547 230.406 190.297C230.177 191.047 229.995 191.661 229.859 192.141H226.812L222.875 181.516L219.188 192.141H216.172C215.12 189.297 214.292 187.094 213.688 185.531C213.083 183.958 212.276 181.885 211.266 179.312C211.078 178.823 210.755 178.438 210.297 178.156C209.849 177.875 209.385 177.703 208.906 177.641V176.5H218.5V177.641C218.146 177.672 217.724 177.755 217.234 177.891C216.745 178.026 216.5 178.208 216.5 178.438C216.5 178.542 216.51 178.635 216.531 178.719C216.562 178.792 216.609 178.932 216.672 179.141C216.953 179.953 217.339 181.005 217.828 182.297C218.318 183.578 218.891 185.073 219.547 186.781L223.016 176.5H226.109L230.062 187.125C230.667 185.521 231.13 184.26 231.453 183.344C231.786 182.417 232.203 181.224 232.703 179.766C232.776 179.547 232.818 179.354 232.828 179.188C232.849 179.01 232.854 178.896 232.844 178.844C232.844 178.656 232.75 178.49 232.562 178.344C232.375 178.188 232.151 178.062 231.891 177.969C231.63 177.875 231.375 177.802 231.125 177.75C230.885 177.698 230.682 177.661 230.516 177.641V176.5H236.969V177.641Z" fill="#2B5797"/>
</svg>
