<svg width="293" height="80" viewBox="0 0 293 80" fill="none" xmlns="http://www.w3.org/2000/svg">
<path d="M38.4541 7.5C48.4541 -2.5 58.4541 -2.5 68.4541 7.5C78.4541 17.5 78.4541 27.5 68.4541 37.5C58.4541 47.5 48.4541 47.5 38.4541 37.5C28.4541 27.5 28.4541 17.5 38.4541 7.5Z" fill="#FF7D9C"/>
<path d="M51.9371 11.0384C63.6108 14.6057 70.5052 22.8802 66.9379 34.5539C63.3707 46.2275 55.0962 53.1219 38.6672 51.0998C22.2383 49.0777 15.3439 40.8032 16.748 22.4721C20.3152 10.7984 40.2634 7.47122 51.9371 11.0384Z" fill="#FF99B4"/>
<path d="M67.7869 42.1459C68.0017 54.3505 62.2626 63.4644 50.058 63.6792C37.8533 63.8939 28.7394 58.1549 25.5857 41.9051C22.4321 25.6554 28.1711 16.5415 46.0389 12.2122C58.2436 11.9975 67.5722 29.9412 67.7869 42.1459Z" fill="#FF99B4"/>
<path d="M43.0998 66.8328C31.5588 70.8085 21.1175 68.1667 17.1418 56.6258C13.1661 45.0848 15.8079 34.6435 30.2878 26.6227C44.7677 18.602 55.209 21.2437 64.8478 36.8992C68.8235 48.4402 54.6407 62.8572 43.0998 66.8328Z" fill="#FF99B4"/>
<path d="M11.9926 50.9828C4.64513 41.2353 3.93108 30.4886 13.6786 23.1412C23.4262 15.7937 34.1728 15.0797 46.2756 26.3723C58.3783 37.665 59.0924 48.4116 47.1817 62.4164C37.4341 69.7639 19.34 60.7304 11.9926 50.9828Z" fill="#FF99B4"/>
<path d="M38.4541 47.5C43.9769 47.5 48.4541 43.0228 48.4541 37.5C48.4541 31.9772 43.9769 27.5 38.4541 27.5C32.9313 27.5 28.4541 31.9772 28.4541 37.5C28.4541 43.0228 32.9313 47.5 38.4541 47.5Z" fill="#FFB6C1"/>
<path d="M117.578 56H103.797C103.422 55.5781 102.938 55.0312 102.344 54.3594C101.75 53.6719 101.242 53.0625 100.82 52.5312C99.1641 54.0625 97.5078 55.1641 95.8516 55.8359C94.2109 56.4922 92.4609 56.8203 90.6016 56.8203C87.6797 56.8203 85.2812 56.0312 83.4062 54.4531C81.5469 52.875 80.6172 50.8203 80.6172 48.2891C80.6172 47.0234 80.7812 45.9375 81.1094 45.0312C81.4531 44.125 82 43.2188 82.75 42.3125C83.4688 41.4375 84.3594 40.6562 85.4219 39.9688C86.4844 39.2656 87.6797 38.6094 89.0078 38C87.6016 36.2188 86.6172 34.7031 86.0547 33.4531C85.5078 32.2031 85.2344 30.9219 85.2344 29.6094C85.2344 27.3594 86.1719 25.5078 88.0469 24.0547C89.9219 22.5859 92.1641 21.8516 94.7734 21.8516C97.2109 21.8516 99.1875 22.4297 100.703 23.5859C102.219 24.7422 102.977 26.2734 102.977 28.1797C102.977 29.8359 102.523 31.3203 101.617 32.6328C100.711 33.9297 99.2031 35.2031 97.0938 36.4531C98.7969 38.6406 100.109 40.2891 101.031 41.3984C101.969 42.4922 103.211 43.9375 104.758 45.7344C105.742 44.2812 106.477 42.9453 106.961 41.7266C107.461 40.5078 107.711 39.4844 107.711 38.6562C107.711 38.1875 107.359 37.8125 106.656 37.5312C105.969 37.2344 104.992 36.9609 103.727 36.7109V34.9297H116.828V36.7109C115.406 36.8359 114.352 37.0078 113.664 37.2266C112.992 37.4453 112.328 37.8906 111.672 38.5625C111.391 38.8438 111.039 39.3438 110.617 40.0625C110.211 40.7656 109.82 41.4453 109.445 42.1016C108.992 42.8984 108.508 43.7344 107.992 44.6094C107.477 45.4844 106.852 46.3984 106.117 47.3516C107.555 49.0391 108.734 50.3047 109.656 51.1484C110.594 51.9766 111.359 52.5469 111.953 52.8594C112.625 53.2188 113.477 53.5078 114.508 53.7266C115.539 53.9297 116.562 54.0625 117.578 54.125V56ZM99.4141 28.5312C99.4141 27.1562 99.0781 26.0781 98.4062 25.2969C97.75 24.5 96.8906 24.1016 95.8281 24.1016C94.8125 24.1016 93.9922 24.4297 93.3672 25.0859C92.7422 25.7266 92.4297 26.5703 92.4297 27.6172C92.4297 28.5234 92.7188 29.5547 93.2969 30.7109C93.875 31.8516 94.7656 33.2422 95.9688 34.8828C97.1562 34.0547 98.0234 33.0938 98.5703 32C99.1328 30.8906 99.4141 29.7344 99.4141 28.5312ZM99.5781 51.0078C98.2656 49.4297 96.7344 47.5938 94.9844 45.5C93.25 43.4062 91.6328 41.4141 90.1328 39.5234C89.3047 40.3359 88.7031 41.2891 88.3281 42.3828C87.9688 43.4609 87.7891 44.5469 87.7891 45.6406C87.7891 47.7188 88.4531 49.4141 89.7812 50.7266C91.1094 52.0391 92.7969 52.6953 94.8438 52.6953C95.7969 52.6953 96.625 52.5781 97.3281 52.3438C98.0312 52.0938 98.7812 51.6484 99.5781 51.0078Z" fill="#FF7D9C"/>
<path d="M146.531 32.2578H144.727C144.242 30.8359 143.461 29.3125 142.383 27.6875C141.32 26.0625 140.336 25.1875 139.43 25.0625C138.93 25 138.312 24.9453 137.578 24.8984C136.844 24.8516 136.211 24.8281 135.68 24.8281H134.578V50.9141C134.578 51.4766 134.68 51.9766 134.883 52.4141C135.086 52.8359 135.484 53.1719 136.078 53.4219C136.438 53.5625 136.992 53.7109 137.742 53.8672C138.508 54.0078 139.156 54.1094 139.688 54.1719V56H121.148V54.1719C121.602 54.125 122.234 54.0625 123.047 53.9844C123.875 53.8906 124.438 53.7812 124.734 53.6562C125.344 53.4062 125.75 53.0703 125.953 52.6484C126.156 52.2266 126.258 51.7266 126.258 51.1484V24.8281H125.156C124.625 24.8281 123.992 24.8516 123.258 24.8984C122.523 24.9453 121.906 25 121.406 25.0625C120.5 25.1875 119.508 26.0625 118.43 27.6875C117.367 29.3125 116.594 30.8359 116.109 32.2578H114.305V22.7422H146.531V32.2578ZM178.688 56H164.578V54.2891C164.891 54.2578 165.258 54.2188 165.68 54.1719C166.102 54.125 166.414 54.0469 166.617 53.9375C166.945 53.7656 167.172 53.5156 167.297 53.1875C167.438 52.8594 167.508 52.375 167.508 51.7344V40.7656C167.508 39.1562 167.203 37.9531 166.594 37.1562C166 36.3594 165.148 35.9609 164.039 35.9609C163.414 35.9609 162.828 36.0547 162.281 36.2422C161.75 36.4297 161.227 36.7031 160.711 37.0625C160.258 37.375 159.891 37.6953 159.609 38.0234C159.344 38.3516 159.117 38.6406 158.93 38.8906V51.4766C158.93 52.0547 159 52.5156 159.141 52.8594C159.281 53.1875 159.547 53.4609 159.938 53.6797C160.172 53.8203 160.477 53.9453 160.852 54.0547C161.242 54.1641 161.617 54.2422 161.977 54.2891V56H147.727V54.2891C148.133 54.2578 148.523 54.2188 148.898 54.1719C149.289 54.125 149.633 54.0469 149.93 53.9375C150.43 53.75 150.766 53.4844 150.938 53.1406C151.125 52.7812 151.219 52.3125 151.219 51.7344V25.6016C151.219 25.1016 151.102 24.5703 150.867 24.0078C150.633 23.4453 150.305 23.0234 149.883 22.7422C149.57 22.5391 149.117 22.3828 148.523 22.2734C147.93 22.1484 147.398 22.0703 146.93 22.0391V20.3281L158.578 19.7188L158.93 20.0938V36.2188H159.023C159.617 35.6875 160.148 35.2109 160.617 34.7891C161.102 34.3516 161.688 33.9141 162.375 33.4766C162.953 33.1016 163.703 32.7812 164.625 32.5156C165.562 32.25 166.57 32.1172 167.648 32.1172C170.18 32.1172 172.078 32.8438 173.344 34.2969C174.625 35.75 175.266 37.6641 175.266 40.0391V51.5234C175.266 52.1016 175.352 52.5625 175.523 52.9062C175.695 53.25 176.016 53.5234 176.484 53.7266C176.766 53.8516 177.078 53.9609 177.422 54.0547C177.766 54.1484 178.188 54.2266 178.688 54.2891V56ZM204.188 37.0391C204.188 38.2266 203.82 39.2734 203.086 40.1797C202.352 41.0703 201.383 41.5156 200.18 41.5156C199.039 41.5156 198.07 41.2266 197.273 40.6484C196.492 40.0703 196.102 39.2188 196.102 38.0938C196.102 37.5469 196.141 37.125 196.219 36.8281C196.297 36.5156 196.367 36.2266 196.43 35.9609C195.711 35.9922 194.953 36.2422 194.156 36.7109C193.359 37.1797 192.656 37.8047 192.047 38.5859V51.4531C192.047 52 192.133 52.4531 192.305 52.8125C192.477 53.1719 192.766 53.4531 193.172 53.6562C193.516 53.8281 194.07 53.9766 194.836 54.1016C195.617 54.2109 196.18 54.2734 196.523 54.2891V56H180.844V54.2891C181.234 54.2578 181.625 54.2188 182.016 54.1719C182.422 54.1094 182.766 54.0312 183.047 53.9375C183.547 53.7656 183.891 53.5 184.078 53.1406C184.266 52.7812 184.359 52.3125 184.359 51.7344V38.0938C184.359 37.5312 184.227 37.0312 183.961 36.5938C183.695 36.1406 183.375 35.7812 183 35.5156C182.719 35.3281 182.359 35.1719 181.922 35.0469C181.5 34.9219 181.031 34.8359 180.516 34.7891V33.0781L191.695 32.4688L192.047 32.8203V36.2188H192.141C193.219 34.9688 194.359 33.9922 195.562 33.2891C196.781 32.5703 198.047 32.2109 199.359 32.2109C200.812 32.2109 201.977 32.6641 202.852 33.5703C203.742 34.4609 204.188 35.6172 204.188 37.0391ZM231.023 50.3984C230.477 51.2891 229.812 52.1328 229.031 52.9297C228.266 53.7109 227.391 54.3828 226.406 54.9453C225.359 55.5391 224.297 55.9844 223.219 56.2812C222.156 56.5938 220.93 56.75 219.539 56.75C217.227 56.75 215.227 56.4219 213.539 55.7656C211.867 55.1094 210.484 54.2266 209.391 53.1172C208.297 52.0078 207.477 50.7031 206.93 49.2031C206.398 47.6875 206.133 46.0469 206.133 44.2812C206.133 42.6875 206.422 41.1641 207 39.7109C207.594 38.2422 208.43 36.9375 209.508 35.7969C210.57 34.6875 211.906 33.7891 213.516 33.1016C215.141 32.4141 216.953 32.0703 218.953 32.0703C221.141 32.0703 222.938 32.3359 224.344 32.8672C225.75 33.3984 226.914 34.1328 227.836 35.0703C228.727 35.9609 229.375 37.0156 229.781 38.2344C230.188 39.4375 230.391 40.7031 230.391 42.0312V43.5547H214.547C214.547 46.7578 215.164 49.1953 216.398 50.8672C217.633 52.5391 219.594 53.375 222.281 53.375C223.75 53.375 225.07 52.9766 226.242 52.1797C227.414 51.3672 228.414 50.3438 229.242 49.1094L231.023 50.3984ZM222.07 41.4922C222.07 40.5547 222.023 39.5938 221.93 38.6094C221.836 37.625 221.672 36.8203 221.438 36.1953C221.172 35.4609 220.805 34.9062 220.336 34.5312C219.883 34.1562 219.305 33.9688 218.602 33.9688C217.398 33.9688 216.438 34.5781 215.719 35.7969C215 37.0156 214.609 38.9453 214.547 41.5859L222.07 41.4922ZM260.086 55.5078C259.398 55.8047 258.586 56.0781 257.648 56.3281C256.711 56.5781 255.719 56.7031 254.672 56.7031C252.75 56.7031 251.336 56.4219 250.43 55.8594C249.523 55.2812 248.906 54.4609 248.578 53.3984H248.438C247.906 53.9297 247.391 54.3828 246.891 54.7578C246.406 55.1328 245.883 55.4531 245.32 55.7188C244.586 56.0625 243.875 56.3125 243.188 56.4688C242.516 56.6406 241.57 56.7266 240.352 56.7266C238.539 56.7266 236.992 56.1953 235.711 55.1328C234.43 54.0547 233.789 52.6328 233.789 50.8672C233.789 49.8516 233.93 48.9922 234.211 48.2891C234.492 47.5703 234.891 46.9375 235.406 46.3906C235.875 45.8906 236.414 45.4766 237.023 45.1484C237.648 44.8203 238.328 44.5156 239.062 44.2344C240.469 43.7188 242.156 43.1875 244.125 42.6406C246.094 42.0781 247.531 41.5781 248.438 41.1406V38.8906C248.438 38.5 248.406 37.9844 248.344 37.3438C248.281 36.7031 248.148 36.1641 247.945 35.7266C247.727 35.2266 247.383 34.8047 246.914 34.4609C246.445 34.1172 245.828 33.9453 245.062 33.9453C244.375 33.9453 243.797 34.0469 243.328 34.25C242.875 34.4375 242.508 34.6328 242.227 34.8359C242.273 35.1484 242.406 35.625 242.625 36.2656C242.844 36.9062 242.953 37.5234 242.953 38.1172C242.953 38.3828 242.883 38.7188 242.742 39.125C242.602 39.5156 242.398 39.8281 242.133 40.0625C241.773 40.375 241.367 40.6172 240.914 40.7891C240.477 40.9609 239.797 41.0469 238.875 41.0469C237.562 41.0469 236.57 40.7344 235.898 40.1094C235.227 39.4688 234.891 38.6406 234.891 37.625C234.891 36.75 235.234 35.9688 235.922 35.2812C236.625 34.5781 237.477 34 238.477 33.5469C239.461 33.0781 240.594 32.7188 241.875 32.4688C243.156 32.2031 244.344 32.0703 245.438 32.0703C246.953 32.0703 248.344 32.1641 249.609 32.3516C250.875 32.5234 252.016 32.8906 253.031 33.4531C254 34 254.766 34.7969 255.328 35.8438C255.906 36.875 256.195 38.2266 256.195 39.8984C256.195 41.6641 256.156 43.7578 256.078 46.1797C256.016 48.6016 255.984 50.1953 255.984 50.9609C255.984 51.6641 256.086 52.2188 256.289 52.625C256.508 53.0312 256.836 53.3359 257.273 53.5391C257.539 53.6641 257.953 53.7422 258.516 53.7734C259.094 53.7891 259.617 53.7969 260.086 53.7969V55.5078ZM248.438 43.2969C247.562 43.5938 246.695 43.9375 245.836 44.3281C244.977 44.7031 244.273 45.1016 243.727 45.5234C243.148 45.9609 242.695 46.5234 242.367 47.2109C242.039 47.8828 241.875 48.6797 241.875 49.6016C241.875 50.8203 242.148 51.7031 242.695 52.25C243.258 52.7969 243.945 53.0703 244.758 53.0703C245.617 53.0703 246.32 52.8984 246.867 52.5547C247.43 52.1953 247.922 51.7578 248.344 51.2422L248.438 43.2969ZM292.195 55.5078L280.641 56.1875L280.289 55.8594V53.7031L280.125 53.6562C279.359 54.4844 278.32 55.2109 277.008 55.8359C275.711 56.4453 274.398 56.75 273.07 56.75C269.914 56.75 267.312 55.5781 265.266 53.2344C263.219 50.8906 262.195 47.8594 262.195 44.1406C262.195 40.8438 263.336 38.0156 265.617 35.6562C267.914 33.2969 270.688 32.1172 273.938 32.1172C275.219 32.1172 276.422 32.2656 277.547 32.5625C278.672 32.8438 279.57 33.1797 280.242 33.5703V25.9062C280.242 25.3281 280.125 24.7891 279.891 24.2891C279.656 23.7734 279.344 23.375 278.953 23.0938C278.469 22.75 277.859 22.5078 277.125 22.3672C276.406 22.2109 275.68 22.1016 274.945 22.0391V20.3281L287.602 19.7188L287.953 20.0938V50.8203C287.953 51.4141 288.047 51.9141 288.234 52.3203C288.438 52.7266 288.758 53.0469 289.195 53.2812C289.523 53.4531 290 53.5781 290.625 53.6562C291.266 53.7344 291.789 53.7812 292.195 53.7969V55.5078ZM280.242 51.3359V38.0938C280.133 37.7344 279.977 37.3359 279.773 36.8984C279.586 36.4609 279.32 36.0469 278.977 35.6562C278.664 35.3281 278.242 35.0391 277.711 34.7891C277.195 34.5391 276.609 34.4141 275.953 34.4141C274.391 34.4141 273.109 35.2969 272.109 37.0625C271.109 38.8281 270.609 41.3203 270.609 44.5391C270.609 45.8047 270.695 46.9453 270.867 47.9609C271.055 48.9609 271.375 49.875 271.828 50.7031C272.281 51.5312 272.859 52.1797 273.562 52.6484C274.281 53.1172 275.141 53.3516 276.141 53.3516C277.094 53.3516 277.883 53.1719 278.508 52.8125C279.133 52.4375 279.711 51.9453 280.242 51.3359Z" fill="#2C3E50"/>
</svg>
