<svg width="189" height="62" viewBox="0 0 189 62" fill="none" xmlns="http://www.w3.org/2000/svg">
<path d="M33.3335 1.625L53.3335 31.625C53.3335 51.625 46.6668 61.625 33.3335 61.625C20.0002 61.625 13.3335 51.625 13.3335 31.625L33.3335 1.625Z" fill="url(#paint0_linear_699_751)"/>
<path d="M13.3333 31.625C0 21.625 -3.33333 11.625 3.33333 1.625C16.6667 -1.70833 20 8.29167 13.3333 31.625Z" fill="url(#paint1_linear_699_751)"/>
<path d="M53.3333 31.625C66.6667 21.625 70 11.625 63.3333 1.625C50 -1.70833 46.6667 8.29167 53.3333 31.625Z" fill="url(#paint2_linear_699_751)"/>
<path d="M87.9883 14.4531H79.5977V18.8945H89.1602V22H76.0703V4.72656H88.7383V7.78516H79.5977V11.4531H87.9883V14.4531ZM98.2422 19.5039C99.0938 19.5039 99.7852 19.4102 100.316 19.2227C101.324 18.8633 101.828 18.1953 101.828 17.2188C101.828 16.6484 101.578 16.207 101.078 15.8945C100.578 15.5898 99.793 15.3203 98.7227 15.0859L96.8945 14.6758C95.0977 14.2695 93.8555 13.8281 93.168 13.3516C92.0039 12.5547 91.4219 11.3086 91.4219 9.61328C91.4219 8.06641 91.9844 6.78125 93.1094 5.75781C94.2344 4.73438 95.8867 4.22266 98.0664 4.22266C99.8867 4.22266 101.438 4.70703 102.719 5.67578C104.008 6.63672 104.684 8.03516 104.746 9.87109H101.277C101.215 8.83203 100.762 8.09375 99.918 7.65625C99.3555 7.36719 98.6562 7.22266 97.8203 7.22266C96.8906 7.22266 96.1484 7.41016 95.5938 7.78516C95.0391 8.16016 94.7617 8.68359 94.7617 9.35547C94.7617 9.97266 95.0352 10.4336 95.582 10.7383C95.9336 10.9414 96.6836 11.1797 97.832 11.4531L100.809 12.168C102.113 12.4805 103.098 12.8984 103.762 13.4219C104.793 14.2344 105.309 15.4102 105.309 16.9492C105.309 18.5273 104.703 19.8398 103.492 20.8867C102.289 21.9258 100.586 22.4453 98.3828 22.4453C96.1328 22.4453 94.3633 21.9336 93.0742 20.9102C91.7852 19.8789 91.1406 18.4648 91.1406 16.668H94.5859C94.6953 17.457 94.9102 18.0469 95.2305 18.4375C95.8164 19.1484 96.8203 19.5039 98.2422 19.5039ZM114.25 19.5039C115.102 19.5039 115.793 19.4102 116.324 19.2227C117.332 18.8633 117.836 18.1953 117.836 17.2188C117.836 16.6484 117.586 16.207 117.086 15.8945C116.586 15.5898 115.801 15.3203 114.73 15.0859L112.902 14.6758C111.105 14.2695 109.863 13.8281 109.176 13.3516C108.012 12.5547 107.43 11.3086 107.43 9.61328C107.43 8.06641 107.992 6.78125 109.117 5.75781C110.242 4.73438 111.895 4.22266 114.074 4.22266C115.895 4.22266 117.445 4.70703 118.727 5.67578C120.016 6.63672 120.691 8.03516 120.754 9.87109H117.285C117.223 8.83203 116.77 8.09375 115.926 7.65625C115.363 7.36719 114.664 7.22266 113.828 7.22266C112.898 7.22266 112.156 7.41016 111.602 7.78516C111.047 8.16016 110.77 8.68359 110.77 9.35547C110.77 9.97266 111.043 10.4336 111.59 10.7383C111.941 10.9414 112.691 11.1797 113.84 11.4531L116.816 12.168C118.121 12.4805 119.105 12.8984 119.77 13.4219C120.801 14.2344 121.316 15.4102 121.316 16.9492C121.316 18.5273 120.711 19.8398 119.5 20.8867C118.297 21.9258 116.594 22.4453 114.391 22.4453C112.141 22.4453 110.371 21.9336 109.082 20.9102C107.793 19.8789 107.148 18.4648 107.148 16.668H110.594C110.703 17.457 110.918 18.0469 111.238 18.4375C111.824 19.1484 112.828 19.5039 114.25 19.5039ZM136.012 14.4531H127.621V18.8945H137.184V22H124.094V4.72656H136.762V7.78516H127.621V11.4531H136.012V14.4531ZM153.965 22H150.355L143.301 9.73047V22H139.938V4.72656H143.723L150.602 16.7852V4.72656H153.965V22ZM169.527 20.7109C168.238 21.8906 166.59 22.4805 164.582 22.4805C162.098 22.4805 160.145 21.6836 158.723 20.0898C157.301 18.4883 156.59 16.293 156.59 13.5039C156.59 10.4883 157.398 8.16406 159.016 6.53125C160.422 5.10938 162.211 4.39844 164.383 4.39844C167.289 4.39844 169.414 5.35156 170.758 7.25781C171.5 8.32812 171.898 9.40234 171.953 10.4805H168.344C168.109 9.65234 167.809 9.02734 167.441 8.60547C166.785 7.85547 165.812 7.48047 164.523 7.48047C163.211 7.48047 162.176 8.01172 161.418 9.07422C160.66 10.1289 160.281 11.625 160.281 13.5625C160.281 15.5 160.68 16.9531 161.477 17.9219C162.281 18.8828 163.301 19.3633 164.535 19.3633C165.801 19.3633 166.766 18.9492 167.43 18.1211C167.797 17.6758 168.102 17.0078 168.344 16.1172H171.918C171.605 18 170.809 19.5312 169.527 20.7109ZM186.707 14.4531H178.316V18.8945H187.879V22H174.789V4.72656H187.457V7.78516H178.316V11.4531H186.707V14.4531Z" fill="#2E7D32"/>
<path d="M131.234 29.9844C131.729 29.6354 132.07 29.3516 132.258 29.1328C132.565 28.7786 132.719 28.3854 132.719 27.9531C132.719 27.6146 132.607 27.3229 132.383 27.0781C132.159 26.8333 131.857 26.7109 131.477 26.7109C130.898 26.7109 130.497 26.9036 130.273 27.2891C130.159 27.487 130.102 27.7031 130.102 27.9375C130.102 28.2552 130.188 28.5599 130.359 28.8516C130.536 29.1432 130.828 29.5208 131.234 29.9844ZM130.875 36.0312C131.453 36.0312 131.951 35.8984 132.367 35.6328C132.784 35.3672 133.104 35.0703 133.328 34.7422L130.734 31.5781C130 32.0677 129.521 32.4427 129.297 32.7031C128.953 33.0938 128.781 33.5703 128.781 34.1328C128.781 34.7422 129.003 35.2109 129.445 35.5391C129.893 35.8672 130.37 36.0312 130.875 36.0312ZM129.953 30.6172C129.469 30.0599 129.143 29.5911 128.977 29.2109C128.815 28.8307 128.734 28.4635 128.734 28.1094C128.734 27.3698 128.984 26.7578 129.484 26.2734C129.984 25.7839 130.654 25.5391 131.492 25.5391C132.289 25.5391 132.911 25.7656 133.359 26.2188C133.807 26.6719 134.031 27.2135 134.031 27.8438C134.031 28.5781 133.799 29.2214 133.336 29.7734C133.065 30.0964 132.612 30.4688 131.977 30.8906L134.07 33.3906C134.211 32.974 134.307 32.6641 134.359 32.4609C134.417 32.2526 134.474 31.9635 134.531 31.5938H135.867C135.779 32.3281 135.602 33.0339 135.336 33.7109C135.07 34.3828 134.938 34.6536 134.938 34.5234L136.977 37H135.164L134.086 35.6875C133.659 36.151 133.268 36.4896 132.914 36.7031C132.294 37.0781 131.581 37.2656 130.773 37.2656C129.581 37.2656 128.714 36.9453 128.172 36.3047C127.63 35.6589 127.359 34.9323 127.359 34.125C127.359 33.2552 127.622 32.5286 128.148 31.9453C128.471 31.5911 129.073 31.1484 129.953 30.6172Z" fill="#4CAF50"/>
<path d="M87.9961 48.4531H79.6055V52.8945H89.168V56H76.0781V38.7266H88.7461V41.7852H79.6055V45.4531H87.9961V48.4531ZM102.094 52.4492H95.7305L94.5352 56H90.7617L96.9258 38.7266H101.004L107.121 56H103.207L102.094 52.4492ZM101.086 49.4727L98.9297 42.6758L96.7031 49.4727H101.086ZM116.66 49.2266H112.934V56H109.406V38.7266H117.879C119.09 38.75 120.02 38.8984 120.668 39.1719C121.324 39.4453 121.879 39.8477 122.332 40.3789C122.707 40.8164 123.004 41.3008 123.223 41.832C123.441 42.3633 123.551 42.9688 123.551 43.6484C123.551 44.4688 123.344 45.2773 122.93 46.0742C122.516 46.8633 121.832 47.4219 120.879 47.75C121.676 48.0703 122.238 48.5273 122.566 49.1211C122.902 49.707 123.07 50.6055 123.07 51.8164V52.9766C123.07 53.7656 123.102 54.3008 123.164 54.582C123.258 55.0273 123.477 55.3555 123.82 55.5664V56H119.848C119.738 55.6172 119.66 55.3086 119.613 55.0742C119.52 54.5898 119.469 54.0938 119.461 53.5859L119.438 51.9805C119.422 50.8789 119.219 50.1445 118.828 49.7773C118.445 49.4102 117.723 49.2266 116.66 49.2266ZM118.852 46.0859C119.57 45.7578 119.93 45.1094 119.93 44.1406C119.93 43.0938 119.582 42.3906 118.887 42.0312C118.496 41.8281 117.91 41.7266 117.129 41.7266H112.934V46.3672H117.023C117.836 46.3672 118.445 46.2734 118.852 46.0859ZM139.219 38.7266V41.7852H134.051V56H130.418V41.7852H125.227V38.7266H139.219ZM151.641 56V48.2891H144.891V56H141.316V38.7266H144.891V45.3125H151.641V38.7266H155.227V56H151.641Z" fill="#2E7D32"/>
<defs>
<linearGradient id="paint0_linear_699_751" x1="13.3335" y1="1.625" x2="5551.8" y2="3693.93" gradientUnits="userSpaceOnUse">
<stop stop-color="#81C784"/>
<stop offset="1" stop-color="#4CAF50"/>
</linearGradient>
<linearGradient id="paint1_linear_699_751" x1="0" y1="1" x2="2571.67" y2="1400.55" gradientUnits="userSpaceOnUse">
<stop stop-color="#4CAF50"/>
<stop offset="1" stop-color="#2E7D32"/>
</linearGradient>
<linearGradient id="paint2_linear_699_751" x1="50" y1="1" x2="2621.67" y2="1400.55" gradientUnits="userSpaceOnUse">
<stop stop-color="#4CAF50"/>
<stop offset="1" stop-color="#2E7D32"/>
</linearGradient>
</defs>
</svg>
