<svg width="217" height="78" viewBox="0 0 217 78" fill="none" xmlns="http://www.w3.org/2000/svg">
<path d="M31 77C11 77 1 62 1 47C1 32 16 22 31 22C46 22 61 32 61 47C61 62 51 77 31 77Z" fill="#FFB6C1" stroke="#FF69B4" stroke-width="2"/>
<path d="M71 72C56 72 46 62 46 52C46 42 56 32 71 32C86 32 96 42 96 52C96 62 86 72 71 72Z" fill="#FFA07A" stroke="#FF8C69" stroke-width="2"/>
<path d="M21 37L31 52H11L21 37Z" fill="white" stroke="#FF69B4" stroke-width="1.5"/>
<path d="M16 47H26H16Z" fill="black"/>
<path d="M16 47H26" stroke="#FF69B4"/>
<path d="M66 42C61 42 56 47 56 52C56 57 66 62 71 62C76 62 86 57 86 52C86 47 81 42 76 42" fill="white"/>
<path d="M66 42C61 42 56 47 56 52C56 57 66 62 71 62C76 62 86 57 86 52C86 47 81 42 76 42" stroke="#FF8C69" stroke-width="1.5"/>
<path d="M68 40C70 38 72 38 74 40" stroke="#4CAF50" stroke-width="1.5"/>
<path d="M119.766 11.0469H108.219V16.3438H118.328V20.3438H108.219V30H103.438V7H119.766V11.0469ZM137.219 25C137.104 26.0104 136.578 27.0365 135.641 28.0781C134.182 29.7344 132.141 30.5625 129.516 30.5625C127.349 30.5625 125.438 29.8646 123.781 28.4688C122.125 27.0729 121.297 24.8021 121.297 21.6562C121.297 18.7083 122.042 16.4479 123.531 14.875C125.031 13.3021 126.974 12.5156 129.359 12.5156C130.776 12.5156 132.052 12.7812 133.188 13.3125C134.323 13.8438 135.26 14.6823 136 15.8281C136.667 16.8385 137.099 18.0104 137.297 19.3438C137.411 20.125 137.458 21.25 137.438 22.7188H125.781C125.844 24.4271 126.38 25.625 127.391 26.3125C128.005 26.7396 128.745 26.9531 129.609 26.9531C130.526 26.9531 131.271 26.6927 131.844 26.1719C132.156 25.8906 132.432 25.5 132.672 25H137.219ZM132.812 19.7812C132.74 18.6042 132.38 17.7135 131.734 17.1094C131.099 16.4948 130.307 16.1875 129.359 16.1875C128.328 16.1875 127.526 16.5104 126.953 17.1562C126.391 17.8021 126.036 18.6771 125.891 19.7812H132.812ZM141.094 14.8125C142.271 13.3125 144.292 12.5625 147.156 12.5625C149.021 12.5625 150.677 12.9323 152.125 13.6719C153.573 14.4115 154.297 15.8073 154.297 17.8594V25.6719C154.297 26.2135 154.307 26.8698 154.328 27.6406C154.359 28.224 154.448 28.6198 154.594 28.8281C154.74 29.0365 154.958 29.2083 155.25 29.3438V30H150.406C150.271 29.6562 150.177 29.3333 150.125 29.0312C150.073 28.7292 150.031 28.3854 150 28C149.385 28.6667 148.677 29.2344 147.875 29.7031C146.917 30.2552 145.833 30.5312 144.625 30.5312C143.083 30.5312 141.807 30.0938 140.797 29.2188C139.797 28.3333 139.297 27.0833 139.297 25.4688C139.297 23.375 140.104 21.8594 141.719 20.9219C142.604 20.4115 143.906 20.0469 145.625 19.8281L147.141 19.6406C147.964 19.5365 148.552 19.4062 148.906 19.25C149.542 18.9792 149.859 18.5573 149.859 17.9844C149.859 17.2865 149.615 16.8073 149.125 16.5469C148.646 16.276 147.938 16.1406 147 16.1406C145.948 16.1406 145.203 16.401 144.766 16.9219C144.453 17.3073 144.245 17.8281 144.141 18.4844H139.844C139.938 16.9948 140.354 15.7708 141.094 14.8125ZM144.406 26.7812C144.823 27.125 145.333 27.2969 145.938 27.2969C146.896 27.2969 147.776 27.0156 148.578 26.4531C149.391 25.8906 149.812 24.8646 149.844 23.375V21.7188C149.562 21.8958 149.276 22.0417 148.984 22.1562C148.703 22.2604 148.312 22.3594 147.812 22.4531L146.812 22.6406C145.875 22.8073 145.203 23.0104 144.797 23.25C144.109 23.6562 143.766 24.2865 143.766 25.1406C143.766 25.901 143.979 26.4479 144.406 26.7812ZM170 13.75C171.333 14.6042 172.099 16.0729 172.297 18.1562H167.844C167.781 17.5833 167.62 17.1302 167.359 16.7969C166.87 16.1927 166.036 15.8906 164.859 15.8906C163.891 15.8906 163.198 16.0417 162.781 16.3438C162.375 16.6458 162.172 17 162.172 17.4062C162.172 17.9167 162.391 18.2865 162.828 18.5156C163.266 18.7552 164.812 19.1667 167.469 19.75C169.24 20.1667 170.568 20.7969 171.453 21.6406C172.328 22.4948 172.766 23.5625 172.766 24.8438C172.766 26.5312 172.135 27.9115 170.875 28.9844C169.625 30.0469 167.688 30.5781 165.062 30.5781C162.385 30.5781 160.406 30.0156 159.125 28.8906C157.854 27.7552 157.219 26.3125 157.219 24.5625H161.734C161.828 25.3542 162.031 25.9167 162.344 26.25C162.896 26.8438 163.917 27.1406 165.406 27.1406C166.281 27.1406 166.974 27.0104 167.484 26.75C168.005 26.4896 168.266 26.099 168.266 25.5781C168.266 25.0781 168.057 24.6979 167.641 24.4375C167.224 24.1771 165.677 23.7292 163 23.0938C161.073 22.6146 159.714 22.0156 158.922 21.2969C158.13 20.5885 157.734 19.5677 157.734 18.2344C157.734 16.6615 158.349 15.3125 159.578 14.1875C160.818 13.0521 162.557 12.4844 164.797 12.4844C166.922 12.4844 168.656 12.9062 170 13.75ZM183.875 26.8281V30.1562L181.766 30.2344C179.661 30.3073 178.224 29.9427 177.453 29.1406C176.953 28.6302 176.703 27.8438 176.703 26.7812V16.2969H174.328V13.125H176.703V8.375H181.109V13.125H183.875V16.2969H181.109V25.2969C181.109 25.9948 181.198 26.4323 181.375 26.6094C181.552 26.776 182.094 26.8594 183 26.8594C183.135 26.8594 183.276 26.8594 183.422 26.8594C183.578 26.849 183.729 26.8385 183.875 26.8281Z" fill="#FF69B4"/>
<path d="M193.828 30.5625C191.495 30.5625 189.672 29.875 188.359 28.5C187.047 27.125 186.391 25.599 186.391 23.9219C186.391 22.5365 186.734 21.349 187.422 20.3594C188.109 19.3698 189.234 18.3906 190.797 17.4219L191.281 17.125C190.615 16.375 190.099 15.6094 189.734 14.8281C189.37 14.0469 189.188 13.2344 189.188 12.3906C189.188 10.7135 189.75 9.40625 190.875 8.46875C192 7.52083 193.458 7.04688 195.25 7.04688C196.885 7.04688 198.234 7.53125 199.297 8.5C200.37 9.45833 200.906 10.6875 200.906 12.1875C200.906 13.5417 200.583 14.6406 199.938 15.4844C199.302 16.3281 198.365 17.1094 197.125 17.8281L200.391 21.8594C200.766 21.3177 201.052 20.7292 201.25 20.0938C201.458 19.4583 201.568 18.7865 201.578 18.0781H205.531C205.469 19.474 205.135 20.8854 204.531 22.3125C204.198 23.1146 203.656 24 202.906 24.9688L207.094 30H201.688L200.094 28.0469C199.323 28.7656 198.604 29.2969 197.938 29.6406C196.75 30.2552 195.38 30.5625 193.828 30.5625ZM193.578 19.9688C192.464 20.7083 191.724 21.3594 191.359 21.9219C191.005 22.4844 190.828 23.1042 190.828 23.7812C190.828 24.5417 191.135 25.2396 191.75 25.875C192.375 26.5104 193.172 26.8281 194.141 26.8281C194.87 26.8281 195.557 26.6615 196.203 26.3281C196.859 25.9844 197.391 25.6042 197.797 25.1875L193.578 19.9688ZM193.281 12.2344C193.281 12.651 193.427 13.0885 193.719 13.5469C193.906 13.849 194.312 14.3854 194.938 15.1562C195.562 14.7188 196.01 14.349 196.281 14.0469C196.802 13.4844 197.062 12.875 197.062 12.2188C197.062 11.7396 196.906 11.3125 196.594 10.9375C196.281 10.5625 195.807 10.375 195.172 10.375C194.776 10.375 194.406 10.4844 194.062 10.7031C193.542 11.026 193.281 11.5365 193.281 12.2344Z" fill="#FF8C69"/>
<path d="M119.766 41.0469H108.219V46.3438H118.328V50.3438H108.219V60H103.438V37H119.766V41.0469ZM131.203 47.0781C129.411 47.0781 128.208 47.6615 127.594 48.8281C127.25 49.4844 127.078 50.4948 127.078 51.8594V60H122.594V42.9688H126.844V45.9375C127.531 44.8021 128.13 44.026 128.641 43.6094C129.474 42.9115 130.557 42.5625 131.891 42.5625C131.974 42.5625 132.042 42.5677 132.094 42.5781C132.156 42.5781 132.286 42.5833 132.484 42.5938V47.1562C132.203 47.125 131.953 47.1042 131.734 47.0938C131.516 47.0833 131.339 47.0781 131.203 47.0781ZM139.688 42.9688V60H135.172V42.9688H139.688ZM139.688 36.8281V40.9375H135.172V36.8281H139.688ZM158.594 55C158.479 56.0104 157.953 57.0365 157.016 58.0781C155.557 59.7344 153.516 60.5625 150.891 60.5625C148.724 60.5625 146.812 59.8646 145.156 58.4688C143.5 57.0729 142.672 54.8021 142.672 51.6562C142.672 48.7083 143.417 46.4479 144.906 44.875C146.406 43.3021 148.349 42.5156 150.734 42.5156C152.151 42.5156 153.427 42.7812 154.562 43.3125C155.698 43.8438 156.635 44.6823 157.375 45.8281C158.042 46.8385 158.474 48.0104 158.672 49.3438C158.786 50.125 158.833 51.25 158.812 52.7188H147.156C147.219 54.4271 147.755 55.625 148.766 56.3125C149.38 56.7396 150.12 56.9531 150.984 56.9531C151.901 56.9531 152.646 56.6927 153.219 56.1719C153.531 55.8906 153.807 55.5 154.047 55H158.594ZM154.188 49.7812C154.115 48.6042 153.755 47.7135 153.109 47.1094C152.474 46.4948 151.682 46.1875 150.734 46.1875C149.703 46.1875 148.901 46.5104 148.328 47.1562C147.766 47.8021 147.411 48.6771 147.266 49.7812H154.188ZM169.844 46.2656C168.333 46.2656 167.297 46.9062 166.734 48.1875C166.443 48.8646 166.297 49.7292 166.297 50.7812V60H161.859V43H166.156V45.4844C166.729 44.6094 167.271 43.9792 167.781 43.5938C168.698 42.9062 169.859 42.5625 171.266 42.5625C173.026 42.5625 174.464 43.026 175.578 43.9531C176.703 44.8698 177.266 46.3958 177.266 48.5312V60H172.703V49.6406C172.703 48.7448 172.583 48.0573 172.344 47.5781C171.906 46.7031 171.073 46.2656 169.844 46.2656ZM196.891 37V60H192.562V57.6406C191.927 58.651 191.203 59.3854 190.391 59.8438C189.578 60.3021 188.568 60.5312 187.359 60.5312C185.37 60.5312 183.693 59.7292 182.328 58.125C180.974 56.5104 180.297 54.4427 180.297 51.9219C180.297 49.0156 180.964 46.7292 182.297 45.0625C183.641 43.3958 185.432 42.5625 187.672 42.5625C188.703 42.5625 189.62 42.7917 190.422 43.25C191.224 43.6979 191.875 44.3229 192.375 45.125V37H196.891ZM184.891 51.5938C184.891 53.1667 185.203 54.4219 185.828 55.3594C186.443 56.3073 187.38 56.7812 188.641 56.7812C189.901 56.7812 190.859 56.3125 191.516 55.375C192.172 54.4375 192.5 53.224 192.5 51.7344C192.5 49.651 191.974 48.1615 190.922 47.2656C190.276 46.724 189.526 46.4531 188.672 46.4531C187.37 46.4531 186.411 46.9479 185.797 47.9375C185.193 48.9167 184.891 50.1354 184.891 51.5938ZM212.688 43.75C214.021 44.6042 214.786 46.0729 214.984 48.1562H210.531C210.469 47.5833 210.307 47.1302 210.047 46.7969C209.557 46.1927 208.724 45.8906 207.547 45.8906C206.578 45.8906 205.885 46.0417 205.469 46.3438C205.062 46.6458 204.859 47 204.859 47.4062C204.859 47.9167 205.078 48.2865 205.516 48.5156C205.953 48.7552 207.5 49.1667 210.156 49.75C211.927 50.1667 213.255 50.7969 214.141 51.6406C215.016 52.4948 215.453 53.5625 215.453 54.8438C215.453 56.5312 214.823 57.9115 213.562 58.9844C212.312 60.0469 210.375 60.5781 207.75 60.5781C205.073 60.5781 203.094 60.0156 201.812 58.8906C200.542 57.7552 199.906 56.3125 199.906 54.5625H204.422C204.516 55.3542 204.719 55.9167 205.031 56.25C205.583 56.8438 206.604 57.1406 208.094 57.1406C208.969 57.1406 209.661 57.0104 210.172 56.75C210.693 56.4896 210.953 56.099 210.953 55.5781C210.953 55.0781 210.745 54.6979 210.328 54.4375C209.911 54.1771 208.365 53.7292 205.688 53.0938C203.76 52.6146 202.401 52.0156 201.609 51.2969C200.818 50.5885 200.422 49.5677 200.422 48.2344C200.422 46.6615 201.036 45.3125 202.266 44.1875C203.505 43.0521 205.245 42.4844 207.484 42.4844C209.609 42.4844 211.344 42.9062 212.688 43.75Z" fill="#FF8C69"/>
</svg>
