<svg width="107" height="82" viewBox="0 0 107 82" fill="none" xmlns="http://www.w3.org/2000/svg">
<path d="M28 2H78V52H28" stroke="#6D28D9" stroke-width="3" stroke-linecap="round"/>
<path d="M38 27H68" stroke="#6D28D9" stroke-opacity="0.5" stroke-width="3" stroke-linecap="round"/>
<path d="M53 30C54.6569 30 56 28.6569 56 27C56 25.3431 54.6569 24 53 24C51.3431 24 50 25.3431 50 27C50 28.6569 51.3431 30 53 30Z" fill="#6D28D9"/>
<path d="M2.05824 62.4545H4.16051L9.10369 74.5284H9.27415L14.2173 62.4545H16.3196V77H14.6719V65.9489H14.5298L9.98438 77H8.39347L3.84801 65.9489H3.70597V77H2.05824V62.4545ZM19.8512 77V62.4545H28.6296V64.017H21.6126V68.9318H28.1751V70.4943H21.6126V75.4375H28.7433V77H19.8512ZM41.7475 67C41.5913 66.5218 41.3853 66.0933 41.1296 65.7145C40.8787 65.331 40.578 65.0043 40.2276 64.7344C39.882 64.4645 39.489 64.2585 39.0487 64.1165C38.6083 63.9744 38.1254 63.9034 37.5998 63.9034C36.738 63.9034 35.9544 64.1259 35.2489 64.571C34.5434 65.0161 33.9824 65.6719 33.5657 66.5384C33.149 67.4048 32.9407 68.4678 32.9407 69.7273C32.9407 70.9867 33.1514 72.0497 33.5728 72.9162C33.9942 73.7827 34.5647 74.4384 35.2844 74.8835C36.0041 75.3286 36.8138 75.5511 37.7134 75.5511C38.5468 75.5511 39.2807 75.3736 39.9151 75.0185C40.5543 74.6586 41.0515 74.152 41.4066 73.4986C41.7665 72.8404 41.9464 72.0663 41.9464 71.1761L42.4862 71.2898H38.1112V69.7273H43.6509V71.2898C43.6509 72.4877 43.3952 73.5294 42.8839 74.4148C42.3772 75.3002 41.6765 75.9867 40.7816 76.4744C39.8915 76.9574 38.8687 77.1989 37.7134 77.1989C36.4255 77.1989 35.2939 76.8958 34.3185 76.2898C33.3479 75.6837 32.5903 74.822 32.0458 73.7045C31.506 72.5871 31.2362 71.2614 31.2362 69.7273C31.2362 68.5767 31.39 67.5421 31.6978 66.6236C32.0103 65.7003 32.4506 64.9143 33.0188 64.2656C33.587 63.617 34.2594 63.1198 35.0359 62.7741C35.8124 62.4285 36.667 62.2557 37.5998 62.2557C38.3668 62.2557 39.0818 62.3717 39.7447 62.6037C40.4123 62.831 41.0065 63.1553 41.5273 63.5767C42.0529 63.9934 42.4909 64.4929 42.8413 65.0753C43.1916 65.6529 43.4331 66.2945 43.5657 67H41.7475ZM46.815 77H44.9684L50.3093 62.4545H52.1275L57.4684 77H55.6218L51.2752 64.7557H51.1616L46.815 77ZM47.4968 71.3182H54.94V72.8807H47.4968V71.3182ZM59.734 77V62.4545H64.6488C65.7899 62.4545 66.7227 62.6605 67.4471 63.0724C68.1763 63.4796 68.716 64.0312 69.0664 64.7273C69.4168 65.4233 69.592 66.1998 69.592 67.0568C69.592 67.9138 69.4168 68.6927 69.0664 69.3935C68.7208 70.0942 68.1857 70.6529 67.4613 71.0696C66.7369 71.4815 65.8088 71.6875 64.6772 71.6875H61.1545V70.125H64.6204C65.4016 70.125 66.029 69.9901 66.5025 69.7202C66.976 69.4503 67.3192 69.0857 67.5323 68.6264C67.7501 68.1624 67.859 67.6392 67.859 67.0568C67.859 66.4744 67.7501 65.9536 67.5323 65.4943C67.3192 65.035 66.9736 64.6752 66.4954 64.4148C66.0172 64.1496 65.3827 64.017 64.592 64.017H61.4954V77H59.734ZM72.4293 77V62.4545H74.1907V75.4375H80.9521V77H72.4293ZM83.6793 77V62.4545H92.4577V64.017H85.4407V68.9318H92.0032V70.4943H85.4407V75.4375H92.5714V77H83.6793ZM96.4847 62.4545L100.235 68.5057H100.348L104.098 62.4545H106.172L101.598 69.7273L106.172 77H104.098L100.348 71.0625H100.235L96.4847 77H94.4109L99.0984 69.7273L94.4109 62.4545H96.4847Z" fill="#0F172A"/>
<path d="M89.8098 52H87.503L91.0179 41.8182H93.7921L97.302 52H94.9952L92.4448 44.1449H92.3652L89.8098 52ZM89.6657 47.9979H95.1145V49.6783H89.6657V47.9979ZM98.5275 52V41.8182H102.545C103.314 41.8182 103.97 41.9557 104.513 42.2308C105.06 42.5026 105.476 42.8887 105.761 43.3892C106.05 43.8864 106.194 44.4714 106.194 45.1442C106.194 45.8203 106.048 46.402 105.756 46.8892C105.465 47.3731 105.042 47.7443 104.488 48.0028C103.938 48.2614 103.272 48.3906 102.49 48.3906H99.8002V46.6605H102.142C102.553 46.6605 102.894 46.6042 103.166 46.4915C103.438 46.3788 103.64 46.2098 103.773 45.9844C103.908 45.759 103.976 45.4789 103.976 45.1442C103.976 44.8061 103.908 44.5211 103.773 44.2891C103.64 44.0571 103.436 43.8814 103.161 43.7621C102.889 43.6394 102.546 43.5781 102.132 43.5781H100.68V52H98.5275ZM104.026 47.3665L106.557 52H104.18L101.704 47.3665H104.026Z" fill="#6D28D9"/>
</svg>
