<svg width="125" height="125" viewBox="0 0 125 125" fill="none" xmlns="http://www.w3.org/2000/svg">
<path d="M62.5 2L82.5 32C82.5 52 75.8333 62 62.5 62C49.1667 62 42.5 52 42.5 32L62.5 2Z" fill="url(#paint0_linear_699_743)" stroke="#4A90A0" stroke-width="2"/>
<path opacity="0.6" d="M52.5 26C54.7091 26 56.5 24.2091 56.5 22C56.5 19.7909 54.7091 18 52.5 18C50.2909 18 48.5 19.7909 48.5 22C48.5 24.2091 50.2909 26 52.5 26Z" fill="white"/>
<path d="M2.70312 101V78.2812H7.32812V97.1406H18.8281V101H2.70312ZM22.1094 78.0938H26.7344V90.5C26.7344 92.4688 26.7917 93.7448 26.9062 94.3281C27.1042 95.2656 27.5729 96.0208 28.3125 96.5938C29.0625 97.1562 30.0833 97.4375 31.375 97.4375C32.6875 97.4375 33.6771 97.1719 34.3438 96.6406C35.0104 96.099 35.4115 95.4375 35.5469 94.6562C35.6823 93.875 35.75 92.5781 35.75 90.7656V78.0938H40.375V90.125C40.375 92.875 40.25 94.8177 40 95.9531C39.75 97.0885 39.2865 98.0469 38.6094 98.8281C37.9427 99.6094 37.0469 100.234 35.9219 100.703C34.7969 101.161 33.3281 101.391 31.5156 101.391C29.3281 101.391 27.6667 101.141 26.5312 100.641C25.4062 100.13 24.5156 99.474 23.8594 98.6719C23.2031 97.8594 22.7708 97.0104 22.5625 96.125C22.2604 94.8125 22.1094 92.875 22.1094 90.3125V78.0938ZM45.2031 101V78.0938H52.125L56.2812 93.7188L60.3906 78.0938H67.3281V101H63.0312V82.9688L58.4844 101H54.0312L49.5 82.9688V101H45.2031ZM71.7812 101V78.0938H76.4062V101H71.7812ZM80.875 101V78.0938H85.375L94.75 93.3906V78.0938H99.0469V101H94.4062L85.1719 86.0625V101H80.875ZM124.609 101H119.578L117.578 95.7969H108.422L106.531 101H101.625L110.547 78.0938H115.438L124.609 101ZM116.094 91.9375L112.938 83.4375L109.844 91.9375H116.094Z" fill="#2C5A61"/>
<path d="M27.3291 118.78L28.5801 118.671C28.6393 119.172 28.776 119.585 28.9902 119.908C29.209 120.227 29.5462 120.487 30.002 120.688C30.4577 120.883 30.9704 120.981 31.54 120.981C32.0459 120.981 32.4925 120.906 32.8799 120.756C33.2673 120.605 33.5544 120.4 33.7412 120.141C33.9326 119.876 34.0283 119.589 34.0283 119.279C34.0283 118.965 33.9372 118.691 33.7549 118.459C33.5726 118.222 33.2718 118.024 32.8525 117.864C32.5837 117.759 31.9889 117.598 31.0684 117.379C30.1478 117.156 29.5029 116.946 29.1338 116.75C28.6553 116.499 28.2975 116.189 28.0605 115.82C27.8281 115.447 27.7119 115.03 27.7119 114.569C27.7119 114.063 27.8555 113.592 28.1426 113.154C28.4297 112.712 28.849 112.377 29.4004 112.149C29.9518 111.922 30.5648 111.808 31.2393 111.808C31.9821 111.808 32.6361 111.928 33.2012 112.17C33.7708 112.407 34.2083 112.758 34.5137 113.223C34.819 113.688 34.9831 114.214 35.0059 114.802L33.7344 114.897C33.666 114.264 33.4336 113.785 33.0371 113.462C32.6452 113.138 32.0641 112.977 31.2939 112.977C30.4919 112.977 29.9062 113.125 29.5371 113.421C29.1725 113.713 28.9902 114.066 28.9902 114.48C28.9902 114.84 29.1201 115.137 29.3799 115.369C29.6351 115.602 30.3005 115.841 31.376 116.087C32.4561 116.328 33.1966 116.54 33.5977 116.723C34.181 116.992 34.6117 117.333 34.8896 117.748C35.1676 118.158 35.3066 118.632 35.3066 119.17C35.3066 119.703 35.154 120.207 34.8486 120.681C34.5433 121.15 34.1035 121.517 33.5293 121.781C32.9596 122.041 32.3171 122.171 31.6016 122.171C30.6947 122.171 29.9336 122.039 29.3184 121.774C28.7077 121.51 28.2269 121.114 27.876 120.585C27.5296 120.052 27.3473 119.45 27.3291 118.78ZM37.0635 122V111.979H38.3896V116.948L43.3662 111.979H45.1641L40.96 116.039L45.3486 122H43.5986L40.0303 116.928L38.3896 118.527V122H37.0635ZM46.6816 122V111.979H48.0078V122H46.6816ZM50.3389 122V111.979H51.6992L56.9629 119.847V111.979H58.2344V122H56.874L51.6104 114.125V122H50.3389ZM67.6201 118.486L68.9463 118.821C68.6683 119.91 68.167 120.742 67.4424 121.316C66.7223 121.886 65.8405 122.171 64.7969 122.171C63.7168 122.171 62.8372 121.952 62.1582 121.515C61.4837 121.073 60.9688 120.435 60.6133 119.601C60.2624 118.767 60.0869 117.871 60.0869 116.914C60.0869 115.87 60.2852 114.961 60.6816 114.187C61.0827 113.407 61.6501 112.817 62.3838 112.416C63.1221 112.01 63.9333 111.808 64.8174 111.808C65.82 111.808 66.6631 112.063 67.3467 112.573C68.0303 113.084 68.5065 113.801 68.7754 114.727L67.4697 115.034C67.2373 114.305 66.9001 113.774 66.458 113.441C66.016 113.109 65.46 112.942 64.79 112.942C64.0199 112.942 63.375 113.127 62.8555 113.496C62.3405 113.865 61.9782 114.362 61.7686 114.986C61.5589 115.606 61.4541 116.246 61.4541 116.907C61.4541 117.759 61.5771 118.505 61.8232 119.143C62.0739 119.776 62.4613 120.25 62.9854 120.564C63.5094 120.879 64.0768 121.036 64.6875 121.036C65.4303 121.036 66.0592 120.822 66.5742 120.394C67.0892 119.965 67.4378 119.329 67.6201 118.486ZM69.4863 122L73.335 111.979H74.7637L78.8652 122H77.3545L76.1855 118.965H71.9951L70.8945 122H69.4863ZM72.3779 117.885H75.7754L74.7295 115.109C74.4105 114.266 74.1735 113.574 74.0186 113.031C73.891 113.674 73.7109 114.312 73.4785 114.945L72.3779 117.885ZM79.9453 122V111.979H84.3887C85.2819 111.979 85.9609 112.07 86.4258 112.252C86.8906 112.43 87.262 112.746 87.54 113.202C87.818 113.658 87.957 114.161 87.957 114.713C87.957 115.424 87.7269 116.023 87.2666 116.511C86.8063 116.998 86.0954 117.308 85.1338 117.44C85.4847 117.609 85.7513 117.775 85.9336 117.939C86.321 118.295 86.6878 118.739 87.0342 119.272L88.7773 122H87.1094L85.7832 119.915C85.3958 119.313 85.0768 118.853 84.8262 118.534C84.5755 118.215 84.3499 117.992 84.1494 117.864C83.9535 117.737 83.7529 117.648 83.5479 117.598C83.3975 117.566 83.1514 117.55 82.8096 117.55H81.2715V122H79.9453ZM81.2715 116.401H84.1221C84.7282 116.401 85.2021 116.34 85.5439 116.217C85.8857 116.089 86.1455 115.889 86.3232 115.615C86.501 115.337 86.5898 115.036 86.5898 114.713C86.5898 114.239 86.4167 113.849 86.0703 113.544C85.7285 113.239 85.1862 113.086 84.4434 113.086H81.2715V116.401ZM90.0693 122V111.979H97.3154V113.161H91.3955V116.23H96.9395V117.406H91.3955V120.817H97.5479V122H90.0693Z" fill="#4A90A0"/>
<defs>
<linearGradient id="paint0_linear_699_743" x1="42.5" y1="2" x2="5580.96" y2="3694.31" gradientUnits="userSpaceOnUse">
<stop stop-color="#7EB9C2"/>
<stop offset="1" stop-color="#4A90A0"/>
</linearGradient>
</defs>
</svg>
