<svg width="217" height="125" viewBox="0 0 217 125" fill="none" xmlns="http://www.w3.org/2000/svg">
<path d="M15 8C28.3333 8 41.6667 8 55 8C61.6667 8 65 11.3333 65 18V68C65 74.6667 61.6667 78 55 78H15C8.33333 78 5 74.6667 5 68V18C5 11.3333 8.33333 8 15 8Z" fill="#2C3E50"/>
<path d="M0 68H70L60 98H10L0 68Z" fill="#34495E"/>
<path d="M10 98L5 118M60 98L65 118" stroke="#2C3E50" stroke-width="4"/>
<path d="M15 23C28.3333 23 41.6667 23 55 23M15 38C28.3333 38 41.6667 38 55 38M15 53C28.3333 53 41.6667 53 55 53" stroke="#4A6278" stroke-width="2"/>
<path d="M94.4766 31.3672V25.5781H109.43V39.2656C107.977 40.6719 105.867 41.9141 103.102 42.9922C100.352 44.0547 97.5625 44.5859 94.7344 44.5859C91.1406 44.5859 88.0078 43.8359 85.3359 42.3359C82.6641 40.8203 80.6562 38.6641 79.3125 35.8672C77.9688 33.0547 77.2969 30 77.2969 26.7031C77.2969 23.125 78.0469 19.9453 79.5469 17.1641C81.0469 14.3828 83.2422 12.25 86.1328 10.7656C88.3359 9.625 91.0781 9.05469 94.3594 9.05469C98.625 9.05469 101.953 9.95312 104.344 11.75C106.75 13.5312 108.297 16 108.984 19.1562L102.094 20.4453C101.609 18.7578 100.695 17.4297 99.3516 16.4609C98.0234 15.4766 96.3594 14.9844 94.3594 14.9844C91.3281 14.9844 88.9141 15.9453 87.1172 17.8672C85.3359 19.7891 84.4453 22.6406 84.4453 26.4219C84.4453 30.5 85.3516 33.5625 87.1641 35.6094C88.9766 37.6406 91.3516 38.6562 94.2891 38.6562C95.7422 38.6562 97.1953 38.375 98.6484 37.8125C100.117 37.2344 101.375 36.5391 102.422 35.7266V31.3672H94.4766ZM122.109 44H115.523V19.1094H121.641V22.6484C122.688 20.9766 123.625 19.875 124.453 19.3438C125.297 18.8125 126.25 18.5469 127.312 18.5469C128.812 18.5469 130.258 18.9609 131.648 19.7891L129.609 25.5312C128.5 24.8125 127.469 24.4531 126.516 24.4531C125.594 24.4531 124.812 24.7109 124.172 25.2266C123.531 25.7266 123.023 26.6406 122.648 27.9688C122.289 29.2969 122.109 32.0781 122.109 36.3125V44ZM148.922 36.0781L155.484 37.1797C154.641 39.5859 153.305 41.4219 151.477 42.6875C149.664 43.9375 147.391 44.5625 144.656 44.5625C140.328 44.5625 137.125 43.1484 135.047 40.3203C133.406 38.0547 132.586 35.1953 132.586 31.7422C132.586 27.6172 133.664 24.3906 135.82 22.0625C137.977 19.7188 140.703 18.5469 144 18.5469C147.703 18.5469 150.625 19.7734 152.766 22.2266C154.906 24.6641 155.93 28.4062 155.836 33.4531H139.336C139.383 35.4062 139.914 36.9297 140.93 38.0234C141.945 39.1016 143.211 39.6406 144.727 39.6406C145.758 39.6406 146.625 39.3594 147.328 38.7969C148.031 38.2344 148.562 37.3281 148.922 36.0781ZM149.297 29.4219C149.25 27.5156 148.758 26.0703 147.82 25.0859C146.883 24.0859 145.742 23.5859 144.398 23.5859C142.961 23.5859 141.773 24.1094 140.836 25.1562C139.898 26.2031 139.438 27.625 139.453 29.4219H149.297ZM166.148 26.7031L160.172 25.625C160.844 23.2188 162 21.4375 163.641 20.2812C165.281 19.125 167.719 18.5469 170.953 18.5469C173.891 18.5469 176.078 18.8984 177.516 19.6016C178.953 20.2891 179.961 21.1719 180.539 22.25C181.133 23.3125 181.43 25.2734 181.43 28.1328L181.359 35.8203C181.359 38.0078 181.461 39.625 181.664 40.6719C181.883 41.7031 182.281 42.8125 182.859 44H176.344C176.172 43.5625 175.961 42.9141 175.711 42.0547C175.602 41.6641 175.523 41.4062 175.477 41.2812C174.352 42.375 173.148 43.1953 171.867 43.7422C170.586 44.2891 169.219 44.5625 167.766 44.5625C165.203 44.5625 163.18 43.8672 161.695 42.4766C160.227 41.0859 159.492 39.3281 159.492 37.2031C159.492 35.7969 159.828 34.5469 160.5 33.4531C161.172 32.3438 162.109 31.5 163.312 30.9219C164.531 30.3281 166.281 29.8125 168.562 29.375C171.641 28.7969 173.773 28.2578 174.961 27.7578V27.1016C174.961 25.8359 174.648 24.9375 174.023 24.4062C173.398 23.8594 172.219 23.5859 170.484 23.5859C169.312 23.5859 168.398 23.8203 167.742 24.2891C167.086 24.7422 166.555 25.5469 166.148 26.7031ZM174.961 32.0469C174.117 32.3281 172.781 32.6641 170.953 33.0547C169.125 33.4453 167.93 33.8281 167.367 34.2031C166.508 34.8125 166.078 35.5859 166.078 36.5234C166.078 37.4453 166.422 38.2422 167.109 38.9141C167.797 39.5859 168.672 39.9219 169.734 39.9219C170.922 39.9219 172.055 39.5312 173.133 38.75C173.93 38.1562 174.453 37.4297 174.703 36.5703C174.875 36.0078 174.961 34.9375 174.961 33.3594V32.0469ZM199.359 19.1094V24.3594H194.859V34.3906C194.859 36.4219 194.898 37.6094 194.977 37.9531C195.07 38.2812 195.266 38.5547 195.562 38.7734C195.875 38.9922 196.25 39.1016 196.688 39.1016C197.297 39.1016 198.18 38.8906 199.336 38.4688L199.898 43.5781C198.367 44.2344 196.633 44.5625 194.695 44.5625C193.508 44.5625 192.438 44.3672 191.484 43.9766C190.531 43.5703 189.828 43.0547 189.375 42.4297C188.938 41.7891 188.633 40.9297 188.461 39.8516C188.32 39.0859 188.25 37.5391 188.25 35.2109V24.3594H185.227V19.1094H188.25V14.1641L194.859 10.3203V19.1094H199.359Z" fill="#2C3E50"/>
<path d="M76.7344 82.8203L83.4844 82.1641C83.8906 84.4297 84.7109 86.0938 85.9453 87.1562C87.1953 88.2188 88.875 88.75 90.9844 88.75C93.2188 88.75 94.8984 88.2812 96.0234 87.3438C97.1641 86.3906 97.7344 85.2812 97.7344 84.0156C97.7344 83.2031 97.4922 82.5156 97.0078 81.9531C96.5391 81.375 95.7109 80.875 94.5234 80.4531C93.7109 80.1719 91.8594 79.6719 88.9688 78.9531C85.25 78.0312 82.6406 76.8984 81.1406 75.5547C79.0312 73.6641 77.9766 71.3594 77.9766 68.6406C77.9766 66.8906 78.4688 65.2578 79.4531 63.7422C80.4531 62.2109 81.8828 61.0469 83.7422 60.25C85.6172 59.4531 87.875 59.0547 90.5156 59.0547C94.8281 59.0547 98.0703 60 100.242 61.8906C102.43 63.7812 103.578 66.3047 103.688 69.4609L96.75 69.7656C96.4531 68 95.8125 66.7344 94.8281 65.9688C93.8594 65.1875 92.3984 64.7969 90.4453 64.7969C88.4297 64.7969 86.8516 65.2109 85.7109 66.0391C84.9766 66.5703 84.6094 67.2812 84.6094 68.1719C84.6094 68.9844 84.9531 69.6797 85.6406 70.2578C86.5156 70.9922 88.6406 71.7578 92.0156 72.5547C95.3906 73.3516 97.8828 74.1797 99.4922 75.0391C101.117 75.8828 102.383 77.0469 103.289 78.5312C104.211 80 104.672 81.8203 104.672 83.9922C104.672 85.9609 104.125 87.8047 103.031 89.5234C101.938 91.2422 100.391 92.5234 98.3906 93.3672C96.3906 94.1953 93.8984 94.6094 90.9141 94.6094C86.5703 94.6094 83.2344 93.6094 80.9062 91.6094C78.5781 89.5938 77.1875 86.6641 76.7344 82.8203ZM110.273 69.1094H116.414V72.7656C117.211 71.5156 118.289 70.5 119.648 69.7188C121.008 68.9375 122.516 68.5469 124.172 68.5469C127.062 68.5469 129.516 69.6797 131.531 71.9453C133.547 74.2109 134.555 77.3672 134.555 81.4141C134.555 85.5703 133.539 88.8047 131.508 91.1172C129.477 93.4141 127.016 94.5625 124.125 94.5625C122.75 94.5625 121.5 94.2891 120.375 93.7422C119.266 93.1953 118.094 92.2578 116.859 90.9297V103.469H110.273V69.1094ZM116.789 81.1328C116.789 83.9297 117.344 86 118.453 87.3438C119.562 88.6719 120.914 89.3359 122.508 89.3359C124.039 89.3359 125.312 88.7266 126.328 87.5078C127.344 86.2734 127.852 84.2578 127.852 81.4609C127.852 78.8516 127.328 76.9141 126.281 75.6484C125.234 74.3828 123.938 73.75 122.391 73.75C120.781 73.75 119.445 74.375 118.383 75.625C117.32 76.8594 116.789 78.6953 116.789 81.1328ZM144.727 76.7031L138.75 75.625C139.422 73.2188 140.578 71.4375 142.219 70.2812C143.859 69.125 146.297 68.5469 149.531 68.5469C152.469 68.5469 154.656 68.8984 156.094 69.6016C157.531 70.2891 158.539 71.1719 159.117 72.25C159.711 73.3125 160.008 75.2734 160.008 78.1328L159.938 85.8203C159.938 88.0078 160.039 89.625 160.242 90.6719C160.461 91.7031 160.859 92.8125 161.438 94H154.922C154.75 93.5625 154.539 92.9141 154.289 92.0547C154.18 91.6641 154.102 91.4062 154.055 91.2812C152.93 92.375 151.727 93.1953 150.445 93.7422C149.164 94.2891 147.797 94.5625 146.344 94.5625C143.781 94.5625 141.758 93.8672 140.273 92.4766C138.805 91.0859 138.07 89.3281 138.07 87.2031C138.07 85.7969 138.406 84.5469 139.078 83.4531C139.75 82.3438 140.688 81.5 141.891 80.9219C143.109 80.3281 144.859 79.8125 147.141 79.375C150.219 78.7969 152.352 78.2578 153.539 77.7578V77.1016C153.539 75.8359 153.227 74.9375 152.602 74.4062C151.977 73.8594 150.797 73.5859 149.062 73.5859C147.891 73.5859 146.977 73.8203 146.32 74.2891C145.664 74.7422 145.133 75.5469 144.727 76.7031ZM153.539 82.0469C152.695 82.3281 151.359 82.6641 149.531 83.0547C147.703 83.4453 146.508 83.8281 145.945 84.2031C145.086 84.8125 144.656 85.5859 144.656 86.5234C144.656 87.4453 145 88.2422 145.688 88.9141C146.375 89.5859 147.25 89.9219 148.312 89.9219C149.5 89.9219 150.633 89.5312 151.711 88.75C152.508 88.1562 153.031 87.4297 153.281 86.5703C153.453 86.0078 153.539 84.9375 153.539 83.3594V82.0469ZM188.227 76.4688L181.734 77.6406C181.516 76.3438 181.016 75.3672 180.234 74.7109C179.469 74.0547 178.469 73.7266 177.234 73.7266C175.594 73.7266 174.281 74.2969 173.297 75.4375C172.328 76.5625 171.844 78.4531 171.844 81.1094C171.844 84.0625 172.336 86.1484 173.32 87.3672C174.32 88.5859 175.656 89.1953 177.328 89.1953C178.578 89.1953 179.602 88.8438 180.398 88.1406C181.195 87.4219 181.758 86.1953 182.086 84.4609L188.555 85.5625C187.883 88.5312 186.594 90.7734 184.688 92.2891C182.781 93.8047 180.227 94.5625 177.023 94.5625C173.383 94.5625 170.477 93.4141 168.305 91.1172C166.148 88.8203 165.07 85.6406 165.07 81.5781C165.07 77.4688 166.156 74.2734 168.328 71.9922C170.5 69.6953 173.438 68.5469 177.141 68.5469C180.172 68.5469 182.578 69.2031 184.359 70.5156C186.156 71.8125 187.445 73.7969 188.227 76.4688ZM207.656 86.0781L214.219 87.1797C213.375 89.5859 212.039 91.4219 210.211 92.6875C208.398 93.9375 206.125 94.5625 203.391 94.5625C199.062 94.5625 195.859 93.1484 193.781 90.3203C192.141 88.0547 191.32 85.1953 191.32 81.7422C191.32 77.6172 192.398 74.3906 194.555 72.0625C196.711 69.7188 199.438 68.5469 202.734 68.5469C206.438 68.5469 209.359 69.7734 211.5 72.2266C213.641 74.6641 214.664 78.4062 214.57 83.4531H198.07C198.117 85.4062 198.648 86.9297 199.664 88.0234C200.68 89.1016 201.945 89.6406 203.461 89.6406C204.492 89.6406 205.359 89.3594 206.062 88.7969C206.766 88.2344 207.297 87.3281 207.656 86.0781ZM208.031 79.4219C207.984 77.5156 207.492 76.0703 206.555 75.0859C205.617 74.0859 204.477 73.5859 203.133 73.5859C201.695 73.5859 200.508 74.1094 199.57 75.1562C198.633 76.2031 198.172 77.625 198.188 79.4219H208.031Z" fill="#34495E"/>
<path d="M76.1484 122V111.979H82.9092V113.161H77.4746V116.265H82.1777V117.447H77.4746V122H76.1484ZM91.2148 111.979H92.541V117.769C92.541 118.776 92.4271 119.576 92.1992 120.168C91.9714 120.76 91.5589 121.243 90.9619 121.617C90.3695 121.986 89.5902 122.171 88.624 122.171C87.6852 122.171 86.9173 122.009 86.3203 121.686C85.7233 121.362 85.2972 120.895 85.042 120.284C84.7868 119.669 84.6592 118.83 84.6592 117.769V111.979H85.9854V117.762C85.9854 118.632 86.0651 119.275 86.2246 119.689C86.3887 120.1 86.6667 120.416 87.0586 120.64C87.4551 120.863 87.9382 120.975 88.5078 120.975C89.4831 120.975 90.1781 120.754 90.5928 120.312C91.0075 119.869 91.2148 119.02 91.2148 117.762V111.979ZM94.7764 122V111.979H99.2197C100.113 111.979 100.792 112.07 101.257 112.252C101.722 112.43 102.093 112.746 102.371 113.202C102.649 113.658 102.788 114.161 102.788 114.713C102.788 115.424 102.558 116.023 102.098 116.511C101.637 116.998 100.926 117.308 99.9648 117.44C100.316 117.609 100.582 117.775 100.765 117.939C101.152 118.295 101.519 118.739 101.865 119.272L103.608 122H101.94L100.614 119.915C100.227 119.313 99.9079 118.853 99.6572 118.534C99.4066 118.215 99.181 117.992 98.9805 117.864C98.7845 117.737 98.584 117.648 98.3789 117.598C98.2285 117.566 97.9824 117.55 97.6406 117.55H96.1025V122H94.7764ZM96.1025 116.401H98.9531C99.5592 116.401 100.033 116.34 100.375 116.217C100.717 116.089 100.977 115.889 101.154 115.615C101.332 115.337 101.421 115.036 101.421 114.713C101.421 114.239 101.248 113.849 100.901 113.544C100.56 113.239 100.017 113.086 99.2744 113.086H96.1025V116.401ZM104.859 122V111.979H106.22L111.483 119.847V111.979H112.755V122H111.395L106.131 114.125V122H104.859ZM115.216 122V111.979H116.542V122H115.216ZM121.437 122V113.161H118.135V111.979H126.078V113.161H122.763V122H121.437ZM134.021 111.979H135.348V117.769C135.348 118.776 135.234 119.576 135.006 120.168C134.778 120.76 134.366 121.243 133.769 121.617C133.176 121.986 132.397 122.171 131.431 122.171C130.492 122.171 129.724 122.009 129.127 121.686C128.53 121.362 128.104 120.895 127.849 120.284C127.593 119.669 127.466 118.83 127.466 117.769V111.979H128.792V117.762C128.792 118.632 128.872 119.275 129.031 119.689C129.195 120.1 129.473 120.416 129.865 120.64C130.262 120.863 130.745 120.975 131.314 120.975C132.29 120.975 132.985 120.754 133.399 120.312C133.814 119.869 134.021 119.02 134.021 117.762V111.979ZM137.583 122V111.979H142.026C142.92 111.979 143.599 112.07 144.063 112.252C144.528 112.43 144.9 112.746 145.178 113.202C145.456 113.658 145.595 114.161 145.595 114.713C145.595 115.424 145.365 116.023 144.904 116.511C144.444 116.998 143.733 117.308 142.771 117.44C143.122 117.609 143.389 117.775 143.571 117.939C143.959 118.295 144.326 118.739 144.672 119.272L146.415 122H144.747L143.421 119.915C143.034 119.313 142.715 118.853 142.464 118.534C142.213 118.215 141.988 117.992 141.787 117.864C141.591 117.737 141.391 117.648 141.186 117.598C141.035 117.566 140.789 117.55 140.447 117.55H138.909V122H137.583ZM138.909 116.401H141.76C142.366 116.401 142.84 116.34 143.182 116.217C143.523 116.089 143.783 115.889 143.961 115.615C144.139 115.337 144.228 115.036 144.228 114.713C144.228 114.239 144.054 113.849 143.708 113.544C143.366 113.239 142.824 113.086 142.081 113.086H138.909V116.401ZM147.707 122V111.979H154.953V113.161H149.033V116.23H154.577V117.406H149.033V120.817H155.186V122H147.707Z" fill="#7F8C8D"/>
</svg>
