<svg width="304" height="110" viewBox="0 0 304 110" fill="none" xmlns="http://www.w3.org/2000/svg">
<path d="M0 100V30C0 23.3333 3.33333 20 10 20H30C36.6667 20 40 23.3333 40 30V100C40 106.667 36.6667 110 30 110H10C3.33333 110 0 106.667 0 100Z" fill="#2D9CDB"/>
<path d="M10 20V0H30V20" fill="#2D9CDB"/>
<path d="M30 10L50 5V15L30 10Z" fill="#2D9CDB"/>
<path d="M60 38C64.4183 38 68 34.4183 68 30C68 25.5817 64.4183 22 60 22C55.5817 22 52 25.5817 52 30C52 34.4183 55.5817 38 60 38Z" fill="#56CCF2"/>
<path d="M80 58C84.4183 58 88 54.4183 88 50C88 45.5817 84.4183 42 80 42C75.5817 42 72 45.5817 72 50C72 54.4183 75.5817 58 80 58Z" fill="#56CCF2"/>
<path d="M100 78C104.418 78 108 74.4183 108 70C108 65.5817 104.418 62 100 62C95.5817 62 92 65.5817 92 70C92 74.4183 95.5817 78 100 78Z" fill="#56CCF2"/>
<path d="M60 78C64.4183 78 68 74.4183 68 70C68 65.5817 64.4183 62 60 62C55.5817 62 52 65.5817 52 70C52 74.4183 55.5817 78 60 78Z" fill="#56CCF2"/>
<path d="M43.6279 92.1494L48.9717 91.6299C49.2933 93.4235 49.9427 94.7409 50.9199 95.582C51.9095 96.4232 53.2393 96.8438 54.9092 96.8438C56.6781 96.8438 58.0078 96.4727 58.8984 95.7305C59.8014 94.9759 60.2529 94.0977 60.2529 93.0957C60.2529 92.4525 60.0612 91.9082 59.6777 91.4629C59.3066 91.0052 58.651 90.6094 57.7109 90.2754C57.0677 90.0527 55.6019 89.6569 53.3135 89.0879C50.3695 88.3581 48.3037 87.4613 47.1162 86.3975C45.4463 84.9007 44.6113 83.0762 44.6113 80.9238C44.6113 79.5384 45.001 78.2458 45.7803 77.0459C46.5719 75.8337 47.7038 74.9121 49.1758 74.2812C50.6602 73.6504 52.4476 73.335 54.5381 73.335C57.9521 73.335 60.5189 74.0833 62.2383 75.5801C63.9701 77.0768 64.8792 79.0745 64.9658 81.5732L59.4736 81.8145C59.2386 80.4167 58.7314 79.4147 57.9521 78.8086C57.1852 78.1901 56.0286 77.8809 54.4824 77.8809C52.8867 77.8809 51.6374 78.2087 50.7344 78.8643C50.153 79.2848 49.8623 79.8477 49.8623 80.5527C49.8623 81.196 50.1344 81.7464 50.6787 82.2041C51.3714 82.7855 53.0537 83.3916 55.7256 84.0225C58.3975 84.6533 60.3704 85.3089 61.6445 85.9893C62.931 86.6572 63.9329 87.5788 64.6504 88.7539C65.3802 89.9167 65.7451 91.3577 65.7451 93.0771C65.7451 94.6357 65.3122 96.0954 64.4463 97.4561C63.5804 98.8167 62.3558 99.8311 60.7725 100.499C59.1891 101.155 57.2161 101.482 54.8535 101.482C51.4147 101.482 48.7738 100.691 46.9307 99.1074C45.0876 97.5117 43.9867 95.1924 43.6279 92.1494ZM70.1797 81.2949H75.041V84.1895C75.6719 83.1999 76.5254 82.3958 77.6016 81.7773C78.6777 81.1589 79.8714 80.8496 81.1826 80.8496C83.471 80.8496 85.4131 81.7464 87.0088 83.54C88.6045 85.3337 89.4023 87.8324 89.4023 91.0361C89.4023 94.3265 88.5983 96.887 86.9902 98.7178C85.3822 100.536 83.4339 101.445 81.1455 101.445C80.057 101.445 79.0674 101.229 78.1768 100.796C77.2985 100.363 76.3708 99.6208 75.3936 98.5693V108.496H70.1797V81.2949ZM75.3379 90.8135C75.3379 93.0277 75.777 94.6667 76.6553 95.7305C77.5335 96.7819 78.6035 97.3076 79.8652 97.3076C81.0775 97.3076 82.0856 96.8252 82.8896 95.8604C83.6937 94.8831 84.0957 93.2874 84.0957 91.0732C84.0957 89.0075 83.6813 87.4736 82.8525 86.4717C82.0238 85.4697 80.9971 84.9688 79.7725 84.9688C78.4984 84.9688 77.4408 85.4635 76.5996 86.4531C75.7585 87.4303 75.3379 88.8838 75.3379 90.8135ZM97.4551 87.3066L92.7236 86.4531C93.2555 84.5482 94.1709 83.138 95.4697 82.2227C96.7686 81.3073 98.6982 80.8496 101.259 80.8496C103.584 80.8496 105.316 81.1279 106.454 81.6846C107.592 82.2288 108.39 82.9277 108.848 83.7812C109.318 84.6224 109.553 86.1748 109.553 88.4385L109.497 94.5244C109.497 96.2562 109.577 97.5365 109.738 98.3652C109.911 99.1816 110.227 100.06 110.685 101H105.526C105.39 100.654 105.223 100.14 105.025 99.46C104.939 99.1507 104.877 98.9466 104.84 98.8477C103.949 99.7135 102.997 100.363 101.982 100.796C100.968 101.229 99.8857 101.445 98.7354 101.445C96.7067 101.445 95.1048 100.895 93.9297 99.7939C92.7669 98.693 92.1855 97.3014 92.1855 95.6191C92.1855 94.5059 92.4515 93.5163 92.9834 92.6504C93.5153 91.7721 94.2575 91.1042 95.21 90.6465C96.1748 90.1764 97.5602 89.7682 99.3662 89.4219C101.803 88.9642 103.492 88.5374 104.432 88.1416V87.6221C104.432 86.6201 104.184 85.9089 103.689 85.4883C103.195 85.0553 102.261 84.8389 100.888 84.8389C99.96 84.8389 99.2363 85.0244 98.7168 85.3955C98.1973 85.7542 97.7767 86.3913 97.4551 87.3066ZM104.432 91.5371C103.764 91.7598 102.706 92.0257 101.259 92.335C99.8115 92.6442 98.8652 92.9473 98.4199 93.2441C97.7396 93.7266 97.3994 94.3389 97.3994 95.0811C97.3994 95.8109 97.6715 96.4417 98.2158 96.9736C98.7601 97.5055 99.4528 97.7715 100.294 97.7715C101.234 97.7715 102.131 97.4622 102.984 96.8438C103.615 96.3737 104.03 95.7985 104.228 95.1182C104.364 94.6729 104.432 93.8255 104.432 92.5762V91.5371ZM119.702 101H114.488V81.2949H119.331V84.0967C120.16 82.7731 120.902 81.901 121.558 81.4805C122.226 81.0599 122.98 80.8496 123.821 80.8496C125.009 80.8496 126.153 81.1774 127.254 81.833L125.64 86.3789C124.761 85.8099 123.945 85.5254 123.19 85.5254C122.461 85.5254 121.842 85.7295 121.335 86.1377C120.828 86.5335 120.426 87.2572 120.129 88.3086C119.844 89.36 119.702 91.5618 119.702 94.9141V101ZM129.332 101V73.7988H134.546V88.2344L140.65 81.2949H147.07L140.335 88.4941L147.553 101H141.931L136.977 92.1494L134.546 94.6914V101H129.332ZM150.67 101V73.7988H155.884V101H150.67ZM172.657 94.7285L177.853 95.6006C177.185 97.5055 176.127 98.959 174.68 99.9609C173.245 100.951 171.445 101.445 169.28 101.445C165.854 101.445 163.318 100.326 161.673 98.0869C160.374 96.2933 159.725 94.0296 159.725 91.2959C159.725 88.0303 160.578 85.4759 162.285 83.6328C163.992 81.7773 166.151 80.8496 168.761 80.8496C171.692 80.8496 174.006 81.8206 175.7 83.7627C177.395 85.6924 178.205 88.6549 178.131 92.6504H165.068C165.105 94.1966 165.526 95.4027 166.33 96.2686C167.134 97.1221 168.136 97.5488 169.336 97.5488C170.152 97.5488 170.839 97.3262 171.396 96.8809C171.952 96.4355 172.373 95.7181 172.657 94.7285ZM172.954 89.459C172.917 87.9499 172.527 86.8057 171.785 86.0264C171.043 85.2347 170.14 84.8389 169.076 84.8389C167.938 84.8389 166.998 85.2533 166.256 86.082C165.514 86.9108 165.149 88.0365 165.161 89.459H172.954Z" fill="#333333"/>
<path d="M182.51 101V73.7988H188.002V85.8779L199.098 73.7988H206.482L196.24 84.3936L207.039 101H199.933L192.455 88.2344L188.002 92.7803V101H182.51ZM209.859 78.623V73.7988H215.073V78.623H209.859ZM209.859 101V81.2949H215.073V101H209.859ZM229.472 81.2949V85.4512H225.909V93.3926C225.909 95.0007 225.94 95.9408 226.002 96.2129C226.076 96.4727 226.231 96.6891 226.466 96.8623C226.713 97.0355 227.01 97.1221 227.356 97.1221C227.839 97.1221 228.538 96.9551 229.453 96.6211L229.898 100.666C228.686 101.186 227.313 101.445 225.779 101.445C224.839 101.445 223.992 101.291 223.237 100.981C222.483 100.66 221.926 100.252 221.567 99.7568C221.221 99.2497 220.98 98.5693 220.844 97.7158C220.732 97.1097 220.677 95.8851 220.677 94.042V85.4512H218.283V81.2949H220.677V77.3799L225.909 74.3369V81.2949H229.472ZM250.271 87.1211L245.132 88.0488C244.959 87.0221 244.563 86.249 243.944 85.7295C243.338 85.21 242.547 84.9502 241.569 84.9502C240.271 84.9502 239.231 85.4017 238.452 86.3047C237.685 87.1953 237.302 88.6921 237.302 90.7949C237.302 93.1328 237.691 94.7842 238.471 95.749C239.262 96.7139 240.32 97.1963 241.644 97.1963C242.633 97.1963 243.443 96.918 244.074 96.3613C244.705 95.7923 245.15 94.8213 245.41 93.4482L250.531 94.3203C249.999 96.6706 248.979 98.4456 247.47 99.6455C245.961 100.845 243.938 101.445 241.402 101.445C238.52 101.445 236.219 100.536 234.5 98.7178C232.793 96.8994 231.939 94.3822 231.939 91.166C231.939 87.9128 232.799 85.3831 234.519 83.5771C236.238 81.7588 238.563 80.8496 241.495 80.8496C243.895 80.8496 245.8 81.3691 247.21 82.4082C248.632 83.4349 249.653 85.0059 250.271 87.1211ZM259.438 73.7988V83.7998C261.12 81.833 263.13 80.8496 265.468 80.8496C266.668 80.8496 267.75 81.0723 268.715 81.5176C269.68 81.9629 270.403 82.5319 270.886 83.2246C271.381 83.9173 271.715 84.6842 271.888 85.5254C272.073 86.3665 272.166 87.6715 272.166 89.4404V101H266.952V90.5908C266.952 88.5251 266.853 87.2139 266.655 86.6572C266.457 86.1006 266.105 85.6615 265.598 85.3398C265.103 85.0059 264.478 84.8389 263.724 84.8389C262.858 84.8389 262.085 85.0492 261.404 85.4697C260.724 85.8903 260.223 86.5273 259.901 87.3809C259.592 88.222 259.438 89.4714 259.438 91.1289V101H254.224V73.7988H259.438Z" fill="#2D9CDB"/>
<path d="M211 62L214 65L211 68L208 65L211 62Z" fill="#56CCF2"/>
<path d="M301 52L304 55L301 58L298 55L301 52Z" fill="#56CCF2"/>
<path d="M281 82L284 85L281 88L278 85L281 82Z" fill="#56CCF2"/>
</svg>
