<svg width="136" height="50" viewBox="0 0 136 50" fill="none" xmlns="http://www.w3.org/2000/svg">
<path d="M1 1C11 1 21 1 31 11C41 21 41 31 31 41C21 51 11 51 1 41V26H16" stroke="black" stroke-width="2" stroke-linecap="round"/>
<path d="M60.2695 6.33984C61.8867 6.33984 63.2852 6.65234 64.4648 7.27734C66.1758 8.17578 67.2227 9.75 67.6055 12H65.2969C65.0156 10.7422 64.4336 9.82812 63.5508 9.25781C62.668 8.67969 61.5547 8.39062 60.2109 8.39062C58.6172 8.39062 57.2734 8.98828 56.1797 10.1836C55.0938 11.3789 54.5508 13.1602 54.5508 15.5273C54.5508 17.5742 55 19.2422 55.8984 20.5312C56.7969 21.8125 58.2617 22.4531 60.293 22.4531C61.8477 22.4531 63.1328 22.0039 64.1484 21.1055C65.1719 20.1992 65.6953 18.7383 65.7188 16.7227H60.3281V14.7891H67.8867V24H66.3867L65.8242 21.7852C65.0352 22.6523 64.3359 23.2539 63.7266 23.5898C62.7031 24.168 61.4023 24.457 59.8242 24.457C57.7852 24.457 56.0312 23.7969 54.5625 22.4766C52.9609 20.8203 52.1602 18.5469 52.1602 15.6562C52.1602 12.7734 52.9414 10.4805 54.5039 8.77734C55.9883 7.15234 57.9102 6.33984 60.2695 6.33984ZM71.5078 6.78516H73.8398V21.9492H82.5586V24H71.5078V6.78516ZM85.0898 6.78516H97.6406V8.89453H87.3633V14.1211H96.8672V16.1133H87.3633V21.9492H97.8164V24H85.0898V6.78516ZM109.711 16.9453L107.098 9.33984L104.32 16.9453H109.711ZM105.879 6.78516H108.516L114.762 24H112.207L110.461 18.8438H103.652L101.789 24H99.3984L105.879 6.78516ZM116.824 6.78516H120.164L125.109 21.3398L130.02 6.78516H133.324V24H131.109V13.8398C131.109 13.4883 131.117 12.9062 131.133 12.0938C131.148 11.2812 131.156 10.4102 131.156 9.48047L126.246 24H123.938L118.992 9.48047V10.0078C118.992 10.4297 119 11.0742 119.016 11.9414C119.039 12.8008 119.051 13.4336 119.051 13.8398V24H116.824V6.78516Z" fill="black"/>
<path d="M54.457 35.8594C54.8672 35.8594 55.1862 35.8024 55.4141 35.6885C55.7721 35.5094 55.9512 35.1872 55.9512 34.7217C55.9512 34.2529 55.7607 33.9372 55.3799 33.7744C55.165 33.6833 54.846 33.6377 54.4229 33.6377H52.6895V35.8594H54.457ZM54.7842 39.1699C55.3799 39.1699 55.8047 38.9974 56.0586 38.6523C56.2181 38.4342 56.2979 38.1706 56.2979 37.8613C56.2979 37.3405 56.0651 36.9857 55.5996 36.7969C55.3522 36.696 55.0251 36.6455 54.6182 36.6455H52.6895V39.1699H54.7842ZM51.7373 32.8271H54.8184C55.6582 32.8271 56.2555 33.0778 56.6104 33.5791C56.8187 33.8753 56.9229 34.2171 56.9229 34.6045C56.9229 35.057 56.7943 35.4281 56.5371 35.7178C56.4036 35.8708 56.2116 36.0107 55.9609 36.1377C56.3288 36.2777 56.6038 36.4355 56.7861 36.6113C57.1084 36.9238 57.2695 37.3551 57.2695 37.9053C57.2695 38.3675 57.1247 38.7858 56.835 39.1602C56.402 39.7201 55.7135 40 54.7695 40H51.7373V32.8271ZM58.5244 32.8271H63.7539V33.7061H59.4717V35.8838H63.4316V36.7139H59.4717V39.1455H63.8271V40H58.5244V32.8271ZM68.7832 37.0605L67.6943 33.8916L66.5371 37.0605H68.7832ZM67.1865 32.8271H68.2852L70.8877 40H69.8232L69.0957 37.8516H66.2588L65.4824 40H64.4863L67.1865 32.8271ZM72.8262 32.8271V37.2607C72.8262 37.7816 72.9238 38.2145 73.1191 38.5596C73.4089 39.0804 73.8971 39.3408 74.584 39.3408C75.4076 39.3408 75.9674 39.0592 76.2637 38.4961C76.4232 38.1901 76.5029 37.7783 76.5029 37.2607V32.8271H77.4893V36.8555C77.4893 37.7376 77.3704 38.4163 77.1328 38.8916C76.6966 39.7575 75.873 40.1904 74.6621 40.1904C73.4512 40.1904 72.6292 39.7575 72.1963 38.8916C71.9587 38.4163 71.8398 37.7376 71.8398 36.8555V32.8271H72.8262ZM84.2178 32.8271V33.6816H81.8008V40H80.8145V33.6816H78.3975V32.8271H84.2178ZM84.5547 32.8271H85.6875L87.748 36.2744L89.8086 32.8271H90.9463L88.2363 37.1094V40H87.2646V37.1094L84.5547 32.8271Z" fill="black"/>
</svg>
