<svg width="201" height="63" viewBox="0 0 201 63" fill="none" xmlns="http://www.w3.org/2000/svg">
<path d="M2 60L52 10L102 60" stroke="#2B6CB0" stroke-width="4"/>
<path d="M42 60L82 20L122 60" stroke="#4299E1" stroke-width="4"/>
<path d="M32 60L82 5L132 60" stroke="#63B3ED" stroke-width="6"/>
<path d="M105.688 15.8203H112.027C113.457 15.8203 114.547 15.9297 115.297 16.1484C116.305 16.4453 117.168 16.9727 117.887 17.7305C118.605 18.4883 119.152 19.418 119.527 20.5195C119.902 21.6133 120.09 22.9648 120.09 24.5742C120.09 25.9883 119.914 27.207 119.562 28.2305C119.133 29.4805 118.52 30.4922 117.723 31.2656C117.121 31.8516 116.309 32.3086 115.285 32.6367C114.52 32.8789 113.496 33 112.215 33H105.688V15.8203ZM109.156 18.7266V30.1055H111.746C112.715 30.1055 113.414 30.0508 113.844 29.9414C114.406 29.8008 114.871 29.5625 115.238 29.2266C115.613 28.8906 115.918 28.3398 116.152 27.5742C116.387 26.8008 116.504 25.75 116.504 24.4219C116.504 23.0938 116.387 22.0742 116.152 21.3633C115.918 20.6523 115.59 20.0977 115.168 19.6992C114.746 19.3008 114.211 19.0312 113.562 18.8906C113.078 18.7812 112.129 18.7266 110.715 18.7266H109.156ZM131.211 33V31.1367C130.758 31.8008 130.16 32.3242 129.418 32.707C128.684 33.0898 127.906 33.2812 127.086 33.2812C126.25 33.2812 125.5 33.0977 124.836 32.7305C124.172 32.3633 123.691 31.8477 123.395 31.1836C123.098 30.5195 122.949 29.6016 122.949 28.4297V20.5547H126.242V26.2734C126.242 28.0234 126.301 29.0977 126.418 29.4961C126.543 29.8867 126.766 30.1992 127.086 30.4336C127.406 30.6602 127.812 30.7734 128.305 30.7734C128.867 30.7734 129.371 30.6211 129.816 30.3164C130.262 30.0039 130.566 29.6211 130.73 29.168C130.895 28.707 130.977 27.5859 130.977 25.8047V20.5547H134.27V33H131.211ZM136.93 26.6016C136.93 25.5078 137.199 24.4492 137.738 23.4258C138.277 22.4023 139.039 21.6211 140.023 21.082C141.016 20.543 142.121 20.2734 143.34 20.2734C145.223 20.2734 146.766 20.8867 147.969 22.1133C149.172 23.332 149.773 24.875 149.773 26.7422C149.773 28.625 149.164 30.1875 147.945 31.4297C146.734 32.6641 145.207 33.2812 143.363 33.2812C142.223 33.2812 141.133 33.0234 140.094 32.5078C139.062 31.9922 138.277 31.2383 137.738 30.2461C137.199 29.2461 136.93 28.0312 136.93 26.6016ZM140.305 26.7773C140.305 28.0117 140.598 28.957 141.184 29.6133C141.77 30.2695 142.492 30.5977 143.352 30.5977C144.211 30.5977 144.93 30.2695 145.508 29.6133C146.094 28.957 146.387 28.0039 146.387 26.7539C146.387 25.5352 146.094 24.5977 145.508 23.9414C144.93 23.2852 144.211 22.957 143.352 22.957C142.492 22.957 141.77 23.2852 141.184 23.9414C140.598 24.5977 140.305 25.543 140.305 26.7773ZM156.254 33V18.7266H151.156V15.8203H164.809V18.7266H159.723V33H156.254ZM168.852 33H165.559V20.5547H168.617V22.3242C169.141 21.4883 169.609 20.9375 170.023 20.6719C170.445 20.4062 170.922 20.2734 171.453 20.2734C172.203 20.2734 172.926 20.4805 173.621 20.8945L172.602 23.7656C172.047 23.4062 171.531 23.2266 171.055 23.2266C170.594 23.2266 170.203 23.3555 169.883 23.6133C169.562 23.8633 169.309 24.3203 169.121 24.9844C168.941 25.6484 168.852 27.0391 168.852 29.1562V33ZM182.258 29.0391L185.539 29.5898C185.117 30.793 184.449 31.7109 183.535 32.3438C182.629 32.9688 181.492 33.2812 180.125 33.2812C177.961 33.2812 176.359 32.5742 175.32 31.1602C174.5 30.0273 174.09 28.5977 174.09 26.8711C174.09 24.8086 174.629 23.1953 175.707 22.0312C176.785 20.8594 178.148 20.2734 179.797 20.2734C181.648 20.2734 183.109 20.8867 184.18 22.1133C185.25 23.332 185.762 25.2031 185.715 27.7266H177.465C177.488 28.7031 177.754 29.4648 178.262 30.0117C178.77 30.5508 179.402 30.8203 180.16 30.8203C180.676 30.8203 181.109 30.6797 181.461 30.3984C181.812 30.1172 182.078 29.6641 182.258 29.0391ZM182.445 25.7109C182.422 24.7578 182.176 24.0352 181.707 23.543C181.238 23.043 180.668 22.793 179.996 22.793C179.277 22.793 178.684 23.0547 178.215 23.5781C177.746 24.1016 177.516 24.8125 177.523 25.7109H182.445ZM188.293 33V15.8203H191.586V24.9375L195.441 20.5547H199.496L195.242 25.1016L199.801 33H196.25L193.121 27.4102L191.586 29.0156V33H188.293Z" fill="#2D3748"/>
</svg>
