<svg width="340" height="91" viewBox="0 0 340 91" fill="none" xmlns="http://www.w3.org/2000/svg">
<path d="M0 80L55 0L110 80" fill="#2B6CB0"/>
<path d="M20 80L55 25L90 80" fill="#4299E1"/>
<path d="M50 45H60L55 25L50 45Z" fill="#48BB78"/>
<path d="M47 55H63L55 35L47 55Z" fill="#48BB78"/>
<path d="M57 55H53V63H57V55Z" fill="#48BB78"/>
<path d="M55 90C71.5685 90 85 76.5685 85 60C85 43.4315 71.5685 30 55 30C38.4315 30 25 43.4315 25 60C25 76.5685 38.4315 90 55 90Z" stroke="#ED8936" stroke-width="2"/>
<path d="M55 40L60 60L55 80L50 60L55 40Z" fill="#ED8936"/>
<path d="M142.484 48V28.9688H135.688V25.0938H153.891V28.9688H147.109V48H142.484ZM156.906 48V25.0938H166.641C169.089 25.0938 170.865 25.3021 171.969 25.7188C173.083 26.125 173.974 26.8542 174.641 27.9062C175.307 28.9583 175.641 30.1615 175.641 31.5156C175.641 33.2344 175.135 34.6562 174.125 35.7812C173.115 36.8958 171.604 37.599 169.594 37.8906C170.594 38.474 171.417 39.1146 172.062 39.8125C172.719 40.5104 173.599 41.75 174.703 43.5312L177.5 48H171.969L168.625 43.0156C167.438 41.2344 166.625 40.1146 166.188 39.6562C165.75 39.1875 165.286 38.8698 164.797 38.7031C164.307 38.526 163.531 38.4375 162.469 38.4375H161.531V48H156.906ZM161.531 34.7812H164.953C167.172 34.7812 168.557 34.6875 169.109 34.5C169.661 34.3125 170.094 33.9896 170.406 33.5312C170.719 33.0729 170.875 32.5 170.875 31.8125C170.875 31.0417 170.667 30.4219 170.25 29.9531C169.844 29.474 169.266 29.1719 168.516 29.0469C168.141 28.9948 167.016 28.9688 165.141 28.9688H161.531V34.7812ZM200.672 48H195.641L193.641 42.7969H184.484L182.594 48H177.688L186.609 25.0938H191.5L200.672 48ZM192.156 38.9375L189 30.4375L185.906 38.9375H192.156ZM203 48V25.0938H207.625V48H203ZM212.172 48V25.2812H216.797V44.1406H228.297V48H212.172ZM250.047 45.0938C251.182 45.9062 252.417 46.5521 253.75 47.0312L252.047 50.2969C251.349 50.0885 250.667 49.8021 250 49.4375C249.854 49.3646 248.828 48.6875 246.922 47.4062C245.422 48.0625 243.76 48.3906 241.938 48.3906C238.417 48.3906 235.656 47.3542 233.656 45.2812C231.667 43.2083 230.672 40.2969 230.672 36.5469C230.672 32.8073 231.672 29.901 233.672 27.8281C235.672 25.7448 238.385 24.7031 241.812 24.7031C245.208 24.7031 247.901 25.7448 249.891 27.8281C251.88 29.901 252.875 32.8073 252.875 36.5469C252.875 38.526 252.599 40.2656 252.047 41.7656C251.63 42.9115 250.964 44.0208 250.047 45.0938ZM246.328 42.4844C246.922 41.7865 247.365 40.9427 247.656 39.9531C247.958 38.9635 248.109 37.8281 248.109 36.5469C248.109 33.901 247.526 31.9271 246.359 30.625C245.193 29.3125 243.667 28.6562 241.781 28.6562C239.896 28.6562 238.365 29.3125 237.188 30.625C236.021 31.9375 235.438 33.9115 235.438 36.5469C235.438 39.224 236.021 41.2292 237.188 42.5625C238.365 43.8854 239.849 44.5469 241.641 44.5469C242.307 44.5469 242.938 44.4375 243.531 44.2188C242.594 43.6042 241.641 43.125 240.672 42.7812L241.969 40.1406C243.49 40.6615 244.943 41.4427 246.328 42.4844ZM256.484 25.0938H261.109V37.5C261.109 39.4688 261.167 40.7448 261.281 41.3281C261.479 42.2656 261.948 43.0208 262.688 43.5938C263.438 44.1562 264.458 44.4375 265.75 44.4375C267.062 44.4375 268.052 44.1719 268.719 43.6406C269.385 43.099 269.786 42.4375 269.922 41.6562C270.057 40.875 270.125 39.5781 270.125 37.7656V25.0938H274.75V37.125C274.75 39.875 274.625 41.8177 274.375 42.9531C274.125 44.0885 273.661 45.0469 272.984 45.8281C272.318 46.6094 271.422 47.2344 270.297 47.7031C269.172 48.1615 267.703 48.3906 265.891 48.3906C263.703 48.3906 262.042 48.1406 260.906 47.6406C259.781 47.1302 258.891 46.474 258.234 45.6719C257.578 44.8594 257.146 44.0104 256.938 43.125C256.635 41.8125 256.484 39.875 256.484 37.3125V25.0938ZM279.641 48V25.0938H296.625V28.9688H284.266V34.0469H295.766V37.9062H284.266V44.1406H297.062V48H279.641ZM299.812 40.5469L304.312 40.1094C304.583 41.6198 305.13 42.7292 305.953 43.4375C306.786 44.1458 307.906 44.5 309.312 44.5C310.802 44.5 311.922 44.1875 312.672 43.5625C313.432 42.9271 313.812 42.1875 313.812 41.3438C313.812 40.8021 313.651 40.3438 313.328 39.9688C313.016 39.5833 312.464 39.25 311.672 38.9688C311.13 38.7812 309.896 38.4479 307.969 37.9688C305.49 37.3542 303.75 36.599 302.75 35.7031C301.344 34.4427 300.641 32.9062 300.641 31.0938C300.641 29.9271 300.969 28.8385 301.625 27.8281C302.292 26.8073 303.245 26.0312 304.484 25.5C305.734 24.9688 307.24 24.7031 309 24.7031C311.875 24.7031 314.036 25.3333 315.484 26.5938C316.943 27.8542 317.708 29.5365 317.781 31.6406L313.156 31.8438C312.958 30.6667 312.531 29.8229 311.875 29.3125C311.229 28.7917 310.255 28.5312 308.953 28.5312C307.609 28.5312 306.557 28.8073 305.797 29.3594C305.307 29.7135 305.062 30.1875 305.062 30.7812C305.062 31.3229 305.292 31.7865 305.75 32.1719C306.333 32.6615 307.75 33.1719 310 33.7031C312.25 34.2344 313.911 34.7865 314.984 35.3594C316.068 35.9219 316.911 36.6979 317.516 37.6875C318.13 38.6667 318.438 39.8802 318.438 41.3281C318.438 42.6406 318.073 43.8698 317.344 45.0156C316.615 46.1615 315.583 47.0156 314.25 47.5781C312.917 48.1302 311.255 48.4062 309.266 48.4062C306.37 48.4062 304.146 47.7396 302.594 46.4062C301.042 45.0625 300.115 43.1094 299.812 40.5469ZM327.484 48V28.9688H320.688V25.0938H338.891V28.9688H332.109V48H327.484Z" fill="#2D3748"/>
<path d="M134.974 74L139.922 61.1152H141.759L147.032 74H145.09L143.587 70.0977H138.199L136.784 74H134.974ZM138.691 68.709H143.06L141.715 65.1406C141.305 64.0566 141 63.166 140.801 62.4688C140.637 63.2949 140.405 64.1152 140.106 64.9297L138.691 68.709ZM148.395 74V61.1152H152.833C153.835 61.1152 154.6 61.1768 155.127 61.2998C155.865 61.4697 156.495 61.7773 157.017 62.2227C157.696 62.7969 158.203 63.5322 158.537 64.4287C158.877 65.3193 159.047 66.3389 159.047 67.4873C159.047 68.4658 158.933 69.333 158.704 70.0889C158.476 70.8447 158.183 71.4717 157.825 71.9697C157.468 72.4619 157.075 72.8516 156.647 73.1387C156.226 73.4199 155.713 73.6338 155.109 73.7803C154.512 73.9268 153.823 74 153.044 74H148.395ZM150.1 72.4795H152.851C153.7 72.4795 154.365 72.4004 154.846 72.2422C155.332 72.084 155.719 71.8613 156.006 71.5742C156.41 71.1699 156.724 70.6279 156.946 69.9482C157.175 69.2627 157.289 68.4336 157.289 67.4609C157.289 66.1133 157.066 65.0791 156.621 64.3584C156.182 63.6318 155.646 63.1455 155.013 62.8994C154.556 62.7236 153.82 62.6357 152.807 62.6357H150.1V72.4795ZM165.085 74L160.093 61.1152H161.938L165.287 70.4756C165.557 71.2256 165.782 71.9287 165.964 72.585C166.163 71.8818 166.395 71.1787 166.658 70.4756L170.139 61.1152H171.879L166.834 74H165.085ZM173.443 74V61.1152H182.76V62.6357H175.148V66.582H182.276V68.0938H175.148V72.4795H183.059V74H173.443ZM185.396 74V61.1152H187.146L193.913 71.2314V61.1152H195.548V74H193.799L187.031 63.875V74H185.396ZM201.7 74V62.6357H197.455V61.1152H207.668V62.6357H203.405V74H201.7ZM217.881 61.1152H219.586V68.5596C219.586 69.8545 219.439 70.8828 219.146 71.6445C218.854 72.4062 218.323 73.0273 217.556 73.5078C216.794 73.9824 215.792 74.2197 214.55 74.2197C213.343 74.2197 212.355 74.0117 211.588 73.5957C210.82 73.1797 210.272 72.5791 209.944 71.7939C209.616 71.0029 209.452 69.9248 209.452 68.5596V61.1152H211.157V68.5508C211.157 69.6699 211.26 70.4961 211.465 71.0293C211.676 71.5566 212.033 71.9639 212.537 72.251C213.047 72.5381 213.668 72.6816 214.4 72.6816C215.654 72.6816 216.548 72.3975 217.081 71.8291C217.614 71.2607 217.881 70.168 217.881 68.5508V61.1152ZM222.46 74V61.1152H228.173C229.321 61.1152 230.194 61.2324 230.792 61.4668C231.39 61.6953 231.867 62.1025 232.225 62.6885C232.582 63.2744 232.761 63.9219 232.761 64.6309C232.761 65.5449 232.465 66.3154 231.873 66.9424C231.281 67.5693 230.367 67.9678 229.131 68.1377C229.582 68.3545 229.925 68.5684 230.159 68.7793C230.657 69.2363 231.129 69.8076 231.574 70.4932L233.815 74H231.671L229.966 71.3193C229.468 70.5459 229.058 69.9541 228.735 69.5439C228.413 69.1338 228.123 68.8467 227.865 68.6826C227.613 68.5186 227.355 68.4043 227.092 68.3398C226.898 68.2988 226.582 68.2783 226.143 68.2783H224.165V74H222.46ZM224.165 66.8018H227.83C228.609 66.8018 229.219 66.7227 229.658 66.5645C230.098 66.4004 230.432 66.1426 230.66 65.791C230.889 65.4336 231.003 65.0469 231.003 64.6309C231.003 64.0215 230.78 63.5205 230.335 63.1279C229.896 62.7354 229.198 62.5391 228.243 62.5391H224.165V66.8018ZM235.477 74V61.1152H244.793V62.6357H237.182V66.582H244.31V68.0938H237.182V72.4795H245.092V74H235.477ZM246.867 69.8604L248.476 69.7197C248.552 70.3643 248.728 70.8945 249.003 71.3105C249.284 71.7207 249.718 72.0547 250.304 72.3125C250.89 72.5645 251.549 72.6904 252.281 72.6904C252.932 72.6904 253.506 72.5938 254.004 72.4004C254.502 72.207 254.871 71.9434 255.111 71.6094C255.357 71.2695 255.48 70.9004 255.48 70.502C255.48 70.0977 255.363 69.7461 255.129 69.4473C254.895 69.1426 254.508 68.8877 253.969 68.6826C253.623 68.5479 252.858 68.3398 251.675 68.0586C250.491 67.7715 249.662 67.502 249.188 67.25C248.572 66.9277 248.112 66.5293 247.808 66.0547C247.509 65.5742 247.359 65.0381 247.359 64.4463C247.359 63.7959 247.544 63.1895 247.913 62.627C248.282 62.0586 248.821 61.6279 249.53 61.335C250.239 61.042 251.027 60.8955 251.895 60.8955C252.85 60.8955 253.69 61.0508 254.417 61.3613C255.149 61.666 255.712 62.1172 256.104 62.7148C256.497 63.3125 256.708 63.9893 256.737 64.7451L255.103 64.8682C255.015 64.0537 254.716 63.4385 254.206 63.0225C253.702 62.6064 252.955 62.3984 251.965 62.3984C250.934 62.3984 250.181 62.5889 249.706 62.9697C249.237 63.3447 249.003 63.7988 249.003 64.332C249.003 64.7949 249.17 65.1758 249.504 65.4746C249.832 65.7734 250.688 66.0811 252.07 66.3975C253.459 66.708 254.411 66.9805 254.927 67.2148C255.677 67.5605 256.23 68 256.588 68.5332C256.945 69.0605 257.124 69.6699 257.124 70.3613C257.124 71.0469 256.928 71.6943 256.535 72.3037C256.143 72.9072 255.577 73.3789 254.839 73.7188C254.106 74.0527 253.28 74.2197 252.36 74.2197C251.194 74.2197 250.216 74.0498 249.425 73.71C248.64 73.3701 248.021 72.8604 247.57 72.1807C247.125 71.4951 246.891 70.7217 246.867 69.8604Z" fill="#4A5568"/>
</svg>
