<svg width="144" height="84" viewBox="0 0 144 84" fill="none" xmlns="http://www.w3.org/2000/svg">
<path d="M2.89364 27V6.63636H5.35955V15.7045H16.2175V6.63636H18.6834V27H16.2175V17.892H5.35955V27H2.89364ZM24.4554 27H21.8702L29.3475 6.63636H31.8929L39.3702 27H36.785L30.6998 9.85795H30.5407L24.4554 27ZM25.41 19.0455H35.8304V21.233H25.41V19.0455ZM42.5421 27V6.63636H49.4228C51.0137 6.63636 52.3195 6.90814 53.3404 7.4517C54.3612 7.98864 55.1169 8.72775 55.6074 9.66903C56.098 10.6103 56.3432 11.6809 56.3432 12.8807C56.3432 14.0805 56.098 15.1444 55.6074 16.0724C55.1169 17.0005 54.3645 17.7296 53.3503 18.2599C52.3361 18.7836 51.0402 19.0455 49.4625 19.0455H43.8944V16.8182H49.383C50.4701 16.8182 51.3451 16.6591 52.008 16.3409C52.6775 16.0227 53.1614 15.572 53.4597 14.9886C53.7646 14.3987 53.9171 13.696 53.9171 12.8807C53.9171 12.0653 53.7646 11.3527 53.4597 10.7429C53.1548 10.133 52.6676 9.66241 51.998 9.33097C51.3285 8.9929 50.4436 8.82386 49.3432 8.82386H45.008V27H42.5421ZM52.1273 17.8523L57.1387 27H54.275L49.3432 17.8523H52.1273ZM60.4522 27V6.63636H67.3329C68.9238 6.63636 70.2297 6.90814 71.2505 7.4517C72.2714 7.98864 73.027 8.72775 73.5176 9.66903C74.0081 10.6103 74.2534 11.6809 74.2534 12.8807C74.2534 14.0805 74.0081 15.1444 73.5176 16.0724C73.027 17.0005 72.2747 17.7296 71.2605 18.2599C70.2463 18.7836 68.9503 19.0455 67.3727 19.0455H61.8045V16.8182H67.2931C68.3803 16.8182 69.2553 16.6591 69.9181 16.3409C70.5877 16.0227 71.0716 15.572 71.3699 14.9886C71.6748 14.3987 71.8272 13.696 71.8272 12.8807C71.8272 12.0653 71.6748 11.3527 71.3699 10.7429C71.0649 10.133 70.5777 9.66241 69.9082 9.33097C69.2387 8.9929 68.3538 8.82386 67.2534 8.82386H62.9181V27H60.4522ZM70.0375 17.8523L75.0488 27H72.1852L67.2534 17.8523H70.0375ZM80.8283 6.63636V27H78.3624V6.63636H80.8283ZM96.9089 11.7273C96.7896 10.7197 96.3057 9.9375 95.4572 9.38068C94.6087 8.82386 93.568 8.54545 92.335 8.54545C91.4335 8.54545 90.6447 8.69129 89.9686 8.98295C89.2991 9.27462 88.7754 9.67566 88.3975 10.1861C88.0263 10.6965 87.8407 11.2765 87.8407 11.9261C87.8407 12.4697 87.97 12.937 88.2285 13.3281C88.4937 13.7126 88.8317 14.0341 89.2427 14.2926C89.6537 14.5445 90.0846 14.7533 90.5353 14.919C90.9861 15.0781 91.4004 15.2074 91.7782 15.3068L93.8464 15.8636C94.3767 16.0028 94.9667 16.1951 95.6163 16.4403C96.2725 16.6856 96.899 17.0204 97.4956 17.4446C98.0988 17.8622 98.5959 18.3991 98.987 19.0554C99.3781 19.7116 99.5737 20.517 99.5737 21.4716C99.5737 22.572 99.2853 23.5663 98.7086 24.4545C98.1386 25.3428 97.3033 26.0488 96.2029 26.5724C95.1092 27.0961 93.7801 27.358 92.2157 27.358C90.7574 27.358 89.4946 27.1226 88.4274 26.652C87.3668 26.1813 86.5315 25.5251 85.9217 24.6832C85.3185 23.8414 84.9771 22.8636 84.8975 21.75H87.443C87.5093 22.5189 87.7678 23.1553 88.2186 23.6591C88.676 24.1562 89.2527 24.5275 89.9487 24.7727C90.6513 25.0114 91.407 25.1307 92.2157 25.1307C93.157 25.1307 94.0022 24.9782 94.7512 24.6733C95.5003 24.3617 96.0936 23.9309 96.5311 23.3807C96.9686 22.8239 97.1873 22.1742 97.1873 21.4318C97.1873 20.7557 96.9984 20.2055 96.6206 19.7812C96.2427 19.357 95.7456 19.0123 95.1291 18.7472C94.5126 18.482 93.8464 18.25 93.1305 18.0511L90.6248 17.3352C89.0339 16.8778 87.7744 16.2249 86.8464 15.3764C85.9184 14.5279 85.4544 13.4176 85.4544 12.0455C85.4544 10.9053 85.7626 9.91098 86.3791 9.0625C87.0022 8.20739 87.8374 7.54451 88.8848 7.07386C89.9387 6.59659 91.1154 6.35795 92.4146 6.35795C93.7271 6.35795 94.8938 6.59328 95.9146 7.06392C96.9354 7.52793 97.7441 8.1643 98.3407 8.97301C98.944 9.78172 99.2621 10.6998 99.2953 11.7273H96.9089ZM120.81 16.8182C120.81 18.9659 120.422 20.822 119.646 22.3864C118.871 23.9508 117.807 25.1572 116.455 26.0057C115.102 26.8542 113.558 27.2784 111.821 27.2784C110.084 27.2784 108.54 26.8542 107.188 26.0057C105.835 25.1572 104.771 23.9508 103.996 22.3864C103.22 20.822 102.833 18.9659 102.833 16.8182C102.833 14.6705 103.22 12.8144 103.996 11.25C104.771 9.68561 105.835 8.47917 107.188 7.63068C108.54 6.7822 110.084 6.35795 111.821 6.35795C113.558 6.35795 115.102 6.7822 116.455 7.63068C117.807 8.47917 118.871 9.68561 119.646 11.25C120.422 12.8144 120.81 14.6705 120.81 16.8182ZM118.423 16.8182C118.423 15.0549 118.128 13.5668 117.539 12.3537C116.955 11.1406 116.163 10.2225 115.162 9.59943C114.168 8.97633 113.054 8.66477 111.821 8.66477C110.588 8.66477 109.471 8.97633 108.47 9.59943C107.476 10.2225 106.684 11.1406 106.094 12.3537C105.511 13.5668 105.219 15.0549 105.219 16.8182C105.219 18.5814 105.511 20.0696 106.094 21.2827C106.684 22.4957 107.476 23.4138 108.47 24.0369C109.471 24.66 110.588 24.9716 111.821 24.9716C113.054 24.9716 114.168 24.66 115.162 24.0369C116.163 23.4138 116.955 22.4957 117.539 21.2827C118.128 20.0696 118.423 18.5814 118.423 16.8182ZM141.104 6.63636V27H138.718L127.621 11.0114H127.422V27H124.956V6.63636H127.343L138.479 22.6648H138.678V6.63636H141.104Z" fill="#14213D"/>
<path d="M70.3194 52.1989C69.363 52.1989 68.5675 52.0237 67.9331 51.6733C67.2986 51.3229 66.8464 50.8423 66.5765 50.2315C66.3066 49.6207 66.238 48.9223 66.3706 48.1364C66.4653 47.5303 66.6807 46.9929 67.0169 46.5241C67.353 46.0507 67.7839 45.6127 68.3095 45.2102C68.835 44.803 69.4293 44.3958 70.0922 43.9886L72.4501 42.4261C72.9047 42.1562 73.2811 41.8674 73.5794 41.5597C73.8777 41.2519 74.0694 40.8494 74.1547 40.3523C74.2115 39.983 74.1049 39.6255 73.835 39.2798C73.5699 38.9342 73.1745 38.7614 72.649 38.7614C72.2797 38.7614 71.9387 38.8561 71.6262 39.0455C71.3137 39.2301 71.0533 39.4669 70.845 39.7557C70.6414 40.0398 70.5136 40.3333 70.4615 40.6364C70.4047 40.9773 70.4425 41.3205 70.5751 41.6662C70.7077 42.0118 70.8923 42.367 71.1291 42.7315C71.3658 43.0914 71.6073 43.4631 71.8535 43.8466L77.166 52H75.149L70.7456 45.3523C70.3384 44.7367 69.969 44.178 69.6376 43.6761C69.3109 43.1742 69.0647 42.6795 68.899 42.1918C68.7333 41.7041 68.6954 41.1761 68.7853 40.608C68.8895 39.9545 69.1262 39.3816 69.4956 38.8892C69.8696 38.392 70.3431 38.0062 70.916 37.7315C71.4937 37.4522 72.1376 37.3125 72.8478 37.3125C73.577 37.3125 74.1807 37.4545 74.6589 37.7386C75.1419 38.018 75.4851 38.3897 75.6887 38.8537C75.8971 39.313 75.9539 39.8125 75.8592 40.3523C75.7456 41.0483 75.4709 41.652 75.0353 42.1634C74.5997 42.67 74.0505 43.1458 73.3876 43.5909L70.149 45.75C69.4151 46.2377 68.8919 46.7088 68.5794 47.1634C68.2716 47.6132 68.1035 47.9375 68.0751 48.1364C67.9993 48.5909 68.0467 49.0147 68.2172 49.4077C68.3923 49.8007 68.6741 50.1179 69.0623 50.3594C69.4553 50.6009 69.9406 50.7216 70.5183 50.7216C71.0675 50.7216 71.6215 50.6056 72.1802 50.3736C72.7389 50.1368 73.2645 49.7959 73.7569 49.3509C74.2541 48.9058 74.6779 48.3707 75.0282 47.7457C75.3786 47.1207 75.6177 46.4176 75.7456 45.6364H77.3649C77.2039 46.6023 76.9672 47.3883 76.6547 47.9943C76.3469 48.5956 76.0297 49.0691 75.7029 49.4148C75.381 49.7557 75.1206 50.0208 74.9217 50.2102C74.8507 50.2812 74.7749 50.3523 74.6944 50.4233C74.6139 50.4943 74.5382 50.5653 74.4672 50.6364C73.9132 51.1619 73.2574 51.5549 72.4998 51.8153C71.7422 52.071 71.0154 52.1989 70.3194 52.1989Z" fill="#14213D"/>
<path d="M43.3761 77V56.6364H50.2567C51.8477 56.6364 53.1535 56.9081 54.1744 57.4517C55.1952 57.9886 55.9509 58.7277 56.4414 59.669C56.9319 60.6103 57.1772 61.6809 57.1772 62.8807C57.1772 64.0805 56.9319 65.1444 56.4414 66.0724C55.9509 67.0005 55.1985 67.7296 54.1843 68.2599C53.1701 68.7836 51.8742 69.0455 50.2965 69.0455H44.7283V66.8182H50.217C51.3041 66.8182 52.1791 66.6591 52.842 66.3409C53.5115 66.0227 53.9954 65.572 54.2937 64.9886C54.5986 64.3987 54.7511 63.696 54.7511 62.8807C54.7511 62.0653 54.5986 61.3527 54.2937 60.7429C53.9888 60.133 53.5015 59.6624 52.832 59.331C52.1625 58.9929 51.2776 58.8239 50.1772 58.8239H45.842V77H43.3761ZM52.9613 67.8523L57.9727 77H55.109L50.1772 67.8523H52.9613ZM61.2862 77V56.6364H73.576V58.8239H63.7521V65.7045H72.9396V67.892H63.7521V74.8125H73.7351V77H61.2862ZM80.4865 56.6364V77H78.0206V56.6364H80.4865ZM91.7148 77H85.4308V56.6364H91.9933C93.9686 56.6364 95.659 57.044 97.0643 57.8594C98.4696 58.6681 99.5468 59.8314 100.296 61.3494C101.045 62.8608 101.419 64.6705 101.419 66.7784C101.419 68.8996 101.042 70.7259 100.286 72.2571C99.5302 73.7817 98.4298 74.955 96.9847 75.777C95.5397 76.5923 93.783 77 91.7148 77ZM87.8967 74.8125H91.5558C93.2395 74.8125 94.6348 74.4877 95.7418 73.8381C96.8488 73.1884 97.6741 72.2637 98.2177 71.0639C98.7612 69.8641 99.033 68.4356 99.033 66.7784C99.033 65.1345 98.7646 63.7192 98.2276 62.5327C97.6907 61.3395 96.8886 60.4247 95.8214 59.7884C94.7541 59.1454 93.4251 58.8239 91.8342 58.8239H87.8967V74.8125Z" fill="#14213D"/>
<path d="M12 53H52" stroke="#14213D" stroke-width="0.5"/>
<path d="M92 53H132" stroke="#14213D" stroke-width="0.5"/>
</svg>
