<svg width="249" height="55" viewBox="0 0 249 55" fill="none" xmlns="http://www.w3.org/2000/svg">
<path d="M0 18.3848C8 10.3848 16 10.3848 20 18.3848C24 10.3848 32 10.3848 40 18.3848C32 26.3848 24 26.3848 20 18.3848C16 26.3848 8 26.3848 0 18.3848Z" fill="#FF69B4"/>
<path d="M5.85795 4.24264C17.1717 4.24264 22.8285 9.89949 20.0001 18.3848C28.4854 15.5563 34.1422 21.2132 34.1422 32.5269C22.8285 32.5269 17.1717 26.8701 20.0001 18.3848C11.5148 21.2132 5.85795 15.5563 5.85795 4.24264Z" fill="#FF69B4"/>
<path d="M5.85787 32.5269C5.85787 21.2132 11.5147 15.5563 20 18.3848C17.1716 9.8995 22.8284 4.24264 34.1421 4.24264C34.1421 15.5563 28.4853 21.2132 20 18.3848C22.8284 26.8701 17.1716 32.5269 5.85787 32.5269Z" fill="#FF69B4"/>
<path d="M20.0001 24.7848C23.5347 24.7848 26.4001 21.9194 26.4001 18.3848C26.4001 14.8501 23.5347 11.9848 20.0001 11.9848C16.4655 11.9848 13.6001 14.8501 13.6001 18.3848C13.6001 21.9194 16.4655 24.7848 20.0001 24.7848Z" fill="#FF1493"/>
<path d="M20 24.7848C20 34.3848 24 42.3848 16 50.3848" stroke="#2E8B57" stroke-width="2.4"/>
<path d="M17.5998 38.3848C23.9998 34.3848 31.9998 34.3848 27.9998 42.3848C23.9998 46.3848 15.9998 46.3848 17.5998 38.3848Z" fill="#2E8B57"/>
<path d="M79.1094 42.4531L78.7344 44H70.3203C68.9922 40.8438 67.7344 38.1484 66.5469 35.9141C65.375 33.6641 64.1328 31.3125 62.8203 28.8594H59.3516L56.8672 39.5938C56.8359 39.7188 56.8047 39.8672 56.7734 40.0391C56.7578 40.2109 56.75 40.3359 56.75 40.4141C56.75 40.7734 56.8125 41.0859 56.9375 41.3516C57.0781 41.6172 57.3203 41.8281 57.6641 41.9844C57.8828 42.0781 58.3438 42.1797 59.0469 42.2891C59.7656 42.3828 60.3594 42.4375 60.8281 42.4531L60.4531 44H46.3906L46.7656 42.4531C47.1562 42.4219 47.7109 42.3672 48.4297 42.2891C49.1484 42.2109 49.6641 42.1094 49.9766 41.9844C50.5391 41.7656 50.9688 41.4531 51.2656 41.0469C51.5625 40.625 51.7656 40.1406 51.875 39.5938L57.4766 15.3125C57.5078 15.1562 57.5312 15 57.5469 14.8438C57.5781 14.6719 57.5938 14.5078 57.5938 14.3516C57.5938 14.0234 57.5312 13.7344 57.4062 13.4844C57.2812 13.2344 57.0469 13.0391 56.7031 12.8984C56.375 12.7734 55.8984 12.6484 55.2734 12.5234C54.6484 12.3984 54.1328 12.3203 53.7266 12.2891L54.0781 10.7422H69.0312C70.375 10.7422 71.6016 10.875 72.7109 11.1406C73.8203 11.4062 74.75 11.7734 75.5 12.2422C76.3281 12.7422 76.9766 13.3984 77.4453 14.2109C77.9297 15.0234 78.1719 15.9844 78.1719 17.0938C78.1719 18.5625 77.8984 19.9062 77.3516 21.125C76.8047 22.3281 76.0625 23.3594 75.125 24.2188C74.1406 25.1094 73.0234 25.8516 71.7734 26.4453C70.5234 27.0234 69.1484 27.4844 67.6484 27.8281C68.8672 30.1875 69.8594 32.0547 70.625 33.4297C71.3906 34.8047 72.2891 36.5 73.3203 38.5156C73.8516 39.5312 74.3281 40.2656 74.75 40.7188C75.1719 41.1562 75.6172 41.5078 76.0859 41.7734C76.4766 41.9922 76.9844 42.1562 77.6094 42.2656C78.2344 42.375 78.7344 42.4375 79.1094 42.4531ZM72.4062 17.5859C72.4062 15.9922 71.9141 14.75 70.9297 13.8594C69.9609 12.9688 68.5938 12.5234 66.8281 12.5234H63.1016L59.7969 26.9609H63.125C65.6875 26.9609 67.875 26.0703 69.6875 24.2891C71.5 22.4922 72.4062 20.2578 72.4062 17.5859ZM104.914 29.5625C104.914 31.4062 104.602 33.25 103.977 35.0938C103.352 36.9375 102.445 38.5547 101.258 39.9453C100.055 41.3828 98.6016 42.5391 96.8984 43.4141C95.2109 44.2734 93.25 44.7031 91.0156 44.7031C88.4219 44.7031 86.3125 43.8672 84.6875 42.1953C83.0781 40.5234 82.2734 38.2734 82.2734 35.4453C82.2734 33.3672 82.6172 31.4297 83.3047 29.6328C83.9922 27.8359 84.9141 26.2578 86.0703 24.8984C87.2422 23.5391 88.6875 22.4453 90.4062 21.6172C92.1406 20.7734 94.0156 20.3516 96.0312 20.3516C98.8125 20.3516 100.984 21.2031 102.547 22.9062C104.125 24.5938 104.914 26.8125 104.914 29.5625ZM100.133 28.6719C100.133 26.4531 99.7344 24.7891 98.9375 23.6797C98.1562 22.5703 97.0234 22.0156 95.5391 22.0156C94.2422 22.0156 93.0156 22.4141 91.8594 23.2109C90.7188 24.0078 89.7344 25.3047 88.9062 27.1016C88.2656 28.4609 87.7969 29.9766 87.5 31.6484C87.2031 33.3047 87.0547 34.8359 87.0547 36.2422C87.0547 38.4766 87.4375 40.1719 88.2031 41.3281C88.9844 42.4688 90.1562 43.0391 91.7188 43.0391C93.1094 43.0391 94.3438 42.6016 95.4219 41.7266C96.5 40.8516 97.375 39.7422 98.0469 38.3984C98.7188 37.0859 99.2344 35.5859 99.5938 33.8984C99.9531 32.1953 100.133 30.4531 100.133 28.6719ZM114.969 44.6797C112.656 44.6797 110.727 44.2734 109.18 43.4609C107.648 42.6328 106.883 41.5547 106.883 40.2266C106.883 39.6016 107.109 39.0156 107.562 38.4688C108.016 37.9219 108.57 37.6484 109.227 37.6484C109.852 37.6484 110.352 37.7969 110.727 38.0938C111.117 38.375 111.422 38.7109 111.641 39.1016C111.875 39.5078 112.078 39.9922 112.25 40.5547C112.438 41.1172 112.594 41.5781 112.719 41.9375C112.953 42.2031 113.273 42.4531 113.68 42.6875C114.102 42.9062 114.703 43.0156 115.484 43.0156C117.172 43.0156 118.445 42.5938 119.305 41.75C120.18 40.9062 120.617 39.7656 120.617 38.3281C120.617 37.2656 120.211 36.4219 119.398 35.7969C118.586 35.1562 117.375 34.5703 115.766 34.0391C115.188 33.8516 114.508 33.5703 113.727 33.1953C112.945 32.8047 112.32 32.3906 111.852 31.9531C111.289 31.4531 110.836 30.8594 110.492 30.1719C110.148 29.4844 109.977 28.6719 109.977 27.7344C109.977 25.7344 110.867 24.0078 112.648 22.5547C114.445 21.0859 116.648 20.3516 119.258 20.3516C119.867 20.3516 120.523 20.3828 121.227 20.4453C121.93 20.5078 122.703 20.6797 123.547 20.9609C124.281 21.2109 124.906 21.5859 125.422 22.0859C125.938 22.5703 126.195 23.2031 126.195 23.9844C126.195 24.625 125.977 25.2109 125.539 25.7422C125.117 26.2578 124.555 26.5156 123.852 26.5156C123.273 26.5156 122.797 26.3906 122.422 26.1406C122.047 25.8906 121.734 25.5547 121.484 25.1328C121.234 24.7109 121.031 24.2578 120.875 23.7734C120.719 23.2891 120.547 22.8125 120.359 22.3438C120.062 22.2188 119.797 22.1328 119.562 22.0859C119.328 22.0391 119.016 22.0156 118.625 22.0156C117.094 22.0156 115.93 22.4297 115.133 23.2578C114.352 24.0703 113.961 25.0391 113.961 26.1641C113.961 27.2578 114.312 28.0859 115.016 28.6484C115.734 29.1953 116.914 29.7656 118.555 30.3594C120.68 31.125 122.219 32 123.172 32.9844C124.141 33.9688 124.625 35.1875 124.625 36.6406C124.625 39.0156 123.711 40.9531 121.883 42.4531C120.055 43.9375 117.75 44.6797 114.969 44.6797ZM148.906 25.2266C148.906 26.8828 148.383 28.3047 147.336 29.4922C146.305 30.6797 144.797 31.625 142.812 32.3281C141.359 32.8594 139.891 33.2891 138.406 33.6172C136.922 33.9453 135.281 34.2188 133.484 34.4375C133.484 36.9062 133.938 38.7969 134.844 40.1094C135.766 41.4062 137.109 42.0547 138.875 42.0547C140.438 42.0547 141.812 41.6641 143 40.8828C144.203 40.1016 145.383 38.9375 146.539 37.3906L147.875 38.375C146.625 40.2812 145.062 41.8047 143.188 42.9453C141.312 44.0859 139.367 44.6562 137.352 44.6562C134.586 44.6562 132.469 43.8828 131 42.3359C129.547 40.7891 128.82 38.5938 128.82 35.75C128.82 33.7812 129.125 31.9062 129.734 30.125C130.359 28.3281 131.266 26.6875 132.453 25.2031C133.609 23.75 135.023 22.5781 136.695 21.6875C138.383 20.7969 140.242 20.3516 142.273 20.3516C144.523 20.3516 146.188 20.8125 147.266 21.7344C148.359 22.6406 148.906 23.8047 148.906 25.2266ZM144.594 24.6406C144.594 24.0312 144.508 23.5547 144.336 23.2109C144.164 22.8516 143.945 22.5859 143.68 22.4141C143.398 22.2266 143.102 22.1094 142.789 22.0625C142.477 22.0156 142.156 21.9922 141.828 21.9922C139.953 21.9922 138.219 23.0234 136.625 25.0859C135.047 27.1484 134.047 29.7188 133.625 32.7969C134.719 32.6406 135.953 32.4219 137.328 32.1406C138.703 31.8438 139.844 31.4609 140.75 30.9922C142.047 30.3203 143.008 29.4609 143.633 28.4141C144.273 27.3516 144.594 26.0938 144.594 24.6406ZM148.391 9.64062C148.391 10.2656 148.242 10.7734 147.945 11.1641C147.648 11.5391 147.195 11.9609 146.586 12.4297C145.852 12.9922 144.898 13.6875 143.727 14.5156C142.57 15.3437 141 16.5 139.016 17.9844L138.172 17.2344C139.719 15.1719 140.789 13.7109 141.383 12.8516C141.992 11.9922 142.641 11.0469 143.328 10.0156C143.875 9.17188 144.398 8.61719 144.898 8.35156C145.414 8.08594 145.969 7.95312 146.562 7.95312C147.078 7.95312 147.508 8.125 147.852 8.46875C148.211 8.8125 148.391 9.20312 148.391 9.64062Z" fill="#333333"/>
<path d="M191.078 24.5938C190.156 24.6719 189.227 24.8594 188.289 25.1562C187.352 25.4375 186.633 25.8906 186.133 26.5156C185.805 26.8906 185.469 27.4453 185.125 28.1797C184.797 28.9141 184.398 29.7812 183.93 30.7812C183.461 31.7812 182.984 32.7656 182.5 33.7344C182.016 34.7031 181.391 35.6719 180.625 36.6406C181.25 37.3906 182.016 38.2109 182.922 39.1016C183.828 39.9766 184.602 40.6094 185.242 41C185.867 41.3594 186.75 41.6641 187.891 41.9141C189.047 42.1641 189.992 42.3047 190.727 42.3359V44H181.07L177.578 40.0156C177.062 40.5781 176.469 41.1641 175.797 41.7734C175.141 42.3672 174.445 42.8828 173.711 43.3203C172.898 43.7891 172.078 44.1562 171.25 44.4219C170.438 44.6875 169.477 44.8203 168.367 44.8203C167.211 44.8203 166.062 44.6484 164.922 44.3047C163.781 43.9766 162.742 43.4453 161.805 42.7109C160.898 41.9922 160.164 41.0703 159.602 39.9453C159.039 38.8203 158.758 37.4766 158.758 35.9141C158.758 33.9766 159.266 32.2266 160.281 30.6641C161.312 29.0859 163.227 27.4141 166.023 25.6484C164.758 23.9766 163.773 22.5312 163.07 21.3125C162.367 20.0938 162.016 18.7266 162.016 17.2109C162.016 16.1328 162.227 15.1484 162.648 14.2578C163.086 13.3516 163.695 12.5625 164.477 11.8906C165.195 11.2812 166.07 10.8047 167.102 10.4609C168.133 10.1172 169.18 9.94531 170.242 9.94531C171.492 9.94531 172.586 10.1484 173.523 10.5547C174.477 10.9453 175.25 11.4609 175.844 12.1016C176.391 12.6953 176.805 13.3828 177.086 14.1641C177.383 14.9453 177.531 15.7266 177.531 16.5078C177.531 18.3828 176.945 20 175.773 21.3594C174.617 22.7031 173.016 23.9141 170.969 24.9922C172.438 26.9766 173.875 28.7891 175.281 30.4297C176.688 32.0547 178.039 33.6562 179.336 35.2344C180.383 33.5625 181.195 31.9922 181.773 30.5234C182.352 29.0391 182.641 27.7344 182.641 26.6094C182.641 26.1094 182.273 25.7188 181.539 25.4375C180.82 25.1406 179.82 24.8594 178.539 24.5938V22.9297H191.078V24.5938ZM174.508 16.9766C174.508 15.3828 174.156 14.1641 173.453 13.3203C172.75 12.4609 171.75 12.0312 170.453 12.0312C169.719 12.0312 169.109 12.1797 168.625 12.4766C168.141 12.7734 167.727 13.1484 167.383 13.6016C167.07 14.0391 166.844 14.5078 166.703 15.0078C166.562 15.5078 166.492 15.9531 166.492 16.3438C166.492 17.4219 166.773 18.5156 167.336 19.625C167.898 20.7188 168.773 22.0469 169.961 23.6094C171.57 22.7031 172.727 21.7266 173.43 20.6797C174.148 19.6172 174.508 18.3828 174.508 16.9766ZM176.336 38.6562C174.883 36.8125 173.242 34.7969 171.414 32.6094C169.602 30.4062 168.148 28.5469 167.055 27.0312C165.789 27.9062 164.891 28.9375 164.359 30.125C163.844 31.2969 163.586 32.6406 163.586 34.1562C163.586 36.2812 164.188 38.0469 165.391 39.4531C166.609 40.8438 168.234 41.5391 170.266 41.5391C171.406 41.5391 172.523 41.2969 173.617 40.8125C174.727 40.3125 175.633 39.5938 176.336 38.6562Z" fill="#FF69B4"/>
<path d="M208.945 44.7734C206.961 44.7734 205.055 44.3828 203.227 43.6016C201.414 42.8203 199.805 41.6953 198.398 40.2266C197.008 38.7578 195.898 36.9688 195.07 34.8594C194.242 32.7344 193.828 30.3438 193.828 27.6875C193.828 25.0312 194.234 22.625 195.047 20.4688C195.859 18.2969 196.984 16.4297 198.422 14.8672C199.844 13.3203 201.523 12.125 203.461 11.2812C205.398 10.4375 207.469 10.0156 209.672 10.0156C211.312 10.0156 212.797 10.2188 214.125 10.625C215.453 11.0312 216.719 11.6016 217.922 12.3359L218.883 10.7422H220.758L220.969 22.6016H219.047C218.797 21.4453 218.422 20.1953 217.922 18.8516C217.422 17.4922 216.836 16.3438 216.164 15.4062C215.414 14.3438 214.523 13.5156 213.492 12.9219C212.461 12.3125 211.281 12.0078 209.953 12.0078C208.438 12.0078 207.023 12.3437 205.711 13.0156C204.414 13.6875 203.289 14.6797 202.336 15.9922C201.43 17.2578 200.719 18.8672 200.203 20.8203C199.688 22.7734 199.43 24.9531 199.43 27.3594C199.43 29.4844 199.695 31.4375 200.227 33.2188C200.773 34.9844 201.547 36.5391 202.547 37.8828C203.547 39.2109 204.727 40.25 206.086 41C207.461 41.75 208.992 42.125 210.68 42.125C211.945 42.125 213.109 41.9297 214.172 41.5391C215.234 41.1328 216.156 40.6016 216.938 39.9453C217.719 39.2578 218.406 38.4766 219 37.6016C219.594 36.7266 220.078 35.7734 220.453 34.7422L222.211 35.5859C220.867 38.8828 219.086 41.2422 216.867 42.6641C214.648 44.0703 212.008 44.7734 208.945 44.7734ZM247.055 32.2109C247.055 33.8359 246.797 35.4375 246.281 37.0156C245.766 38.5781 245.031 39.9062 244.078 41C243 42.25 241.75 43.1797 240.328 43.7891C238.906 44.3984 237.312 44.7031 235.547 44.7031C234.078 44.7031 232.68 44.4297 231.352 43.8828C230.023 43.3203 228.844 42.5078 227.812 41.4453C226.797 40.3984 225.984 39.125 225.375 37.625C224.781 36.1094 224.484 34.4141 224.484 32.5391C224.484 28.9297 225.531 25.9766 227.625 23.6797C229.734 21.3828 232.492 20.2344 235.898 20.2344C239.133 20.2344 241.797 21.3281 243.891 23.5156C246 25.6875 247.055 28.5859 247.055 32.2109ZM242.203 32.2578C242.203 31.0859 242.086 29.8516 241.852 28.5547C241.617 27.2422 241.266 26.1328 240.797 25.2266C240.297 24.2578 239.641 23.4844 238.828 22.9062C238.016 22.3125 237.023 22.0156 235.852 22.0156C234.648 22.0156 233.617 22.3125 232.758 22.9062C231.914 23.5 231.227 24.3125 230.695 25.3438C230.195 26.2969 229.844 27.3828 229.641 28.6016C229.438 29.8203 229.336 31 229.336 32.1406C229.336 33.6406 229.453 35.0312 229.688 36.3125C229.938 37.5781 230.328 38.7109 230.859 39.7109C231.391 40.7109 232.055 41.5 232.852 42.0781C233.664 42.6406 234.664 42.9219 235.852 42.9219C237.805 42.9219 239.352 41.9766 240.492 40.0859C241.633 38.1953 242.203 35.5859 242.203 32.2578Z" fill="#333333"/>
</svg>
