<svg width="284" height="160" viewBox="0 0 284 160" fill="none" xmlns="http://www.w3.org/2000/svg">
<path d="M142 123C175.137 123 202 96.1371 202 63C202 29.8629 175.137 3 142 3C108.863 3 82 29.8629 82 63C82 96.1371 108.863 123 142 123Z" fill="#2ECC71"/>
<path d="M100 33C112 38 172 38 184 33" stroke="#27AE60" stroke-width="3"/>
<path d="M94 48C107 53 177 53 190 48" stroke="#27AE60" stroke-width="3"/>
<path d="M90 63C104 68 180 68 194 63" stroke="#27AE60" stroke-width="3"/>
<path d="M122 18L114 3M122 18V0M122 18L130 3" stroke="#F1C40F" stroke-width="2"/>
<path d="M162 18L154 3M162 18V0M162 18L170 3" stroke="#F1C40F" stroke-width="2"/>
<path d="M16.75 152.438C15.4792 153.219 13.9167 153.609 12.0625 153.609C9.01042 153.609 6.51042 152.552 4.5625 150.438C2.53125 148.312 1.51562 145.406 1.51562 141.719C1.51562 137.99 2.54167 135 4.59375 132.75C6.64583 130.5 9.35938 129.375 12.7344 129.375C15.6615 129.375 18.0104 130.12 19.7812 131.609C21.5625 133.089 22.5833 134.938 22.8438 137.156H18.1094C17.7448 135.583 16.8542 134.484 15.4375 133.859C14.6458 133.516 13.7656 133.344 12.7969 133.344C10.9427 133.344 9.41667 134.047 8.21875 135.453C7.03125 136.849 6.4375 138.953 6.4375 141.766C6.4375 144.599 7.08333 146.604 8.375 147.781C9.66667 148.958 11.1354 149.547 12.7812 149.547C14.3958 149.547 15.7188 149.083 16.75 148.156C17.7812 147.219 18.4167 145.995 18.6562 144.484H13.3281V140.641H22.9219V153H19.7344L19.25 150.125C18.3229 151.219 17.4896 151.99 16.75 152.438ZM35.7344 140.078C33.9427 140.078 32.7396 140.661 32.125 141.828C31.7812 142.484 31.6094 143.495 31.6094 144.859V153H27.125V135.969H31.375V138.938C32.0625 137.802 32.6615 137.026 33.1719 136.609C34.0052 135.911 35.0885 135.562 36.4219 135.562C36.5052 135.562 36.5729 135.568 36.625 135.578C36.6875 135.578 36.8177 135.583 37.0156 135.594V140.156C36.7344 140.125 36.4844 140.104 36.2656 140.094C36.0469 140.083 35.8698 140.078 35.7344 140.078ZM54.2188 148C54.1042 149.01 53.5781 150.036 52.6406 151.078C51.1823 152.734 49.1406 153.562 46.5156 153.562C44.349 153.562 42.4375 152.865 40.7812 151.469C39.125 150.073 38.2969 147.802 38.2969 144.656C38.2969 141.708 39.0417 139.448 40.5312 137.875C42.0312 136.302 43.974 135.516 46.3594 135.516C47.776 135.516 49.0521 135.781 50.1875 136.312C51.3229 136.844 52.2604 137.682 53 138.828C53.6667 139.839 54.099 141.01 54.2969 142.344C54.4115 143.125 54.4583 144.25 54.4375 145.719H42.7812C42.8438 147.427 43.3802 148.625 44.3906 149.312C45.0052 149.74 45.7448 149.953 46.6094 149.953C47.526 149.953 48.2708 149.693 48.8438 149.172C49.1562 148.891 49.4323 148.5 49.6719 148H54.2188ZM49.8125 142.781C49.7396 141.604 49.3802 140.714 48.7344 140.109C48.099 139.495 47.3073 139.188 46.3594 139.188C45.3281 139.188 44.526 139.51 43.9531 140.156C43.3906 140.802 43.0365 141.677 42.8906 142.781H49.8125ZM72.0312 148C71.9167 149.01 71.3906 150.036 70.4531 151.078C68.9948 152.734 66.9531 153.562 64.3281 153.562C62.1615 153.562 60.25 152.865 58.5938 151.469C56.9375 150.073 56.1094 147.802 56.1094 144.656C56.1094 141.708 56.8542 139.448 58.3438 137.875C59.8438 136.302 61.7865 135.516 64.1719 135.516C65.5885 135.516 66.8646 135.781 68 136.312C69.1354 136.844 70.0729 137.682 70.8125 138.828C71.4792 139.839 71.9115 141.01 72.1094 142.344C72.224 143.125 72.2708 144.25 72.25 145.719H60.5938C60.6562 147.427 61.1927 148.625 62.2031 149.312C62.8177 149.74 63.5573 149.953 64.4219 149.953C65.3385 149.953 66.0833 149.693 66.6562 149.172C66.9688 148.891 67.2448 148.5 67.4844 148H72.0312ZM67.625 142.781C67.5521 141.604 67.1927 140.714 66.5469 140.109C65.9115 139.495 65.1198 139.188 64.1719 139.188C63.1406 139.188 62.3385 139.51 61.7656 140.156C61.2031 140.802 60.849 141.677 60.7031 142.781H67.625ZM83.2812 139.266C81.7708 139.266 80.7344 139.906 80.1719 141.188C79.8802 141.865 79.7344 142.729 79.7344 143.781V153H75.2969V136H79.5938V138.484C80.1667 137.609 80.7083 136.979 81.2188 136.594C82.1354 135.906 83.2969 135.562 84.7031 135.562C86.4635 135.562 87.901 136.026 89.0156 136.953C90.1406 137.87 90.7031 139.396 90.7031 141.531V153H86.1406V142.641C86.1406 141.745 86.0208 141.057 85.7812 140.578C85.3438 139.703 84.5104 139.266 83.2812 139.266ZM116.391 148.266H107.906L106.312 153H101.281L109.5 129.969H114.938L123.094 153H117.875L116.391 148.266ZM115.047 144.297L112.172 135.234L109.203 144.297H115.047ZM140.406 142.078H135.844C135.76 141.443 135.547 140.87 135.203 140.359C134.703 139.672 133.927 139.328 132.875 139.328C131.375 139.328 130.349 140.073 129.797 141.562C129.505 142.354 129.359 143.406 129.359 144.719C129.359 145.969 129.505 146.974 129.797 147.734C130.328 149.151 131.328 149.859 132.797 149.859C133.839 149.859 134.578 149.578 135.016 149.016C135.453 148.453 135.719 147.724 135.812 146.828H140.359C140.255 148.182 139.766 149.464 138.891 150.672C137.495 152.62 135.427 153.594 132.688 153.594C129.948 153.594 127.932 152.781 126.641 151.156C125.349 149.531 124.703 147.422 124.703 144.828C124.703 141.901 125.417 139.625 126.844 138C128.271 136.375 130.24 135.562 132.75 135.562C134.885 135.562 136.63 136.042 137.984 137C139.349 137.958 140.156 139.651 140.406 142.078ZM152.047 140.078C150.255 140.078 149.052 140.661 148.438 141.828C148.094 142.484 147.922 143.495 147.922 144.859V153H143.438V135.969H147.688V138.938C148.375 137.802 148.974 137.026 149.484 136.609C150.318 135.911 151.401 135.562 152.734 135.562C152.818 135.562 152.885 135.568 152.938 135.578C153 135.578 153.13 135.583 153.328 135.594V140.156C153.047 140.125 152.797 140.104 152.578 140.094C152.359 140.083 152.182 140.078 152.047 140.078ZM170.531 148C170.417 149.01 169.891 150.036 168.953 151.078C167.495 152.734 165.453 153.562 162.828 153.562C160.661 153.562 158.75 152.865 157.094 151.469C155.438 150.073 154.609 147.802 154.609 144.656C154.609 141.708 155.354 139.448 156.844 137.875C158.344 136.302 160.286 135.516 162.672 135.516C164.089 135.516 165.365 135.781 166.5 136.312C167.635 136.844 168.573 137.682 169.312 138.828C169.979 139.839 170.411 141.01 170.609 142.344C170.724 143.125 170.771 144.25 170.75 145.719H159.094C159.156 147.427 159.693 148.625 160.703 149.312C161.318 149.74 162.057 149.953 162.922 149.953C163.839 149.953 164.583 149.693 165.156 149.172C165.469 148.891 165.745 148.5 165.984 148H170.531ZM166.125 142.781C166.052 141.604 165.693 140.714 165.047 140.109C164.411 139.495 163.62 139.188 162.672 139.188C161.641 139.188 160.839 139.51 160.266 140.156C159.703 140.802 159.349 141.677 159.203 142.781H166.125Z" fill="#2C3E50"/>
<path d="M187.438 153H182.953V129.969H189.953L194.141 148.078L198.297 129.969H205.219V153H200.734V137.422C200.734 136.974 200.74 136.349 200.75 135.547C200.76 134.734 200.766 134.109 200.766 133.672L196.406 153H191.734L187.406 133.672C187.406 134.109 187.411 134.734 187.422 135.547C187.432 136.349 187.438 136.974 187.438 137.422V153ZM209.969 137.812C211.146 136.312 213.167 135.562 216.031 135.562C217.896 135.562 219.552 135.932 221 136.672C222.448 137.411 223.172 138.807 223.172 140.859V148.672C223.172 149.214 223.182 149.87 223.203 150.641C223.234 151.224 223.323 151.62 223.469 151.828C223.615 152.036 223.833 152.208 224.125 152.344V153H219.281C219.146 152.656 219.052 152.333 219 152.031C218.948 151.729 218.906 151.385 218.875 151C218.26 151.667 217.552 152.234 216.75 152.703C215.792 153.255 214.708 153.531 213.5 153.531C211.958 153.531 210.682 153.094 209.672 152.219C208.672 151.333 208.172 150.083 208.172 148.469C208.172 146.375 208.979 144.859 210.594 143.922C211.479 143.411 212.781 143.047 214.5 142.828L216.016 142.641C216.839 142.536 217.427 142.406 217.781 142.25C218.417 141.979 218.734 141.557 218.734 140.984C218.734 140.286 218.49 139.807 218 139.547C217.521 139.276 216.812 139.141 215.875 139.141C214.823 139.141 214.078 139.401 213.641 139.922C213.328 140.307 213.12 140.828 213.016 141.484H208.719C208.812 139.995 209.229 138.771 209.969 137.812ZM213.281 149.781C213.698 150.125 214.208 150.297 214.812 150.297C215.771 150.297 216.651 150.016 217.453 149.453C218.266 148.891 218.688 147.865 218.719 146.375V144.719C218.438 144.896 218.151 145.042 217.859 145.156C217.578 145.26 217.188 145.359 216.688 145.453L215.688 145.641C214.75 145.807 214.078 146.01 213.672 146.25C212.984 146.656 212.641 147.286 212.641 148.141C212.641 148.901 212.854 149.448 213.281 149.781ZM235.703 140.078C233.911 140.078 232.708 140.661 232.094 141.828C231.75 142.484 231.578 143.495 231.578 144.859V153H227.094V135.969H231.344V138.938C232.031 137.802 232.63 137.026 233.141 136.609C233.974 135.911 235.057 135.562 236.391 135.562C236.474 135.562 236.542 135.568 236.594 135.578C236.656 135.578 236.786 135.583 236.984 135.594V140.156C236.703 140.125 236.453 140.104 236.234 140.094C236.016 140.083 235.839 140.078 235.703 140.078ZM255.234 153H249.859L245.781 145.719L243.938 147.641V153H239.562V130.047H243.938V142.453L249.484 136.047H255L249.047 142.562L255.234 153ZM272 148C271.885 149.01 271.359 150.036 270.422 151.078C268.964 152.734 266.922 153.562 264.297 153.562C262.13 153.562 260.219 152.865 258.562 151.469C256.906 150.073 256.078 147.802 256.078 144.656C256.078 141.708 256.823 139.448 258.312 137.875C259.812 136.302 261.755 135.516 264.141 135.516C265.557 135.516 266.833 135.781 267.969 136.312C269.104 136.844 270.042 137.682 270.781 138.828C271.448 139.839 271.88 141.01 272.078 142.344C272.193 143.125 272.24 144.25 272.219 145.719H260.562C260.625 147.427 261.161 148.625 262.172 149.312C262.786 149.74 263.526 149.953 264.391 149.953C265.307 149.953 266.052 149.693 266.625 149.172C266.938 148.891 267.214 148.5 267.453 148H272ZM267.594 142.781C267.521 141.604 267.161 140.714 266.516 140.109C265.88 139.495 265.089 139.188 264.141 139.188C263.109 139.188 262.307 139.51 261.734 140.156C261.172 140.802 260.818 141.677 260.672 142.781H267.594ZM283.031 149.828V153.156L280.922 153.234C278.818 153.307 277.38 152.943 276.609 152.141C276.109 151.63 275.859 150.844 275.859 149.781V139.297H273.484V136.125H275.859V131.375H280.266V136.125H283.031V139.297H280.266V148.297C280.266 148.995 280.354 149.432 280.531 149.609C280.708 149.776 281.25 149.859 282.156 149.859C282.292 149.859 282.432 149.859 282.578 149.859C282.734 149.849 282.885 149.839 283.031 149.828Z" fill="#4CAF50"/>
</svg>
