<svg width="189" height="152" viewBox="0 0 189 152" fill="none" xmlns="http://www.w3.org/2000/svg">
<path opacity="0.1" d="M95 120C128.137 120 155 93.1371 155 60C155 26.8629 128.137 0 95 0C61.8629 0 35 26.8629 35 60C35 93.1371 61.8629 120 95 120Z" fill="#4CAF50"/>
<path d="M95 20C108.333 33.3333 108.333 46.6667 95 60C81.6667 46.6667 81.6667 33.3333 95 20Z" fill="#4CAF50"/>
<path d="M75 40C88.3333 53.3333 88.3333 66.6667 75 80C61.6667 66.6667 61.6667 53.3333 75 40Z" fill="#66BB6A"/>
<path d="M115 40C128.333 53.3333 128.333 66.6667 115 80C101.667 66.6667 101.667 53.3333 115 40Z" fill="#81C784"/>
<path d="M65 100C85 93.3333 105 93.3333 125 100" stroke="#4CAF50" stroke-width="2"/>
<path d="M60 110C83.3333 103.333 106.667 103.333 130 110" stroke="#4CAF50" stroke-width="2"/>
<path d="M2.35938 145V122.094H18.0625V125.969H6.98438V131.391H16.5469V135.266H6.98438V145H2.35938ZM26.0625 145H21.6719V128.406H25.75V130.766C26.4479 129.651 27.0729 128.917 27.625 128.562C28.1875 128.208 28.8229 128.031 29.5312 128.031C30.5312 128.031 31.4948 128.307 32.4219 128.859L31.0625 132.688C30.3229 132.208 29.6354 131.969 29 131.969C28.3854 131.969 27.8646 132.141 27.4375 132.484C27.0104 132.818 26.6719 133.427 26.4219 134.312C26.1823 135.198 26.0625 137.052 26.0625 139.875V145ZM43.9375 139.719L48.3125 140.453C47.75 142.057 46.8594 143.281 45.6406 144.125C44.4323 144.958 42.9167 145.375 41.0938 145.375C38.2083 145.375 36.0729 144.432 34.6875 142.547C33.5938 141.036 33.0469 139.13 33.0469 136.828C33.0469 134.078 33.7656 131.927 35.2031 130.375C36.6406 128.812 38.4583 128.031 40.6562 128.031C43.125 128.031 45.0729 128.849 46.5 130.484C47.9271 132.109 48.6094 134.604 48.5469 137.969H37.5469C37.5781 139.271 37.9323 140.286 38.6094 141.016C39.2865 141.734 40.1302 142.094 41.1406 142.094C41.8281 142.094 42.4062 141.906 42.875 141.531C43.3438 141.156 43.6979 140.552 43.9375 139.719ZM44.1875 135.281C44.1562 134.01 43.8281 133.047 43.2031 132.391C42.5781 131.724 41.8177 131.391 40.9219 131.391C39.9635 131.391 39.1719 131.74 38.5469 132.438C37.9219 133.135 37.6146 134.083 37.625 135.281H44.1875ZM50.5938 140.266L55 139.594C55.1875 140.448 55.5677 141.099 56.1406 141.547C56.7135 141.984 57.5156 142.203 58.5469 142.203C59.6823 142.203 60.5365 141.995 61.1094 141.578C61.4948 141.286 61.6875 140.896 61.6875 140.406C61.6875 140.073 61.5833 139.797 61.375 139.578C61.1562 139.37 60.6667 139.177 59.9062 139C56.3646 138.219 54.1198 137.505 53.1719 136.859C51.8594 135.964 51.2031 134.719 51.2031 133.125C51.2031 131.688 51.7708 130.479 52.9062 129.5C54.0417 128.521 55.8021 128.031 58.1875 128.031C60.4583 128.031 62.1458 128.401 63.25 129.141C64.3542 129.88 65.1146 130.974 65.5312 132.422L61.3906 133.188C61.2135 132.542 60.875 132.047 60.375 131.703C59.8854 131.359 59.1823 131.188 58.2656 131.188C57.1094 131.188 56.2812 131.349 55.7812 131.672C55.4479 131.901 55.2812 132.198 55.2812 132.562C55.2812 132.875 55.4271 133.141 55.7188 133.359C56.1146 133.651 57.4792 134.062 59.8125 134.594C62.1562 135.125 63.7917 135.776 64.7188 136.547C65.6354 137.328 66.0938 138.417 66.0938 139.812C66.0938 141.333 65.4583 142.641 64.1875 143.734C62.9167 144.828 61.0365 145.375 58.5469 145.375C56.2865 145.375 54.4948 144.917 53.1719 144C51.8594 143.083 51 141.839 50.5938 140.266ZM74.3281 122.094V130.516C75.7448 128.859 77.4375 128.031 79.4062 128.031C80.4167 128.031 81.3281 128.219 82.1406 128.594C82.9531 128.969 83.5625 129.448 83.9688 130.031C84.3854 130.615 84.6667 131.26 84.8125 131.969C84.9688 132.677 85.0469 133.776 85.0469 135.266V145H80.6562V136.234C80.6562 134.495 80.5729 133.391 80.4062 132.922C80.2396 132.453 79.9427 132.083 79.5156 131.812C79.099 131.531 78.5729 131.391 77.9375 131.391C77.2083 131.391 76.5573 131.568 75.9844 131.922C75.4115 132.276 74.9896 132.812 74.7188 133.531C74.4583 134.24 74.3281 135.292 74.3281 136.688V145H69.9375V122.094H74.3281ZM98.4844 145V122.094H114.188V125.969H103.109V131.391H112.672V135.266H103.109V145H98.4844ZM117.984 126.156V122.094H122.375V126.156H117.984ZM117.984 145V128.406H122.375V145H117.984ZM136.5 139.719L140.875 140.453C140.312 142.057 139.422 143.281 138.203 144.125C136.995 144.958 135.479 145.375 133.656 145.375C130.771 145.375 128.635 144.432 127.25 142.547C126.156 141.036 125.609 139.13 125.609 136.828C125.609 134.078 126.328 131.927 127.766 130.375C129.203 128.812 131.021 128.031 133.219 128.031C135.688 128.031 137.635 128.849 139.062 130.484C140.49 132.109 141.172 134.604 141.109 137.969H130.109C130.141 139.271 130.495 140.286 131.172 141.016C131.849 141.734 132.693 142.094 133.703 142.094C134.391 142.094 134.969 141.906 135.438 141.531C135.906 141.156 136.26 140.552 136.5 139.719ZM136.75 135.281C136.719 134.01 136.391 133.047 135.766 132.391C135.141 131.724 134.38 131.391 133.484 131.391C132.526 131.391 131.734 131.74 131.109 132.438C130.484 133.135 130.177 134.083 130.188 135.281H136.75ZM144.703 145V122.094H149.094V145H144.703ZM168.828 145H164.75V142.562C164.073 143.51 163.271 144.219 162.344 144.688C161.427 145.146 160.5 145.375 159.562 145.375C157.656 145.375 156.021 144.609 154.656 143.078C153.302 141.536 152.625 139.391 152.625 136.641C152.625 133.828 153.286 131.693 154.609 130.234C155.932 128.766 157.604 128.031 159.625 128.031C161.479 128.031 163.083 128.802 164.438 130.344V122.094H168.828V145ZM157.109 136.344C157.109 138.115 157.354 139.396 157.844 140.188C158.552 141.333 159.542 141.906 160.812 141.906C161.823 141.906 162.682 141.479 163.391 140.625C164.099 139.76 164.453 138.474 164.453 136.766C164.453 134.859 164.109 133.49 163.422 132.656C162.734 131.812 161.854 131.391 160.781 131.391C159.74 131.391 158.865 131.807 158.156 132.641C157.458 133.464 157.109 134.698 157.109 136.344ZM171.625 140.266L176.031 139.594C176.219 140.448 176.599 141.099 177.172 141.547C177.745 141.984 178.547 142.203 179.578 142.203C180.714 142.203 181.568 141.995 182.141 141.578C182.526 141.286 182.719 140.896 182.719 140.406C182.719 140.073 182.615 139.797 182.406 139.578C182.188 139.37 181.698 139.177 180.938 139C177.396 138.219 175.151 137.505 174.203 136.859C172.891 135.964 172.234 134.719 172.234 133.125C172.234 131.688 172.802 130.479 173.938 129.5C175.073 128.521 176.833 128.031 179.219 128.031C181.49 128.031 183.177 128.401 184.281 129.141C185.385 129.88 186.146 130.974 186.562 132.422L182.422 133.188C182.245 132.542 181.906 132.047 181.406 131.703C180.917 131.359 180.214 131.188 179.297 131.188C178.141 131.188 177.312 131.349 176.812 131.672C176.479 131.901 176.312 132.198 176.312 132.562C176.312 132.875 176.458 133.141 176.75 133.359C177.146 133.651 178.51 134.062 180.844 134.594C183.188 135.125 184.823 135.776 185.75 136.547C186.667 137.328 187.125 138.417 187.125 139.812C187.125 141.333 186.49 142.641 185.219 143.734C183.948 144.828 182.068 145.375 179.578 145.375C177.318 145.375 175.526 144.917 174.203 144C172.891 143.083 172.031 141.839 171.625 140.266Z" fill="#2E7D32"/>
</svg>
