<svg width="288" height="49" viewBox="0 0 288 49" fill="none" xmlns="http://www.w3.org/2000/svg">
<path d="M21.0312 12.4844H19.8438C19.5417 11.6406 19.0208 10.7865 18.2812 9.92188C17.5417 9.05729 16.8073 8.54688 16.0781 8.39062C15.7656 8.31771 15.3281 8.27604 14.7656 8.26562C14.2135 8.24479 13.7552 8.23438 13.3906 8.23438H10.1719V16.7969H12.4531C13.026 16.7969 13.5469 16.7292 14.0156 16.5938C14.4844 16.4583 14.9115 16.1979 15.2969 15.8125C15.5365 15.5729 15.776 15.151 16.0156 14.5469C16.2656 13.9427 16.4271 13.4167 16.5 12.9688H17.6875V22.2188H16.5C16.4375 21.7812 16.276 21.2344 16.0156 20.5781C15.7656 19.9115 15.526 19.4531 15.2969 19.2031C14.9531 18.8281 14.5469 18.5729 14.0781 18.4375C13.6094 18.2917 13.0677 18.2188 12.4531 18.2188H10.1719V24.6094C10.1719 25.276 10.2188 25.8073 10.3125 26.2031C10.4167 26.5885 10.6042 26.8854 10.875 27.0938C11.1354 27.2917 11.4896 27.4219 11.9375 27.4844C12.3958 27.5469 13.0156 27.5781 13.7969 27.5781C14.1615 27.5781 14.599 27.5729 15.1094 27.5625C15.6198 27.5521 16.0677 27.5208 16.4531 27.4688C16.8906 27.4167 17.2969 27.3385 17.6719 27.2344C18.0573 27.1302 18.3438 26.9792 18.5312 26.7812C19.0312 26.2708 19.5938 25.4948 20.2188 24.4531C20.8438 23.401 21.2552 22.6146 21.4531 22.0938H22.5938L22.1719 29H1.375V27.7812C1.66667 27.7604 2.0625 27.7188 2.5625 27.6562C3.0625 27.5938 3.41667 27.5208 3.625 27.4375C4.02083 27.2708 4.28646 27.0625 4.42188 26.8125C4.55729 26.5521 4.625 26.224 4.625 25.8281V10.1875C4.625 9.8125 4.56771 9.50521 4.45312 9.26562C4.33854 9.01562 4.0625 8.79167 3.625 8.59375C3.35417 8.46875 2.97396 8.35417 2.48438 8.25C1.99479 8.14583 1.625 8.07812 1.375 8.04688V6.82812H21.0312V12.4844ZM42.1562 28.6719C41.6979 28.8698 41.1562 29.0521 40.5312 29.2188C39.9062 29.3854 39.2448 29.4688 38.5469 29.4688C37.2656 29.4688 36.3229 29.2812 35.7188 28.9062C35.1146 28.5208 34.7031 27.974 34.4844 27.2656H34.3906C34.0365 27.6198 33.6927 27.9219 33.3594 28.1719C33.0365 28.4219 32.6875 28.6354 32.3125 28.8125C31.8229 29.0417 31.349 29.2083 30.8906 29.3125C30.4427 29.4271 29.8125 29.4844 29 29.4844C27.7917 29.4844 26.7604 29.1302 25.9062 28.4219C25.0521 27.7031 24.625 26.7552 24.625 25.5781C24.625 24.901 24.7188 24.3281 24.9062 23.8594C25.0938 23.3802 25.3594 22.9583 25.7031 22.5938C26.0156 22.2604 26.375 21.9844 26.7812 21.7656C27.1979 21.5469 27.651 21.3438 28.1406 21.1562C29.0781 20.8125 30.2031 20.4583 31.5156 20.0938C32.8281 19.7188 33.7865 19.3854 34.3906 19.0938V17.5938C34.3906 17.3333 34.3698 16.9896 34.3281 16.5625C34.2865 16.1354 34.1979 15.776 34.0625 15.4844C33.9167 15.151 33.6875 14.8698 33.375 14.6406C33.0625 14.4115 32.651 14.2969 32.1406 14.2969C31.6823 14.2969 31.2969 14.3646 30.9844 14.5C30.6823 14.625 30.4375 14.7552 30.25 14.8906C30.2812 15.099 30.3698 15.4167 30.5156 15.8438C30.6615 16.2708 30.7344 16.6823 30.7344 17.0781C30.7344 17.2552 30.6875 17.4792 30.5938 17.75C30.5 18.0104 30.3646 18.2188 30.1875 18.375C29.9479 18.5833 29.6771 18.7448 29.375 18.8594C29.0833 18.974 28.6302 19.0312 28.0156 19.0312C27.1406 19.0312 26.4792 18.8229 26.0312 18.4062C25.5833 17.9792 25.3594 17.4271 25.3594 16.75C25.3594 16.1667 25.5885 15.6458 26.0469 15.1875C26.5156 14.7188 27.0833 14.3333 27.75 14.0312C28.4062 13.7188 29.1615 13.4792 30.0156 13.3125C30.8698 13.1354 31.6615 13.0469 32.3906 13.0469C33.401 13.0469 34.3281 13.1094 35.1719 13.2344C36.0156 13.349 36.776 13.5938 37.4531 13.9688C38.099 14.3333 38.6094 14.8646 38.9844 15.5625C39.3698 16.25 39.5625 17.151 39.5625 18.2656C39.5625 19.4427 39.5365 20.8385 39.4844 22.4531C39.4427 24.0677 39.4219 25.1302 39.4219 25.6406C39.4219 26.1094 39.4896 26.4792 39.625 26.75C39.7708 27.0208 39.9896 27.224 40.2812 27.3594C40.4583 27.4427 40.7344 27.4948 41.1094 27.5156C41.4948 27.526 41.8438 27.5312 42.1562 27.5312V28.6719ZM34.3906 20.5312C33.8073 20.7292 33.2292 20.9583 32.6562 21.2188C32.0833 21.4688 31.6146 21.7344 31.25 22.0156C30.8646 22.3073 30.5625 22.6823 30.3438 23.1406C30.125 23.5885 30.0156 24.1198 30.0156 24.7344C30.0156 25.5469 30.1979 26.1354 30.5625 26.5C30.9375 26.8646 31.3958 27.0469 31.9375 27.0469C32.5104 27.0469 32.9792 26.9323 33.3438 26.7031C33.7188 26.4635 34.0469 26.1719 34.3281 25.8281L34.3906 20.5312ZM58.9219 16.3594C58.9219 17.151 58.6771 17.849 58.1875 18.4531C57.6979 19.0469 57.0521 19.3438 56.25 19.3438C55.4896 19.3438 54.8438 19.151 54.3125 18.7656C53.7917 18.3802 53.5312 17.8125 53.5312 17.0625C53.5312 16.6979 53.5573 16.4167 53.6094 16.2188C53.6615 16.0104 53.7083 15.8177 53.75 15.6406C53.2708 15.6615 52.7656 15.8281 52.2344 16.1406C51.7031 16.4531 51.2344 16.8698 50.8281 17.3906V25.9688C50.8281 26.3333 50.8854 26.6354 51 26.875C51.1146 27.1146 51.3073 27.3021 51.5781 27.4375C51.8073 27.5521 52.1771 27.651 52.6875 27.7344C53.2083 27.8073 53.5833 27.849 53.8125 27.8594V29H43.3594V27.8594C43.6198 27.8385 43.8802 27.8125 44.1406 27.7812C44.4115 27.7396 44.6406 27.6875 44.8281 27.625C45.1615 27.5104 45.3906 27.3333 45.5156 27.0938C45.6406 26.8542 45.7031 26.5417 45.7031 26.1562V17.0625C45.7031 16.6875 45.6146 16.3542 45.4375 16.0625C45.2604 15.7604 45.0469 15.5208 44.7969 15.3438C44.6094 15.2188 44.3698 15.1146 44.0781 15.0312C43.7969 14.9479 43.4844 14.8906 43.1406 14.8594V13.7188L50.5938 13.3125L50.8281 13.5469V15.8125H50.8906C51.6094 14.9792 52.3698 14.3281 53.1719 13.8594C53.9844 13.3802 54.8281 13.1406 55.7031 13.1406C56.6719 13.1406 57.4479 13.4427 58.0312 14.0469C58.625 14.6406 58.9219 15.4115 58.9219 16.3594ZM71.6406 28.2812C70.974 28.5729 70.2604 28.8333 69.5 29.0625C68.7396 29.3021 67.8125 29.4219 66.7188 29.4219C65.0938 29.4219 63.8854 29.026 63.0938 28.2344C62.3125 27.4427 61.9219 26.3125 61.9219 24.8438V15.25H59.1094V13.5625H61.9844V8.82812H67.0625V13.5625H71.4375V15.25H67.0938V23.8125C67.0938 25.0312 67.2604 25.8958 67.5938 26.4062C67.9375 26.9167 68.5469 27.1719 69.4219 27.1719C69.7031 27.1719 70.0938 27.151 70.5938 27.1094C71.0938 27.0677 71.4427 27.0208 71.6406 26.9688V28.2812ZM93.0469 29H83.6406V27.8594C83.849 27.8385 84.0938 27.8125 84.375 27.7812C84.6562 27.75 84.8646 27.6979 85 27.625C85.2188 27.5104 85.3698 27.3438 85.4531 27.125C85.5469 26.9062 85.5938 26.5833 85.5938 26.1562V18.8438C85.5938 17.7708 85.3906 16.9688 84.9844 16.4375C84.5885 15.9062 84.0208 15.6406 83.2812 15.6406C82.8646 15.6406 82.474 15.7031 82.1094 15.8281C81.7552 15.9531 81.4062 16.1354 81.0625 16.375C80.7604 16.5833 80.5156 16.7969 80.3281 17.0156C80.151 17.2344 80 17.4271 79.875 17.5938V25.9844C79.875 26.3698 79.9219 26.6771 80.0156 26.9062C80.1094 27.125 80.2865 27.3073 80.5469 27.4531C80.7031 27.5469 80.9062 27.6302 81.1562 27.7031C81.4167 27.776 81.6667 27.8281 81.9062 27.8594V29H72.4062V27.8594C72.6771 27.8385 72.9375 27.8125 73.1875 27.7812C73.4479 27.75 73.6771 27.6979 73.875 27.625C74.2083 27.5 74.4323 27.3229 74.5469 27.0938C74.6719 26.8542 74.7344 26.5417 74.7344 26.1562V8.73438C74.7344 8.40104 74.6562 8.04688 74.5 7.67188C74.3438 7.29688 74.125 7.01562 73.8438 6.82812C73.6354 6.69271 73.3333 6.58854 72.9375 6.51562C72.5417 6.43229 72.1875 6.38021 71.875 6.35938V5.21875L79.6406 4.8125L79.875 5.0625V15.8125H79.9375C80.3333 15.4583 80.6875 15.1406 81 14.8594C81.3229 14.5677 81.7135 14.276 82.1719 13.9844C82.5573 13.7344 83.0573 13.5208 83.6719 13.3438C84.2969 13.1667 84.9688 13.0781 85.6875 13.0781C87.375 13.0781 88.6406 13.5625 89.4844 14.5312C90.3385 15.5 90.7656 16.776 90.7656 18.3594V26.0156C90.7656 26.401 90.8229 26.7083 90.9375 26.9375C91.0521 27.1667 91.2656 27.349 91.5781 27.4844C91.7656 27.5677 91.974 27.6406 92.2031 27.7031C92.4323 27.7656 92.7135 27.8177 93.0469 27.8594V29ZM100.469 7.60938C100.469 8.18229 100.214 9.29688 99.7031 10.9531C99.2031 12.599 98.776 14.3281 98.4219 16.1406H97.3438C96.9792 14.3281 96.5469 12.599 96.0469 10.9531C95.5469 9.29688 95.2969 8.18229 95.2969 7.60938C95.2969 6.94271 95.5208 6.35938 95.9688 5.85938C96.4167 5.35938 97.0573 5.10938 97.8906 5.10938C98.7031 5.10938 99.3333 5.35938 99.7812 5.85938C100.24 6.35938 100.469 6.94271 100.469 7.60938ZM110.344 29.5312C109.333 29.5312 108.344 29.3802 107.375 29.0781C106.417 28.7865 105.672 28.474 105.141 28.1406L104.672 29.2031H103.453L103.25 23.375H104.391C104.547 23.8438 104.807 24.375 105.172 24.9688C105.536 25.5521 105.953 26.0781 106.422 26.5469C106.911 27.0156 107.469 27.4115 108.094 27.7344C108.729 28.0573 109.406 28.2188 110.125 28.2188C111.073 28.2188 111.776 28.0365 112.234 27.6719C112.703 27.2969 112.938 26.724 112.938 25.9531C112.938 25.5365 112.833 25.1927 112.625 24.9219C112.417 24.651 112.13 24.4167 111.766 24.2188C111.359 24.0104 110.911 23.8333 110.422 23.6875C109.943 23.5417 109.349 23.3646 108.641 23.1562C107.932 22.9479 107.323 22.7396 106.812 22.5312C106.312 22.3125 105.792 21.974 105.25 21.5156C104.781 21.1094 104.406 20.6198 104.125 20.0469C103.844 19.474 103.703 18.7917 103.703 18C103.703 16.5312 104.318 15.3438 105.547 14.4375C106.786 13.5312 108.406 13.0781 110.406 13.0781C111.354 13.0781 112.224 13.1771 113.016 13.375C113.818 13.5625 114.49 13.7708 115.031 14L115.359 13.0781H116.547L116.797 18.4062H115.688C115.323 17.3229 114.698 16.3906 113.812 15.6094C112.927 14.8177 111.974 14.4219 110.953 14.4219C110.151 14.4219 109.521 14.5885 109.062 14.9219C108.604 15.2552 108.375 15.7188 108.375 16.3125C108.375 17.1042 108.708 17.6771 109.375 18.0312C110.052 18.3854 110.995 18.7188 112.203 19.0312C114.068 19.5104 115.432 20.1667 116.297 21C117.161 21.8229 117.594 22.875 117.594 24.1562C117.594 25.8646 116.922 27.1875 115.578 28.125C114.245 29.0625 112.5 29.5312 110.344 29.5312ZM152.5 19.9844C152.177 20.0156 151.891 20.0521 151.641 20.0938C151.391 20.1354 151.078 20.2188 150.703 20.3438C150.276 20.4792 149.995 20.7031 149.859 21.0156C149.724 21.3281 149.656 21.6562 149.656 22V24.5781C149.656 25.099 149.661 25.5208 149.672 25.8438C149.682 26.1562 149.698 26.5469 149.719 27.0156C148.677 27.6406 147.135 28.2292 145.094 28.7812C143.062 29.3333 141.193 29.6094 139.484 29.6094C137.88 29.6094 136.375 29.3646 134.969 28.875C133.562 28.3854 132.328 27.651 131.266 26.6719C130.203 25.7031 129.365 24.5 128.75 23.0625C128.146 21.625 127.844 19.9792 127.844 18.125C127.844 16.3958 128.13 14.7969 128.703 13.3281C129.276 11.8594 130.104 10.5938 131.188 9.53125C132.25 8.47917 133.542 7.66667 135.062 7.09375C136.594 6.52083 138.286 6.23438 140.141 6.23438C141.401 6.23438 142.568 6.39062 143.641 6.70312C144.714 7.00521 145.599 7.33333 146.297 7.6875L147.266 6.82812H148.625L148.766 14.9219H147.391C146.599 12.4948 145.651 10.6927 144.547 9.51562C143.443 8.33854 142.047 7.75 140.359 7.75C138.359 7.75 136.812 8.625 135.719 10.375C134.635 12.125 134.094 14.5365 134.094 17.6094C134.094 20.8698 134.625 23.4219 135.688 25.2656C136.76 27.1094 138.276 28.0312 140.234 28.0312C141.151 28.0312 141.964 27.8958 142.672 27.625C143.391 27.3438 143.948 27.0208 144.344 26.6562V22.1562C144.344 21.7812 144.276 21.4688 144.141 21.2188C144.005 20.9583 143.734 20.7344 143.328 20.5469C143.016 20.401 142.625 20.2812 142.156 20.1875C141.688 20.0938 141.297 20.026 140.984 19.9844V18.7656H152.5V19.9844ZM169.438 15.3438C170.208 16.0625 170.797 16.9219 171.203 17.9219C171.609 18.9219 171.812 20.0052 171.812 21.1719C171.812 22.3281 171.609 23.4219 171.203 24.4531C170.807 25.474 170.224 26.349 169.453 27.0781C168.63 27.8594 167.646 28.4583 166.5 28.875C165.365 29.2917 164.062 29.5 162.594 29.5C161.323 29.5 160.151 29.3177 159.078 28.9531C158.016 28.5885 157.073 28.0417 156.25 27.3125C155.458 26.6146 154.833 25.7552 154.375 24.7344C153.917 23.7031 153.688 22.5521 153.688 21.2812C153.688 20.0312 153.885 18.9219 154.281 17.9531C154.688 16.974 155.292 16.1042 156.094 15.3438C156.865 14.6146 157.812 14.0521 158.938 13.6562C160.073 13.25 161.339 13.0469 162.734 13.0469C164.193 13.0469 165.474 13.25 166.578 13.6562C167.693 14.0521 168.646 14.6146 169.438 15.3438ZM165.438 26.1719C165.667 25.5885 165.833 24.8802 165.938 24.0469C166.052 23.2135 166.109 22.2448 166.109 21.1406C166.109 20.4115 166.057 19.5781 165.953 18.6406C165.849 17.7031 165.693 16.9635 165.484 16.4219C165.234 15.7656 164.885 15.25 164.438 14.875C164 14.5 163.443 14.3125 162.766 14.3125C162.026 14.3125 161.432 14.5156 160.984 14.9219C160.547 15.3281 160.208 15.8542 159.969 16.5C159.75 17.0938 159.599 17.7917 159.516 18.5938C159.432 19.3854 159.391 20.2135 159.391 21.0781C159.391 22.2135 159.427 23.1562 159.5 23.9062C159.573 24.6458 159.75 25.3906 160.031 26.1406C160.271 26.7865 160.615 27.2969 161.062 27.6719C161.51 28.0469 162.078 28.2344 162.766 28.2344C163.391 28.2344 163.927 28.0625 164.375 27.7188C164.823 27.3646 165.177 26.849 165.438 26.1719ZM189.781 15.3438C190.552 16.0625 191.141 16.9219 191.547 17.9219C191.953 18.9219 192.156 20.0052 192.156 21.1719C192.156 22.3281 191.953 23.4219 191.547 24.4531C191.151 25.474 190.568 26.349 189.797 27.0781C188.974 27.8594 187.99 28.4583 186.844 28.875C185.708 29.2917 184.406 29.5 182.938 29.5C181.667 29.5 180.495 29.3177 179.422 28.9531C178.359 28.5885 177.417 28.0417 176.594 27.3125C175.802 26.6146 175.177 25.7552 174.719 24.7344C174.26 23.7031 174.031 22.5521 174.031 21.2812C174.031 20.0312 174.229 18.9219 174.625 17.9531C175.031 16.974 175.635 16.1042 176.438 15.3438C177.208 14.6146 178.156 14.0521 179.281 13.6562C180.417 13.25 181.682 13.0469 183.078 13.0469C184.536 13.0469 185.818 13.25 186.922 13.6562C188.036 14.0521 188.99 14.6146 189.781 15.3438ZM185.781 26.1719C186.01 25.5885 186.177 24.8802 186.281 24.0469C186.396 23.2135 186.453 22.2448 186.453 21.1406C186.453 20.4115 186.401 19.5781 186.297 18.6406C186.193 17.7031 186.036 16.9635 185.828 16.4219C185.578 15.7656 185.229 15.25 184.781 14.875C184.344 14.5 183.786 14.3125 183.109 14.3125C182.37 14.3125 181.776 14.5156 181.328 14.9219C180.891 15.3281 180.552 15.8542 180.312 16.5C180.094 17.0938 179.943 17.7917 179.859 18.5938C179.776 19.3854 179.734 20.2135 179.734 21.0781C179.734 22.2135 179.771 23.1562 179.844 23.9062C179.917 24.6458 180.094 25.3906 180.375 26.1406C180.615 26.7865 180.958 27.2969 181.406 27.6719C181.854 28.0469 182.422 28.2344 183.109 28.2344C183.734 28.2344 184.271 28.0625 184.719 27.7188C185.167 27.3646 185.521 26.849 185.781 26.1719ZM214.375 28.6719L206.672 29.125L206.438 28.9062V27.4688L206.328 27.4375C205.818 27.9896 205.125 28.474 204.25 28.8906C203.385 29.2969 202.51 29.5 201.625 29.5C199.521 29.5 197.786 28.7188 196.422 27.1562C195.057 25.5938 194.375 23.5729 194.375 21.0938C194.375 18.8958 195.135 17.0104 196.656 15.4375C198.188 13.8646 200.036 13.0781 202.203 13.0781C203.057 13.0781 203.859 13.1771 204.609 13.375C205.359 13.5625 205.958 13.7865 206.406 14.0469V8.9375C206.406 8.55208 206.328 8.19271 206.172 7.85938C206.016 7.51562 205.807 7.25 205.547 7.0625C205.224 6.83333 204.818 6.67188 204.328 6.57812C203.849 6.47396 203.365 6.40104 202.875 6.35938V5.21875L211.312 4.8125L211.547 5.0625V25.5469C211.547 25.9427 211.609 26.276 211.734 26.5469C211.87 26.8177 212.083 27.0312 212.375 27.1875C212.594 27.3021 212.911 27.3854 213.328 27.4375C213.755 27.4896 214.104 27.5208 214.375 27.5312V28.6719ZM206.406 25.8906V17.0625C206.333 16.8229 206.229 16.5573 206.094 16.2656C205.969 15.974 205.792 15.6979 205.562 15.4375C205.354 15.2188 205.073 15.026 204.719 14.8594C204.375 14.6927 203.984 14.6094 203.547 14.6094C202.505 14.6094 201.651 15.1979 200.984 16.375C200.318 17.5521 199.984 19.2135 199.984 21.3594C199.984 22.2031 200.042 22.9635 200.156 23.6406C200.281 24.3073 200.495 24.9167 200.797 25.4688C201.099 26.0208 201.484 26.4531 201.953 26.7656C202.432 27.0781 203.005 27.2344 203.672 27.2344C204.307 27.2344 204.833 27.1146 205.25 26.875C205.667 26.625 206.052 26.2969 206.406 25.8906ZM236.016 29H226.609V27.8594C226.807 27.8385 227.047 27.8125 227.328 27.7812C227.609 27.75 227.823 27.6979 227.969 27.625C228.188 27.5104 228.344 27.3438 228.438 27.125C228.531 26.9062 228.578 26.5833 228.578 26.1562V18.8438C228.578 17.7812 228.38 16.9844 227.984 16.4531C227.599 15.9115 227.026 15.6406 226.266 15.6406C225.849 15.6406 225.458 15.7031 225.094 15.8281C224.74 15.9531 224.391 16.1354 224.047 16.375C223.745 16.5833 223.5 16.7969 223.312 17.0156C223.135 17.2344 222.984 17.4271 222.859 17.5938V25.9844C222.859 26.349 222.911 26.6562 223.016 26.9062C223.12 27.1458 223.292 27.3281 223.531 27.4531C223.698 27.5469 223.906 27.6302 224.156 27.7031C224.406 27.776 224.651 27.8281 224.891 27.8594V29H215.391V27.8594C215.651 27.8385 215.911 27.8125 216.172 27.7812C216.443 27.7396 216.672 27.6875 216.859 27.625C217.193 27.5104 217.422 27.3333 217.547 27.0938C217.672 26.8542 217.734 26.5417 217.734 26.1562V17.0625C217.734 16.7396 217.651 16.4219 217.484 16.1094C217.318 15.7969 217.099 15.5417 216.828 15.3438C216.641 15.2188 216.401 15.1146 216.109 15.0312C215.828 14.9479 215.516 14.8906 215.172 14.8594V13.7188L222.625 13.3125L222.859 13.5469V15.8125H222.922C223.214 15.5521 223.568 15.2396 223.984 14.875C224.401 14.5104 224.786 14.2135 225.141 13.9844C225.526 13.7344 226.031 13.5208 226.656 13.3438C227.281 13.1667 227.948 13.0781 228.656 13.0781C230.354 13.0781 231.625 13.5625 232.469 14.5312C233.323 15.4896 233.75 16.7656 233.75 18.3594V26.0156C233.75 26.401 233.807 26.7083 233.922 26.9375C234.036 27.1667 234.25 27.349 234.562 27.4844C234.729 27.5573 234.932 27.6302 235.172 27.7031C235.422 27.776 235.703 27.8281 236.016 27.8594V29ZM254.281 25.2656C253.917 25.8594 253.474 26.4219 252.953 26.9531C252.443 27.474 251.859 27.9219 251.203 28.2969C250.505 28.6927 249.797 28.9896 249.078 29.1875C248.37 29.3958 247.552 29.5 246.625 29.5C245.083 29.5 243.75 29.2812 242.625 28.8438C241.51 28.4062 240.589 27.8177 239.859 27.0781C239.13 26.3385 238.583 25.4688 238.219 24.4688C237.865 23.4583 237.688 22.3646 237.688 21.1875C237.688 20.125 237.88 19.1094 238.266 18.1406C238.661 17.1615 239.219 16.2917 239.938 15.5312C240.646 14.7917 241.536 14.1927 242.609 13.7344C243.693 13.276 244.901 13.0469 246.234 13.0469C247.693 13.0469 248.891 13.224 249.828 13.5781C250.766 13.9323 251.542 14.4219 252.156 15.0469C252.75 15.6406 253.182 16.3438 253.453 17.1562C253.724 17.9583 253.859 18.8021 253.859 19.6875V20.7031H243.297C243.297 22.8385 243.708 24.4635 244.531 25.5781C245.354 26.6927 246.661 27.25 248.453 27.25C249.432 27.25 250.312 26.9844 251.094 26.4531C251.875 25.9115 252.542 25.2292 253.094 24.4062L254.281 25.2656ZM248.312 19.3281C248.312 18.7031 248.281 18.0625 248.219 17.4062C248.156 16.75 248.047 16.2135 247.891 15.7969C247.714 15.3073 247.469 14.9375 247.156 14.6875C246.854 14.4375 246.469 14.3125 246 14.3125C245.198 14.3125 244.557 14.7188 244.078 15.5312C243.599 16.3438 243.339 17.6302 243.297 19.3906L248.312 19.3281ZM263.031 29.5312C262.021 29.5312 261.031 29.3802 260.062 29.0781C259.104 28.7865 258.359 28.474 257.828 28.1406L257.359 29.2031H256.141L255.938 23.375H257.078C257.234 23.8438 257.495 24.375 257.859 24.9688C258.224 25.5521 258.641 26.0781 259.109 26.5469C259.599 27.0156 260.156 27.4115 260.781 27.7344C261.417 28.0573 262.094 28.2188 262.812 28.2188C263.76 28.2188 264.464 28.0365 264.922 27.6719C265.391 27.2969 265.625 26.724 265.625 25.9531C265.625 25.5365 265.521 25.1927 265.312 24.9219C265.104 24.651 264.818 24.4167 264.453 24.2188C264.047 24.0104 263.599 23.8333 263.109 23.6875C262.63 23.5417 262.036 23.3646 261.328 23.1562C260.62 22.9479 260.01 22.7396 259.5 22.5312C259 22.3125 258.479 21.974 257.938 21.5156C257.469 21.1094 257.094 20.6198 256.812 20.0469C256.531 19.474 256.391 18.7917 256.391 18C256.391 16.5312 257.005 15.3438 258.234 14.4375C259.474 13.5312 261.094 13.0781 263.094 13.0781C264.042 13.0781 264.911 13.1771 265.703 13.375C266.505 13.5625 267.177 13.7708 267.719 14L268.047 13.0781H269.234L269.484 18.4062H268.375C268.01 17.3229 267.385 16.3906 266.5 15.6094C265.615 14.8177 264.661 14.4219 263.641 14.4219C262.839 14.4219 262.208 14.5885 261.75 14.9219C261.292 15.2552 261.062 15.7188 261.062 16.3125C261.062 17.1042 261.396 17.6771 262.062 18.0312C262.74 18.3854 263.682 18.7188 264.891 19.0312C266.755 19.5104 268.12 20.1667 268.984 21C269.849 21.8229 270.281 22.875 270.281 24.1562C270.281 25.8646 269.609 27.1875 268.266 28.125C266.932 29.0625 265.188 29.5312 263.031 29.5312ZM279.438 29.5312C278.427 29.5312 277.438 29.3802 276.469 29.0781C275.51 28.7865 274.766 28.474 274.234 28.1406L273.766 29.2031H272.547L272.344 23.375H273.484C273.641 23.8438 273.901 24.375 274.266 24.9688C274.63 25.5521 275.047 26.0781 275.516 26.5469C276.005 27.0156 276.562 27.4115 277.188 27.7344C277.823 28.0573 278.5 28.2188 279.219 28.2188C280.167 28.2188 280.87 28.0365 281.328 27.6719C281.797 27.2969 282.031 26.724 282.031 25.9531C282.031 25.5365 281.927 25.1927 281.719 24.9219C281.51 24.651 281.224 24.4167 280.859 24.2188C280.453 24.0104 280.005 23.8333 279.516 23.6875C279.036 23.5417 278.443 23.3646 277.734 23.1562C277.026 22.9479 276.417 22.7396 275.906 22.5312C275.406 22.3125 274.885 21.974 274.344 21.5156C273.875 21.1094 273.5 20.6198 273.219 20.0469C272.938 19.474 272.797 18.7917 272.797 18C272.797 16.5312 273.411 15.3438 274.641 14.4375C275.88 13.5312 277.5 13.0781 279.5 13.0781C280.448 13.0781 281.318 13.1771 282.109 13.375C282.911 13.5625 283.583 13.7708 284.125 14L284.453 13.0781H285.641L285.891 18.4062H284.781C284.417 17.3229 283.792 16.3906 282.906 15.6094C282.021 14.8177 281.068 14.4219 280.047 14.4219C279.245 14.4219 278.615 14.5885 278.156 14.9219C277.698 15.2552 277.469 15.7188 277.469 16.3125C277.469 17.1042 277.802 17.6771 278.469 18.0312C279.146 18.3854 280.089 18.7188 281.297 19.0312C283.161 19.5104 284.526 20.1667 285.391 21C286.255 21.8229 286.688 22.875 286.688 24.1562C286.688 25.8646 286.016 27.1875 284.672 28.125C283.339 29.0625 281.594 29.5312 279.438 29.5312Z" fill="#1B5E20"/>
<path d="M102.516 44.0938C103.448 44.0938 104.086 43.7422 104.43 43.0391C104.779 42.3307 104.953 41.5443 104.953 40.6797C104.953 39.8984 104.828 39.263 104.578 38.7734C104.182 38.0026 103.5 37.6172 102.531 37.6172C101.672 37.6172 101.047 37.9453 100.656 38.6016C100.266 39.2578 100.07 40.0495 100.07 40.9766C100.07 41.8672 100.266 42.6094 100.656 43.2031C101.047 43.7969 101.667 44.0938 102.516 44.0938ZM102.57 36.3906C103.648 36.3906 104.56 36.75 105.305 37.4688C106.049 38.1875 106.422 39.2448 106.422 40.6406C106.422 41.9896 106.094 43.1042 105.438 43.9844C104.781 44.8646 103.763 45.3047 102.383 45.3047C101.232 45.3047 100.318 44.9167 99.6406 44.1406C98.9635 43.3594 98.625 42.3125 98.625 41C98.625 39.5938 98.9818 38.474 99.6953 37.6406C100.409 36.8073 101.367 36.3906 102.57 36.3906ZM108.141 36.6328H109.477V38.0781C109.586 37.7969 109.854 37.4557 110.281 37.0547C110.708 36.6484 111.201 36.4453 111.758 36.4453C111.784 36.4453 111.828 36.4479 111.891 36.4531C111.953 36.4583 112.06 36.4688 112.211 36.4844V37.9688C112.128 37.9531 112.049 37.9427 111.977 37.9375C111.909 37.9323 111.833 37.9297 111.75 37.9297C111.042 37.9297 110.497 38.1589 110.117 38.6172C109.737 39.0703 109.547 39.5938 109.547 40.1875V45H108.141V36.6328ZM116.383 36.4844C117.039 36.4844 117.612 36.6458 118.102 36.9688C118.367 37.151 118.638 37.4167 118.914 37.7656V36.7109H120.211V44.3203C120.211 45.3828 120.055 46.2214 119.742 46.8359C119.159 47.9714 118.057 48.5391 116.438 48.5391C115.536 48.5391 114.779 48.3359 114.164 47.9297C113.549 47.5286 113.206 46.8984 113.133 46.0391H114.562C114.63 46.4141 114.766 46.7031 114.969 46.9062C115.286 47.2188 115.786 47.375 116.469 47.375C117.547 47.375 118.253 46.9948 118.586 46.2344C118.784 45.7865 118.875 44.987 118.859 43.8359C118.578 44.263 118.24 44.5807 117.844 44.7891C117.448 44.9974 116.924 45.1016 116.273 45.1016C115.367 45.1016 114.573 44.7812 113.891 44.1406C113.214 43.4948 112.875 42.4297 112.875 40.9453C112.875 39.5443 113.216 38.4505 113.898 37.6641C114.586 36.8776 115.414 36.4844 116.383 36.4844ZM118.914 40.7812C118.914 39.7448 118.701 38.9766 118.273 38.4766C117.846 37.9766 117.302 37.7266 116.641 37.7266C115.651 37.7266 114.974 38.1901 114.609 39.1172C114.417 39.612 114.32 40.2604 114.32 41.0625C114.32 42.0052 114.51 42.724 114.891 43.2188C115.276 43.7083 115.792 43.9531 116.438 43.9531C117.448 43.9531 118.159 43.4974 118.57 42.5859C118.799 42.0703 118.914 41.4688 118.914 40.7812ZM123.414 42.7734C123.414 43.1797 123.562 43.5 123.859 43.7344C124.156 43.9688 124.508 44.0859 124.914 44.0859C125.409 44.0859 125.888 43.9714 126.352 43.7422C127.133 43.362 127.523 42.7396 127.523 41.875V40.7422C127.352 40.8516 127.13 40.9427 126.859 41.0156C126.589 41.0885 126.323 41.1406 126.062 41.1719L125.211 41.2812C124.701 41.349 124.318 41.4557 124.062 41.6016C123.63 41.8464 123.414 42.237 123.414 42.7734ZM126.82 39.9297C127.143 39.888 127.359 39.7526 127.469 39.5234C127.531 39.3984 127.562 39.2188 127.562 38.9844C127.562 38.5052 127.391 38.1589 127.047 37.9453C126.708 37.7266 126.221 37.6172 125.586 37.6172C124.852 37.6172 124.331 37.8151 124.023 38.2109C123.852 38.4297 123.74 38.7552 123.688 39.1875H122.375C122.401 38.1562 122.734 37.4401 123.375 37.0391C124.021 36.6328 124.768 36.4297 125.617 36.4297C126.602 36.4297 127.401 36.6172 128.016 36.9922C128.625 37.3672 128.93 37.9505 128.93 38.7422V43.5625C128.93 43.7083 128.958 43.8255 129.016 43.9141C129.078 44.0026 129.206 44.0469 129.398 44.0469C129.461 44.0469 129.531 44.0443 129.609 44.0391C129.688 44.0286 129.771 44.0156 129.859 44V45.0391C129.641 45.1016 129.474 45.1406 129.359 45.1562C129.245 45.1719 129.089 45.1797 128.891 45.1797C128.406 45.1797 128.055 45.0078 127.836 44.6641C127.721 44.4818 127.641 44.224 127.594 43.8906C127.307 44.2656 126.896 44.5911 126.359 44.8672C125.823 45.1432 125.232 45.2812 124.586 45.2812C123.81 45.2812 123.174 45.0469 122.68 44.5781C122.19 44.1042 121.945 43.513 121.945 42.8047C121.945 42.0286 122.188 41.4271 122.672 41C123.156 40.5729 123.792 40.3099 124.578 40.2109L126.82 39.9297ZM131.242 36.6328H132.578V37.8203C132.974 37.3307 133.393 36.9792 133.836 36.7656C134.279 36.5521 134.771 36.4453 135.312 36.4453C136.5 36.4453 137.302 36.8594 137.719 37.6875C137.948 38.1406 138.062 38.7891 138.062 39.6328V45H136.633V39.7266C136.633 39.2161 136.557 38.8047 136.406 38.4922C136.156 37.9714 135.703 37.7109 135.047 37.7109C134.714 37.7109 134.44 37.7448 134.227 37.8125C133.841 37.9271 133.503 38.1562 133.211 38.5C132.977 38.776 132.823 39.0625 132.75 39.3594C132.682 39.651 132.648 40.0703 132.648 40.6172V45H131.242V36.6328ZM140.148 36.6719H141.578V45H140.148V36.6719ZM140.148 33.5234H141.578V35.1172H140.148V33.5234ZM146.938 36.3906C147.88 36.3906 148.646 36.6198 149.234 37.0781C149.828 37.5365 150.185 38.3255 150.305 39.4453H148.938C148.854 38.9297 148.664 38.5026 148.367 38.1641C148.07 37.8203 147.594 37.6484 146.938 37.6484C146.042 37.6484 145.401 38.0859 145.016 38.9609C144.766 39.5286 144.641 40.2292 144.641 41.0625C144.641 41.901 144.818 42.6068 145.172 43.1797C145.526 43.7526 146.083 44.0391 146.844 44.0391C147.427 44.0391 147.888 43.862 148.227 43.5078C148.57 43.1484 148.807 42.6589 148.938 42.0391H150.305C150.148 43.1484 149.758 43.9609 149.133 44.4766C148.508 44.987 147.708 45.2422 146.734 45.2422C145.641 45.2422 144.768 44.8438 144.117 44.0469C143.466 43.2448 143.141 42.2448 143.141 41.0469C143.141 39.5781 143.497 38.4349 144.211 37.6172C144.924 36.7995 145.833 36.3906 146.938 36.3906ZM157.055 40.9141C157.055 41.8099 157.245 42.5599 157.625 43.1641C158.005 43.7682 158.615 44.0703 159.453 44.0703C160.104 44.0703 160.638 43.7917 161.055 43.2344C161.477 42.6719 161.688 41.8672 161.688 40.8203C161.688 39.763 161.471 38.9818 161.039 38.4766C160.607 37.9661 160.073 37.7109 159.438 37.7109C158.729 37.7109 158.154 37.9818 157.711 38.5234C157.273 39.0651 157.055 39.862 157.055 40.9141ZM159.172 36.4844C159.812 36.4844 160.349 36.6198 160.781 36.8906C161.031 37.0469 161.315 37.3203 161.633 37.7109V33.4844H162.984V45H161.719V43.8359C161.391 44.3516 161.003 44.724 160.555 44.9531C160.107 45.1823 159.594 45.2969 159.016 45.2969C158.083 45.2969 157.276 44.9062 156.594 44.125C155.911 43.3385 155.57 42.2943 155.57 40.9922C155.57 39.7734 155.88 38.7188 156.5 37.8281C157.125 36.9323 158.016 36.4844 159.172 36.4844ZM166.148 42.7734C166.148 43.1797 166.297 43.5 166.594 43.7344C166.891 43.9688 167.242 44.0859 167.648 44.0859C168.143 44.0859 168.622 43.9714 169.086 43.7422C169.867 43.362 170.258 42.7396 170.258 41.875V40.7422C170.086 40.8516 169.865 40.9427 169.594 41.0156C169.323 41.0885 169.057 41.1406 168.797 41.1719L167.945 41.2812C167.435 41.349 167.052 41.4557 166.797 41.6016C166.365 41.8464 166.148 42.237 166.148 42.7734ZM169.555 39.9297C169.878 39.888 170.094 39.7526 170.203 39.5234C170.266 39.3984 170.297 39.2188 170.297 38.9844C170.297 38.5052 170.125 38.1589 169.781 37.9453C169.443 37.7266 168.956 37.6172 168.32 37.6172C167.586 37.6172 167.065 37.8151 166.758 38.2109C166.586 38.4297 166.474 38.7552 166.422 39.1875H165.109C165.135 38.1562 165.469 37.4401 166.109 37.0391C166.755 36.6328 167.503 36.4297 168.352 36.4297C169.336 36.4297 170.135 36.6172 170.75 36.9922C171.359 37.3672 171.664 37.9505 171.664 38.7422V43.5625C171.664 43.7083 171.693 43.8255 171.75 43.9141C171.812 44.0026 171.94 44.0469 172.133 44.0469C172.195 44.0469 172.266 44.0443 172.344 44.0391C172.422 44.0286 172.505 44.0156 172.594 44V45.0391C172.375 45.1016 172.208 45.1406 172.094 45.1562C171.979 45.1719 171.823 45.1797 171.625 45.1797C171.141 45.1797 170.789 45.0078 170.57 44.6641C170.456 44.4818 170.375 44.224 170.328 43.8906C170.042 44.2656 169.63 44.5911 169.094 44.8672C168.557 45.1432 167.966 45.2812 167.32 45.2812C166.544 45.2812 165.909 45.0469 165.414 44.5781C164.924 44.1042 164.68 43.513 164.68 42.8047C164.68 42.0286 164.922 41.4271 165.406 41C165.891 40.5729 166.526 40.3099 167.312 40.2109L169.555 39.9297ZM173.977 36.6719H175.406V45H173.977V36.6719ZM173.977 33.5234H175.406V35.1172H173.977V33.5234ZM177.578 36.6328H178.914V38.0781C179.023 37.7969 179.292 37.4557 179.719 37.0547C180.146 36.6484 180.638 36.4453 181.195 36.4453C181.221 36.4453 181.266 36.4479 181.328 36.4531C181.391 36.4583 181.497 36.4688 181.648 36.4844V37.9688C181.565 37.9531 181.487 37.9427 181.414 37.9375C181.346 37.9323 181.271 37.9297 181.188 37.9297C180.479 37.9297 179.935 38.1589 179.555 38.6172C179.174 39.0703 178.984 39.5938 178.984 40.1875V45H177.578V36.6328ZM188.094 36.6328H189.648C189.451 37.1693 189.01 38.3932 188.328 40.3047C187.818 41.7422 187.391 42.9141 187.047 43.8203C186.234 45.9557 185.661 47.2578 185.328 47.7266C184.995 48.1953 184.422 48.4297 183.609 48.4297C183.411 48.4297 183.258 48.4219 183.148 48.4062C183.044 48.3906 182.914 48.362 182.758 48.3203V47.0391C183.003 47.1068 183.18 47.1484 183.289 47.1641C183.398 47.1797 183.495 47.1875 183.578 47.1875C183.839 47.1875 184.029 47.1432 184.148 47.0547C184.273 46.9714 184.378 46.8672 184.461 46.7422C184.487 46.7005 184.581 46.487 184.742 46.1016C184.904 45.7161 185.021 45.4297 185.094 45.2422L182 36.6328H183.594L185.836 43.4453L188.094 36.6328Z" fill="#3AA655"/>
</svg>
