<svg width="284" height="59" viewBox="0 0 284 59" fill="none" xmlns="http://www.w3.org/2000/svg">
<path d="M14 44L34 4L54 44" stroke="#4A90E2" stroke-width="3"/>
<path d="M4 34H64" stroke="#4A90E2" stroke-width="3"/>
<path d="M34 8C36.2091 8 38 6.20914 38 4C38 1.79086 36.2091 0 34 0C31.7909 0 30 1.79086 30 4C30 6.20914 31.7909 8 34 8Z" fill="#4A90E2"/>
<path d="M14 48C16.2091 48 18 46.2091 18 44C18 41.7909 16.2091 40 14 40C11.7909 40 10 41.7909 10 44C10 46.2091 11.7909 48 14 48Z" fill="#4A90E2"/>
<path d="M54 48C56.2091 48 58 46.2091 58 44C58 41.7909 56.2091 40 54 40C51.7909 40 50 41.7909 50 44C50 46.2091 51.7909 48 54 48Z" fill="#4A90E2"/>
<path d="M4 38C6.20914 38 8 36.2091 8 34C8 31.7909 6.20914 30 4 30C1.79086 30 0 31.7909 0 34C0 36.2091 1.79086 38 4 38Z" fill="#4A90E2"/>
<path d="M64 38C66.2091 38 68 36.2091 68 34C68 31.7909 66.2091 30 64 30C61.7909 30 60 31.7909 60 34C60 36.2091 61.7909 38 64 38Z" fill="#4A90E2"/>
<path d="M85.2266 48V19.4531H75.0312V13.6406H102.336V19.4531H92.1641V48H85.2266ZM117.641 40.0781L124.203 41.1797C123.359 43.5859 122.023 45.4219 120.195 46.6875C118.383 47.9375 116.109 48.5625 113.375 48.5625C109.047 48.5625 105.844 47.1484 103.766 44.3203C102.125 42.0547 101.305 39.1953 101.305 35.7422C101.305 31.6172 102.383 28.3906 104.539 26.0625C106.695 23.7188 109.422 22.5469 112.719 22.5469C116.422 22.5469 119.344 23.7734 121.484 26.2266C123.625 28.6641 124.648 32.4062 124.555 37.4531H108.055C108.102 39.4062 108.633 40.9297 109.648 42.0234C110.664 43.1016 111.93 43.6406 113.445 43.6406C114.477 43.6406 115.344 43.3594 116.047 42.7969C116.75 42.2344 117.281 41.3281 117.641 40.0781ZM118.016 33.4219C117.969 31.5156 117.477 30.0703 116.539 29.0859C115.602 28.0859 114.461 27.5859 113.117 27.5859C111.68 27.5859 110.492 28.1094 109.555 29.1562C108.617 30.2031 108.156 31.625 108.172 33.4219H118.016ZM151.648 30.4688L145.156 31.6406C144.938 30.3438 144.438 29.3672 143.656 28.7109C142.891 28.0547 141.891 27.7266 140.656 27.7266C139.016 27.7266 137.703 28.2969 136.719 29.4375C135.75 30.5625 135.266 32.4531 135.266 35.1094C135.266 38.0625 135.758 40.1484 136.742 41.3672C137.742 42.5859 139.078 43.1953 140.75 43.1953C142 43.1953 143.023 42.8438 143.82 42.1406C144.617 41.4219 145.18 40.1953 145.508 38.4609L151.977 39.5625C151.305 42.5312 150.016 44.7734 148.109 46.2891C146.203 47.8047 143.648 48.5625 140.445 48.5625C136.805 48.5625 133.898 47.4141 131.727 45.1172C129.57 42.8203 128.492 39.6406 128.492 35.5781C128.492 31.4688 129.578 28.2734 131.75 25.9922C133.922 23.6953 136.859 22.5469 140.562 22.5469C143.594 22.5469 146 23.2031 147.781 24.5156C149.578 25.8125 150.867 27.7969 151.648 30.4688ZM163.227 13.6406V26.2734C165.352 23.7891 167.891 22.5469 170.844 22.5469C172.359 22.5469 173.727 22.8281 174.945 23.3906C176.164 23.9531 177.078 24.6719 177.688 25.5469C178.312 26.4219 178.734 27.3906 178.953 28.4531C179.188 29.5156 179.305 31.1641 179.305 33.3984V48H172.719V34.8516C172.719 32.2422 172.594 30.5859 172.344 29.8828C172.094 29.1797 171.648 28.625 171.008 28.2188C170.383 27.7969 169.594 27.5859 168.641 27.5859C167.547 27.5859 166.57 27.8516 165.711 28.3828C164.852 28.9141 164.219 29.7188 163.812 30.7969C163.422 31.8594 163.227 33.4375 163.227 35.5312V48H156.641V13.6406H163.227Z" fill="#333333"/>
<path d="M194.82 48L182.539 13.6406H190.062L198.758 39.0703L207.172 13.6406H214.531L202.227 48H194.82ZM217.133 19.7344V13.6406H223.719V19.7344H217.133ZM217.133 48V23.1094H223.719V48H217.133ZM230.211 48V13.6406H236.797V26.0156C238.828 23.7031 241.234 22.5469 244.016 22.5469C247.047 22.5469 249.555 23.6484 251.539 25.8516C253.523 28.0391 254.516 31.1875 254.516 35.2969C254.516 39.5469 253.5 42.8203 251.469 45.1172C249.453 47.4141 247 48.5625 244.109 48.5625C242.688 48.5625 241.281 48.2109 239.891 47.5078C238.516 46.7891 237.328 45.7344 236.328 44.3438V48H230.211ZM236.75 35.0156C236.75 37.5938 237.156 39.5 237.969 40.7344C239.109 42.4844 240.625 43.3594 242.516 43.3594C243.969 43.3594 245.203 42.7422 246.219 41.5078C247.25 40.2578 247.766 38.2969 247.766 35.625C247.766 32.7812 247.25 30.7344 246.219 29.4844C245.188 28.2188 243.867 27.5859 242.258 27.5859C240.68 27.5859 239.367 28.2031 238.32 29.4375C237.273 30.6562 236.75 32.5156 236.75 35.0156ZM274.25 40.0781L280.812 41.1797C279.969 43.5859 278.633 45.4219 276.805 46.6875C274.992 47.9375 272.719 48.5625 269.984 48.5625C265.656 48.5625 262.453 47.1484 260.375 44.3203C258.734 42.0547 257.914 39.1953 257.914 35.7422C257.914 31.6172 258.992 28.3906 261.148 26.0625C263.305 23.7188 266.031 22.5469 269.328 22.5469C273.031 22.5469 275.953 23.7734 278.094 26.2266C280.234 28.6641 281.258 32.4062 281.164 37.4531H264.664C264.711 39.4062 265.242 40.9297 266.258 42.0234C267.273 43.1016 268.539 43.6406 270.055 43.6406C271.086 43.6406 271.953 43.3594 272.656 42.7969C273.359 42.2344 273.891 41.3281 274.25 40.0781ZM274.625 33.4219C274.578 31.5156 274.086 30.0703 273.148 29.0859C272.211 28.0859 271.07 27.5859 269.727 27.5859C268.289 27.5859 267.102 28.1094 266.164 29.1562C265.227 30.2031 264.766 31.625 264.781 33.4219H274.625Z" fill="#4A90E2"/>
</svg>
