<svg width="308" height="96" viewBox="0 0 308 96" fill="none" xmlns="http://www.w3.org/2000/svg">
<path d="M6 50H26L36 30L56 70L76 30L96 70L116 50H136" stroke="#2563EB" stroke-width="6" stroke-linecap="round"/>
<path d="M6 56C9.31371 56 12 53.3137 12 50C12 46.6863 9.31371 44 6 44C2.68629 44 0 46.6863 0 50C0 53.3137 2.68629 56 6 56Z" fill="#2563EB"/>
<path d="M136 56C139.314 56 142 53.3137 142 50C142 46.6863 139.314 44 136 44C132.686 44 130 46.6863 130 50C130 53.3137 132.686 56 136 56Z" fill="#2563EB"/>
<path opacity="0.3" d="M71 85C90.33 85 106 69.33 106 50C106 30.67 90.33 15 71 15C51.67 15 36 30.67 36 50C36 69.33 51.67 85 71 85Z" stroke="#2563EB" stroke-width="2"/>
<path opacity="0.2" d="M71 95C95.8528 95 116 74.8528 116 50C116 25.1472 95.8528 5 71 5C46.1472 5 26 25.1472 26 50C26 74.8528 46.1472 95 71 95Z" stroke="#2563EB" stroke-width="1.5"/>
<path d="M82.3672 44V15.4531H72.1719V9.64062H99.4766V15.4531H89.3047V44H82.3672ZM114.781 36.0781L121.344 37.1797C120.5 39.5859 119.164 41.4219 117.336 42.6875C115.523 43.9375 113.25 44.5625 110.516 44.5625C106.188 44.5625 102.984 43.1484 100.906 40.3203C99.2656 38.0547 98.4453 35.1953 98.4453 31.7422C98.4453 27.6172 99.5234 24.3906 101.68 22.0625C103.836 19.7188 106.562 18.5469 109.859 18.5469C113.562 18.5469 116.484 19.7734 118.625 22.2266C120.766 24.6641 121.789 28.4062 121.695 33.4531H105.195C105.242 35.4062 105.773 36.9297 106.789 38.0234C107.805 39.1016 109.07 39.6406 110.586 39.6406C111.617 39.6406 112.484 39.3594 113.188 38.7969C113.891 38.2344 114.422 37.3281 114.781 36.0781ZM115.156 29.4219C115.109 27.5156 114.617 26.0703 113.68 25.0859C112.742 24.0859 111.602 23.5859 110.258 23.5859C108.82 23.5859 107.633 24.1094 106.695 25.1562C105.758 26.2031 105.297 27.625 105.312 29.4219H115.156ZM148.789 26.4688L142.297 27.6406C142.078 26.3438 141.578 25.3672 140.797 24.7109C140.031 24.0547 139.031 23.7266 137.797 23.7266C136.156 23.7266 134.844 24.2969 133.859 25.4375C132.891 26.5625 132.406 28.4531 132.406 31.1094C132.406 34.0625 132.898 36.1484 133.883 37.3672C134.883 38.5859 136.219 39.1953 137.891 39.1953C139.141 39.1953 140.164 38.8438 140.961 38.1406C141.758 37.4219 142.32 36.1953 142.648 34.4609L149.117 35.5625C148.445 38.5312 147.156 40.7734 145.25 42.2891C143.344 43.8047 140.789 44.5625 137.586 44.5625C133.945 44.5625 131.039 43.4141 128.867 41.1172C126.711 38.8203 125.633 35.6406 125.633 31.5781C125.633 27.4688 126.719 24.2734 128.891 21.9922C131.062 19.6953 134 18.5469 137.703 18.5469C140.734 18.5469 143.141 19.2031 144.922 20.5156C146.719 21.8125 148.008 23.7969 148.789 26.4688ZM160.367 9.64062V22.2734C162.492 19.7891 165.031 18.5469 167.984 18.5469C169.5 18.5469 170.867 18.8281 172.086 19.3906C173.305 19.9531 174.219 20.6719 174.828 21.5469C175.453 22.4219 175.875 23.3906 176.094 24.4531C176.328 25.5156 176.445 27.1641 176.445 29.3984V44H169.859V30.8516C169.859 28.2422 169.734 26.5859 169.484 25.8828C169.234 25.1797 168.789 24.625 168.148 24.2188C167.523 23.7969 166.734 23.5859 165.781 23.5859C164.688 23.5859 163.711 23.8516 162.852 24.3828C161.992 24.9141 161.359 25.7188 160.953 26.7969C160.562 27.8594 160.367 29.4375 160.367 31.5312V44H153.781V9.64062H160.367Z" fill="#1E40AF"/>
<path d="M183.195 44V9.64062H194.328C198.547 9.64062 201.297 9.8125 202.578 10.1562C204.547 10.6719 206.195 11.7969 207.523 13.5312C208.852 15.25 209.516 17.4766 209.516 20.2109C209.516 22.3203 209.133 24.0938 208.367 25.5312C207.602 26.9688 206.625 28.1016 205.438 28.9297C204.266 29.7422 203.07 30.2812 201.852 30.5469C200.195 30.875 197.797 31.0391 194.656 31.0391H190.133V44H183.195ZM190.133 15.4531V25.2031H193.93C196.664 25.2031 198.492 25.0234 199.414 24.6641C200.336 24.3047 201.055 23.7422 201.57 22.9766C202.102 22.2109 202.367 21.3203 202.367 20.3047C202.367 19.0547 202 18.0234 201.266 17.2109C200.531 16.3984 199.602 15.8906 198.477 15.6875C197.648 15.5312 195.984 15.4531 193.484 15.4531H190.133ZM231.547 44V40.2734C230.641 41.6016 229.445 42.6484 227.961 43.4141C226.492 44.1797 224.938 44.5625 223.297 44.5625C221.625 44.5625 220.125 44.1953 218.797 43.4609C217.469 42.7266 216.508 41.6953 215.914 40.3672C215.32 39.0391 215.023 37.2031 215.023 34.8594V19.1094H221.609V30.5469C221.609 34.0469 221.727 36.1953 221.961 36.9922C222.211 37.7734 222.656 38.3984 223.297 38.8672C223.938 39.3203 224.75 39.5469 225.734 39.5469C226.859 39.5469 227.867 39.2422 228.758 38.6328C229.648 38.0078 230.258 37.2422 230.586 36.3359C230.914 35.4141 231.078 33.1719 231.078 29.6094V19.1094H237.664V44H231.547ZM244.508 44V9.64062H251.094V44H244.508ZM255.547 36.8984L262.156 35.8906C262.438 37.1719 263.008 38.1484 263.867 38.8203C264.727 39.4766 265.93 39.8047 267.477 39.8047C269.18 39.8047 270.461 39.4922 271.32 38.8672C271.898 38.4297 272.188 37.8438 272.188 37.1094C272.188 36.6094 272.031 36.1953 271.719 35.8672C271.391 35.5547 270.656 35.2656 269.516 35C264.203 33.8281 260.836 32.7578 259.414 31.7891C257.445 30.4453 256.461 28.5781 256.461 26.1875C256.461 24.0312 257.312 22.2188 259.016 20.75C260.719 19.2812 263.359 18.5469 266.938 18.5469C270.344 18.5469 272.875 19.1016 274.531 20.2109C276.188 21.3203 277.328 22.9609 277.953 25.1328L271.742 26.2812C271.477 25.3125 270.969 24.5703 270.219 24.0547C269.484 23.5391 268.43 23.2812 267.055 23.2812C265.32 23.2812 264.078 23.5234 263.328 24.0078C262.828 24.3516 262.578 24.7969 262.578 25.3438C262.578 25.8125 262.797 26.2109 263.234 26.5391C263.828 26.9766 265.875 27.5938 269.375 28.3906C272.891 29.1875 275.344 30.1641 276.734 31.3203C278.109 32.4922 278.797 34.125 278.797 36.2188C278.797 38.5 277.844 40.4609 275.938 42.1016C274.031 43.7422 271.211 44.5625 267.477 44.5625C264.086 44.5625 261.398 43.875 259.414 42.5C257.445 41.125 256.156 39.2578 255.547 36.8984ZM299 36.0781L305.562 37.1797C304.719 39.5859 303.383 41.4219 301.555 42.6875C299.742 43.9375 297.469 44.5625 294.734 44.5625C290.406 44.5625 287.203 43.1484 285.125 40.3203C283.484 38.0547 282.664 35.1953 282.664 31.7422C282.664 27.6172 283.742 24.3906 285.898 22.0625C288.055 19.7188 290.781 18.5469 294.078 18.5469C297.781 18.5469 300.703 19.7734 302.844 22.2266C304.984 24.6641 306.008 28.4062 305.914 33.4531H289.414C289.461 35.4062 289.992 36.9297 291.008 38.0234C292.023 39.1016 293.289 39.6406 294.805 39.6406C295.836 39.6406 296.703 39.3594 297.406 38.7969C298.109 38.2344 298.641 37.3281 299 36.0781ZM299.375 29.4219C299.328 27.5156 298.836 26.0703 297.898 25.0859C296.961 24.0859 295.82 23.5859 294.477 23.5859C293.039 23.5859 291.852 24.1094 290.914 25.1562C289.977 26.2031 289.516 27.625 289.531 29.4219H299.375Z" fill="#3B82F6"/>
</svg>
