<svg width="306" height="68" viewBox="0 0 306 68" fill="none" xmlns="http://www.w3.org/2000/svg">
<path d="M2 42C2 31.3913 6.21427 21.2172 13.7157 13.7157C21.2172 6.21427 31.3913 2 42 2C52.6087 2 62.7828 6.21427 70.2843 13.7157C77.7857 21.2172 82 31.3913 82 42" stroke="#0F766E" stroke-width="3"/>
<path d="M12 22V62L42 32L72 62V22" stroke="#0F766E" stroke-width="4" stroke-linecap="round"/>
<path d="M27 17H57H27Z" fill="black"/>
<path d="M27 17H57" stroke="#14B8A6" stroke-width="2"/>
<path d="M27 67H57H27Z" fill="black"/>
<path d="M27 67H57" stroke="#14B8A6" stroke-width="2"/>
<path d="M100.974 56V25.9355H110.059L115.514 46.4434L120.907 25.9355H130.013V56H124.373V32.334L118.405 56H112.561L106.613 32.334V56H100.974ZM136.042 56V25.9355H158.334V31.0215H142.112V37.6865H157.206V42.752H142.112V50.9346H158.908V56H136.042ZM164.076 56V25.9355H176.853C180.065 25.9355 182.396 26.209 183.846 26.7559C185.309 27.2891 186.478 28.2461 187.353 29.627C188.228 31.0078 188.665 32.5869 188.665 34.3643C188.665 36.6201 188.002 38.4863 186.676 39.9629C185.35 41.4258 183.367 42.3486 180.729 42.7314C182.041 43.4971 183.121 44.3379 183.969 45.2539C184.83 46.1699 185.985 47.7969 187.435 50.1348L191.105 56H183.846L179.457 49.458C177.898 47.1201 176.832 45.6504 176.258 45.0488C175.684 44.4336 175.075 44.0166 174.433 43.7979C173.79 43.5654 172.771 43.4492 171.377 43.4492H170.146V56H164.076ZM170.146 38.6504H174.638C177.55 38.6504 179.368 38.5273 180.093 38.2812C180.817 38.0352 181.385 37.6113 181.795 37.0098C182.205 36.4082 182.41 35.6562 182.41 34.7539C182.41 33.7422 182.137 32.9287 181.59 32.3135C181.057 31.6846 180.298 31.2881 179.313 31.124C178.821 31.0557 177.345 31.0215 174.884 31.0215H170.146V38.6504ZM194.223 56V25.9355H200.293V56H194.223Z" fill="#0F766E"/>
<path d="M206.076 25.9355H217.171C219.673 25.9355 221.58 26.127 222.893 26.5098C224.656 27.0293 226.167 27.9521 227.425 29.2783C228.683 30.6045 229.64 32.2314 230.296 34.1592C230.952 36.0732 231.28 38.4385 231.28 41.2549C231.28 43.7295 230.973 45.8623 230.357 47.6533C229.605 49.8408 228.532 51.6113 227.138 52.9648C226.085 53.9902 224.663 54.79 222.872 55.3643C221.532 55.7881 219.741 56 217.499 56H206.076V25.9355ZM212.146 31.0215V50.9346H216.679C218.374 50.9346 219.598 50.8389 220.35 50.6475C221.334 50.4014 222.147 49.9844 222.79 49.3965C223.446 48.8086 223.979 47.8447 224.39 46.5049C224.8 45.1514 225.005 43.3125 225.005 40.9883C225.005 38.6641 224.8 36.8799 224.39 35.6357C223.979 34.3916 223.405 33.4209 222.667 32.7236C221.929 32.0264 220.992 31.5547 219.857 31.3086C219.01 31.1172 217.349 31.0215 214.874 31.0215H212.146ZM236.264 56V25.9355H242.334V56H236.264ZM275.249 56H268.646L266.021 49.1709H254.003L251.521 56H245.082L256.792 25.9355H263.211L275.249 56ZM264.072 44.1055L259.93 32.9492L255.869 44.1055H264.072ZM278.551 56V25.9355H284.457L296.762 46.0127V25.9355H302.401V56H296.311L284.19 36.3945V56H278.551Z" fill="#14B8A6"/>
</svg>
