<svg width="204" height="92" viewBox="0 0 204 92" fill="none" xmlns="http://www.w3.org/2000/svg">
<path d="M21 11L31 1L41 11L31 21L21 11Z" fill="#C0A080"/>
<path d="M1 1C1 47.6667 1 77.6667 1 91H61V76H16C16 66 16 41 16 1H1Z" fill="#2C3E50" stroke="#2C3E50" stroke-width="2"/>
<path d="M45.1641 11.6406H49.7109V31.4922C49.7109 34.9453 49.3203 37.6875 48.5391 39.7188C47.7578 41.75 46.3438 43.4062 44.2969 44.6875C42.2656 45.9531 39.5938 46.5859 36.2812 46.5859C33.0625 46.5859 30.4297 46.0312 28.3828 44.9219C26.3359 43.8125 24.875 42.2109 24 40.1172C23.125 38.0078 22.6875 35.1328 22.6875 31.4922V11.6406H27.2344V31.4688C27.2344 34.4531 27.5078 36.6562 28.0547 38.0781C28.6172 39.4844 29.5703 40.5703 30.9141 41.3359C32.2734 42.1016 33.9297 42.4844 35.8828 42.4844C39.2266 42.4844 41.6094 41.7266 43.0312 40.2109C44.4531 38.6953 45.1641 35.7812 45.1641 31.4688V11.6406ZM53.8125 46L67.1016 28.0938L55.3828 11.6406H60.7969L67.0312 20.4531C68.3281 22.2812 69.25 23.6875 69.7969 24.6719C70.5625 23.4219 71.4688 22.1172 72.5156 20.7578L79.4297 11.6406H84.375L72.3047 27.8359L85.3125 46H79.6875L71.0391 33.7422C70.5547 33.0391 70.0547 32.2734 69.5391 31.4453C68.7734 32.6953 68.2266 33.5547 67.8984 34.0234L59.2734 46H53.8125ZM89.4141 46V11.6406H114.258V15.6953H93.9609V26.2188H112.969V30.25H93.9609V41.9453H115.055V46H89.4141ZM121.148 46V11.6406H125.695V41.9453H142.617V46H121.148ZM147.867 46V11.6406H152.414V41.9453H169.336V46H147.867ZM174.867 46V11.6406H199.711V15.6953H179.414V26.2188H198.422V30.25H179.414V41.9453H200.508V46H174.867Z" fill="#2C3E50"/>
<path d="M26.2305 70V59.9785H27.5566V68.8174H32.4922V70H26.2305ZM40.6543 59.9785H41.9805V65.7686C41.9805 66.7757 41.8665 67.5755 41.6387 68.168C41.4108 68.7604 40.9984 69.2435 40.4014 69.6172C39.8089 69.9863 39.0296 70.1709 38.0635 70.1709C37.1247 70.1709 36.3568 70.0091 35.7598 69.6855C35.1628 69.362 34.7367 68.8949 34.4814 68.2842C34.2262 67.6689 34.0986 66.8304 34.0986 65.7686V59.9785H35.4248V65.7617C35.4248 66.6322 35.5046 67.2747 35.6641 67.6895C35.8281 68.0996 36.1061 68.4163 36.498 68.6396C36.8945 68.863 37.3776 68.9746 37.9473 68.9746C38.9225 68.9746 39.6175 68.7536 40.0322 68.3115C40.4469 67.8695 40.6543 67.0195 40.6543 65.7617V59.9785ZM43.1768 70L47.0527 64.7773L43.6348 59.9785H45.2139L47.0322 62.5488C47.4105 63.082 47.6794 63.4922 47.8389 63.7793C48.0622 63.4147 48.3265 63.0342 48.6318 62.6377L50.6484 59.9785H52.0908L48.5703 64.7021L52.3643 70H50.7236L48.2012 66.4248C48.0599 66.2197 47.9141 65.9964 47.7637 65.7549C47.5404 66.1195 47.3809 66.3701 47.2852 66.5068L44.7695 70H43.1768ZM60.1094 59.9785H61.4355V65.7686C61.4355 66.7757 61.3216 67.5755 61.0938 68.168C60.8659 68.7604 60.4535 69.2435 59.8564 69.6172C59.264 69.9863 58.4847 70.1709 57.5186 70.1709C56.5798 70.1709 55.8118 70.0091 55.2148 69.6855C54.6178 69.362 54.1917 68.8949 53.9365 68.2842C53.6813 67.6689 53.5537 66.8304 53.5537 65.7686V59.9785H54.8799V65.7617C54.8799 66.6322 54.9596 67.2747 55.1191 67.6895C55.2832 68.0996 55.5612 68.4163 55.9531 68.6396C56.3496 68.863 56.8327 68.9746 57.4023 68.9746C58.3776 68.9746 59.0726 68.7536 59.4873 68.3115C59.902 67.8695 60.1094 67.0195 60.1094 65.7617V59.9785ZM63.6709 70V59.9785H68.1143C69.0075 59.9785 69.6865 60.0697 70.1514 60.252C70.6162 60.4297 70.9876 60.7464 71.2656 61.2021C71.5436 61.6579 71.6826 62.1615 71.6826 62.7129C71.6826 63.4238 71.4525 64.0231 70.9922 64.5107C70.5319 64.9984 69.821 65.3083 68.8594 65.4404C69.2103 65.609 69.4769 65.7754 69.6592 65.9395C70.0465 66.2949 70.4134 66.7393 70.7598 67.2725L72.5029 70H70.835L69.5088 67.915C69.1214 67.3135 68.8024 66.8532 68.5518 66.5342C68.3011 66.2152 68.0755 65.9919 67.875 65.8643C67.679 65.7367 67.4785 65.6478 67.2734 65.5977C67.123 65.5658 66.877 65.5498 66.5352 65.5498H64.9971V70H63.6709ZM64.9971 64.4014H67.8477C68.4538 64.4014 68.9277 64.3398 69.2695 64.2168C69.6113 64.0892 69.8711 63.8887 70.0488 63.6152C70.2266 63.3372 70.3154 63.0365 70.3154 62.7129C70.3154 62.2389 70.1423 61.8493 69.7959 61.5439C69.4541 61.2386 68.9118 61.0859 68.1689 61.0859H64.9971V64.4014ZM76.3311 70V65.7549L72.4688 59.9785H74.082L76.0576 63C76.4222 63.5651 76.7617 64.1302 77.0762 64.6953C77.377 64.1712 77.7415 63.5811 78.1699 62.9248L80.1113 59.9785H81.6562L77.6572 65.7549V70H76.3311ZM84.6025 70L88.4512 59.9785H89.8799L93.9814 70H92.4707L91.3018 66.9648H87.1113L86.0107 70H84.6025ZM87.4941 65.8848H90.8916L89.8457 63.1094C89.5267 62.2663 89.2897 61.5736 89.1348 61.0312C89.0072 61.6738 88.8271 62.3118 88.5947 62.9453L87.4941 65.8848ZM102.191 66.4863L103.518 66.8213C103.24 67.9105 102.738 68.7422 102.014 69.3164C101.294 69.8861 100.412 70.1709 99.3682 70.1709C98.2881 70.1709 97.4085 69.9521 96.7295 69.5146C96.055 69.0726 95.54 68.4346 95.1846 67.6006C94.8337 66.7666 94.6582 65.8711 94.6582 64.9141C94.6582 63.8704 94.8564 62.9613 95.2529 62.1865C95.654 61.4072 96.2214 60.8171 96.9551 60.416C97.6934 60.0104 98.5046 59.8076 99.3887 59.8076C100.391 59.8076 101.234 60.0628 101.918 60.5732C102.602 61.0837 103.078 61.8014 103.347 62.7266L102.041 63.0342C101.809 62.305 101.471 61.7741 101.029 61.4414C100.587 61.1087 100.031 60.9424 99.3613 60.9424C98.5911 60.9424 97.9463 61.127 97.4268 61.4961C96.9118 61.8652 96.5495 62.362 96.3398 62.9863C96.1302 63.6061 96.0254 64.2464 96.0254 64.9072C96.0254 65.7594 96.1484 66.5046 96.3945 67.1426C96.6452 67.776 97.0326 68.25 97.5566 68.5645C98.0807 68.8789 98.6481 69.0361 99.2588 69.0361C100.002 69.0361 100.631 68.8219 101.146 68.3936C101.66 67.9652 102.009 67.3294 102.191 66.4863ZM112.309 66.4863L113.635 66.8213C113.357 67.9105 112.855 68.7422 112.131 69.3164C111.411 69.8861 110.529 70.1709 109.485 70.1709C108.405 70.1709 107.526 69.9521 106.847 69.5146C106.172 69.0726 105.657 68.4346 105.302 67.6006C104.951 66.7666 104.775 65.8711 104.775 64.9141C104.775 63.8704 104.974 62.9613 105.37 62.1865C105.771 61.4072 106.339 60.8171 107.072 60.416C107.811 60.0104 108.622 59.8076 109.506 59.8076C110.508 59.8076 111.352 60.0628 112.035 60.5732C112.719 61.0837 113.195 61.8014 113.464 62.7266L112.158 63.0342C111.926 62.305 111.589 61.7741 111.146 61.4414C110.704 61.1087 110.148 60.9424 109.479 60.9424C108.708 60.9424 108.063 61.127 107.544 61.4961C107.029 61.8652 106.667 62.362 106.457 62.9863C106.247 63.6061 106.143 64.2464 106.143 64.9072C106.143 65.7594 106.266 66.5046 106.512 67.1426C106.762 67.776 107.15 68.25 107.674 68.5645C108.198 68.8789 108.765 69.0361 109.376 69.0361C110.119 69.0361 110.748 68.8219 111.263 68.3936C111.778 67.9652 112.126 67.3294 112.309 66.4863ZM115.303 70V59.9785H122.549V61.1611H116.629V64.2305H122.173V65.4062H116.629V68.8174H122.781V70H115.303ZM124.162 66.7803L125.413 66.6709C125.472 67.1722 125.609 67.5846 125.823 67.9082C126.042 68.2272 126.379 68.487 126.835 68.6875C127.291 68.8835 127.803 68.9814 128.373 68.9814C128.879 68.9814 129.326 68.9062 129.713 68.7559C130.1 68.6055 130.387 68.4004 130.574 68.1406C130.766 67.8763 130.861 67.5892 130.861 67.2793C130.861 66.9648 130.77 66.6914 130.588 66.459C130.406 66.222 130.105 66.0238 129.686 65.8643C129.417 65.7594 128.822 65.5977 127.901 65.3789C126.981 65.1556 126.336 64.946 125.967 64.75C125.488 64.4993 125.131 64.1895 124.894 63.8203C124.661 63.4466 124.545 63.0296 124.545 62.5693C124.545 62.0635 124.688 61.5918 124.976 61.1543C125.263 60.7122 125.682 60.3773 126.233 60.1494C126.785 59.9215 127.398 59.8076 128.072 59.8076C128.815 59.8076 129.469 59.9284 130.034 60.1699C130.604 60.4069 131.041 60.7578 131.347 61.2227C131.652 61.6875 131.816 62.2139 131.839 62.8018L130.567 62.8975C130.499 62.264 130.267 61.7855 129.87 61.4619C129.478 61.1383 128.897 60.9766 128.127 60.9766C127.325 60.9766 126.739 61.1247 126.37 61.4209C126.006 61.7126 125.823 62.0658 125.823 62.4805C125.823 62.8405 125.953 63.1367 126.213 63.3691C126.468 63.6016 127.133 63.8408 128.209 64.0869C129.289 64.3285 130.03 64.5404 130.431 64.7227C131.014 64.9915 131.445 65.3333 131.723 65.748C132.001 66.1582 132.14 66.6322 132.14 67.1699C132.14 67.7031 131.987 68.2067 131.682 68.6807C131.376 69.1501 130.937 69.5169 130.362 69.7812C129.793 70.041 129.15 70.1709 128.435 70.1709C127.528 70.1709 126.767 70.0387 126.151 69.7744C125.541 69.5101 125.06 69.1136 124.709 68.585C124.363 68.0518 124.18 67.4502 124.162 66.7803ZM133.5 66.7803L134.751 66.6709C134.81 67.1722 134.947 67.5846 135.161 67.9082C135.38 68.2272 135.717 68.487 136.173 68.6875C136.629 68.8835 137.141 68.9814 137.711 68.9814C138.217 68.9814 138.663 68.9062 139.051 68.7559C139.438 68.6055 139.725 68.4004 139.912 68.1406C140.104 67.8763 140.199 67.5892 140.199 67.2793C140.199 66.9648 140.108 66.6914 139.926 66.459C139.743 66.222 139.443 66.0238 139.023 65.8643C138.755 65.7594 138.16 65.5977 137.239 65.3789C136.319 65.1556 135.674 64.946 135.305 64.75C134.826 64.4993 134.468 64.1895 134.231 63.8203C133.999 63.4466 133.883 63.0296 133.883 62.5693C133.883 62.0635 134.026 61.5918 134.313 61.1543C134.601 60.7122 135.02 60.3773 135.571 60.1494C136.123 59.9215 136.736 59.8076 137.41 59.8076C138.153 59.8076 138.807 59.9284 139.372 60.1699C139.942 60.4069 140.379 60.7578 140.685 61.2227C140.99 61.6875 141.154 62.2139 141.177 62.8018L139.905 62.8975C139.837 62.264 139.604 61.7855 139.208 61.4619C138.816 61.1383 138.235 60.9766 137.465 60.9766C136.663 60.9766 136.077 61.1247 135.708 61.4209C135.343 61.7126 135.161 62.0658 135.161 62.4805C135.161 62.8405 135.291 63.1367 135.551 63.3691C135.806 63.6016 136.471 63.8408 137.547 64.0869C138.627 64.3285 139.368 64.5404 139.769 64.7227C140.352 64.9915 140.783 65.3333 141.061 65.748C141.339 66.1582 141.478 66.6322 141.478 67.1699C141.478 67.7031 141.325 68.2067 141.02 68.6807C140.714 69.1501 140.274 69.5169 139.7 69.7812C139.131 70.041 138.488 70.1709 137.772 70.1709C136.866 70.1709 136.104 70.0387 135.489 69.7744C134.879 69.5101 134.398 69.1136 134.047 68.585C133.701 68.0518 133.518 67.4502 133.5 66.7803ZM142.886 65.1191C142.886 63.4557 143.332 62.1546 144.226 61.2158C145.119 60.2725 146.272 59.8008 147.685 59.8008C148.61 59.8008 149.444 60.0218 150.187 60.4639C150.929 60.9059 151.494 61.5234 151.882 62.3164C152.274 63.1048 152.47 64.0003 152.47 65.0029C152.47 66.0192 152.265 66.9284 151.854 67.7305C151.444 68.5326 150.863 69.141 150.111 69.5557C149.359 69.9658 148.548 70.1709 147.678 70.1709C146.734 70.1709 145.891 69.943 145.148 69.4873C144.406 69.0316 143.843 68.4095 143.46 67.6211C143.077 66.8327 142.886 65.9987 142.886 65.1191ZM144.253 65.1396C144.253 66.3473 144.576 67.2998 145.224 67.9971C145.875 68.6898 146.691 69.0361 147.671 69.0361C148.669 69.0361 149.489 68.6852 150.132 67.9834C150.779 67.2816 151.103 66.2858 151.103 64.9961C151.103 64.1803 150.964 63.4694 150.686 62.8633C150.412 62.2526 150.009 61.7809 149.476 61.4482C148.947 61.111 148.352 60.9424 147.691 60.9424C146.753 60.9424 145.944 61.266 145.265 61.9131C144.59 62.5557 144.253 63.6312 144.253 65.1396ZM154.206 70V59.9785H158.649C159.543 59.9785 160.222 60.0697 160.687 60.252C161.151 60.4297 161.523 60.7464 161.801 61.2021C162.079 61.6579 162.218 62.1615 162.218 62.7129C162.218 63.4238 161.988 64.0231 161.527 64.5107C161.067 64.9984 160.356 65.3083 159.395 65.4404C159.745 65.609 160.012 65.7754 160.194 65.9395C160.582 66.2949 160.949 66.7393 161.295 67.2725L163.038 70H161.37L160.044 67.915C159.657 67.3135 159.338 66.8532 159.087 66.5342C158.836 66.2152 158.611 65.9919 158.41 65.8643C158.214 65.7367 158.014 65.6478 157.809 65.5977C157.658 65.5658 157.412 65.5498 157.07 65.5498H155.532V70H154.206ZM155.532 64.4014H158.383C158.989 64.4014 159.463 64.3398 159.805 64.2168C160.146 64.0892 160.406 63.8887 160.584 63.6152C160.762 63.3372 160.851 63.0365 160.851 62.7129C160.851 62.2389 160.677 61.8493 160.331 61.5439C159.989 61.2386 159.447 61.0859 158.704 61.0859H155.532V64.4014ZM164.528 70V59.9785H165.854V70H164.528ZM168.227 70V59.9785H175.473V61.1611H169.553V64.2305H175.097V65.4062H169.553V68.8174H175.705V70H168.227ZM177.086 66.7803L178.337 66.6709C178.396 67.1722 178.533 67.5846 178.747 67.9082C178.966 68.2272 179.303 68.487 179.759 68.6875C180.215 68.8835 180.727 68.9814 181.297 68.9814C181.803 68.9814 182.249 68.9062 182.637 68.7559C183.024 68.6055 183.311 68.4004 183.498 68.1406C183.689 67.8763 183.785 67.5892 183.785 67.2793C183.785 66.9648 183.694 66.6914 183.512 66.459C183.329 66.222 183.029 66.0238 182.609 65.8643C182.34 65.7594 181.746 65.5977 180.825 65.3789C179.905 65.1556 179.26 64.946 178.891 64.75C178.412 64.4993 178.054 64.1895 177.817 63.8203C177.585 63.4466 177.469 63.0296 177.469 62.5693C177.469 62.0635 177.612 61.5918 177.899 61.1543C178.187 60.7122 178.606 60.3773 179.157 60.1494C179.709 59.9215 180.322 59.8076 180.996 59.8076C181.739 59.8076 182.393 59.9284 182.958 60.1699C183.528 60.4069 183.965 60.7578 184.271 61.2227C184.576 61.6875 184.74 62.2139 184.763 62.8018L183.491 62.8975C183.423 62.264 183.19 61.7855 182.794 61.4619C182.402 61.1383 181.821 60.9766 181.051 60.9766C180.249 60.9766 179.663 61.1247 179.294 61.4209C178.929 61.7126 178.747 62.0658 178.747 62.4805C178.747 62.8405 178.877 63.1367 179.137 63.3691C179.392 63.6016 180.057 63.8408 181.133 64.0869C182.213 64.3285 182.953 64.5404 183.354 64.7227C183.938 64.9915 184.368 65.3333 184.646 65.748C184.924 66.1582 185.063 66.6322 185.063 67.1699C185.063 67.7031 184.911 68.2067 184.605 68.6807C184.3 69.1501 183.86 69.5169 183.286 69.7812C182.716 70.041 182.074 70.1709 181.358 70.1709C180.451 70.1709 179.69 70.0387 179.075 69.7744C178.465 69.5101 177.984 69.1136 177.633 68.585C177.286 68.0518 177.104 67.4502 177.086 66.7803Z" fill="#C0A080"/>
</svg>
