<svg width="134" height="77" viewBox="0 0 134 77" fill="none" xmlns="http://www.w3.org/2000/svg">
<path d="M27 41C27 30.3913 31.2143 20.2172 38.7157 12.7157C46.2172 5.21427 56.3913 1 67 1C77.6087 1 87.7828 5.21427 95.2843 12.7157C102.786 20.2172 107 30.3913 107 41" stroke="#C9A77C" stroke-width="2"/>
<path d="M0.226562 52L13.4219 17.6406H18.3203L32.3828 52H27.2031L23.1953 41.5938H8.82812L5.05469 52H0.226562ZM10.1406 37.8906H21.7891L18.2031 28.375C17.1094 25.4844 16.2969 23.1094 15.7656 21.25C15.3281 23.4531 14.7109 25.6406 13.9141 27.8125L10.1406 37.8906ZM58.5625 17.6406H63.1094V37.4922C63.1094 40.9453 62.7188 43.6875 61.9375 45.7188C61.1562 47.75 59.7422 49.4062 57.6953 50.6875C55.6641 51.9531 52.9922 52.5859 49.6797 52.5859C46.4609 52.5859 43.8281 52.0312 41.7812 50.9219C39.7344 49.8125 38.2734 48.2109 37.3984 46.1172C36.5234 44.0078 36.0859 41.1328 36.0859 37.4922V17.6406H40.6328V37.4688C40.6328 40.4531 40.9062 42.6562 41.4531 44.0781C42.0156 45.4844 42.9688 46.5703 44.3125 47.3359C45.6719 48.1016 47.3281 48.4844 49.2812 48.4844C52.625 48.4844 55.0078 47.7266 56.4297 46.2109C57.8516 44.6953 58.5625 41.7812 58.5625 37.4688V17.6406ZM70.7734 52V17.6406H86.0078C89.0703 17.6406 91.3984 17.9531 92.9922 18.5781C94.5859 19.1875 95.8594 20.2734 96.8125 21.8359C97.7656 23.3984 98.2422 25.125 98.2422 27.0156C98.2422 29.4531 97.4531 31.5078 95.875 33.1797C94.2969 34.8516 91.8594 35.9141 88.5625 36.3672C89.7656 36.9453 90.6797 37.5156 91.3047 38.0781C92.6328 39.2969 93.8906 40.8203 95.0781 42.6484L101.055 52H95.3359L90.7891 44.8516C89.4609 42.7891 88.3672 41.2109 87.5078 40.1172C86.6484 39.0234 85.875 38.2578 85.1875 37.8203C84.5156 37.3828 83.8281 37.0781 83.125 36.9062C82.6094 36.7969 81.7656 36.7422 80.5938 36.7422H75.3203V52H70.7734ZM75.3203 32.8047H85.0938C87.1719 32.8047 88.7969 32.5938 89.9688 32.1719C91.1406 31.7344 92.0312 31.0469 92.6406 30.1094C93.25 29.1562 93.5547 28.125 93.5547 27.0156C93.5547 25.3906 92.9609 24.0547 91.7734 23.0078C90.6016 21.9609 88.7422 21.4375 86.1953 21.4375H75.3203V32.8047ZM101.617 52L114.812 17.6406H119.711L133.773 52H128.594L124.586 41.5938H110.219L106.445 52H101.617ZM111.531 37.8906H123.18L119.594 28.375C118.5 25.4844 117.688 23.1094 117.156 21.25C116.719 23.4531 116.102 25.6406 115.305 27.8125L111.531 37.8906Z" fill="#1A1A1A"/>
<path d="M2.59082 75V67.8418H3.53809V74.1553H7.06348V75H2.59082ZM12.8936 67.8418H13.8408V71.9775C13.8408 72.6969 13.7594 73.2682 13.5967 73.6914C13.4339 74.1146 13.1393 74.4596 12.7129 74.7266C12.2897 74.9902 11.7331 75.1221 11.043 75.1221C10.3724 75.1221 9.82389 75.0065 9.39746 74.7754C8.97103 74.5443 8.66667 74.2106 8.48438 73.7744C8.30208 73.335 8.21094 72.736 8.21094 71.9775V67.8418H9.1582V71.9727C9.1582 72.5944 9.21517 73.0534 9.3291 73.3496C9.44629 73.6426 9.64486 73.8688 9.9248 74.0283C10.208 74.1878 10.5531 74.2676 10.96 74.2676C11.6566 74.2676 12.153 74.1097 12.4492 73.7939C12.7454 73.4782 12.8936 72.8711 12.8936 71.9727V67.8418ZM14.6953 75L17.4639 71.2695L15.0225 67.8418H16.1504L17.4492 69.6777C17.7194 70.0586 17.9115 70.3516 18.0254 70.5566C18.1849 70.2962 18.3737 70.0244 18.5918 69.7412L20.0322 67.8418H21.0625L18.5479 71.2158L21.2578 75H20.0859L18.2842 72.4463C18.1833 72.2998 18.0791 72.1403 17.9717 71.9678C17.8122 72.2282 17.6982 72.4072 17.6299 72.5049L15.833 75H14.6953ZM26.79 67.8418H27.7373V71.9775C27.7373 72.6969 27.6559 73.2682 27.4932 73.6914C27.3304 74.1146 27.0358 74.4596 26.6094 74.7266C26.1862 74.9902 25.6296 75.1221 24.9395 75.1221C24.2689 75.1221 23.7204 75.0065 23.2939 74.7754C22.8675 74.5443 22.5632 74.2106 22.3809 73.7744C22.1986 73.335 22.1074 72.736 22.1074 71.9775V67.8418H23.0547V71.9727C23.0547 72.5944 23.1117 73.0534 23.2256 73.3496C23.3428 73.6426 23.5413 73.8688 23.8213 74.0283C24.1045 74.1878 24.4495 74.2676 24.8564 74.2676C25.5531 74.2676 26.0495 74.1097 26.3457 73.7939C26.6419 73.4782 26.79 72.8711 26.79 71.9727V67.8418ZM29.334 75V67.8418H32.5078C33.1458 67.8418 33.6309 67.9069 33.9629 68.0371C34.2949 68.1641 34.5602 68.3903 34.7588 68.7158C34.9574 69.0413 35.0566 69.401 35.0566 69.7949C35.0566 70.3027 34.8923 70.7308 34.5635 71.0791C34.2347 71.4274 33.7269 71.6488 33.04 71.7432C33.2907 71.8636 33.4811 71.9824 33.6113 72.0996C33.888 72.3535 34.1501 72.6709 34.3975 73.0518L35.6426 75H34.4512L33.5039 73.5107C33.2272 73.0811 32.9993 72.7523 32.8203 72.5244C32.6413 72.2965 32.4801 72.137 32.3369 72.0459C32.1969 71.9548 32.0537 71.8913 31.9072 71.8555C31.7998 71.8327 31.624 71.8213 31.3799 71.8213H30.2812V75H29.334ZM30.2812 71.001H32.3174C32.7503 71.001 33.0889 70.957 33.333 70.8691C33.5771 70.778 33.7627 70.6348 33.8896 70.4395C34.0166 70.2409 34.0801 70.026 34.0801 69.7949C34.0801 69.4564 33.9564 69.1781 33.709 68.96C33.4648 68.7419 33.0775 68.6328 32.5469 68.6328H30.2812V71.001ZM38.377 75V71.9678L35.6182 67.8418H36.7705L38.1816 70C38.4421 70.4036 38.6846 70.8073 38.9092 71.2109C39.124 70.8366 39.3844 70.415 39.6904 69.9463L41.0771 67.8418H42.1807L39.3242 71.9678V75H38.377ZM47.2637 75V68.6865H44.9053V67.8418H50.5791V68.6865H48.2109V75H47.2637ZM50.0273 75L52.7764 67.8418H53.7969L56.7266 75H55.6475L54.8125 72.832H51.8193L51.0332 75H50.0273ZM52.0928 72.0605H54.5195L53.7725 70.0781C53.5446 69.4759 53.3753 68.9811 53.2646 68.5938C53.1735 69.0527 53.0449 69.5085 52.8789 69.9609L52.0928 72.0605ZM57.4736 75V67.8418H58.4453L62.2051 73.4619V67.8418H63.1133V75H62.1416L58.3818 69.375V75H57.4736ZM64.7002 75V67.8418H65.6719L69.4316 73.4619V67.8418H70.3398V75H69.3682L65.6084 69.375V75H64.7002ZM72.0977 75V67.8418H73.0449V75H72.0977ZM74.71 75V67.8418H75.6816L79.4414 73.4619V67.8418H80.3496V75H79.3779L75.6182 69.375V75H74.71ZM85.2959 72.1924V71.3525L88.3281 71.3477V74.0039C87.8626 74.375 87.3825 74.6549 86.8877 74.8438C86.3929 75.0293 85.8851 75.1221 85.3643 75.1221C84.6611 75.1221 84.0215 74.9723 83.4453 74.6729C82.8724 74.3701 82.4395 73.9339 82.1465 73.3643C81.8535 72.7946 81.707 72.1582 81.707 71.4551C81.707 70.7585 81.8519 70.109 82.1416 69.5068C82.4346 68.9014 82.8545 68.4521 83.4014 68.1592C83.9482 67.8662 84.5781 67.7197 85.291 67.7197C85.8086 67.7197 86.2757 67.8044 86.6924 67.9736C87.1123 68.1396 87.4411 68.3724 87.6787 68.6719C87.9163 68.9714 88.097 69.362 88.2207 69.8438L87.3662 70.0781C87.2588 69.7135 87.1253 69.4271 86.9658 69.2188C86.8063 69.0104 86.5785 68.8444 86.2822 68.7207C85.986 68.5938 85.6572 68.5303 85.2959 68.5303C84.863 68.5303 84.4886 68.597 84.1729 68.7305C83.8571 68.8607 83.6016 69.0332 83.4062 69.248C83.2142 69.4629 83.0645 69.6989 82.957 69.9561C82.7747 70.3988 82.6836 70.8789 82.6836 71.3965C82.6836 72.0345 82.7926 72.5684 83.0107 72.998C83.2321 73.4277 83.5527 73.7467 83.9727 73.9551C84.3926 74.1634 84.8385 74.2676 85.3105 74.2676C85.7207 74.2676 86.1211 74.1895 86.5117 74.0332C86.9023 73.8737 87.1986 73.7044 87.4004 73.5254V72.1924H85.2959ZM91.1699 75L93.9189 67.8418H94.9395L97.8691 75H96.79L95.9551 72.832H92.9619L92.1758 75H91.1699ZM93.2354 72.0605H95.6621L94.915 70.0781C94.6872 69.4759 94.5179 68.9811 94.4072 68.5938C94.3161 69.0527 94.1875 69.5085 94.0215 69.9609L93.2354 72.0605ZM99.7051 75V68.6865H97.3467V67.8418H103.021V68.6865H100.652V75H99.7051ZM104.017 75V67.8418H109.192V68.6865H104.964V70.8789H108.924V71.7188H104.964V74.1553H109.358V75H104.017ZM110.628 75V67.8418H111.575V74.1553H115.101V75H110.628ZM116.395 75V67.8418H117.342V75H116.395ZM119.036 75V67.8418H124.212V68.6865H119.983V70.8789H123.943V71.7188H119.983V74.1553H124.378V75H119.036ZM125.701 75V67.8418H128.875C129.513 67.8418 129.998 67.9069 130.33 68.0371C130.662 68.1641 130.927 68.3903 131.126 68.7158C131.325 69.0413 131.424 69.401 131.424 69.7949C131.424 70.3027 131.259 70.7308 130.931 71.0791C130.602 71.4274 130.094 71.6488 129.407 71.7432C129.658 71.8636 129.848 71.9824 129.979 72.0996C130.255 72.3535 130.517 72.6709 130.765 73.0518L132.01 75H130.818L129.871 73.5107C129.594 73.0811 129.367 72.7523 129.188 72.5244C129.008 72.2965 128.847 72.137 128.704 72.0459C128.564 71.9548 128.421 71.8913 128.274 71.8555C128.167 71.8327 127.991 71.8213 127.747 71.8213H126.648V75H125.701ZM126.648 71.001H128.685C129.118 71.001 129.456 70.957 129.7 70.8691C129.944 70.778 130.13 70.6348 130.257 70.4395C130.384 70.2409 130.447 70.026 130.447 69.7949C130.447 69.4564 130.324 69.1781 130.076 68.96C129.832 68.7419 129.445 68.6328 128.914 68.6328H126.648V71.001Z" fill="#666666"/>
</svg>
