<svg width="365" height="93" viewBox="0 0 365 93" fill="none" xmlns="http://www.w3.org/2000/svg">
<path d="M0 33H80V93H0V33Z" fill="#2D5A97"/>
<path d="M0 33L40 13H120L80 33H0Z" fill="#1E3F6B"/>
<path d="M80 33L120 13V73L80 93V33Z" fill="#264B82"/>
<path d="M30 48H50V58L65 48L50 38V48" fill="white"/>
<path d="M133.492 44V9.64062H158.969V15.4531H140.43V23.0703H157.68V28.8594H140.43V38.2109H159.625V44H133.492ZM170.383 26.7031L164.406 25.625C165.078 23.2188 166.234 21.4375 167.875 20.2812C169.516 19.125 171.953 18.5469 175.188 18.5469C178.125 18.5469 180.312 18.8984 181.75 19.6016C183.188 20.2891 184.195 21.1719 184.773 22.25C185.367 23.3125 185.664 25.2734 185.664 28.1328L185.594 35.8203C185.594 38.0078 185.695 39.625 185.898 40.6719C186.117 41.7031 186.516 42.8125 187.094 44H180.578C180.406 43.5625 180.195 42.9141 179.945 42.0547C179.836 41.6641 179.758 41.4062 179.711 41.2812C178.586 42.375 177.383 43.1953 176.102 43.7422C174.82 44.2891 173.453 44.5625 172 44.5625C169.438 44.5625 167.414 43.8672 165.93 42.4766C164.461 41.0859 163.727 39.3281 163.727 37.2031C163.727 35.7969 164.062 34.5469 164.734 33.4531C165.406 32.3438 166.344 31.5 167.547 30.9219C168.766 30.3281 170.516 29.8125 172.797 29.375C175.875 28.7969 178.008 28.2578 179.195 27.7578V27.1016C179.195 25.8359 178.883 24.9375 178.258 24.4062C177.633 23.8594 176.453 23.5859 174.719 23.5859C173.547 23.5859 172.633 23.8203 171.977 24.2891C171.32 24.7422 170.789 25.5469 170.383 26.7031ZM179.195 32.0469C178.352 32.3281 177.016 32.6641 175.188 33.0547C173.359 33.4453 172.164 33.8281 171.602 34.2031C170.742 34.8125 170.312 35.5859 170.312 36.5234C170.312 37.4453 170.656 38.2422 171.344 38.9141C172.031 39.5859 172.906 39.9219 173.969 39.9219C175.156 39.9219 176.289 39.5312 177.367 38.75C178.164 38.1562 178.688 37.4297 178.938 36.5703C179.109 36.0078 179.195 34.9375 179.195 33.3594V32.0469ZM189.859 36.8984L196.469 35.8906C196.75 37.1719 197.32 38.1484 198.18 38.8203C199.039 39.4766 200.242 39.8047 201.789 39.8047C203.492 39.8047 204.773 39.4922 205.633 38.8672C206.211 38.4297 206.5 37.8438 206.5 37.1094C206.5 36.6094 206.344 36.1953 206.031 35.8672C205.703 35.5547 204.969 35.2656 203.828 35C198.516 33.8281 195.148 32.7578 193.727 31.7891C191.758 30.4453 190.773 28.5781 190.773 26.1875C190.773 24.0312 191.625 22.2188 193.328 20.75C195.031 19.2812 197.672 18.5469 201.25 18.5469C204.656 18.5469 207.188 19.1016 208.844 20.2109C210.5 21.3203 211.641 22.9609 212.266 25.1328L206.055 26.2812C205.789 25.3125 205.281 24.5703 204.531 24.0547C203.797 23.5391 202.742 23.2812 201.367 23.2812C199.633 23.2812 198.391 23.5234 197.641 24.0078C197.141 24.3516 196.891 24.7969 196.891 25.3438C196.891 25.8125 197.109 26.2109 197.547 26.5391C198.141 26.9766 200.188 27.5938 203.688 28.3906C207.203 29.1875 209.656 30.1641 211.047 31.3203C212.422 32.4922 213.109 34.125 213.109 36.2188C213.109 38.5 212.156 40.4609 210.25 42.1016C208.344 43.7422 205.523 44.5625 201.789 44.5625C198.398 44.5625 195.711 43.875 193.727 42.5C191.758 41.125 190.469 39.2578 189.859 36.8984ZM215.781 19.1094H222.789L228.742 36.7812L234.555 19.1094H241.375L232.586 43.0625L231.016 47.3984C230.438 48.8516 229.883 49.9609 229.352 50.7266C228.836 51.4922 228.234 52.1094 227.547 52.5781C226.875 53.0625 226.039 53.4375 225.039 53.7031C224.055 53.9688 222.938 54.1016 221.688 54.1016C220.422 54.1016 219.18 53.9688 217.961 53.7031L217.375 48.5469C218.406 48.75 219.336 48.8516 220.164 48.8516C221.695 48.8516 222.828 48.3984 223.562 47.4922C224.297 46.6016 224.859 45.4609 225.25 44.0703L215.781 19.1094Z" fill="#2D5A97"/>
<path d="M245.57 44V9.64062H255.953L262.188 33.0781L268.352 9.64062H278.758V44H272.312V16.9531L265.492 44H258.812L252.016 16.9531V44H245.57ZM284.078 31.2031C284.078 29.0156 284.617 26.8984 285.695 24.8516C286.773 22.8047 288.297 21.2422 290.266 20.1641C292.25 19.0859 294.461 18.5469 296.898 18.5469C300.664 18.5469 303.75 19.7734 306.156 22.2266C308.562 24.6641 309.766 27.75 309.766 31.4844C309.766 35.25 308.547 38.375 306.109 40.8594C303.688 43.3281 300.633 44.5625 296.945 44.5625C294.664 44.5625 292.484 44.0469 290.406 43.0156C288.344 41.9844 286.773 40.4766 285.695 38.4922C284.617 36.4922 284.078 34.0625 284.078 31.2031ZM290.828 31.5547C290.828 34.0234 291.414 35.9141 292.586 37.2266C293.758 38.5391 295.203 39.1953 296.922 39.1953C298.641 39.1953 300.078 38.5391 301.234 37.2266C302.406 35.9141 302.992 34.0078 302.992 31.5078C302.992 29.0703 302.406 27.1953 301.234 25.8828C300.078 24.5703 298.641 23.9141 296.922 23.9141C295.203 23.9141 293.758 24.5703 292.586 25.8828C291.414 27.1953 290.828 29.0859 290.828 31.5547ZM321.789 44L311.758 19.1094H318.672L323.359 31.8125L324.719 36.0547C325.078 34.9766 325.305 34.2656 325.398 33.9219C325.617 33.2188 325.852 32.5156 326.102 31.8125L330.836 19.1094H337.609L327.719 44H321.789ZM356.078 36.0781L362.641 37.1797C361.797 39.5859 360.461 41.4219 358.633 42.6875C356.82 43.9375 354.547 44.5625 351.812 44.5625C347.484 44.5625 344.281 43.1484 342.203 40.3203C340.562 38.0547 339.742 35.1953 339.742 31.7422C339.742 27.6172 340.82 24.3906 342.977 22.0625C345.133 19.7188 347.859 18.5469 351.156 18.5469C354.859 18.5469 357.781 19.7734 359.922 22.2266C362.062 24.6641 363.086 28.4062 362.992 33.4531H346.492C346.539 35.4062 347.07 36.9297 348.086 38.0234C349.102 39.1016 350.367 39.6406 351.883 39.6406C352.914 39.6406 353.781 39.3594 354.484 38.7969C355.188 38.2344 355.719 37.3281 356.078 36.0781ZM356.453 29.4219C356.406 27.5156 355.914 26.0703 354.977 25.0859C354.039 24.0859 352.898 23.5859 351.555 23.5859C350.117 23.5859 348.93 24.1094 347.992 25.1562C347.055 26.2031 346.594 27.625 346.609 29.4219H356.453Z" fill="#FF6B35"/>
<path d="M131.188 72V60.5469H133.469L136.18 68.6562C136.43 69.4115 136.612 69.9766 136.727 70.3516C136.857 69.9349 137.06 69.3229 137.336 68.5156L140.078 60.5469H142.117V72H140.656V62.4141L137.328 72H135.961L132.648 62.25V72H131.188ZM143.859 67.8516C143.859 66.3151 144.286 65.1771 145.141 64.4375C145.854 63.8229 146.724 63.5156 147.75 63.5156C148.891 63.5156 149.823 63.8906 150.547 64.6406C151.271 65.3854 151.633 66.4167 151.633 67.7344C151.633 68.8021 151.471 69.6432 151.148 70.2578C150.831 70.8672 150.365 71.3411 149.75 71.6797C149.141 72.0182 148.474 72.1875 147.75 72.1875C146.589 72.1875 145.648 71.8151 144.93 71.0703C144.216 70.3255 143.859 69.2526 143.859 67.8516ZM145.305 67.8516C145.305 68.9141 145.536 69.7109 146 70.2422C146.464 70.7682 147.047 71.0312 147.75 71.0312C148.448 71.0312 149.029 70.7656 149.492 70.2344C149.956 69.7031 150.188 68.8932 150.188 67.8047C150.188 66.7786 149.953 66.0026 149.484 65.4766C149.021 64.9453 148.443 64.6797 147.75 64.6797C147.047 64.6797 146.464 64.9427 146 65.4688C145.536 65.9948 145.305 66.7891 145.305 67.8516ZM155.594 72L152.438 63.7031H153.922L155.703 68.6719C155.896 69.2083 156.073 69.7656 156.234 70.3438C156.359 69.9062 156.534 69.3802 156.758 68.7656L158.602 63.7031H160.047L156.906 72H155.594ZM161.297 62.1641V60.5469H162.703V62.1641H161.297ZM161.297 72V63.7031H162.703V72H161.297ZM164.852 72V63.7031H166.117V64.8828C166.727 63.9714 167.607 63.5156 168.758 63.5156C169.258 63.5156 169.716 63.6068 170.133 63.7891C170.555 63.9661 170.87 64.2005 171.078 64.4922C171.286 64.7839 171.432 65.1302 171.516 65.5312C171.568 65.7917 171.594 66.2474 171.594 66.8984V72H170.188V66.9531C170.188 66.3802 170.133 65.9531 170.023 65.6719C169.914 65.3854 169.719 65.1589 169.438 64.9922C169.161 64.8203 168.836 64.7344 168.461 64.7344C167.862 64.7344 167.344 64.9245 166.906 65.3047C166.474 65.6849 166.258 66.4062 166.258 67.4688V72H164.852ZM173.5 72.6875L174.867 72.8906C174.924 73.3125 175.083 73.6198 175.344 73.8125C175.693 74.0729 176.169 74.2031 176.773 74.2031C177.424 74.2031 177.927 74.0729 178.281 73.8125C178.635 73.5521 178.875 73.1875 179 72.7188C179.073 72.4323 179.107 71.8307 179.102 70.9141C178.487 71.638 177.721 72 176.805 72C175.664 72 174.781 71.5885 174.156 70.7656C173.531 69.9427 173.219 68.9557 173.219 67.8047C173.219 67.013 173.362 66.2839 173.648 65.6172C173.935 64.9453 174.349 64.4271 174.891 64.0625C175.438 63.6979 176.078 63.5156 176.812 63.5156C177.792 63.5156 178.599 63.9115 179.234 64.7031V63.7031H180.531V70.875C180.531 72.1667 180.398 73.0807 180.133 73.6172C179.872 74.1589 179.456 74.5859 178.883 74.8984C178.315 75.2109 177.615 75.3672 176.781 75.3672C175.792 75.3672 174.992 75.1432 174.383 74.6953C173.773 74.2526 173.479 73.5833 173.5 72.6875ZM174.664 67.7031C174.664 68.7917 174.88 69.5859 175.312 70.0859C175.745 70.5859 176.286 70.8359 176.938 70.8359C177.583 70.8359 178.125 70.5885 178.562 70.0938C179 69.5938 179.219 68.8125 179.219 67.75C179.219 66.7344 178.992 65.9688 178.539 65.4531C178.091 64.9375 177.549 64.6797 176.914 64.6797C176.289 64.6797 175.758 64.9349 175.32 65.4453C174.883 65.9505 174.664 66.7031 174.664 67.7031ZM193.664 70.6484C193.201 71.1641 192.695 71.5521 192.148 71.8125C191.602 72.0677 191.01 72.1953 190.375 72.1953C189.203 72.1953 188.273 71.7995 187.586 71.0078C187.029 70.362 186.75 69.6406 186.75 68.8438C186.75 68.1354 186.977 67.4974 187.43 66.9297C187.888 66.3568 188.57 65.8542 189.477 65.4219C188.961 64.8281 188.617 64.3464 188.445 63.9766C188.273 63.6068 188.188 63.25 188.188 62.9062C188.188 62.2188 188.456 61.6224 188.992 61.1172C189.534 60.6068 190.214 60.3516 191.031 60.3516C191.812 60.3516 192.451 60.5911 192.945 61.0703C193.445 61.5495 193.695 62.125 193.695 62.7969C193.695 63.8854 192.974 64.8151 191.531 65.5859L193.586 68.2031C193.82 67.7448 194.003 67.2135 194.133 66.6094L195.594 66.9219C195.344 67.9219 195.005 68.7448 194.578 69.3906C195.104 70.0885 195.701 70.6745 196.367 71.1484L195.422 72.2656C194.854 71.901 194.268 71.362 193.664 70.6484ZM190.805 64.6797C191.414 64.3203 191.807 64.0052 191.984 63.7344C192.167 63.4635 192.258 63.1641 192.258 62.8359C192.258 62.4453 192.133 62.1276 191.883 61.8828C191.638 61.6328 191.331 61.5078 190.961 61.5078C190.581 61.5078 190.263 61.6302 190.008 61.875C189.758 62.1198 189.633 62.4193 189.633 62.7734C189.633 62.9505 189.677 63.138 189.766 63.3359C189.859 63.5286 189.997 63.7344 190.18 63.9531L190.805 64.6797ZM192.781 69.5391L190.203 66.3438C189.443 66.7969 188.93 67.2188 188.664 67.6094C188.398 67.9948 188.266 68.3776 188.266 68.7578C188.266 69.2214 188.451 69.7031 188.82 70.2031C189.19 70.7031 189.714 70.9531 190.391 70.9531C190.812 70.9531 191.247 70.8229 191.695 70.5625C192.148 70.2969 192.51 69.9557 192.781 69.5391ZM201.906 68.3203L203.336 68.1953C203.404 68.7682 203.56 69.2396 203.805 69.6094C204.055 69.974 204.44 70.2708 204.961 70.5C205.482 70.724 206.068 70.8359 206.719 70.8359C207.297 70.8359 207.807 70.75 208.25 70.5781C208.693 70.4062 209.021 70.1719 209.234 69.875C209.453 69.5729 209.562 69.2448 209.562 68.8906C209.562 68.5312 209.458 68.2188 209.25 67.9531C209.042 67.6823 208.698 67.4557 208.219 67.2734C207.911 67.1536 207.232 66.9688 206.18 66.7188C205.128 66.4635 204.391 66.224 203.969 66C203.422 65.7135 203.013 65.3594 202.742 64.9375C202.477 64.5104 202.344 64.0339 202.344 63.5078C202.344 62.9297 202.508 62.3906 202.836 61.8906C203.164 61.3854 203.643 61.0026 204.273 60.7422C204.904 60.4818 205.604 60.3516 206.375 60.3516C207.224 60.3516 207.971 60.4896 208.617 60.7656C209.268 61.0365 209.768 61.4375 210.117 61.9688C210.466 62.5 210.654 63.1016 210.68 63.7734L209.227 63.8828C209.148 63.1589 208.883 62.612 208.43 62.2422C207.982 61.8724 207.318 61.6875 206.438 61.6875C205.521 61.6875 204.852 61.8568 204.43 62.1953C204.013 62.5286 203.805 62.9323 203.805 63.4062C203.805 63.8177 203.953 64.1562 204.25 64.4219C204.542 64.6875 205.302 64.9609 206.531 65.2422C207.766 65.5182 208.612 65.7604 209.07 65.9688C209.737 66.276 210.229 66.6667 210.547 67.1406C210.865 67.6094 211.023 68.151 211.023 68.7656C211.023 69.375 210.849 69.9505 210.5 70.4922C210.151 71.0286 209.648 71.4479 208.992 71.75C208.341 72.0469 207.607 72.1953 206.789 72.1953C205.753 72.1953 204.883 72.0443 204.18 71.7422C203.482 71.4401 202.932 70.987 202.531 70.3828C202.135 69.7734 201.927 69.0859 201.906 68.3203ZM215.984 70.7422L216.188 71.9844C215.792 72.0677 215.438 72.1094 215.125 72.1094C214.615 72.1094 214.219 72.0286 213.938 71.8672C213.656 71.7057 213.458 71.4948 213.344 71.2344C213.229 70.9688 213.172 70.4141 213.172 69.5703V64.7969H212.141V63.7031H213.172V61.6484L214.57 60.8047V63.7031H215.984V64.7969H214.57V69.6484C214.57 70.0495 214.594 70.3073 214.641 70.4219C214.693 70.5365 214.773 70.6276 214.883 70.6953C214.997 70.763 215.159 70.7969 215.367 70.7969C215.523 70.7969 215.729 70.7786 215.984 70.7422ZM216.844 67.8516C216.844 66.3151 217.271 65.1771 218.125 64.4375C218.839 63.8229 219.708 63.5156 220.734 63.5156C221.875 63.5156 222.807 63.8906 223.531 64.6406C224.255 65.3854 224.617 66.4167 224.617 67.7344C224.617 68.8021 224.456 69.6432 224.133 70.2578C223.815 70.8672 223.349 71.3411 222.734 71.6797C222.125 72.0182 221.458 72.1875 220.734 72.1875C219.573 72.1875 218.633 71.8151 217.914 71.0703C217.201 70.3255 216.844 69.2526 216.844 67.8516ZM218.289 67.8516C218.289 68.9141 218.521 69.7109 218.984 70.2422C219.448 70.7682 220.031 71.0312 220.734 71.0312C221.432 71.0312 222.013 70.7656 222.477 70.2344C222.94 69.7031 223.172 68.8932 223.172 67.8047C223.172 66.7786 222.938 66.0026 222.469 65.4766C222.005 64.9453 221.427 64.6797 220.734 64.6797C220.031 64.6797 219.448 64.9427 218.984 65.4688C218.521 65.9948 218.289 66.7891 218.289 67.8516ZM226.258 72V63.7031H227.523V64.9609C227.846 64.3724 228.143 63.9844 228.414 63.7969C228.69 63.6094 228.992 63.5156 229.32 63.5156C229.794 63.5156 230.276 63.6667 230.766 63.9688L230.281 65.2734C229.938 65.0703 229.594 64.9688 229.25 64.9688C228.943 64.9688 228.667 65.0625 228.422 65.25C228.177 65.4323 228.003 65.6875 227.898 66.0156C227.742 66.5156 227.664 67.0625 227.664 67.6562V72H226.258ZM237.016 70.9766C236.495 71.4193 235.992 71.7318 235.508 71.9141C235.029 72.0964 234.513 72.1875 233.961 72.1875C233.049 72.1875 232.349 71.9661 231.859 71.5234C231.37 71.0755 231.125 70.5052 231.125 69.8125C231.125 69.4062 231.216 69.0365 231.398 68.7031C231.586 68.3646 231.828 68.0938 232.125 67.8906C232.427 67.6875 232.766 67.5339 233.141 67.4297C233.417 67.3568 233.833 67.2865 234.391 67.2188C235.526 67.0833 236.362 66.9219 236.898 66.7344C236.904 66.5417 236.906 66.4193 236.906 66.3672C236.906 65.7943 236.773 65.3906 236.508 65.1562C236.148 64.8385 235.615 64.6797 234.906 64.6797C234.245 64.6797 233.755 64.7969 233.438 65.0312C233.125 65.2604 232.893 65.6693 232.742 66.2578L231.367 66.0703C231.492 65.4818 231.698 65.0078 231.984 64.6484C232.271 64.2839 232.685 64.0052 233.227 63.8125C233.768 63.6146 234.396 63.5156 235.109 63.5156C235.818 63.5156 236.393 63.599 236.836 63.7656C237.279 63.9323 237.604 64.1432 237.812 64.3984C238.021 64.6484 238.167 64.9661 238.25 65.3516C238.297 65.5911 238.32 66.0234 238.32 66.6484V68.5234C238.32 69.8307 238.349 70.6589 238.406 71.0078C238.469 71.3516 238.589 71.6823 238.766 72H237.297C237.151 71.7083 237.057 71.3672 237.016 70.9766ZM236.898 67.8359C236.388 68.0443 235.622 68.2214 234.602 68.3672C234.023 68.4505 233.615 68.5443 233.375 68.6484C233.135 68.7526 232.951 68.9062 232.82 69.1094C232.69 69.3073 232.625 69.5286 232.625 69.7734C232.625 70.1484 232.766 70.4609 233.047 70.7109C233.333 70.9609 233.75 71.0859 234.297 71.0859C234.839 71.0859 235.32 70.9688 235.742 70.7344C236.164 70.4948 236.474 70.1693 236.672 69.7578C236.823 69.4401 236.898 68.9714 236.898 68.3516V67.8359ZM240.25 72.6875L241.617 72.8906C241.674 73.3125 241.833 73.6198 242.094 73.8125C242.443 74.0729 242.919 74.2031 243.523 74.2031C244.174 74.2031 244.677 74.0729 245.031 73.8125C245.385 73.5521 245.625 73.1875 245.75 72.7188C245.823 72.4323 245.857 71.8307 245.852 70.9141C245.237 71.638 244.471 72 243.555 72C242.414 72 241.531 71.5885 240.906 70.7656C240.281 69.9427 239.969 68.9557 239.969 67.8047C239.969 67.013 240.112 66.2839 240.398 65.6172C240.685 64.9453 241.099 64.4271 241.641 64.0625C242.188 63.6979 242.828 63.5156 243.562 63.5156C244.542 63.5156 245.349 63.9115 245.984 64.7031V63.7031H247.281V70.875C247.281 72.1667 247.148 73.0807 246.883 73.6172C246.622 74.1589 246.206 74.5859 245.633 74.8984C245.065 75.2109 244.365 75.3672 243.531 75.3672C242.542 75.3672 241.742 75.1432 241.133 74.6953C240.523 74.2526 240.229 73.5833 240.25 72.6875ZM241.414 67.7031C241.414 68.7917 241.63 69.5859 242.062 70.0859C242.495 70.5859 243.036 70.8359 243.688 70.8359C244.333 70.8359 244.875 70.5885 245.312 70.0938C245.75 69.5938 245.969 68.8125 245.969 67.75C245.969 66.7344 245.742 65.9688 245.289 65.4531C244.841 64.9375 244.299 64.6797 243.664 64.6797C243.039 64.6797 242.508 64.9349 242.07 65.4453C241.633 65.9505 241.414 66.7031 241.414 67.7031ZM255.094 69.3281L256.547 69.5078C256.318 70.3568 255.893 71.0156 255.273 71.4844C254.654 71.9531 253.862 72.1875 252.898 72.1875C251.685 72.1875 250.721 71.8151 250.008 71.0703C249.299 70.3203 248.945 69.2708 248.945 67.9219C248.945 66.526 249.305 65.4427 250.023 64.6719C250.742 63.901 251.674 63.5156 252.82 63.5156C253.93 63.5156 254.836 63.8932 255.539 64.6484C256.242 65.4036 256.594 66.4661 256.594 67.8359C256.594 67.9193 256.591 68.0443 256.586 68.2109H250.398C250.451 69.1224 250.708 69.8203 251.172 70.3047C251.635 70.7891 252.214 71.0312 252.906 71.0312C253.422 71.0312 253.862 70.8958 254.227 70.625C254.591 70.3542 254.88 69.9219 255.094 69.3281ZM250.477 67.0547H255.109C255.047 66.3568 254.87 65.8333 254.578 65.4844C254.13 64.9427 253.549 64.6719 252.836 64.6719C252.19 64.6719 251.646 64.888 251.203 65.3203C250.766 65.7526 250.523 66.3307 250.477 67.0547Z" fill="#666666"/>
</svg>
