<svg width="300" height="100" viewBox="0 0 300 100" fill="none" xmlns="http://www.w3.org/2000/svg">
<path d="M60 25V75L90 25V75" stroke="#6366F1" stroke-width="8" stroke-linecap="round"/>
<path d="M75 50H100" stroke="#6366F1" stroke-width="3"/>
<path d="M70 45H95" stroke="#818CF8" stroke-width="2"/>
<path d="M70 55H95" stroke="#818CF8" stroke-width="2"/>
<path d="M114.82 68V40.7988H120.164L131.297 58.9639V40.7988H136.399V68H130.889L119.923 50.2617V68H114.82ZM142.226 68V40.7988H162.395V45.4004H147.718V51.4307H161.374V56.0137H147.718V63.417H162.914V68H142.226ZM164.807 68L174.103 53.8057L165.679 40.7988H172.099L177.554 49.5381L182.897 40.7988H189.262L180.801 54.0098L190.097 68H183.473L177.442 58.5928L171.394 68H164.807Z" fill="#312E81"/>
<path d="M192.88 40.7988H198.372V55.5312C198.372 57.8691 198.44 59.3844 198.576 60.0771C198.811 61.1904 199.368 62.0872 200.246 62.7676C201.137 63.4355 202.349 63.7695 203.883 63.7695C205.441 63.7695 206.617 63.4541 207.408 62.8232C208.2 62.18 208.676 61.3945 208.837 60.4668C208.998 59.5391 209.078 57.999 209.078 55.8467V40.7988H214.57V55.0859C214.57 58.3516 214.422 60.6585 214.125 62.0068C213.828 63.3551 213.278 64.4932 212.474 65.4209C211.682 66.3486 210.618 67.0908 209.282 67.6475C207.946 68.1917 206.202 68.4639 204.05 68.4639C201.452 68.4639 199.479 68.167 198.131 67.5732C196.795 66.9671 195.737 66.1878 194.958 65.2354C194.179 64.2705 193.665 63.2624 193.418 62.2109C193.059 60.6523 192.88 58.3516 192.88 55.3086V40.7988ZM218.986 59.1494L224.33 58.6299C224.652 60.4235 225.301 61.7409 226.278 62.582C227.268 63.4232 228.598 63.8438 230.268 63.8438C232.036 63.8438 233.366 63.4727 234.257 62.7305C235.16 61.9759 235.611 61.0977 235.611 60.0957C235.611 59.4525 235.42 58.9082 235.036 58.4629C234.665 58.0052 234.009 57.6094 233.069 57.2754C232.426 57.0527 230.96 56.6569 228.672 56.0879C225.728 55.3581 223.662 54.4613 222.475 53.3975C220.805 51.9007 219.97 50.0762 219.97 47.9238C219.97 46.5384 220.359 45.2458 221.139 44.0459C221.93 42.8337 223.062 41.9121 224.534 41.2812C226.019 40.6504 227.806 40.335 229.896 40.335C233.311 40.335 235.877 41.0833 237.597 42.5801C239.328 44.0768 240.238 46.0745 240.324 48.5732L234.832 48.8145C234.597 47.4167 234.09 46.4147 233.311 45.8086C232.544 45.1901 231.387 44.8809 229.841 44.8809C228.245 44.8809 226.996 45.2087 226.093 45.8643C225.511 46.2848 225.221 46.8477 225.221 47.5527C225.221 48.196 225.493 48.7464 226.037 49.2041C226.73 49.7855 228.412 50.3916 231.084 51.0225C233.756 51.6533 235.729 52.3089 237.003 52.9893C238.289 53.6572 239.291 54.5788 240.009 55.7539C240.739 56.9167 241.104 58.3577 241.104 60.0771C241.104 61.6357 240.671 63.0954 239.805 64.4561C238.939 65.8167 237.714 66.8311 236.131 67.499C234.548 68.1546 232.575 68.4824 230.212 68.4824C226.773 68.4824 224.132 67.6908 222.289 66.1074C220.446 64.5117 219.345 62.1924 218.986 59.1494Z" fill="#6366F1"/>
</svg>
