<svg width="242" height="110" viewBox="0 0 242 110" fill="none" xmlns="http://www.w3.org/2000/svg">
<path d="M3 48L43 28L83 48L43 68L3 48Z" fill="#2B6CB0" stroke="#2B6CB0" stroke-width="2"/>
<path d="M43 68L83 48V88L43 108V68Z" fill="#4299E1" stroke="#4299E1" stroke-width="2"/>
<path d="M3 48L43 68V108L3 88V48Z" fill="#63B3ED" stroke="#63B3ED" stroke-width="2"/>
<path d="M93 62H113M113 62L103 52M113 62L103 72" stroke="#2B6CB0" stroke-width="4" stroke-linecap="round" stroke-linejoin="round"/>
<path d="M5.5 32.8203L12.25 32.1641C12.6562 34.4297 13.4766 36.0938 14.7109 37.1562C15.9609 38.2188 17.6406 38.75 19.75 38.75C21.9844 38.75 23.6641 38.2812 24.7891 37.3438C25.9297 36.3906 26.5 35.2812 26.5 34.0156C26.5 33.2031 26.2578 32.5156 25.7734 31.9531C25.3047 31.375 24.4766 30.875 23.2891 30.4531C22.4766 30.1719 20.625 29.6719 17.7344 28.9531C14.0156 28.0312 11.4062 26.8984 9.90625 25.5547C7.79688 23.6641 6.74219 21.3594 6.74219 18.6406C6.74219 16.8906 7.23438 15.2578 8.21875 13.7422C9.21875 12.2109 10.6484 11.0469 12.5078 10.25C14.3828 9.45312 16.6406 9.05469 19.2812 9.05469C23.5938 9.05469 26.8359 10 29.0078 11.8906C31.1953 13.7813 32.3438 16.3047 32.4531 19.4609L25.5156 19.7656C25.2188 18 24.5781 16.7344 23.5938 15.9688C22.625 15.1875 21.1641 14.7969 19.2109 14.7969C17.1953 14.7969 15.6172 15.2109 14.4766 16.0391C13.7422 16.5703 13.375 17.2812 13.375 18.1719C13.375 18.9844 13.7188 19.6797 14.4062 20.2578C15.2812 20.9922 17.4062 21.7578 20.7812 22.5547C24.1562 23.3516 26.6484 24.1797 28.2578 25.0391C29.8828 25.8828 31.1484 27.0469 32.0547 28.5312C32.9766 30 33.4375 31.8203 33.4375 33.9922C33.4375 35.9609 32.8906 37.8047 31.7969 39.5234C30.7031 41.2422 29.1562 42.5234 27.1562 43.3672C25.1562 44.1953 22.6641 44.6094 19.6797 44.6094C15.3359 44.6094 12 43.6094 9.67188 41.6094C7.34375 39.5938 5.95312 36.6641 5.5 32.8203ZM50.6406 19.1094V24.3594H46.1406V34.3906C46.1406 36.4219 46.1797 37.6094 46.2578 37.9531C46.3516 38.2812 46.5469 38.5547 46.8438 38.7734C47.1562 38.9922 47.5312 39.1016 47.9688 39.1016C48.5781 39.1016 49.4609 38.8906 50.6172 38.4688L51.1797 43.5781C49.6484 44.2344 47.9141 44.5625 45.9766 44.5625C44.7891 44.5625 43.7188 44.3672 42.7656 43.9766C41.8125 43.5703 41.1094 43.0547 40.6562 42.4297C40.2188 41.7891 39.9141 40.9297 39.7422 39.8516C39.6016 39.0859 39.5312 37.5391 39.5312 35.2109V24.3594H36.5078V19.1094H39.5312V14.1641L46.1406 10.3203V19.1094H50.6406ZM53.6875 31.2031C53.6875 29.0156 54.2266 26.8984 55.3047 24.8516C56.3828 22.8047 57.9062 21.2422 59.875 20.1641C61.8594 19.0859 64.0703 18.5469 66.5078 18.5469C70.2734 18.5469 73.3594 19.7734 75.7656 22.2266C78.1719 24.6641 79.375 27.75 79.375 31.4844C79.375 35.25 78.1562 38.375 75.7188 40.8594C73.2969 43.3281 70.2422 44.5625 66.5547 44.5625C64.2734 44.5625 62.0938 44.0469 60.0156 43.0156C57.9531 41.9844 56.3828 40.4766 55.3047 38.4922C54.2266 36.4922 53.6875 34.0625 53.6875 31.2031ZM60.4375 31.5547C60.4375 34.0234 61.0234 35.9141 62.1953 37.2266C63.3672 38.5391 64.8125 39.1953 66.5312 39.1953C68.25 39.1953 69.6875 38.5391 70.8438 37.2266C72.0156 35.9141 72.6016 34.0078 72.6016 31.5078C72.6016 29.0703 72.0156 27.1953 70.8438 25.8828C69.6875 24.5703 68.25 23.9141 66.5312 23.9141C64.8125 23.9141 63.3672 24.5703 62.1953 25.8828C61.0234 27.1953 60.4375 29.0859 60.4375 31.5547ZM89.1953 44L81.3203 19.1094H87.7188L92.3828 35.4219L96.6719 19.1094H103.023L107.172 35.4219L111.93 19.1094H118.422L110.43 44H104.102L99.8125 27.9922L95.5938 44H89.1953Z" fill="#2B6CB0"/>
<path d="M121.867 44V9.64062H132.25L138.484 33.0781L144.648 9.64062H155.055V44H148.609V16.9531L141.789 44H135.109L128.312 16.9531V44H121.867ZM160.375 31.2031C160.375 29.0156 160.914 26.8984 161.992 24.8516C163.07 22.8047 164.594 21.2422 166.562 20.1641C168.547 19.0859 170.758 18.5469 173.195 18.5469C176.961 18.5469 180.047 19.7734 182.453 22.2266C184.859 24.6641 186.062 27.75 186.062 31.4844C186.062 35.25 184.844 38.375 182.406 40.8594C179.984 43.3281 176.93 44.5625 173.242 44.5625C170.961 44.5625 168.781 44.0469 166.703 43.0156C164.641 41.9844 163.07 40.4766 161.992 38.4922C160.914 36.4922 160.375 34.0625 160.375 31.2031ZM167.125 31.5547C167.125 34.0234 167.711 35.9141 168.883 37.2266C170.055 38.5391 171.5 39.1953 173.219 39.1953C174.938 39.1953 176.375 38.5391 177.531 37.2266C178.703 35.9141 179.289 34.0078 179.289 31.5078C179.289 29.0703 178.703 27.1953 177.531 25.8828C176.375 24.5703 174.938 23.9141 173.219 23.9141C171.5 23.9141 170.055 24.5703 168.883 25.8828C167.711 27.1953 167.125 29.0859 167.125 31.5547ZM198.086 44L188.055 19.1094H194.969L199.656 31.8125L201.016 36.0547C201.375 34.9766 201.602 34.2656 201.695 33.9219C201.914 33.2188 202.148 32.5156 202.398 31.8125L207.133 19.1094H213.906L204.016 44H198.086ZM232.375 36.0781L238.938 37.1797C238.094 39.5859 236.758 41.4219 234.93 42.6875C233.117 43.9375 230.844 44.5625 228.109 44.5625C223.781 44.5625 220.578 43.1484 218.5 40.3203C216.859 38.0547 216.039 35.1953 216.039 31.7422C216.039 27.6172 217.117 24.3906 219.273 22.0625C221.43 19.7188 224.156 18.5469 227.453 18.5469C231.156 18.5469 234.078 19.7734 236.219 22.2266C238.359 24.6641 239.383 28.4062 239.289 33.4531H222.789C222.836 35.4062 223.367 36.9297 224.383 38.0234C225.398 39.1016 226.664 39.6406 228.18 39.6406C229.211 39.6406 230.078 39.3594 230.781 38.7969C231.484 38.2344 232.016 37.3281 232.375 36.0781ZM232.75 29.4219C232.703 27.5156 232.211 26.0703 231.273 25.0859C230.336 24.0859 229.195 23.5859 227.852 23.5859C226.414 23.5859 225.227 24.1094 224.289 25.1562C223.352 26.2031 222.891 27.625 222.906 29.4219H232.75Z" fill="#4299E1"/>
<path d="M24.9219 84.3203L26.3516 84.1953C26.4193 84.7682 26.5755 85.2396 26.8203 85.6094C27.0703 85.974 27.4557 86.2708 27.9766 86.5C28.4974 86.724 29.0833 86.8359 29.7344 86.8359C30.3125 86.8359 30.8229 86.75 31.2656 86.5781C31.7083 86.4062 32.0365 86.1719 32.25 85.875C32.4688 85.5729 32.5781 85.2448 32.5781 84.8906C32.5781 84.5312 32.474 84.2188 32.2656 83.9531C32.0573 83.6823 31.7135 83.4557 31.2344 83.2734C30.9271 83.1536 30.2474 82.9688 29.1953 82.7188C28.1432 82.4635 27.4062 82.224 26.9844 82C26.4375 81.7135 26.0286 81.3594 25.7578 80.9375C25.4922 80.5104 25.3594 80.0339 25.3594 79.5078C25.3594 78.9297 25.5234 78.3906 25.8516 77.8906C26.1797 77.3854 26.6589 77.0026 27.2891 76.7422C27.9193 76.4818 28.6198 76.3516 29.3906 76.3516C30.2396 76.3516 30.987 76.4896 31.6328 76.7656C32.2839 77.0365 32.7839 77.4375 33.1328 77.9688C33.4818 78.5 33.6693 79.1016 33.6953 79.7734L32.2422 79.8828C32.1641 79.1589 31.8984 78.612 31.4453 78.2422C30.9974 77.8724 30.3333 77.6875 29.4531 77.6875C28.5365 77.6875 27.8672 77.8568 27.4453 78.1953C27.0286 78.5286 26.8203 78.9323 26.8203 79.4062C26.8203 79.8177 26.9688 80.1562 27.2656 80.4219C27.5573 80.6875 28.3177 80.9609 29.5469 81.2422C30.7812 81.5182 31.6276 81.7604 32.0859 81.9688C32.7526 82.276 33.2448 82.6667 33.5625 83.1406C33.8802 83.6094 34.0391 84.151 34.0391 84.7656C34.0391 85.375 33.8646 85.9505 33.5156 86.4922C33.1667 87.0286 32.6641 87.4479 32.0078 87.75C31.3568 88.0469 30.6224 88.1953 29.8047 88.1953C28.7682 88.1953 27.8984 88.0443 27.1953 87.7422C26.4974 87.4401 25.9479 86.987 25.5469 86.3828C25.151 85.7734 24.9427 85.0859 24.9219 84.3203ZM39 86.7422L39.2031 87.9844C38.8073 88.0677 38.4531 88.1094 38.1406 88.1094C37.6302 88.1094 37.2344 88.0286 36.9531 87.8672C36.6719 87.7057 36.474 87.4948 36.3594 87.2344C36.2448 86.9688 36.1875 86.4141 36.1875 85.5703V80.7969H35.1562V79.7031H36.1875V77.6484L37.5859 76.8047V79.7031H39V80.7969H37.5859V85.6484C37.5859 86.0495 37.6094 86.3073 37.6562 86.4219C37.7083 86.5365 37.7891 86.6276 37.8984 86.6953C38.013 86.763 38.1745 86.7969 38.3828 86.7969C38.5391 86.7969 38.7448 86.7786 39 86.7422ZM39.8594 83.8516C39.8594 82.3151 40.2865 81.1771 41.1406 80.4375C41.8542 79.8229 42.724 79.5156 43.75 79.5156C44.8906 79.5156 45.8229 79.8906 46.5469 80.6406C47.2708 81.3854 47.6328 82.4167 47.6328 83.7344C47.6328 84.8021 47.4714 85.6432 47.1484 86.2578C46.8307 86.8672 46.3646 87.3411 45.75 87.6797C45.1406 88.0182 44.474 88.1875 43.75 88.1875C42.5885 88.1875 41.6484 87.8151 40.9297 87.0703C40.2161 86.3255 39.8594 85.2526 39.8594 83.8516ZM41.3047 83.8516C41.3047 84.9141 41.5365 85.7109 42 86.2422C42.4635 86.7682 43.0469 87.0312 43.75 87.0312C44.4479 87.0312 45.0286 86.7656 45.4922 86.2344C45.9557 85.7031 46.1875 84.8932 46.1875 83.8047C46.1875 82.7786 45.9531 82.0026 45.4844 81.4766C45.0208 80.9453 44.4427 80.6797 43.75 80.6797C43.0469 80.6797 42.4635 80.9427 42 81.4688C41.5365 81.9948 41.3047 82.7891 41.3047 83.8516ZM49.2734 88V79.7031H50.5391V80.9609C50.862 80.3724 51.1589 79.9844 51.4297 79.7969C51.7057 79.6094 52.0078 79.5156 52.3359 79.5156C52.8099 79.5156 53.2917 79.6667 53.7812 79.9688L53.2969 81.2734C52.9531 81.0703 52.6094 80.9688 52.2656 80.9688C51.9583 80.9688 51.6823 81.0625 51.4375 81.25C51.1927 81.4323 51.0182 81.6875 50.9141 82.0156C50.7578 82.5156 50.6797 83.0625 50.6797 83.6562V88H49.2734ZM60.0312 86.9766C59.5104 87.4193 59.0078 87.7318 58.5234 87.9141C58.0443 88.0964 57.5286 88.1875 56.9766 88.1875C56.0651 88.1875 55.3646 87.9661 54.875 87.5234C54.3854 87.0755 54.1406 86.5052 54.1406 85.8125C54.1406 85.4062 54.2318 85.0365 54.4141 84.7031C54.6016 84.3646 54.8438 84.0938 55.1406 83.8906C55.4427 83.6875 55.7812 83.5339 56.1562 83.4297C56.4323 83.3568 56.849 83.2865 57.4062 83.2188C58.5417 83.0833 59.3776 82.9219 59.9141 82.7344C59.9193 82.5417 59.9219 82.4193 59.9219 82.3672C59.9219 81.7943 59.7891 81.3906 59.5234 81.1562C59.1641 80.8385 58.6302 80.6797 57.9219 80.6797C57.2604 80.6797 56.7708 80.7969 56.4531 81.0312C56.1406 81.2604 55.9089 81.6693 55.7578 82.2578L54.3828 82.0703C54.5078 81.4818 54.7135 81.0078 55 80.6484C55.2865 80.2839 55.7005 80.0052 56.2422 79.8125C56.7839 79.6146 57.4115 79.5156 58.125 79.5156C58.8333 79.5156 59.4089 79.599 59.8516 79.7656C60.2943 79.9323 60.6198 80.1432 60.8281 80.3984C61.0365 80.6484 61.1823 80.9661 61.2656 81.3516C61.3125 81.5911 61.3359 82.0234 61.3359 82.6484V84.5234C61.3359 85.8307 61.3646 86.6589 61.4219 87.0078C61.4844 87.3516 61.6042 87.6823 61.7812 88H60.3125C60.1667 87.7083 60.0729 87.3672 60.0312 86.9766ZM59.9141 83.8359C59.4036 84.0443 58.638 84.2214 57.6172 84.3672C57.0391 84.4505 56.6302 84.5443 56.3906 84.6484C56.151 84.7526 55.9661 84.9062 55.8359 85.1094C55.7057 85.3073 55.6406 85.5286 55.6406 85.7734C55.6406 86.1484 55.7812 86.4609 56.0625 86.7109C56.349 86.9609 56.7656 87.0859 57.3125 87.0859C57.8542 87.0859 58.3359 86.9688 58.7578 86.7344C59.1797 86.4948 59.4896 86.1693 59.6875 85.7578C59.8385 85.4401 59.9141 84.9714 59.9141 84.3516V83.8359ZM63.2656 88.6875L64.6328 88.8906C64.6901 89.3125 64.849 89.6198 65.1094 89.8125C65.4583 90.0729 65.9349 90.2031 66.5391 90.2031C67.1901 90.2031 67.6927 90.0729 68.0469 89.8125C68.401 89.5521 68.6406 89.1875 68.7656 88.7188C68.8385 88.4323 68.8724 87.8307 68.8672 86.9141C68.2526 87.638 67.487 88 66.5703 88C65.4297 88 64.5469 87.5885 63.9219 86.7656C63.2969 85.9427 62.9844 84.9557 62.9844 83.8047C62.9844 83.013 63.1276 82.2839 63.4141 81.6172C63.7005 80.9453 64.1146 80.4271 64.6562 80.0625C65.2031 79.6979 65.8438 79.5156 66.5781 79.5156C67.5573 79.5156 68.3646 79.9115 69 80.7031V79.7031H70.2969V86.875C70.2969 88.1667 70.1641 89.0807 69.8984 89.6172C69.638 90.1589 69.2214 90.5859 68.6484 90.8984C68.0807 91.2109 67.3802 91.3672 66.5469 91.3672C65.5573 91.3672 64.7578 91.1432 64.1484 90.6953C63.5391 90.2526 63.2448 89.5833 63.2656 88.6875ZM64.4297 83.7031C64.4297 84.7917 64.6458 85.5859 65.0781 86.0859C65.5104 86.5859 66.0521 86.8359 66.7031 86.8359C67.349 86.8359 67.8906 86.5885 68.3281 86.0938C68.7656 85.5938 68.9844 84.8125 68.9844 83.75C68.9844 82.7344 68.7578 81.9688 68.3047 81.4531C67.8568 80.9375 67.3151 80.6797 66.6797 80.6797C66.0547 80.6797 65.5234 80.9349 65.0859 81.4453C64.6484 81.9505 64.4297 82.7031 64.4297 83.7031ZM78.1094 85.3281L79.5625 85.5078C79.3333 86.3568 78.9089 87.0156 78.2891 87.4844C77.6693 87.9531 76.8776 88.1875 75.9141 88.1875C74.7005 88.1875 73.737 87.8151 73.0234 87.0703C72.3151 86.3203 71.9609 85.2708 71.9609 83.9219C71.9609 82.526 72.3203 81.4427 73.0391 80.6719C73.7578 79.901 74.6901 79.5156 75.8359 79.5156C76.9453 79.5156 77.8516 79.8932 78.5547 80.6484C79.2578 81.4036 79.6094 82.4661 79.6094 83.8359C79.6094 83.9193 79.6068 84.0443 79.6016 84.2109H73.4141C73.4661 85.1224 73.724 85.8203 74.1875 86.3047C74.651 86.7891 75.2292 87.0312 75.9219 87.0312C76.4375 87.0312 76.8776 86.8958 77.2422 86.625C77.6068 86.3542 77.8958 85.9219 78.1094 85.3281ZM73.4922 83.0547H78.125C78.0625 82.3568 77.8854 81.8333 77.5938 81.4844C77.1458 80.9427 76.5651 80.6719 75.8516 80.6719C75.2057 80.6719 74.6615 80.888 74.2188 81.3203C73.7812 81.7526 73.5391 82.3307 73.4922 83.0547ZM92.3359 86.6484C91.8724 87.1641 91.3672 87.5521 90.8203 87.8125C90.2734 88.0677 89.6823 88.1953 89.0469 88.1953C87.875 88.1953 86.9453 87.7995 86.2578 87.0078C85.7005 86.362 85.4219 85.6406 85.4219 84.8438C85.4219 84.1354 85.6484 83.4974 86.1016 82.9297C86.5599 82.3568 87.2422 81.8542 88.1484 81.4219C87.6328 80.8281 87.2891 80.3464 87.1172 79.9766C86.9453 79.6068 86.8594 79.25 86.8594 78.9062C86.8594 78.2188 87.1276 77.6224 87.6641 77.1172C88.2057 76.6068 88.8854 76.3516 89.7031 76.3516C90.4844 76.3516 91.1224 76.5911 91.6172 77.0703C92.1172 77.5495 92.3672 78.125 92.3672 78.7969C92.3672 79.8854 91.6458 80.8151 90.2031 81.5859L92.2578 84.2031C92.4922 83.7448 92.6745 83.2135 92.8047 82.6094L94.2656 82.9219C94.0156 83.9219 93.6771 84.7448 93.25 85.3906C93.776 86.0885 94.3724 86.6745 95.0391 87.1484L94.0938 88.2656C93.526 87.901 92.9401 87.362 92.3359 86.6484ZM89.4766 80.6797C90.0859 80.3203 90.4792 80.0052 90.6562 79.7344C90.8385 79.4635 90.9297 79.1641 90.9297 78.8359C90.9297 78.4453 90.8047 78.1276 90.5547 77.8828C90.3099 77.6328 90.0026 77.5078 89.6328 77.5078C89.2526 77.5078 88.9349 77.6302 88.6797 77.875C88.4297 78.1198 88.3047 78.4193 88.3047 78.7734C88.3047 78.9505 88.349 79.138 88.4375 79.3359C88.5312 79.5286 88.6693 79.7344 88.8516 79.9531L89.4766 80.6797ZM91.4531 85.5391L88.875 82.3438C88.1146 82.7969 87.6016 83.2188 87.3359 83.6094C87.0703 83.9948 86.9375 84.3776 86.9375 84.7578C86.9375 85.2214 87.1224 85.7031 87.4922 86.2031C87.862 86.7031 88.3854 86.9531 89.0625 86.9531C89.4844 86.9531 89.9193 86.8229 90.3672 86.5625C90.8203 86.2969 91.1823 85.9557 91.4531 85.5391ZM101.047 88V76.5469H103.328L106.039 84.6562C106.289 85.4115 106.471 85.9766 106.586 86.3516C106.716 85.9349 106.919 85.3229 107.195 84.5156L109.938 76.5469H111.977V88H110.516V78.4141L107.188 88H105.82L102.508 78.25V88H101.047ZM113.719 83.8516C113.719 82.3151 114.146 81.1771 115 80.4375C115.714 79.8229 116.583 79.5156 117.609 79.5156C118.75 79.5156 119.682 79.8906 120.406 80.6406C121.13 81.3854 121.492 82.4167 121.492 83.7344C121.492 84.8021 121.331 85.6432 121.008 86.2578C120.69 86.8672 120.224 87.3411 119.609 87.6797C119 88.0182 118.333 88.1875 117.609 88.1875C116.448 88.1875 115.508 87.8151 114.789 87.0703C114.076 86.3255 113.719 85.2526 113.719 83.8516ZM115.164 83.8516C115.164 84.9141 115.396 85.7109 115.859 86.2422C116.323 86.7682 116.906 87.0312 117.609 87.0312C118.307 87.0312 118.888 86.7656 119.352 86.2344C119.815 85.7031 120.047 84.8932 120.047 83.8047C120.047 82.7786 119.812 82.0026 119.344 81.4766C118.88 80.9453 118.302 80.6797 117.609 80.6797C116.906 80.6797 116.323 80.9427 115.859 81.4688C115.396 81.9948 115.164 82.7891 115.164 83.8516ZM125.453 88L122.297 79.7031H123.781L125.562 84.6719C125.755 85.2083 125.932 85.7656 126.094 86.3438C126.219 85.9062 126.393 85.3802 126.617 84.7656L128.461 79.7031H129.906L126.766 88H125.453ZM131.156 78.1641V76.5469H132.562V78.1641H131.156ZM131.156 88V79.7031H132.562V88H131.156ZM134.711 88V79.7031H135.977V80.8828C136.586 79.9714 137.466 79.5156 138.617 79.5156C139.117 79.5156 139.576 79.6068 139.992 79.7891C140.414 79.9661 140.729 80.2005 140.938 80.4922C141.146 80.7839 141.292 81.1302 141.375 81.5312C141.427 81.7917 141.453 82.2474 141.453 82.8984V88H140.047V82.9531C140.047 82.3802 139.992 81.9531 139.883 81.6719C139.773 81.3854 139.578 81.1589 139.297 80.9922C139.021 80.8203 138.695 80.7344 138.32 80.7344C137.721 80.7344 137.203 80.9245 136.766 81.3047C136.333 81.6849 136.117 82.4062 136.117 83.4688V88H134.711ZM143.359 88.6875L144.727 88.8906C144.784 89.3125 144.943 89.6198 145.203 89.8125C145.552 90.0729 146.029 90.2031 146.633 90.2031C147.284 90.2031 147.786 90.0729 148.141 89.8125C148.495 89.5521 148.734 89.1875 148.859 88.7188C148.932 88.4323 148.966 87.8307 148.961 86.9141C148.346 87.638 147.581 88 146.664 88C145.523 88 144.641 87.5885 144.016 86.7656C143.391 85.9427 143.078 84.9557 143.078 83.8047C143.078 83.013 143.221 82.2839 143.508 81.6172C143.794 80.9453 144.208 80.4271 144.75 80.0625C145.297 79.6979 145.938 79.5156 146.672 79.5156C147.651 79.5156 148.458 79.9115 149.094 80.7031V79.7031H150.391V86.875C150.391 88.1667 150.258 89.0807 149.992 89.6172C149.732 90.1589 149.315 90.5859 148.742 90.8984C148.174 91.2109 147.474 91.3672 146.641 91.3672C145.651 91.3672 144.852 91.1432 144.242 90.6953C143.633 90.2526 143.339 89.5833 143.359 88.6875ZM144.523 83.7031C144.523 84.7917 144.74 85.5859 145.172 86.0859C145.604 86.5859 146.146 86.8359 146.797 86.8359C147.443 86.8359 147.984 86.5885 148.422 86.0938C148.859 85.5938 149.078 84.8125 149.078 83.75C149.078 82.7344 148.852 81.9688 148.398 81.4531C147.951 80.9375 147.409 80.6797 146.773 80.6797C146.148 80.6797 145.617 80.9349 145.18 81.4453C144.742 81.9505 144.523 82.7031 144.523 83.7031ZM156.641 84.3203L158.07 84.1953C158.138 84.7682 158.294 85.2396 158.539 85.6094C158.789 85.974 159.174 86.2708 159.695 86.5C160.216 86.724 160.802 86.8359 161.453 86.8359C162.031 86.8359 162.542 86.75 162.984 86.5781C163.427 86.4062 163.755 86.1719 163.969 85.875C164.188 85.5729 164.297 85.2448 164.297 84.8906C164.297 84.5312 164.193 84.2188 163.984 83.9531C163.776 83.6823 163.432 83.4557 162.953 83.2734C162.646 83.1536 161.966 82.9688 160.914 82.7188C159.862 82.4635 159.125 82.224 158.703 82C158.156 81.7135 157.747 81.3594 157.477 80.9375C157.211 80.5104 157.078 80.0339 157.078 79.5078C157.078 78.9297 157.242 78.3906 157.57 77.8906C157.898 77.3854 158.378 77.0026 159.008 76.7422C159.638 76.4818 160.339 76.3516 161.109 76.3516C161.958 76.3516 162.706 76.4896 163.352 76.7656C164.003 77.0365 164.503 77.4375 164.852 77.9688C165.201 78.5 165.388 79.1016 165.414 79.7734L163.961 79.8828C163.883 79.1589 163.617 78.612 163.164 78.2422C162.716 77.8724 162.052 77.6875 161.172 77.6875C160.255 77.6875 159.586 77.8568 159.164 78.1953C158.747 78.5286 158.539 78.9323 158.539 79.4062C158.539 79.8177 158.688 80.1562 158.984 80.4219C159.276 80.6875 160.036 80.9609 161.266 81.2422C162.5 81.5182 163.346 81.7604 163.805 81.9688C164.471 82.276 164.964 82.6667 165.281 83.1406C165.599 83.6094 165.758 84.151 165.758 84.7656C165.758 85.375 165.583 85.9505 165.234 86.4922C164.885 87.0286 164.383 87.4479 163.727 87.75C163.076 88.0469 162.341 88.1953 161.523 88.1953C160.487 88.1953 159.617 88.0443 158.914 87.7422C158.216 87.4401 157.667 86.987 157.266 86.3828C156.87 85.7734 156.661 85.0859 156.641 84.3203ZM167.125 83.8516C167.125 82.3151 167.552 81.1771 168.406 80.4375C169.12 79.8229 169.99 79.5156 171.016 79.5156C172.156 79.5156 173.089 79.8906 173.812 80.6406C174.536 81.3854 174.898 82.4167 174.898 83.7344C174.898 84.8021 174.737 85.6432 174.414 86.2578C174.096 86.8672 173.63 87.3411 173.016 87.6797C172.406 88.0182 171.74 88.1875 171.016 88.1875C169.854 88.1875 168.914 87.8151 168.195 87.0703C167.482 86.3255 167.125 85.2526 167.125 83.8516ZM168.57 83.8516C168.57 84.9141 168.802 85.7109 169.266 86.2422C169.729 86.7682 170.312 87.0312 171.016 87.0312C171.714 87.0312 172.294 86.7656 172.758 86.2344C173.221 85.7031 173.453 84.8932 173.453 83.8047C173.453 82.7786 173.219 82.0026 172.75 81.4766C172.286 80.9453 171.708 80.6797 171.016 80.6797C170.312 80.6797 169.729 80.9427 169.266 81.4688C168.802 81.9948 168.57 82.7891 168.57 83.8516ZM176.523 88V76.5469H177.93V88H176.523ZM185.555 88V86.7812C184.909 87.7188 184.031 88.1875 182.922 88.1875C182.432 88.1875 181.974 88.0938 181.547 87.9062C181.125 87.7188 180.81 87.4844 180.602 87.2031C180.398 86.9167 180.255 86.5677 180.172 86.1562C180.115 85.8802 180.086 85.4427 180.086 84.8438V79.7031H181.492V84.3047C181.492 85.0391 181.521 85.5339 181.578 85.7891C181.667 86.1589 181.854 86.4505 182.141 86.6641C182.427 86.8724 182.781 86.9766 183.203 86.9766C183.625 86.9766 184.021 86.8698 184.391 86.6562C184.76 86.4375 185.021 86.1432 185.172 85.7734C185.328 85.3984 185.406 84.8568 185.406 84.1484V79.7031H186.812V88H185.555ZM192.094 86.7422L192.297 87.9844C191.901 88.0677 191.547 88.1094 191.234 88.1094C190.724 88.1094 190.328 88.0286 190.047 87.8672C189.766 87.7057 189.568 87.4948 189.453 87.2344C189.339 86.9688 189.281 86.4141 189.281 85.5703V80.7969H188.25V79.7031H189.281V77.6484L190.68 76.8047V79.7031H192.094V80.7969H190.68V85.6484C190.68 86.0495 190.703 86.3073 190.75 86.4219C190.802 86.5365 190.883 86.6276 190.992 86.6953C191.107 86.763 191.268 86.7969 191.477 86.7969C191.633 86.7969 191.839 86.7786 192.094 86.7422ZM193.484 78.1641V76.5469H194.891V78.1641H193.484ZM193.484 88V79.7031H194.891V88H193.484ZM196.516 83.8516C196.516 82.3151 196.943 81.1771 197.797 80.4375C198.51 79.8229 199.38 79.5156 200.406 79.5156C201.547 79.5156 202.479 79.8906 203.203 80.6406C203.927 81.3854 204.289 82.4167 204.289 83.7344C204.289 84.8021 204.128 85.6432 203.805 86.2578C203.487 86.8672 203.021 87.3411 202.406 87.6797C201.797 88.0182 201.13 88.1875 200.406 88.1875C199.245 88.1875 198.305 87.8151 197.586 87.0703C196.872 86.3255 196.516 85.2526 196.516 83.8516ZM197.961 83.8516C197.961 84.9141 198.193 85.7109 198.656 86.2422C199.12 86.7682 199.703 87.0312 200.406 87.0312C201.104 87.0312 201.685 86.7656 202.148 86.2344C202.612 85.7031 202.844 84.8932 202.844 83.8047C202.844 82.7786 202.609 82.0026 202.141 81.4766C201.677 80.9453 201.099 80.6797 200.406 80.6797C199.703 80.6797 199.12 80.9427 198.656 81.4688C198.193 81.9948 197.961 82.7891 197.961 83.8516ZM205.945 88V79.7031H207.211V80.8828C207.82 79.9714 208.701 79.5156 209.852 79.5156C210.352 79.5156 210.81 79.6068 211.227 79.7891C211.648 79.9661 211.964 80.2005 212.172 80.4922C212.38 80.7839 212.526 81.1302 212.609 81.5312C212.661 81.7917 212.688 82.2474 212.688 82.8984V88H211.281V82.9531C211.281 82.3802 211.227 81.9531 211.117 81.6719C211.008 81.3854 210.812 81.1589 210.531 80.9922C210.255 80.8203 209.93 80.7344 209.555 80.7344C208.956 80.7344 208.438 80.9245 208 81.3047C207.568 81.6849 207.352 82.4062 207.352 83.4688V88H205.945ZM214.289 85.5234L215.68 85.3047C215.758 85.862 215.974 86.2891 216.328 86.5859C216.688 86.8828 217.188 87.0312 217.828 87.0312C218.474 87.0312 218.953 86.901 219.266 86.6406C219.578 86.375 219.734 86.0651 219.734 85.7109C219.734 85.3932 219.596 85.1432 219.32 84.9609C219.128 84.8359 218.648 84.6771 217.883 84.4844C216.852 84.224 216.135 84 215.734 83.8125C215.339 83.6198 215.036 83.3568 214.828 83.0234C214.625 82.6849 214.523 82.3125 214.523 81.9062C214.523 81.5365 214.607 81.1953 214.773 80.8828C214.945 80.5651 215.177 80.3021 215.469 80.0938C215.688 79.9323 215.984 79.7969 216.359 79.6875C216.74 79.5729 217.146 79.5156 217.578 79.5156C218.229 79.5156 218.799 79.6094 219.289 79.7969C219.784 79.9844 220.148 80.2396 220.383 80.5625C220.617 80.8802 220.779 81.3073 220.867 81.8438L219.492 82.0312C219.43 81.6042 219.247 81.2708 218.945 81.0312C218.648 80.7917 218.227 80.6719 217.68 80.6719C217.034 80.6719 216.573 80.7786 216.297 80.9922C216.021 81.2057 215.883 81.4557 215.883 81.7422C215.883 81.9245 215.94 82.0885 216.055 82.2344C216.169 82.3854 216.349 82.5104 216.594 82.6094C216.734 82.6615 217.148 82.7812 217.836 82.9688C218.831 83.2344 219.523 83.4531 219.914 83.625C220.31 83.7917 220.62 84.0365 220.844 84.3594C221.068 84.6823 221.18 85.0833 221.18 85.5625C221.18 86.0312 221.042 86.474 220.766 86.8906C220.495 87.3021 220.102 87.6224 219.586 87.8516C219.07 88.0755 218.487 88.1875 217.836 88.1875C216.758 88.1875 215.935 87.9635 215.367 87.5156C214.805 87.0677 214.445 86.4036 214.289 85.5234Z" fill="#4A5568"/>
</svg>
