<svg width="306" height="72" viewBox="0 0 306 72" fill="none" xmlns="http://www.w3.org/2000/svg">
<path d="M2 10H82V70H2V10Z" fill="#2B6CB0" stroke="#1A4971" stroke-width="3"/>
<path d="M32 25L52 40M52 40L32 55M52 40H17" stroke="white" stroke-width="4" stroke-linecap="round" stroke-linejoin="round"/>
<path d="M98.7344 32.8203L105.484 32.1641C105.891 34.4297 106.711 36.0938 107.945 37.1562C109.195 38.2188 110.875 38.75 112.984 38.75C115.219 38.75 116.898 38.2812 118.023 37.3438C119.164 36.3906 119.734 35.2812 119.734 34.0156C119.734 33.2031 119.492 32.5156 119.008 31.9531C118.539 31.375 117.711 30.875 116.523 30.4531C115.711 30.1719 113.859 29.6719 110.969 28.9531C107.25 28.0312 104.641 26.8984 103.141 25.5547C101.031 23.6641 99.9766 21.3594 99.9766 18.6406C99.9766 16.8906 100.469 15.2578 101.453 13.7422C102.453 12.2109 103.883 11.0469 105.742 10.25C107.617 9.45312 109.875 9.05469 112.516 9.05469C116.828 9.05469 120.07 10 122.242 11.8906C124.43 13.7813 125.578 16.3047 125.688 19.4609L118.75 19.7656C118.453 18 117.812 16.7344 116.828 15.9688C115.859 15.1875 114.398 14.7969 112.445 14.7969C110.43 14.7969 108.852 15.2109 107.711 16.0391C106.977 16.5703 106.609 17.2812 106.609 18.1719C106.609 18.9844 106.953 19.6797 107.641 20.2578C108.516 20.9922 110.641 21.7578 114.016 22.5547C117.391 23.3516 119.883 24.1797 121.492 25.0391C123.117 25.8828 124.383 27.0469 125.289 28.5312C126.211 30 126.672 31.8203 126.672 33.9922C126.672 35.9609 126.125 37.8047 125.031 39.5234C123.938 41.2422 122.391 42.5234 120.391 43.3672C118.391 44.1953 115.898 44.6094 112.914 44.6094C108.57 44.6094 105.234 43.6094 102.906 41.6094C100.578 39.5938 99.1875 36.6641 98.7344 32.8203ZM137.383 26.7031L131.406 25.625C132.078 23.2188 133.234 21.4375 134.875 20.2812C136.516 19.125 138.953 18.5469 142.188 18.5469C145.125 18.5469 147.312 18.8984 148.75 19.6016C150.188 20.2891 151.195 21.1719 151.773 22.25C152.367 23.3125 152.664 25.2734 152.664 28.1328L152.594 35.8203C152.594 38.0078 152.695 39.625 152.898 40.6719C153.117 41.7031 153.516 42.8125 154.094 44H147.578C147.406 43.5625 147.195 42.9141 146.945 42.0547C146.836 41.6641 146.758 41.4062 146.711 41.2812C145.586 42.375 144.383 43.1953 143.102 43.7422C141.82 44.2891 140.453 44.5625 139 44.5625C136.438 44.5625 134.414 43.8672 132.93 42.4766C131.461 41.0859 130.727 39.3281 130.727 37.2031C130.727 35.7969 131.062 34.5469 131.734 33.4531C132.406 32.3438 133.344 31.5 134.547 30.9219C135.766 30.3281 137.516 29.8125 139.797 29.375C142.875 28.7969 145.008 28.2578 146.195 27.7578V27.1016C146.195 25.8359 145.883 24.9375 145.258 24.4062C144.633 23.8594 143.453 23.5859 141.719 23.5859C140.547 23.5859 139.633 23.8203 138.977 24.2891C138.32 24.7422 137.789 25.5469 137.383 26.7031ZM146.195 32.0469C145.352 32.3281 144.016 32.6641 142.188 33.0547C140.359 33.4453 139.164 33.8281 138.602 34.2031C137.742 34.8125 137.312 35.5859 137.312 36.5234C137.312 37.4453 137.656 38.2422 138.344 38.9141C139.031 39.5859 139.906 39.9219 140.969 39.9219C142.156 39.9219 143.289 39.5312 144.367 38.75C145.164 38.1562 145.688 37.4297 145.938 36.5703C146.109 36.0078 146.195 34.9375 146.195 33.3594V32.0469ZM156.297 19.1094H159.953V17.2344C159.953 15.1406 160.172 13.5781 160.609 12.5469C161.062 11.5156 161.883 10.6797 163.07 10.0391C164.273 9.38281 165.789 9.05469 167.617 9.05469C169.492 9.05469 171.328 9.33594 173.125 9.89844L172.234 14.4922C171.188 14.2422 170.18 14.1172 169.211 14.1172C168.258 14.1172 167.57 14.3438 167.148 14.7969C166.742 15.2344 166.539 16.0859 166.539 17.3516V19.1094H171.461V24.2891H166.539V44H159.953V24.2891H156.297V19.1094ZM189.578 36.0781L196.141 37.1797C195.297 39.5859 193.961 41.4219 192.133 42.6875C190.32 43.9375 188.047 44.5625 185.312 44.5625C180.984 44.5625 177.781 43.1484 175.703 40.3203C174.062 38.0547 173.242 35.1953 173.242 31.7422C173.242 27.6172 174.32 24.3906 176.477 22.0625C178.633 19.7188 181.359 18.5469 184.656 18.5469C188.359 18.5469 191.281 19.7734 193.422 22.2266C195.562 24.6641 196.586 28.4062 196.492 33.4531H179.992C180.039 35.4062 180.57 36.9297 181.586 38.0234C182.602 39.1016 183.867 39.6406 185.383 39.6406C186.414 39.6406 187.281 39.3594 187.984 38.7969C188.688 38.2344 189.219 37.3281 189.578 36.0781ZM189.953 29.4219C189.906 27.5156 189.414 26.0703 188.477 25.0859C187.539 24.0859 186.398 23.5859 185.055 23.5859C183.617 23.5859 182.43 24.1094 181.492 25.1562C180.555 26.2031 180.094 27.625 180.109 29.4219H189.953Z" fill="#2B6CB0"/>
<path d="M200.172 32.8203L206.922 32.1641C207.328 34.4297 208.148 36.0938 209.383 37.1562C210.633 38.2188 212.312 38.75 214.422 38.75C216.656 38.75 218.336 38.2812 219.461 37.3438C220.602 36.3906 221.172 35.2812 221.172 34.0156C221.172 33.2031 220.93 32.5156 220.445 31.9531C219.977 31.375 219.148 30.875 217.961 30.4531C217.148 30.1719 215.297 29.6719 212.406 28.9531C208.688 28.0312 206.078 26.8984 204.578 25.5547C202.469 23.6641 201.414 21.3594 201.414 18.6406C201.414 16.8906 201.906 15.2578 202.891 13.7422C203.891 12.2109 205.32 11.0469 207.18 10.25C209.055 9.45312 211.312 9.05469 213.953 9.05469C218.266 9.05469 221.508 10 223.68 11.8906C225.867 13.7813 227.016 16.3047 227.125 19.4609L220.188 19.7656C219.891 18 219.25 16.7344 218.266 15.9688C217.297 15.1875 215.836 14.7969 213.883 14.7969C211.867 14.7969 210.289 15.2109 209.148 16.0391C208.414 16.5703 208.047 17.2812 208.047 18.1719C208.047 18.9844 208.391 19.6797 209.078 20.2578C209.953 20.9922 212.078 21.7578 215.453 22.5547C218.828 23.3516 221.32 24.1797 222.93 25.0391C224.555 25.8828 225.82 27.0469 226.727 28.5312C227.648 30 228.109 31.8203 228.109 33.9922C228.109 35.9609 227.562 37.8047 226.469 39.5234C225.375 41.2422 223.828 42.5234 221.828 43.3672C219.828 44.1953 217.336 44.6094 214.352 44.6094C210.008 44.6094 206.672 43.6094 204.344 41.6094C202.016 39.5938 200.625 36.6641 200.172 32.8203ZM240.461 9.64062V22.2734C242.586 19.7891 245.125 18.5469 248.078 18.5469C249.594 18.5469 250.961 18.8281 252.18 19.3906C253.398 19.9531 254.312 20.6719 254.922 21.5469C255.547 22.4219 255.969 23.3906 256.188 24.4531C256.422 25.5156 256.539 27.1641 256.539 29.3984V44H249.953V30.8516C249.953 28.2422 249.828 26.5859 249.578 25.8828C249.328 25.1797 248.883 24.625 248.242 24.2188C247.617 23.7969 246.828 23.5859 245.875 23.5859C244.781 23.5859 243.805 23.8516 242.945 24.3828C242.086 24.9141 241.453 25.7188 241.047 26.7969C240.656 27.8594 240.461 29.4375 240.461 31.5312V44H233.875V9.64062H240.461ZM263.242 15.7344V9.64062H269.828V15.7344H263.242ZM263.242 44V19.1094H269.828V44H263.242ZM273.719 19.1094H277.375V17.2344C277.375 15.1406 277.594 13.5781 278.031 12.5469C278.484 11.5156 279.305 10.6797 280.492 10.0391C281.695 9.38281 283.211 9.05469 285.039 9.05469C286.914 9.05469 288.75 9.33594 290.547 9.89844L289.656 14.4922C288.609 14.2422 287.602 14.1172 286.633 14.1172C285.68 14.1172 284.992 14.3438 284.57 14.7969C284.164 15.2344 283.961 16.0859 283.961 17.3516V19.1094H288.883V24.2891H283.961V44H277.375V24.2891H273.719V19.1094ZM304 19.1094V24.3594H299.5V34.3906C299.5 36.4219 299.539 37.6094 299.617 37.9531C299.711 38.2812 299.906 38.5547 300.203 38.7734C300.516 38.9922 300.891 39.1016 301.328 39.1016C301.938 39.1016 302.82 38.8906 303.977 38.4688L304.539 43.5781C303.008 44.2344 301.273 44.5625 299.336 44.5625C298.148 44.5625 297.078 44.3672 296.125 43.9766C295.172 43.5703 294.469 43.0547 294.016 42.4297C293.578 41.7891 293.273 40.9297 293.102 39.8516C292.961 39.0859 292.891 37.5391 292.891 35.2109V24.3594H289.867V19.1094H292.891V14.1641L299.5 10.3203V19.1094H304Z" fill="#1A4971"/>
<path d="M98.1875 67V55.5469H100.469L103.18 63.6562C103.43 64.4115 103.612 64.9766 103.727 65.3516C103.857 64.9349 104.06 64.3229 104.336 63.5156L107.078 55.5469H109.117V67H107.656V57.4141L104.328 67H102.961L99.6484 57.25V67H98.1875ZM110.859 62.8516C110.859 61.3151 111.286 60.1771 112.141 59.4375C112.854 58.8229 113.724 58.5156 114.75 58.5156C115.891 58.5156 116.823 58.8906 117.547 59.6406C118.271 60.3854 118.633 61.4167 118.633 62.7344C118.633 63.8021 118.471 64.6432 118.148 65.2578C117.831 65.8672 117.365 66.3411 116.75 66.6797C116.141 67.0182 115.474 67.1875 114.75 67.1875C113.589 67.1875 112.648 66.8151 111.93 66.0703C111.216 65.3255 110.859 64.2526 110.859 62.8516ZM112.305 62.8516C112.305 63.9141 112.536 64.7109 113 65.2422C113.464 65.7682 114.047 66.0312 114.75 66.0312C115.448 66.0312 116.029 65.7656 116.492 65.2344C116.956 64.7031 117.188 63.8932 117.188 62.8047C117.188 61.7786 116.953 61.0026 116.484 60.4766C116.021 59.9453 115.443 59.6797 114.75 59.6797C114.047 59.6797 113.464 59.9427 113 60.4688C112.536 60.9948 112.305 61.7891 112.305 62.8516ZM122.594 67L119.438 58.7031H120.922L122.703 63.6719C122.896 64.2083 123.073 64.7656 123.234 65.3438C123.359 64.9062 123.534 64.3802 123.758 63.7656L125.602 58.7031H127.047L123.906 67H122.594ZM128.297 57.1641V55.5469H129.703V57.1641H128.297ZM128.297 67V58.7031H129.703V67H128.297ZM131.852 67V58.7031H133.117V59.8828C133.727 58.9714 134.607 58.5156 135.758 58.5156C136.258 58.5156 136.716 58.6068 137.133 58.7891C137.555 58.9661 137.87 59.2005 138.078 59.4922C138.286 59.7839 138.432 60.1302 138.516 60.5312C138.568 60.7917 138.594 61.2474 138.594 61.8984V67H137.188V61.9531C137.188 61.3802 137.133 60.9531 137.023 60.6719C136.914 60.3854 136.719 60.1589 136.438 59.9922C136.161 59.8203 135.836 59.7344 135.461 59.7344C134.862 59.7344 134.344 59.9245 133.906 60.3047C133.474 60.6849 133.258 61.4062 133.258 62.4688V67H131.852ZM140.5 67.6875L141.867 67.8906C141.924 68.3125 142.083 68.6198 142.344 68.8125C142.693 69.0729 143.169 69.2031 143.773 69.2031C144.424 69.2031 144.927 69.0729 145.281 68.8125C145.635 68.5521 145.875 68.1875 146 67.7188C146.073 67.4323 146.107 66.8307 146.102 65.9141C145.487 66.638 144.721 67 143.805 67C142.664 67 141.781 66.5885 141.156 65.7656C140.531 64.9427 140.219 63.9557 140.219 62.8047C140.219 62.013 140.362 61.2839 140.648 60.6172C140.935 59.9453 141.349 59.4271 141.891 59.0625C142.438 58.6979 143.078 58.5156 143.812 58.5156C144.792 58.5156 145.599 58.9115 146.234 59.7031V58.7031H147.531V65.875C147.531 67.1667 147.398 68.0807 147.133 68.6172C146.872 69.1589 146.456 69.5859 145.883 69.8984C145.315 70.2109 144.615 70.3672 143.781 70.3672C142.792 70.3672 141.992 70.1432 141.383 69.6953C140.773 69.2526 140.479 68.5833 140.5 67.6875ZM141.664 62.7031C141.664 63.7917 141.88 64.5859 142.312 65.0859C142.745 65.5859 143.286 65.8359 143.938 65.8359C144.583 65.8359 145.125 65.5885 145.562 65.0938C146 64.5938 146.219 63.8125 146.219 62.75C146.219 61.7344 145.992 60.9688 145.539 60.4531C145.091 59.9375 144.549 59.6797 143.914 59.6797C143.289 59.6797 142.758 59.9349 142.32 60.4453C141.883 60.9505 141.664 61.7031 141.664 62.7031ZM160.664 65.6484C160.201 66.1641 159.695 66.5521 159.148 66.8125C158.602 67.0677 158.01 67.1953 157.375 67.1953C156.203 67.1953 155.273 66.7995 154.586 66.0078C154.029 65.362 153.75 64.6406 153.75 63.8438C153.75 63.1354 153.977 62.4974 154.43 61.9297C154.888 61.3568 155.57 60.8542 156.477 60.4219C155.961 59.8281 155.617 59.3464 155.445 58.9766C155.273 58.6068 155.188 58.25 155.188 57.9062C155.188 57.2188 155.456 56.6224 155.992 56.1172C156.534 55.6068 157.214 55.3516 158.031 55.3516C158.812 55.3516 159.451 55.5911 159.945 56.0703C160.445 56.5495 160.695 57.125 160.695 57.7969C160.695 58.8854 159.974 59.8151 158.531 60.5859L160.586 63.2031C160.82 62.7448 161.003 62.2135 161.133 61.6094L162.594 61.9219C162.344 62.9219 162.005 63.7448 161.578 64.3906C162.104 65.0885 162.701 65.6745 163.367 66.1484L162.422 67.2656C161.854 66.901 161.268 66.362 160.664 65.6484ZM157.805 59.6797C158.414 59.3203 158.807 59.0052 158.984 58.7344C159.167 58.4635 159.258 58.1641 159.258 57.8359C159.258 57.4453 159.133 57.1276 158.883 56.8828C158.638 56.6328 158.331 56.5078 157.961 56.5078C157.581 56.5078 157.263 56.6302 157.008 56.875C156.758 57.1198 156.633 57.4193 156.633 57.7734C156.633 57.9505 156.677 58.138 156.766 58.3359C156.859 58.5286 156.997 58.7344 157.18 58.9531L157.805 59.6797ZM159.781 64.5391L157.203 61.3438C156.443 61.7969 155.93 62.2188 155.664 62.6094C155.398 62.9948 155.266 63.3776 155.266 63.7578C155.266 64.2214 155.451 64.7031 155.82 65.2031C156.19 65.7031 156.714 65.9531 157.391 65.9531C157.812 65.9531 158.247 65.8229 158.695 65.5625C159.148 65.2969 159.51 64.9557 159.781 64.5391ZM168.906 63.3203L170.336 63.1953C170.404 63.7682 170.56 64.2396 170.805 64.6094C171.055 64.974 171.44 65.2708 171.961 65.5C172.482 65.724 173.068 65.8359 173.719 65.8359C174.297 65.8359 174.807 65.75 175.25 65.5781C175.693 65.4062 176.021 65.1719 176.234 64.875C176.453 64.5729 176.562 64.2448 176.562 63.8906C176.562 63.5312 176.458 63.2188 176.25 62.9531C176.042 62.6823 175.698 62.4557 175.219 62.2734C174.911 62.1536 174.232 61.9688 173.18 61.7188C172.128 61.4635 171.391 61.224 170.969 61C170.422 60.7135 170.013 60.3594 169.742 59.9375C169.477 59.5104 169.344 59.0339 169.344 58.5078C169.344 57.9297 169.508 57.3906 169.836 56.8906C170.164 56.3854 170.643 56.0026 171.273 55.7422C171.904 55.4818 172.604 55.3516 173.375 55.3516C174.224 55.3516 174.971 55.4896 175.617 55.7656C176.268 56.0365 176.768 56.4375 177.117 56.9688C177.466 57.5 177.654 58.1016 177.68 58.7734L176.227 58.8828C176.148 58.1589 175.883 57.612 175.43 57.2422C174.982 56.8724 174.318 56.6875 173.438 56.6875C172.521 56.6875 171.852 56.8568 171.43 57.1953C171.013 57.5286 170.805 57.9323 170.805 58.4062C170.805 58.8177 170.953 59.1562 171.25 59.4219C171.542 59.6875 172.302 59.9609 173.531 60.2422C174.766 60.5182 175.612 60.7604 176.07 60.9688C176.737 61.276 177.229 61.6667 177.547 62.1406C177.865 62.6094 178.023 63.151 178.023 63.7656C178.023 64.375 177.849 64.9505 177.5 65.4922C177.151 66.0286 176.648 66.4479 175.992 66.75C175.341 67.0469 174.607 67.1953 173.789 67.1953C172.753 67.1953 171.883 67.0443 171.18 66.7422C170.482 66.4401 169.932 65.987 169.531 65.3828C169.135 64.7734 168.927 64.0859 168.906 63.3203ZM182.984 65.7422L183.188 66.9844C182.792 67.0677 182.438 67.1094 182.125 67.1094C181.615 67.1094 181.219 67.0286 180.938 66.8672C180.656 66.7057 180.458 66.4948 180.344 66.2344C180.229 65.9688 180.172 65.4141 180.172 64.5703V59.7969H179.141V58.7031H180.172V56.6484L181.57 55.8047V58.7031H182.984V59.7969H181.57V64.6484C181.57 65.0495 181.594 65.3073 181.641 65.4219C181.693 65.5365 181.773 65.6276 181.883 65.6953C181.997 65.763 182.159 65.7969 182.367 65.7969C182.523 65.7969 182.729 65.7786 182.984 65.7422ZM183.844 62.8516C183.844 61.3151 184.271 60.1771 185.125 59.4375C185.839 58.8229 186.708 58.5156 187.734 58.5156C188.875 58.5156 189.807 58.8906 190.531 59.6406C191.255 60.3854 191.617 61.4167 191.617 62.7344C191.617 63.8021 191.456 64.6432 191.133 65.2578C190.815 65.8672 190.349 66.3411 189.734 66.6797C189.125 67.0182 188.458 67.1875 187.734 67.1875C186.573 67.1875 185.633 66.8151 184.914 66.0703C184.201 65.3255 183.844 64.2526 183.844 62.8516ZM185.289 62.8516C185.289 63.9141 185.521 64.7109 185.984 65.2422C186.448 65.7682 187.031 66.0312 187.734 66.0312C188.432 66.0312 189.013 65.7656 189.477 65.2344C189.94 64.7031 190.172 63.8932 190.172 62.8047C190.172 61.7786 189.938 61.0026 189.469 60.4766C189.005 59.9453 188.427 59.6797 187.734 59.6797C187.031 59.6797 186.448 59.9427 185.984 60.4688C185.521 60.9948 185.289 61.7891 185.289 62.8516ZM193.258 67V58.7031H194.523V59.9609C194.846 59.3724 195.143 58.9844 195.414 58.7969C195.69 58.6094 195.992 58.5156 196.32 58.5156C196.794 58.5156 197.276 58.6667 197.766 58.9688L197.281 60.2734C196.938 60.0703 196.594 59.9688 196.25 59.9688C195.943 59.9688 195.667 60.0625 195.422 60.25C195.177 60.4323 195.003 60.6875 194.898 61.0156C194.742 61.5156 194.664 62.0625 194.664 62.6562V67H193.258ZM204.016 65.9766C203.495 66.4193 202.992 66.7318 202.508 66.9141C202.029 67.0964 201.513 67.1875 200.961 67.1875C200.049 67.1875 199.349 66.9661 198.859 66.5234C198.37 66.0755 198.125 65.5052 198.125 64.8125C198.125 64.4062 198.216 64.0365 198.398 63.7031C198.586 63.3646 198.828 63.0938 199.125 62.8906C199.427 62.6875 199.766 62.5339 200.141 62.4297C200.417 62.3568 200.833 62.2865 201.391 62.2188C202.526 62.0833 203.362 61.9219 203.898 61.7344C203.904 61.5417 203.906 61.4193 203.906 61.3672C203.906 60.7943 203.773 60.3906 203.508 60.1562C203.148 59.8385 202.615 59.6797 201.906 59.6797C201.245 59.6797 200.755 59.7969 200.438 60.0312C200.125 60.2604 199.893 60.6693 199.742 61.2578L198.367 61.0703C198.492 60.4818 198.698 60.0078 198.984 59.6484C199.271 59.2839 199.685 59.0052 200.227 58.8125C200.768 58.6146 201.396 58.5156 202.109 58.5156C202.818 58.5156 203.393 58.599 203.836 58.7656C204.279 58.9323 204.604 59.1432 204.812 59.3984C205.021 59.6484 205.167 59.9661 205.25 60.3516C205.297 60.5911 205.32 61.0234 205.32 61.6484V63.5234C205.32 64.8307 205.349 65.6589 205.406 66.0078C205.469 66.3516 205.589 66.6823 205.766 67H204.297C204.151 66.7083 204.057 66.3672 204.016 65.9766ZM203.898 62.8359C203.388 63.0443 202.622 63.2214 201.602 63.3672C201.023 63.4505 200.615 63.5443 200.375 63.6484C200.135 63.7526 199.951 63.9062 199.82 64.1094C199.69 64.3073 199.625 64.5286 199.625 64.7734C199.625 65.1484 199.766 65.4609 200.047 65.7109C200.333 65.9609 200.75 66.0859 201.297 66.0859C201.839 66.0859 202.32 65.9688 202.742 65.7344C203.164 65.4948 203.474 65.1693 203.672 64.7578C203.823 64.4401 203.898 63.9714 203.898 63.3516V62.8359ZM207.25 67.6875L208.617 67.8906C208.674 68.3125 208.833 68.6198 209.094 68.8125C209.443 69.0729 209.919 69.2031 210.523 69.2031C211.174 69.2031 211.677 69.0729 212.031 68.8125C212.385 68.5521 212.625 68.1875 212.75 67.7188C212.823 67.4323 212.857 66.8307 212.852 65.9141C212.237 66.638 211.471 67 210.555 67C209.414 67 208.531 66.5885 207.906 65.7656C207.281 64.9427 206.969 63.9557 206.969 62.8047C206.969 62.013 207.112 61.2839 207.398 60.6172C207.685 59.9453 208.099 59.4271 208.641 59.0625C209.188 58.6979 209.828 58.5156 210.562 58.5156C211.542 58.5156 212.349 58.9115 212.984 59.7031V58.7031H214.281V65.875C214.281 67.1667 214.148 68.0807 213.883 68.6172C213.622 69.1589 213.206 69.5859 212.633 69.8984C212.065 70.2109 211.365 70.3672 210.531 70.3672C209.542 70.3672 208.742 70.1432 208.133 69.6953C207.523 69.2526 207.229 68.5833 207.25 67.6875ZM208.414 62.7031C208.414 63.7917 208.63 64.5859 209.062 65.0859C209.495 65.5859 210.036 65.8359 210.688 65.8359C211.333 65.8359 211.875 65.5885 212.312 65.0938C212.75 64.5938 212.969 63.8125 212.969 62.75C212.969 61.7344 212.742 60.9688 212.289 60.4531C211.841 59.9375 211.299 59.6797 210.664 59.6797C210.039 59.6797 209.508 59.9349 209.07 60.4453C208.633 60.9505 208.414 61.7031 208.414 62.7031ZM222.094 64.3281L223.547 64.5078C223.318 65.3568 222.893 66.0156 222.273 66.4844C221.654 66.9531 220.862 67.1875 219.898 67.1875C218.685 67.1875 217.721 66.8151 217.008 66.0703C216.299 65.3203 215.945 64.2708 215.945 62.9219C215.945 61.526 216.305 60.4427 217.023 59.6719C217.742 58.901 218.674 58.5156 219.82 58.5156C220.93 58.5156 221.836 58.8932 222.539 59.6484C223.242 60.4036 223.594 61.4661 223.594 62.8359C223.594 62.9193 223.591 63.0443 223.586 63.2109H217.398C217.451 64.1224 217.708 64.8203 218.172 65.3047C218.635 65.7891 219.214 66.0312 219.906 66.0312C220.422 66.0312 220.862 65.8958 221.227 65.625C221.591 65.3542 221.88 64.9219 222.094 64.3281ZM217.477 62.0547H222.109C222.047 61.3568 221.87 60.8333 221.578 60.4844C221.13 59.9427 220.549 59.6719 219.836 59.6719C219.19 59.6719 218.646 59.888 218.203 60.3203C217.766 60.7526 217.523 61.3307 217.477 62.0547Z" fill="#4A5568"/>
</svg>
