<svg width="111" height="84" viewBox="0 0 111 84" fill="none" xmlns="http://www.w3.org/2000/svg">
<path d="M36 60H76V20L56 0L36 20V60Z" fill="#6C63FF"/>
<path d="M56 40C61.5228 40 66 35.5228 66 30C66 24.4772 61.5228 20 56 20C50.4772 20 46 24.4772 46 30C46 35.5228 50.4772 40 56 40Z" fill="white"/>
<path d="M81 15L86 25H96L88 32L91 42L81 36L71 42L74 32L66 25H76L81 15Z" fill="#FFD93D"/>
<path d="M4.56 79V67.64H0.08V65H12.28V67.64H7.8V79H4.56ZM20.628 79.24C19.5213 79.24 18.4946 79.06 17.548 78.7C16.6146 78.34 15.8013 77.8333 15.108 77.18C14.428 76.5267 13.8946 75.76 13.508 74.88C13.1346 74 12.948 73.04 12.948 72C12.948 70.96 13.1346 70 13.508 69.12C13.8946 68.24 14.4346 67.4733 15.128 66.82C15.8213 66.1667 16.6346 65.66 17.568 65.3C18.5013 64.94 19.5146 64.76 20.608 64.76C21.7146 64.76 22.728 64.94 23.648 65.3C24.5813 65.66 25.388 66.1667 26.068 66.82C26.7613 67.4733 27.3013 68.24 27.688 69.12C28.0746 69.9867 28.268 70.9467 28.268 72C28.268 73.04 28.0746 74.0067 27.688 74.9C27.3013 75.78 26.7613 76.5467 26.068 77.2C25.388 77.84 24.5813 78.34 23.648 78.7C22.728 79.06 21.7213 79.24 20.628 79.24ZM20.608 76.48C21.2346 76.48 21.808 76.3733 22.328 76.16C22.8613 75.9467 23.328 75.64 23.728 75.24C24.128 74.84 24.4346 74.3667 24.648 73.82C24.8746 73.2733 24.988 72.6667 24.988 72C24.988 71.3333 24.8746 70.7267 24.648 70.18C24.4346 69.6333 24.128 69.16 23.728 68.76C23.3413 68.36 22.8813 68.0533 22.348 67.84C21.8146 67.6267 21.2346 67.52 20.608 67.52C19.9813 67.52 19.4013 67.6267 18.868 67.84C18.348 68.0533 17.888 68.36 17.488 68.76C17.088 69.16 16.7746 69.6333 16.548 70.18C16.3346 70.7267 16.228 71.3333 16.228 72C16.228 72.6533 16.3346 73.26 16.548 73.82C16.7746 74.3667 17.0813 74.84 17.468 75.24C17.868 75.64 18.3346 75.9467 18.868 76.16C19.4013 76.3733 19.9813 76.48 20.608 76.48ZM33.5775 79V73.28L34.3175 75.24L28.1575 65H31.5975L36.3175 72.86H34.3375L39.0775 65H42.2575L36.0975 75.24L36.8175 73.28V79H33.5775Z" fill="#2D2D2D"/>
<path d="M47.3248 79L41.2848 65H44.7848L50.0648 77.4H48.0048L53.3648 65H56.5848L50.5248 79H47.3248ZM60.7338 70.64H67.4738V73.16H60.7338V70.64ZM60.9738 76.4H68.5938V79H57.7538V65H68.3338V67.6H60.9738V76.4ZM71.1717 79V65H77.2317C78.4851 65 79.5651 65.2067 80.4717 65.62C81.3784 66.02 82.0784 66.6 82.5717 67.36C83.0651 68.12 83.3117 69.0267 83.3117 70.08C83.3117 71.12 83.0651 72.02 82.5717 72.78C82.0784 73.5267 81.3784 74.1 80.4717 74.5C79.5651 74.9 78.4851 75.1 77.2317 75.1H72.9717L74.4117 73.68V79H71.1717ZM80.0717 79L76.5717 73.92H80.0317L83.5717 79H80.0717ZM74.4117 74.04L72.9717 72.52H77.0517C78.0517 72.52 78.7984 72.3067 79.2917 71.88C79.7851 71.44 80.0317 70.84 80.0317 70.08C80.0317 69.3067 79.7851 68.7067 79.2917 68.28C78.7984 67.8533 78.0517 67.64 77.0517 67.64H72.9717L74.4117 66.1V74.04ZM90.4788 79.24C89.3588 79.24 88.2854 79.0933 87.2588 78.8C86.2321 78.4933 85.4054 78.1 84.7788 77.62L85.8788 75.18C86.4788 75.6067 87.1854 75.96 87.9988 76.24C88.8254 76.5067 89.6588 76.64 90.4988 76.64C91.1388 76.64 91.6521 76.58 92.0388 76.46C92.4388 76.3267 92.7321 76.1467 92.9188 75.92C93.1054 75.6933 93.1988 75.4333 93.1988 75.14C93.1988 74.7667 93.0521 74.4733 92.7588 74.26C92.4654 74.0333 92.0788 73.8533 91.5988 73.72C91.1188 73.5733 90.5854 73.44 89.9988 73.32C89.4254 73.1867 88.8454 73.0267 88.2588 72.84C87.6854 72.6533 87.1588 72.4133 86.6788 72.12C86.1988 71.8267 85.8054 71.44 85.4988 70.96C85.2054 70.48 85.0588 69.8667 85.0588 69.12C85.0588 68.32 85.2721 67.5933 85.6988 66.94C86.1388 66.2733 86.7921 65.7467 87.6588 65.36C88.5388 64.96 89.6388 64.76 90.9588 64.76C91.8388 64.76 92.7054 64.8667 93.5588 65.08C94.4121 65.28 95.1654 65.5867 95.8188 66L94.8188 68.46C94.1654 68.0867 93.5121 67.8133 92.8588 67.64C92.2054 67.4533 91.5654 67.36 90.9388 67.36C90.3121 67.36 89.7988 67.4333 89.3988 67.58C88.9988 67.7267 88.7121 67.92 88.5388 68.16C88.3654 68.3867 88.2788 68.6533 88.2788 68.96C88.2788 69.32 88.4254 69.6133 88.7188 69.84C89.0121 70.0533 89.3988 70.2267 89.8788 70.36C90.3588 70.4933 90.8854 70.6267 91.4588 70.76C92.0454 70.8933 92.6254 71.0467 93.1988 71.22C93.7854 71.3933 94.3188 71.6267 94.7988 71.92C95.2788 72.2133 95.6654 72.6 95.9588 73.08C96.2654 73.56 96.4188 74.1667 96.4188 74.9C96.4188 75.6867 96.1988 76.4067 95.7588 77.06C95.3188 77.7133 94.6588 78.24 93.7788 78.64C92.9121 79.04 91.8121 79.24 90.4788 79.24ZM101.613 70.64H108.353V73.16H101.613V70.64ZM101.853 76.4H109.473V79H98.6327V65H109.213V67.6H101.853V76.4Z" fill="#6C63FF"/>
</svg>
