<svg width="253" height="97" viewBox="0 0 253 97" fill="none" xmlns="http://www.w3.org/2000/svg">
<path d="M4 16L30 5L56 16V82C56 89.3333 47.3333 93 30 93C12.6667 93 4 89.3333 4 82V16Z" fill="white" stroke="#2B5797" stroke-width="8"/>
<path d="M17 32.5C34.3333 25.1667 51.6667 25.1667 69 32.5C51.6667 39.8333 34.3333 39.8333 17 32.5Z" fill="#7AB800" stroke="#7AB800" stroke-width="2"/>
<path d="M10.5 60C23.5 52.6667 36.5 52.6667 49.5 60" stroke="#E8F4FF" stroke-width="4"/>
<path d="M84.375 56V33.0938H91.7969C94.6094 33.0938 96.4427 33.2083 97.2969 33.4375C98.6094 33.7812 99.7083 34.5312 100.594 35.6875C101.479 36.8333 101.922 38.3177 101.922 40.1406C101.922 41.5469 101.667 42.7292 101.156 43.6875C100.646 44.6458 99.9948 45.401 99.2031 45.9531C98.4219 46.4948 97.625 46.8542 96.8125 47.0312C95.7083 47.25 94.1094 47.3594 92.0156 47.3594H89V56H84.375ZM89 36.9688V43.4688H91.5312C93.3542 43.4688 94.5729 43.349 95.1875 43.1094C95.8021 42.8698 96.2812 42.4948 96.625 41.9844C96.9792 41.474 97.1562 40.8802 97.1562 40.2031C97.1562 39.3698 96.9115 38.6823 96.4219 38.1406C95.9323 37.599 95.3125 37.2604 94.5625 37.125C94.0104 37.0208 92.901 36.9688 91.2344 36.9688H89ZM116.609 56V53.5156C116.005 54.401 115.208 55.099 114.219 55.6094C113.24 56.1198 112.203 56.375 111.109 56.375C109.995 56.375 108.995 56.1302 108.109 55.6406C107.224 55.151 106.583 54.4635 106.188 53.5781C105.792 52.6927 105.594 51.4688 105.594 49.9062V39.4062H109.984V47.0312C109.984 49.3646 110.062 50.7969 110.219 51.3281C110.385 51.849 110.682 52.2656 111.109 52.5781C111.536 52.8802 112.078 53.0312 112.734 53.0312C113.484 53.0312 114.156 52.8281 114.75 52.4219C115.344 52.0052 115.75 51.4948 115.969 50.8906C116.188 50.276 116.297 48.7812 116.297 46.4062V39.4062H120.688V56H116.609ZM129.453 56H125.062V39.4062H129.141V41.7656C129.839 40.651 130.464 39.9167 131.016 39.5625C131.578 39.2083 132.214 39.0312 132.922 39.0312C133.922 39.0312 134.885 39.3073 135.812 39.8594L134.453 43.6875C133.714 43.2083 133.026 42.9688 132.391 42.9688C131.776 42.9688 131.255 43.1406 130.828 43.4844C130.401 43.8177 130.062 44.4271 129.812 45.3125C129.573 46.1979 129.453 48.0521 129.453 50.875V56ZM147.328 50.7188L151.703 51.4531C151.141 53.0573 150.25 54.2812 149.031 55.125C147.823 55.9583 146.307 56.375 144.484 56.375C141.599 56.375 139.464 55.4323 138.078 53.5469C136.984 52.0365 136.438 50.1302 136.438 47.8281C136.438 45.0781 137.156 42.9271 138.594 41.375C140.031 39.8125 141.849 39.0312 144.047 39.0312C146.516 39.0312 148.464 39.849 149.891 41.4844C151.318 43.1094 152 45.6042 151.938 48.9688H140.938C140.969 50.2708 141.323 51.2865 142 52.0156C142.677 52.7344 143.521 53.0938 144.531 53.0938C145.219 53.0938 145.797 52.9062 146.266 52.5312C146.734 52.1562 147.089 51.5521 147.328 50.7188ZM147.578 46.2812C147.547 45.0104 147.219 44.0469 146.594 43.3906C145.969 42.724 145.208 42.3906 144.312 42.3906C143.354 42.3906 142.562 42.7396 141.938 43.4375C141.312 44.1354 141.005 45.0833 141.016 46.2812H147.578ZM170.312 56L162.125 33.0938H167.141L172.938 50.0469L178.547 33.0938H183.453L175.25 56H170.312ZM187.281 44.4688L183.297 43.75C183.745 42.1458 184.516 40.9583 185.609 40.1875C186.703 39.4167 188.328 39.0312 190.484 39.0312C192.443 39.0312 193.901 39.2656 194.859 39.7344C195.818 40.1927 196.49 40.7812 196.875 41.5C197.271 42.2083 197.469 43.5156 197.469 45.4219L197.422 50.5469C197.422 52.0052 197.49 53.0833 197.625 53.7812C197.771 54.4688 198.036 55.2083 198.422 56H194.078C193.964 55.7083 193.823 55.276 193.656 54.7031C193.583 54.4427 193.531 54.2708 193.5 54.1875C192.75 54.9167 191.948 55.4635 191.094 55.8281C190.24 56.1927 189.328 56.375 188.359 56.375C186.651 56.375 185.302 55.9115 184.312 54.9844C183.333 54.0573 182.844 52.8854 182.844 51.4688C182.844 50.5312 183.068 49.6979 183.516 48.9688C183.964 48.2292 184.589 47.6667 185.391 47.2812C186.203 46.8854 187.37 46.5417 188.891 46.25C190.943 45.8646 192.365 45.5052 193.156 45.1719V44.7344C193.156 43.8906 192.948 43.2917 192.531 42.9375C192.115 42.5729 191.328 42.3906 190.172 42.3906C189.391 42.3906 188.781 42.5469 188.344 42.8594C187.906 43.1615 187.552 43.6979 187.281 44.4688ZM193.156 48.0312C192.594 48.2188 191.703 48.4427 190.484 48.7031C189.266 48.9635 188.469 49.2188 188.094 49.4688C187.521 49.875 187.234 50.3906 187.234 51.0156C187.234 51.6302 187.464 52.1615 187.922 52.6094C188.38 53.0573 188.964 53.2812 189.672 53.2812C190.464 53.2812 191.219 53.0208 191.938 52.5C192.469 52.1042 192.818 51.6198 192.984 51.0469C193.099 50.6719 193.156 49.9583 193.156 48.9062V48.0312ZM201.812 56V33.0938H206.203V56H201.812ZM210.719 56V33.0938H215.109V56H210.719ZM229.234 50.7188L233.609 51.4531C233.047 53.0573 232.156 54.2812 230.938 55.125C229.729 55.9583 228.214 56.375 226.391 56.375C223.505 56.375 221.37 55.4323 219.984 53.5469C218.891 52.0365 218.344 50.1302 218.344 47.8281C218.344 45.0781 219.062 42.9271 220.5 41.375C221.938 39.8125 223.755 39.0312 225.953 39.0312C228.422 39.0312 230.37 39.849 231.797 41.4844C233.224 43.1094 233.906 45.6042 233.844 48.9688H222.844C222.875 50.2708 223.229 51.2865 223.906 52.0156C224.583 52.7344 225.427 53.0938 226.438 53.0938C227.125 53.0938 227.703 52.9062 228.172 52.5312C228.641 52.1562 228.995 51.5521 229.234 50.7188ZM229.484 46.2812C229.453 45.0104 229.125 44.0469 228.5 43.3906C227.875 42.724 227.115 42.3906 226.219 42.3906C225.26 42.3906 224.469 42.7396 223.844 43.4375C223.219 44.1354 222.911 45.0833 222.922 46.2812H229.484ZM235.359 39.4062H240.031L244 51.1875L247.875 39.4062H252.422L246.562 55.375L245.516 58.2656C245.13 59.2344 244.76 59.974 244.406 60.4844C244.062 60.9948 243.661 61.4062 243.203 61.7188C242.755 62.0417 242.198 62.2917 241.531 62.4688C240.875 62.6458 240.13 62.7344 239.297 62.7344C238.453 62.7344 237.625 62.6458 236.812 62.4688L236.422 59.0312C237.109 59.1667 237.729 59.2344 238.281 59.2344C239.302 59.2344 240.057 58.9323 240.547 58.3281C241.036 57.7344 241.411 56.974 241.672 56.0469L235.359 39.4062Z" fill="#2B5797"/>
<path d="M133.105 81V63.8203H139.023C140.359 63.8203 141.379 63.9023 142.082 64.0664C143.066 64.293 143.906 64.7031 144.602 65.2969C145.508 66.0625 146.184 67.043 146.629 68.2383C147.082 69.4258 147.309 70.7852 147.309 72.3164C147.309 73.6211 147.156 74.7773 146.852 75.7852C146.547 76.793 146.156 77.6289 145.68 78.293C145.203 78.9492 144.68 79.4688 144.109 79.8516C143.547 80.2266 142.863 80.5117 142.059 80.707C141.262 80.9023 140.344 81 139.305 81H133.105ZM135.379 78.9727H139.047C140.18 78.9727 141.066 78.8672 141.707 78.6562C142.355 78.4453 142.871 78.1484 143.254 77.7656C143.793 77.2266 144.211 76.5039 144.508 75.5977C144.812 74.6836 144.965 73.5781 144.965 72.2812C144.965 70.4844 144.668 69.1055 144.074 68.1445C143.488 67.1758 142.773 66.5273 141.93 66.1992C141.32 65.9648 140.34 65.8477 138.988 65.8477H135.379V78.9727ZM148.562 81L155.16 63.8203H157.609L164.641 81H162.051L160.047 75.7969H152.863L150.977 81H148.562ZM153.52 73.9453H159.344L157.551 69.1875C157.004 67.7422 156.598 66.5547 156.332 65.625C156.113 66.7266 155.805 67.8203 155.406 68.9062L153.52 73.9453ZM166.844 81V63.8203H169.117V81H166.844ZM173.172 81V63.8203H180.789C182.32 63.8203 183.484 63.9766 184.281 64.2891C185.078 64.5938 185.715 65.1367 186.191 65.918C186.668 66.6992 186.906 67.5625 186.906 68.5078C186.906 69.7266 186.512 70.7539 185.723 71.5898C184.934 72.4258 183.715 72.957 182.066 73.1836C182.668 73.4727 183.125 73.7578 183.438 74.0391C184.102 74.6484 184.73 75.4102 185.324 76.3242L188.312 81H185.453L183.18 77.4258C182.516 76.3945 181.969 75.6055 181.539 75.0586C181.109 74.5117 180.723 74.1289 180.379 73.9102C180.043 73.6914 179.699 73.5391 179.348 73.4531C179.09 73.3984 178.668 73.3711 178.082 73.3711H175.445V81H173.172ZM175.445 71.4023H180.332C181.371 71.4023 182.184 71.2969 182.77 71.0859C183.355 70.8672 183.801 70.5234 184.105 70.0547C184.41 69.5781 184.562 69.0625 184.562 68.5078C184.562 67.6953 184.266 67.0273 183.672 66.5039C183.086 65.9805 182.156 65.7188 180.883 65.7188H175.445V71.4023ZM194.875 81V73.7227L188.254 63.8203H191.02L194.406 69C195.031 69.9688 195.613 70.9375 196.152 71.9062C196.668 71.0078 197.293 69.9961 198.027 68.8711L201.355 63.8203H204.004L197.148 73.7227V81H194.875Z" fill="#2B5797"/>
</svg>
