<svg width="308" height="126" viewBox="0 0 308 126" fill="none" xmlns="http://www.w3.org/2000/svg">
<path d="M114 1C134 1 144 21 144 41C144 61 134 81 114 81C94 81 84 61 84 41C84 21 94 1 114 1ZM194 1C214 1 224 21 224 41C224 61 214 81 194 81C174 81 164 61 164 41C164 21 174 1 194 1Z" fill="#FFD700" stroke="#B8860B" stroke-width="2"/>
<path d="M144 41C150.667 34.3333 157.333 34.3333 164 41C157.333 47.6667 150.667 47.6667 144 41Z" fill="#B8860B"/>
<path d="M2.46875 96.0938H11.625C13.4375 96.0938 14.7865 96.1719 15.6719 96.3281C16.5677 96.474 17.3646 96.7865 18.0625 97.2656C18.7708 97.7448 19.3594 98.3854 19.8281 99.1875C20.2969 99.9792 20.5312 100.87 20.5312 101.859C20.5312 102.932 20.2396 103.917 19.6562 104.812C19.0833 105.708 18.3021 106.38 17.3125 106.828C18.7083 107.234 19.7812 107.927 20.5312 108.906C21.2812 109.885 21.6562 111.036 21.6562 112.359C21.6562 113.401 21.4115 114.417 20.9219 115.406C20.4427 116.385 19.7812 117.172 18.9375 117.766C18.1042 118.349 17.0729 118.708 15.8438 118.844C15.0729 118.927 13.2135 118.979 10.2656 119H2.46875V96.0938ZM7.09375 99.9062V105.203H10.125C11.9271 105.203 13.0469 105.177 13.4844 105.125C14.276 105.031 14.8958 104.76 15.3438 104.312C15.8021 103.854 16.0312 103.255 16.0312 102.516C16.0312 101.807 15.8333 101.234 15.4375 100.797C15.0521 100.349 14.474 100.078 13.7031 99.9844C13.2448 99.9323 11.9271 99.9062 9.75 99.9062H7.09375ZM7.09375 109.016V115.141H11.375C13.0417 115.141 14.099 115.094 14.5469 115C15.2344 114.875 15.7917 114.573 16.2188 114.094C16.6562 113.604 16.875 112.953 16.875 112.141C16.875 111.453 16.7083 110.87 16.375 110.391C16.0417 109.911 15.5573 109.562 14.9219 109.344C14.2969 109.125 12.9323 109.016 10.8281 109.016H7.09375ZM25.5469 96.0938H30.1719V108.5C30.1719 110.469 30.2292 111.745 30.3438 112.328C30.5417 113.266 31.0104 114.021 31.75 114.594C32.5 115.156 33.5208 115.438 34.8125 115.438C36.125 115.438 37.1146 115.172 37.7812 114.641C38.4479 114.099 38.849 113.438 38.9844 112.656C39.1198 111.875 39.1875 110.578 39.1875 108.766V96.0938H43.8125V108.125C43.8125 110.875 43.6875 112.818 43.4375 113.953C43.1875 115.089 42.724 116.047 42.0469 116.828C41.3802 117.609 40.4844 118.234 39.3594 118.703C38.2344 119.161 36.7656 119.391 34.9531 119.391C32.7656 119.391 31.1042 119.141 29.9688 118.641C28.8438 118.13 27.9531 117.474 27.2969 116.672C26.6406 115.859 26.2083 115.01 26 114.125C25.6979 112.812 25.5469 110.875 25.5469 108.312V96.0938ZM53.8594 119V99.9688H47.0625V96.0938H65.2656V99.9688H58.4844V119H53.8594ZM73.4219 119V99.9688H66.625V96.0938H84.8281V99.9688H78.0469V119H73.4219ZM87.8281 119V96.0938H104.812V99.9688H92.4531V105.047H103.953V108.906H92.4531V115.141H105.25V119H87.8281ZM109.188 119V96.0938H118.922C121.37 96.0938 123.146 96.3021 124.25 96.7188C125.365 97.125 126.255 97.8542 126.922 98.9062C127.589 99.9583 127.922 101.161 127.922 102.516C127.922 104.234 127.417 105.656 126.406 106.781C125.396 107.896 123.885 108.599 121.875 108.891C122.875 109.474 123.698 110.115 124.344 110.812C125 111.51 125.88 112.75 126.984 114.531L129.781 119H124.25L120.906 114.016C119.719 112.234 118.906 111.115 118.469 110.656C118.031 110.188 117.568 109.87 117.078 109.703C116.589 109.526 115.812 109.438 114.75 109.438H113.812V119H109.188ZM113.812 105.781H117.234C119.453 105.781 120.839 105.688 121.391 105.5C121.943 105.312 122.375 104.99 122.688 104.531C123 104.073 123.156 103.5 123.156 102.812C123.156 102.042 122.948 101.422 122.531 100.953C122.125 100.474 121.547 100.172 120.797 100.047C120.422 99.9948 119.297 99.9688 117.422 99.9688H113.812V105.781ZM161.469 116.203L158.812 119.594C157.51 118.958 156.26 118.083 155.062 116.969C154.135 117.802 153.151 118.417 152.109 118.812C151.068 119.208 149.828 119.406 148.391 119.406C145.536 119.406 143.391 118.604 141.953 117C140.839 115.76 140.281 114.333 140.281 112.719C140.281 111.25 140.719 109.932 141.594 108.766C142.469 107.589 143.776 106.568 145.516 105.703C144.734 104.776 144.146 103.896 143.75 103.062C143.354 102.219 143.156 101.422 143.156 100.672C143.156 99.2865 143.708 98.1146 144.812 97.1562C145.927 96.1875 147.51 95.7031 149.562 95.7031C151.542 95.7031 153.089 96.2083 154.203 97.2188C155.318 98.2292 155.875 99.4635 155.875 100.922C155.875 101.849 155.599 102.729 155.047 103.562C154.495 104.396 153.38 105.339 151.703 106.391L154.891 110.594C155.266 109.927 155.589 109.057 155.859 107.984L159.828 108.891C159.432 110.297 159.089 111.328 158.797 111.984C158.505 112.63 158.193 113.172 157.859 113.609C158.349 114.068 158.979 114.573 159.75 115.125C160.531 115.667 161.104 116.026 161.469 116.203ZM149.516 103.75L150.703 102.844C151.578 102.167 152.016 101.495 152.016 100.828C152.016 100.266 151.802 99.7865 151.375 99.3906C150.958 98.9948 150.391 98.7969 149.672 98.7969C148.974 98.7969 148.427 98.974 148.031 99.3281C147.635 99.6719 147.438 100.073 147.438 100.531C147.438 101.073 147.771 101.729 148.438 102.5L149.516 103.75ZM147.797 108.516C146.786 109.026 146.031 109.641 145.531 110.359C145.031 111.078 144.781 111.812 144.781 112.562C144.781 113.51 145.089 114.286 145.703 114.891C146.328 115.484 147.161 115.781 148.203 115.781C148.891 115.781 149.552 115.646 150.188 115.375C150.823 115.104 151.516 114.656 152.266 114.031L147.797 108.516ZM173.25 96.0938H182.406C184.219 96.0938 185.568 96.1719 186.453 96.3281C187.349 96.474 188.146 96.7865 188.844 97.2656C189.552 97.7448 190.141 98.3854 190.609 99.1875C191.078 99.9792 191.312 100.87 191.312 101.859C191.312 102.932 191.021 103.917 190.438 104.812C189.865 105.708 189.083 106.38 188.094 106.828C189.49 107.234 190.562 107.927 191.312 108.906C192.062 109.885 192.438 111.036 192.438 112.359C192.438 113.401 192.193 114.417 191.703 115.406C191.224 116.385 190.562 117.172 189.719 117.766C188.885 118.349 187.854 118.708 186.625 118.844C185.854 118.927 183.995 118.979 181.047 119H173.25V96.0938ZM177.875 99.9062V105.203H180.906C182.708 105.203 183.828 105.177 184.266 105.125C185.057 105.031 185.677 104.76 186.125 104.312C186.583 103.854 186.812 103.255 186.812 102.516C186.812 101.807 186.615 101.234 186.219 100.797C185.833 100.349 185.255 100.078 184.484 99.9844C184.026 99.9323 182.708 99.9062 180.531 99.9062H177.875ZM177.875 109.016V115.141H182.156C183.823 115.141 184.88 115.094 185.328 115C186.016 114.875 186.573 114.573 187 114.094C187.438 113.604 187.656 112.953 187.656 112.141C187.656 111.453 187.49 110.87 187.156 110.391C186.823 109.911 186.339 109.562 185.703 109.344C185.078 109.125 183.714 109.016 181.609 109.016H177.875ZM196.359 119V96.0938H213.344V99.9688H200.984V105.047H212.484V108.906H200.984V115.141H213.781V119H196.359ZM223.719 119V109.359L215.328 96.0938H220.75L226.141 105.156L231.422 96.0938H236.75L228.328 109.391V119H223.719ZM238.109 107.688C238.109 105.354 238.458 103.396 239.156 101.812C239.677 100.646 240.385 99.599 241.281 98.6719C242.188 97.7448 243.177 97.0573 244.25 96.6094C245.677 96.0052 247.323 95.7031 249.188 95.7031C252.562 95.7031 255.26 96.75 257.281 98.8438C259.312 100.938 260.328 103.849 260.328 107.578C260.328 111.276 259.323 114.172 257.312 116.266C255.302 118.349 252.615 119.391 249.25 119.391C245.844 119.391 243.135 118.354 241.125 116.281C239.115 114.198 238.109 111.333 238.109 107.688ZM242.875 107.531C242.875 110.125 243.474 112.094 244.672 113.438C245.87 114.771 247.391 115.438 249.234 115.438C251.078 115.438 252.589 114.776 253.766 113.453C254.953 112.12 255.547 110.125 255.547 107.469C255.547 104.844 254.969 102.885 253.812 101.594C252.667 100.302 251.141 99.6562 249.234 99.6562C247.328 99.6562 245.792 100.312 244.625 101.625C243.458 102.927 242.875 104.896 242.875 107.531ZM264 119V96.0938H268.5L277.875 111.391V96.0938H282.172V119H277.531L268.297 104.062V119H264ZM287.062 96.0938H295.516C297.422 96.0938 298.875 96.2396 299.875 96.5312C301.219 96.9271 302.37 97.6302 303.328 98.6406C304.286 99.651 305.016 100.891 305.516 102.359C306.016 103.818 306.266 105.62 306.266 107.766C306.266 109.651 306.031 111.276 305.562 112.641C304.99 114.307 304.172 115.656 303.109 116.688C302.307 117.469 301.224 118.078 299.859 118.516C298.839 118.839 297.474 119 295.766 119H287.062V96.0938ZM291.688 99.9688V115.141H295.141C296.432 115.141 297.365 115.068 297.938 114.922C298.688 114.734 299.307 114.417 299.797 113.969C300.297 113.521 300.703 112.786 301.016 111.766C301.328 110.734 301.484 109.333 301.484 107.562C301.484 105.792 301.328 104.432 301.016 103.484C300.703 102.536 300.266 101.797 299.703 101.266C299.141 100.734 298.427 100.375 297.562 100.188C296.917 100.042 295.651 99.9688 293.766 99.9688H291.688Z" fill="#4A4A4A"/>
<path d="M93.9999 26C88.9999 21 83.9999 19 78.9999 21C75.6666 22.3334 74.6666 25.6667 75.9999 31C77.3332 36.3334 79.9999 39.6667 83.9999 41C88.9999 43 93.9999 36 93.9999 26Z" fill="#90EE90" stroke="#228B22"/>
</svg>
