<svg width="320" height="90" viewBox="0 0 320 90" fill="none" xmlns="http://www.w3.org/2000/svg">
<path d="M45 90C69.8528 90 90 69.8528 90 45C90 20.1472 69.8528 0 45 0C20.1472 0 0 20.1472 0 45C0 69.8528 20.1472 90 45 90Z" fill="#E74C3C"/>
<path d="M25 30V60M40 30C50 30 55 37 55 45C55 53 50 60 40 60M25 20C25 20 35 20 40 20C55 20 65 30 65 45C65 60 55 70 40 70C35 70 25 70 25 70V20Z" stroke="white" stroke-width="6" stroke-linecap="round"/>
<path d="M45 43C46.6569 43 48 41.6569 48 40C48 38.3431 46.6569 37 45 37C43.3431 37 42 38.3431 42 40C42 41.6569 43.3431 43 45 43Z" fill="white"/>
<path d="M113.547 56H103.109V32.9688H114.297C117.12 33.0104 119.12 33.8281 120.297 35.4219C121.005 36.401 121.359 37.5729 121.359 38.9375C121.359 40.3438 121.005 41.474 120.297 42.3281C119.901 42.8073 119.318 43.2448 118.547 43.6406C119.724 44.0677 120.609 44.7448 121.203 45.6719C121.807 46.599 122.109 47.724 122.109 49.0469C122.109 50.4115 121.766 51.6354 121.078 52.7188C120.641 53.4375 120.094 54.0417 119.438 54.5312C118.698 55.0938 117.823 55.4792 116.812 55.6875C115.812 55.8958 114.724 56 113.547 56ZM113.438 45.8594H107.703V52H113.359C114.37 52 115.156 51.8646 115.719 51.5938C116.74 51.0938 117.25 50.1354 117.25 48.7188C117.25 47.5208 116.755 46.6979 115.766 46.25C115.214 46 114.438 45.8698 113.438 45.8594ZM115.828 41.4688C116.453 41.0938 116.766 40.4219 116.766 39.4531C116.766 38.3802 116.349 37.6719 115.516 37.3281C114.797 37.0885 113.88 36.9688 112.766 36.9688H107.703V42.0469H113.359C114.37 42.0469 115.193 41.8542 115.828 41.4688ZM139.781 47.125V32.9688H144.672V47.125C144.672 49.5729 144.292 51.4792 143.531 52.8438C142.115 55.3438 139.411 56.5938 135.422 56.5938C131.432 56.5938 128.724 55.3438 127.297 52.8438C126.536 51.4792 126.156 49.5729 126.156 47.125V32.9688H131.047V47.125C131.047 48.7083 131.234 49.8646 131.609 50.5938C132.193 51.8854 133.464 52.5312 135.422 52.5312C137.37 52.5312 138.635 51.8854 139.219 50.5938C139.594 49.8646 139.781 48.7083 139.781 47.125ZM157.641 52.6719C158.776 52.6719 159.698 52.5469 160.406 52.2969C161.75 51.8177 162.422 50.9271 162.422 49.625C162.422 48.8646 162.089 48.276 161.422 47.8594C160.755 47.4531 159.708 47.0938 158.281 46.7812L155.844 46.2344C153.448 45.6927 151.792 45.1042 150.875 44.4688C149.323 43.4062 148.547 41.7448 148.547 39.4844C148.547 37.4219 149.297 35.7083 150.797 34.3438C152.297 32.9792 154.5 32.2969 157.406 32.2969C159.833 32.2969 161.901 32.9427 163.609 34.2344C165.328 35.5156 166.229 37.3802 166.312 39.8281H161.688C161.604 38.4427 161 37.4583 159.875 36.875C159.125 36.4896 158.193 36.2969 157.078 36.2969C155.839 36.2969 154.849 36.5469 154.109 37.0469C153.37 37.5469 153 38.2448 153 39.1406C153 39.9635 153.365 40.5781 154.094 40.9844C154.562 41.2552 155.562 41.5729 157.094 41.9375L161.062 42.8906C162.802 43.3073 164.115 43.8646 165 44.5625C166.375 45.6458 167.062 47.2135 167.062 49.2656C167.062 51.3698 166.255 53.1198 164.641 54.5156C163.036 55.901 160.766 56.5938 157.828 56.5938C154.828 56.5938 152.469 55.9115 150.75 54.5469C149.031 53.1719 148.172 51.2865 148.172 48.8906H152.766C152.911 49.9427 153.198 50.7292 153.625 51.25C154.406 52.1979 155.745 52.6719 157.641 52.6719ZM184.359 56V45.7188H175.359V56H170.594V32.9688H175.359V41.75H184.359V32.9688H189.141V56H184.359ZM218.906 54.2812C217.188 55.8542 214.99 56.6406 212.312 56.6406C209 56.6406 206.396 55.5781 204.5 53.4531C202.604 51.3177 201.656 48.3906 201.656 44.6719C201.656 40.651 202.734 37.5521 204.891 35.375C206.766 33.4792 209.151 32.5312 212.047 32.5312C215.922 32.5312 218.755 33.8021 220.547 36.3438C221.536 37.7708 222.068 39.2031 222.141 40.6406H217.328C217.016 39.5365 216.615 38.7031 216.125 38.1406C215.25 37.1406 213.953 36.6406 212.234 36.6406C210.484 36.6406 209.104 37.349 208.094 38.7656C207.083 40.1719 206.578 42.1667 206.578 44.75C206.578 47.3333 207.109 49.2708 208.172 50.5625C209.245 51.8438 210.604 52.4844 212.25 52.4844C213.938 52.4844 215.224 51.9323 216.109 50.8281C216.599 50.2344 217.005 49.3438 217.328 48.1562H222.094C221.677 50.6667 220.615 52.7083 218.906 54.2812ZM239.516 56V45.7188H230.516V56H225.75V32.9688H230.516V41.75H239.516V32.9688H244.297V56H239.516ZM259.094 56.6406C255.802 56.6406 253.286 55.7448 251.547 53.9531C249.214 51.7552 248.047 48.5885 248.047 44.4531C248.047 40.2344 249.214 37.0677 251.547 34.9531C253.286 33.1615 255.802 32.2656 259.094 32.2656C262.385 32.2656 264.901 33.1615 266.641 34.9531C268.964 37.0677 270.125 40.2344 270.125 44.4531C270.125 48.5885 268.964 51.7552 266.641 53.9531C264.901 55.7448 262.385 56.6406 259.094 56.6406ZM263.641 50.4531C264.755 49.0469 265.312 47.0469 265.312 44.4531C265.312 41.8698 264.75 39.875 263.625 38.4688C262.51 37.0521 261 36.3438 259.094 36.3438C257.188 36.3438 255.667 37.0469 254.531 38.4531C253.396 39.8594 252.828 41.8594 252.828 44.4531C252.828 47.0469 253.396 49.0469 254.531 50.4531C255.667 51.8594 257.188 52.5625 259.094 52.5625C261 52.5625 262.516 51.8594 263.641 50.4531ZM284 56.6406C280.708 56.6406 278.193 55.7448 276.453 53.9531C274.12 51.7552 272.953 48.5885 272.953 44.4531C272.953 40.2344 274.12 37.0677 276.453 34.9531C278.193 33.1615 280.708 32.2656 284 32.2656C287.292 32.2656 289.807 33.1615 291.547 34.9531C293.87 37.0677 295.031 40.2344 295.031 44.4531C295.031 48.5885 293.87 51.7552 291.547 53.9531C289.807 55.7448 287.292 56.6406 284 56.6406ZM288.547 50.4531C289.661 49.0469 290.219 47.0469 290.219 44.4531C290.219 41.8698 289.656 39.875 288.531 38.4688C287.417 37.0521 285.906 36.3438 284 36.3438C282.094 36.3438 280.573 37.0469 279.438 38.4531C278.302 39.8594 277.734 41.8594 277.734 44.4531C277.734 47.0469 278.302 49.0469 279.438 50.4531C280.573 51.8594 282.094 52.5625 284 52.5625C285.906 52.5625 287.422 51.8594 288.547 50.4531ZM319.125 56H312.938L305.828 45.9375L303.531 48.2969V56H298.797V32.9688H303.531V42.4531L312.422 32.9688H318.641L309.203 42.4531L319.125 56Z" fill="#333333"/>
<path d="M178.876 66.958H186.197V68.1885H180.202V71.2373H185.746V72.3994H180.202V75.8037H186.3V77H178.876V66.958ZM188.973 73.7598C189.005 74.3294 189.139 74.792 189.376 75.1475C189.827 75.8128 190.622 76.1455 191.762 76.1455C192.272 76.1455 192.737 76.0726 193.156 75.9268C193.967 75.6442 194.373 75.1383 194.373 74.4092C194.373 73.8623 194.202 73.4727 193.86 73.2402C193.514 73.0124 192.972 72.8141 192.233 72.6455L190.873 72.3379C189.984 72.1374 189.355 71.9163 188.986 71.6748C188.348 71.2555 188.029 70.6289 188.029 69.7949C188.029 68.8926 188.341 68.152 188.966 67.5732C189.59 66.9945 190.474 66.7051 191.618 66.7051C192.671 66.7051 193.564 66.9603 194.298 67.4707C195.036 67.9766 195.405 68.7878 195.405 69.9043H194.127C194.059 69.3665 193.913 68.9541 193.689 68.667C193.275 68.1429 192.571 67.8809 191.577 67.8809C190.775 67.8809 190.199 68.0495 189.848 68.3867C189.497 68.724 189.321 69.1159 189.321 69.5625C189.321 70.0547 189.526 70.4147 189.937 70.6426C190.205 70.7884 190.814 70.9707 191.762 71.1895L193.17 71.5107C193.849 71.6657 194.373 71.8776 194.742 72.1465C195.38 72.6159 195.699 73.2972 195.699 74.1904C195.699 75.3024 195.294 76.0977 194.482 76.5762C193.676 77.0547 192.737 77.2939 191.666 77.2939C190.417 77.2939 189.44 76.9749 188.733 76.3369C188.027 75.7035 187.681 74.8444 187.694 73.7598H188.973ZM204.729 66.958V68.1543H201.346V77H199.965V68.1543H196.581V66.958H204.729ZM204.552 75.5098H205.98V77H204.552V75.5098ZM211.586 77C211.632 76.1569 211.805 75.4232 212.105 74.7988C212.411 74.1745 213.003 73.6071 213.883 73.0967L215.195 72.3379C215.783 71.9961 216.196 71.7044 216.433 71.4629C216.806 71.0846 216.993 70.6517 216.993 70.1641C216.993 69.5944 216.822 69.1432 216.48 68.8105C216.139 68.4733 215.683 68.3047 215.113 68.3047C214.27 68.3047 213.687 68.6237 213.363 69.2617C213.19 69.6035 213.094 70.0775 213.076 70.6836H211.825C211.839 69.8314 211.996 69.1364 212.297 68.5986C212.83 67.6507 213.771 67.1768 215.12 67.1768C216.241 67.1768 217.059 67.4798 217.574 68.0859C218.094 68.6921 218.354 69.3665 218.354 70.1094C218.354 70.8932 218.078 71.5632 217.526 72.1191C217.207 72.4427 216.635 72.8346 215.811 73.2949L214.874 73.8145C214.427 74.0605 214.076 74.2952 213.821 74.5186C213.366 74.915 213.078 75.3548 212.96 75.8379H218.306V77H211.586ZM222.729 67.2109C223.995 67.2109 224.911 67.7327 225.477 68.7764C225.914 69.583 226.133 70.6882 226.133 72.0918C226.133 73.4225 225.935 74.5231 225.538 75.3936C224.964 76.6423 224.025 77.2666 222.722 77.2666C221.546 77.2666 220.671 76.7562 220.097 75.7354C219.618 74.8831 219.379 73.7393 219.379 72.3037C219.379 71.1917 219.522 70.237 219.81 69.4395C220.347 67.9538 221.32 67.2109 222.729 67.2109ZM222.715 76.1455C223.353 76.1455 223.861 75.863 224.239 75.2979C224.618 74.7327 224.807 73.68 224.807 72.1396C224.807 71.0277 224.67 70.1139 224.396 69.3984C224.123 68.6784 223.592 68.3184 222.804 68.3184C222.079 68.3184 221.548 68.6602 221.211 69.3438C220.878 70.0228 220.712 71.0254 220.712 72.3516C220.712 73.3496 220.819 74.1517 221.033 74.7578C221.361 75.6829 221.922 76.1455 222.715 76.1455ZM227.172 77C227.217 76.1569 227.391 75.4232 227.691 74.7988C227.997 74.1745 228.589 73.6071 229.469 73.0967L230.781 72.3379C231.369 71.9961 231.782 71.7044 232.019 71.4629C232.392 71.0846 232.579 70.6517 232.579 70.1641C232.579 69.5944 232.408 69.1432 232.066 68.8105C231.725 68.4733 231.269 68.3047 230.699 68.3047C229.856 68.3047 229.273 68.6237 228.949 69.2617C228.776 69.6035 228.68 70.0775 228.662 70.6836H227.411C227.425 69.8314 227.582 69.1364 227.883 68.5986C228.416 67.6507 229.357 67.1768 230.706 67.1768C231.827 67.1768 232.645 67.4798 233.16 68.0859C233.68 68.6921 233.939 69.3665 233.939 70.1094C233.939 70.8932 233.664 71.5632 233.112 72.1191C232.793 72.4427 232.221 72.8346 231.396 73.2949L230.46 73.8145C230.013 74.0605 229.662 74.2952 229.407 74.5186C228.951 74.915 228.664 75.3548 228.546 75.8379H233.892V77H227.172ZM238.314 67.2109C239.581 67.2109 240.497 67.7327 241.062 68.7764C241.5 69.583 241.719 70.6882 241.719 72.0918C241.719 73.4225 241.521 74.5231 241.124 75.3936C240.55 76.6423 239.611 77.2666 238.308 77.2666C237.132 77.2666 236.257 76.7562 235.683 75.7354C235.204 74.8831 234.965 73.7393 234.965 72.3037C234.965 71.1917 235.108 70.237 235.396 69.4395C235.933 67.9538 236.906 67.2109 238.314 67.2109ZM238.301 76.1455C238.939 76.1455 239.447 75.863 239.825 75.2979C240.203 74.7327 240.393 73.68 240.393 72.1396C240.393 71.0277 240.256 70.1139 239.982 69.3984C239.709 68.6784 239.178 68.3184 238.39 68.3184C237.665 68.3184 237.134 68.6602 236.797 69.3438C236.464 70.0228 236.298 71.0254 236.298 72.3516C236.298 73.3496 236.405 74.1517 236.619 74.7578C236.947 75.6829 237.508 76.1455 238.301 76.1455Z" fill="#666666"/>
</svg>
