<svg width="282" height="101" viewBox="0 0 282 101" fill="none" xmlns="http://www.w3.org/2000/svg">
<path d="M51 9C61 2.33333 71 2.33333 81 9C91 15.6667 101 15.6667 111 9C121 2.33333 131 2.33333 141 9" stroke="#FF6B6B" stroke-width="8" stroke-linecap="round"/>
<path d="M46 29C56 22.3333 66 22.3333 76 29C86 35.6667 96 35.6667 106 29C116 22.3333 126 22.3333 136 29" stroke="#FF8787" stroke-width="8" stroke-linecap="round"/>
<path d="M41 49C51 42.3333 61 42.3333 71 49C81 55.6667 91 55.6667 101 49C111 42.3333 121 42.3333 131 49" stroke="#FFA5A5" stroke-width="8" stroke-linecap="round"/>
<path d="M22.3438 59.375C22.3438 60.625 22.0833 61.7031 21.5625 62.6094C21.0521 63.5052 20.3438 64.2344 19.4375 64.7969C18.5 65.3802 17.4271 65.8021 16.2188 66.0625C15.0208 66.3229 13.6719 66.4531 12.1719 66.4531H10.3594V72.6875C10.3594 73.0625 10.4271 73.3906 10.5625 73.6719C10.7083 73.9427 10.9792 74.1615 11.375 74.3281C11.5833 74.4115 11.9219 74.5 12.3906 74.5938C12.8594 74.6875 13.2552 74.75 13.5781 74.7812V76H1.5625V74.7812C1.86458 74.75 2.26562 74.7083 2.76562 74.6562C3.26562 74.5938 3.61458 74.5208 3.8125 74.4375C4.21875 74.2708 4.48438 74.0677 4.60938 73.8281C4.74479 73.5885 4.8125 73.2552 4.8125 72.8281V57.1875C4.8125 56.8229 4.75 56.5104 4.625 56.25C4.5 55.9792 4.22917 55.7552 3.8125 55.5781C3.52083 55.4531 3.13021 55.3438 2.64062 55.25C2.16146 55.1458 1.80208 55.0781 1.5625 55.0469V53.8281H13.7969C16.6615 53.8281 18.8021 54.2865 20.2188 55.2031C21.6354 56.1094 22.3438 57.5 22.3438 59.375ZM16.25 60.1719C16.25 58.5052 15.9115 57.2708 15.2344 56.4688C14.5677 55.6562 13.375 55.25 11.6562 55.25H10.3594V64.9844H11.0156C12.724 64.9844 14.0208 64.5938 14.9062 63.8125C15.8021 63.0208 16.25 61.8073 16.25 60.1719ZM49.4531 76H40.9531C39.4844 73.75 38.2604 71.9583 37.2812 70.625C36.3125 69.2917 35.1042 67.75 33.6562 66H32.7969V72.7344C32.7969 73.1094 32.8646 73.4271 33 73.6875C33.1458 73.9479 33.4167 74.1667 33.8125 74.3438C34.0104 74.4271 34.3177 74.5156 34.7344 74.6094C35.1615 74.6927 35.526 74.75 35.8281 74.7812V76H24V74.7812C24.3021 74.75 24.6979 74.7083 25.1875 74.6562C25.6875 74.5938 26.0417 74.5208 26.25 74.4375C26.6458 74.2708 26.9115 74.0625 27.0469 73.8125C27.1823 73.5521 27.25 73.224 27.25 72.8281V57.1875C27.25 56.8125 27.1927 56.5 27.0781 56.25C26.9635 56 26.6875 55.7812 26.25 55.5938C25.9167 55.4583 25.5208 55.3438 25.0625 55.25C24.6146 55.1562 24.2604 55.0885 24 55.0469V53.8281H36.4375C39.2188 53.8281 41.3281 54.2656 42.7656 55.1406C44.2135 56.0052 44.9375 57.3177 44.9375 59.0781C44.9375 60.6302 44.4896 61.8802 43.5938 62.8281C42.7083 63.7656 41.3542 64.5 39.5312 65.0312C40.2396 65.9479 41.0625 67.0104 42 68.2188C42.9479 69.4271 43.9323 70.6615 44.9531 71.9219C45.276 72.3281 45.7135 72.8281 46.2656 73.4219C46.8281 74.0052 47.3229 74.3646 47.75 74.5C47.9896 74.5729 48.2917 74.6354 48.6562 74.6875C49.0312 74.7396 49.2969 74.7708 49.4531 74.7812V76ZM38.8125 59.5156C38.8125 58.0365 38.3958 56.9583 37.5625 56.2812C36.7396 55.5938 35.5625 55.25 34.0312 55.25H32.7969V64.5312H33.9844C35.5156 64.5312 36.7031 64.1302 37.5469 63.3281C38.3906 62.526 38.8125 61.2552 38.8125 59.5156ZM61.7344 76H49.4375V74.7812C49.7188 74.7604 50.1302 74.7292 50.6719 74.6875C51.224 74.6458 51.6042 74.5833 51.8125 74.5C52.1979 74.3438 52.4583 74.1406 52.5938 73.8906C52.7396 73.6302 52.8125 73.3021 52.8125 72.9062V57.1875C52.8125 56.8333 52.7448 56.5208 52.6094 56.25C52.474 55.9792 52.2083 55.7604 51.8125 55.5938C51.5625 55.4896 51.1927 55.3854 50.7031 55.2812C50.2135 55.1667 49.7917 55.0885 49.4375 55.0469V53.8281H61.7344V55.0469C61.4219 55.0781 61.0312 55.125 60.5625 55.1875C60.0938 55.2396 59.6979 55.3177 59.375 55.4219C58.9688 55.5573 58.6979 55.7708 58.5625 56.0625C58.4271 56.3438 58.3594 56.6667 58.3594 57.0312V72.7344C58.3594 73.1094 58.4271 73.4323 58.5625 73.7031C58.7083 73.9635 58.9792 74.1771 59.375 74.3438C59.5938 74.4375 59.9531 74.5312 60.4531 74.625C60.9635 74.7083 61.3906 74.7604 61.7344 74.7812V76ZM94.2812 76H82.2656V74.7812C82.6198 74.75 83.0521 74.6979 83.5625 74.625C84.0833 74.5521 84.4375 74.474 84.625 74.3906C85.0104 74.2344 85.2865 74.0208 85.4531 73.75C85.6198 73.4792 85.7031 73.1354 85.7031 72.7188V56.1562L78.0781 75.6406H76.1094C76.0156 75.2969 75.7812 74.6146 75.4062 73.5938C75.0417 72.5729 74.7448 71.7552 74.5156 71.1406L68.9062 55.9062V69.3906C68.9062 70.6823 68.9896 71.6667 69.1562 72.3438C69.3333 73.0104 69.6146 73.5 70 73.8125C70.2604 74.0312 70.724 74.2396 71.3906 74.4375C72.0677 74.6354 72.5417 74.75 72.8125 74.7812V76H63.2812V74.7812C63.5417 74.75 63.9635 74.6823 64.5469 74.5781C65.1406 74.4635 65.625 74.2708 66 74C66.4167 73.7083 66.6979 73.2188 66.8438 72.5312C66.9896 71.8333 67.0625 70.8438 67.0625 69.5625V58.5781C67.0625 57.9115 66.9792 57.3594 66.8125 56.9219C66.6458 56.474 66.3958 56.1198 66.0625 55.8594C65.6458 55.5365 65.2188 55.3281 64.7812 55.2344C64.3438 55.1406 63.901 55.0781 63.4531 55.0469V53.8281H73.6562L79.125 68.4688L83.7344 56.5781C83.8906 56.1406 84.0417 55.6198 84.1875 55.0156C84.3333 54.4115 84.4115 54.0156 84.4219 53.8281H94.25V55.0469C93.9167 55.0677 93.5677 55.1094 93.2031 55.1719C92.8385 55.2344 92.4896 55.3177 92.1562 55.4219C91.75 55.5573 91.4792 55.7708 91.3438 56.0625C91.2188 56.3542 91.1562 56.6771 91.1562 57.0312V72.7344C91.1562 73.1094 91.2188 73.4271 91.3438 73.6875C91.4792 73.9375 91.75 74.1562 92.1562 74.3438C92.3646 74.4375 92.7031 74.526 93.1719 74.6094C93.651 74.6927 94.0208 74.75 94.2812 74.7812V76ZM116.219 59.4844H115.031C114.729 58.6406 114.208 57.7865 113.469 56.9219C112.729 56.0573 111.995 55.5469 111.266 55.3906C110.953 55.3177 110.516 55.276 109.953 55.2656C109.401 55.2448 108.943 55.2344 108.578 55.2344H105.359V63.7969H107.641C108.214 63.7969 108.734 63.7292 109.203 63.5938C109.672 63.4583 110.099 63.1979 110.484 62.8125C110.724 62.5729 110.964 62.151 111.203 61.5469C111.453 60.9427 111.615 60.4167 111.688 59.9688H112.875V69.2188H111.688C111.625 68.7812 111.464 68.2344 111.203 67.5781C110.953 66.9115 110.714 66.4531 110.484 66.2031C110.141 65.8281 109.734 65.5729 109.266 65.4375C108.797 65.2917 108.255 65.2188 107.641 65.2188H105.359V71.6094C105.359 72.276 105.406 72.8073 105.5 73.2031C105.604 73.5885 105.792 73.8854 106.062 74.0938C106.323 74.2917 106.677 74.4219 107.125 74.4844C107.583 74.5469 108.203 74.5781 108.984 74.5781C109.349 74.5781 109.786 74.5729 110.297 74.5625C110.807 74.5521 111.255 74.5208 111.641 74.4688C112.078 74.4167 112.484 74.3385 112.859 74.2344C113.245 74.1302 113.531 73.9792 113.719 73.7812C114.219 73.2708 114.781 72.4948 115.406 71.4531C116.031 70.401 116.443 69.6146 116.641 69.0938H117.781L117.359 76H96.5625V74.7812C96.8542 74.7604 97.25 74.7188 97.75 74.6562C98.25 74.5938 98.6042 74.5208 98.8125 74.4375C99.2083 74.2708 99.474 74.0625 99.6094 73.8125C99.7448 73.5521 99.8125 73.224 99.8125 72.8281V57.1875C99.8125 56.8125 99.7552 56.5052 99.6406 56.2656C99.526 56.0156 99.25 55.7917 98.8125 55.5938C98.5417 55.4688 98.1615 55.3542 97.6719 55.25C97.1823 55.1458 96.8125 55.0781 96.5625 55.0469V53.8281H116.219V59.4844ZM152.422 76H143.234C142.984 75.7188 142.661 75.3542 142.266 74.9062C141.87 74.4479 141.531 74.0417 141.25 73.6875C140.146 74.7083 139.042 75.4427 137.938 75.8906C136.844 76.3281 135.677 76.5469 134.438 76.5469C132.49 76.5469 130.891 76.0208 129.641 74.9688C128.401 73.9167 127.781 72.5469 127.781 70.8594C127.781 70.0156 127.891 69.2917 128.109 68.6875C128.339 68.0833 128.703 67.4792 129.203 66.875C129.682 66.2917 130.276 65.7708 130.984 65.3125C131.693 64.8438 132.49 64.4062 133.375 64C132.438 62.8125 131.781 61.8021 131.406 60.9688C131.042 60.1354 130.859 59.2812 130.859 58.4062C130.859 56.9062 131.484 55.6719 132.734 54.7031C133.984 53.724 135.479 53.2344 137.219 53.2344C138.844 53.2344 140.161 53.6198 141.172 54.3906C142.182 55.1615 142.688 56.1823 142.688 57.4531C142.688 58.5573 142.385 59.5469 141.781 60.4219C141.177 61.2865 140.172 62.1354 138.766 62.9688C139.901 64.4271 140.776 65.526 141.391 66.2656C142.016 66.9948 142.844 67.9583 143.875 69.1562C144.531 68.1875 145.021 67.2969 145.344 66.4844C145.677 65.6719 145.844 64.9896 145.844 64.4375C145.844 64.125 145.609 63.875 145.141 63.6875C144.682 63.4896 144.031 63.3073 143.188 63.1406V61.9531H151.922V63.1406C150.974 63.224 150.271 63.3385 149.812 63.4844C149.365 63.6302 148.922 63.9271 148.484 64.375C148.297 64.5625 148.062 64.8958 147.781 65.375C147.51 65.8438 147.25 66.2969 147 66.7344C146.698 67.2656 146.375 67.8229 146.031 68.4062C145.688 68.9896 145.271 69.599 144.781 70.2344C145.74 71.3594 146.526 72.2031 147.141 72.7656C147.766 73.3177 148.276 73.6979 148.672 73.9062C149.12 74.1458 149.688 74.3385 150.375 74.4844C151.062 74.6198 151.745 74.7083 152.422 74.75V76ZM140.312 57.6875C140.312 56.7708 140.089 56.0521 139.641 55.5312C139.203 55 138.63 54.7344 137.922 54.7344C137.245 54.7344 136.698 54.9531 136.281 55.3906C135.865 55.8177 135.656 56.3802 135.656 57.0781C135.656 57.6823 135.849 58.3698 136.234 59.1406C136.62 59.901 137.214 60.8281 138.016 61.9219C138.807 61.3698 139.385 60.7292 139.75 60C140.125 59.2604 140.312 58.4896 140.312 57.6875ZM140.422 72.6719C139.547 71.6198 138.526 70.3958 137.359 69C136.203 67.6042 135.125 66.276 134.125 65.0156C133.573 65.5573 133.172 66.1927 132.922 66.9219C132.682 67.6406 132.562 68.3646 132.562 69.0938C132.562 70.4792 133.005 71.6094 133.891 72.4844C134.776 73.3594 135.901 73.7969 137.266 73.7969C137.901 73.7969 138.453 73.7188 138.922 73.5625C139.391 73.3958 139.891 73.099 140.422 72.6719ZM170.797 76.5938C169.443 76.5938 168.177 76.4271 167 76.0938C165.833 75.7604 164.844 75.3646 164.031 74.9062L162.953 76H161.625L161.422 67.9844H162.766C163.068 68.7448 163.453 69.5469 163.922 70.3906C164.391 71.2344 164.932 71.9896 165.547 72.6562C166.182 73.3542 166.891 73.9219 167.672 74.3594C168.464 74.7969 169.385 75.0156 170.438 75.0156C171.854 75.0156 172.938 74.6719 173.688 73.9844C174.448 73.2865 174.828 72.4115 174.828 71.3594C174.828 70.4948 174.505 69.7708 173.859 69.1875C173.224 68.5938 172.234 68.0833 170.891 67.6562C170.016 67.375 169.208 67.1146 168.469 66.875C167.74 66.6354 167.052 66.3906 166.406 66.1406C164.917 65.5469 163.807 64.6979 163.078 63.5938C162.359 62.4896 162 61.2552 162 59.8906C162 59.026 162.188 58.1979 162.562 57.4062C162.938 56.6042 163.484 55.8854 164.203 55.25C164.891 54.6562 165.771 54.1719 166.844 53.7969C167.917 53.4219 169.083 53.2344 170.344 53.2344C171.573 53.2344 172.724 53.4062 173.797 53.75C174.87 54.0833 175.714 54.4219 176.328 54.7656L177.281 53.8281H178.641L178.766 61.3906H177.422C177.109 60.5781 176.74 59.75 176.312 58.9062C175.896 58.0521 175.453 57.3438 174.984 56.7812C174.474 56.1771 173.885 55.6979 173.219 55.3438C172.552 54.9792 171.771 54.7969 170.875 54.7969C169.75 54.7969 168.828 55.1146 168.109 55.75C167.401 56.3854 167.047 57.1719 167.047 58.1094C167.047 58.9948 167.354 59.7188 167.969 60.2812C168.594 60.8438 169.562 61.3385 170.875 61.7656C171.646 62.026 172.432 62.2865 173.234 62.5469C174.036 62.8073 174.75 63.0573 175.375 63.2969C176.885 63.8802 178.031 64.6875 178.812 65.7188C179.604 66.7396 180 68.0104 180 69.5312C180 70.4896 179.776 71.4167 179.328 72.3125C178.88 73.2083 178.276 73.9531 177.516 74.5469C176.682 75.2031 175.719 75.7083 174.625 76.0625C173.531 76.4167 172.255 76.5938 170.797 76.5938ZM217.844 55.0781C217.521 55.1094 217.198 55.1823 216.875 55.2969C216.552 55.401 216.234 55.5365 215.922 55.7031C215.443 55.974 215.099 56.2708 214.891 56.5938C214.693 56.9167 214.51 57.3073 214.344 57.7656C213.771 59.349 212.885 61.8854 211.688 65.375C210.5 68.8646 209.26 72.4896 207.969 76.25H204.828L198.969 59.7656L193.688 76.25H190.547C188.807 71.1875 187.474 67.2917 186.547 64.5625C185.62 61.8229 184.839 59.526 184.203 57.6719C184.005 57.1094 183.781 56.7031 183.531 56.4531C183.281 56.1927 182.958 55.9323 182.562 55.6719C182.281 55.4844 181.979 55.349 181.656 55.2656C181.344 55.1719 180.979 55.099 180.562 55.0469V53.8281H192.391V55.0156C191.693 55.099 191.172 55.1823 190.828 55.2656C190.484 55.3385 190.214 55.4167 190.016 55.5C189.828 55.5833 189.714 55.6719 189.672 55.7656C189.63 55.8594 189.609 55.9427 189.609 56.0156C189.609 56.1615 189.625 56.3021 189.656 56.4375C189.698 56.5729 189.74 56.7292 189.781 56.9062C190.031 57.7188 190.536 59.2604 191.297 61.5312C192.057 63.8021 192.995 66.6198 194.109 69.9844L199.156 53.8281H202.469L208.328 70.4844C209.193 67.8073 209.88 65.6198 210.391 63.9219C210.911 62.224 211.349 60.7708 211.703 59.5625C211.911 58.8229 212.078 58.2031 212.203 57.7031C212.328 57.2031 212.391 56.7708 212.391 56.4062C212.391 56.1875 212.286 56 212.078 55.8438C211.88 55.6875 211.609 55.5521 211.266 55.4375C210.974 55.3438 210.594 55.2708 210.125 55.2188C209.667 55.1562 209.266 55.1094 208.922 55.0781V53.8281H217.844V55.0781ZM230.547 76H218.25V74.7812C218.531 74.7604 218.943 74.7292 219.484 74.6875C220.036 74.6458 220.417 74.5833 220.625 74.5C221.01 74.3438 221.271 74.1406 221.406 73.8906C221.552 73.6302 221.625 73.3021 221.625 72.9062V57.1875C221.625 56.8333 221.557 56.5208 221.422 56.25C221.286 55.9792 221.021 55.7604 220.625 55.5938C220.375 55.4896 220.005 55.3854 219.516 55.2812C219.026 55.1667 218.604 55.0885 218.25 55.0469V53.8281H230.547V55.0469C230.234 55.0781 229.844 55.125 229.375 55.1875C228.906 55.2396 228.51 55.3177 228.188 55.4219C227.781 55.5573 227.51 55.7708 227.375 56.0625C227.24 56.3438 227.172 56.6667 227.172 57.0312V72.7344C227.172 73.1094 227.24 73.4323 227.375 73.7031C227.521 73.9635 227.792 74.1771 228.188 74.3438C228.406 74.4375 228.766 74.5312 229.266 74.625C229.776 74.7083 230.203 74.7604 230.547 74.7812V76ZM258.094 55.0469C257.802 55.0781 257.385 55.1354 256.844 55.2188C256.302 55.3021 255.812 55.5052 255.375 55.8281C254.99 56.1094 254.714 56.5938 254.547 57.2812C254.391 57.9583 254.312 58.9583 254.312 60.2812V76.125H251.531L237.719 58.9844V69.3906C237.719 70.6823 237.802 71.6667 237.969 72.3438C238.146 73.0104 238.427 73.5 238.812 73.8125C239.094 74.0417 239.542 74.2448 240.156 74.4219C240.771 74.599 241.26 74.7188 241.625 74.7812V76H232.094V74.7812C232.5 74.75 232.964 74.6771 233.484 74.5625C234.016 74.4375 234.458 74.25 234.812 74C235.219 73.6979 235.495 73.2448 235.641 72.6406C235.797 72.026 235.875 71 235.875 69.5625V59.0625C235.875 58.5417 235.792 58.0521 235.625 57.5938C235.469 57.125 235.219 56.724 234.875 56.3906C234.51 56.0365 234.089 55.7604 233.609 55.5625C233.141 55.3542 232.604 55.1927 232 55.0781V53.8281H240.344L252.469 68.8281V60.4375C252.469 59.1042 252.38 58.1146 252.203 57.4688C252.026 56.8125 251.745 56.3281 251.359 56.0156C251.057 55.776 250.609 55.5729 250.016 55.4062C249.422 55.2292 248.943 55.1094 248.578 55.0469V53.8281H258.094V55.0469ZM279.156 59.4844H277.969C277.667 58.6406 277.146 57.7865 276.406 56.9219C275.667 56.0573 274.932 55.5469 274.203 55.3906C273.891 55.3177 273.453 55.276 272.891 55.2656C272.339 55.2448 271.88 55.2344 271.516 55.2344H268.297V63.7969H270.578C271.151 63.7969 271.672 63.7292 272.141 63.5938C272.609 63.4583 273.036 63.1979 273.422 62.8125C273.661 62.5729 273.901 62.151 274.141 61.5469C274.391 60.9427 274.552 60.4167 274.625 59.9688H275.812V69.2188H274.625C274.562 68.7812 274.401 68.2344 274.141 67.5781C273.891 66.9115 273.651 66.4531 273.422 66.2031C273.078 65.8281 272.672 65.5729 272.203 65.4375C271.734 65.2917 271.193 65.2188 270.578 65.2188H268.297V71.6094C268.297 72.276 268.344 72.8073 268.438 73.2031C268.542 73.5885 268.729 73.8854 269 74.0938C269.26 74.2917 269.615 74.4219 270.062 74.4844C270.521 74.5469 271.141 74.5781 271.922 74.5781C272.286 74.5781 272.724 74.5729 273.234 74.5625C273.745 74.5521 274.193 74.5208 274.578 74.4688C275.016 74.4167 275.422 74.3385 275.797 74.2344C276.182 74.1302 276.469 73.9792 276.656 73.7812C277.156 73.2708 277.719 72.4948 278.344 71.4531C278.969 70.401 279.38 69.6146 279.578 69.0938H280.719L280.297 76H259.5V74.7812C259.792 74.7604 260.188 74.7188 260.688 74.6562C261.188 74.5938 261.542 74.5208 261.75 74.4375C262.146 74.2708 262.411 74.0625 262.547 73.8125C262.682 73.5521 262.75 73.224 262.75 72.8281V57.1875C262.75 56.8125 262.693 56.5052 262.578 56.2656C262.464 56.0156 262.188 55.7917 261.75 55.5938C261.479 55.4688 261.099 55.3542 260.609 55.25C260.12 55.1458 259.75 55.0781 259.5 55.0469V53.8281H279.156V59.4844Z" fill="#333333"/>
<path d="M120.715 95.5508L120.557 98H113.654V97.584C113.771 97.5762 113.928 97.5605 114.123 97.5371C114.318 97.5098 114.445 97.4824 114.504 97.4551C114.629 97.3965 114.715 97.3203 114.762 97.2266C114.812 97.1328 114.838 97.0137 114.838 96.8691V90.8926C114.838 90.7637 114.816 90.6504 114.773 90.5527C114.73 90.4512 114.641 90.3691 114.504 90.3066C114.398 90.2559 114.256 90.2109 114.076 90.1719C113.9 90.1328 113.76 90.1094 113.654 90.1016V89.6855H120.088V91.6895H119.648C119.57 91.3926 119.4 91.0781 119.139 90.7461C118.881 90.4102 118.635 90.2266 118.4 90.1953C118.279 90.1797 118.135 90.168 117.967 90.1602C117.799 90.1523 117.607 90.1484 117.393 90.1484H116.086V93.4531H117.023C117.324 93.4531 117.543 93.4258 117.68 93.3711C117.82 93.3125 117.943 93.2168 118.049 93.084C118.135 92.9707 118.207 92.8203 118.266 92.6328C118.328 92.4414 118.369 92.2617 118.389 92.0938H118.828V95.3457H118.389C118.373 95.1582 118.33 94.9609 118.26 94.7539C118.193 94.543 118.123 94.3906 118.049 94.2969C117.928 94.1445 117.789 94.0449 117.633 93.998C117.48 93.9512 117.277 93.9277 117.023 93.9277H116.086V96.4238C116.086 96.6738 116.104 96.8711 116.139 97.0156C116.174 97.1602 116.242 97.2695 116.344 97.3438C116.445 97.418 116.584 97.4668 116.76 97.4902C116.936 97.5098 117.186 97.5195 117.51 97.5195C117.639 97.5195 117.809 97.5195 118.02 97.5195C118.23 97.5195 118.408 97.5117 118.553 97.4961C118.701 97.4805 118.854 97.4531 119.01 97.4141C119.17 97.3711 119.283 97.3145 119.35 97.2441C119.529 97.0566 119.717 96.7734 119.912 96.3945C120.111 96.0117 120.238 95.7305 120.293 95.5508H120.715ZM126.738 94.1855C126.914 94.3809 127.043 94.5957 127.125 94.8301C127.211 95.0605 127.254 95.3301 127.254 95.6387C127.254 96.373 126.982 96.9785 126.439 97.4551C125.896 97.9316 125.223 98.1699 124.418 98.1699C124.047 98.1699 123.676 98.1133 123.305 98C122.934 97.8828 122.613 97.7422 122.344 97.5781L122.092 98.0059H121.623L121.541 95.1582H122.016C122.113 95.5098 122.227 95.8281 122.355 96.1133C122.488 96.3945 122.662 96.6582 122.877 96.9043C123.08 97.1348 123.316 97.3184 123.586 97.4551C123.859 97.5918 124.176 97.6602 124.535 97.6602C124.805 97.6602 125.039 97.625 125.238 97.5547C125.441 97.4844 125.605 97.3848 125.73 97.2559C125.855 97.127 125.947 96.9766 126.006 96.8047C126.068 96.6289 126.1 96.4277 126.1 96.2012C126.1 95.8691 126.006 95.5605 125.818 95.2754C125.631 94.9863 125.352 94.7676 124.98 94.6191C124.727 94.5176 124.436 94.4062 124.107 94.2852C123.779 94.1602 123.496 94.043 123.258 93.9336C122.789 93.7227 122.424 93.4473 122.162 93.1074C121.904 92.7637 121.775 92.3164 121.775 91.7656C121.775 91.4492 121.84 91.1543 121.969 90.8809C122.098 90.6074 122.281 90.3633 122.52 90.1484C122.746 89.9453 123.014 89.7871 123.322 89.6738C123.631 89.5566 123.953 89.498 124.289 89.498C124.672 89.498 125.014 89.5566 125.314 89.6738C125.619 89.791 125.896 89.9277 126.146 90.084L126.387 89.6855H126.855L126.902 92.4453H126.428C126.342 92.1289 126.244 91.8262 126.135 91.5371C126.029 91.248 125.891 90.9863 125.719 90.752C125.551 90.5254 125.346 90.3457 125.104 90.2129C124.861 90.0762 124.564 90.0078 124.213 90.0078C123.842 90.0078 123.525 90.127 123.264 90.3652C123.002 90.6035 122.871 90.8945 122.871 91.2383C122.871 91.5977 122.955 91.8965 123.123 92.1348C123.291 92.3691 123.535 92.5625 123.855 92.7148C124.141 92.8516 124.42 92.9707 124.693 93.0723C124.971 93.1699 125.238 93.2754 125.496 93.3887C125.73 93.4902 125.955 93.6055 126.17 93.7344C126.389 93.8633 126.578 94.0137 126.738 94.1855ZM135.059 91.9414H134.654C134.619 91.8008 134.555 91.6348 134.461 91.4434C134.371 91.248 134.27 91.0645 134.156 90.8926C134.039 90.7129 133.91 90.5566 133.77 90.4238C133.633 90.2871 133.5 90.209 133.371 90.1895C133.25 90.1738 133.098 90.1621 132.914 90.1543C132.73 90.1465 132.561 90.1426 132.404 90.1426H132.064V96.793C132.064 96.9219 132.092 97.041 132.146 97.1504C132.201 97.2559 132.297 97.3379 132.434 97.3965C132.504 97.4238 132.65 97.4609 132.873 97.5078C133.1 97.5547 133.275 97.5801 133.4 97.584V98H129.475V97.584C129.584 97.5762 129.75 97.5605 129.973 97.5371C130.199 97.5137 130.355 97.4844 130.441 97.4492C130.57 97.3984 130.664 97.3262 130.723 97.2324C130.785 97.1348 130.816 97.0059 130.816 96.8457V90.1426H130.477C130.355 90.1426 130.205 90.1465 130.025 90.1543C129.846 90.1582 129.674 90.1699 129.51 90.1895C129.381 90.2051 129.246 90.2832 129.105 90.4238C128.969 90.5605 128.842 90.7168 128.725 90.8926C128.607 91.0684 128.504 91.2559 128.414 91.4551C128.324 91.6504 128.262 91.8125 128.227 91.9414H127.816V89.6855H135.059V91.9414ZM137.59 97.3262C137.59 97.5449 137.51 97.7324 137.35 97.8887C137.193 98.041 137.006 98.1172 136.787 98.1172C136.568 98.1172 136.379 98.041 136.219 97.8887C136.062 97.7324 135.984 97.5449 135.984 97.3262C135.984 97.1074 136.062 96.9199 136.219 96.7637C136.379 96.6035 136.568 96.5234 136.787 96.5234C137.006 96.5234 137.193 96.6035 137.35 96.7637C137.51 96.9199 137.59 97.1074 137.59 97.3262ZM147.422 98H141.932V97.2031C142.037 97.082 142.184 96.9473 142.371 96.7988C142.559 96.6465 142.781 96.4824 143.039 96.3066C143.195 96.2012 143.383 96.0859 143.602 95.9609C143.82 95.8359 144.068 95.6992 144.346 95.5508C144.654 95.3867 144.891 95.2422 145.055 95.1172C145.223 94.9922 145.375 94.8379 145.512 94.6543C145.602 94.5332 145.674 94.3828 145.729 94.2031C145.783 94.0195 145.811 93.7598 145.811 93.4238C145.811 92.9355 145.68 92.5781 145.418 92.3516C145.156 92.1211 144.82 92.0059 144.41 92.0059C144.156 92.0059 143.916 92.0566 143.689 92.1582C143.463 92.2559 143.293 92.3926 143.18 92.5684C143.207 92.6934 143.24 92.8418 143.279 93.0137C143.322 93.1855 143.344 93.3535 143.344 93.5176C143.344 93.666 143.281 93.7988 143.156 93.916C143.035 94.0293 142.854 94.0859 142.611 94.0859C142.416 94.0859 142.266 94.0195 142.16 93.8867C142.055 93.75 142.002 93.5684 142.002 93.3418C142.002 93.1309 142.061 92.9199 142.178 92.709C142.295 92.4941 142.463 92.2969 142.682 92.1172C142.896 91.9414 143.162 91.7988 143.479 91.6895C143.795 91.5801 144.137 91.5254 144.504 91.5254C145.305 91.5254 145.939 91.7051 146.408 92.0645C146.881 92.4199 147.117 92.8965 147.117 93.4941C147.117 93.7793 147.074 94.0391 146.988 94.2734C146.906 94.5078 146.771 94.7148 146.584 94.8945C146.377 95.0938 146.135 95.2656 145.857 95.4102C145.58 95.5508 145.156 95.748 144.586 96.002C144.246 96.1543 143.93 96.3145 143.637 96.4824C143.344 96.6465 143.104 96.8066 142.916 96.9629H147.422V98ZM154.008 92.5273C154.258 92.8281 154.443 93.1816 154.564 93.5879C154.689 93.9902 154.752 94.4121 154.752 94.8535C154.752 95.3848 154.676 95.8613 154.523 96.2832C154.371 96.7012 154.162 97.0488 153.896 97.3262C153.623 97.6113 153.299 97.8262 152.924 97.9707C152.549 98.1152 152.131 98.1875 151.67 98.1875C151.166 98.1875 150.717 98.1035 150.322 97.9355C149.928 97.7676 149.607 97.5371 149.361 97.2441C149.104 96.9395 148.91 96.584 148.781 96.1777C148.656 95.7676 148.594 95.3262 148.594 94.8535C148.594 94.3887 148.654 93.9609 148.775 93.5703C148.9 93.1797 149.094 92.8262 149.355 92.5098C149.605 92.2051 149.928 91.9648 150.322 91.7891C150.717 91.6133 151.168 91.5254 151.676 91.5254C152.211 91.5254 152.67 91.6152 153.053 91.7949C153.436 91.9746 153.754 92.2188 154.008 92.5273ZM153.457 94.8535C153.457 93.9238 153.297 93.2031 152.977 92.6914C152.66 92.1797 152.229 91.9238 151.682 91.9238C151.127 91.9238 150.689 92.1797 150.369 92.6914C150.049 93.2031 149.889 93.9238 149.889 94.8535C149.889 95.7363 150.041 96.4473 150.346 96.9863C150.654 97.5215 151.096 97.7891 151.67 97.7891C152.244 97.7891 152.686 97.5215 152.994 96.9863C153.303 96.4473 153.457 95.7363 153.457 94.8535ZM161.496 98H156.006V97.2031C156.111 97.082 156.258 96.9473 156.445 96.7988C156.633 96.6465 156.855 96.4824 157.113 96.3066C157.27 96.2012 157.457 96.0859 157.676 95.9609C157.895 95.8359 158.143 95.6992 158.42 95.5508C158.729 95.3867 158.965 95.2422 159.129 95.1172C159.297 94.9922 159.449 94.8379 159.586 94.6543C159.676 94.5332 159.748 94.3828 159.803 94.2031C159.857 94.0195 159.885 93.7598 159.885 93.4238C159.885 92.9355 159.754 92.5781 159.492 92.3516C159.23 92.1211 158.895 92.0059 158.484 92.0059C158.23 92.0059 157.99 92.0566 157.764 92.1582C157.537 92.2559 157.367 92.3926 157.254 92.5684C157.281 92.6934 157.314 92.8418 157.354 93.0137C157.396 93.1855 157.418 93.3535 157.418 93.5176C157.418 93.666 157.355 93.7988 157.23 93.916C157.109 94.0293 156.928 94.0859 156.686 94.0859C156.49 94.0859 156.34 94.0195 156.234 93.8867C156.129 93.75 156.076 93.5684 156.076 93.3418C156.076 93.1309 156.135 92.9199 156.252 92.709C156.369 92.4941 156.537 92.2969 156.756 92.1172C156.971 91.9414 157.236 91.7988 157.553 91.6895C157.869 91.5801 158.211 91.5254 158.578 91.5254C159.379 91.5254 160.014 91.7051 160.482 92.0645C160.955 92.4199 161.191 92.8965 161.191 93.4941C161.191 93.7793 161.148 94.0391 161.062 94.2734C160.98 94.5078 160.846 94.7148 160.658 94.8945C160.451 95.0938 160.209 95.2656 159.932 95.4102C159.654 95.5508 159.23 95.748 158.66 96.002C158.32 96.1543 158.004 96.3145 157.711 96.4824C157.418 96.6465 157.178 96.8066 156.99 96.9629H161.496V98ZM168.416 97.4727H167.227V100.139H166.102V97.4727H162.352V96.5703L166.459 91.5605H167.227V96.7051H168.416V97.4727ZM166.102 96.7051V92.8672L162.938 96.7051H166.102Z" fill="#666666"/>
</svg>
