<svg width="295" height="120" viewBox="0 0 295 120" fill="none" xmlns="http://www.w3.org/2000/svg">
<path d="M60 120C93.1371 120 120 93.1371 120 60C120 26.8629 93.1371 0 60 0C26.8629 0 0 26.8629 0 60C0 93.1371 26.8629 120 60 120Z" fill="#8B0000"/>
<path d="M30 30L80 80L90 70L40 20L30 30Z" fill="white"/>
<path d="M89.1421 50.8579L75 65L80.6569 70.6569L94.799 56.5147L89.1421 50.8579Z" fill="white"/>
<path d="M156.188 33.3848C156.188 34.3965 155.987 35.2943 155.586 36.0781C155.194 36.8529 154.647 37.4954 153.945 38.0059C153.253 38.5163 152.492 38.89 151.662 39.127C150.833 39.3639 149.953 39.4824 149.023 39.4824H146.85V45.3613C146.85 45.6803 146.9 45.9629 147 46.209C147.109 46.446 147.328 46.6283 147.656 46.7559C147.82 46.8197 148.107 46.8789 148.518 46.9336C148.937 46.9883 149.32 47.0202 149.666 47.0293V48H141.34V47.0293C141.559 47.0111 141.873 46.9792 142.283 46.9336C142.702 46.888 142.994 46.8288 143.158 46.7559C143.432 46.6374 143.628 46.4642 143.746 46.2363C143.874 46.0085 143.938 45.7168 143.938 45.3613V31.3613C143.938 31.0423 143.892 30.7552 143.801 30.5C143.71 30.2448 143.495 30.0534 143.158 29.9258C142.812 29.8073 142.465 29.7253 142.119 29.6797C141.782 29.625 141.49 29.5885 141.244 29.5703V28.5996H150.104C151.908 28.5996 153.371 29.0371 154.492 29.9121C155.622 30.778 156.188 31.9355 156.188 33.3848ZM152.031 36.6934C152.341 36.2559 152.546 35.8047 152.646 35.3398C152.747 34.8659 152.797 34.4421 152.797 34.0684C152.797 33.5488 152.733 33.0202 152.605 32.4824C152.487 31.9447 152.277 31.4753 151.977 31.0742C151.658 30.6458 151.238 30.3132 150.719 30.0762C150.199 29.8392 149.552 29.7207 148.777 29.7207H146.85V38.293H148.244C149.229 38.293 150.026 38.1426 150.637 37.8418C151.257 37.5319 151.721 37.1491 152.031 36.6934ZM177.324 48H172.102C170.944 46.1862 169.896 44.6185 168.957 43.2969C168.027 41.9753 167.016 40.6126 165.922 39.209H163.939V45.3613C163.939 45.6803 163.99 45.9629 164.09 46.209C164.19 46.446 164.404 46.6283 164.732 46.7559C164.896 46.8197 165.184 46.8789 165.594 46.9336C166.004 46.9883 166.35 47.0202 166.633 47.0293V48H158.43V47.0293C158.648 47.0111 158.963 46.9792 159.373 46.9336C159.792 46.888 160.084 46.8288 160.248 46.7559C160.521 46.6374 160.717 46.4642 160.836 46.2363C160.964 46.0085 161.027 45.7168 161.027 45.3613V31.334C161.027 31.015 160.982 30.7324 160.891 30.4863C160.799 30.2402 160.585 30.0534 160.248 29.9258C160.02 29.8438 159.724 29.7708 159.359 29.707C158.995 29.6341 158.685 29.5885 158.43 29.5703V28.5996H167.385C168.205 28.5996 168.975 28.6862 169.695 28.8594C170.415 29.0234 171.067 29.2923 171.65 29.666C172.215 30.0306 172.667 30.5091 173.004 31.1016C173.341 31.6849 173.51 32.3913 173.51 33.2207C173.51 33.9681 173.396 34.6289 173.168 35.2031C172.94 35.7773 172.603 36.2741 172.156 36.6934C171.746 37.0853 171.254 37.4271 170.68 37.7188C170.105 38.0013 169.472 38.2428 168.779 38.4434C169.736 39.7103 170.529 40.7767 171.158 41.6426C171.796 42.5085 172.576 43.5612 173.496 44.8008C173.897 45.3477 174.257 45.7533 174.576 46.0176C174.904 46.2728 175.228 46.4824 175.547 46.6465C175.784 46.765 176.08 46.8561 176.436 46.9199C176.791 46.9837 177.087 47.0202 177.324 47.0293V48ZM170.133 33.5352C170.133 32.3594 169.796 31.4297 169.121 30.7461C168.447 30.0534 167.494 29.707 166.264 29.707H163.939V38.0332H165.73C166.988 38.0332 168.036 37.6322 168.875 36.8301C169.714 36.0189 170.133 34.9206 170.133 33.5352ZM186.566 48H177.83V47.0293C178.076 47.0111 178.432 46.9837 178.896 46.9473C179.361 46.9108 179.689 46.8561 179.881 46.7832C180.182 46.6647 180.4 46.5052 180.537 46.3047C180.674 46.0951 180.742 45.8079 180.742 45.4434V31.3887C180.742 31.0697 180.692 30.8053 180.592 30.5957C180.492 30.377 180.255 30.1947 179.881 30.0488C179.607 29.9395 179.261 29.8392 178.842 29.748C178.432 29.6478 178.094 29.5885 177.83 29.5703V28.5996H186.566V29.5703C186.284 29.5794 185.947 29.6159 185.555 29.6797C185.163 29.7344 184.821 29.8073 184.529 29.8984C184.183 30.0078 183.951 30.1855 183.832 30.4316C183.714 30.6777 183.654 30.9512 183.654 31.252V45.293C183.654 45.5938 183.718 45.8626 183.846 46.0996C183.982 46.3275 184.21 46.5098 184.529 46.6465C184.721 46.7194 185.031 46.8014 185.459 46.8926C185.896 46.9746 186.266 47.0202 186.566 47.0293V48ZM212.352 48H203.779V47.0293C204.089 47.0202 204.486 46.9883 204.969 46.9336C205.461 46.8789 205.798 46.8014 205.98 46.7012C206.263 46.528 206.468 46.332 206.596 46.1133C206.732 45.8854 206.801 45.6029 206.801 45.2656V31.1562H206.596L199.979 47.6855H199.295L192.992 30.8145H192.814V42.3945C192.814 43.5156 192.883 44.3678 193.02 44.9512C193.165 45.5345 193.384 45.9538 193.676 46.209C193.876 46.4004 194.291 46.5827 194.92 46.7559C195.549 46.929 195.959 47.0202 196.15 47.0293V48H188.316V47.0293C188.727 46.9928 189.155 46.9245 189.602 46.8242C190.057 46.724 190.408 46.5736 190.654 46.373C190.973 46.1178 191.192 45.7259 191.311 45.1973C191.429 44.6686 191.488 43.7845 191.488 42.5449V32.6191C191.488 32.0449 191.42 31.5755 191.283 31.2109C191.146 30.8464 190.951 30.5501 190.695 30.3223C190.413 30.0762 190.066 29.8939 189.656 29.7754C189.246 29.6569 188.84 29.5885 188.439 29.5703V28.5996H195.057L200.607 43.1465L205.352 30.9785C205.525 30.5319 205.671 30.0671 205.789 29.584C205.917 29.0918 205.985 28.7637 205.994 28.5996H212.324V29.5703C212.069 29.5794 211.741 29.6204 211.34 29.6934C210.948 29.7663 210.661 29.8346 210.479 29.8984C210.169 30.0078 209.959 30.1901 209.85 30.4453C209.74 30.7005 209.686 30.9785 209.686 31.2793V45.2656C209.686 45.5846 209.74 45.8535 209.85 46.0723C209.959 46.291 210.169 46.4824 210.479 46.6465C210.643 46.7376 210.934 46.8242 211.354 46.9062C211.773 46.9792 212.105 47.0202 212.352 47.0293V48ZM231.287 42.2852L230.918 48H214.812V47.0293C215.086 47.0111 215.451 46.9746 215.906 46.9199C216.362 46.8561 216.658 46.7923 216.795 46.7285C217.087 46.5918 217.287 46.4141 217.396 46.1953C217.515 45.9766 217.574 45.6986 217.574 45.3613V31.416C217.574 31.1152 217.524 30.8509 217.424 30.623C217.324 30.3861 217.114 30.1947 216.795 30.0488C216.549 29.9303 216.216 29.8255 215.797 29.7344C215.387 29.6432 215.059 29.5885 214.812 29.5703V28.5996H229.824V33.2754H228.799C228.617 32.5827 228.22 31.849 227.609 31.0742C227.008 30.2904 226.434 29.862 225.887 29.7891C225.604 29.7526 225.267 29.7253 224.875 29.707C224.483 29.6888 224.036 29.6797 223.535 29.6797H220.486V37.3906H222.674C223.376 37.3906 223.886 37.3268 224.205 37.1992C224.533 37.0625 224.82 36.8392 225.066 36.5293C225.267 36.265 225.436 35.9141 225.572 35.4766C225.718 35.0299 225.814 34.6107 225.859 34.2188H226.885V41.8066H225.859C225.823 41.3691 225.723 40.9089 225.559 40.4258C225.404 39.9336 225.24 39.5781 225.066 39.3594C224.784 39.0039 224.46 38.7715 224.096 38.6621C223.74 38.5527 223.266 38.498 222.674 38.498H220.486V44.3223C220.486 44.9056 220.527 45.3659 220.609 45.7031C220.691 46.0404 220.851 46.2956 221.088 46.4688C221.325 46.6419 221.648 46.7559 222.059 46.8105C222.469 46.8561 223.052 46.8789 223.809 46.8789C224.109 46.8789 224.506 46.8789 224.998 46.8789C225.49 46.8789 225.905 46.8607 226.242 46.8242C226.589 46.7878 226.944 46.724 227.309 46.6328C227.682 46.5326 227.947 46.4004 228.102 46.2363C228.521 45.7988 228.958 45.138 229.414 44.2539C229.879 43.3607 230.175 42.7044 230.303 42.2852H231.287ZM258.562 36.6797C258.025 36.7253 257.482 36.8346 256.936 37.0078C256.389 37.1719 255.969 37.4362 255.678 37.8008C255.486 38.0195 255.29 38.3431 255.09 38.7715C254.898 39.1999 254.666 39.7057 254.393 40.2891C254.119 40.8724 253.841 41.4466 253.559 42.0117C253.276 42.5768 252.911 43.1419 252.465 43.707C252.829 44.1445 253.276 44.623 253.805 45.1426C254.333 45.653 254.785 46.0221 255.158 46.25C255.523 46.4596 256.038 46.6374 256.703 46.7832C257.378 46.929 257.929 47.0111 258.357 47.0293V48H252.725L250.688 45.6758C250.387 46.0039 250.04 46.3457 249.648 46.7012C249.266 47.0475 248.86 47.3483 248.432 47.6035C247.958 47.877 247.479 48.0911 246.996 48.2461C246.522 48.401 245.962 48.4785 245.314 48.4785C244.64 48.4785 243.97 48.3783 243.305 48.1777C242.639 47.9863 242.033 47.6764 241.486 47.248C240.958 46.8288 240.529 46.291 240.201 45.6348C239.873 44.9785 239.709 44.1947 239.709 43.2832C239.709 42.153 240.005 41.1322 240.598 40.2207C241.199 39.3001 242.316 38.3249 243.947 37.2949C243.209 36.3197 242.635 35.4766 242.225 34.7656C241.814 34.0547 241.609 33.2572 241.609 32.373C241.609 31.7441 241.732 31.1699 241.979 30.6504C242.234 30.1217 242.589 29.6615 243.045 29.2695C243.464 28.9141 243.975 28.6361 244.576 28.4355C245.178 28.235 245.788 28.1348 246.408 28.1348C247.137 28.1348 247.775 28.2533 248.322 28.4902C248.878 28.7181 249.329 29.0189 249.676 29.3926C249.995 29.7389 250.236 30.14 250.4 30.5957C250.574 31.0514 250.66 31.5072 250.66 31.9629C250.66 33.0566 250.318 34 249.635 34.793C248.96 35.5768 248.026 36.2832 246.832 36.9121C247.689 38.0697 248.527 39.127 249.348 40.084C250.168 41.0319 250.956 41.9661 251.713 42.8867C252.324 41.9115 252.798 40.9954 253.135 40.1387C253.472 39.2728 253.641 38.5117 253.641 37.8555C253.641 37.5638 253.426 37.3359 252.998 37.1719C252.579 36.9987 251.995 36.8346 251.248 36.6797V35.709H258.562V36.6797ZM248.896 32.2363C248.896 31.3066 248.691 30.5957 248.281 30.1035C247.871 29.6022 247.288 29.3516 246.531 29.3516C246.103 29.3516 245.747 29.4382 245.465 29.6113C245.182 29.7845 244.941 30.0033 244.74 30.2676C244.558 30.5228 244.426 30.7962 244.344 31.0879C244.262 31.3796 244.221 31.6393 244.221 31.8672C244.221 32.4961 244.385 33.1341 244.713 33.7812C245.041 34.4193 245.551 35.194 246.244 36.1055C247.183 35.5768 247.857 35.0072 248.268 34.3965C248.687 33.7767 248.896 33.0566 248.896 32.2363ZM249.963 44.8828C249.115 43.8073 248.158 42.6315 247.092 41.3555C246.035 40.0703 245.187 38.9857 244.549 38.1016C243.811 38.612 243.286 39.2135 242.977 39.9062C242.676 40.5898 242.525 41.3737 242.525 42.2578C242.525 43.4974 242.876 44.5273 243.578 45.3477C244.289 46.1589 245.237 46.5645 246.422 46.5645C247.087 46.5645 247.739 46.4232 248.377 46.1406C249.024 45.849 249.553 45.4297 249.963 44.8828Z" fill="#8B0000"/>
<path d="M156.188 63.3848C156.188 64.3965 155.987 65.2943 155.586 66.0781C155.194 66.8529 154.647 67.4954 153.945 68.0059C153.253 68.5163 152.492 68.89 151.662 69.127C150.833 69.3639 149.953 69.4824 149.023 69.4824H146.85V75.3613C146.85 75.6803 146.9 75.9629 147 76.209C147.109 76.446 147.328 76.6283 147.656 76.7559C147.82 76.8197 148.107 76.8789 148.518 76.9336C148.937 76.9883 149.32 77.0202 149.666 77.0293V78H141.34V77.0293C141.559 77.0111 141.873 76.9792 142.283 76.9336C142.702 76.888 142.994 76.8288 143.158 76.7559C143.432 76.6374 143.628 76.4642 143.746 76.2363C143.874 76.0085 143.938 75.7168 143.938 75.3613V61.3613C143.938 61.0423 143.892 60.7552 143.801 60.5C143.71 60.2448 143.495 60.0534 143.158 59.9258C142.812 59.8073 142.465 59.7253 142.119 59.6797C141.782 59.625 141.49 59.5885 141.244 59.5703V58.5996H150.104C151.908 58.5996 153.371 59.0371 154.492 59.9121C155.622 60.778 156.188 61.9355 156.188 63.3848ZM152.031 66.6934C152.341 66.2559 152.546 65.8047 152.646 65.3398C152.747 64.8659 152.797 64.4421 152.797 64.0684C152.797 63.5488 152.733 63.0202 152.605 62.4824C152.487 61.9447 152.277 61.4753 151.977 61.0742C151.658 60.6458 151.238 60.3132 150.719 60.0762C150.199 59.8392 149.552 59.7207 148.777 59.7207H146.85V68.293H148.244C149.229 68.293 150.026 68.1426 150.637 67.8418C151.257 67.5319 151.721 67.1491 152.031 66.6934ZM177.324 78H172.102C170.944 76.1862 169.896 74.6185 168.957 73.2969C168.027 71.9753 167.016 70.6126 165.922 69.209H163.939V75.3613C163.939 75.6803 163.99 75.9629 164.09 76.209C164.19 76.446 164.404 76.6283 164.732 76.7559C164.896 76.8197 165.184 76.8789 165.594 76.9336C166.004 76.9883 166.35 77.0202 166.633 77.0293V78H158.43V77.0293C158.648 77.0111 158.963 76.9792 159.373 76.9336C159.792 76.888 160.084 76.8288 160.248 76.7559C160.521 76.6374 160.717 76.4642 160.836 76.2363C160.964 76.0085 161.027 75.7168 161.027 75.3613V61.334C161.027 61.015 160.982 60.7324 160.891 60.4863C160.799 60.2402 160.585 60.0534 160.248 59.9258C160.02 59.8438 159.724 59.7708 159.359 59.707C158.995 59.6341 158.685 59.5885 158.43 59.5703V58.5996H167.385C168.205 58.5996 168.975 58.6862 169.695 58.8594C170.415 59.0234 171.067 59.2923 171.65 59.666C172.215 60.0306 172.667 60.5091 173.004 61.1016C173.341 61.6849 173.51 62.3913 173.51 63.2207C173.51 63.9681 173.396 64.6289 173.168 65.2031C172.94 65.7773 172.603 66.2741 172.156 66.6934C171.746 67.0853 171.254 67.4271 170.68 67.7188C170.105 68.0013 169.472 68.2428 168.779 68.4434C169.736 69.7103 170.529 70.7767 171.158 71.6426C171.796 72.5085 172.576 73.5612 173.496 74.8008C173.897 75.3477 174.257 75.7533 174.576 76.0176C174.904 76.2728 175.228 76.4824 175.547 76.6465C175.784 76.765 176.08 76.8561 176.436 76.9199C176.791 76.9837 177.087 77.0202 177.324 77.0293V78ZM170.133 63.5352C170.133 62.3594 169.796 61.4297 169.121 60.7461C168.447 60.0534 167.494 59.707 166.264 59.707H163.939V68.0332H165.73C166.988 68.0332 168.036 67.6322 168.875 66.8301C169.714 66.0189 170.133 64.9206 170.133 63.5352ZM193.758 60.8965C194.615 61.7897 195.285 62.8698 195.768 64.1367C196.251 65.3945 196.492 66.7891 196.492 68.3203C196.492 69.8607 196.246 71.2598 195.754 72.5176C195.262 73.7754 194.578 74.8464 193.703 75.7305C192.855 76.6055 191.871 77.2799 190.75 77.7539C189.629 78.2279 188.435 78.4648 187.168 78.4648C185.819 78.4648 184.57 78.2142 183.422 77.7129C182.283 77.2025 181.303 76.4961 180.482 75.5938C179.662 74.7096 179.015 73.6387 178.541 72.3809C178.076 71.1139 177.844 69.7604 177.844 68.3203C177.844 66.7435 178.09 65.3398 178.582 64.1094C179.074 62.8698 179.753 61.7988 180.619 60.8965C181.476 60.0033 182.469 59.3197 183.6 58.8457C184.739 58.3717 185.928 58.1348 187.168 58.1348C188.453 58.1348 189.665 58.3763 190.805 58.8594C191.944 59.3424 192.928 60.0215 193.758 60.8965ZM191.721 74.6504C192.231 73.821 192.6 72.8822 192.828 71.834C193.065 70.7858 193.184 69.6146 193.184 68.3203C193.184 66.9896 193.051 65.7682 192.787 64.6562C192.532 63.5443 192.154 62.5964 191.652 61.8125C191.151 61.0378 190.522 60.4362 189.766 60.0078C189.009 59.5703 188.143 59.3516 187.168 59.3516C186.074 59.3516 185.145 59.6022 184.379 60.1035C183.613 60.6048 182.989 61.2747 182.506 62.1133C182.05 62.9154 181.708 63.8542 181.48 64.9297C181.262 66.0052 181.152 67.1354 181.152 68.3203C181.152 69.6328 181.271 70.8177 181.508 71.875C181.745 72.9323 182.118 73.8711 182.629 74.6914C183.121 75.4935 183.741 76.1224 184.488 76.5781C185.236 77.0247 186.129 77.248 187.168 77.248C188.143 77.248 189.023 77.0202 189.807 76.5645C190.59 76.1087 191.229 75.4707 191.721 74.6504ZM213.773 63.3848C213.773 64.3965 213.573 65.2943 213.172 66.0781C212.78 66.8529 212.233 67.4954 211.531 68.0059C210.839 68.5163 210.077 68.89 209.248 69.127C208.419 69.3639 207.539 69.4824 206.609 69.4824H204.436V75.3613C204.436 75.6803 204.486 75.9629 204.586 76.209C204.695 76.446 204.914 76.6283 205.242 76.7559C205.406 76.8197 205.693 76.8789 206.104 76.9336C206.523 76.9883 206.906 77.0202 207.252 77.0293V78H198.926V77.0293C199.145 77.0111 199.459 76.9792 199.869 76.9336C200.288 76.888 200.58 76.8288 200.744 76.7559C201.018 76.6374 201.214 76.4642 201.332 76.2363C201.46 76.0085 201.523 75.7168 201.523 75.3613V61.3613C201.523 61.0423 201.478 60.7552 201.387 60.5C201.296 60.2448 201.081 60.0534 200.744 59.9258C200.398 59.8073 200.051 59.7253 199.705 59.6797C199.368 59.625 199.076 59.5885 198.83 59.5703V58.5996H207.689C209.494 58.5996 210.957 59.0371 212.078 59.9121C213.208 60.778 213.773 61.9355 213.773 63.3848ZM209.617 66.6934C209.927 66.2559 210.132 65.8047 210.232 65.3398C210.333 64.8659 210.383 64.4421 210.383 64.0684C210.383 63.5488 210.319 63.0202 210.191 62.4824C210.073 61.9447 209.863 61.4753 209.562 61.0742C209.243 60.6458 208.824 60.3132 208.305 60.0762C207.785 59.8392 207.138 59.7207 206.363 59.7207H204.436V68.293H205.83C206.814 68.293 207.612 68.1426 208.223 67.8418C208.842 67.5319 209.307 67.1491 209.617 66.6934ZM232.326 72.2852L231.957 78H215.852V77.0293C216.125 77.0111 216.49 76.9746 216.945 76.9199C217.401 76.8561 217.697 76.7923 217.834 76.7285C218.126 76.5918 218.326 76.4141 218.436 76.1953C218.554 75.9766 218.613 75.6986 218.613 75.3613V61.416C218.613 61.1152 218.563 60.8509 218.463 60.623C218.363 60.3861 218.153 60.1947 217.834 60.0488C217.588 59.9303 217.255 59.8255 216.836 59.7344C216.426 59.6432 216.098 59.5885 215.852 59.5703V58.5996H230.863V63.2754H229.838C229.656 62.5827 229.259 61.849 228.648 61.0742C228.047 60.2904 227.473 59.862 226.926 59.7891C226.643 59.7526 226.306 59.7253 225.914 59.707C225.522 59.6888 225.076 59.6797 224.574 59.6797H221.525V67.3906H223.713C224.415 67.3906 224.925 67.3268 225.244 67.1992C225.572 67.0625 225.859 66.8392 226.105 66.5293C226.306 66.265 226.475 65.9141 226.611 65.4766C226.757 65.0299 226.853 64.6107 226.898 64.2188H227.924V71.8066H226.898C226.862 71.3691 226.762 70.9089 226.598 70.4258C226.443 69.9336 226.279 69.5781 226.105 69.3594C225.823 69.0039 225.499 68.7715 225.135 68.6621C224.779 68.5527 224.305 68.498 223.713 68.498H221.525V74.3223C221.525 74.9056 221.566 75.3659 221.648 75.7031C221.73 76.0404 221.89 76.2956 222.127 76.4688C222.364 76.6419 222.688 76.7559 223.098 76.8105C223.508 76.8561 224.091 76.8789 224.848 76.8789C225.148 76.8789 225.545 76.8789 226.037 76.8789C226.529 76.8789 226.944 76.8607 227.281 76.8242C227.628 76.7878 227.983 76.724 228.348 76.6328C228.721 76.5326 228.986 76.4004 229.141 76.2363C229.56 75.7988 229.997 75.138 230.453 74.2539C230.918 73.3607 231.214 72.7044 231.342 72.2852H232.326ZM253.203 78H247.98C246.823 76.1862 245.775 74.6185 244.836 73.2969C243.906 71.9753 242.895 70.6126 241.801 69.209H239.818V75.3613C239.818 75.6803 239.868 75.9629 239.969 76.209C240.069 76.446 240.283 76.6283 240.611 76.7559C240.775 76.8197 241.062 76.8789 241.473 76.9336C241.883 76.9883 242.229 77.0202 242.512 77.0293V78H234.309V77.0293C234.527 77.0111 234.842 76.9792 235.252 76.9336C235.671 76.888 235.963 76.8288 236.127 76.7559C236.4 76.6374 236.596 76.4642 236.715 76.2363C236.842 76.0085 236.906 75.7168 236.906 75.3613V61.334C236.906 61.015 236.861 60.7324 236.77 60.4863C236.678 60.2402 236.464 60.0534 236.127 59.9258C235.899 59.8438 235.603 59.7708 235.238 59.707C234.874 59.6341 234.564 59.5885 234.309 59.5703V58.5996H243.264C244.084 58.5996 244.854 58.6862 245.574 58.8594C246.294 59.0234 246.946 59.2923 247.529 59.666C248.094 60.0306 248.546 60.5091 248.883 61.1016C249.22 61.6849 249.389 62.3913 249.389 63.2207C249.389 63.9681 249.275 64.6289 249.047 65.2031C248.819 65.7773 248.482 66.2741 248.035 66.6934C247.625 67.0853 247.133 67.4271 246.559 67.7188C245.984 68.0013 245.351 68.2428 244.658 68.4434C245.615 69.7103 246.408 70.7767 247.037 71.6426C247.675 72.5085 248.454 73.5612 249.375 74.8008C249.776 75.3477 250.136 75.7533 250.455 76.0176C250.783 76.2728 251.107 76.4824 251.426 76.6465C251.663 76.765 251.959 76.8561 252.314 76.9199C252.67 76.9837 252.966 77.0202 253.203 77.0293V78ZM246.012 63.5352C246.012 62.3594 245.674 61.4297 245 60.7461C244.326 60.0534 243.373 59.707 242.143 59.707H239.818V68.0332H241.609C242.867 68.0332 243.915 67.6322 244.754 66.8301C245.592 66.0189 246.012 64.9206 246.012 63.5352Z" fill="#8B0000"/>
<path d="M141.107 99V88.9785H148.354V90.1611H142.434V93.2305H147.978V94.4062H142.434V97.8174H148.586V99H141.107ZM149.967 95.7803L151.218 95.6709C151.277 96.1722 151.414 96.5846 151.628 96.9082C151.847 97.2272 152.184 97.487 152.64 97.6875C153.095 97.8835 153.608 97.9814 154.178 97.9814C154.684 97.9814 155.13 97.9062 155.518 97.7559C155.905 97.6055 156.192 97.4004 156.379 97.1406C156.57 96.8763 156.666 96.5892 156.666 96.2793C156.666 95.9648 156.575 95.6914 156.393 95.459C156.21 95.222 155.91 95.0238 155.49 94.8643C155.221 94.7594 154.627 94.5977 153.706 94.3789C152.785 94.1556 152.141 93.946 151.771 93.75C151.293 93.4993 150.935 93.1895 150.698 92.8203C150.466 92.4466 150.35 92.0296 150.35 91.5693C150.35 91.0635 150.493 90.5918 150.78 90.1543C151.067 89.7122 151.487 89.3773 152.038 89.1494C152.59 88.9215 153.202 88.8076 153.877 88.8076C154.62 88.8076 155.274 88.9284 155.839 89.1699C156.409 89.4069 156.846 89.7578 157.151 90.2227C157.457 90.6875 157.621 91.2139 157.644 91.8018L156.372 91.8975C156.304 91.264 156.071 90.7855 155.675 90.4619C155.283 90.1383 154.702 89.9766 153.932 89.9766C153.13 89.9766 152.544 90.1247 152.175 90.4209C151.81 90.7126 151.628 91.0658 151.628 91.4805C151.628 91.8405 151.758 92.1367 152.018 92.3691C152.273 92.6016 152.938 92.8408 154.014 93.0869C155.094 93.3285 155.834 93.5404 156.235 93.7227C156.819 93.9915 157.249 94.3333 157.527 94.748C157.805 95.1582 157.944 95.6322 157.944 96.1699C157.944 96.7031 157.792 97.2067 157.486 97.6807C157.181 98.1501 156.741 98.5169 156.167 98.7812C155.597 99.041 154.955 99.1709 154.239 99.1709C153.332 99.1709 152.571 99.0387 151.956 98.7744C151.345 98.5101 150.865 98.1136 150.514 97.585C150.167 97.0518 149.985 96.4502 149.967 95.7803ZM162.306 99V90.1611H159.004V88.9785H166.947V90.1611H163.632V99H162.306ZM166.947 99V97.5986H168.349V99H166.947ZM180.517 97.8174V99H173.893C173.883 98.7038 173.931 98.4189 174.036 98.1455C174.205 97.6943 174.474 97.25 174.843 96.8125C175.216 96.375 175.754 95.8691 176.456 95.2949C177.545 94.4017 178.281 93.6953 178.664 93.1758C179.047 92.6517 179.238 92.1572 179.238 91.6924C179.238 91.2048 179.063 90.7946 178.712 90.4619C178.366 90.1247 177.912 89.9561 177.352 89.9561C176.759 89.9561 176.285 90.1338 175.93 90.4893C175.574 90.8447 175.394 91.3369 175.39 91.9658L174.125 91.8359C174.212 90.8926 174.537 90.1748 175.103 89.6826C175.668 89.1859 176.426 88.9375 177.379 88.9375C178.34 88.9375 179.102 89.2041 179.662 89.7373C180.223 90.2705 180.503 90.9313 180.503 91.7197C180.503 92.1208 180.421 92.515 180.257 92.9023C180.093 93.2897 179.819 93.6976 179.437 94.126C179.058 94.5544 178.427 95.1423 177.543 95.8896C176.805 96.5094 176.331 96.931 176.121 97.1543C175.911 97.373 175.738 97.5941 175.602 97.8174H180.517ZM181.843 94.0576C181.843 92.8727 181.964 91.9202 182.205 91.2002C182.451 90.4756 182.813 89.9173 183.292 89.5254C183.775 89.1335 184.381 88.9375 185.11 88.9375C185.648 88.9375 186.12 89.0469 186.525 89.2656C186.931 89.4798 187.266 89.792 187.53 90.2021C187.795 90.6077 188.002 91.1045 188.152 91.6924C188.303 92.2757 188.378 93.0641 188.378 94.0576C188.378 95.2334 188.257 96.1836 188.016 96.9082C187.774 97.6283 187.412 98.1865 186.929 98.583C186.45 98.9749 185.844 99.1709 185.11 99.1709C184.144 99.1709 183.385 98.8245 182.834 98.1318C182.173 97.2979 181.843 95.9398 181.843 94.0576ZM183.107 94.0576C183.107 95.7028 183.299 96.7988 183.682 97.3457C184.069 97.888 184.545 98.1592 185.11 98.1592C185.675 98.1592 186.149 97.8857 186.532 97.3389C186.92 96.792 187.113 95.6982 187.113 94.0576C187.113 92.4079 186.92 91.3118 186.532 90.7695C186.149 90.2272 185.671 89.9561 185.097 89.9561C184.532 89.9561 184.08 90.1953 183.743 90.6738C183.319 91.2845 183.107 92.4124 183.107 94.0576ZM196.103 97.8174V99H189.479C189.469 98.7038 189.517 98.4189 189.622 98.1455C189.791 97.6943 190.06 97.25 190.429 96.8125C190.802 96.375 191.34 95.8691 192.042 95.2949C193.131 94.4017 193.867 93.6953 194.25 93.1758C194.633 92.6517 194.824 92.1572 194.824 91.6924C194.824 91.2048 194.649 90.7946 194.298 90.4619C193.951 90.1247 193.498 89.9561 192.938 89.9561C192.345 89.9561 191.871 90.1338 191.516 90.4893C191.16 90.8447 190.98 91.3369 190.976 91.9658L189.711 91.8359C189.798 90.8926 190.123 90.1748 190.688 89.6826C191.254 89.1859 192.012 88.9375 192.965 88.9375C193.926 88.9375 194.688 89.2041 195.248 89.7373C195.809 90.2705 196.089 90.9313 196.089 91.7197C196.089 92.1208 196.007 92.515 195.843 92.9023C195.679 93.2897 195.405 93.6976 195.022 94.126C194.644 94.5544 194.013 95.1423 193.129 95.8896C192.391 96.5094 191.917 96.931 191.707 97.1543C191.497 97.373 191.324 97.5941 191.188 97.8174H196.103ZM197.429 94.0576C197.429 92.8727 197.549 91.9202 197.791 91.2002C198.037 90.4756 198.399 89.9173 198.878 89.5254C199.361 89.1335 199.967 88.9375 200.696 88.9375C201.234 88.9375 201.706 89.0469 202.111 89.2656C202.517 89.4798 202.852 89.792 203.116 90.2021C203.381 90.6077 203.588 91.1045 203.738 91.6924C203.889 92.2757 203.964 93.0641 203.964 94.0576C203.964 95.2334 203.843 96.1836 203.602 96.9082C203.36 97.6283 202.998 98.1865 202.515 98.583C202.036 98.9749 201.43 99.1709 200.696 99.1709C199.73 99.1709 198.971 98.8245 198.42 98.1318C197.759 97.2979 197.429 95.9398 197.429 94.0576ZM198.693 94.0576C198.693 95.7028 198.885 96.7988 199.268 97.3457C199.655 97.888 200.131 98.1592 200.696 98.1592C201.261 98.1592 201.735 97.8857 202.118 97.3389C202.506 96.792 202.699 95.6982 202.699 94.0576C202.699 92.4079 202.506 91.3118 202.118 90.7695C201.735 90.2272 201.257 89.9561 200.683 89.9561C200.118 89.9561 199.666 90.1953 199.329 90.6738C198.905 91.2845 198.693 92.4124 198.693 94.0576ZM209.282 94.0918C209.282 93.6133 209.451 93.2054 209.788 92.8682C210.13 92.5309 210.538 92.3623 211.012 92.3623C211.49 92.3623 211.898 92.5309 212.235 92.8682C212.577 93.2054 212.748 93.6133 212.748 94.0918C212.748 94.5703 212.577 94.9805 212.235 95.3223C211.898 95.6595 211.49 95.8281 211.012 95.8281C210.538 95.8281 210.13 95.6595 209.788 95.3223C209.451 94.9805 209.282 94.5703 209.282 94.0918ZM218.367 99V88.9785H222.127C222.893 88.9785 223.506 89.0811 223.966 89.2861C224.431 89.4867 224.793 89.7988 225.053 90.2227C225.317 90.6419 225.449 91.0817 225.449 91.542C225.449 91.9704 225.333 92.3737 225.101 92.752C224.868 93.1302 224.517 93.4355 224.048 93.668C224.654 93.8457 225.119 94.1488 225.442 94.5771C225.771 95.0055 225.935 95.5114 225.935 96.0947C225.935 96.5641 225.834 97.0016 225.634 97.4072C225.438 97.8083 225.194 98.1182 224.902 98.3369C224.611 98.5557 224.244 98.722 223.802 98.8359C223.364 98.9453 222.826 99 222.188 99H218.367ZM219.693 93.1895H221.86C222.448 93.1895 222.87 93.1507 223.125 93.0732C223.462 92.973 223.715 92.8066 223.884 92.5742C224.057 92.3418 224.144 92.0501 224.144 91.6992C224.144 91.3665 224.064 91.0749 223.904 90.8242C223.745 90.569 223.517 90.3958 223.221 90.3047C222.924 90.209 222.416 90.1611 221.696 90.1611H219.693V93.1895ZM219.693 97.8174H222.188C222.617 97.8174 222.918 97.8014 223.091 97.7695C223.396 97.7148 223.651 97.6237 223.856 97.4961C224.062 97.3685 224.23 97.1839 224.362 96.9424C224.494 96.6963 224.561 96.4137 224.561 96.0947C224.561 95.721 224.465 95.3975 224.273 95.124C224.082 94.846 223.815 94.6523 223.474 94.543C223.136 94.429 222.649 94.3721 222.011 94.3721H219.693V97.8174ZM234.336 88.9785H235.662V94.7686C235.662 95.7757 235.548 96.5755 235.32 97.168C235.092 97.7604 234.68 98.2435 234.083 98.6172C233.491 98.9863 232.711 99.1709 231.745 99.1709C230.806 99.1709 230.038 99.0091 229.441 98.6855C228.844 98.362 228.418 97.8949 228.163 97.2842C227.908 96.6689 227.78 95.8304 227.78 94.7686V88.9785H229.106V94.7617C229.106 95.6322 229.186 96.2747 229.346 96.6895C229.51 97.0996 229.788 97.4163 230.18 97.6396C230.576 97.863 231.059 97.9746 231.629 97.9746C232.604 97.9746 233.299 97.7536 233.714 97.3115C234.129 96.8695 234.336 96.0195 234.336 94.7617V88.9785ZM240.427 99V90.1611H237.125V88.9785H245.068V90.1611H241.753V99H240.427ZM253.586 95.4863L254.912 95.8213C254.634 96.9105 254.133 97.7422 253.408 98.3164C252.688 98.8861 251.806 99.1709 250.763 99.1709C249.683 99.1709 248.803 98.9521 248.124 98.5146C247.45 98.0726 246.935 97.4346 246.579 96.6006C246.228 95.7666 246.053 94.8711 246.053 93.9141C246.053 92.8704 246.251 91.9613 246.647 91.1865C247.049 90.4072 247.616 89.8171 248.35 89.416C249.088 89.0104 249.899 88.8076 250.783 88.8076C251.786 88.8076 252.629 89.0628 253.312 89.5732C253.996 90.0837 254.472 90.8014 254.741 91.7266L253.436 92.0342C253.203 91.305 252.866 90.7741 252.424 90.4414C251.982 90.1087 251.426 89.9424 250.756 89.9424C249.986 89.9424 249.341 90.127 248.821 90.4961C248.306 90.8652 247.944 91.362 247.734 91.9863C247.525 92.6061 247.42 93.2464 247.42 93.9072C247.42 94.7594 247.543 95.5046 247.789 96.1426C248.04 96.776 248.427 97.25 248.951 97.5645C249.475 97.8789 250.043 98.0361 250.653 98.0361C251.396 98.0361 252.025 97.8219 252.54 97.3936C253.055 96.9652 253.404 96.3294 253.586 95.4863ZM256.594 99V88.9785H257.92V93.0938H263.129V88.9785H264.455V99H263.129V94.2764H257.92V99H256.594ZM266.697 99V88.9785H273.943V90.1611H268.023V93.2305H273.567V94.4062H268.023V97.8174H274.176V99H266.697ZM276.028 99V88.9785H280.472C281.365 88.9785 282.044 89.0697 282.509 89.252C282.974 89.4297 283.345 89.7464 283.623 90.2021C283.901 90.6579 284.04 91.1615 284.04 91.7129C284.04 92.4238 283.81 93.0231 283.35 93.5107C282.889 93.9984 282.178 94.3083 281.217 94.4404C281.568 94.609 281.834 94.7754 282.017 94.9395C282.404 95.2949 282.771 95.7393 283.117 96.2725L284.86 99H283.192L281.866 96.915C281.479 96.3135 281.16 95.8532 280.909 95.5342C280.659 95.2152 280.433 94.9919 280.232 94.8643C280.036 94.7367 279.836 94.6478 279.631 94.5977C279.48 94.5658 279.234 94.5498 278.893 94.5498H277.354V99H276.028ZM277.354 93.4014H280.205C280.811 93.4014 281.285 93.3398 281.627 93.2168C281.969 93.0892 282.229 92.8887 282.406 92.6152C282.584 92.3372 282.673 92.0365 282.673 91.7129C282.673 91.2389 282.5 90.8493 282.153 90.5439C281.812 90.2386 281.269 90.0859 280.526 90.0859H277.354V93.4014ZM288.688 99V94.7549L284.826 88.9785H286.439L288.415 92C288.78 92.5651 289.119 93.1302 289.434 93.6953C289.734 93.1712 290.099 92.5811 290.527 91.9248L292.469 88.9785H294.014L290.015 94.7549V99H288.688Z" fill="#666666"/>
</svg>
