<svg width="312" height="120" viewBox="0 0 312 120" fill="none" xmlns="http://www.w3.org/2000/svg">
<path d="M60 120C93.1371 120 120 93.1371 120 60C120 26.8629 93.1371 0 60 0C26.8629 0 0 26.8629 0 60C0 93.1371 26.8629 120 60 120Z" fill="#4A7C59"/>
<path d="M30.0001 80C20.0001 70 40.0001 50 50.0001 55H70.0001C80.0001 50 100 70 90.0001 80H30.0001Z" fill="white"/>
<path d="M34.9999 55C29.9999 45 49.9999 45 44.9999 55H34.9999Z" fill="white"/>
<path d="M74.9999 55C69.9999 45 89.9999 45 84.9999 55H74.9999Z" fill="white"/>
<path d="M10 80C23.3333 60 36.6667 60 50 80" stroke="#88B04B" stroke-width="3"/>
<path d="M70 80C83.3333 60 96.6667 60 110 80" stroke="#88B04B" stroke-width="3"/>
<path d="M142.328 53V30.0938H149.75C152.562 30.0938 154.396 30.2083 155.25 30.4375C156.562 30.7812 157.661 31.5312 158.547 32.6875C159.432 33.8333 159.875 35.3177 159.875 37.1406C159.875 38.5469 159.62 39.7292 159.109 40.6875C158.599 41.6458 157.948 42.401 157.156 42.9531C156.375 43.4948 155.578 43.8542 154.766 44.0312C153.661 44.25 152.062 44.3594 149.969 44.3594H146.953V53H142.328ZM146.953 33.9688V40.4688H149.484C151.307 40.4688 152.526 40.349 153.141 40.1094C153.755 39.8698 154.234 39.4948 154.578 38.9844C154.932 38.474 155.109 37.8802 155.109 37.2031C155.109 36.3698 154.865 35.6823 154.375 35.1406C153.885 34.599 153.266 34.2604 152.516 34.125C151.964 34.0208 150.854 33.9688 149.188 33.9688H146.953ZM163.641 30.0938H168.266V42.5C168.266 44.4688 168.323 45.7448 168.438 46.3281C168.635 47.2656 169.104 48.0208 169.844 48.5938C170.594 49.1562 171.615 49.4375 172.906 49.4375C174.219 49.4375 175.208 49.1719 175.875 48.6406C176.542 48.099 176.943 47.4375 177.078 46.6562C177.214 45.875 177.281 44.5781 177.281 42.7656V30.0938H181.906V42.125C181.906 44.875 181.781 46.8177 181.531 47.9531C181.281 49.0885 180.818 50.0469 180.141 50.8281C179.474 51.6094 178.578 52.2344 177.453 52.7031C176.328 53.1615 174.859 53.3906 173.047 53.3906C170.859 53.3906 169.198 53.1406 168.062 52.6406C166.938 52.1302 166.047 51.474 165.391 50.6719C164.734 49.8594 164.302 49.0104 164.094 48.125C163.792 46.8125 163.641 44.875 163.641 42.3125V30.0938ZM186.812 53V30.0938H196.547C198.995 30.0938 200.771 30.3021 201.875 30.7188C202.99 31.125 203.88 31.8542 204.547 32.9062C205.214 33.9583 205.547 35.1615 205.547 36.5156C205.547 38.2344 205.042 39.6562 204.031 40.7812C203.021 41.8958 201.51 42.599 199.5 42.8906C200.5 43.474 201.323 44.1146 201.969 44.8125C202.625 45.5104 203.505 46.75 204.609 48.5312L207.406 53H201.875L198.531 48.0156C197.344 46.2344 196.531 45.1146 196.094 44.6562C195.656 44.1875 195.193 43.8698 194.703 43.7031C194.214 43.526 193.438 43.4375 192.375 43.4375H191.438V53H186.812ZM191.438 39.7812H194.859C197.078 39.7812 198.464 39.6875 199.016 39.5C199.568 39.3125 200 38.9896 200.312 38.5312C200.625 38.0729 200.781 37.5 200.781 36.8125C200.781 36.0417 200.573 35.4219 200.156 34.9531C199.75 34.474 199.172 34.1719 198.422 34.0469C198.047 33.9948 196.922 33.9688 195.047 33.9688H191.438V39.7812ZM209.922 53V30.0938H226.906V33.9688H214.547V39.0469H226.047V42.9062H214.547V49.1406H227.344V53H209.922Z" fill="#4A7C59"/>
<path d="M142.328 83V60.0938H149.75C152.562 60.0938 154.396 60.2083 155.25 60.4375C156.562 60.7812 157.661 61.5312 158.547 62.6875C159.432 63.8333 159.875 65.3177 159.875 67.1406C159.875 68.5469 159.62 69.7292 159.109 70.6875C158.599 71.6458 157.948 72.401 157.156 72.9531C156.375 73.4948 155.578 73.8542 154.766 74.0312C153.661 74.25 152.062 74.3594 149.969 74.3594H146.953V83H142.328ZM146.953 63.9688V70.4688H149.484C151.307 70.4688 152.526 70.349 153.141 70.1094C153.755 69.8698 154.234 69.4948 154.578 68.9844C154.932 68.474 155.109 67.8802 155.109 67.2031C155.109 66.3698 154.865 65.6823 154.375 65.1406C153.885 64.599 153.266 64.2604 152.516 64.125C151.964 64.0208 150.854 63.9688 149.188 63.9688H146.953ZM181.953 83H176.922L174.922 77.7969H165.766L163.875 83H158.969L167.891 60.0938H172.781L181.953 83ZM173.438 73.9375L170.281 65.4375L167.188 73.9375H173.438ZM183.25 75.5469L187.75 75.1094C188.021 76.6198 188.568 77.7292 189.391 78.4375C190.224 79.1458 191.344 79.5 192.75 79.5C194.24 79.5 195.359 79.1875 196.109 78.5625C196.87 77.9271 197.25 77.1875 197.25 76.3438C197.25 75.8021 197.089 75.3438 196.766 74.9688C196.453 74.5833 195.901 74.25 195.109 73.9688C194.568 73.7812 193.333 73.4479 191.406 72.9688C188.927 72.3542 187.188 71.599 186.188 70.7031C184.781 69.4427 184.078 67.9062 184.078 66.0938C184.078 64.9271 184.406 63.8385 185.062 62.8281C185.729 61.8073 186.682 61.0312 187.922 60.5C189.172 59.9688 190.677 59.7031 192.438 59.7031C195.312 59.7031 197.474 60.3333 198.922 61.5938C200.38 62.8542 201.146 64.5365 201.219 66.6406L196.594 66.8438C196.396 65.6667 195.969 64.8229 195.312 64.3125C194.667 63.7917 193.693 63.5312 192.391 63.5312C191.047 63.5312 189.995 63.8073 189.234 64.3594C188.745 64.7135 188.5 65.1875 188.5 65.7812C188.5 66.3229 188.729 66.7865 189.188 67.1719C189.771 67.6615 191.188 68.1719 193.438 68.7031C195.688 69.2344 197.349 69.7865 198.422 70.3594C199.505 70.9219 200.349 71.6979 200.953 72.6875C201.568 73.6667 201.875 74.8802 201.875 76.3281C201.875 77.6406 201.51 78.8698 200.781 80.0156C200.052 81.1615 199.021 82.0156 197.688 82.5781C196.354 83.1302 194.693 83.4062 192.703 83.4062C189.807 83.4062 187.583 82.7396 186.031 81.4062C184.479 80.0625 183.552 78.1094 183.25 75.5469ZM210.922 83V63.9688H204.125V60.0938H222.328V63.9688H215.547V83H210.922ZM225.297 60.0938H229.922V72.5C229.922 74.4688 229.979 75.7448 230.094 76.3281C230.292 77.2656 230.76 78.0208 231.5 78.5938C232.25 79.1562 233.271 79.4375 234.562 79.4375C235.875 79.4375 236.865 79.1719 237.531 78.6406C238.198 78.099 238.599 77.4375 238.734 76.6562C238.87 75.875 238.938 74.5781 238.938 72.7656V60.0938H243.562V72.125C243.562 74.875 243.438 76.8177 243.188 77.9531C242.938 79.0885 242.474 80.0469 241.797 80.8281C241.13 81.6094 240.234 82.2344 239.109 82.7031C237.984 83.1615 236.516 83.3906 234.703 83.3906C232.516 83.3906 230.854 83.1406 229.719 82.6406C228.594 82.1302 227.703 81.474 227.047 80.6719C226.391 79.8594 225.958 79.0104 225.75 78.125C225.448 76.8125 225.297 74.875 225.297 72.3125V60.0938ZM248.469 83V60.0938H258.203C260.651 60.0938 262.427 60.3021 263.531 60.7188C264.646 61.125 265.536 61.8542 266.203 62.9062C266.87 63.9583 267.203 65.1615 267.203 66.5156C267.203 68.2344 266.698 69.6562 265.688 70.7812C264.677 71.8958 263.167 72.599 261.156 72.8906C262.156 73.474 262.979 74.1146 263.625 74.8125C264.281 75.5104 265.161 76.75 266.266 78.5312L269.062 83H263.531L260.188 78.0156C259 76.2344 258.188 75.1146 257.75 74.6562C257.312 74.1875 256.849 73.8698 256.359 73.7031C255.87 73.526 255.094 73.4375 254.031 73.4375H253.094V83H248.469ZM253.094 69.7812H256.516C258.734 69.7812 260.12 69.6875 260.672 69.5C261.224 69.3125 261.656 68.9896 261.969 68.5312C262.281 68.0729 262.438 67.5 262.438 66.8125C262.438 66.0417 262.229 65.4219 261.812 64.9531C261.406 64.474 260.828 64.1719 260.078 64.0469C259.703 63.9948 258.578 63.9688 256.703 63.9688H253.094V69.7812ZM271.578 83V60.0938H288.562V63.9688H276.203V69.0469H287.703V72.9062H276.203V79.1406H289V83H271.578ZM291.75 75.5469L296.25 75.1094C296.521 76.6198 297.068 77.7292 297.891 78.4375C298.724 79.1458 299.844 79.5 301.25 79.5C302.74 79.5 303.859 79.1875 304.609 78.5625C305.37 77.9271 305.75 77.1875 305.75 76.3438C305.75 75.8021 305.589 75.3438 305.266 74.9688C304.953 74.5833 304.401 74.25 303.609 73.9688C303.068 73.7812 301.833 73.4479 299.906 72.9688C297.427 72.3542 295.688 71.599 294.688 70.7031C293.281 69.4427 292.578 67.9062 292.578 66.0938C292.578 64.9271 292.906 63.8385 293.562 62.8281C294.229 61.8073 295.182 61.0312 296.422 60.5C297.672 59.9688 299.177 59.7031 300.938 59.7031C303.812 59.7031 305.974 60.3333 307.422 61.5938C308.88 62.8542 309.646 64.5365 309.719 66.6406L305.094 66.8438C304.896 65.6667 304.469 64.8229 303.812 64.3125C303.167 63.7917 302.193 63.5312 300.891 63.5312C299.547 63.5312 298.495 63.8073 297.734 64.3594C297.245 64.7135 297 65.1875 297 65.7812C297 66.3229 297.229 66.7865 297.688 67.1719C298.271 67.6615 299.688 68.1719 301.938 68.7031C304.188 69.2344 305.849 69.7865 306.922 70.3594C308.005 70.9219 308.849 71.6979 309.453 72.6875C310.068 73.6667 310.375 74.8802 310.375 76.3281C310.375 77.6406 310.01 78.8698 309.281 80.0156C308.552 81.1615 307.521 82.0156 306.188 82.5781C304.854 83.1302 303.193 83.4062 301.203 83.4062C298.307 83.4062 296.083 82.7396 294.531 81.4062C292.979 80.0625 292.052 78.1094 291.75 75.5469Z" fill="#88B04B"/>
<path d="M140.677 99.1191C140.677 97.4557 141.123 96.1546 142.017 95.2158C142.91 94.2725 144.063 93.8008 145.476 93.8008C146.401 93.8008 147.235 94.0218 147.978 94.4639C148.72 94.9059 149.285 95.5234 149.673 96.3164C150.065 97.1048 150.261 98.0003 150.261 99.0029C150.261 100.019 150.056 100.928 149.646 101.73C149.235 102.533 148.654 103.141 147.902 103.556C147.15 103.966 146.339 104.171 145.469 104.171C144.525 104.171 143.682 103.943 142.939 103.487C142.197 103.032 141.634 102.41 141.251 101.621C140.868 100.833 140.677 99.9987 140.677 99.1191ZM142.044 99.1396C142.044 100.347 142.368 101.3 143.015 101.997C143.666 102.69 144.482 103.036 145.462 103.036C146.46 103.036 147.28 102.685 147.923 101.983C148.57 101.282 148.894 100.286 148.894 98.9961C148.894 98.1803 148.755 97.4694 148.477 96.8633C148.203 96.2526 147.8 95.7809 147.267 95.4482C146.738 95.111 146.143 94.9424 145.482 94.9424C144.544 94.9424 143.735 95.266 143.056 95.9131C142.381 96.5557 142.044 97.6312 142.044 99.1396ZM151.997 104V93.9785H156.44C157.334 93.9785 158.013 94.0697 158.478 94.252C158.942 94.4297 159.314 94.7464 159.592 95.2021C159.87 95.6579 160.009 96.1615 160.009 96.7129C160.009 97.4238 159.779 98.0231 159.318 98.5107C158.858 98.9984 158.147 99.3083 157.186 99.4404C157.536 99.609 157.803 99.7754 157.985 99.9395C158.373 100.295 158.74 100.739 159.086 101.272L160.829 104H159.161L157.835 101.915C157.448 101.313 157.129 100.853 156.878 100.534C156.627 100.215 156.402 99.9919 156.201 99.8643C156.005 99.7367 155.805 99.6478 155.6 99.5977C155.449 99.5658 155.203 99.5498 154.861 99.5498H153.323V104H151.997ZM153.323 98.4014H156.174C156.78 98.4014 157.254 98.3398 157.596 98.2168C157.938 98.0892 158.197 97.8887 158.375 97.6152C158.553 97.3372 158.642 97.0365 158.642 96.7129C158.642 96.2389 158.468 95.8493 158.122 95.5439C157.78 95.2386 157.238 95.0859 156.495 95.0859H153.323V98.4014ZM166.783 100.069V98.8936L171.028 98.8867V102.605C170.377 103.125 169.704 103.517 169.012 103.781C168.319 104.041 167.608 104.171 166.879 104.171C165.895 104.171 164.999 103.961 164.192 103.542C163.39 103.118 162.784 102.507 162.374 101.71C161.964 100.912 161.759 100.021 161.759 99.0371C161.759 98.0618 161.962 97.1527 162.367 96.3096C162.777 95.4619 163.365 94.833 164.131 94.4229C164.896 94.0127 165.778 93.8076 166.776 93.8076C167.501 93.8076 168.155 93.9261 168.738 94.1631C169.326 94.3955 169.786 94.7214 170.119 95.1406C170.452 95.5599 170.705 96.1068 170.878 96.7812L169.682 97.1094C169.531 96.599 169.344 96.1979 169.121 95.9062C168.898 95.6146 168.579 95.3822 168.164 95.209C167.749 95.0312 167.289 94.9424 166.783 94.9424C166.177 94.9424 165.653 95.0358 165.211 95.2227C164.769 95.4049 164.411 95.6465 164.138 95.9473C163.869 96.248 163.659 96.5785 163.509 96.9385C163.254 97.5583 163.126 98.2305 163.126 98.9551C163.126 99.8483 163.279 100.596 163.584 101.197C163.894 101.799 164.343 102.245 164.931 102.537C165.519 102.829 166.143 102.975 166.804 102.975C167.378 102.975 167.938 102.865 168.485 102.646C169.032 102.423 169.447 102.186 169.729 101.936V100.069H166.783ZM171.89 104L175.738 93.9785H177.167L181.269 104H179.758L178.589 100.965H174.398L173.298 104H171.89ZM174.781 99.8848H178.179L177.133 97.1094C176.814 96.2663 176.577 95.5736 176.422 95.0312C176.294 95.6738 176.114 96.3118 175.882 96.9453L174.781 99.8848ZM182.314 104V93.9785H183.675L188.938 101.847V93.9785H190.21V104H188.85L183.586 96.125V104H182.314ZM192.671 104V93.9785H193.997V104H192.671ZM203.492 100.486L204.818 100.821C204.54 101.91 204.039 102.742 203.314 103.316C202.594 103.886 201.713 104.171 200.669 104.171C199.589 104.171 198.709 103.952 198.03 103.515C197.356 103.073 196.841 102.435 196.485 101.601C196.134 100.767 195.959 99.8711 195.959 98.9141C195.959 97.8704 196.157 96.9613 196.554 96.1865C196.955 95.4072 197.522 94.8171 198.256 94.416C198.994 94.0104 199.805 93.8076 200.689 93.8076C201.692 93.8076 202.535 94.0628 203.219 94.5732C203.902 95.0837 204.379 95.8014 204.647 96.7266L203.342 97.0342C203.109 96.305 202.772 95.7741 202.33 95.4414C201.888 95.1087 201.332 94.9424 200.662 94.9424C199.892 94.9424 199.247 95.127 198.728 95.4961C198.213 95.8652 197.85 96.362 197.641 96.9863C197.431 97.6061 197.326 98.2464 197.326 98.9072C197.326 99.7594 197.449 100.505 197.695 101.143C197.946 101.776 198.333 102.25 198.857 102.564C199.382 102.879 199.949 103.036 200.56 103.036C201.302 103.036 201.931 102.822 202.446 102.394C202.961 101.965 203.31 101.329 203.492 100.486ZM210.424 104V93.9785H217.185V95.1611H211.75V98.2646H216.453V99.4473H211.75V104H210.424ZM217.034 104L220.883 93.9785H222.312L226.413 104H224.902L223.733 100.965H219.543L218.442 104H217.034ZM219.926 99.8848H223.323L222.277 97.1094C221.958 96.2663 221.721 95.5736 221.566 95.0312C221.439 95.6738 221.259 96.3118 221.026 96.9453L219.926 99.8848ZM227.493 104V93.9785H231.937C232.83 93.9785 233.509 94.0697 233.974 94.252C234.438 94.4297 234.81 94.7464 235.088 95.2021C235.366 95.6579 235.505 96.1615 235.505 96.7129C235.505 97.4238 235.275 98.0231 234.814 98.5107C234.354 98.9984 233.643 99.3083 232.682 99.4404C233.033 99.609 233.299 99.7754 233.481 99.9395C233.869 100.295 234.236 100.739 234.582 101.272L236.325 104H234.657L233.331 101.915C232.944 101.313 232.625 100.853 232.374 100.534C232.123 100.215 231.898 99.9919 231.697 99.8643C231.501 99.7367 231.301 99.6478 231.096 99.5977C230.945 99.5658 230.699 99.5498 230.357 99.5498H228.819V104H227.493ZM228.819 98.4014H231.67C232.276 98.4014 232.75 98.3398 233.092 98.2168C233.434 98.0892 233.693 97.8887 233.871 97.6152C234.049 97.3372 234.138 97.0365 234.138 96.7129C234.138 96.2389 233.965 95.8493 233.618 95.5439C233.276 95.2386 232.734 95.0859 231.991 95.0859H228.819V98.4014ZM237.549 104V93.9785H239.545L241.917 101.074C242.136 101.735 242.295 102.229 242.396 102.558C242.509 102.193 242.687 101.658 242.929 100.951L245.328 93.9785H247.112V104H245.834V95.6123L242.922 104H241.726L238.827 95.4688V104H237.549Z" fill="#666666"/>
</svg>
