<svg width="320" height="94" viewBox="0 0 320 94" fill="none" xmlns="http://www.w3.org/2000/svg">
<path d="M4 77.923C14 67.923 24 47.923 14 27.923C4 7.92305 24 -2.07695 44 7.92305C64 17.923 54 37.923 44 47.923C34 57.923 44 67.923 54 77.923" stroke="#34495E" stroke-width="8" stroke-linecap="round" stroke-linejoin="round"/>
<path d="M19 42.923C29 32.923 49 32.923 59 42.923C69 52.923 69 72.923 59 82.923C49 92.923 29 92.923 19 82.923C9 72.923 9 52.923 19 42.923Z" stroke="#C0392B" stroke-width="6" stroke-linecap="round"/>
<path d="M77.5312 28.6719C78.6667 28.6719 79.5885 28.5469 80.2969 28.2969C81.6406 27.8177 82.3125 26.9271 82.3125 25.625C82.3125 24.8646 81.9792 24.276 81.3125 23.8594C80.6458 23.4531 79.599 23.0938 78.1719 22.7812L75.7344 22.2344C73.3385 21.6927 71.6823 21.1042 70.7656 20.4688C69.2135 19.4062 68.4375 17.7448 68.4375 15.4844C68.4375 13.4219 69.1875 11.7083 70.6875 10.3438C72.1875 8.97917 74.3906 8.29688 77.2969 8.29688C79.724 8.29688 81.7917 8.94271 83.5 10.2344C85.2188 11.5156 86.1198 13.3802 86.2031 15.8281H81.5781C81.4948 14.4427 80.8906 13.4583 79.7656 12.875C79.0156 12.4896 78.0833 12.2969 76.9688 12.2969C75.7292 12.2969 74.7396 12.5469 74 13.0469C73.2604 13.5469 72.8906 14.2448 72.8906 15.1406C72.8906 15.9635 73.2552 16.5781 73.9844 16.9844C74.4531 17.2552 75.4531 17.5729 76.9844 17.9375L80.9531 18.8906C82.6927 19.3073 84.0052 19.8646 84.8906 20.5625C86.2656 21.6458 86.9531 23.2135 86.9531 25.2656C86.9531 27.3698 86.1458 29.1198 84.5312 30.5156C82.9271 31.901 80.6562 32.5938 77.7188 32.5938C74.7188 32.5938 72.3594 31.9115 70.6406 30.5469C68.9219 29.1719 68.0625 27.2865 68.0625 24.8906H72.6562C72.8021 25.9427 73.0885 26.7292 73.5156 27.25C74.2969 28.1979 75.6354 28.6719 77.5312 28.6719ZM94.9219 32H90.4375V8.96875H97.4375L101.625 27.0781L105.781 8.96875H112.703V32H108.219V16.4219C108.219 15.974 108.224 15.349 108.234 14.5469C108.245 13.7344 108.25 13.1094 108.25 12.6719L103.891 32H99.2188L94.8906 12.6719C94.8906 13.1094 94.8958 13.7344 94.9062 14.5469C94.9167 15.349 94.9219 15.974 94.9219 16.4219V32ZM127.359 32.6406C124.068 32.6406 121.552 31.7448 119.812 29.9531C117.479 27.7552 116.312 24.5885 116.312 20.4531C116.312 16.2344 117.479 13.0677 119.812 10.9531C121.552 9.16146 124.068 8.26562 127.359 8.26562C130.651 8.26562 133.167 9.16146 134.906 10.9531C137.229 13.0677 138.391 16.2344 138.391 20.4531C138.391 24.5885 137.229 27.7552 134.906 29.9531C133.167 31.7448 130.651 32.6406 127.359 32.6406ZM131.906 26.4531C133.021 25.0469 133.578 23.0469 133.578 20.4531C133.578 17.8698 133.016 15.875 131.891 14.4688C130.776 13.0521 129.266 12.3438 127.359 12.3438C125.453 12.3438 123.932 13.0469 122.797 14.4531C121.661 15.8594 121.094 17.8594 121.094 20.4531C121.094 23.0469 121.661 25.0469 122.797 26.4531C123.932 27.8594 125.453 28.5625 127.359 28.5625C129.266 28.5625 130.781 27.8594 131.906 26.4531ZM162.484 32H156.297L149.188 21.9375L146.891 24.2969V32H142.156V8.96875H146.891V18.4531L155.781 8.96875H162L152.562 18.4531L162.484 32ZM181.234 21.9375H170.047V27.8594H182.797V32H165.344V8.96875H182.234V13.0469H170.047V17.9375H181.234V21.9375ZM190.953 32H186.469V8.96875H193.469L197.656 27.0781L201.812 8.96875H208.734V32H204.25V16.4219C204.25 15.974 204.255 15.349 204.266 14.5469C204.276 13.7344 204.281 13.1094 204.281 12.6719L199.922 32H195.25L190.922 12.6719C190.922 13.1094 190.927 13.7344 190.938 14.5469C190.948 15.349 190.953 15.974 190.953 16.4219V32ZM226.688 27.2656H218.203L216.609 32H211.578L219.797 8.96875H225.234L233.391 32H228.172L226.688 27.2656ZM225.344 23.2969L222.469 14.2344L219.5 23.2969H225.344ZM244.688 28.6719C245.823 28.6719 246.745 28.5469 247.453 28.2969C248.797 27.8177 249.469 26.9271 249.469 25.625C249.469 24.8646 249.135 24.276 248.469 23.8594C247.802 23.4531 246.755 23.0938 245.328 22.7812L242.891 22.2344C240.495 21.6927 238.839 21.1042 237.922 20.4688C236.37 19.4062 235.594 17.7448 235.594 15.4844C235.594 13.4219 236.344 11.7083 237.844 10.3438C239.344 8.97917 241.547 8.29688 244.453 8.29688C246.88 8.29688 248.948 8.94271 250.656 10.2344C252.375 11.5156 253.276 13.3802 253.359 15.8281H248.734C248.651 14.4427 248.047 13.4583 246.922 12.875C246.172 12.4896 245.24 12.2969 244.125 12.2969C242.885 12.2969 241.896 12.5469 241.156 13.0469C240.417 13.5469 240.047 14.2448 240.047 15.1406C240.047 15.9635 240.411 16.5781 241.141 16.9844C241.609 17.2552 242.609 17.5729 244.141 17.9375L248.109 18.8906C249.849 19.3073 251.161 19.8646 252.047 20.5625C253.422 21.6458 254.109 23.2135 254.109 25.2656C254.109 27.3698 253.302 29.1198 251.688 30.5156C250.083 31.901 247.812 32.5938 244.875 32.5938C241.875 32.5938 239.516 31.9115 237.797 30.5469C236.078 29.1719 235.219 27.2865 235.219 24.8906H239.812C239.958 25.9427 240.245 26.7292 240.672 27.25C241.453 28.1979 242.792 28.6719 244.688 28.6719ZM274.406 8.96875V13.0469H267.516V32H262.672V13.0469H255.75V8.96875H274.406ZM293.266 21.9375H282.078V27.8594H294.828V32H277.375V8.96875H294.266V13.0469H282.078V17.9375H293.266V21.9375ZM308.359 22.9688H303.391V32H298.688V8.96875H309.984C311.599 9 312.839 9.19792 313.703 9.5625C314.578 9.92708 315.318 10.4635 315.922 11.1719C316.422 11.7552 316.818 12.401 317.109 13.1094C317.401 13.8177 317.547 14.625 317.547 15.5312C317.547 16.625 317.271 17.7031 316.719 18.7656C316.167 19.8177 315.255 20.5625 313.984 21C315.047 21.4271 315.797 22.0365 316.234 22.8281C316.682 23.6094 316.906 24.8073 316.906 26.4219V27.9688C316.906 29.0208 316.948 29.7344 317.031 30.1094C317.156 30.7031 317.448 31.1406 317.906 31.4219V32H312.609C312.464 31.4896 312.359 31.0781 312.297 30.7656C312.172 30.1198 312.104 29.4583 312.094 28.7812L312.062 26.6406C312.042 25.1719 311.771 24.1927 311.25 23.7031C310.74 23.2135 309.776 22.9688 308.359 22.9688ZM311.281 18.7812C312.24 18.3438 312.719 17.4792 312.719 16.1875C312.719 14.7917 312.255 13.8542 311.328 13.375C310.807 13.1042 310.026 12.9688 308.984 12.9688H303.391V19.1562H308.844C309.927 19.1562 310.74 19.0312 311.281 18.7812Z" fill="#2C3E50"/>
<path d="M90.4766 51.5234H95.6406C96.6615 51.5234 97.4844 51.8125 98.1094 52.3906C98.7344 52.9635 99.0469 53.7708 99.0469 54.8125C99.0469 55.7083 98.7682 56.4896 98.2109 57.1562C97.6536 57.8177 96.7969 58.1484 95.6406 58.1484H92.0312V63H90.4766V51.5234ZM97.4766 54.8203C97.4766 53.9766 97.1641 53.4036 96.5391 53.1016C96.1953 52.9401 95.724 52.8594 95.125 52.8594H92.0312V56.8359H95.125C95.8229 56.8359 96.388 56.6875 96.8203 56.3906C97.2578 56.0938 97.4766 55.5703 97.4766 54.8203ZM106.336 56.7812C107.065 56.7812 107.641 56.6354 108.062 56.3438C108.49 56.0521 108.703 55.526 108.703 54.7656C108.703 53.9479 108.406 53.3906 107.812 53.0938C107.495 52.9375 107.07 52.8594 106.539 52.8594H102.742V56.7812H106.336ZM101.188 51.5234H106.5C107.375 51.5234 108.096 51.651 108.664 51.9062C109.742 52.3958 110.281 53.2995 110.281 54.6172C110.281 55.3047 110.138 55.8672 109.852 56.3047C109.57 56.7422 109.174 57.0938 108.664 57.3594C109.112 57.5417 109.448 57.7812 109.672 58.0781C109.901 58.375 110.029 58.8568 110.055 59.5234L110.109 61.0625C110.125 61.5 110.161 61.8255 110.219 62.0391C110.312 62.4036 110.479 62.638 110.719 62.7422V63H108.812C108.76 62.901 108.719 62.7734 108.688 62.6172C108.656 62.4609 108.63 62.1589 108.609 61.7109L108.516 59.7969C108.479 59.0469 108.201 58.5443 107.68 58.2891C107.383 58.1484 106.917 58.0781 106.281 58.0781H102.742V63H101.188V51.5234ZM112.711 51.5234H121.078V52.9297H114.227V56.4141H120.562V57.7422H114.227V61.6328H121.195V63H112.711V51.5234ZM123.195 51.5234H125.422L128.719 61.2266L131.992 51.5234H134.195V63H132.719V56.2266C132.719 55.9922 132.724 55.6042 132.734 55.0625C132.745 54.5208 132.75 53.9401 132.75 53.3203L129.477 63H127.938L124.641 53.3203V53.6719C124.641 53.9531 124.646 54.3828 124.656 54.9609C124.672 55.5339 124.68 55.9557 124.68 56.2266V63H123.195V51.5234ZM136.914 51.5234H138.484V63H136.914V51.5234ZM142.703 51.5234V58.6172C142.703 59.4505 142.859 60.1432 143.172 60.6953C143.635 61.5286 144.417 61.9453 145.516 61.9453C146.833 61.9453 147.729 61.4948 148.203 60.5938C148.458 60.1042 148.586 59.4453 148.586 58.6172V51.5234H150.164V57.9688C150.164 59.3802 149.974 60.4661 149.594 61.2266C148.896 62.612 147.578 63.3047 145.641 63.3047C143.703 63.3047 142.388 62.612 141.695 61.2266C141.315 60.4661 141.125 59.3802 141.125 57.9688V51.5234H142.703ZM152.539 51.5234H154.766L158.062 61.2266L161.336 51.5234H163.539V63H162.062V56.2266C162.062 55.9922 162.068 55.6042 162.078 55.0625C162.089 54.5208 162.094 53.9401 162.094 53.3203L158.82 63H157.281L153.984 53.3203V53.6719C153.984 53.9531 153.99 54.3828 154 54.9609C154.016 55.5339 154.023 55.9557 154.023 56.2266V63H152.539V51.5234ZM171.375 59.2969C171.411 59.9479 171.565 60.4766 171.836 60.8828C172.352 61.6432 173.26 62.0234 174.562 62.0234C175.146 62.0234 175.677 61.9401 176.156 61.7734C177.083 61.4505 177.547 60.8724 177.547 60.0391C177.547 59.4141 177.352 58.9688 176.961 58.7031C176.565 58.4427 175.945 58.2161 175.102 58.0234L173.547 57.6719C172.531 57.4427 171.812 57.1901 171.391 56.9141C170.661 56.4349 170.297 55.7188 170.297 54.7656C170.297 53.7344 170.654 52.888 171.367 52.2266C172.081 51.5651 173.091 51.2344 174.398 51.2344C175.602 51.2344 176.622 51.526 177.461 52.1094C178.305 52.6875 178.727 53.6146 178.727 54.8906H177.266C177.188 54.276 177.021 53.8047 176.766 53.4766C176.292 52.8776 175.487 52.5781 174.352 52.5781C173.435 52.5781 172.776 52.7708 172.375 53.1562C171.974 53.5417 171.773 53.9896 171.773 54.5C171.773 55.0625 172.008 55.474 172.477 55.7344C172.784 55.901 173.479 56.1094 174.562 56.3594L176.172 56.7266C176.948 56.9036 177.547 57.1458 177.969 57.4531C178.698 57.9896 179.062 58.7682 179.062 59.7891C179.062 61.0599 178.599 61.9688 177.672 62.5156C176.75 63.0625 175.677 63.3359 174.453 63.3359C173.026 63.3359 171.909 62.9714 171.102 62.2422C170.294 61.5182 169.898 60.5365 169.914 59.2969H171.375ZM180.992 51.5234H183.219L186.516 61.2266L189.789 51.5234H191.992V63H190.516V56.2266C190.516 55.9922 190.521 55.6042 190.531 55.0625C190.542 54.5208 190.547 53.9401 190.547 53.3203L187.273 63H185.734L182.438 53.3203V53.6719C182.438 53.9531 182.443 54.3828 182.453 54.9609C182.469 55.5339 182.477 55.9557 182.477 56.2266V63H180.992V51.5234ZM199.312 51.2109C201.339 51.2109 202.839 51.862 203.812 53.1641C204.573 54.1797 204.953 55.4792 204.953 57.0625C204.953 58.776 204.518 60.2005 203.648 61.3359C202.628 62.6693 201.172 63.3359 199.281 63.3359C197.516 63.3359 196.128 62.7526 195.117 61.5859C194.216 60.4609 193.766 59.0391 193.766 57.3203C193.766 55.7682 194.151 54.4401 194.922 53.3359C195.911 51.9193 197.375 51.2109 199.312 51.2109ZM199.469 61.9453C200.839 61.9453 201.828 61.4557 202.438 60.4766C203.052 59.4922 203.359 58.362 203.359 57.0859C203.359 55.737 203.005 54.651 202.297 53.8281C201.594 53.0052 200.63 52.5938 199.406 52.5938C198.219 52.5938 197.25 53.0026 196.5 53.8203C195.75 54.6328 195.375 55.8333 195.375 57.4219C195.375 58.6927 195.695 59.7656 196.336 60.6406C196.982 61.5104 198.026 61.9453 199.469 61.9453ZM206.812 51.5234H208.328V57.1172L213.922 51.5234H216.07L211.297 56.1484L216.203 63H214.18L210.164 57.2422L208.328 59V63H206.812V51.5234ZM217.633 51.5234H226V52.9297H219.148V56.4141H225.484V57.7422H219.148V61.6328H226.117V63H217.633V51.5234ZM232.562 61.6719C233.089 61.6719 233.521 61.6172 233.859 61.5078C234.464 61.3047 234.958 60.9141 235.344 60.3359C235.651 59.8724 235.872 59.2786 236.008 58.5547C236.086 58.1224 236.125 57.7214 236.125 57.3516C236.125 55.9297 235.841 54.8255 235.273 54.0391C234.711 53.2526 233.802 52.8594 232.547 52.8594H229.789V61.6719H232.562ZM228.227 51.5234H232.875C234.453 51.5234 235.677 52.0833 236.547 53.2031C237.323 54.2135 237.711 55.5078 237.711 57.0859C237.711 58.3047 237.482 59.4062 237.023 60.3906C236.216 62.1302 234.828 63 232.859 63H228.227V51.5234ZM244.133 51.5234H246.359L249.656 61.2266L252.93 51.5234H255.133V63H253.656V56.2266C253.656 55.9922 253.661 55.6042 253.672 55.0625C253.682 54.5208 253.688 53.9401 253.688 53.3203L250.414 63H248.875L245.578 53.3203V53.6719C245.578 53.9531 245.583 54.3828 245.594 54.9609C245.609 55.5339 245.617 55.9557 245.617 56.2266V63H244.133V51.5234ZM257.648 51.5234H266.016V52.9297H259.164V56.4141H265.5V57.7422H259.164V61.6328H266.133V63H257.648V51.5234ZM274.062 58.2969L272.32 53.2266L270.469 58.2969H274.062ZM271.508 51.5234H273.266L277.43 63H275.727L274.562 59.5625H270.023L268.781 63H267.188L271.508 51.5234ZM286.008 51.5234V52.8906H282.141V63H280.562V52.8906H276.695V51.5234H286.008ZM288.453 59.2969C288.49 59.9479 288.643 60.4766 288.914 60.8828C289.43 61.6432 290.339 62.0234 291.641 62.0234C292.224 62.0234 292.755 61.9401 293.234 61.7734C294.161 61.4505 294.625 60.8724 294.625 60.0391C294.625 59.4141 294.43 58.9688 294.039 58.7031C293.643 58.4427 293.023 58.2161 292.18 58.0234L290.625 57.6719C289.609 57.4427 288.891 57.1901 288.469 56.9141C287.74 56.4349 287.375 55.7188 287.375 54.7656C287.375 53.7344 287.732 52.888 288.445 52.2266C289.159 51.5651 290.169 51.2344 291.477 51.2344C292.68 51.2344 293.701 51.526 294.539 52.1094C295.383 52.6875 295.805 53.6146 295.805 54.8906H294.344C294.266 54.276 294.099 53.8047 293.844 53.4766C293.37 52.8776 292.565 52.5781 291.43 52.5781C290.513 52.5781 289.854 52.7708 289.453 53.1562C289.052 53.5417 288.852 53.9896 288.852 54.5C288.852 55.0625 289.086 55.474 289.555 55.7344C289.862 55.901 290.557 56.1094 291.641 56.3594L293.25 56.7266C294.026 56.9036 294.625 57.1458 295.047 57.4531C295.776 57.9896 296.141 58.7682 296.141 59.7891C296.141 61.0599 295.677 61.9688 294.75 62.5156C293.828 63.0625 292.755 63.3359 291.531 63.3359C290.104 63.3359 288.987 62.9714 288.18 62.2422C287.372 61.5182 286.977 60.5365 286.992 59.2969H288.453Z" fill="#7F8C8D"/>
<path d="M166.322 81.3926H172.598V82.4473H167.459V85.0605H172.211V86.0566H167.459V88.9746H172.686V90H166.322V81.3926ZM174.977 87.2227C175.004 87.7109 175.119 88.1074 175.322 88.4121C175.709 88.9824 176.391 89.2676 177.367 89.2676C177.805 89.2676 178.203 89.2051 178.562 89.0801C179.258 88.8379 179.605 88.4043 179.605 87.7793C179.605 87.3105 179.459 86.9766 179.166 86.7773C178.869 86.582 178.404 86.4121 177.771 86.2676L176.605 86.0039C175.844 85.832 175.305 85.6426 174.988 85.4355C174.441 85.0762 174.168 84.5391 174.168 83.8242C174.168 83.0508 174.436 82.416 174.971 81.9199C175.506 81.4238 176.264 81.1758 177.244 81.1758C178.146 81.1758 178.912 81.3945 179.541 81.832C180.174 82.2656 180.49 82.9609 180.49 83.918H179.395C179.336 83.457 179.211 83.1035 179.02 82.8574C178.664 82.4082 178.061 82.1836 177.209 82.1836C176.521 82.1836 176.027 82.3281 175.727 82.6172C175.426 82.9062 175.275 83.2422 175.275 83.625C175.275 84.0469 175.451 84.3555 175.803 84.5508C176.033 84.6758 176.555 84.832 177.367 85.0195L178.574 85.2949C179.156 85.4277 179.605 85.6094 179.922 85.8398C180.469 86.2422 180.742 86.8262 180.742 87.5918C180.742 88.5449 180.395 89.2266 179.699 89.6367C179.008 90.0469 178.203 90.252 177.285 90.252C176.215 90.252 175.377 89.9785 174.771 89.4316C174.166 88.8887 173.869 88.1523 173.881 87.2227H174.977ZM188.482 81.3926V82.418H185.582V90H184.398V82.418H181.498V81.3926H188.482ZM188.33 88.7227H189.555V90H188.33V88.7227ZM194.359 90C194.398 89.2773 194.547 88.6484 194.805 88.1133C195.066 87.5781 195.574 87.0918 196.328 86.6543L197.453 86.0039C197.957 85.7109 198.311 85.4609 198.514 85.2539C198.834 84.9297 198.994 84.5586 198.994 84.1406C198.994 83.6523 198.848 83.2656 198.555 82.9805C198.262 82.6914 197.871 82.5469 197.383 82.5469C196.66 82.5469 196.16 82.8203 195.883 83.3672C195.734 83.6602 195.652 84.0664 195.637 84.5859H194.564C194.576 83.8555 194.711 83.2598 194.969 82.7988C195.426 81.9863 196.232 81.5801 197.389 81.5801C198.35 81.5801 199.051 81.8398 199.492 82.3594C199.938 82.8789 200.16 83.457 200.16 84.0938C200.16 84.7656 199.924 85.3398 199.451 85.8164C199.178 86.0938 198.688 86.4297 197.98 86.8242L197.178 87.2695C196.795 87.4805 196.494 87.6816 196.275 87.873C195.885 88.2129 195.639 88.5898 195.537 89.0039H200.119V90H194.359ZM203.91 81.6094C204.996 81.6094 205.781 82.0566 206.266 82.9512C206.641 83.6426 206.828 84.5898 206.828 85.793C206.828 86.9336 206.658 87.877 206.318 88.623C205.826 89.6934 205.021 90.2285 203.904 90.2285C202.896 90.2285 202.146 89.791 201.654 88.916C201.244 88.1855 201.039 87.2051 201.039 85.9746C201.039 85.0215 201.162 84.2031 201.408 83.5195C201.869 82.2461 202.703 81.6094 203.91 81.6094ZM203.898 89.2676C204.445 89.2676 204.881 89.0254 205.205 88.541C205.529 88.0566 205.691 87.1543 205.691 85.834C205.691 84.8809 205.574 84.0977 205.34 83.4844C205.105 82.8672 204.65 82.5586 203.975 82.5586C203.354 82.5586 202.898 82.8516 202.609 83.4375C202.324 84.0195 202.182 84.8789 202.182 86.0156C202.182 86.8711 202.273 87.5586 202.457 88.0781C202.738 88.8711 203.219 89.2676 203.898 89.2676ZM207.719 90C207.758 89.2773 207.906 88.6484 208.164 88.1133C208.426 87.5781 208.934 87.0918 209.688 86.6543L210.812 86.0039C211.316 85.7109 211.67 85.4609 211.873 85.2539C212.193 84.9297 212.354 84.5586 212.354 84.1406C212.354 83.6523 212.207 83.2656 211.914 82.9805C211.621 82.6914 211.23 82.5469 210.742 82.5469C210.02 82.5469 209.52 82.8203 209.242 83.3672C209.094 83.6602 209.012 84.0664 208.996 84.5859H207.924C207.936 83.8555 208.07 83.2598 208.328 82.7988C208.785 81.9863 209.592 81.5801 210.748 81.5801C211.709 81.5801 212.41 81.8398 212.852 82.3594C213.297 82.8789 213.52 83.457 213.52 84.0938C213.52 84.7656 213.283 85.3398 212.811 85.8164C212.537 86.0938 212.047 86.4297 211.34 86.8242L210.537 87.2695C210.154 87.4805 209.854 87.6816 209.635 87.873C209.244 88.2129 208.998 88.5898 208.896 89.0039H213.479V90H207.719ZM217.27 81.6094C218.355 81.6094 219.141 82.0566 219.625 82.9512C220 83.6426 220.188 84.5898 220.188 85.793C220.188 86.9336 220.018 87.877 219.678 88.623C219.186 89.6934 218.381 90.2285 217.264 90.2285C216.256 90.2285 215.506 89.791 215.014 88.916C214.604 88.1855 214.398 87.2051 214.398 85.9746C214.398 85.0215 214.521 84.2031 214.768 83.5195C215.229 82.2461 216.062 81.6094 217.27 81.6094ZM217.258 89.2676C217.805 89.2676 218.24 89.0254 218.564 88.541C218.889 88.0566 219.051 87.1543 219.051 85.834C219.051 84.8809 218.934 84.0977 218.699 83.4844C218.465 82.8672 218.01 82.5586 217.334 82.5586C216.713 82.5586 216.258 82.8516 215.969 83.4375C215.684 84.0195 215.541 84.8789 215.541 86.0156C215.541 86.8711 215.633 87.5586 215.816 88.0781C216.098 88.8711 216.578 89.2676 217.258 89.2676Z" fill="#95A5A6"/>
</svg>
