<svg width="340" height="150" viewBox="0 0 340 150" fill="none" xmlns="http://www.w3.org/2000/svg">
<path d="M20 7.5C20 -2.5 320 -2.5 320 7.5L340 27.5L320 47.5C320 57.5 20 57.5 20 47.5L0 27.5L20 7.5Z" fill="#8B0000"/>
<path d="M40 102C40 92 300 92 300 102L320 122L300 142C300 152 40 152 40 142L20 122L40 102Z" fill="#8B0000"/>
<path d="M140 47.5H200C206.667 47.5 211.667 49.1667 215 52.5L230 67.5C233.333 70.8333 233.333 74.1667 230 77.5L200 107.5C196.667 110.833 193.333 110.833 190 107.5H150C146.667 110.833 143.333 110.833 140 107.5L110 77.5C106.667 74.1667 106.667 70.8333 110 67.5L125 52.5C128.333 49.1667 133.333 47.5 140 47.5Z" fill="#1A1A1A"/>
<path d="M45.6946 36.5V13.2273H55.0128C56.7249 13.2273 58.1529 13.4811 59.2969 13.9886C60.4408 14.4962 61.3007 15.2008 61.8764 16.1023C62.4522 16.9962 62.7401 18.0265 62.7401 19.1932C62.7401 20.1023 62.5582 20.9015 62.1946 21.5909C61.831 22.2727 61.331 22.8333 60.6946 23.2727C60.0658 23.7045 59.3461 24.0114 58.5355 24.1932V24.4205C59.4219 24.4583 60.2514 24.7083 61.0241 25.1705C61.8045 25.6326 62.437 26.2803 62.9219 27.1136C63.4067 27.9394 63.6491 28.9242 63.6491 30.0682C63.6491 31.303 63.3423 32.4053 62.7287 33.375C62.1226 34.3371 61.2249 35.0985 60.0355 35.6591C58.8461 36.2197 57.3802 36.5 55.6378 36.5H45.6946ZM50.6151 32.4773H54.6264C55.9976 32.4773 56.9976 32.2159 57.6264 31.6932C58.2552 31.1629 58.5696 30.4583 58.5696 29.5795C58.5696 28.9356 58.4143 28.3674 58.1037 27.875C57.7931 27.3826 57.3499 26.9962 56.7741 26.7159C56.206 26.4356 55.5279 26.2955 54.7401 26.2955H50.6151V32.4773ZM50.6151 22.9659H54.2628C54.937 22.9659 55.5355 22.8485 56.0582 22.6136C56.5885 22.3712 57.0052 22.0303 57.3082 21.5909C57.6188 21.1515 57.7741 20.625 57.7741 20.0114C57.7741 19.1705 57.4749 18.4924 56.8764 17.9773C56.2855 17.4621 55.4446 17.2045 54.3537 17.2045H50.6151V22.9659ZM66.8509 36.5V13.2273H71.7713V32.4432H81.7486V36.5H66.8509ZM89.6122 36.5H84.3395L92.3736 13.2273H98.7145L106.737 36.5H101.464L95.6349 18.5455H95.4531L89.6122 36.5ZM89.2827 27.3523H101.737V31.1932H89.2827V27.3523ZM117.788 36.5H109.538V13.2273H117.857C120.197 13.2273 122.213 13.6932 123.902 14.625C125.591 15.5492 126.891 16.8788 127.8 18.6136C128.716 20.3485 129.175 22.4242 129.175 24.8409C129.175 27.2652 128.716 29.3485 127.8 31.0909C126.891 32.8333 125.584 34.1705 123.879 35.1023C122.182 36.0341 120.152 36.5 117.788 36.5ZM114.459 32.2841H117.584C119.038 32.2841 120.262 32.0265 121.254 31.5114C122.254 30.9886 123.004 30.1818 123.504 29.0909C124.012 27.9924 124.266 26.5758 124.266 24.8409C124.266 23.1212 124.012 21.7159 123.504 20.625C123.004 19.5341 122.258 18.7311 121.266 18.2159C120.273 17.7008 119.05 17.4432 117.595 17.4432H114.459V32.2841ZM132.82 36.5V13.2273H148.501V17.2841H137.74V22.8295H147.695V26.8864H137.74V32.4432H148.547V36.5H132.82ZM166.865 36.8409C165.259 36.8409 163.873 36.553 162.706 35.9773C161.539 35.4015 160.642 34.6212 160.013 33.6364C159.392 32.6439 159.081 31.5379 159.081 30.3182C159.081 29.4091 159.263 28.6023 159.626 27.8977C159.99 27.1932 160.498 26.5455 161.149 25.9545C161.801 25.3561 162.558 24.7614 163.422 24.1705L167.933 21.2045C168.517 20.8333 168.945 20.4432 169.217 20.0341C169.49 19.6174 169.626 19.1667 169.626 18.6818C169.626 18.2197 169.441 17.7917 169.07 17.3977C168.698 17.0038 168.172 16.8106 167.49 16.8182C167.036 16.8182 166.642 16.9205 166.308 17.125C165.975 17.322 165.714 17.5833 165.524 17.9091C165.342 18.2273 165.251 18.5833 165.251 18.9773C165.251 19.4621 165.388 19.9545 165.661 20.4545C165.933 20.9545 166.297 21.4848 166.751 22.0455C167.206 22.5985 167.702 23.197 168.24 23.8409L179.274 36.5H174.229L165.024 26.25C164.418 25.5606 163.812 24.8409 163.206 24.0909C162.607 23.3333 162.107 22.5303 161.706 21.6818C161.304 20.8258 161.104 19.8977 161.104 18.8977C161.104 17.7689 161.365 16.7538 161.888 15.8523C162.418 14.9508 163.161 14.2386 164.115 13.7159C165.07 13.1856 166.183 12.9205 167.456 12.9205C168.698 12.9205 169.77 13.1742 170.672 13.6818C171.581 14.1818 172.278 14.8485 172.763 15.6818C173.255 16.5076 173.501 17.4167 173.501 18.4091C173.501 19.5076 173.229 20.5038 172.683 21.3977C172.145 22.2841 171.388 23.0795 170.411 23.7841L165.661 27.2045C165.017 27.6742 164.539 28.1553 164.229 28.6477C163.926 29.1326 163.774 29.5985 163.774 30.0455C163.774 30.5985 163.911 31.0947 164.183 31.5341C164.456 31.9735 164.842 32.322 165.342 32.5795C165.842 32.8295 166.429 32.9545 167.104 32.9545C167.922 32.9545 168.729 32.7689 169.524 32.3977C170.327 32.0189 171.054 31.4848 171.706 30.7955C172.365 30.0985 172.892 29.2727 173.286 28.3182C173.679 27.3636 173.876 26.3068 173.876 25.1477H177.888C177.888 26.572 177.732 27.8561 177.422 29C177.111 30.1364 176.679 31.1288 176.126 31.9773C175.573 32.8182 174.941 33.5076 174.229 34.0455C174.001 34.1894 173.782 34.3258 173.57 34.4545C173.357 34.5833 173.138 34.7197 172.911 34.8636C172.047 35.5606 171.081 36.0644 170.013 36.375C168.952 36.6856 167.903 36.8409 166.865 36.8409ZM188.788 36.5V13.2273H198.107C199.819 13.2273 201.247 13.4811 202.391 13.9886C203.535 14.4962 204.394 15.2008 204.97 16.1023C205.546 16.9962 205.834 18.0265 205.834 19.1932C205.834 20.1023 205.652 20.9015 205.288 21.5909C204.925 22.2727 204.425 22.8333 203.788 23.2727C203.16 23.7045 202.44 24.0114 201.629 24.1932V24.4205C202.516 24.4583 203.345 24.7083 204.118 25.1705C204.898 25.6326 205.531 26.2803 206.016 27.1136C206.5 27.9394 206.743 28.9242 206.743 30.0682C206.743 31.303 206.436 32.4053 205.822 33.375C205.216 34.3371 204.319 35.0985 203.129 35.6591C201.94 36.2197 200.474 36.5 198.732 36.5H188.788ZM193.709 32.4773H197.72C199.091 32.4773 200.091 32.2159 200.72 31.6932C201.349 31.1629 201.663 30.4583 201.663 29.5795C201.663 28.9356 201.508 28.3674 201.197 27.875C200.887 27.3826 200.444 26.9962 199.868 26.7159C199.3 26.4356 198.622 26.2955 197.834 26.2955H193.709V32.4773ZM193.709 22.9659H197.357C198.031 22.9659 198.629 22.8485 199.152 22.6136C199.682 22.3712 200.099 22.0303 200.402 21.5909C200.713 21.1515 200.868 20.625 200.868 20.0114C200.868 19.1705 200.569 18.4924 199.97 17.9773C199.379 17.4621 198.538 17.2045 197.447 17.2045H193.709V22.9659ZM209.945 36.5V13.2273H214.865V32.4432H224.842V36.5H209.945ZM248.581 24.8636C248.581 27.4015 248.1 29.5606 247.138 31.3409C246.183 33.1212 244.88 34.4811 243.229 35.4205C241.585 36.3523 239.736 36.8182 237.683 36.8182C235.615 36.8182 233.759 36.3485 232.115 35.4091C230.471 34.4697 229.172 33.1098 228.217 31.3295C227.263 29.5492 226.786 27.3939 226.786 24.8636C226.786 22.3258 227.263 20.1667 228.217 18.3864C229.172 16.6061 230.471 15.25 232.115 14.3182C233.759 13.3788 235.615 12.9091 237.683 12.9091C239.736 12.9091 241.585 13.3788 243.229 14.3182C244.88 15.25 246.183 16.6061 247.138 18.3864C248.1 20.1667 248.581 22.3258 248.581 24.8636ZM243.592 24.8636C243.592 23.2197 243.346 21.8333 242.854 20.7045C242.369 19.5758 241.683 18.7197 240.797 18.1364C239.911 17.553 238.873 17.2614 237.683 17.2614C236.494 17.2614 235.456 17.553 234.57 18.1364C233.683 18.7197 232.994 19.5758 232.501 20.7045C232.017 21.8333 231.774 23.2197 231.774 24.8636C231.774 26.5076 232.017 27.8939 232.501 29.0227C232.994 30.1515 233.683 31.0076 234.57 31.5909C235.456 32.1742 236.494 32.4659 237.683 32.4659C238.873 32.4659 239.911 32.1742 240.797 31.5909C241.683 31.0076 242.369 30.1515 242.854 29.0227C243.346 27.8939 243.592 26.5076 243.592 24.8636ZM272.76 21.375H267.783C267.692 20.7311 267.506 20.1591 267.226 19.6591C266.946 19.1515 266.586 18.7197 266.146 18.3636C265.707 18.0076 265.199 17.7348 264.624 17.5455C264.055 17.3561 263.438 17.2614 262.771 17.2614C261.567 17.2614 260.518 17.5606 259.624 18.1591C258.73 18.75 258.036 19.6136 257.544 20.75C257.052 21.8788 256.805 23.25 256.805 24.8636C256.805 26.5227 257.052 27.9167 257.544 29.0455C258.044 30.1742 258.741 31.0265 259.635 31.6023C260.529 32.178 261.563 32.4659 262.737 32.4659C263.396 32.4659 264.006 32.3788 264.567 32.2045C265.135 32.0303 265.639 31.7765 266.078 31.4432C266.518 31.1023 266.881 30.6894 267.169 30.2045C267.464 29.7197 267.669 29.1667 267.783 28.5455L272.76 28.5682C272.631 29.6364 272.309 30.6667 271.794 31.6591C271.286 32.6439 270.601 33.5265 269.737 34.3068C268.881 35.0795 267.858 35.6932 266.669 36.1477C265.487 36.5947 264.15 36.8182 262.658 36.8182C260.582 36.8182 258.726 36.3485 257.089 35.4091C255.461 34.4697 254.173 33.1098 253.226 31.3295C252.286 29.5492 251.817 27.3939 251.817 24.8636C251.817 22.3258 252.294 20.1667 253.249 18.3864C254.203 16.6061 255.499 15.25 257.135 14.3182C258.771 13.3788 260.612 12.9091 262.658 12.9091C264.006 12.9091 265.256 13.0985 266.408 13.4773C267.567 13.8561 268.593 14.4091 269.487 15.1364C270.381 15.8561 271.108 16.7386 271.669 17.7841C272.237 18.8295 272.601 20.0265 272.76 21.375ZM276.288 36.5V13.2273H281.209V23.4886H281.516L289.891 13.2273H295.788L287.152 23.6477L295.891 36.5H290.004L283.629 26.9318L281.209 29.8864V36.5H276.288Z" fill="white"/>
<path d="M133.565 86.5V74.8636H140.588V76.1136H134.974V80.0455H140.224V81.2955H134.974V85.25H140.679V86.5H133.565ZM149.491 77.7727C149.423 77.197 149.147 76.75 148.662 76.4318C148.177 76.1136 147.582 75.9545 146.878 75.9545C146.363 75.9545 145.912 76.0379 145.526 76.2045C145.143 76.3712 144.844 76.6004 144.628 76.892C144.416 77.1837 144.31 77.5152 144.31 77.8864C144.31 78.197 144.384 78.464 144.531 78.6875C144.683 78.9072 144.876 79.0909 145.111 79.2386C145.346 79.3826 145.592 79.5019 145.849 79.5966C146.107 79.6875 146.344 79.7614 146.56 79.8182L147.741 80.1364C148.045 80.2159 148.382 80.3258 148.753 80.4659C149.128 80.6061 149.486 80.7973 149.827 81.0398C150.171 81.2784 150.455 81.5852 150.679 81.9602C150.902 82.3352 151.014 82.7955 151.014 83.3409C151.014 83.9697 150.849 84.5379 150.52 85.0455C150.194 85.553 149.717 85.9564 149.088 86.2557C148.463 86.5549 147.704 86.7045 146.81 86.7045C145.976 86.7045 145.255 86.5701 144.645 86.3011C144.039 86.0322 143.562 85.6572 143.213 85.1761C142.868 84.6951 142.673 84.1364 142.628 83.5H144.082C144.12 83.9394 144.268 84.303 144.526 84.5909C144.787 84.875 145.116 85.0871 145.514 85.2273C145.916 85.3636 146.348 85.4318 146.81 85.4318C147.348 85.4318 147.83 85.3447 148.259 85.1705C148.687 84.9924 149.026 84.7462 149.276 84.4318C149.526 84.1136 149.651 83.7424 149.651 83.3182C149.651 82.9318 149.543 82.6174 149.327 82.375C149.111 82.1326 148.827 81.9356 148.474 81.7841C148.122 81.6326 147.741 81.5 147.332 81.3864L145.901 80.9773C144.991 80.7159 144.272 80.3428 143.741 79.858C143.211 79.3731 142.946 78.7386 142.946 77.9545C142.946 77.303 143.122 76.7348 143.474 76.25C143.83 75.7614 144.308 75.3826 144.906 75.1136C145.509 74.8409 146.181 74.7045 146.923 74.7045C147.673 74.7045 148.34 74.839 148.923 75.108C149.507 75.3731 149.969 75.7367 150.31 76.1989C150.654 76.661 150.836 77.1856 150.855 77.7727H149.491ZM152.695 76.1136V74.8636H161.422V76.1136H157.763V86.5H156.354V76.1136H152.695ZM163.845 86.5909C163.565 86.5909 163.324 86.4905 163.124 86.2898C162.923 86.089 162.822 85.8485 162.822 85.5682C162.822 85.2879 162.923 85.0473 163.124 84.8466C163.324 84.6458 163.565 84.5455 163.845 84.5455C164.125 84.5455 164.366 84.6458 164.567 84.8466C164.768 85.0473 164.868 85.2879 164.868 85.5682C164.868 85.7538 164.821 85.9242 164.726 86.0795C164.635 86.2348 164.512 86.3598 164.357 86.4545C164.205 86.5455 164.035 86.5909 163.845 86.5909ZM175.842 74.8636V86.5H174.433V76.3409H174.365L171.524 78.2273V76.7955L174.433 74.8636H175.842ZM182.893 74.7045C183.371 74.7083 183.848 74.7992 184.325 74.9773C184.803 75.1553 185.238 75.4508 185.632 75.8636C186.026 76.2727 186.342 76.8314 186.581 77.5398C186.82 78.2481 186.939 79.1364 186.939 80.2045C186.939 81.2386 186.84 82.1572 186.643 82.9602C186.45 83.7595 186.17 84.4337 185.803 84.983C185.439 85.5322 184.996 85.9489 184.473 86.233C183.954 86.517 183.367 86.6591 182.712 86.6591C182.06 86.6591 181.479 86.5303 180.967 86.2727C180.46 86.0114 180.043 85.6496 179.717 85.1875C179.395 84.7216 179.189 84.1818 179.098 83.5682H180.484C180.609 84.1023 180.857 84.5436 181.229 84.892C181.604 85.2367 182.098 85.4091 182.712 85.4091C183.609 85.4091 184.318 85.017 184.837 84.233C185.359 83.4489 185.621 82.3409 185.621 80.9091H185.53C185.318 81.2273 185.066 81.5019 184.774 81.733C184.482 81.964 184.159 82.142 183.803 82.267C183.446 82.392 183.068 82.4545 182.666 82.4545C182 82.4545 181.388 82.2898 180.831 81.9602C180.278 81.6269 179.835 81.1705 179.501 80.5909C179.172 80.0076 179.007 79.3409 179.007 78.5909C179.007 77.8788 179.166 77.2273 179.484 76.6364C179.806 76.0417 180.257 75.5682 180.837 75.2159C181.42 74.8636 182.106 74.6932 182.893 74.7045ZM182.893 75.9545C182.416 75.9545 181.986 76.0739 181.604 76.3125C181.225 76.5473 180.924 76.8655 180.7 77.267C180.481 77.6648 180.371 78.1061 180.371 78.5909C180.371 79.0758 180.477 79.517 180.689 79.9148C180.905 80.3087 181.198 80.6231 181.57 80.858C181.945 81.089 182.371 81.2045 182.848 81.2045C183.208 81.2045 183.543 81.1345 183.854 80.9943C184.164 80.8504 184.435 80.6553 184.666 80.4091C184.901 80.1591 185.085 79.8769 185.217 79.5625C185.35 79.2443 185.416 78.9129 185.416 78.5682C185.416 78.1136 185.306 77.6875 185.087 77.2898C184.871 76.892 184.571 76.5701 184.189 76.3239C183.81 76.0777 183.378 75.9545 182.893 75.9545ZM193.105 86.6591C192.355 86.6591 191.687 86.5303 191.099 86.2727C190.516 86.0152 190.052 85.6572 189.707 85.1989C189.366 84.7367 189.181 84.2008 189.151 83.5909H190.582C190.613 83.9659 190.741 84.2898 190.969 84.5625C191.196 84.8314 191.493 85.0398 191.861 85.1875C192.228 85.3352 192.635 85.4091 193.082 85.4091C193.582 85.4091 194.026 85.322 194.412 85.1477C194.798 84.9735 195.101 84.7311 195.321 84.4205C195.541 84.1098 195.651 83.75 195.651 83.3409C195.651 82.9129 195.545 82.536 195.332 82.2102C195.12 81.8807 194.81 81.6231 194.401 81.4375C193.991 81.2519 193.491 81.1591 192.901 81.1591H191.969V79.9091H192.901C193.363 79.9091 193.768 79.8258 194.116 79.6591C194.469 79.4924 194.743 79.2576 194.94 78.9545C195.141 78.6515 195.241 78.2955 195.241 77.8864C195.241 77.4924 195.154 77.1496 194.98 76.858C194.806 76.5663 194.56 76.339 194.241 76.1761C193.927 76.0133 193.556 75.9318 193.128 75.9318C192.726 75.9318 192.348 76.0057 191.991 76.1534C191.639 76.2973 191.351 76.5076 191.128 76.7841C190.904 77.0568 190.783 77.3864 190.764 77.7727H189.401C189.423 77.1629 189.607 76.6288 189.952 76.1705C190.296 75.7083 190.747 75.3485 191.304 75.0909C191.865 74.8333 192.48 74.7045 193.151 74.7045C193.87 74.7045 194.488 74.8504 195.003 75.142C195.518 75.4299 195.914 75.8106 196.19 76.2841C196.467 76.7576 196.605 77.2689 196.605 77.8182C196.605 78.4735 196.433 79.0322 196.088 79.4943C195.747 79.9564 195.283 80.2765 194.696 80.4545V80.5455C195.431 80.6667 196.005 80.9792 196.418 81.483C196.83 81.983 197.037 82.6023 197.037 83.3409C197.037 83.9735 196.865 84.5417 196.52 85.0455C196.179 85.5455 195.713 85.9394 195.122 86.2273C194.531 86.5152 193.859 86.6591 193.105 86.6591ZM199.361 86.5V85.4773L203.202 81.2727C203.652 80.7803 204.024 80.3523 204.315 79.9886C204.607 79.6212 204.823 79.2765 204.963 78.9545C205.107 78.6288 205.179 78.2879 205.179 77.9318C205.179 77.5227 205.08 77.1686 204.884 76.8693C204.69 76.5701 204.425 76.339 204.088 76.1761C203.751 76.0133 203.372 75.9318 202.952 75.9318C202.505 75.9318 202.115 76.0246 201.781 76.2102C201.452 76.392 201.196 76.6477 201.014 76.9773C200.836 77.3068 200.747 77.6932 200.747 78.1364H199.406C199.406 77.4545 199.563 76.8561 199.878 76.3409C200.192 75.8258 200.62 75.4242 201.162 75.1364C201.707 74.8485 202.319 74.7045 202.997 74.7045C203.679 74.7045 204.283 74.8485 204.81 75.1364C205.336 75.4242 205.749 75.8125 206.048 76.3011C206.348 76.7898 206.497 77.3333 206.497 77.9318C206.497 78.3598 206.42 78.7784 206.264 79.1875C206.113 79.5928 205.848 80.0455 205.469 80.5455C205.094 81.0417 204.573 81.6477 203.906 82.3636L201.293 85.1591V85.25H206.702V86.5H199.361Z" fill="#1A1A1A"/>
<path d="M109.465 129V115.909H114.63C115.623 115.909 116.468 116.099 117.167 116.478C117.866 116.853 118.399 117.375 118.765 118.044C119.136 118.709 119.321 119.476 119.321 120.345C119.321 121.214 119.134 121.982 118.759 122.646C118.384 123.311 117.841 123.829 117.129 124.2C116.422 124.57 115.565 124.756 114.559 124.756H111.267V122.538H114.112C114.645 122.538 115.084 122.446 115.429 122.263C115.778 122.075 116.038 121.817 116.209 121.489C116.383 121.157 116.471 120.776 116.471 120.345C116.471 119.911 116.383 119.531 116.209 119.207C116.038 118.879 115.778 118.626 115.429 118.447C115.079 118.263 114.636 118.172 114.099 118.172H112.233V129H109.465ZM121.119 129V115.909H126.284C127.273 115.909 128.116 116.086 128.815 116.44C129.518 116.789 130.053 117.286 130.42 117.929C130.79 118.568 130.976 119.32 130.976 120.185C130.976 121.055 130.788 121.803 130.413 122.429C130.038 123.051 129.495 123.528 128.783 123.861C128.076 124.193 127.219 124.359 126.214 124.359H122.756V122.135H125.766C126.295 122.135 126.734 122.062 127.083 121.918C127.432 121.773 127.692 121.555 127.863 121.266C128.038 120.976 128.125 120.616 128.125 120.185C128.125 119.751 128.038 119.384 127.863 119.086C127.692 118.788 127.43 118.562 127.077 118.408C126.727 118.251 126.286 118.172 125.753 118.172H123.887V129H121.119ZM128.189 123.043L131.442 129H128.387L125.204 123.043H128.189ZM135.699 115.909V129H132.932V115.909H135.699ZM137.977 115.909H141.39L144.995 124.705H145.149L148.754 115.909H152.167V129H149.482V120.479H149.374L145.986 128.936H144.158L140.77 120.447H140.661V129H137.977V115.909ZM154.447 129V115.909H163.268V118.191H157.215V121.31H162.815V123.592H157.215V126.718H163.294V129H154.447ZM169.635 115.909H173.048L176.653 124.705H176.807L180.412 115.909H183.825V129H181.141V120.479H181.032L177.644 128.936H175.816L172.428 120.447H172.32V129H169.635V115.909ZM186.106 129V115.909H194.927V118.191H188.873V121.31H194.473V123.592H188.873V126.718H194.952V129H186.106ZM199.383 129H196.418L200.937 115.909H204.503L209.016 129H206.05L202.771 118.901H202.669L199.383 129ZM199.198 123.854H206.204V126.015H199.198V123.854ZM208.494 118.191V115.909H219.245V118.191H215.237V129H212.502V118.191H208.494ZM228.117 119.674C228.066 119.158 227.847 118.758 227.459 118.472C227.071 118.187 226.545 118.044 225.88 118.044C225.428 118.044 225.047 118.108 224.736 118.236C224.425 118.359 224.186 118.532 224.02 118.754C223.858 118.975 223.777 119.227 223.777 119.508C223.769 119.742 223.818 119.947 223.924 120.121C224.035 120.296 224.186 120.447 224.378 120.575C224.57 120.699 224.791 120.808 225.043 120.901C225.294 120.991 225.563 121.067 225.848 121.131L227.024 121.413C227.595 121.54 228.119 121.711 228.597 121.924C229.074 122.137 229.487 122.399 229.837 122.71C230.186 123.021 230.457 123.388 230.649 123.81C230.845 124.232 230.945 124.715 230.949 125.261C230.945 126.062 230.74 126.756 230.335 127.344C229.935 127.928 229.355 128.382 228.597 128.706C227.842 129.026 226.933 129.185 225.867 129.185C224.81 129.185 223.89 129.023 223.106 128.7C222.326 128.376 221.717 127.896 221.278 127.261C220.843 126.622 220.615 125.832 220.594 124.89H223.272C223.302 125.329 223.428 125.695 223.649 125.989C223.875 126.279 224.176 126.499 224.551 126.648C224.93 126.793 225.358 126.865 225.835 126.865C226.304 126.865 226.711 126.797 227.056 126.661C227.406 126.524 227.676 126.335 227.868 126.092C228.06 125.849 228.156 125.57 228.156 125.254C228.156 124.96 228.068 124.713 227.894 124.513C227.723 124.312 227.472 124.142 227.139 124.001C226.811 123.861 226.408 123.733 225.931 123.618L224.506 123.26C223.402 122.991 222.531 122.572 221.891 122.001C221.252 121.43 220.935 120.661 220.939 119.693C220.935 118.901 221.146 118.208 221.572 117.616C222.002 117.023 222.592 116.561 223.342 116.229C224.092 115.896 224.945 115.73 225.899 115.73C226.871 115.73 227.719 115.896 228.443 116.229C229.172 116.561 229.739 117.023 230.144 117.616C230.548 118.208 230.757 118.894 230.77 119.674H228.117Z" fill="white"/>
<path d="M130 67.5H150" stroke="#8B0000" stroke-width="2"/>
<path d="M190 67.5H210" stroke="#8B0000" stroke-width="2"/>
<path d="M90 137C98.2843 137 105 130.284 105 122C105 113.716 98.2843 107 90 107C81.7157 107 75 113.716 75 122C75 130.284 81.7157 137 90 137Z" stroke="white" stroke-width="2"/>
<path d="M250 137C258.284 137 265 130.284 265 122C265 113.716 258.284 107 250 107C241.716 107 235 113.716 235 122C235 130.284 241.716 137 250 137Z" stroke="white" stroke-width="2"/>
</svg>
