<svg width="274" height="135" viewBox="0 0 274 135" fill="none" xmlns="http://www.w3.org/2000/svg">
<path d="M137 0C117 0 97.0001 5 87.0001 20C77.0001 35 72.0001 45 67.0001 60C62.0001 75 67.0001 85 77.0001 90C87.0001 95 97.0001 90 107 85L137 80L167 85C177 90 187 95 197 90C207 85 212 75 207 60C202 45 197 35 187 20C177 5 157 0 137 0Z" fill="#2B3F6B"/>
<path d="M87.0001 20C77.0001 9.99998 67.0001 4.99998 57.0001 9.99998C47.0001 15 42.0001 25 47.0001 35C52.0001 45 62.0001 50 72.0001 45" fill="#2B3F6B"/>
<path d="M187 20C197 9.99998 207 4.99998 217 9.99998C227 15 232 25 227 35C222 45 212 50 202 45" fill="#2B3F6B"/>
<path d="M117 50C122 45 127 45 132 50C137 55 142 55 147 50C152 45 157 45 162 50" stroke="#4A90E2" stroke-width="3"/>
<path d="M2.35938 128V105.094H9.78125C12.5938 105.094 14.4271 105.208 15.2812 105.438C16.5938 105.781 17.6927 106.531 18.5781 107.688C19.4635 108.833 19.9062 110.318 19.9062 112.141C19.9062 113.547 19.651 114.729 19.1406 115.688C18.6302 116.646 17.9792 117.401 17.1875 117.953C16.4062 118.495 15.6094 118.854 14.7969 119.031C13.6927 119.25 12.0938 119.359 10 119.359H6.98438V128H2.35938ZM6.98438 108.969V115.469H9.51562C11.3385 115.469 12.5573 115.349 13.1719 115.109C13.7865 114.87 14.2656 114.495 14.6094 113.984C14.9635 113.474 15.1406 112.88 15.1406 112.203C15.1406 111.37 14.8958 110.682 14.4062 110.141C13.9167 109.599 13.2969 109.26 12.5469 109.125C11.9948 109.021 10.8854 108.969 9.21875 108.969H6.98438ZM23.7188 128V105.094H33.4531C35.901 105.094 37.6771 105.302 38.7812 105.719C39.8958 106.125 40.7865 106.854 41.4531 107.906C42.1198 108.958 42.4531 110.161 42.4531 111.516C42.4531 113.234 41.9479 114.656 40.9375 115.781C39.9271 116.896 38.4167 117.599 36.4062 117.891C37.4062 118.474 38.2292 119.115 38.875 119.812C39.5312 120.51 40.4115 121.75 41.5156 123.531L44.3125 128H38.7812L35.4375 123.016C34.25 121.234 33.4375 120.115 33 119.656C32.5625 119.188 32.099 118.87 31.6094 118.703C31.1198 118.526 30.3438 118.438 29.2812 118.438H28.3438V128H23.7188ZM28.3438 114.781H31.7656C33.9844 114.781 35.3698 114.688 35.9219 114.5C36.474 114.312 36.9062 113.99 37.2188 113.531C37.5312 113.073 37.6875 112.5 37.6875 111.812C37.6875 111.042 37.4792 110.422 37.0625 109.953C36.6562 109.474 36.0781 109.172 35.3281 109.047C34.9531 108.995 33.8281 108.969 31.9531 108.969H28.3438V114.781ZM46.6875 128V105.094H51.3125V128H46.6875ZM55.6719 128V105.094H62.5938L66.75 120.719L70.8594 105.094H77.7969V128H73.5V109.969L68.9531 128H64.5L59.9688 109.969V128H55.6719ZM82.3906 128V105.094H99.375V108.969H87.0156V114.047H98.5156V117.906H87.0156V124.141H99.8125V128H82.3906ZM123.297 119.578V115.719H133.266V124.844C132.297 125.781 130.891 126.609 129.047 127.328C127.214 128.036 125.354 128.391 123.469 128.391C121.073 128.391 118.984 127.891 117.203 126.891C115.422 125.88 114.083 124.443 113.188 122.578C112.292 120.703 111.844 118.667 111.844 116.469C111.844 114.083 112.344 111.964 113.344 110.109C114.344 108.255 115.807 106.833 117.734 105.844C119.203 105.083 121.031 104.703 123.219 104.703C126.062 104.703 128.281 105.302 129.875 106.5C131.479 107.688 132.51 109.333 132.969 111.438L128.375 112.297C128.052 111.172 127.443 110.286 126.547 109.641C125.661 108.984 124.552 108.656 123.219 108.656C121.198 108.656 119.589 109.297 118.391 110.578C117.203 111.859 116.609 113.76 116.609 116.281C116.609 119 117.214 121.042 118.422 122.406C119.63 123.76 121.214 124.438 123.172 124.438C124.141 124.438 125.109 124.25 126.078 123.875C127.057 123.49 127.896 123.026 128.594 122.484V119.578H123.297ZM137.547 128V105.094H154.531V108.969H142.172V114.047H153.672V117.906H142.172V124.141H154.969V128H137.547ZM158.938 128V105.094H163.438L172.812 120.391V105.094H177.109V128H172.469L163.234 113.062V128H158.938ZM182.016 128V105.094H199V108.969H186.641V114.047H198.141V117.906H186.641V124.141H199.438V128H182.016ZM208.516 128V108.969H201.719V105.094H219.922V108.969H213.141V128H208.516ZM222.781 128V105.094H227.406V128H222.781ZM246.484 119.578L250.969 121C250.281 123.5 249.135 125.359 247.531 126.578C245.938 127.786 243.911 128.391 241.453 128.391C238.411 128.391 235.911 127.354 233.953 125.281C231.995 123.198 231.016 120.354 231.016 116.75C231.016 112.938 232 109.979 233.969 107.875C235.938 105.76 238.526 104.703 241.734 104.703C244.536 104.703 246.812 105.531 248.562 107.188C249.604 108.167 250.385 109.573 250.906 111.406L246.328 112.5C246.057 111.312 245.49 110.375 244.625 109.688C243.771 109 242.729 108.656 241.5 108.656C239.802 108.656 238.422 109.266 237.359 110.484C236.307 111.703 235.781 113.677 235.781 116.406C235.781 119.302 236.302 121.365 237.344 122.594C238.385 123.823 239.74 124.438 241.406 124.438C242.635 124.438 243.693 124.047 244.578 123.266C245.464 122.484 246.099 121.255 246.484 119.578ZM253.781 120.547L258.281 120.109C258.552 121.62 259.099 122.729 259.922 123.438C260.755 124.146 261.875 124.5 263.281 124.5C264.771 124.5 265.891 124.188 266.641 123.562C267.401 122.927 267.781 122.188 267.781 121.344C267.781 120.802 267.62 120.344 267.297 119.969C266.984 119.583 266.432 119.25 265.641 118.969C265.099 118.781 263.865 118.448 261.938 117.969C259.458 117.354 257.719 116.599 256.719 115.703C255.312 114.443 254.609 112.906 254.609 111.094C254.609 109.927 254.938 108.839 255.594 107.828C256.26 106.807 257.214 106.031 258.453 105.5C259.703 104.969 261.208 104.703 262.969 104.703C265.844 104.703 268.005 105.333 269.453 106.594C270.911 107.854 271.677 109.536 271.75 111.641L267.125 111.844C266.927 110.667 266.5 109.823 265.844 109.312C265.198 108.792 264.224 108.531 262.922 108.531C261.578 108.531 260.526 108.807 259.766 109.359C259.276 109.714 259.031 110.188 259.031 110.781C259.031 111.323 259.26 111.786 259.719 112.172C260.302 112.661 261.719 113.172 263.969 113.703C266.219 114.234 267.88 114.786 268.953 115.359C270.036 115.922 270.88 116.698 271.484 117.688C272.099 118.667 272.406 119.88 272.406 121.328C272.406 122.641 272.042 123.87 271.312 125.016C270.583 126.161 269.552 127.016 268.219 127.578C266.885 128.13 265.224 128.406 263.234 128.406C260.339 128.406 258.115 127.74 256.562 126.406C255.01 125.062 254.083 123.109 253.781 120.547Z" fill="#2B3F6B"/>
</svg>
