<svg width="228" height="91" viewBox="0 0 228 91" fill="none" xmlns="http://www.w3.org/2000/svg">
<path d="M62 8C83.3333 -2.66667 104.667 -2.66667 126 8C147.333 18.6667 168.667 18.6667 190 8C200.667 2.66667 208.667 2.66667 214 8C219.333 13.3333 219.333 18.6667 214 24C203.333 34.6667 190 37.3333 174 32C163.333 29.3333 152.667 29.3333 142 32C131.333 34.6667 120.667 34.6667 110 32C99.3333 29.3333 88.6667 29.3333 78 32C62 37.3333 48.6667 34.6667 38 24C32.6667 18.6667 32.6667 13.3333 38 8C43.3333 2.66667 51.3333 2.66667 62 8Z" fill="#1A75FF"/>
<path d="M30 16C24.6667 10.6667 19.3333 10.6667 14 16C8.66667 21.3333 8.66667 26.6667 14 32C19.3333 37.3333 24.6667 37.3333 30 32C35.3333 26.6667 35.3333 21.3333 30 16Z" fill="#1A75FF"/>
<path d="M78 28C84.6274 28 90 22.6274 90 16C90 9.37258 84.6274 4 78 4C71.3726 4 66 9.37258 66 16C66 22.6274 71.3726 28 78 28Z" fill="white"/>
<path d="M126 29.6C131.302 29.6 135.6 25.302 135.6 20C135.6 14.6981 131.302 10.4 126 10.4C120.698 10.4 116.4 14.6981 116.4 20C116.4 25.302 120.698 29.6 126 29.6Z" fill="white"/>
<path d="M174 28C180.627 28 186 22.6274 186 16C186 9.37258 180.627 4 174 4C167.373 4 162 9.37258 162 16C162 22.6274 167.373 28 174 28Z" fill="white"/>
<path d="M2.46875 60V37.0938H9.89062C12.7031 37.0938 14.5365 37.2083 15.3906 37.4375C16.7031 37.7812 17.8021 38.5312 18.6875 39.6875C19.5729 40.8333 20.0156 42.3177 20.0156 44.1406C20.0156 45.5469 19.7604 46.7292 19.25 47.6875C18.7396 48.6458 18.0885 49.401 17.2969 49.9531C16.5156 50.4948 15.7188 50.8542 14.9062 51.0312C13.8021 51.25 12.2031 51.3594 10.1094 51.3594H7.09375V60H2.46875ZM7.09375 40.9688V47.4688H9.625C11.4479 47.4688 12.6667 47.349 13.2812 47.1094C13.8958 46.8698 14.375 46.4948 14.7188 45.9844C15.0729 45.474 15.25 44.8802 15.25 44.2031C15.25 43.3698 15.0052 42.6823 14.5156 42.1406C14.026 41.599 13.4062 41.2604 12.6562 41.125C12.1042 41.0208 10.9948 40.9688 9.32812 40.9688H7.09375ZM23.7812 37.0938H28.4062V49.5C28.4062 51.4688 28.4635 52.7448 28.5781 53.3281C28.776 54.2656 29.2448 55.0208 29.9844 55.5938C30.7344 56.1562 31.7552 56.4375 33.0469 56.4375C34.3594 56.4375 35.349 56.1719 36.0156 55.6406C36.6823 55.099 37.0833 54.4375 37.2188 53.6562C37.3542 52.875 37.4219 51.5781 37.4219 49.7656V37.0938H42.0469V49.125C42.0469 51.875 41.9219 53.8177 41.6719 54.9531C41.4219 56.0885 40.9583 57.0469 40.2812 57.8281C39.6146 58.6094 38.7188 59.2344 37.5938 59.7031C36.4688 60.1615 35 60.3906 33.1875 60.3906C31 60.3906 29.3385 60.1406 28.2031 59.6406C27.0781 59.1302 26.1875 58.474 25.5312 57.6719C24.875 56.8594 24.4427 56.0104 24.2344 55.125C23.9323 53.8125 23.7812 51.875 23.7812 49.3125V37.0938ZM46.9531 60V37.0938H56.6875C59.1354 37.0938 60.9115 37.3021 62.0156 37.7188C63.1302 38.125 64.0208 38.8542 64.6875 39.9062C65.3542 40.9583 65.6875 42.1615 65.6875 43.5156C65.6875 45.2344 65.1823 46.6562 64.1719 47.7812C63.1615 48.8958 61.651 49.599 59.6406 49.8906C60.6406 50.474 61.4635 51.1146 62.1094 51.8125C62.7656 52.5104 63.6458 53.75 64.75 55.5312L67.5469 60H62.0156L58.6719 55.0156C57.4844 53.2344 56.6719 52.1146 56.2344 51.6562C55.7969 51.1875 55.3333 50.8698 54.8438 50.7031C54.3542 50.526 53.5781 50.4375 52.5156 50.4375H51.5781V60H46.9531ZM51.5781 46.7812H55C57.2188 46.7812 58.6042 46.6875 59.1562 46.5C59.7083 46.3125 60.1406 45.9896 60.4531 45.5312C60.7656 45.0729 60.9219 44.5 60.9219 43.8125C60.9219 43.0417 60.7135 42.4219 60.2969 41.9531C59.8906 41.474 59.3125 41.1719 58.5625 41.0469C58.1875 40.9948 57.0625 40.9688 55.1875 40.9688H51.5781V46.7812ZM70.0625 60V37.0938H87.0469V40.9688H74.6875V46.0469H86.1875V49.9062H74.6875V56.1406H87.4844V60H70.0625ZM100.312 60V37.0938H107.734C110.547 37.0938 112.38 37.2083 113.234 37.4375C114.547 37.7812 115.646 38.5312 116.531 39.6875C117.417 40.8333 117.859 42.3177 117.859 44.1406C117.859 45.5469 117.604 46.7292 117.094 47.6875C116.583 48.6458 115.932 49.401 115.141 49.9531C114.359 50.4948 113.562 50.8542 112.75 51.0312C111.646 51.25 110.047 51.3594 107.953 51.3594H104.938V60H100.312ZM104.938 40.9688V47.4688H107.469C109.292 47.4688 110.51 47.349 111.125 47.1094C111.74 46.8698 112.219 46.4948 112.562 45.9844C112.917 45.474 113.094 44.8802 113.094 44.2031C113.094 43.3698 112.849 42.6823 112.359 42.1406C111.87 41.599 111.25 41.2604 110.5 41.125C109.948 41.0208 108.839 40.9688 107.172 40.9688H104.938ZM121.672 60V37.0938H131.406C133.854 37.0938 135.63 37.3021 136.734 37.7188C137.849 38.125 138.74 38.8542 139.406 39.9062C140.073 40.9583 140.406 42.1615 140.406 43.5156C140.406 45.2344 139.901 46.6562 138.891 47.7812C137.88 48.8958 136.37 49.599 134.359 49.8906C135.359 50.474 136.182 51.1146 136.828 51.8125C137.484 52.5104 138.365 53.75 139.469 55.5312L142.266 60H136.734L133.391 55.0156C132.203 53.2344 131.391 52.1146 130.953 51.6562C130.516 51.1875 130.052 50.8698 129.562 50.7031C129.073 50.526 128.297 50.4375 127.234 50.4375H126.297V60H121.672ZM126.297 46.7812H129.719C131.938 46.7812 133.323 46.6875 133.875 46.5C134.427 46.3125 134.859 45.9896 135.172 45.5312C135.484 45.0729 135.641 44.5 135.641 43.8125C135.641 43.0417 135.432 42.4219 135.016 41.9531C134.609 41.474 134.031 41.1719 133.281 41.0469C132.906 40.9948 131.781 40.9688 129.906 40.9688H126.297V46.7812ZM165.438 60H160.406L158.406 54.7969H149.25L147.359 60H142.453L151.375 37.0938H156.266L165.438 60ZM156.922 50.9375L153.766 42.4375L150.672 50.9375H156.922ZM167.766 60V37.0938H172.391V60H167.766ZM176.828 60V37.0938H186.562C189.01 37.0938 190.786 37.3021 191.891 37.7188C193.005 38.125 193.896 38.8542 194.562 39.9062C195.229 40.9583 195.562 42.1615 195.562 43.5156C195.562 45.2344 195.057 46.6562 194.047 47.7812C193.036 48.8958 191.526 49.599 189.516 49.8906C190.516 50.474 191.339 51.1146 191.984 51.8125C192.641 52.5104 193.521 53.75 194.625 55.5312L197.422 60H191.891L188.547 55.0156C187.359 53.2344 186.547 52.1146 186.109 51.6562C185.672 51.1875 185.208 50.8698 184.719 50.7031C184.229 50.526 183.453 50.4375 182.391 50.4375H181.453V60H176.828ZM181.453 46.7812H184.875C187.094 46.7812 188.479 46.6875 189.031 46.5C189.583 46.3125 190.016 45.9896 190.328 45.5312C190.641 45.0729 190.797 44.5 190.797 43.8125C190.797 43.0417 190.589 42.4219 190.172 41.9531C189.766 41.474 189.188 41.1719 188.438 41.0469C188.062 40.9948 186.938 40.9688 185.062 40.9688H181.453V46.7812ZM199.797 60V37.0938H204.422V60H199.797ZM208.844 60V37.0938H225.828V40.9688H213.469V46.0469H224.969V49.9062H213.469V56.1406H226.266V60H208.844Z" fill="#1A75FF"/>
<path d="M79.6055 85V67.8203H85.5234C86.8594 67.8203 87.8789 67.9023 88.582 68.0664C89.5664 68.293 90.4062 68.7031 91.1016 69.2969C92.0078 70.0625 92.6836 71.043 93.1289 72.2383C93.582 73.4258 93.8086 74.7852 93.8086 76.3164C93.8086 77.6211 93.6562 78.7773 93.3516 79.7852C93.0469 80.793 92.6562 81.6289 92.1797 82.293C91.7031 82.9492 91.1797 83.4688 90.6094 83.8516C90.0469 84.2266 89.3633 84.5117 88.5586 84.707C87.7617 84.9023 86.8438 85 85.8047 85H79.6055ZM81.8789 82.9727H85.5469C86.6797 82.9727 87.5664 82.8672 88.207 82.6562C88.8555 82.4453 89.3711 82.1484 89.7539 81.7656C90.293 81.2266 90.7109 80.5039 91.0078 79.5977C91.3125 78.6836 91.4648 77.5781 91.4648 76.2812C91.4648 74.4844 91.168 73.1055 90.5742 72.1445C89.9883 71.1758 89.2734 70.5273 88.4297 70.1992C87.8203 69.9648 86.8398 69.8477 85.4883 69.8477H81.8789V82.9727ZM95.0625 85L101.66 67.8203H104.109L111.141 85H108.551L106.547 79.7969H99.3633L97.4766 85H95.0625ZM100.02 77.9453H105.844L104.051 73.1875C103.504 71.7422 103.098 70.5547 102.832 69.625C102.613 70.7266 102.305 71.8203 101.906 72.9062L100.02 77.9453ZM113.344 85V67.8203H115.617V85H113.344ZM119.672 85V67.8203H127.289C128.82 67.8203 129.984 67.9766 130.781 68.2891C131.578 68.5938 132.215 69.1367 132.691 69.918C133.168 70.6992 133.406 71.5625 133.406 72.5078C133.406 73.7266 133.012 74.7539 132.223 75.5898C131.434 76.4258 130.215 76.957 128.566 77.1836C129.168 77.4727 129.625 77.7578 129.938 78.0391C130.602 78.6484 131.23 79.4102 131.824 80.3242L134.812 85H131.953L129.68 81.4258C129.016 80.3945 128.469 79.6055 128.039 79.0586C127.609 78.5117 127.223 78.1289 126.879 77.9102C126.543 77.6914 126.199 77.5391 125.848 77.4531C125.59 77.3984 125.168 77.3711 124.582 77.3711H121.945V85H119.672ZM121.945 75.4023H126.832C127.871 75.4023 128.684 75.2969 129.27 75.0859C129.855 74.8672 130.301 74.5234 130.605 74.0547C130.91 73.5781 131.062 73.0625 131.062 72.5078C131.062 71.6953 130.766 71.0273 130.172 70.5039C129.586 69.9805 128.656 69.7188 127.383 69.7188H121.945V75.4023ZM141.375 85V77.7227L134.754 67.8203H137.52L140.906 73C141.531 73.9688 142.113 74.9375 142.652 75.9062C143.168 75.0078 143.793 73.9961 144.527 72.8711L147.855 67.8203H150.504L143.648 77.7227V85H141.375Z" fill="#666666"/>
</svg>
