<svg width="260" height="128" viewBox="0 0 260 128" fill="none" xmlns="http://www.w3.org/2000/svg">
<path d="M0 28H220L240 8V108L220 128H0V28Z" fill="#8B4513"/>
<path d="M20 38H200M20 58H200M20 78H200M20 98H200" stroke="#733A0F" stroke-width="1.5"/>
<path d="M260 48H240V88H260V48Z" fill="#733A0F"/>
<path d="M51.458 22.9209C52.2497 23.4652 52.8929 24.1517 53.3877 24.9805C53.8825 25.7969 54.1299 26.7617 54.1299 27.875C54.1299 29.2109 53.8454 30.3428 53.2764 31.2705C52.7197 32.1859 51.9157 32.9095 50.8643 33.4414C49.751 34.0104 48.4645 34.4124 47.0049 34.6475C45.5576 34.8825 43.8506 35 41.8838 35H28.209V33.5527C28.5924 33.5156 29.0749 33.46 29.6562 33.3857C30.2376 33.3115 30.6458 33.2249 30.8809 33.126C31.3385 32.9404 31.6478 32.6992 31.8086 32.4023C31.9818 32.0931 32.0684 31.6973 32.0684 31.2148V12.6602C32.0684 12.2148 32.0003 11.8438 31.8643 11.5469C31.7282 11.25 31.4004 10.9902 30.8809 10.7676C30.4974 10.6068 30.0521 10.4769 29.5449 10.3779C29.0378 10.2666 28.5924 10.18 28.209 10.1182V8.6709H42.5146C46.1143 8.6709 48.7119 9.16569 50.3076 10.1553C51.9033 11.1449 52.7012 12.6045 52.7012 14.5342C52.7012 15.4248 52.5218 16.2103 52.1631 16.8906C51.8044 17.5586 51.291 18.14 50.623 18.6348C50.0169 19.0924 49.2933 19.4883 48.4521 19.8223C47.611 20.1562 46.708 20.4346 45.7432 20.6572V21.0098C46.708 21.1087 47.71 21.3252 48.749 21.6592C49.7881 21.9808 50.6911 22.4014 51.458 22.9209ZM45.4834 14.998C45.4834 13.5384 45.069 12.4004 44.2402 11.584C43.4238 10.7676 42.193 10.3594 40.5479 10.3594C40.3128 10.3594 40.0036 10.3717 39.6201 10.3965C39.249 10.4089 38.9274 10.4212 38.6553 10.4336V20.1934H39.6201C41.624 20.1934 43.1022 19.7295 44.0547 18.8018C45.0072 17.8617 45.4834 16.5938 45.4834 14.998ZM46.7822 27.6338C46.7822 25.8031 46.238 24.3991 45.1494 23.4219C44.0609 22.4447 42.4961 21.9561 40.4551 21.9561C40.2201 21.9561 39.9046 21.9684 39.5088 21.9932C39.1253 22.0055 38.8408 22.0179 38.6553 22.0303V31.6602C38.7666 32.1178 39.113 32.5075 39.6943 32.8291C40.2757 33.1383 40.9808 33.293 41.8096 33.293C43.2816 33.293 44.4753 32.7982 45.3906 31.8086C46.3184 30.819 46.7822 29.4274 46.7822 27.6338ZM87.3242 10.1182C86.9655 10.1553 86.446 10.2419 85.7656 10.3779C85.0977 10.5016 84.5348 10.7243 84.0771 11.0459C83.6071 11.3551 83.2731 11.9118 83.0752 12.7158C82.8896 13.5199 82.7969 14.7259 82.7969 16.334V26.1309C82.7969 29.013 81.8197 31.3324 79.8652 33.0889C77.9108 34.8454 75.3255 35.7236 72.1094 35.7236C68.3613 35.7236 65.4606 34.8763 63.4072 33.1816C61.3538 31.487 60.3271 29.1243 60.3271 26.0938V12.623C60.3271 12.1901 60.2406 11.819 60.0674 11.5098C59.9066 11.2005 59.5911 10.9222 59.1211 10.6748C58.7995 10.514 58.4036 10.3841 57.9336 10.2852C57.4635 10.1862 57.0801 10.1182 56.7832 10.0811V8.6709H70.5879V10.0811C70.1921 10.1058 69.79 10.1553 69.3818 10.2295C68.9736 10.2913 68.5592 10.3903 68.1387 10.5264C67.6686 10.6748 67.3532 10.9222 67.1924 11.2686C67.0316 11.6149 66.9512 12.0046 66.9512 12.4375V25.7227C66.9512 28.3327 67.5264 30.2314 68.6768 31.4189C69.8271 32.6064 71.4971 33.2002 73.6865 33.2002C75.8389 33.2002 77.5273 32.5446 78.752 31.2334C79.9766 29.9222 80.5889 27.9925 80.5889 25.4443V16.5195C80.5889 14.9362 80.4775 13.7549 80.2549 12.9756C80.0446 12.1839 79.7168 11.6149 79.2715 11.2686C78.9499 10.9964 78.387 10.749 77.583 10.5264C76.7913 10.3037 76.2347 10.1676 75.9131 10.1182V8.6709H87.3242V10.1182ZM113.171 16.2041H111.742C111.359 15.0785 110.74 13.8724 109.887 12.5859C109.046 11.2995 108.266 10.6068 107.549 10.5078C107.153 10.4583 106.664 10.415 106.083 10.3779C105.502 10.3408 105.001 10.3223 104.58 10.3223H103.708V30.9736C103.708 31.4189 103.788 31.8148 103.949 32.1611C104.11 32.4951 104.425 32.7611 104.896 32.959C105.18 33.0703 105.619 33.1878 106.213 33.3115C106.819 33.4229 107.332 33.5033 107.753 33.5527V35H93.0762V33.5527C93.4349 33.5156 93.9359 33.4661 94.5791 33.4043C95.2347 33.3301 95.68 33.2435 95.915 33.1445C96.3975 32.9466 96.7191 32.6807 96.8799 32.3467C97.0407 32.0127 97.1211 31.6169 97.1211 31.1592V10.3223H96.249C95.8285 10.3223 95.3275 10.3408 94.7461 10.3779C94.1647 10.415 93.6761 10.4583 93.2803 10.5078C92.5628 10.6068 91.7773 11.2995 90.9238 12.5859C90.0827 13.8724 89.4704 15.0785 89.0869 16.2041H87.6582V8.6709H113.171V16.2041ZM128.516 35.7051C126.586 35.7051 124.78 35.3958 123.098 34.7773C121.415 34.1465 119.95 33.2373 118.7 32.0498C117.476 30.887 116.511 29.4521 115.806 27.7451C115.101 26.0257 114.748 24.1393 114.748 22.0859C114.748 20.0449 115.101 18.1585 115.806 16.4268C116.523 14.6826 117.525 13.1735 118.812 11.8994C120.073 10.6501 121.589 9.68522 123.357 9.00488C125.126 8.31217 127.019 7.96582 129.035 7.96582C130.495 7.96582 131.825 8.14518 133.024 8.50391C134.224 8.85026 135.239 9.24609 136.067 9.69141L137.218 8.6709H138.832L138.999 18.2822H137.366C136.438 15.3506 135.325 13.1982 134.026 11.8252C132.728 10.4521 131.144 9.76562 129.276 9.76562C126.951 9.76562 125.182 10.7923 123.97 12.8457C122.757 14.8867 122.151 17.7565 122.151 21.4551C122.151 23.5456 122.355 25.333 122.764 26.8174C123.184 28.2894 123.729 29.4769 124.396 30.3799C125.114 31.32 125.961 32.0127 126.938 32.458C127.916 32.891 128.998 33.1074 130.186 33.1074C131.917 33.1074 133.457 32.6374 134.806 31.6973C136.166 30.7572 137.403 29.3346 138.517 27.4297L140.112 28.3945C139.58 29.4831 138.974 30.4603 138.294 31.3262C137.614 32.1797 136.828 32.9157 135.938 33.5342C134.96 34.2145 133.878 34.7464 132.69 35.1299C131.515 35.5133 130.124 35.7051 128.516 35.7051ZM174.049 35H159.817V33.5527C160.127 33.528 160.578 33.4909 161.172 33.4414C161.766 33.3919 162.174 33.3177 162.396 33.2188C162.854 33.0332 163.17 32.792 163.343 32.4951C163.516 32.1859 163.603 31.7962 163.603 31.3262V22.2529H152.358V31.1221C152.358 31.5426 152.445 31.9199 152.618 32.2539C152.804 32.5879 153.113 32.8477 153.546 33.0332C153.781 33.1322 154.183 33.2373 154.752 33.3486C155.321 33.46 155.785 33.528 156.144 33.5527V35H141.912V33.5527C142.221 33.5404 142.673 33.5033 143.267 33.4414C143.873 33.3672 144.312 33.2806 144.584 33.1816C145.029 33.0208 145.339 32.7796 145.512 32.458C145.685 32.124 145.771 31.7344 145.771 31.2891V12.6602C145.771 12.2272 145.691 11.8623 145.53 11.5654C145.382 11.2686 145.066 11.0088 144.584 10.7861C144.225 10.6253 143.755 10.4831 143.174 10.3594C142.592 10.2233 142.172 10.1429 141.912 10.1182V8.6709H156.144V10.1182C155.76 10.1429 155.302 10.2048 154.771 10.3037C154.239 10.4027 153.83 10.4954 153.546 10.582C153.063 10.7428 152.742 11.0026 152.581 11.3613C152.433 11.7077 152.358 12.0788 152.358 12.4746V20.3418H163.603V12.6602C163.603 12.2272 163.522 11.8623 163.361 11.5654C163.201 11.2686 162.879 11.0088 162.396 10.7861C162.075 10.6377 161.642 10.5016 161.098 10.3779C160.566 10.2419 160.139 10.1553 159.817 10.1182V8.6709H174.049V10.1182C173.653 10.1429 173.208 10.1986 172.713 10.2852C172.218 10.3594 171.773 10.4583 171.377 10.582C170.907 10.7428 170.591 10.9964 170.431 11.3428C170.27 11.6891 170.189 12.0664 170.189 12.4746V31.1221C170.189 31.5674 170.27 31.9447 170.431 32.2539C170.591 32.5632 170.907 32.8229 171.377 33.0332C171.674 33.1569 172.101 33.2682 172.657 33.3672C173.226 33.4661 173.69 33.528 174.049 33.5527V35ZM199.951 15.3877H198.541C198.182 14.3857 197.564 13.3714 196.686 12.3447C195.807 11.318 194.935 10.7119 194.069 10.5264C193.698 10.4398 193.179 10.3903 192.511 10.3779C191.855 10.3532 191.311 10.3408 190.878 10.3408H187.056V20.5088H189.765C190.445 20.5088 191.063 20.4284 191.62 20.2676C192.177 20.1068 192.684 19.7975 193.142 19.3398C193.426 19.0553 193.711 18.5544 193.995 17.8369C194.292 17.1195 194.484 16.4948 194.57 15.9629H195.98V26.9473H194.57C194.496 26.4277 194.304 25.7783 193.995 24.999C193.698 24.2074 193.414 23.6631 193.142 23.3662C192.733 22.9209 192.251 22.6178 191.694 22.457C191.138 22.2839 190.494 22.1973 189.765 22.1973H187.056V29.7861C187.056 30.5778 187.111 31.2087 187.223 31.6787C187.346 32.1364 187.569 32.4889 187.891 32.7363C188.2 32.9714 188.62 33.126 189.152 33.2002C189.697 33.2744 190.433 33.3115 191.36 33.3115C191.793 33.3115 192.313 33.3053 192.919 33.293C193.525 33.2806 194.057 33.2435 194.515 33.1816C195.034 33.1198 195.517 33.027 195.962 32.9033C196.42 32.7796 196.76 32.6003 196.982 32.3652C197.576 31.7591 198.244 30.8376 198.986 29.6006C199.729 28.3512 200.217 27.4173 200.452 26.7988H201.807L201.306 35H176.609V33.5527C176.956 33.528 177.426 33.4785 178.02 33.4043C178.613 33.3301 179.034 33.2435 179.281 33.1445C179.751 32.9466 180.067 32.6992 180.228 32.4023C180.388 32.0931 180.469 31.7035 180.469 31.2334V12.6602C180.469 12.2148 180.401 11.8499 180.265 11.5654C180.129 11.2686 179.801 11.0026 179.281 10.7676C178.96 10.6191 178.508 10.4831 177.927 10.3594C177.345 10.2357 176.906 10.1553 176.609 10.1182V8.6709H199.951V15.3877ZM234.259 35H224.165C222.421 32.3281 220.967 30.2005 219.805 28.6172C218.654 27.0339 217.219 25.2031 215.5 23.125H214.479V31.1221C214.479 31.5674 214.56 31.9447 214.721 32.2539C214.894 32.5632 215.215 32.8229 215.686 33.0332C215.921 33.1322 216.285 33.2373 216.78 33.3486C217.287 33.4476 217.72 33.5156 218.079 33.5527V35H204.033V33.5527C204.392 33.5156 204.862 33.4661 205.443 33.4043C206.037 33.3301 206.458 33.2435 206.705 33.1445C207.175 32.9466 207.491 32.6992 207.651 32.4023C207.812 32.0931 207.893 31.7035 207.893 31.2334V12.6602C207.893 12.2148 207.825 11.8438 207.688 11.5469C207.552 11.25 207.225 10.9902 206.705 10.7676C206.309 10.6068 205.839 10.4707 205.295 10.3594C204.763 10.248 204.342 10.1676 204.033 10.1182V8.6709H218.803C222.105 8.6709 224.61 9.19043 226.317 10.2295C228.037 11.2562 228.896 12.8148 228.896 14.9053C228.896 16.7484 228.365 18.2327 227.301 19.3584C226.249 20.4717 224.641 21.3438 222.477 21.9746C223.318 23.0632 224.295 24.3249 225.408 25.7598C226.534 27.1947 227.703 28.6605 228.915 30.1572C229.299 30.6396 229.818 31.2334 230.474 31.9385C231.142 32.6312 231.729 33.0579 232.236 33.2188C232.521 33.3053 232.88 33.3796 233.312 33.4414C233.758 33.5033 234.073 33.5404 234.259 33.5527V35ZM221.623 15.4248C221.623 13.6683 221.128 12.388 220.139 11.584C219.161 10.7676 217.764 10.3594 215.945 10.3594H214.479V21.3809H215.89C217.708 21.3809 219.118 20.9046 220.12 19.9521C221.122 18.9997 221.623 17.4906 221.623 15.4248Z" fill="#BFBDB3"/>
<path d="M65.1143 73H54.2041C53.9072 72.666 53.5238 72.2331 53.0537 71.7012C52.5837 71.1569 52.1816 70.6745 51.8477 70.2539C50.5365 71.4661 49.2253 72.3382 47.9141 72.8701C46.6152 73.3896 45.2298 73.6494 43.7578 73.6494C41.4447 73.6494 39.5459 73.0247 38.0615 71.7754C36.5895 70.526 35.8535 68.8994 35.8535 66.8955C35.8535 65.8936 35.9834 65.0339 36.2432 64.3164C36.5153 63.599 36.9482 62.8815 37.542 62.1641C38.111 61.4714 38.8161 60.8529 39.6572 60.3086C40.4984 59.752 41.4447 59.2324 42.4961 58.75C41.3828 57.3398 40.6035 56.14 40.1582 55.1504C39.7253 54.1608 39.5088 53.1465 39.5088 52.1074C39.5088 50.3262 40.251 48.8604 41.7354 47.71C43.2197 46.5472 44.9948 45.9658 47.0605 45.9658C48.9902 45.9658 50.555 46.4235 51.7549 47.3389C52.9548 48.2542 53.5547 49.4665 53.5547 50.9756C53.5547 52.2868 53.196 53.4619 52.4785 54.501C51.7611 55.5277 50.5674 56.5358 48.8975 57.5254C50.2458 59.2572 51.2848 60.5622 52.0146 61.4404C52.7568 62.3063 53.7402 63.4505 54.9648 64.873C55.7441 63.7227 56.3255 62.665 56.709 61.7002C57.1048 60.7354 57.3027 59.9251 57.3027 59.2695C57.3027 58.8984 57.0244 58.6016 56.4678 58.3789C55.9235 58.1439 55.1504 57.9274 54.1484 57.7295V56.3193H64.5205V57.7295C63.3949 57.8285 62.5599 57.9645 62.0156 58.1377C61.4837 58.3109 60.958 58.6634 60.4385 59.1953C60.2158 59.418 59.9375 59.8138 59.6035 60.3828C59.2819 60.9395 58.9727 61.4775 58.6758 61.9971C58.3171 62.6279 57.9336 63.2897 57.5254 63.9824C57.1172 64.6751 56.6224 65.3988 56.041 66.1533C57.179 67.4893 58.113 68.4912 58.8428 69.1592C59.585 69.8148 60.1911 70.2663 60.6611 70.5137C61.193 70.7982 61.8672 71.027 62.6836 71.2002C63.5 71.361 64.3102 71.4661 65.1143 71.5156V73ZM50.7344 51.2539C50.7344 50.1654 50.4684 49.3118 49.9365 48.6934C49.417 48.0625 48.7367 47.7471 47.8955 47.7471C47.0915 47.7471 46.4421 48.0068 45.9473 48.5264C45.4525 49.0335 45.2051 49.7015 45.2051 50.5303C45.2051 51.2477 45.4339 52.0641 45.8916 52.9795C46.3493 53.8825 47.0544 54.9834 48.0068 56.2822C48.9469 55.6266 49.6335 54.8659 50.0664 54C50.5117 53.1217 50.7344 52.2064 50.7344 51.2539ZM50.8643 69.0479C49.8252 67.7985 48.613 66.3451 47.2275 64.6875C45.8545 63.0299 44.5742 61.4528 43.3867 59.9561C42.7311 60.5993 42.2549 61.3538 41.958 62.2197C41.6735 63.0732 41.5312 63.9329 41.5312 64.7988C41.5312 66.444 42.057 67.7861 43.1084 68.8252C44.1598 69.8643 45.4958 70.3838 47.1162 70.3838C47.8708 70.3838 48.5264 70.291 49.083 70.1055C49.6396 69.9076 50.2334 69.555 50.8643 69.0479ZM99.1436 60.9209C99.9352 61.4652 100.578 62.1517 101.073 62.9805C101.568 63.7969 101.815 64.7617 101.815 65.875C101.815 67.2109 101.531 68.3428 100.962 69.2705C100.405 70.1859 99.6012 70.9095 98.5498 71.4414C97.4365 72.0104 96.1501 72.4124 94.6904 72.6475C93.2432 72.8825 91.5361 73 89.5693 73H75.8945V71.5527C76.278 71.5156 76.7604 71.46 77.3418 71.3857C77.9232 71.3115 78.3314 71.2249 78.5664 71.126C79.0241 70.9404 79.3333 70.6992 79.4941 70.4023C79.6673 70.0931 79.7539 69.6973 79.7539 69.2148V50.6602C79.7539 50.2148 79.6859 49.8438 79.5498 49.5469C79.4137 49.25 79.0859 48.9902 78.5664 48.7676C78.1829 48.6068 77.7376 48.4769 77.2305 48.3779C76.7233 48.2666 76.278 48.18 75.8945 48.1182V46.6709H90.2002C93.7998 46.6709 96.3975 47.1657 97.9932 48.1553C99.5889 49.1449 100.387 50.6045 100.387 52.5342C100.387 53.4248 100.207 54.2103 99.8486 54.8906C99.4899 55.5586 98.9766 56.14 98.3086 56.6348C97.7025 57.0924 96.9788 57.4883 96.1377 57.8223C95.2965 58.1562 94.3936 58.4346 93.4287 58.6572V59.0098C94.3936 59.1087 95.3955 59.3252 96.4346 59.6592C97.4736 59.9808 98.3766 60.4014 99.1436 60.9209ZM93.1689 52.998C93.1689 51.5384 92.7546 50.4004 91.9258 49.584C91.1094 48.7676 89.8786 48.3594 88.2334 48.3594C87.9984 48.3594 87.6891 48.3717 87.3057 48.3965C86.9346 48.4089 86.613 48.4212 86.3408 48.4336V58.1934H87.3057C89.3096 58.1934 90.7878 57.7295 91.7402 56.8018C92.6927 55.8617 93.1689 54.5938 93.1689 52.998ZM94.4678 65.6338C94.4678 63.8031 93.9235 62.3991 92.835 61.4219C91.7464 60.4447 90.1816 59.9561 88.1406 59.9561C87.9056 59.9561 87.5902 59.9684 87.1943 59.9932C86.8109 60.0055 86.5264 60.0179 86.3408 60.0303V69.6602C86.4521 70.1178 86.7985 70.5075 87.3799 70.8291C87.9613 71.1383 88.6663 71.293 89.4951 71.293C90.9671 71.293 92.1608 70.7982 93.0762 69.8086C94.0039 68.819 94.4678 67.4274 94.4678 65.6338ZM129.017 49.6025C130.315 50.79 131.342 52.2249 132.097 53.9072C132.864 55.5895 133.247 57.5068 133.247 59.6592C133.247 61.5765 132.925 63.401 132.282 65.1328C131.639 66.8646 130.711 68.3551 129.499 69.6045C128.225 70.9033 126.728 71.9176 125.009 72.6475C123.289 73.3649 121.242 73.7236 118.867 73.7236C116.95 73.7236 115.138 73.4082 113.431 72.7773C111.724 72.1465 110.221 71.2311 108.922 70.0312C107.635 68.8561 106.615 67.4274 105.86 65.7451C105.106 64.0628 104.729 62.1888 104.729 60.123C104.729 57.9707 105.093 56.0225 105.823 54.2783C106.565 52.5218 107.58 51.0189 108.866 49.7695C110.14 48.5449 111.649 47.6048 113.394 46.9492C115.15 46.2812 117.018 45.9473 118.997 45.9473C120.964 45.9473 122.807 46.2689 124.526 46.9121C126.258 47.5553 127.755 48.4521 129.017 49.6025ZM124.248 68.4355C124.805 67.3099 125.207 66.0358 125.454 64.6133C125.701 63.1908 125.825 61.5827 125.825 59.7891C125.825 58.2676 125.714 56.7894 125.491 55.3545C125.281 53.9072 124.916 52.6208 124.396 51.4951C123.865 50.3695 123.16 49.4665 122.281 48.7861C121.403 48.1058 120.308 47.7656 118.997 47.7656C116.758 47.7656 115.057 48.8294 113.895 50.957C112.732 53.0723 112.15 56.0658 112.15 59.9375C112.15 61.5827 112.274 63.1351 112.521 64.5947C112.781 66.0544 113.183 67.3285 113.728 68.417C114.284 69.5179 114.989 70.3776 115.843 70.9961C116.696 71.6022 117.748 71.9053 118.997 71.9053C120.222 71.9053 121.273 71.596 122.151 70.9775C123.03 70.359 123.729 69.5117 124.248 68.4355ZM164.438 73H150.095V71.5527C150.763 71.5033 151.548 71.3857 152.451 71.2002C153.354 71.0023 153.806 70.7611 153.806 70.4766C153.806 70.3776 153.793 70.2663 153.769 70.1426C153.756 70.0189 153.707 69.8519 153.62 69.6416L151.375 64.1865H142.283C142.073 64.6937 141.838 65.2874 141.578 65.9678C141.331 66.6481 141.114 67.2542 140.929 67.7861C140.694 68.4788 140.551 68.9798 140.502 69.2891C140.465 69.5983 140.446 69.8148 140.446 69.9385C140.446 70.3343 140.743 70.6745 141.337 70.959C141.943 71.2311 142.945 71.429 144.343 71.5527V73H133.544V71.5527C133.952 71.528 134.41 71.4661 134.917 71.3672C135.437 71.2559 135.845 71.1074 136.142 70.9219C136.649 70.625 137.076 70.2601 137.422 69.8271C137.781 69.3942 138.077 68.8809 138.312 68.2871C139.747 64.8112 141.182 61.3291 142.617 57.8408C144.064 54.3525 145.66 50.5055 147.404 46.2998H151.115C153.54 52.262 155.438 56.9749 156.812 60.4385C158.185 63.902 159.354 66.7718 160.318 69.0479C160.479 69.4189 160.683 69.7591 160.931 70.0684C161.178 70.3652 161.531 70.6497 161.988 70.9219C162.335 71.1198 162.737 71.2682 163.194 71.3672C163.652 71.4661 164.066 71.528 164.438 71.5527V73ZM150.614 62.3496L146.792 52.8125L143.025 62.3496H150.614ZM194.923 73H184.829C183.085 70.3281 181.632 68.2005 180.469 66.6172C179.318 65.0339 177.883 63.2031 176.164 61.125H175.144V69.1221C175.144 69.5674 175.224 69.9447 175.385 70.2539C175.558 70.5632 175.88 70.8229 176.35 71.0332C176.585 71.1322 176.95 71.2373 177.444 71.3486C177.951 71.4476 178.384 71.5156 178.743 71.5527V73H164.697V71.5527C165.056 71.5156 165.526 71.4661 166.107 71.4043C166.701 71.3301 167.122 71.2435 167.369 71.1445C167.839 70.9466 168.155 70.6992 168.315 70.4023C168.476 70.0931 168.557 69.7035 168.557 69.2334V50.6602C168.557 50.2148 168.489 49.8438 168.353 49.5469C168.216 49.25 167.889 48.9902 167.369 48.7676C166.973 48.6068 166.503 48.4707 165.959 48.3594C165.427 48.248 165.007 48.1676 164.697 48.1182V46.6709H179.467C182.77 46.6709 185.274 47.1904 186.981 48.2295C188.701 49.2562 189.561 50.8148 189.561 52.9053C189.561 54.7484 189.029 56.2327 187.965 57.3584C186.913 58.4717 185.305 59.3438 183.141 59.9746C183.982 61.0632 184.959 62.3249 186.072 63.7598C187.198 65.1947 188.367 66.6605 189.579 68.1572C189.963 68.6396 190.482 69.2334 191.138 69.9385C191.806 70.6312 192.393 71.0579 192.9 71.2188C193.185 71.3053 193.544 71.3796 193.977 71.4414C194.422 71.5033 194.737 71.5404 194.923 71.5527V73ZM182.287 53.4248C182.287 51.6683 181.792 50.388 180.803 49.584C179.826 48.7676 178.428 48.3594 176.609 48.3594H175.144V59.3809H176.554C178.372 59.3809 179.782 58.9046 180.784 57.9521C181.786 56.9997 182.287 55.4906 182.287 53.4248ZM218.729 49.3799C220.337 50.4313 221.635 51.8353 222.625 53.5918C223.615 55.3359 224.109 57.4759 224.109 60.0117C224.109 62.2383 223.664 64.1803 222.773 65.8379C221.895 67.4831 220.726 68.8314 219.267 69.8828C217.782 70.9342 216.094 71.7197 214.201 72.2393C212.321 72.7464 210.348 73 208.282 73H195.016V71.5527C195.411 71.5404 195.906 71.5033 196.5 71.4414C197.094 71.3796 197.49 71.3053 197.688 71.2188C198.133 71.0332 198.442 70.7858 198.615 70.4766C198.788 70.1549 198.875 69.7715 198.875 69.3262V50.6602C198.875 50.2396 198.795 49.8623 198.634 49.5283C198.473 49.182 198.158 48.9036 197.688 48.6934C197.217 48.4831 196.716 48.3408 196.185 48.2666C195.665 48.1924 195.263 48.1429 194.979 48.1182V46.6709H208.987C210.484 46.6709 212.086 46.8626 213.793 47.2461C215.5 47.6296 217.145 48.3408 218.729 49.3799ZM214.943 68.25C215.549 67.2604 215.989 66.0853 216.261 64.7246C216.545 63.3516 216.688 61.7744 216.688 59.9932C216.688 58.249 216.502 56.6595 216.131 55.2246C215.76 53.7897 215.215 52.5651 214.498 51.5508C213.781 50.5365 212.884 49.751 211.808 49.1943C210.744 48.6377 209.532 48.3594 208.171 48.3594C207.738 48.3594 207.243 48.3717 206.687 48.3965C206.142 48.4089 205.734 48.4212 205.462 48.4336V68.417C205.462 68.8623 205.518 69.2581 205.629 69.6045C205.753 69.9385 205.957 70.2354 206.241 70.4951C206.526 70.7549 206.872 70.959 207.28 71.1074C207.701 71.2435 208.245 71.3115 208.913 71.3115C210.311 71.3115 211.511 71.0518 212.513 70.5322C213.515 70.0127 214.325 69.252 214.943 68.25Z" fill="#BFBDB3"/>
<path d="M72.7969 99.1426L72.6123 102H64.5596V101.515C64.6963 101.506 64.8786 101.487 65.1064 101.46C65.3343 101.428 65.4824 101.396 65.5508 101.364C65.6966 101.296 65.7969 101.207 65.8516 101.098C65.9108 100.988 65.9404 100.849 65.9404 100.681V93.708C65.9404 93.5576 65.9154 93.4255 65.8652 93.3115C65.8151 93.193 65.7103 93.0973 65.5508 93.0244C65.4277 92.9652 65.2614 92.9128 65.0518 92.8672C64.8467 92.8216 64.6826 92.7943 64.5596 92.7852V92.2998H72.0654V94.6377H71.5527C71.4616 94.2913 71.2633 93.9245 70.958 93.5371C70.6572 93.1452 70.3701 92.931 70.0967 92.8945C69.9554 92.8763 69.7868 92.8626 69.5908 92.8535C69.3949 92.8444 69.1715 92.8398 68.9209 92.8398H67.3965V96.6953H68.4902C68.8411 96.6953 69.0964 96.6634 69.2559 96.5996C69.4199 96.5312 69.5635 96.4196 69.6865 96.2646C69.7868 96.1325 69.8711 95.957 69.9395 95.7383C70.0124 95.515 70.0602 95.3053 70.083 95.1094H70.5957V98.9033H70.083C70.0648 98.6846 70.0146 98.4544 69.9326 98.2129C69.8551 97.9668 69.7731 97.7891 69.6865 97.6797C69.5452 97.502 69.3835 97.3857 69.2012 97.3311C69.0234 97.2764 68.7865 97.249 68.4902 97.249H67.3965V100.161C67.3965 100.453 67.417 100.683 67.458 100.852C67.499 101.02 67.5788 101.148 67.6973 101.234C67.8158 101.321 67.9775 101.378 68.1826 101.405C68.3877 101.428 68.6794 101.439 69.0576 101.439C69.208 101.439 69.4062 101.439 69.6523 101.439C69.8984 101.439 70.1058 101.43 70.2744 101.412C70.4476 101.394 70.6253 101.362 70.8076 101.316C70.9945 101.266 71.1266 101.2 71.2041 101.118C71.4137 100.899 71.6325 100.569 71.8604 100.127C72.0928 99.6803 72.2409 99.3522 72.3047 99.1426H72.7969ZM79.8242 97.5498C80.0293 97.7777 80.1797 98.0283 80.2754 98.3018C80.3757 98.5706 80.4258 98.8851 80.4258 99.2451C80.4258 100.102 80.109 100.808 79.4756 101.364C78.8421 101.92 78.056 102.198 77.1172 102.198C76.6842 102.198 76.2513 102.132 75.8184 102C75.3854 101.863 75.0117 101.699 74.6973 101.508L74.4033 102.007H73.8564L73.7607 98.6846H74.3145C74.4284 99.0947 74.5605 99.4661 74.7109 99.7988C74.8659 100.127 75.0687 100.435 75.3193 100.722C75.5563 100.991 75.832 101.205 76.1465 101.364C76.4655 101.524 76.8346 101.604 77.2539 101.604C77.5684 101.604 77.8418 101.562 78.0742 101.48C78.3112 101.398 78.5026 101.282 78.6484 101.132C78.7943 100.981 78.9014 100.806 78.9697 100.605C79.0426 100.4 79.0791 100.166 79.0791 99.9014C79.0791 99.514 78.9697 99.154 78.751 98.8213C78.5322 98.484 78.2064 98.2288 77.7734 98.0557C77.4772 97.9372 77.1377 97.8073 76.7549 97.666C76.3721 97.5202 76.0417 97.3835 75.7637 97.2559C75.2168 97.0098 74.7907 96.6885 74.4854 96.292C74.1846 95.891 74.0342 95.3691 74.0342 94.7266C74.0342 94.3574 74.1094 94.0133 74.2598 93.6943C74.4102 93.3753 74.6243 93.0905 74.9023 92.8398C75.1667 92.6029 75.4788 92.4183 75.8389 92.2861C76.1989 92.1494 76.5749 92.0811 76.9668 92.0811C77.4134 92.0811 77.8122 92.1494 78.1631 92.2861C78.5186 92.4229 78.8421 92.5824 79.1338 92.7646L79.4141 92.2998H79.9609L80.0156 95.5195H79.4619C79.3617 95.1504 79.2477 94.7972 79.1201 94.46C78.9971 94.1227 78.8353 93.8174 78.6348 93.5439C78.4388 93.2796 78.1995 93.07 77.917 92.915C77.6344 92.7555 77.2881 92.6758 76.8779 92.6758C76.445 92.6758 76.0758 92.8148 75.7705 93.0928C75.4652 93.3708 75.3125 93.7103 75.3125 94.1113C75.3125 94.5306 75.4105 94.8792 75.6064 95.1572C75.8024 95.4307 76.0872 95.6562 76.4609 95.834C76.7936 95.9935 77.1195 96.1325 77.4385 96.251C77.762 96.3649 78.0742 96.488 78.375 96.6201C78.6484 96.7386 78.9105 96.873 79.1611 97.0234C79.4163 97.1738 79.6374 97.3493 79.8242 97.5498ZM89.5312 94.9316H89.0596C89.0186 94.7676 88.9434 94.5739 88.834 94.3506C88.7292 94.1227 88.6107 93.9085 88.4785 93.708C88.3418 93.4984 88.1914 93.3161 88.0273 93.1611C87.8678 93.0016 87.7129 92.9105 87.5625 92.8877C87.4212 92.8695 87.2435 92.8558 87.0293 92.8467C86.8151 92.8376 86.6169 92.833 86.4346 92.833H86.0381V100.592C86.0381 100.742 86.07 100.881 86.1338 101.009C86.1976 101.132 86.3092 101.228 86.4688 101.296C86.5508 101.328 86.7217 101.371 86.9814 101.426C87.2458 101.48 87.4508 101.51 87.5967 101.515V102H83.0166V101.515C83.1442 101.506 83.3379 101.487 83.5977 101.46C83.862 101.433 84.0443 101.398 84.1445 101.357C84.2949 101.298 84.4043 101.214 84.4727 101.104C84.5456 100.991 84.582 100.84 84.582 100.653V92.833H84.1855C84.0443 92.833 83.8688 92.8376 83.6592 92.8467C83.4495 92.8512 83.249 92.8649 83.0576 92.8877C82.9072 92.9059 82.75 92.9971 82.5859 93.1611C82.4264 93.3206 82.2783 93.5029 82.1416 93.708C82.0049 93.9131 81.8841 94.1318 81.7793 94.3643C81.6745 94.5921 81.6016 94.7812 81.5605 94.9316H81.082V92.2998H89.5312V94.9316ZM99.3613 102H95.3213V101.515C95.6768 101.492 95.9707 101.446 96.2031 101.378C96.4401 101.31 96.5586 101.225 96.5586 101.125C96.5586 101.084 96.554 101.034 96.5449 100.975C96.5358 100.915 96.5221 100.863 96.5039 100.817L95.6973 98.6436H92.2998C92.1722 98.9626 92.0674 99.2406 91.9854 99.4775C91.9079 99.7145 91.8372 99.9333 91.7734 100.134C91.7142 100.33 91.6732 100.489 91.6504 100.612C91.6276 100.735 91.6162 100.836 91.6162 100.913C91.6162 101.095 91.7598 101.237 92.0469 101.337C92.334 101.437 92.6576 101.496 93.0176 101.515V102H89.3672V101.515C89.4857 101.506 89.6338 101.48 89.8115 101.439C89.9893 101.394 90.1351 101.335 90.249 101.262C90.4313 101.139 90.5726 101.011 90.6729 100.879C90.7731 100.742 90.8711 100.555 90.9668 100.318C91.4544 99.1016 91.9922 97.7344 92.5801 96.2168C93.168 94.6992 93.6921 93.348 94.1523 92.1631H94.6992L97.9326 100.53C98.001 100.708 98.0785 100.852 98.165 100.961C98.2516 101.07 98.3724 101.177 98.5273 101.282C98.6322 101.346 98.7689 101.401 98.9375 101.446C99.1061 101.487 99.2474 101.51 99.3613 101.515V102ZM95.4512 98.0352L93.9814 94.2754L92.5391 98.0352H95.4512ZM106.587 97.4814C106.869 97.6729 107.104 97.9235 107.291 98.2334C107.478 98.5433 107.571 98.9193 107.571 99.3613C107.571 99.8125 107.473 100.204 107.277 100.537C107.081 100.87 106.826 101.143 106.512 101.357C106.206 101.567 105.86 101.727 105.473 101.836C105.09 101.945 104.693 102 104.283 102H99.6895V101.515C99.7988 101.506 99.9583 101.487 100.168 101.46C100.378 101.428 100.528 101.392 100.619 101.351C100.76 101.287 100.861 101.202 100.92 101.098C100.979 100.988 101.009 100.849 101.009 100.681V93.708C101.009 93.5531 100.981 93.4163 100.927 93.2979C100.877 93.1794 100.774 93.0837 100.619 93.0107C100.482 92.9424 100.33 92.89 100.161 92.8535C99.9925 92.8171 99.8512 92.7943 99.7373 92.7852V92.2998H104.215C104.561 92.2998 104.892 92.334 105.206 92.4023C105.525 92.4707 105.828 92.5915 106.115 92.7646C106.384 92.9242 106.605 93.1406 106.778 93.4141C106.951 93.6875 107.038 94.0202 107.038 94.4121C107.038 94.7539 106.977 95.0592 106.854 95.3281C106.73 95.5924 106.557 95.8203 106.334 96.0117C106.124 96.194 105.883 96.349 105.609 96.4766C105.34 96.5996 105.049 96.6953 104.734 96.7637V96.8252C105.012 96.8571 105.322 96.9277 105.664 97.0371C106.01 97.1419 106.318 97.29 106.587 97.4814ZM104.939 96.0186C105.108 95.8226 105.224 95.6084 105.288 95.376C105.356 95.1436 105.391 94.8678 105.391 94.5488C105.391 94.0156 105.245 93.5986 104.953 93.2979C104.661 92.9925 104.201 92.8398 103.572 92.8398C103.426 92.8398 103.242 92.8444 103.019 92.8535C102.8 92.8581 102.615 92.8626 102.465 92.8672V96.5928H103.333C103.707 96.5928 104.026 96.5449 104.29 96.4492C104.559 96.3535 104.775 96.21 104.939 96.0186ZM105.883 99.1152C105.883 98.541 105.689 98.0693 105.302 97.7002C104.919 97.3311 104.37 97.1465 103.654 97.1465C103.363 97.1465 103.117 97.151 102.916 97.1602C102.715 97.1647 102.565 97.1693 102.465 97.1738V100.592C102.465 100.879 102.581 101.095 102.813 101.241C103.046 101.387 103.369 101.46 103.784 101.46C104.463 101.46 104.983 101.262 105.343 100.865C105.703 100.469 105.883 99.8854 105.883 99.1152ZM116.656 99.1152L116.451 102H108.87V101.515C108.979 101.506 109.137 101.49 109.342 101.467C109.551 101.444 109.697 101.414 109.779 101.378C109.916 101.319 110.014 101.232 110.073 101.118C110.137 101.004 110.169 100.858 110.169 100.681V93.7354C110.169 93.5804 110.142 93.4437 110.087 93.3252C110.037 93.2067 109.934 93.111 109.779 93.0381C109.674 92.9834 109.526 92.931 109.335 92.8809C109.148 92.8262 108.993 92.7943 108.87 92.7852V92.2998H112.965V92.7852C112.837 92.7897 112.671 92.8125 112.466 92.8535C112.265 92.8945 112.119 92.931 112.028 92.9629C111.873 93.0176 111.766 93.111 111.707 93.2432C111.652 93.3753 111.625 93.5166 111.625 93.667V100.182C111.625 100.482 111.639 100.717 111.666 100.886C111.698 101.05 111.769 101.177 111.878 101.269C111.983 101.351 112.138 101.405 112.343 101.433C112.552 101.455 112.844 101.467 113.218 101.467C113.386 101.467 113.562 101.462 113.744 101.453C113.926 101.444 114.1 101.426 114.264 101.398C114.423 101.371 114.569 101.335 114.701 101.289C114.838 101.239 114.938 101.177 115.002 101.104C115.189 100.895 115.405 100.578 115.651 100.154C115.902 99.7259 116.075 99.3796 116.171 99.1152H116.656ZM121.558 102H117.189V101.515C117.312 101.506 117.49 101.492 117.723 101.474C117.955 101.455 118.119 101.428 118.215 101.392C118.365 101.332 118.475 101.253 118.543 101.152C118.611 101.048 118.646 100.904 118.646 100.722V93.6943C118.646 93.5348 118.62 93.4027 118.57 93.2979C118.52 93.1885 118.402 93.0973 118.215 93.0244C118.078 92.9697 117.905 92.9196 117.695 92.874C117.49 92.8239 117.322 92.7943 117.189 92.7852V92.2998H121.558V92.7852C121.416 92.7897 121.248 92.8079 121.052 92.8398C120.856 92.8672 120.685 92.9036 120.539 92.9492C120.366 93.0039 120.25 93.0928 120.19 93.2158C120.131 93.3389 120.102 93.4756 120.102 93.626V100.646C120.102 100.797 120.133 100.931 120.197 101.05C120.266 101.164 120.38 101.255 120.539 101.323C120.635 101.36 120.79 101.401 121.004 101.446C121.223 101.487 121.407 101.51 121.558 101.515V102ZM128.811 97.5498C129.016 97.7777 129.166 98.0283 129.262 98.3018C129.362 98.5706 129.412 98.8851 129.412 99.2451C129.412 100.102 129.095 100.808 128.462 101.364C127.828 101.92 127.042 102.198 126.104 102.198C125.671 102.198 125.238 102.132 124.805 102C124.372 101.863 123.998 101.699 123.684 101.508L123.39 102.007H122.843L122.747 98.6846H123.301C123.415 99.0947 123.547 99.4661 123.697 99.7988C123.852 100.127 124.055 100.435 124.306 100.722C124.543 100.991 124.818 101.205 125.133 101.364C125.452 101.524 125.821 101.604 126.24 101.604C126.555 101.604 126.828 101.562 127.061 101.48C127.298 101.398 127.489 101.282 127.635 101.132C127.781 100.981 127.888 100.806 127.956 100.605C128.029 100.4 128.065 100.166 128.065 99.9014C128.065 99.514 127.956 99.154 127.737 98.8213C127.519 98.484 127.193 98.2288 126.76 98.0557C126.464 97.9372 126.124 97.8073 125.741 97.666C125.358 97.5202 125.028 97.3835 124.75 97.2559C124.203 97.0098 123.777 96.6885 123.472 96.292C123.171 95.891 123.021 95.3691 123.021 94.7266C123.021 94.3574 123.096 94.0133 123.246 93.6943C123.396 93.3753 123.611 93.0905 123.889 92.8398C124.153 92.6029 124.465 92.4183 124.825 92.2861C125.185 92.1494 125.561 92.0811 125.953 92.0811C126.4 92.0811 126.799 92.1494 127.149 92.2861C127.505 92.4229 127.828 92.5824 128.12 92.7646L128.4 92.2998H128.947L129.002 95.5195H128.448C128.348 95.1504 128.234 94.7972 128.106 94.46C127.983 94.1227 127.822 93.8174 127.621 93.5439C127.425 93.2796 127.186 93.07 126.903 92.915C126.621 92.7555 126.274 92.6758 125.864 92.6758C125.431 92.6758 125.062 92.8148 124.757 93.0928C124.451 93.3708 124.299 93.7103 124.299 94.1113C124.299 94.5306 124.397 94.8792 124.593 95.1572C124.789 95.4307 125.074 95.6562 125.447 95.834C125.78 95.9935 126.106 96.1325 126.425 96.251C126.748 96.3649 127.061 96.488 127.361 96.6201C127.635 96.7386 127.897 96.873 128.147 97.0234C128.403 97.1738 128.624 97.3493 128.811 97.5498ZM140.678 102H136.651V101.515C136.761 101.506 136.918 101.492 137.123 101.474C137.333 101.455 137.476 101.428 137.554 101.392C137.69 101.337 137.791 101.255 137.854 101.146C137.918 101.032 137.95 100.886 137.95 100.708V97.2559H133.391V100.633C133.391 100.792 133.416 100.927 133.466 101.036C133.521 101.146 133.625 101.241 133.78 101.323C133.858 101.364 133.994 101.405 134.19 101.446C134.391 101.487 134.548 101.51 134.662 101.515V102H130.636V101.515C130.745 101.506 130.902 101.492 131.107 101.474C131.317 101.455 131.461 101.428 131.538 101.392C131.675 101.337 131.775 101.255 131.839 101.146C131.903 101.032 131.935 100.886 131.935 100.708V93.708C131.935 93.5622 131.905 93.43 131.846 93.3115C131.786 93.1885 131.684 93.0928 131.538 93.0244C131.415 92.9652 131.265 92.9128 131.087 92.8672C130.914 92.8216 130.763 92.7943 130.636 92.7852V92.2998H134.662V92.7852C134.535 92.7897 134.377 92.8102 134.19 92.8467C134.008 92.8831 133.871 92.9173 133.78 92.9492C133.625 93.0039 133.521 93.0951 133.466 93.2227C133.416 93.3503 133.391 93.4893 133.391 93.6396V96.6475H137.95V93.708C137.95 93.5622 137.921 93.43 137.861 93.3115C137.802 93.1885 137.7 93.0928 137.554 93.0244C137.431 92.9652 137.28 92.9128 137.103 92.8672C136.929 92.8216 136.779 92.7943 136.651 92.7852V92.2998H140.678V92.7852C140.55 92.7897 140.393 92.8102 140.206 92.8467C140.024 92.8831 139.887 92.9173 139.796 92.9492C139.641 93.0039 139.536 93.0951 139.481 93.2227C139.431 93.3503 139.406 93.4893 139.406 93.6396V100.633C139.406 100.792 139.431 100.927 139.481 101.036C139.536 101.146 139.641 101.241 139.796 101.323C139.873 101.364 140.01 101.405 140.206 101.446C140.407 101.487 140.564 101.51 140.678 101.515V102ZM150.207 99.1426L150.022 102H141.97V101.515C142.106 101.506 142.289 101.487 142.517 101.46C142.744 101.428 142.893 101.396 142.961 101.364C143.107 101.296 143.207 101.207 143.262 101.098C143.321 100.988 143.351 100.849 143.351 100.681V93.708C143.351 93.5576 143.326 93.4255 143.275 93.3115C143.225 93.193 143.12 93.0973 142.961 93.0244C142.838 92.9652 142.672 92.9128 142.462 92.8672C142.257 92.8216 142.093 92.7943 141.97 92.7852V92.2998H149.476V94.6377H148.963C148.872 94.2913 148.674 93.9245 148.368 93.5371C148.067 93.1452 147.78 92.931 147.507 92.8945C147.366 92.8763 147.197 92.8626 147.001 92.8535C146.805 92.8444 146.582 92.8398 146.331 92.8398H144.807V96.6953H145.9C146.251 96.6953 146.507 96.6634 146.666 96.5996C146.83 96.5312 146.974 96.4196 147.097 96.2646C147.197 96.1325 147.281 95.957 147.35 95.7383C147.423 95.515 147.47 95.3053 147.493 95.1094H148.006V98.9033H147.493C147.475 98.6846 147.425 98.4544 147.343 98.2129C147.265 97.9668 147.183 97.7891 147.097 97.6797C146.955 97.502 146.794 97.3857 146.611 97.3311C146.434 97.2764 146.197 97.249 145.9 97.249H144.807V100.161C144.807 100.453 144.827 100.683 144.868 100.852C144.909 101.02 144.989 101.148 145.107 101.234C145.226 101.321 145.388 101.378 145.593 101.405C145.798 101.428 146.09 101.439 146.468 101.439C146.618 101.439 146.816 101.439 147.062 101.439C147.309 101.439 147.516 101.43 147.685 101.412C147.858 101.394 148.035 101.362 148.218 101.316C148.405 101.266 148.537 101.2 148.614 101.118C148.824 100.899 149.043 100.569 149.271 100.127C149.503 99.6803 149.651 99.3522 149.715 99.1426H150.207ZM160.488 97.208C160.488 98.0329 160.333 98.7484 160.023 99.3545C159.714 99.9606 159.31 100.457 158.813 100.845C158.312 101.232 157.749 101.521 157.125 101.713C156.501 101.904 155.856 102 155.19 102H151.171V101.515C151.303 101.515 151.474 101.503 151.684 101.48C151.898 101.453 152.039 101.424 152.107 101.392C152.244 101.332 152.342 101.246 152.401 101.132C152.465 101.013 152.497 100.872 152.497 100.708V93.708C152.497 93.5531 152.47 93.4141 152.415 93.291C152.365 93.168 152.262 93.07 152.107 92.9971C151.966 92.9287 151.813 92.8786 151.649 92.8467C151.485 92.8148 151.344 92.7943 151.226 92.7852V92.2998H155.464C156.047 92.2998 156.621 92.391 157.187 92.5732C157.752 92.751 158.244 92.9925 158.663 93.2979C159.233 93.7035 159.679 94.2344 160.003 94.8906C160.326 95.5469 160.488 96.3193 160.488 97.208ZM158.813 97.2012C158.813 96.5495 158.727 95.9616 158.554 95.4375C158.381 94.9089 158.128 94.4486 157.795 94.0566C157.48 93.6829 157.093 93.389 156.633 93.1748C156.177 92.9606 155.669 92.8535 155.108 92.8535C154.922 92.8535 154.71 92.8581 154.473 92.8672C154.24 92.8717 154.067 92.8763 153.953 92.8809V100.339C153.953 100.754 154.074 101.041 154.315 101.2C154.557 101.36 154.928 101.439 155.43 101.439C156.008 101.439 156.514 101.337 156.947 101.132C157.38 100.927 157.731 100.642 158 100.277C158.283 99.8945 158.488 99.4525 158.615 98.9512C158.747 98.4453 158.813 97.862 158.813 97.2012ZM171.549 102H165.144V101.07C165.267 100.929 165.438 100.772 165.656 100.599C165.875 100.421 166.135 100.229 166.436 100.024C166.618 99.9014 166.837 99.7669 167.092 99.6211C167.347 99.4753 167.636 99.3158 167.96 99.1426C168.32 98.9512 168.596 98.7826 168.787 98.6367C168.983 98.4909 169.161 98.3109 169.32 98.0967C169.425 97.9554 169.509 97.7799 169.573 97.5703C169.637 97.3561 169.669 97.0531 169.669 96.6611C169.669 96.0915 169.516 95.6745 169.211 95.4102C168.906 95.1413 168.514 95.0068 168.035 95.0068C167.739 95.0068 167.459 95.0661 167.194 95.1846C166.93 95.2985 166.732 95.458 166.6 95.6631C166.632 95.8089 166.67 95.9821 166.716 96.1826C166.766 96.3831 166.791 96.5791 166.791 96.7705C166.791 96.9437 166.718 97.0986 166.572 97.2354C166.431 97.3675 166.219 97.4336 165.937 97.4336C165.709 97.4336 165.533 97.3561 165.41 97.2012C165.287 97.0417 165.226 96.8298 165.226 96.5654C165.226 96.3193 165.294 96.0732 165.431 95.8271C165.567 95.5765 165.763 95.3464 166.019 95.1367C166.269 94.9316 166.579 94.7653 166.948 94.6377C167.317 94.5101 167.716 94.4463 168.145 94.4463C169.079 94.4463 169.819 94.6559 170.366 95.0752C170.918 95.4899 171.193 96.0459 171.193 96.7432C171.193 97.0758 171.143 97.3789 171.043 97.6523C170.947 97.9258 170.79 98.1673 170.571 98.377C170.33 98.6094 170.047 98.8099 169.724 98.9785C169.4 99.1426 168.906 99.3727 168.24 99.6689C167.844 99.8467 167.475 100.034 167.133 100.229C166.791 100.421 166.511 100.608 166.292 100.79H171.549V102ZM179.232 95.6152C179.524 95.9661 179.741 96.3786 179.882 96.8525C180.028 97.3219 180.101 97.8141 180.101 98.3291C180.101 98.9489 180.012 99.5049 179.834 99.9971C179.656 100.485 179.412 100.89 179.103 101.214C178.784 101.547 178.405 101.797 177.968 101.966C177.53 102.134 177.043 102.219 176.505 102.219C175.917 102.219 175.393 102.121 174.933 101.925C174.472 101.729 174.099 101.46 173.812 101.118C173.511 100.763 173.285 100.348 173.135 99.874C172.989 99.3955 172.916 98.8805 172.916 98.3291C172.916 97.7868 172.987 97.2878 173.128 96.832C173.274 96.3763 173.499 95.9639 173.805 95.5947C174.096 95.2393 174.472 94.959 174.933 94.7539C175.393 94.5488 175.919 94.4463 176.512 94.4463C177.136 94.4463 177.672 94.5511 178.118 94.7607C178.565 94.9704 178.936 95.2552 179.232 95.6152ZM178.59 98.3291C178.59 97.2445 178.403 96.4036 178.029 95.8066C177.66 95.2096 177.157 94.9111 176.519 94.9111C175.871 94.9111 175.361 95.2096 174.987 95.8066C174.614 96.4036 174.427 97.2445 174.427 98.3291C174.427 99.359 174.604 100.188 174.96 100.817C175.32 101.442 175.835 101.754 176.505 101.754C177.175 101.754 177.69 101.442 178.05 100.817C178.41 100.188 178.59 99.359 178.59 98.3291ZM187.969 102H181.563V101.07C181.687 100.929 181.857 100.772 182.076 100.599C182.295 100.421 182.555 100.229 182.855 100.024C183.038 99.9014 183.257 99.7669 183.512 99.6211C183.767 99.4753 184.056 99.3158 184.38 99.1426C184.74 98.9512 185.016 98.7826 185.207 98.6367C185.403 98.4909 185.581 98.3109 185.74 98.0967C185.845 97.9554 185.929 97.7799 185.993 97.5703C186.057 97.3561 186.089 97.0531 186.089 96.6611C186.089 96.0915 185.936 95.6745 185.631 95.4102C185.326 95.1413 184.934 95.0068 184.455 95.0068C184.159 95.0068 183.879 95.0661 183.614 95.1846C183.35 95.2985 183.152 95.458 183.02 95.6631C183.051 95.8089 183.09 95.9821 183.136 96.1826C183.186 96.3831 183.211 96.5791 183.211 96.7705C183.211 96.9437 183.138 97.0986 182.992 97.2354C182.851 97.3675 182.639 97.4336 182.356 97.4336C182.129 97.4336 181.953 97.3561 181.83 97.2012C181.707 97.0417 181.646 96.8298 181.646 96.5654C181.646 96.3193 181.714 96.0732 181.851 95.8271C181.987 95.5765 182.183 95.3464 182.438 95.1367C182.689 94.9316 182.999 94.7653 183.368 94.6377C183.737 94.5101 184.136 94.4463 184.564 94.4463C185.499 94.4463 186.239 94.6559 186.786 95.0752C187.338 95.4899 187.613 96.0459 187.613 96.7432C187.613 97.0758 187.563 97.3789 187.463 97.6523C187.367 97.9258 187.21 98.1673 186.991 98.377C186.75 98.6094 186.467 98.8099 186.144 98.9785C185.82 99.1426 185.326 99.3727 184.66 99.6689C184.264 99.8467 183.895 100.034 183.553 100.229C183.211 100.421 182.931 100.608 182.712 100.79H187.969V102ZM194.395 98.7939C194.695 99.0309 194.944 99.3363 195.14 99.71C195.34 100.084 195.44 100.551 195.44 101.111C195.44 102.091 195.105 102.9 194.436 103.538C193.766 104.176 192.916 104.495 191.886 104.495C191.088 104.495 190.414 104.306 189.862 103.928C189.311 103.549 189.035 103.11 189.035 102.608C189.035 102.376 189.092 102.173 189.206 102C189.32 101.827 189.495 101.74 189.732 101.74C190.006 101.74 190.213 101.813 190.354 101.959C190.5 102.1 190.573 102.255 190.573 102.424C190.573 102.57 190.548 102.752 190.498 102.971C190.448 103.189 190.409 103.351 190.382 103.456C190.418 103.488 190.478 103.531 190.56 103.586C190.642 103.641 190.74 103.693 190.854 103.743C190.972 103.793 191.116 103.837 191.284 103.873C191.457 103.914 191.658 103.935 191.886 103.935C192.177 103.935 192.453 103.875 192.713 103.757C192.973 103.638 193.191 103.463 193.369 103.23C193.565 102.975 193.711 102.684 193.807 102.355C193.907 102.032 193.957 101.619 193.957 101.118C193.957 100.476 193.777 99.9447 193.417 99.5254C193.062 99.1016 192.592 98.8896 192.009 98.8896C191.644 98.8896 191.302 98.958 190.983 99.0947C190.669 99.2314 190.386 99.4593 190.136 99.7783L189.678 99.6006L190.259 94.665H195.153V95.8818H190.812L190.457 98.7803C190.662 98.6344 190.931 98.4909 191.264 98.3496C191.601 98.2038 191.97 98.1309 192.371 98.1309C192.704 98.1309 193.048 98.1833 193.403 98.2881C193.763 98.3883 194.094 98.557 194.395 98.7939Z" fill="#1D1D1D"/>
<path d="M40 113H100H40Z" fill="black"/>
<path d="M40 113H100" stroke="#2B2B2B" stroke-width="1.5"/>
<path d="M70 115C71.1046 115 72 114.105 72 113C72 111.895 71.1046 111 70 111C68.8954 111 68 111.895 68 113C68 114.105 68.8954 115 70 115Z" fill="#2B2B2B" stroke="#2B2B2B"/>
<path d="M160 113H220H160Z" fill="black"/>
<path d="M160 113H220" stroke="#2B2B2B" stroke-width="1.5"/>
<path d="M190 115C191.105 115 192 114.105 192 113C192 111.895 191.105 111 190 111C188.895 111 188 111.895 188 113C188 114.105 188.895 115 190 115Z" fill="#2B2B2B" stroke="#2B2B2B"/>
</svg>
