<svg width="195" height="96" viewBox="0 0 195 96" fill="none" xmlns="http://www.w3.org/2000/svg">
<path d="M5 37C37 -5.66667 69 -5.66667 101 37" stroke="url(#paint0_linear_773_242)" stroke-width="9.6" stroke-linecap="round"/>
<path d="M61 57C61 49 53 33 29 33C5 33 5 57 5 57L61 93L117 57C117 57 117 33 93 33C69 33 61 49 61 57Z" fill="#FF6B6B"/>
<path d="M9.35938 73.8203L16.1094 73.1641C16.5156 75.4297 17.3359 77.0938 18.5703 78.1562C19.8203 79.2188 21.5 79.75 23.6094 79.75C25.8438 79.75 27.5234 79.2812 28.6484 78.3438C29.7891 77.3906 30.3594 76.2812 30.3594 75.0156C30.3594 74.2031 30.1172 73.5156 29.6328 72.9531C29.1641 72.375 28.3359 71.875 27.1484 71.4531C26.3359 71.1719 24.4844 70.6719 21.5938 69.9531C17.875 69.0312 15.2656 67.8984 13.7656 66.5547C11.6562 64.6641 10.6016 62.3594 10.6016 59.6406C10.6016 57.8906 11.0938 56.2578 12.0781 54.7422C13.0781 53.2109 14.5078 52.0469 16.3672 51.25C18.2422 50.4531 20.5 50.0547 23.1406 50.0547C27.4531 50.0547 30.6953 51 32.8672 52.8906C35.0547 54.7812 36.2031 57.3047 36.3125 60.4609L29.375 60.7656C29.0781 59 28.4375 57.7344 27.4531 56.9688C26.4844 56.1875 25.0234 55.7969 23.0703 55.7969C21.0547 55.7969 19.4766 56.2109 18.3359 57.0391C17.6016 57.5703 17.2344 58.2812 17.2344 59.1719C17.2344 59.9844 17.5781 60.6797 18.2656 61.2578C19.1406 61.9922 21.2656 62.7578 24.6406 63.5547C28.0156 64.3516 30.5078 65.1797 32.1172 66.0391C33.7422 66.8828 35.0078 68.0469 35.9141 69.5312C36.8359 71 37.2969 72.8203 37.2969 74.9922C37.2969 76.9609 36.75 78.8047 35.6562 80.5234C34.5625 82.2422 33.0156 83.5234 31.0156 84.3672C29.0156 85.1953 26.5234 85.6094 23.5391 85.6094C19.1953 85.6094 15.8594 84.6094 13.5312 82.6094C11.2031 80.5938 9.8125 77.6641 9.35938 73.8203ZM48.0078 85L39.8047 50.6406H46.9062L52.0859 74.2422L58.3672 50.6406H66.6172L72.6406 74.6406L77.9141 50.6406H84.8984L76.5547 85H69.1953L62.3516 59.3125L55.5312 85H48.0078ZM87.0547 68.0312C87.0547 64.5312 87.5781 61.5938 88.625 59.2188C89.4062 57.4688 90.4688 55.8984 91.8125 54.5078C93.1719 53.1172 94.6562 52.0859 96.2656 51.4141C98.4062 50.5078 100.875 50.0547 103.672 50.0547C108.734 50.0547 112.781 51.625 115.812 54.7656C118.859 57.9062 120.383 62.2734 120.383 67.8672C120.383 73.4141 118.875 77.7578 115.859 80.8984C112.844 84.0234 108.812 85.5859 103.766 85.5859C98.6562 85.5859 94.5938 84.0312 91.5781 80.9219C88.5625 77.7969 87.0547 73.5 87.0547 68.0312ZM94.2031 67.7969C94.2031 71.6875 95.1016 74.6406 96.8984 76.6562C98.6953 78.6562 100.977 79.6562 103.742 79.6562C106.508 79.6562 108.773 78.6641 110.539 76.6797C112.32 74.6797 113.211 71.6875 113.211 67.7031C113.211 63.7656 112.344 60.8281 110.609 58.8906C108.891 56.9531 106.602 55.9844 103.742 55.9844C100.883 55.9844 98.5781 56.9688 96.8281 58.9375C95.0781 60.8906 94.2031 63.8438 94.2031 67.7969ZM124.414 68.0312C124.414 64.5312 124.938 61.5938 125.984 59.2188C126.766 57.4688 127.828 55.8984 129.172 54.5078C130.531 53.1172 132.016 52.0859 133.625 51.4141C135.766 50.5078 138.234 50.0547 141.031 50.0547C146.094 50.0547 150.141 51.625 153.172 54.7656C156.219 57.9062 157.742 62.2734 157.742 67.8672C157.742 73.4141 156.234 77.7578 153.219 80.8984C150.203 84.0234 146.172 85.5859 141.125 85.5859C136.016 85.5859 131.953 84.0312 128.938 80.9219C125.922 77.7969 124.414 73.5 124.414 68.0312ZM131.562 67.7969C131.562 71.6875 132.461 74.6406 134.258 76.6562C136.055 78.6562 138.336 79.6562 141.102 79.6562C143.867 79.6562 146.133 78.6641 147.898 76.6797C149.68 74.6797 150.57 71.6875 150.57 67.7031C150.57 63.7656 149.703 60.8281 147.969 58.8906C146.25 56.9531 143.961 55.9844 141.102 55.9844C138.242 55.9844 135.938 56.9688 134.188 58.9375C132.438 60.8906 131.562 63.8438 131.562 67.7969ZM163.25 85V50.6406H170L184.062 73.5859V50.6406H190.508V85H183.547L169.695 62.5938V85H163.25Z" fill="#333333"/>
<defs>
<linearGradient id="paint0_linear_773_242" x1="5" y1="5" x2="9605" y2="5" gradientUnits="userSpaceOnUse">
<stop stop-color="#FF6B6B" stop-opacity="0.2"/>
<stop offset="1" stop-color="#FF6B6B" stop-opacity="0.8"/>
</linearGradient>
</defs>
</svg>
