<svg width="255" height="116" viewBox="0 0 255 116" fill="none" xmlns="http://www.w3.org/2000/svg">
<path d="M208 36C188 16 168 6 148 6C128 6 108 16 88 36C68 56 58 76 58 96" stroke="#4A90E2" stroke-width="12" stroke-linecap="round"/>
<path d="M208 44C212.418 44 216 40.4183 216 36C216 31.5817 212.418 28 208 28C203.582 28 200 31.5817 200 36C200 40.4183 203.582 44 208 44Z" fill="#2C3E50"/>
<path d="M88 36C98 26 108 21 118 21" stroke="#2C3E50" stroke-width="8" stroke-linecap="round"/>
<path d="M1.62305 70.2734C1.62305 67.6484 2.01562 65.4453 2.80078 63.6641C3.38672 62.3516 4.18359 61.1738 5.19141 60.1309C6.21094 59.0879 7.32422 58.3145 8.53125 57.8105C10.1367 57.1309 11.9883 56.791 14.0859 56.791C17.8828 56.791 20.918 57.9688 23.1914 60.3242C25.4766 62.6797 26.6191 65.9551 26.6191 70.1504C26.6191 74.3105 25.4883 77.5684 23.2266 79.9238C20.9648 82.2676 17.9414 83.4395 14.1562 83.4395C10.3242 83.4395 7.27734 82.2734 5.01562 79.9414C2.75391 77.5977 1.62305 74.375 1.62305 70.2734ZM6.98438 70.0977C6.98438 73.0156 7.6582 75.2305 9.00586 76.7422C10.3535 78.2422 12.0645 78.9922 14.1387 78.9922C16.2129 78.9922 17.9121 78.248 19.2363 76.7598C20.5723 75.2598 21.2402 73.0156 21.2402 70.0273C21.2402 67.0742 20.5898 64.8711 19.2891 63.418C18 61.9648 16.2832 61.2383 14.1387 61.2383C11.9941 61.2383 10.2656 61.9766 8.95312 63.4531C7.64062 64.918 6.98438 67.1328 6.98438 70.0977ZM46.9395 69.8516L42.0703 70.7305C41.9062 69.7578 41.5312 69.0254 40.9453 68.5332C40.3711 68.041 39.6211 67.7949 38.6953 67.7949C37.4648 67.7949 36.4805 68.2227 35.7422 69.0781C35.0156 69.9219 34.6523 71.3398 34.6523 73.332C34.6523 75.5469 35.0215 77.1113 35.7598 78.0254C36.5098 78.9395 37.5117 79.3965 38.7656 79.3965C39.7031 79.3965 40.4707 79.1328 41.0684 78.6055C41.666 78.0664 42.0879 77.1465 42.334 75.8457L47.1855 76.6719C46.6816 78.8984 45.7148 80.5801 44.2852 81.7168C42.8555 82.8535 40.9395 83.4219 38.5371 83.4219C35.8066 83.4219 33.627 82.5605 31.998 80.8379C30.3809 79.1152 29.5723 76.7305 29.5723 73.6836C29.5723 70.6016 30.3867 68.2051 32.0156 66.4941C33.6445 64.7715 35.8477 63.9102 38.625 63.9102C40.8984 63.9102 42.7031 64.4023 44.0391 65.3867C45.3867 66.3594 46.3535 67.8477 46.9395 69.8516ZM61.5117 77.0586L66.4336 77.8848C65.8008 79.6895 64.7988 81.0664 63.4277 82.0156C62.0684 82.9531 60.3633 83.4219 58.3125 83.4219C55.0664 83.4219 52.6641 82.3613 51.1055 80.2402C49.875 78.541 49.2598 76.3965 49.2598 73.8066C49.2598 70.7129 50.0684 68.293 51.6855 66.5469C53.3027 64.7891 55.3477 63.9102 57.8203 63.9102C60.5977 63.9102 62.7891 64.8301 64.3945 66.6699C66 68.498 66.7676 71.3047 66.6973 75.0898H54.3223C54.3574 76.5547 54.7559 77.6973 55.5176 78.5176C56.2793 79.3262 57.2285 79.7305 58.3652 79.7305C59.1387 79.7305 59.7891 79.5195 60.3164 79.0977C60.8438 78.6758 61.2422 77.9961 61.5117 77.0586ZM61.793 72.0664C61.7578 70.6367 61.3887 69.5527 60.6855 68.8145C59.9824 68.0645 59.127 67.6895 58.1191 67.6895C57.041 67.6895 56.1504 68.082 55.4473 68.8672C54.7441 69.6523 54.3984 70.7188 54.4102 72.0664H61.793ZM74.4316 70.0273L69.9492 69.2188C70.4531 67.4141 71.3203 66.0781 72.5508 65.2109C73.7812 64.3438 75.6094 63.9102 78.0352 63.9102C80.2383 63.9102 81.8789 64.1738 82.957 64.7012C84.0352 65.2168 84.791 65.8789 85.2246 66.6875C85.6699 67.4844 85.8926 68.9551 85.8926 71.0996L85.8398 76.8652C85.8398 78.5059 85.916 79.7188 86.0684 80.5039C86.2324 81.2773 86.5312 82.1094 86.9648 83H82.0781C81.9492 82.6719 81.791 82.1855 81.6035 81.541C81.5215 81.248 81.4629 81.0547 81.4277 80.9609C80.584 81.7812 79.6816 82.3965 78.7207 82.8066C77.7598 83.2168 76.7344 83.4219 75.6445 83.4219C73.7227 83.4219 72.2051 82.9004 71.0918 81.8574C69.9902 80.8145 69.4395 79.4961 69.4395 77.9023C69.4395 76.8477 69.6914 75.9102 70.1953 75.0898C70.6992 74.2578 71.4023 73.625 72.3047 73.1914C73.2188 72.7461 74.5312 72.3594 76.2422 72.0312C78.5508 71.5977 80.1504 71.1934 81.041 70.8184V70.3262C81.041 69.377 80.8066 68.7031 80.3379 68.3047C79.8691 67.8945 78.9844 67.6895 77.6836 67.6895C76.8047 67.6895 76.1191 67.8652 75.627 68.2168C75.1348 68.5566 74.7363 69.1602 74.4316 70.0273ZM81.041 74.0352C80.4082 74.2461 79.4062 74.498 78.0352 74.791C76.6641 75.084 75.7676 75.3711 75.3457 75.6523C74.7012 76.1094 74.3789 76.6895 74.3789 77.3926C74.3789 78.084 74.6367 78.6816 75.1523 79.1855C75.668 79.6895 76.3242 79.9414 77.1211 79.9414C78.0117 79.9414 78.8613 79.6484 79.6699 79.0625C80.2676 78.6172 80.6602 78.0723 80.8477 77.4277C80.9766 77.0059 81.041 76.2031 81.041 75.0195V74.0352ZM107.76 83H102.82V73.4727C102.82 71.457 102.715 70.1562 102.504 69.5703C102.293 68.9727 101.947 68.5098 101.467 68.1816C100.998 67.8535 100.43 67.6895 99.7617 67.6895C98.9062 67.6895 98.1387 67.9238 97.459 68.3926C96.7793 68.8613 96.3105 69.4824 96.0527 70.2559C95.8066 71.0293 95.6836 72.459 95.6836 74.5449V83H90.7441V64.332H95.332V67.0742C96.9609 64.9648 99.0117 63.9102 101.484 63.9102C102.574 63.9102 103.57 64.1094 104.473 64.5078C105.375 64.8945 106.055 65.3926 106.512 66.002C106.98 66.6113 107.303 67.3027 107.479 68.0762C107.666 68.8496 107.76 69.957 107.76 71.3984V83ZM112.752 66.3887L111.82 61.5898V57.2305H117.199V61.5898L116.391 66.3887H112.752ZM119.625 77.6738L124.582 76.918C124.793 77.8789 125.221 78.6113 125.865 79.1152C126.51 79.6074 127.412 79.8535 128.572 79.8535C129.85 79.8535 130.811 79.6191 131.455 79.1504C131.889 78.8223 132.105 78.3828 132.105 77.832C132.105 77.457 131.988 77.1465 131.754 76.9004C131.508 76.666 130.957 76.4492 130.102 76.25C126.117 75.3711 123.592 74.5684 122.525 73.8418C121.049 72.834 120.311 71.4336 120.311 69.6406C120.311 68.0234 120.949 66.6641 122.227 65.5625C123.504 64.4609 125.484 63.9102 128.168 63.9102C130.723 63.9102 132.621 64.3262 133.863 65.1582C135.105 65.9902 135.961 67.2207 136.43 68.8496L131.771 69.7109C131.572 68.9844 131.191 68.4277 130.629 68.041C130.078 67.6543 129.287 67.4609 128.256 67.4609C126.955 67.4609 126.023 67.6426 125.461 68.0059C125.086 68.2637 124.898 68.5977 124.898 69.0078C124.898 69.3594 125.062 69.6582 125.391 69.9043C125.836 70.2324 127.371 70.6953 129.996 71.293C132.633 71.8906 134.473 72.623 135.516 73.4902C136.547 74.3691 137.062 75.5938 137.062 77.1641C137.062 78.875 136.348 80.3457 134.918 81.5762C133.488 82.8066 131.373 83.4219 128.572 83.4219C126.029 83.4219 124.014 82.9062 122.525 81.875C121.049 80.8438 120.082 79.4434 119.625 77.6738ZM151.494 83V57.2305H169.16V61.5898H156.697V67.6895H167.455V72.0488H156.697V83H151.494ZM173.432 61.8008V57.2305H178.371V61.8008H173.432ZM173.432 83V64.332H178.371V83H173.432ZM200.432 83H195.492V73.4727C195.492 71.457 195.387 70.1562 195.176 69.5703C194.965 68.9727 194.619 68.5098 194.139 68.1816C193.67 67.8535 193.102 67.6895 192.434 67.6895C191.578 67.6895 190.811 67.9238 190.131 68.3926C189.451 68.8613 188.982 69.4824 188.725 70.2559C188.479 71.0293 188.355 72.459 188.355 74.5449V83H183.416V64.332H188.004V67.0742C189.633 64.9648 191.684 63.9102 194.156 63.9102C195.246 63.9102 196.242 64.1094 197.145 64.5078C198.047 64.8945 198.727 65.3926 199.184 66.002C199.652 66.6113 199.975 67.3027 200.15 68.0762C200.338 68.8496 200.432 69.957 200.432 71.3984V83ZM216.27 77.0586L221.191 77.8848C220.559 79.6895 219.557 81.0664 218.186 82.0156C216.826 82.9531 215.121 83.4219 213.07 83.4219C209.824 83.4219 207.422 82.3613 205.863 80.2402C204.633 78.541 204.018 76.3965 204.018 73.8066C204.018 70.7129 204.826 68.293 206.443 66.5469C208.061 64.7891 210.105 63.9102 212.578 63.9102C215.355 63.9102 217.547 64.8301 219.152 66.6699C220.758 68.498 221.525 71.3047 221.455 75.0898H209.08C209.115 76.5547 209.514 77.6973 210.275 78.5176C211.037 79.3262 211.986 79.7305 213.123 79.7305C213.896 79.7305 214.547 79.5195 215.074 79.0977C215.602 78.6758 216 77.9961 216.27 77.0586ZM216.551 72.0664C216.516 70.6367 216.146 69.5527 215.443 68.8145C214.74 68.0645 213.885 67.6895 212.877 67.6895C211.799 67.6895 210.908 68.082 210.205 68.8672C209.502 69.6523 209.156 70.7188 209.168 72.0664H216.551ZM223.758 77.6738L228.715 76.918C228.926 77.8789 229.354 78.6113 229.998 79.1152C230.643 79.6074 231.545 79.8535 232.705 79.8535C233.982 79.8535 234.943 79.6191 235.588 79.1504C236.021 78.8223 236.238 78.3828 236.238 77.832C236.238 77.457 236.121 77.1465 235.887 76.9004C235.641 76.666 235.09 76.4492 234.234 76.25C230.25 75.3711 227.725 74.5684 226.658 73.8418C225.182 72.834 224.443 71.4336 224.443 69.6406C224.443 68.0234 225.082 66.6641 226.359 65.5625C227.637 64.4609 229.617 63.9102 232.301 63.9102C234.855 63.9102 236.754 64.3262 237.996 65.1582C239.238 65.9902 240.094 67.2207 240.562 68.8496L235.904 69.7109C235.705 68.9844 235.324 68.4277 234.762 68.041C234.211 67.6543 233.42 67.4609 232.389 67.4609C231.088 67.4609 230.156 67.6426 229.594 68.0059C229.219 68.2637 229.031 68.5977 229.031 69.0078C229.031 69.3594 229.195 69.6582 229.523 69.9043C229.969 70.2324 231.504 70.6953 234.129 71.293C236.766 71.8906 238.605 72.623 239.648 73.4902C240.68 74.3691 241.195 75.5938 241.195 77.1641C241.195 78.875 240.48 80.3457 239.051 81.5762C237.621 82.8066 235.506 83.4219 232.705 83.4219C230.162 83.4219 228.146 82.9062 226.658 81.875C225.182 80.8438 224.215 79.4434 223.758 77.6738ZM254.098 64.332V68.2695H250.723V75.793C250.723 77.3164 250.752 78.207 250.811 78.4648C250.881 78.7109 251.027 78.916 251.25 79.0801C251.484 79.2441 251.766 79.3262 252.094 79.3262C252.551 79.3262 253.213 79.168 254.08 78.8516L254.502 82.6836C253.354 83.1758 252.053 83.4219 250.6 83.4219C249.709 83.4219 248.906 83.2754 248.191 82.9824C247.477 82.6777 246.949 82.291 246.609 81.8223C246.281 81.3418 246.053 80.6973 245.924 79.8887C245.818 79.3145 245.766 78.1543 245.766 76.4082V68.2695H243.498V64.332H245.766V60.623L250.723 57.7402V64.332H254.098Z" fill="#1E3D59"/>
<path d="M68 106C88 96 108 96 128 106C148 116 168 116 188 106" stroke="#1E3D59" stroke-width="4" stroke-linecap="round"/>
</svg>
