<svg width="197" height="50" viewBox="0 0 197 50" fill="none" xmlns="http://www.w3.org/2000/svg">
<path d="M25 0H0V50H25V0Z" fill="#2A2A72"/>
<path d="M50 0H25V50H50V0Z" fill="#009FFD"/>
<path d="M25 37C31.6274 37 37 31.6274 37 25C37 18.3726 31.6274 13 25 13C18.3726 13 13 18.3726 13 25C13 31.6274 18.3726 37 25 37Z" fill="white"/>
<path d="M37 37C43.6274 37 49 31.6274 49 25C49 18.3726 43.6274 13 37 13C30.3726 13 25 18.3726 25 25C25 31.6274 30.3726 37 37 37Z" fill="#2A2A72"/>
<path d="M65.9844 28.0469L68.7656 27.6094C68.9219 28.724 69.3542 29.5781 70.0625 30.1719C70.7812 30.7656 71.7812 31.0625 73.0625 31.0625C74.3542 31.0625 75.3125 30.8021 75.9375 30.2812C76.5625 29.75 76.875 29.1302 76.875 28.4219C76.875 27.7865 76.599 27.2865 76.0469 26.9219C75.6615 26.6719 74.7031 26.3542 73.1719 25.9688C71.1094 25.4479 69.6771 25 68.875 24.625C68.0833 24.2396 67.4792 23.7135 67.0625 23.0469C66.6562 22.3698 66.4531 21.625 66.4531 20.8125C66.4531 20.0729 66.6198 19.3906 66.9531 18.7656C67.2969 18.1302 67.7604 17.6042 68.3438 17.1875C68.7812 16.8646 69.375 16.5938 70.125 16.375C70.8854 16.1458 71.6979 16.0312 72.5625 16.0312C73.8646 16.0312 75.0052 16.2188 75.9844 16.5938C76.974 16.9688 77.7031 17.4792 78.1719 18.125C78.6406 18.7604 78.9635 19.6146 79.1406 20.6875L76.3906 21.0625C76.2656 20.2083 75.901 19.5417 75.2969 19.0625C74.7031 18.5833 73.8594 18.3438 72.7656 18.3438C71.474 18.3438 70.5521 18.5573 70 18.9844C69.4479 19.4115 69.1719 19.9115 69.1719 20.4844C69.1719 20.849 69.2865 21.1771 69.5156 21.4688C69.7448 21.7708 70.1042 22.0208 70.5938 22.2188C70.875 22.3229 71.7031 22.5625 73.0781 22.9375C75.0677 23.4688 76.4531 23.9062 77.2344 24.25C78.026 24.5833 78.6458 25.0729 79.0938 25.7188C79.5417 26.3646 79.7656 27.1667 79.7656 28.125C79.7656 29.0625 79.4896 29.9479 78.9375 30.7812C78.3958 31.6042 77.6094 32.2448 76.5781 32.7031C75.5469 33.151 74.3802 33.375 73.0781 33.375C70.9219 33.375 69.276 32.9271 68.1406 32.0312C67.0156 31.1354 66.2969 29.8073 65.9844 28.0469ZM82.0625 24.7031C82.0625 21.6302 82.9167 19.3542 84.625 17.875C86.0521 16.6458 87.7917 16.0312 89.8438 16.0312C92.125 16.0312 93.9896 16.7812 95.4375 18.2812C96.8854 19.7708 97.6094 21.8333 97.6094 24.4688C97.6094 26.6042 97.2865 28.2865 96.6406 29.5156C96.0052 30.7344 95.0729 31.6823 93.8438 32.3594C92.625 33.0365 91.2917 33.375 89.8438 33.375C87.5208 33.375 85.6406 32.6302 84.2031 31.1406C82.776 29.651 82.0625 27.5052 82.0625 24.7031ZM84.9531 24.7031C84.9531 26.8281 85.4167 28.4219 86.3438 29.4844C87.2708 30.5365 88.4375 31.0625 89.8438 31.0625C91.2396 31.0625 92.401 30.5312 93.3281 29.4688C94.2552 28.4062 94.7188 26.7865 94.7188 24.6094C94.7188 22.5573 94.25 21.0052 93.3125 19.9531C92.3854 18.8906 91.2292 18.3594 89.8438 18.3594C88.4375 18.3594 87.2708 18.8854 86.3438 19.9375C85.4167 20.9896 84.9531 22.5781 84.9531 24.7031ZM111.797 33V30.5625C110.505 32.4375 108.75 33.375 106.531 33.375C105.552 33.375 104.635 33.1875 103.781 32.8125C102.938 32.4375 102.307 31.9688 101.891 31.4062C101.484 30.8333 101.198 30.1354 101.031 29.3125C100.917 28.7604 100.859 27.8854 100.859 26.6875V16.4062H103.672V25.6094C103.672 27.0781 103.729 28.0677 103.844 28.5781C104.021 29.3177 104.396 29.901 104.969 30.3281C105.542 30.7448 106.25 30.9531 107.094 30.9531C107.938 30.9531 108.729 30.7396 109.469 30.3125C110.208 29.875 110.729 29.2865 111.031 28.5469C111.344 27.7969 111.5 26.7135 111.5 25.2969V16.4062H114.312V33H111.797ZM118.672 33V10.0938H121.484V33H118.672Z" fill="#2A2A72"/>
<path d="M124.75 28.2656L129.156 27.5938C129.344 28.4479 129.724 29.099 130.297 29.5469C130.87 29.9844 131.672 30.2031 132.703 30.2031C133.839 30.2031 134.693 29.9948 135.266 29.5781C135.651 29.2865 135.844 28.8958 135.844 28.4062C135.844 28.0729 135.74 27.7969 135.531 27.5781C135.312 27.3698 134.823 27.1771 134.062 27C130.521 26.2188 128.276 25.5052 127.328 24.8594C126.016 23.9635 125.359 22.7188 125.359 21.125C125.359 19.6875 125.927 18.4792 127.062 17.5C128.198 16.5208 129.958 16.0312 132.344 16.0312C134.615 16.0312 136.302 16.401 137.406 17.1406C138.51 17.8802 139.271 18.974 139.688 20.4219L135.547 21.1875C135.37 20.5417 135.031 20.0469 134.531 19.7031C134.042 19.3594 133.339 19.1875 132.422 19.1875C131.266 19.1875 130.438 19.349 129.938 19.6719C129.604 19.901 129.438 20.1979 129.438 20.5625C129.438 20.875 129.583 21.1406 129.875 21.3594C130.271 21.651 131.635 22.0625 133.969 22.5938C136.312 23.125 137.948 23.776 138.875 24.5469C139.792 25.3281 140.25 26.4167 140.25 27.8125C140.25 29.3333 139.615 30.6406 138.344 31.7344C137.073 32.8281 135.193 33.375 132.703 33.375C130.443 33.375 128.651 32.9167 127.328 32C126.016 31.0833 125.156 29.8385 124.75 28.2656ZM142.031 16.4062H146.703L150.672 28.1875L154.547 16.4062H159.094L153.234 32.375L152.188 35.2656C151.802 36.2344 151.432 36.974 151.078 37.4844C150.734 37.9948 150.333 38.4062 149.875 38.7188C149.427 39.0417 148.87 39.2917 148.203 39.4688C147.547 39.6458 146.802 39.7344 145.969 39.7344C145.125 39.7344 144.297 39.6458 143.484 39.4688L143.094 36.0312C143.781 36.1667 144.401 36.2344 144.953 36.2344C145.974 36.2344 146.729 35.9323 147.219 35.3281C147.708 34.7344 148.083 33.974 148.344 33.0469L142.031 16.4062ZM177.016 33H172.625V24.5312C172.625 22.7396 172.531 21.5833 172.344 21.0625C172.156 20.5312 171.849 20.1198 171.422 19.8281C171.005 19.5365 170.5 19.3906 169.906 19.3906C169.146 19.3906 168.464 19.599 167.859 20.0156C167.255 20.4323 166.839 20.9844 166.609 21.6719C166.391 22.3594 166.281 23.6302 166.281 25.4844V33H161.891V16.4062H165.969V18.8438C167.417 16.9688 169.24 16.0312 171.438 16.0312C172.406 16.0312 173.292 16.2083 174.094 16.5625C174.896 16.9062 175.5 17.349 175.906 17.8906C176.323 18.4323 176.609 19.0469 176.766 19.7344C176.932 20.4219 177.016 21.4062 177.016 22.6875V33ZM195.953 21.3125L191.625 22.0938C191.479 21.2292 191.146 20.5781 190.625 20.1406C190.115 19.7031 189.448 19.4844 188.625 19.4844C187.531 19.4844 186.656 19.8646 186 20.625C185.354 21.375 185.031 22.6354 185.031 24.4062C185.031 26.375 185.359 27.7656 186.016 28.5781C186.682 29.3906 187.573 29.7969 188.688 29.7969C189.521 29.7969 190.203 29.5625 190.734 29.0938C191.266 28.6146 191.641 27.7969 191.859 26.6406L196.172 27.375C195.724 29.3542 194.865 30.849 193.594 31.8594C192.323 32.8698 190.62 33.375 188.484 33.375C186.057 33.375 184.12 32.6094 182.672 31.0781C181.234 29.5469 180.516 27.4271 180.516 24.7188C180.516 21.9792 181.24 19.849 182.688 18.3281C184.135 16.7969 186.094 16.0312 188.562 16.0312C190.583 16.0312 192.188 16.4688 193.375 17.3438C194.573 18.2083 195.432 19.5312 195.953 21.3125Z" fill="#009FFD"/>
</svg>
