<svg width="246" height="157" viewBox="0 0 246 157" fill="none" xmlns="http://www.w3.org/2000/svg">
<path d="M123 100C147.853 100 168 79.8528 168 55C168 30.1472 147.853 10 123 10C98.1472 10 78 30.1472 78 55C78 79.8528 98.1472 100 123 100Z" stroke="#4A90E2" stroke-width="2"/>
<path d="M123 20V0V20ZM121 10L123 5L125 10" fill="black"/>
<path d="M123 20V0M121 10L123 5L125 10" stroke="#4A90E2" stroke-width="2"/>
<path d="M123 90V110V90ZM121 100L123 105L125 100" fill="black"/>
<path d="M123 90V110M121 100L123 105L125 100" stroke="#4A90E2" stroke-width="2"/>
<path d="M158 55H178H158ZM168 53L173 55L168 57" fill="black"/>
<path d="M158 55H178M168 53L173 55L168 57" stroke="#4A90E2" stroke-width="2"/>
<path d="M88 55H68H88ZM78 53L73 55L78 57" fill="black"/>
<path d="M88 55H68M78 53L73 55L78 57" stroke="#4A90E2" stroke-width="2"/>
<path d="M123 62.5C115.5 52.5 98 52.5 98 65C98 77.5 123 85 123 85C123 85 148 77.5 148 65C148 52.5 130.5 52.5 123 62.5Z" fill="#FF6B6B"/>
<path d="M11.6152 128.52C10.1934 128.52 8.86263 128.292 7.62305 127.836C6.38346 127.371 5.30339 126.701 4.38281 125.826C3.48047 124.969 2.76953 123.912 2.25 122.654C1.73047 121.387 1.4707 119.997 1.4707 118.484C1.4707 116.98 1.73047 115.59 2.25 114.314C2.77865 113.029 3.51693 111.917 4.46484 110.979C5.39453 110.058 6.51107 109.347 7.81445 108.846C9.11784 108.335 10.5124 108.08 11.998 108.08C13.0736 108.08 14.0534 108.212 14.9375 108.477C15.8216 108.732 16.569 109.023 17.1797 109.352L18.0273 108.6H19.2168L19.3398 115.682H18.1367C17.4531 113.521 16.6328 111.936 15.6758 110.924C14.7188 109.912 13.5521 109.406 12.1758 109.406C10.4622 109.406 9.15885 110.163 8.26562 111.676C7.3724 113.18 6.92578 115.294 6.92578 118.02C6.92578 119.56 7.07617 120.877 7.37695 121.971C7.68685 123.055 8.08789 123.93 8.58008 124.596C9.10872 125.288 9.73307 125.799 10.4531 126.127C11.1732 126.446 11.9707 126.605 12.8457 126.605C14.1217 126.605 15.2565 126.259 16.25 125.566C17.2526 124.874 18.1641 123.826 18.9844 122.422L20.1602 123.133C19.7682 123.935 19.3216 124.655 18.8203 125.293C18.319 125.922 17.7402 126.464 17.084 126.92C16.3639 127.421 15.5664 127.813 14.6914 128.096C13.8255 128.378 12.8001 128.52 11.6152 128.52ZM39.1777 127.713L32.6562 128.109L32.4512 127.918V126.127H32.3691C32.0592 126.41 31.7539 126.688 31.4531 126.961C31.1615 127.225 30.8105 127.467 30.4004 127.686C29.9355 127.932 29.4935 128.114 29.0742 128.232C28.6641 128.351 28.0625 128.41 27.2695 128.41C25.8932 128.41 24.8359 127.995 24.0977 127.166C23.3685 126.337 23.0039 125.165 23.0039 123.652V117.5C23.0039 117.145 22.9355 116.857 22.7988 116.639C22.6621 116.411 22.4798 116.21 22.252 116.037C22.0697 115.9 21.8327 115.805 21.541 115.75C21.2493 115.686 20.985 115.645 20.748 115.627V114.629L27.3789 114.273L27.5293 114.479V123.57C27.5293 124.509 27.707 125.202 28.0625 125.648C28.4271 126.095 28.9238 126.318 29.5527 126.318C30.1999 126.318 30.7786 126.15 31.2891 125.812C31.8086 125.475 32.1868 125.115 32.4238 124.732V117.363C32.4238 117.053 32.3646 116.775 32.2461 116.529C32.1276 116.283 31.9544 116.083 31.7266 115.928C31.5625 115.818 31.3255 115.745 31.0156 115.709C30.7148 115.673 30.4049 115.645 30.0859 115.627V114.629L36.7168 114.273L36.9219 114.479V125.033C36.9219 125.352 36.9857 125.626 37.1133 125.854C37.2409 126.072 37.4277 126.259 37.6738 126.414C37.847 126.523 38.0703 126.601 38.3438 126.646C38.6263 126.683 38.9043 126.706 39.1777 126.715V127.713ZM56.9375 121.342C56.9375 123.265 56.2949 124.915 55.0098 126.291C53.7246 127.667 52.0977 128.355 50.1289 128.355C49.2539 128.355 48.543 128.264 47.9961 128.082C47.4492 127.909 46.998 127.695 46.6426 127.439H46.5332V131.281C46.5332 131.6 46.6016 131.878 46.7383 132.115C46.8841 132.352 47.0846 132.525 47.3398 132.635C47.5859 132.735 47.9323 132.826 48.3789 132.908C48.8346 132.99 49.2129 133.04 49.5137 133.059V134.07H39.6426V133.059C39.8704 133.04 40.1576 133.004 40.5039 132.949C40.8503 132.904 41.11 132.854 41.2832 132.799C41.5749 132.699 41.7708 132.525 41.8711 132.279C41.9805 132.042 42.0352 131.769 42.0352 131.459V117.473C42.0078 117.172 41.9349 116.908 41.8164 116.68C41.707 116.452 41.5293 116.251 41.2832 116.078C41.1009 115.96 40.8594 115.864 40.5586 115.791C40.2578 115.709 39.9616 115.654 39.6699 115.627V114.629L46.3281 114.273L46.5332 114.451V115.969L46.6426 115.996C47.2441 115.385 47.9095 114.911 48.6387 114.574C49.377 114.237 50.1061 114.068 50.8262 114.068C52.7129 114.068 54.2031 114.738 55.2969 116.078C56.3906 117.409 56.9375 119.163 56.9375 121.342ZM52.0293 121.396C52.0293 120.713 51.9792 120.061 51.8789 119.441C51.7786 118.812 51.6009 118.252 51.3457 117.76C51.0996 117.268 50.7715 116.876 50.3613 116.584C49.9603 116.292 49.4681 116.146 48.8848 116.146C48.2923 116.146 47.8184 116.251 47.4629 116.461C47.1074 116.661 46.7975 116.926 46.5332 117.254V125.006C46.5879 125.188 46.6927 125.425 46.8477 125.717C47.0026 125.999 47.1576 126.227 47.3125 126.4C47.5404 126.646 47.8001 126.829 48.0918 126.947C48.3835 127.066 48.7025 127.125 49.0488 127.125C49.9512 127.125 50.6712 126.642 51.209 125.676C51.7559 124.701 52.0293 123.274 52.0293 121.396ZM67.3555 128H58.7148V127.002C58.9518 126.984 59.1842 126.961 59.4121 126.934C59.64 126.906 59.8359 126.861 60 126.797C60.2917 126.688 60.4967 126.533 60.6152 126.332C60.7337 126.122 60.793 125.849 60.793 125.512V117.555C60.793 117.236 60.7201 116.958 60.5742 116.721C60.4284 116.475 60.2461 116.279 60.0273 116.133C59.8633 116.023 59.6126 115.919 59.2754 115.818C58.9473 115.718 58.6465 115.654 58.373 115.627V114.629L65.0723 114.273L65.2773 114.479V125.334C65.2773 125.653 65.3457 125.926 65.4824 126.154C65.6191 126.373 65.8151 126.537 66.0703 126.646C66.2526 126.729 66.4531 126.801 66.6719 126.865C66.8906 126.929 67.1185 126.975 67.3555 127.002V128ZM65.3594 109.352C65.3594 110.044 65.0905 110.637 64.5527 111.129C64.0241 111.612 63.3952 111.854 62.666 111.854C61.9277 111.854 61.2897 111.612 60.752 111.129C60.2233 110.637 59.959 110.044 59.959 109.352C59.959 108.659 60.2233 108.066 60.752 107.574C61.2897 107.082 61.9277 106.836 62.666 106.836C63.4043 106.836 64.0378 107.082 64.5664 107.574C65.0951 108.066 65.3594 108.659 65.3594 109.352ZM86.291 127.713L79.5508 128.109L79.3457 127.918V126.66L79.25 126.633C78.8034 127.116 78.1973 127.54 77.4316 127.904C76.6751 128.26 75.9095 128.438 75.1348 128.438C73.2936 128.438 71.776 127.754 70.582 126.387C69.388 125.02 68.791 123.251 68.791 121.082C68.791 119.159 69.4564 117.509 70.7871 116.133C72.127 114.757 73.7448 114.068 75.6406 114.068C76.388 114.068 77.0898 114.155 77.7461 114.328C78.4023 114.492 78.9264 114.688 79.3184 114.916V110.445C79.3184 110.108 79.25 109.794 79.1133 109.502C78.9766 109.201 78.7943 108.969 78.5664 108.805C78.2839 108.604 77.9284 108.463 77.5 108.381C77.0807 108.29 76.6569 108.226 76.2285 108.189V107.191L83.6113 106.836L83.8164 107.055V124.979C83.8164 125.325 83.8711 125.617 83.9805 125.854C84.099 126.09 84.2858 126.277 84.541 126.414C84.7324 126.514 85.0104 126.587 85.375 126.633C85.7487 126.678 86.054 126.706 86.291 126.715V127.713ZM79.3184 125.279V117.555C79.2546 117.345 79.1634 117.113 79.0449 116.857C78.9355 116.602 78.7806 116.361 78.5801 116.133C78.3978 115.941 78.1517 115.773 77.8418 115.627C77.541 115.481 77.1992 115.408 76.8164 115.408C75.9049 115.408 75.1576 115.923 74.5742 116.953C73.9909 117.983 73.6992 119.437 73.6992 121.314C73.6992 122.053 73.7493 122.718 73.8496 123.311C73.959 123.894 74.1458 124.427 74.4102 124.91C74.6745 125.393 75.0117 125.771 75.4219 126.045C75.8411 126.318 76.3424 126.455 76.9258 126.455C77.4818 126.455 77.9421 126.35 78.3066 126.141C78.6712 125.922 79.0085 125.635 79.3184 125.279ZM92.416 109.283C92.416 109.785 92.1927 110.76 91.7461 112.209C91.3086 113.649 90.9349 115.162 90.625 116.748H89.6816C89.3626 115.162 88.9844 113.649 88.5469 112.209C88.1094 110.76 87.8906 109.785 87.8906 109.283C87.8906 108.7 88.0866 108.189 88.4785 107.752C88.8704 107.314 89.431 107.096 90.1602 107.096C90.8711 107.096 91.4225 107.314 91.8145 107.752C92.2155 108.189 92.416 108.7 92.416 109.283ZM101.057 128.465C100.173 128.465 99.3066 128.333 98.459 128.068C97.6204 127.813 96.9688 127.54 96.5039 127.248L96.0938 128.178H95.0273L94.8496 123.078H95.8477C95.9844 123.488 96.2122 123.953 96.5312 124.473C96.8503 124.983 97.2148 125.443 97.625 125.854C98.0534 126.264 98.541 126.61 99.0879 126.893C99.6439 127.175 100.236 127.316 100.865 127.316C101.695 127.316 102.31 127.157 102.711 126.838C103.121 126.51 103.326 126.008 103.326 125.334C103.326 124.969 103.235 124.669 103.053 124.432C102.87 124.195 102.62 123.99 102.301 123.816C101.945 123.634 101.553 123.479 101.125 123.352C100.706 123.224 100.186 123.069 99.5664 122.887C98.9466 122.704 98.4134 122.522 97.9668 122.34C97.5293 122.148 97.0736 121.852 96.5996 121.451C96.1895 121.096 95.8613 120.667 95.6152 120.166C95.3691 119.665 95.2461 119.068 95.2461 118.375C95.2461 117.09 95.7839 116.051 96.8594 115.258C97.944 114.465 99.3613 114.068 101.111 114.068C101.941 114.068 102.702 114.155 103.395 114.328C104.096 114.492 104.684 114.674 105.158 114.875L105.445 114.068H106.484L106.703 118.73H105.732C105.413 117.783 104.867 116.967 104.092 116.283C103.317 115.59 102.483 115.244 101.59 115.244C100.888 115.244 100.337 115.39 99.9355 115.682C99.5345 115.973 99.334 116.379 99.334 116.898C99.334 117.591 99.6257 118.092 100.209 118.402C100.801 118.712 101.626 119.004 102.684 119.277C104.315 119.697 105.509 120.271 106.266 121C107.022 121.72 107.4 122.641 107.4 123.762C107.4 125.257 106.812 126.414 105.637 127.234C104.47 128.055 102.943 128.465 101.057 128.465ZM126.514 128.52C125.092 128.52 123.761 128.292 122.521 127.836C121.282 127.371 120.202 126.701 119.281 125.826C118.379 124.969 117.668 123.912 117.148 122.654C116.629 121.387 116.369 119.997 116.369 118.484C116.369 116.98 116.629 115.59 117.148 114.314C117.677 113.029 118.415 111.917 119.363 110.979C120.293 110.058 121.41 109.347 122.713 108.846C124.016 108.335 125.411 108.08 126.896 108.08C127.972 108.08 128.952 108.212 129.836 108.477C130.72 108.732 131.467 109.023 132.078 109.352L132.926 108.6H134.115L134.238 115.682H133.035C132.352 113.521 131.531 111.936 130.574 110.924C129.617 109.912 128.451 109.406 127.074 109.406C125.361 109.406 124.057 110.163 123.164 111.676C122.271 113.18 121.824 115.294 121.824 118.02C121.824 119.56 121.975 120.877 122.275 121.971C122.585 123.055 122.986 123.93 123.479 124.596C124.007 125.288 124.632 125.799 125.352 126.127C126.072 126.446 126.869 126.605 127.744 126.605C129.02 126.605 130.155 126.259 131.148 125.566C132.151 124.874 133.062 123.826 133.883 122.422L135.059 123.133C134.667 123.935 134.22 124.655 133.719 125.293C133.217 125.922 132.639 126.464 131.982 126.92C131.262 127.421 130.465 127.813 129.59 128.096C128.724 128.378 127.699 128.52 126.514 128.52ZM150.193 116.051C150.868 116.68 151.383 117.432 151.738 118.307C152.094 119.182 152.271 120.13 152.271 121.15C152.271 122.162 152.094 123.119 151.738 124.021C151.392 124.915 150.882 125.68 150.207 126.318C149.487 127.002 148.626 127.526 147.623 127.891C146.63 128.255 145.49 128.438 144.205 128.438C143.093 128.438 142.068 128.278 141.129 127.959C140.199 127.64 139.374 127.161 138.654 126.523C137.962 125.913 137.415 125.161 137.014 124.268C136.613 123.365 136.412 122.358 136.412 121.246C136.412 120.152 136.585 119.182 136.932 118.334C137.287 117.477 137.816 116.716 138.518 116.051C139.192 115.413 140.021 114.921 141.006 114.574C141.999 114.219 143.107 114.041 144.328 114.041C145.604 114.041 146.725 114.219 147.691 114.574C148.667 114.921 149.501 115.413 150.193 116.051ZM146.693 125.525C146.894 125.015 147.04 124.395 147.131 123.666C147.231 122.937 147.281 122.089 147.281 121.123C147.281 120.485 147.236 119.756 147.145 118.936C147.053 118.115 146.917 117.468 146.734 116.994C146.516 116.42 146.21 115.969 145.818 115.641C145.436 115.312 144.948 115.148 144.355 115.148C143.708 115.148 143.189 115.326 142.797 115.682C142.414 116.037 142.118 116.497 141.908 117.062C141.717 117.582 141.585 118.193 141.512 118.895C141.439 119.587 141.402 120.312 141.402 121.068C141.402 122.062 141.434 122.887 141.498 123.543C141.562 124.19 141.717 124.842 141.963 125.498C142.173 126.063 142.473 126.51 142.865 126.838C143.257 127.166 143.754 127.33 144.355 127.33C144.902 127.33 145.372 127.18 145.764 126.879C146.156 126.569 146.465 126.118 146.693 125.525ZM181.201 128H173.053V127.002C173.253 126.975 173.463 126.952 173.682 126.934C173.9 126.915 174.083 126.87 174.229 126.797C174.429 126.706 174.557 126.555 174.611 126.346C174.666 126.127 174.693 125.849 174.693 125.512V119.127C174.693 118.188 174.525 117.486 174.188 117.021C173.859 116.548 173.385 116.311 172.766 116.311C172.374 116.311 172.023 116.374 171.713 116.502C171.412 116.62 171.134 116.771 170.879 116.953C170.615 117.145 170.41 117.336 170.264 117.527C170.118 117.719 169.995 117.883 169.895 118.02V125.361C169.895 125.689 169.931 125.958 170.004 126.168C170.086 126.368 170.232 126.528 170.441 126.646C170.587 126.729 170.751 126.801 170.934 126.865C171.125 126.929 171.326 126.975 171.535 127.002V128H163.729V127.002C163.902 126.984 164.111 126.961 164.357 126.934C164.604 126.906 164.786 126.861 164.904 126.797C165.096 126.697 165.219 126.551 165.273 126.359C165.337 126.168 165.369 125.885 165.369 125.512V119.127C165.369 118.188 165.201 117.486 164.863 117.021C164.535 116.548 164.061 116.311 163.441 116.311C163.049 116.311 162.699 116.374 162.389 116.502C162.088 116.62 161.81 116.771 161.555 116.953C161.29 117.145 161.085 117.336 160.939 117.527C160.794 117.719 160.671 117.883 160.57 118.02V125.361C160.57 125.68 160.611 125.945 160.693 126.154C160.775 126.364 160.921 126.528 161.131 126.646C161.277 126.729 161.441 126.801 161.623 126.865C161.814 126.929 162.015 126.975 162.225 127.002V128H154.035V127.002C154.272 126.984 154.505 126.961 154.732 126.934C154.96 126.906 155.156 126.861 155.32 126.797C155.612 126.688 155.812 126.533 155.922 126.332C156.031 126.122 156.086 125.849 156.086 125.512V117.555C156.086 117.263 156.008 116.98 155.854 116.707C155.699 116.424 155.512 116.206 155.293 116.051C155.129 115.941 154.919 115.85 154.664 115.777C154.418 115.704 154.145 115.654 153.844 115.627V114.629L160.365 114.273L160.57 114.479V116.406H160.625C160.88 116.178 161.181 115.91 161.527 115.6C161.883 115.281 162.215 115.025 162.525 114.834C162.863 114.615 163.296 114.433 163.824 114.287C164.353 114.141 164.932 114.068 165.561 114.068C166.6 114.068 167.465 114.296 168.158 114.752C168.86 115.199 169.357 115.796 169.648 116.543H169.771C170.036 116.297 170.359 116.01 170.742 115.682C171.125 115.344 171.476 115.076 171.795 114.875C172.15 114.647 172.602 114.456 173.148 114.301C173.704 114.146 174.297 114.068 174.926 114.068C176.302 114.068 177.359 114.474 178.098 115.285C178.845 116.096 179.219 117.249 179.219 118.744V125.389C179.219 125.726 179.269 125.999 179.369 126.209C179.469 126.41 179.652 126.564 179.916 126.674C180.062 126.738 180.24 126.801 180.449 126.865C180.668 126.929 180.919 126.975 181.201 127.002V128ZM199.125 121.342C199.125 123.265 198.482 124.915 197.197 126.291C195.912 127.667 194.285 128.355 192.316 128.355C191.441 128.355 190.73 128.264 190.184 128.082C189.637 127.909 189.186 127.695 188.83 127.439H188.721V131.281C188.721 131.6 188.789 131.878 188.926 132.115C189.072 132.352 189.272 132.525 189.527 132.635C189.773 132.735 190.12 132.826 190.566 132.908C191.022 132.99 191.4 133.04 191.701 133.059V134.07H181.83V133.059C182.058 133.04 182.345 133.004 182.691 132.949C183.038 132.904 183.298 132.854 183.471 132.799C183.762 132.699 183.958 132.525 184.059 132.279C184.168 132.042 184.223 131.769 184.223 131.459V117.473C184.195 117.172 184.122 116.908 184.004 116.68C183.895 116.452 183.717 116.251 183.471 116.078C183.288 115.96 183.047 115.864 182.746 115.791C182.445 115.709 182.149 115.654 181.857 115.627V114.629L188.516 114.273L188.721 114.451V115.969L188.83 115.996C189.432 115.385 190.097 114.911 190.826 114.574C191.564 114.237 192.294 114.068 193.014 114.068C194.9 114.068 196.391 114.738 197.484 116.078C198.578 117.409 199.125 119.163 199.125 121.342ZM194.217 121.396C194.217 120.713 194.167 120.061 194.066 119.441C193.966 118.812 193.788 118.252 193.533 117.76C193.287 117.268 192.959 116.876 192.549 116.584C192.148 116.292 191.656 116.146 191.072 116.146C190.48 116.146 190.006 116.251 189.65 116.461C189.295 116.661 188.985 116.926 188.721 117.254V125.006C188.775 125.188 188.88 125.425 189.035 125.717C189.19 125.999 189.345 126.227 189.5 126.4C189.728 126.646 189.988 126.829 190.279 126.947C190.571 127.066 190.89 127.125 191.236 127.125C192.139 127.125 192.859 126.642 193.396 125.676C193.943 124.701 194.217 123.274 194.217 121.396ZM216.529 127.713C216.128 127.886 215.654 128.046 215.107 128.191C214.561 128.337 213.982 128.41 213.371 128.41C212.25 128.41 211.425 128.246 210.896 127.918C210.368 127.581 210.008 127.102 209.816 126.482H209.734C209.424 126.792 209.124 127.057 208.832 127.275C208.549 127.494 208.244 127.681 207.916 127.836C207.488 128.036 207.073 128.182 206.672 128.273C206.28 128.374 205.729 128.424 205.018 128.424C203.96 128.424 203.058 128.114 202.311 127.494C201.563 126.865 201.189 126.036 201.189 125.006C201.189 124.413 201.271 123.912 201.436 123.502C201.6 123.083 201.832 122.714 202.133 122.395C202.406 122.103 202.721 121.861 203.076 121.67C203.441 121.479 203.837 121.301 204.266 121.137C205.086 120.836 206.07 120.526 207.219 120.207C208.367 119.879 209.206 119.587 209.734 119.332V118.02C209.734 117.792 209.716 117.491 209.68 117.117C209.643 116.743 209.566 116.429 209.447 116.174C209.32 115.882 209.119 115.636 208.846 115.436C208.572 115.235 208.212 115.135 207.766 115.135C207.365 115.135 207.027 115.194 206.754 115.312C206.49 115.422 206.275 115.536 206.111 115.654C206.139 115.837 206.216 116.115 206.344 116.488C206.471 116.862 206.535 117.222 206.535 117.568C206.535 117.723 206.494 117.919 206.412 118.156C206.33 118.384 206.212 118.566 206.057 118.703C205.847 118.885 205.61 119.027 205.346 119.127C205.09 119.227 204.694 119.277 204.156 119.277C203.391 119.277 202.812 119.095 202.42 118.73C202.028 118.357 201.832 117.874 201.832 117.281C201.832 116.771 202.033 116.315 202.434 115.914C202.844 115.504 203.34 115.167 203.924 114.902C204.498 114.629 205.159 114.419 205.906 114.273C206.654 114.118 207.346 114.041 207.984 114.041C208.868 114.041 209.68 114.096 210.418 114.205C211.156 114.305 211.822 114.52 212.414 114.848C212.979 115.167 213.426 115.632 213.754 116.242C214.091 116.844 214.26 117.632 214.26 118.607C214.26 119.637 214.237 120.859 214.191 122.271C214.155 123.684 214.137 124.614 214.137 125.061C214.137 125.471 214.196 125.794 214.314 126.031C214.442 126.268 214.633 126.446 214.889 126.564C215.044 126.637 215.285 126.683 215.613 126.701C215.951 126.71 216.256 126.715 216.529 126.715V127.713ZM209.734 120.59C209.224 120.763 208.718 120.964 208.217 121.191C207.715 121.41 207.305 121.643 206.986 121.889C206.649 122.144 206.385 122.472 206.193 122.873C206.002 123.265 205.906 123.73 205.906 124.268C205.906 124.979 206.066 125.493 206.385 125.812C206.713 126.132 207.114 126.291 207.588 126.291C208.089 126.291 208.499 126.191 208.818 125.99C209.146 125.781 209.434 125.525 209.68 125.225L209.734 120.59ZM223.912 128.465C223.028 128.465 222.162 128.333 221.314 128.068C220.476 127.813 219.824 127.54 219.359 127.248L218.949 128.178H217.883L217.705 123.078H218.703C218.84 123.488 219.068 123.953 219.387 124.473C219.706 124.983 220.07 125.443 220.48 125.854C220.909 126.264 221.396 126.61 221.943 126.893C222.499 127.175 223.092 127.316 223.721 127.316C224.55 127.316 225.165 127.157 225.566 126.838C225.977 126.51 226.182 126.008 226.182 125.334C226.182 124.969 226.09 124.669 225.908 124.432C225.726 124.195 225.475 123.99 225.156 123.816C224.801 123.634 224.409 123.479 223.98 123.352C223.561 123.224 223.042 123.069 222.422 122.887C221.802 122.704 221.269 122.522 220.822 122.34C220.385 122.148 219.929 121.852 219.455 121.451C219.045 121.096 218.717 120.667 218.471 120.166C218.225 119.665 218.102 119.068 218.102 118.375C218.102 117.09 218.639 116.051 219.715 115.258C220.799 114.465 222.217 114.068 223.967 114.068C224.796 114.068 225.557 114.155 226.25 114.328C226.952 114.492 227.54 114.674 228.014 114.875L228.301 114.068H229.34L229.559 118.73H228.588C228.269 117.783 227.722 116.967 226.947 116.283C226.173 115.59 225.339 115.244 224.445 115.244C223.743 115.244 223.192 115.39 222.791 115.682C222.39 115.973 222.189 116.379 222.189 116.898C222.189 117.591 222.481 118.092 223.064 118.402C223.657 118.712 224.482 119.004 225.539 119.277C227.171 119.697 228.365 120.271 229.121 121C229.878 121.72 230.256 122.641 230.256 123.762C230.256 125.257 229.668 126.414 228.492 127.234C227.326 128.055 225.799 128.465 223.912 128.465ZM238.268 128.465C237.383 128.465 236.518 128.333 235.67 128.068C234.831 127.813 234.18 127.54 233.715 127.248L233.305 128.178H232.238L232.061 123.078H233.059C233.195 123.488 233.423 123.953 233.742 124.473C234.061 124.983 234.426 125.443 234.836 125.854C235.264 126.264 235.752 126.61 236.299 126.893C236.855 127.175 237.447 127.316 238.076 127.316C238.906 127.316 239.521 127.157 239.922 126.838C240.332 126.51 240.537 126.008 240.537 125.334C240.537 124.969 240.446 124.669 240.264 124.432C240.081 124.195 239.831 123.99 239.512 123.816C239.156 123.634 238.764 123.479 238.336 123.352C237.917 123.224 237.397 123.069 236.777 122.887C236.158 122.704 235.624 122.522 235.178 122.34C234.74 122.148 234.285 121.852 233.811 121.451C233.4 121.096 233.072 120.667 232.826 120.166C232.58 119.665 232.457 119.068 232.457 118.375C232.457 117.09 232.995 116.051 234.07 115.258C235.155 114.465 236.572 114.068 238.322 114.068C239.152 114.068 239.913 114.155 240.605 114.328C241.307 114.492 241.895 114.674 242.369 114.875L242.656 114.068H243.695L243.914 118.73H242.943C242.624 117.783 242.077 116.967 241.303 116.283C240.528 115.59 239.694 115.244 238.801 115.244C238.099 115.244 237.548 115.39 237.146 115.682C236.745 115.973 236.545 116.379 236.545 116.898C236.545 117.591 236.837 118.092 237.42 118.402C238.012 118.712 238.837 119.004 239.895 119.277C241.526 119.697 242.72 120.271 243.477 121C244.233 121.72 244.611 122.641 244.611 123.762C244.611 125.257 244.023 126.414 242.848 127.234C241.681 128.055 240.154 128.465 238.268 128.465Z" fill="#2C3E50"/>
<path d="M34.8096 154V143.979H36.8057L39.1777 151.074C39.3965 151.735 39.556 152.229 39.6562 152.558C39.7702 152.193 39.9479 151.658 40.1895 150.951L42.5889 143.979H44.373V154H43.0947V145.612L40.1826 154H38.9863L36.0879 145.469V154H34.8096ZM45.4121 154L49.2607 143.979H50.6895L54.791 154H53.2803L52.1113 150.965H47.9209L46.8203 154H45.4121ZM48.3037 149.885H51.7012L50.6553 147.109C50.3363 146.266 50.0993 145.574 49.9443 145.031C49.8167 145.674 49.6367 146.312 49.4043 146.945L48.3037 149.885ZM57.3613 154V145.161H54.0596V143.979H62.0029V145.161H58.6875V154H57.3613ZM70.5205 150.486L71.8467 150.821C71.5687 151.91 71.0674 152.742 70.3428 153.316C69.6227 153.886 68.7409 154.171 67.6973 154.171C66.6172 154.171 65.7376 153.952 65.0586 153.515C64.3841 153.073 63.8691 152.435 63.5137 151.601C63.1628 150.767 62.9873 149.871 62.9873 148.914C62.9873 147.87 63.1855 146.961 63.582 146.187C63.9831 145.407 64.5505 144.817 65.2842 144.416C66.0225 144.01 66.8337 143.808 67.7178 143.808C68.7204 143.808 69.5635 144.063 70.2471 144.573C70.9307 145.084 71.4069 145.801 71.6758 146.727L70.3701 147.034C70.1377 146.305 69.8005 145.774 69.3584 145.441C68.9163 145.109 68.3604 144.942 67.6904 144.942C66.9202 144.942 66.2754 145.127 65.7559 145.496C65.2409 145.865 64.8786 146.362 64.6689 146.986C64.4593 147.606 64.3545 148.246 64.3545 148.907C64.3545 149.759 64.4775 150.505 64.7236 151.143C64.9743 151.776 65.3617 152.25 65.8857 152.564C66.4098 152.879 66.9772 153.036 67.5879 153.036C68.3307 153.036 68.9596 152.822 69.4746 152.394C69.9896 151.965 70.3382 151.329 70.5205 150.486ZM73.5283 154V143.979H74.8545V148.094H80.0635V143.979H81.3896V154H80.0635V149.276H74.8545V154H73.5283ZM83.5635 154V143.979H85.5596L87.9316 151.074C88.1504 151.735 88.3099 152.229 88.4102 152.558C88.5241 152.193 88.7018 151.658 88.9434 150.951L91.3428 143.979H93.127V154H91.8486V145.612L88.9365 154H87.7402L84.8418 145.469V154H83.5635ZM94.166 154L98.0146 143.979H99.4434L103.545 154H102.034L100.865 150.965H96.6748L95.5742 154H94.166ZM97.0576 149.885H100.455L99.4092 147.109C99.0902 146.266 98.8532 145.574 98.6982 145.031C98.5706 145.674 98.3906 146.312 98.1582 146.945L97.0576 149.885ZM104.55 154V143.979H105.876V148.948L110.853 143.979H112.65L108.446 148.039L112.835 154H111.085L107.517 148.928L105.876 150.527V154H104.55ZM114.168 154V143.979H115.494V154H114.168ZM117.825 154V143.979H119.186L124.449 151.847V143.979H125.721V154H124.36L119.097 146.125V154H117.825ZM132.646 150.069V148.894L136.891 148.887V152.605C136.239 153.125 135.567 153.517 134.874 153.781C134.181 154.041 133.47 154.171 132.741 154.171C131.757 154.171 130.861 153.961 130.055 153.542C129.253 153.118 128.646 152.507 128.236 151.71C127.826 150.912 127.621 150.021 127.621 149.037C127.621 148.062 127.824 147.153 128.229 146.31C128.64 145.462 129.228 144.833 129.993 144.423C130.759 144.013 131.641 143.808 132.639 143.808C133.363 143.808 134.017 143.926 134.601 144.163C135.188 144.396 135.649 144.721 135.981 145.141C136.314 145.56 136.567 146.107 136.74 146.781L135.544 147.109C135.394 146.599 135.207 146.198 134.983 145.906C134.76 145.615 134.441 145.382 134.026 145.209C133.612 145.031 133.151 144.942 132.646 144.942C132.039 144.942 131.515 145.036 131.073 145.223C130.631 145.405 130.273 145.646 130 145.947C129.731 146.248 129.521 146.578 129.371 146.938C129.116 147.558 128.988 148.23 128.988 148.955C128.988 149.848 129.141 150.596 129.446 151.197C129.756 151.799 130.205 152.245 130.793 152.537C131.381 152.829 132.005 152.975 132.666 152.975C133.24 152.975 133.801 152.865 134.348 152.646C134.895 152.423 135.309 152.186 135.592 151.936V150.069H132.646ZM142.298 150.78L143.549 150.671C143.608 151.172 143.745 151.585 143.959 151.908C144.178 152.227 144.515 152.487 144.971 152.688C145.426 152.883 145.939 152.981 146.509 152.981C147.015 152.981 147.461 152.906 147.849 152.756C148.236 152.605 148.523 152.4 148.71 152.141C148.901 151.876 148.997 151.589 148.997 151.279C148.997 150.965 148.906 150.691 148.724 150.459C148.541 150.222 148.241 150.024 147.821 149.864C147.552 149.759 146.958 149.598 146.037 149.379C145.117 149.156 144.472 148.946 144.103 148.75C143.624 148.499 143.266 148.189 143.029 147.82C142.797 147.447 142.681 147.03 142.681 146.569C142.681 146.063 142.824 145.592 143.111 145.154C143.398 144.712 143.818 144.377 144.369 144.149C144.921 143.922 145.534 143.808 146.208 143.808C146.951 143.808 147.605 143.928 148.17 144.17C148.74 144.407 149.177 144.758 149.482 145.223C149.788 145.688 149.952 146.214 149.975 146.802L148.703 146.897C148.635 146.264 148.402 145.785 148.006 145.462C147.614 145.138 147.033 144.977 146.263 144.977C145.461 144.977 144.875 145.125 144.506 145.421C144.141 145.713 143.959 146.066 143.959 146.48C143.959 146.84 144.089 147.137 144.349 147.369C144.604 147.602 145.269 147.841 146.345 148.087C147.425 148.328 148.165 148.54 148.566 148.723C149.15 148.992 149.58 149.333 149.858 149.748C150.136 150.158 150.275 150.632 150.275 151.17C150.275 151.703 150.123 152.207 149.817 152.681C149.512 153.15 149.072 153.517 148.498 153.781C147.928 154.041 147.286 154.171 146.57 154.171C145.663 154.171 144.902 154.039 144.287 153.774C143.676 153.51 143.196 153.114 142.845 152.585C142.498 152.052 142.316 151.45 142.298 150.78ZM152.114 154V143.979H159.36V145.161H153.44V148.23H158.984V149.406H153.44V152.817H159.593V154H152.114ZM161.445 154V143.979H165.889C166.782 143.979 167.461 144.07 167.926 144.252C168.391 144.43 168.762 144.746 169.04 145.202C169.318 145.658 169.457 146.161 169.457 146.713C169.457 147.424 169.227 148.023 168.767 148.511C168.306 148.998 167.595 149.308 166.634 149.44C166.985 149.609 167.251 149.775 167.434 149.939C167.821 150.295 168.188 150.739 168.534 151.272L170.277 154H168.609L167.283 151.915C166.896 151.313 166.577 150.853 166.326 150.534C166.076 150.215 165.85 149.992 165.649 149.864C165.453 149.737 165.253 149.648 165.048 149.598C164.897 149.566 164.651 149.55 164.31 149.55H162.771V154H161.445ZM162.771 148.401H165.622C166.228 148.401 166.702 148.34 167.044 148.217C167.386 148.089 167.646 147.889 167.823 147.615C168.001 147.337 168.09 147.036 168.09 146.713C168.09 146.239 167.917 145.849 167.57 145.544C167.229 145.239 166.686 145.086 165.943 145.086H162.771V148.401ZM174.146 154L170.264 143.979H171.699L174.304 151.259C174.513 151.842 174.689 152.389 174.83 152.899C174.985 152.353 175.165 151.806 175.37 151.259L178.077 143.979H179.431L175.507 154H174.146ZM180.846 154V143.979H182.172V154H180.846ZM191.667 150.486L192.993 150.821C192.715 151.91 192.214 152.742 191.489 153.316C190.769 153.886 189.887 154.171 188.844 154.171C187.764 154.171 186.884 153.952 186.205 153.515C185.531 153.073 185.016 152.435 184.66 151.601C184.309 150.767 184.134 149.871 184.134 148.914C184.134 147.87 184.332 146.961 184.729 146.187C185.13 145.407 185.697 144.817 186.431 144.416C187.169 144.01 187.98 143.808 188.864 143.808C189.867 143.808 190.71 144.063 191.394 144.573C192.077 145.084 192.553 145.801 192.822 146.727L191.517 147.034C191.284 146.305 190.947 145.774 190.505 145.441C190.063 145.109 189.507 144.942 188.837 144.942C188.067 144.942 187.422 145.127 186.902 145.496C186.387 145.865 186.025 146.362 185.815 146.986C185.606 147.606 185.501 148.246 185.501 148.907C185.501 149.759 185.624 150.505 185.87 151.143C186.121 151.776 186.508 152.25 187.032 152.564C187.556 152.879 188.124 153.036 188.734 153.036C189.477 153.036 190.106 152.822 190.621 152.394C191.136 151.965 191.485 151.329 191.667 150.486ZM194.661 154V143.979H201.907V145.161H195.987V148.23H201.531V149.406H195.987V152.817H202.14V154H194.661ZM203.521 150.78L204.771 150.671C204.831 151.172 204.967 151.585 205.182 151.908C205.4 152.227 205.738 152.487 206.193 152.688C206.649 152.883 207.162 152.981 207.731 152.981C208.237 152.981 208.684 152.906 209.071 152.756C209.459 152.605 209.746 152.4 209.933 152.141C210.124 151.876 210.22 151.589 210.22 151.279C210.22 150.965 210.129 150.691 209.946 150.459C209.764 150.222 209.463 150.024 209.044 149.864C208.775 149.759 208.18 149.598 207.26 149.379C206.339 149.156 205.694 148.946 205.325 148.75C204.847 148.499 204.489 148.189 204.252 147.82C204.02 147.447 203.903 147.03 203.903 146.569C203.903 146.063 204.047 145.592 204.334 145.154C204.621 144.712 205.04 144.377 205.592 144.149C206.143 143.922 206.756 143.808 207.431 143.808C208.174 143.808 208.827 143.928 209.393 144.17C209.962 144.407 210.4 144.758 210.705 145.223C211.01 145.688 211.174 146.214 211.197 146.802L209.926 146.897C209.857 146.264 209.625 145.785 209.229 145.462C208.837 145.138 208.256 144.977 207.485 144.977C206.683 144.977 206.098 145.125 205.729 145.421C205.364 145.713 205.182 146.066 205.182 146.48C205.182 146.84 205.312 147.137 205.571 147.369C205.826 147.602 206.492 147.841 207.567 148.087C208.647 148.328 209.388 148.54 209.789 148.723C210.372 148.992 210.803 149.333 211.081 149.748C211.359 150.158 211.498 150.632 211.498 151.17C211.498 151.703 211.345 152.207 211.04 152.681C210.735 153.15 210.295 153.517 209.721 153.781C209.151 154.041 208.508 154.171 207.793 154.171C206.886 154.171 206.125 154.039 205.51 153.774C204.899 153.51 204.418 153.114 204.067 152.585C203.721 152.052 203.539 151.45 203.521 150.78Z" fill="#666666"/>
</svg>
