<svg width="334" height="126" viewBox="0 0 334 126" fill="none" xmlns="http://www.w3.org/2000/svg">
<path d="M43 3L83 123H3L43 3Z" stroke="#2B6CB0" stroke-width="6" stroke-linejoin="round"/>
<path d="M13 63C23 56.3333 33 56.3333 43 63C53 69.6667 63 69.6667 73 63" stroke="#4299E1" stroke-width="4" stroke-linecap="round"/>
<path d="M86.4922 87V52.6406H97.625C101.844 52.6406 104.594 52.8125 105.875 53.1562C107.844 53.6719 109.492 54.7969 110.82 56.5312C112.148 58.25 112.812 60.4766 112.812 63.2109C112.812 65.3203 112.43 67.0938 111.664 68.5312C110.898 69.9688 109.922 71.1016 108.734 71.9297C107.562 72.7422 106.367 73.2812 105.148 73.5469C103.492 73.875 101.094 74.0391 97.9531 74.0391H93.4297V87H86.4922ZM93.4297 58.4531V68.2031H97.2266C99.9609 68.2031 101.789 68.0234 102.711 67.6641C103.633 67.3047 104.352 66.7422 104.867 65.9766C105.398 65.2109 105.664 64.3203 105.664 63.3047C105.664 62.0547 105.297 61.0234 104.562 60.2109C103.828 59.3984 102.898 58.8906 101.773 58.6875C100.945 58.5312 99.2812 58.4531 96.7812 58.4531H93.4297ZM134.844 87V83.2734C133.938 84.6016 132.742 85.6484 131.258 86.4141C129.789 87.1797 128.234 87.5625 126.594 87.5625C124.922 87.5625 123.422 87.1953 122.094 86.4609C120.766 85.7266 119.805 84.6953 119.211 83.3672C118.617 82.0391 118.32 80.2031 118.32 77.8594V62.1094H124.906V73.5469C124.906 77.0469 125.023 79.1953 125.258 79.9922C125.508 80.7734 125.953 81.3984 126.594 81.8672C127.234 82.3203 128.047 82.5469 129.031 82.5469C130.156 82.5469 131.164 82.2422 132.055 81.6328C132.945 81.0078 133.555 80.2422 133.883 79.3359C134.211 78.4141 134.375 76.1719 134.375 72.6094V62.1094H140.961V87H134.844ZM154.109 87H147.523V62.1094H153.641V65.6484C154.688 63.9766 155.625 62.875 156.453 62.3438C157.297 61.8125 158.25 61.5469 159.312 61.5469C160.812 61.5469 162.258 61.9609 163.648 62.7891L161.609 68.5312C160.5 67.8125 159.469 67.4531 158.516 67.4531C157.594 67.4531 156.812 67.7109 156.172 68.2266C155.531 68.7266 155.023 69.6406 154.648 70.9688C154.289 72.2969 154.109 75.0781 154.109 79.3125V87ZM180.922 79.0781L187.484 80.1797C186.641 82.5859 185.305 84.4219 183.477 85.6875C181.664 86.9375 179.391 87.5625 176.656 87.5625C172.328 87.5625 169.125 86.1484 167.047 83.3203C165.406 81.0547 164.586 78.1953 164.586 74.7422C164.586 70.6172 165.664 67.3906 167.82 65.0625C169.977 62.7188 172.703 61.5469 176 61.5469C179.703 61.5469 182.625 62.7734 184.766 65.2266C186.906 67.6641 187.93 71.4062 187.836 76.4531H171.336C171.383 78.4062 171.914 79.9297 172.93 81.0234C173.945 82.1016 175.211 82.6406 176.727 82.6406C177.758 82.6406 178.625 82.3594 179.328 81.7969C180.031 81.2344 180.562 80.3281 180.922 79.0781ZM181.297 72.4219C181.25 70.5156 180.758 69.0703 179.82 68.0859C178.883 67.0859 177.742 66.5859 176.398 66.5859C174.961 66.5859 173.773 67.1094 172.836 68.1562C171.898 69.2031 171.438 70.625 171.453 72.4219H181.297Z" fill="#2D3748"/>
<path d="M222.477 74.3672V68.5781H237.43V82.2656C235.977 83.6719 233.867 84.9141 231.102 85.9922C228.352 87.0547 225.562 87.5859 222.734 87.5859C219.141 87.5859 216.008 86.8359 213.336 85.3359C210.664 83.8203 208.656 81.6641 207.312 78.8672C205.969 76.0547 205.297 73 205.297 69.7031C205.297 66.125 206.047 62.9453 207.547 60.1641C209.047 57.3828 211.242 55.25 214.133 53.7656C216.336 52.625 219.078 52.0547 222.359 52.0547C226.625 52.0547 229.953 52.9531 232.344 54.75C234.75 56.5312 236.297 59 236.984 62.1562L230.094 63.4453C229.609 61.7578 228.695 60.4297 227.352 59.4609C226.023 58.4766 224.359 57.9844 222.359 57.9844C219.328 57.9844 216.914 58.9453 215.117 60.8672C213.336 62.7891 212.445 65.6406 212.445 69.4219C212.445 73.5 213.352 76.5625 215.164 78.6094C216.977 80.6406 219.352 81.6562 222.289 81.6562C223.742 81.6562 225.195 81.375 226.648 80.8125C228.117 80.2344 229.375 79.5391 230.422 78.7266V74.3672H222.477ZM243.805 87V52.6406H250.391V87H243.805ZM262.086 69.7031L256.109 68.625C256.781 66.2188 257.938 64.4375 259.578 63.2812C261.219 62.125 263.656 61.5469 266.891 61.5469C269.828 61.5469 272.016 61.8984 273.453 62.6016C274.891 63.2891 275.898 64.1719 276.477 65.25C277.07 66.3125 277.367 68.2734 277.367 71.1328L277.297 78.8203C277.297 81.0078 277.398 82.625 277.602 83.6719C277.82 84.7031 278.219 85.8125 278.797 87H272.281C272.109 86.5625 271.898 85.9141 271.648 85.0547C271.539 84.6641 271.461 84.4062 271.414 84.2812C270.289 85.375 269.086 86.1953 267.805 86.7422C266.523 87.2891 265.156 87.5625 263.703 87.5625C261.141 87.5625 259.117 86.8672 257.633 85.4766C256.164 84.0859 255.43 82.3281 255.43 80.2031C255.43 78.7969 255.766 77.5469 256.438 76.4531C257.109 75.3438 258.047 74.5 259.25 73.9219C260.469 73.3281 262.219 72.8125 264.5 72.375C267.578 71.7969 269.711 71.2578 270.898 70.7578V70.1016C270.898 68.8359 270.586 67.9375 269.961 67.4062C269.336 66.8594 268.156 66.5859 266.422 66.5859C265.25 66.5859 264.336 66.8203 263.68 67.2891C263.023 67.7422 262.492 68.5469 262.086 69.7031ZM270.898 75.0469C270.055 75.3281 268.719 75.6641 266.891 76.0547C265.062 76.4453 263.867 76.8281 263.305 77.2031C262.445 77.8125 262.016 78.5859 262.016 79.5234C262.016 80.4453 262.359 81.2422 263.047 81.9141C263.734 82.5859 264.609 82.9219 265.672 82.9219C266.859 82.9219 267.992 82.5312 269.07 81.75C269.867 81.1562 270.391 80.4297 270.641 79.5703C270.812 79.0078 270.898 77.9375 270.898 76.3594V75.0469ZM281.562 79.8984L288.172 78.8906C288.453 80.1719 289.023 81.1484 289.883 81.8203C290.742 82.4766 291.945 82.8047 293.492 82.8047C295.195 82.8047 296.477 82.4922 297.336 81.8672C297.914 81.4297 298.203 80.8438 298.203 80.1094C298.203 79.6094 298.047 79.1953 297.734 78.8672C297.406 78.5547 296.672 78.2656 295.531 78C290.219 76.8281 286.852 75.7578 285.43 74.7891C283.461 73.4453 282.477 71.5781 282.477 69.1875C282.477 67.0312 283.328 65.2188 285.031 63.75C286.734 62.2812 289.375 61.5469 292.953 61.5469C296.359 61.5469 298.891 62.1016 300.547 63.2109C302.203 64.3203 303.344 65.9609 303.969 68.1328L297.758 69.2812C297.492 68.3125 296.984 67.5703 296.234 67.0547C295.5 66.5391 294.445 66.2812 293.07 66.2812C291.336 66.2812 290.094 66.5234 289.344 67.0078C288.844 67.3516 288.594 67.7969 288.594 68.3438C288.594 68.8125 288.812 69.2109 289.25 69.5391C289.844 69.9766 291.891 70.5938 295.391 71.3906C298.906 72.1875 301.359 73.1641 302.75 74.3203C304.125 75.4922 304.812 77.125 304.812 79.2188C304.812 81.5 303.859 83.4609 301.953 85.1016C300.047 86.7422 297.227 87.5625 293.492 87.5625C290.102 87.5625 287.414 86.875 285.43 85.5C283.461 84.125 282.172 82.2578 281.562 79.8984ZM308.281 79.8984L314.891 78.8906C315.172 80.1719 315.742 81.1484 316.602 81.8203C317.461 82.4766 318.664 82.8047 320.211 82.8047C321.914 82.8047 323.195 82.4922 324.055 81.8672C324.633 81.4297 324.922 80.8438 324.922 80.1094C324.922 79.6094 324.766 79.1953 324.453 78.8672C324.125 78.5547 323.391 78.2656 322.25 78C316.938 76.8281 313.57 75.7578 312.148 74.7891C310.18 73.4453 309.195 71.5781 309.195 69.1875C309.195 67.0312 310.047 65.2188 311.75 63.75C313.453 62.2812 316.094 61.5469 319.672 61.5469C323.078 61.5469 325.609 62.1016 327.266 63.2109C328.922 64.3203 330.062 65.9609 330.688 68.1328L324.477 69.2812C324.211 68.3125 323.703 67.5703 322.953 67.0547C322.219 66.5391 321.164 66.2812 319.789 66.2812C318.055 66.2812 316.812 66.5234 316.062 67.0078C315.562 67.3516 315.312 67.7969 315.312 68.3438C315.312 68.8125 315.531 69.2109 315.969 69.5391C316.562 69.9766 318.609 70.5938 322.109 71.3906C325.625 72.1875 328.078 73.1641 329.469 74.3203C330.844 75.4922 331.531 77.125 331.531 79.2188C331.531 81.5 330.578 83.4609 328.672 85.1016C326.766 86.7422 323.945 87.5625 320.211 87.5625C316.82 87.5625 314.133 86.875 312.148 85.5C310.18 84.125 308.891 82.2578 308.281 79.8984Z" fill="#4299E1"/>
</svg>
