<svg width="252" height="146" viewBox="0 0 252 146" fill="none" xmlns="http://www.w3.org/2000/svg">
<path d="M134 36C150.73 21.1644 157.801 8.91692 150.383 0.551756C143.312 12.7992 134.947 20.217 134 36Z" fill="#557153"/>
<path d="M124 11C164 11 164 51 144 81H104C83.9999 51 83.9999 11 124 11Z" stroke="#862B0D" stroke-width="3"/>
<path d="M124 81V111V81Z" fill="black"/>
<path d="M124 81V111" stroke="#862B0D" stroke-width="3"/>
<path d="M104 111H144H104Z" fill="black"/>
<path d="M104 111H144" stroke="#862B0D" stroke-width="3"/>
<path d="M11.2188 137.156C10.9062 136.25 10.2552 134.5 9.26562 131.906L3.95312 118.766C3.39062 117.37 3.04167 116.562 2.90625 116.344C2.8125 116.208 2.68229 116.109 2.51562 116.047C2.28646 115.943 1.71354 115.859 0.796875 115.797V114.797C2.68229 114.88 4.07292 114.922 4.96875 114.922C5.8125 114.922 7.24479 114.88 9.26562 114.797V115.906C7.99479 115.927 7.25521 115.953 7.04688 115.984C6.84896 116.016 6.70833 116.078 6.625 116.172C6.55208 116.255 6.51562 116.354 6.51562 116.469C6.51562 116.583 6.58854 116.854 6.73438 117.281C7.18229 118.667 7.57292 119.781 7.90625 120.625L12.7969 132.969L16.875 122.734C17.4688 121.266 18.0365 119.667 18.5781 117.938C18.8073 117.198 18.9219 116.74 18.9219 116.562C18.9219 116.312 18.7865 116.146 18.5156 116.062C18.3073 115.99 17.5052 115.901 16.1094 115.797V114.797C17.6823 114.859 18.8646 114.891 19.6562 114.891C20.4688 114.891 21.5885 114.859 23.0156 114.797V115.797C22.224 115.828 21.75 115.88 21.5938 115.953C21.4375 116.026 21.2917 116.172 21.1562 116.391C21.0625 116.547 20.6771 117.391 20 118.922L15.125 130.922L13.9219 134C13.6719 134.615 13.4688 135.146 13.3125 135.594C13.1562 136.042 12.9844 136.562 12.7969 137.156H11.2188ZM33.5312 136V137C31.3125 136.917 29.8542 136.875 29.1562 136.875L24.3281 137V136C25.5573 135.979 26.3073 135.927 26.5781 135.844C26.849 135.75 27.0365 135.625 27.1406 135.469C27.2656 135.26 27.3438 134.755 27.375 133.953C27.3854 133.734 27.4062 132.255 27.4375 129.516V122.281C27.4375 120.865 27.4219 119.479 27.3906 118.125C27.3594 117.135 27.2812 116.552 27.1562 116.375C27.0417 116.188 26.849 116.052 26.5781 115.969C26.3177 115.875 25.5677 115.818 24.3281 115.797V114.797C26.3177 114.87 27.8542 114.906 28.9375 114.906C29.9792 114.906 31.5104 114.87 33.5312 114.797V115.797C32.2917 115.818 31.5365 115.875 31.2656 115.969C31.0052 116.052 30.8229 116.172 30.7188 116.328C30.5938 116.536 30.5156 117.042 30.4844 117.844C30.474 118.052 30.4531 119.531 30.4219 122.281V129.516C30.4219 130.932 30.4375 132.312 30.4688 133.656C30.5 134.646 30.5729 135.234 30.6875 135.422C30.8125 135.609 31.0052 135.75 31.2656 135.844C31.5365 135.927 32.2917 135.979 33.5312 136ZM36.1719 119.969H35.2031C35.1927 117.479 35.1406 115.755 35.0469 114.797C36.1823 114.839 37.9635 114.891 40.3906 114.953C42.3594 114.995 43.6719 115.016 44.3281 115.016C45.0365 115.016 46.6771 114.984 49.25 114.922C51.1146 114.88 52.474 114.839 53.3281 114.797C53.2031 115.964 53.1198 117.688 53.0781 119.969H52.0781L51.9531 118.469C51.8698 117.562 51.8125 117.047 51.7812 116.922C51.75 116.797 51.7031 116.708 51.6406 116.656C51.5885 116.604 51.5052 116.562 51.3906 116.531C51.2448 116.5 50.724 116.458 49.8281 116.406C48.9323 116.354 48.224 116.328 47.7031 116.328H45.7969C45.6927 117.328 45.6406 118.677 45.6406 120.375V129.516C45.6406 130.932 45.6562 132.312 45.6875 133.656C45.7188 134.646 45.7917 135.234 45.9062 135.422C46.0312 135.609 46.224 135.75 46.4844 135.844C46.7552 135.927 47.5104 135.979 48.75 136V137C46.8854 136.917 45.4844 136.875 44.5469 136.875C44.1406 136.875 42.5156 136.917 39.6719 137V136C40.9115 135.979 41.6667 135.927 41.9375 135.844C42.2083 135.75 42.3906 135.625 42.4844 135.469C42.6198 135.26 42.7031 134.755 42.7344 133.953C42.7344 133.734 42.7552 132.255 42.7969 129.516V120.406C42.7969 119.969 42.7865 119.49 42.7656 118.969L42.6719 116.328H40.3438C39 116.328 37.9323 116.38 37.1406 116.484C36.8906 116.516 36.7292 116.583 36.6562 116.688C36.5417 116.865 36.4375 117.432 36.3438 118.391L36.1719 119.969ZM54.7031 115.797V114.797C55.1094 114.807 55.7292 114.823 56.5625 114.844L59.5625 114.922C60.1562 114.922 61.0781 114.901 62.3281 114.859C63.9531 114.797 64.8958 114.766 65.1562 114.766C67.1458 114.766 68.5938 114.943 69.5 115.297C70.4167 115.651 71.125 116.229 71.625 117.031C72.125 117.823 72.375 118.688 72.375 119.625C72.375 120.5 72.1406 121.37 71.6719 122.234C71.2031 123.099 70.5208 123.818 69.625 124.391C68.7396 124.964 67.5833 125.406 66.1562 125.719C66.4167 126.083 67.0312 126.896 68 128.156L71.9375 133.344C73.0625 134.792 73.7188 135.599 73.9062 135.766C74 135.839 74.0938 135.891 74.1875 135.922C74.3438 135.974 74.6875 136 75.2188 136V137C74.4271 136.938 73.7344 136.906 73.1406 136.906C72.526 136.906 71.7708 136.938 70.875 137C70.1979 136.219 69.0625 134.693 67.4688 132.422C66.5833 131.161 65.8021 130.109 65.125 129.266C64.0312 127.87 62.9896 126.604 62 125.469L62.1562 125C62.6979 125.031 63.1094 125.047 63.3906 125.047C65.2865 125.047 66.724 124.599 67.7031 123.703C68.6823 122.807 69.1719 121.625 69.1719 120.156C69.1719 118.875 68.75 117.859 67.9062 117.109C67.0625 116.349 65.7865 115.969 64.0781 115.969C63.0052 115.969 61.9531 116.13 60.9219 116.453C60.8802 117.016 60.849 117.542 60.8281 118.031C60.8177 118.177 60.7812 119.693 60.7188 122.578V129.516C60.7188 130.932 60.7396 132.312 60.7812 133.656C60.8021 134.646 60.8698 135.234 60.9844 135.422C61.1094 135.609 61.3073 135.75 61.5781 135.844C61.849 135.927 62.599 135.979 63.8281 136V137C62.349 136.917 60.9896 136.875 59.75 136.875C58.75 136.875 57.0677 136.917 54.7031 137V136C55.9323 135.979 56.6823 135.927 56.9531 135.844C57.224 135.75 57.4115 135.625 57.5156 135.469C57.6406 135.26 57.7188 134.755 57.75 133.953C57.7604 133.734 57.7812 132.255 57.8125 129.516V122.281C57.8125 120.865 57.7969 119.479 57.7656 118.125C57.7344 117.135 57.6562 116.552 57.5312 116.375C57.4167 116.188 57.224 116.052 56.9531 115.969C56.6927 115.875 55.9427 115.818 54.7031 115.797ZM75.8438 115.797V114.797C77.5417 114.88 79.1198 114.922 80.5781 114.922C82.0573 114.922 83.526 114.88 84.9844 114.797V115.797C83.7552 115.818 83.0052 115.875 82.7344 115.969C82.4635 116.052 82.2812 116.172 82.1875 116.328C82.0521 116.536 81.9688 117.042 81.9375 117.844C81.9271 118.052 81.9062 119.531 81.875 122.281V128.062C81.875 130.302 82.0156 131.781 82.2969 132.5C82.5885 133.208 83.0469 133.797 83.6719 134.266C84.151 134.62 84.7969 134.906 85.6094 135.125C86.4219 135.333 87.3281 135.438 88.3281 135.438C89.4948 135.438 90.5312 135.297 91.4375 135.016C92.3438 134.724 93.0208 134.375 93.4688 133.969C93.9271 133.552 94.2656 133.089 94.4844 132.578C94.7135 132.068 94.875 131.37 94.9688 130.484C95.0729 129.589 95.125 128.458 95.125 127.094V122.281C95.125 120.865 95.1042 119.479 95.0625 118.125C95.0417 117.135 94.9688 116.552 94.8438 116.375C94.7292 116.188 94.5365 116.052 94.2656 115.969C93.9948 115.875 93.2448 115.818 92.0156 115.797V114.797C93.7344 114.88 94.9896 114.922 95.7812 114.922C96.5 114.922 97.7969 114.88 99.6719 114.797V115.797C98.4323 115.818 97.6771 115.875 97.4062 115.969C97.1458 116.052 96.9635 116.172 96.8594 116.328C96.7344 116.536 96.6562 117.042 96.625 117.844C96.6146 118.052 96.5938 119.531 96.5625 122.281V127.516C96.5625 130.089 96.3802 131.885 96.0156 132.906C95.6615 133.927 95.0052 134.828 94.0469 135.609C93.3281 136.193 92.401 136.646 91.2656 136.969C90.1406 137.292 88.8906 137.453 87.5156 137.453C85.9115 137.453 84.5208 137.266 83.3438 136.891C82.1667 136.505 81.2708 136.005 80.6562 135.391C80.0417 134.766 79.6198 134.13 79.3906 133.484C79.099 132.63 78.9531 131.198 78.9531 129.188V122.281C78.9531 120.865 78.9375 119.479 78.9062 118.125C78.875 117.135 78.7969 116.552 78.6719 116.375C78.5573 116.188 78.3646 116.052 78.0938 115.969C77.8333 115.875 77.0833 115.818 75.8438 115.797ZM100.875 115.797V114.797C101.969 114.839 103.016 114.859 104.016 114.859C105.026 114.859 105.995 114.839 106.922 114.797C107.839 116.88 108.677 118.708 109.438 120.281L115.359 132.469L120.703 121.297C122.161 118.255 123.135 116.089 123.625 114.797C124.729 114.839 125.661 114.859 126.422 114.859C127.12 114.859 128.25 114.839 129.812 114.797V115.797C128.573 115.818 127.818 115.875 127.547 115.969C127.286 116.052 127.104 116.172 127 116.328C126.865 116.536 126.786 117.042 126.766 117.844C126.755 118.052 126.729 119.531 126.688 122.281V129.516C126.688 130.932 126.708 132.312 126.75 133.656C126.781 134.646 126.854 135.234 126.969 135.422C127.094 135.609 127.286 135.75 127.547 135.844C127.818 135.927 128.573 135.979 129.812 136V137C127.708 136.906 126.224 136.859 125.359 136.859C124.661 136.859 123.12 136.906 120.734 137V136C121.974 135.979 122.729 135.927 123 135.844C123.271 135.75 123.453 135.625 123.547 135.469C123.682 135.26 123.76 134.755 123.781 133.953C123.792 133.734 123.818 132.255 123.859 129.516V118.047L118.469 129.328C117.625 131.089 116.964 132.505 116.484 133.578C116.141 134.359 115.62 135.599 114.922 137.297H114.312C114.177 136.901 114.052 136.583 113.938 136.344L112.875 134.078L105.406 118.562V129.516C105.406 130.932 105.427 132.312 105.469 133.656C105.5 134.646 105.573 135.234 105.688 135.422C105.812 135.609 106.005 135.75 106.266 135.844C106.536 135.927 107.292 135.979 108.531 136V137L104.766 136.875L100.875 137V136C102.104 135.979 102.854 135.927 103.125 135.844C103.396 135.75 103.583 135.625 103.688 135.469C103.812 135.26 103.891 134.755 103.922 133.953C103.932 133.734 103.953 132.255 103.984 129.516V122.281C103.984 120.865 103.969 119.479 103.938 118.125C103.906 117.135 103.828 116.552 103.703 116.375C103.589 116.188 103.396 116.052 103.125 115.969C102.865 115.875 102.115 115.818 100.875 115.797ZM162.594 135.25C161.833 135.792 161.38 136.12 161.234 136.234C161.016 136.401 160.562 136.766 159.875 137.328C159.5 137.401 159.13 137.438 158.766 137.438C157.828 137.438 157.042 137.302 156.406 137.031C155.292 136.615 154.156 135.932 153 134.984C151.667 135.964 150.542 136.62 149.625 136.953C148.708 137.286 147.677 137.453 146.531 137.453C145.115 137.453 143.917 137.167 142.938 136.594C141.969 136.01 141.234 135.219 140.734 134.219C140.245 133.208 140 132.203 140 131.203C140 129.745 140.411 128.469 141.234 127.375C142.057 126.271 143.281 125.271 144.906 124.375C144.281 122.875 143.969 121.495 143.969 120.234C143.969 119.62 144.094 119.021 144.344 118.438C144.51 118.021 144.651 117.745 144.766 117.609C144.891 117.464 145.438 116.974 146.406 116.141C146.99 115.651 147.448 115.328 147.781 115.172C148.219 114.964 148.703 114.859 149.234 114.859C150.13 114.859 150.828 115.12 151.328 115.641C151.839 116.161 152.094 116.885 152.094 117.812C152.094 118.792 151.734 119.823 151.016 120.906C150.307 121.99 149.151 123.073 147.547 124.156C148.276 125.583 149.266 127.083 150.516 128.656C151.776 130.219 152.943 131.432 154.016 132.297C155.078 131.099 155.609 129.833 155.609 128.5C155.609 127.719 155.495 127.109 155.266 126.672C155.12 126.401 154.901 126.234 154.609 126.172C154.422 126.12 153.594 126.083 152.125 126.062L151.984 125.859L153 124.375C153.688 124.469 154.542 124.516 155.562 124.516C156.219 124.516 157.5 124.479 159.406 124.406C159.938 124.385 160.88 124.375 162.234 124.375C162.057 125.146 161.938 125.875 161.875 126.562C160.438 126.323 158.943 126.219 157.391 126.25C157.516 126.729 157.578 127.182 157.578 127.609C157.578 128.557 157.37 129.464 156.953 130.328C156.547 131.182 155.885 132.083 154.969 133.031C156.865 134.396 158.734 135.078 160.578 135.078C160.859 135.078 161.099 135.047 161.297 134.984C161.505 134.911 161.87 134.729 162.391 134.438L162.594 135.25ZM147.031 123.094C147.979 122.417 148.703 121.677 149.203 120.875C149.714 120.062 149.969 119.318 149.969 118.641C149.969 118.047 149.797 117.557 149.453 117.172C149.109 116.776 148.719 116.578 148.281 116.578C147.896 116.578 147.542 116.672 147.219 116.859C146.896 117.036 146.646 117.328 146.469 117.734C146.302 118.13 146.219 118.656 146.219 119.312C146.219 120.271 146.49 121.531 147.031 123.094ZM151.984 134.188C150.589 132.688 149.641 131.635 149.141 131.031C148.453 130.208 147.823 129.385 147.25 128.562C146.688 127.74 146.078 126.75 145.422 125.594C144.474 126.281 143.792 126.979 143.375 127.688C142.958 128.385 142.75 129.198 142.75 130.125C142.75 131.042 142.995 131.948 143.484 132.844C143.974 133.74 144.63 134.432 145.453 134.922C146.286 135.401 147.161 135.641 148.078 135.641C149.401 135.641 150.703 135.156 151.984 134.188ZM182.219 137.156C181.906 136.25 181.255 134.5 180.266 131.906L174.953 118.766C174.391 117.37 174.042 116.562 173.906 116.344C173.812 116.208 173.682 116.109 173.516 116.047C173.286 115.943 172.714 115.859 171.797 115.797V114.797C173.682 114.88 175.073 114.922 175.969 114.922C176.812 114.922 178.245 114.88 180.266 114.797V115.906C178.995 115.927 178.255 115.953 178.047 115.984C177.849 116.016 177.708 116.078 177.625 116.172C177.552 116.255 177.516 116.354 177.516 116.469C177.516 116.583 177.589 116.854 177.734 117.281C178.182 118.667 178.573 119.781 178.906 120.625L183.797 132.969L187.875 122.734C188.469 121.266 189.036 119.667 189.578 117.938C189.807 117.198 189.922 116.74 189.922 116.562C189.922 116.312 189.786 116.146 189.516 116.062C189.307 115.99 188.505 115.901 187.109 115.797V114.797C188.682 114.859 189.865 114.891 190.656 114.891C191.469 114.891 192.589 114.859 194.016 114.797V115.797C193.224 115.828 192.75 115.88 192.594 115.953C192.438 116.026 192.292 116.172 192.156 116.391C192.062 116.547 191.677 117.391 191 118.922L186.125 130.922L184.922 134C184.672 134.615 184.469 135.146 184.312 135.594C184.156 136.042 183.984 136.562 183.797 137.156H182.219ZM204.531 136V137C202.312 136.917 200.854 136.875 200.156 136.875L195.328 137V136C196.557 135.979 197.307 135.927 197.578 135.844C197.849 135.75 198.036 135.625 198.141 135.469C198.266 135.26 198.344 134.755 198.375 133.953C198.385 133.734 198.406 132.255 198.438 129.516V122.281C198.438 120.865 198.422 119.479 198.391 118.125C198.359 117.135 198.281 116.552 198.156 116.375C198.042 116.188 197.849 116.052 197.578 115.969C197.318 115.875 196.568 115.818 195.328 115.797V114.797C197.318 114.87 198.854 114.906 199.938 114.906C200.979 114.906 202.51 114.87 204.531 114.797V115.797C203.292 115.818 202.536 115.875 202.266 115.969C202.005 116.052 201.823 116.172 201.719 116.328C201.594 116.536 201.516 117.042 201.484 117.844C201.474 118.052 201.453 119.531 201.422 122.281V129.516C201.422 130.932 201.438 132.312 201.469 133.656C201.5 134.646 201.573 135.234 201.688 135.422C201.812 135.609 202.005 135.75 202.266 135.844C202.536 135.927 203.292 135.979 204.531 136ZM206.266 137V136.016C207.359 136.005 208.078 135.922 208.422 135.766C208.568 135.703 208.672 135.604 208.734 135.469C208.839 135.26 208.911 134.714 208.953 133.828C209.016 132.453 209.047 131.266 209.047 130.266V117.531C209.047 117.188 209.026 116.964 208.984 116.859C208.901 116.672 208.714 116.448 208.422 116.188C208.234 116.021 208.016 115.917 207.766 115.875C207.526 115.823 206.984 115.792 206.141 115.781V114.797C207.88 114.839 208.974 114.859 209.422 114.859C210.182 114.859 210.938 114.839 211.688 114.797C212.573 115.953 213.224 116.807 213.641 117.359L216.875 121.344L221.594 127.031C223.104 128.844 224.318 130.271 225.234 131.312C225.818 132 226.307 132.542 226.703 132.938V121.516C226.703 120.495 226.667 119.297 226.594 117.922C226.552 117.057 226.484 116.521 226.391 116.312C226.318 116.177 226.208 116.078 226.062 116.016C225.719 115.87 225.005 115.792 223.922 115.781V114.797C225.151 114.839 226.396 114.859 227.656 114.859C228.844 114.859 229.922 114.839 230.891 114.797V115.781C229.807 115.792 229.094 115.87 228.75 116.016C228.604 116.078 228.5 116.182 228.438 116.328C228.333 116.526 228.26 117.073 228.219 117.969C228.156 119.344 228.125 120.526 228.125 121.516V129.031C228.125 130.552 228.151 133.391 228.203 137.547L226.594 137.078L226.219 137C226.156 136.979 226.099 136.948 226.047 136.906C225.974 136.854 225.776 136.646 225.453 136.281C224.589 135.302 223.953 134.562 223.547 134.062L221.531 131.516L210.453 118.281V130.266C210.453 131.286 210.49 132.49 210.562 133.875C210.604 134.74 210.672 135.271 210.766 135.469C210.839 135.615 210.948 135.719 211.094 135.781C211.438 135.927 212.151 136.005 213.234 136.016V137C212.318 136.927 211.307 136.891 210.203 136.891C208.995 136.891 207.682 136.927 206.266 137ZM233.078 137V136.016C234.172 136.005 234.891 135.922 235.234 135.766C235.38 135.703 235.484 135.604 235.547 135.469C235.651 135.26 235.724 134.714 235.766 133.828C235.828 132.453 235.859 131.266 235.859 130.266V122.281C235.859 120.865 235.844 119.479 235.812 118.125C235.781 117.135 235.703 116.552 235.578 116.375C235.464 116.188 235.271 116.052 235 115.969C234.74 115.875 233.99 115.818 232.75 115.797V114.797L237.203 114.891L241.922 114.812C244.182 114.781 245.823 114.766 246.844 114.766C247.875 114.766 248.849 114.823 249.766 114.938C249.599 115.531 249.484 116.047 249.422 116.484C249.401 116.578 249.307 117.661 249.141 119.734H248.156C248.167 118.672 248.099 117.703 247.953 116.828C247.38 116.589 246.75 116.427 246.062 116.344C244.896 116.198 243.729 116.125 242.562 116.125C242.312 116.125 241.755 116.146 240.891 116.188C240.026 116.229 239.406 116.266 239.031 116.297C238.99 117.453 238.958 118.536 238.938 119.547L238.875 124.828C240.094 124.891 241.214 124.922 242.234 124.922C243.474 124.922 244.531 124.865 245.406 124.75C245.74 124.708 245.953 124.625 246.047 124.5C246.141 124.375 246.224 123.948 246.297 123.219L246.391 122.125H247.328V122.422L247.25 125.672L247.328 129.312H246.234L246.188 128.25C246.167 127.479 246.094 127 245.969 126.812C245.854 126.625 245.63 126.495 245.297 126.422C244.703 126.297 243.552 126.234 241.844 126.234C241.146 126.234 240.156 126.26 238.875 126.312C238.823 127.354 238.797 128.901 238.797 130.953C238.797 132.88 238.823 134.344 238.875 135.344C240.375 135.458 242.057 135.516 243.922 135.516C245.245 135.516 246.188 135.474 246.75 135.391C247.312 135.307 247.833 135.167 248.312 134.969C248.438 134.646 248.562 134.208 248.688 133.656C248.917 132.729 249.068 132.031 249.141 131.562H250.172C249.901 133.667 249.766 135.411 249.766 136.797C248.87 136.932 247.781 137 246.5 137L237.172 136.875C237.036 136.875 235.672 136.917 233.078 137Z" fill="#862B0D"/>
</svg>
