<svg width="375" height="99" viewBox="0 0 375 99" fill="none" xmlns="http://www.w3.org/2000/svg">
<path opacity="0.6" d="M42 21C82 1 102 41 142 21C182 1 202 41 242 21" stroke="#64B5F6" stroke-width="8"/>
<path opacity="0.8" d="M22 41C62 21 82 61 122 41C162 21 182 61 222 41" stroke="#2196F3" stroke-width="8"/>
<path d="M2 61C42 41 62 81 102 61C142 41 162 81 202 61" stroke="#1976D2" stroke-width="8"/>
<path d="M254.654 33V7.23047H272.32V11.5898H259.857V17.6895H270.615V22.0488H259.857V33H254.654ZM276.645 33V7.23047H287.596C290.35 7.23047 292.348 7.46484 293.59 7.93359C294.844 8.39062 295.846 9.21094 296.596 10.3945C297.346 11.5781 297.721 12.9316 297.721 14.4551C297.721 16.3887 297.152 17.9883 296.016 19.2539C294.879 20.5078 293.18 21.2988 290.918 21.627C292.043 22.2832 292.969 23.0039 293.695 23.7891C294.434 24.5742 295.424 25.9688 296.666 27.9727L299.812 33H293.59L289.828 27.3926C288.492 25.3887 287.578 24.1289 287.086 23.6133C286.594 23.0859 286.072 22.7285 285.521 22.541C284.971 22.3418 284.098 22.2422 282.902 22.2422H281.848V33H276.645ZM281.848 18.1289H285.697C288.193 18.1289 289.752 18.0234 290.373 17.8125C290.994 17.6016 291.48 17.2383 291.832 16.7227C292.184 16.207 292.359 15.5625 292.359 14.7891C292.359 13.9219 292.125 13.2246 291.656 12.6973C291.199 12.1582 290.549 11.8184 289.705 11.6777C289.283 11.6191 288.018 11.5898 285.908 11.5898H281.848V18.1289ZM302.643 33V7.23047H321.75V11.5898H307.846V17.3027H320.783V21.6445H307.846V28.6582H322.242V33H302.643ZM325.336 24.6152L330.398 24.123C330.703 25.8223 331.318 27.0703 332.244 27.8672C333.182 28.6641 334.441 29.0625 336.023 29.0625C337.699 29.0625 338.959 28.7109 339.803 28.0078C340.658 27.293 341.086 26.4609 341.086 25.5117C341.086 24.9023 340.904 24.3867 340.541 23.9648C340.189 23.5312 339.568 23.1562 338.678 22.8398C338.068 22.6289 336.68 22.2539 334.512 21.7148C331.723 21.0234 329.766 20.1738 328.641 19.166C327.059 17.748 326.268 16.0195 326.268 13.9805C326.268 12.668 326.637 11.4434 327.375 10.3066C328.125 9.1582 329.197 8.28516 330.592 7.6875C331.998 7.08984 333.691 6.79102 335.672 6.79102C338.906 6.79102 341.338 7.5 342.967 8.91797C344.607 10.3359 345.469 12.2285 345.551 14.5957L340.348 14.8242C340.125 13.5 339.645 12.5508 338.906 11.9766C338.18 11.3906 337.084 11.0977 335.619 11.0977C334.107 11.0977 332.924 11.4082 332.068 12.0293C331.518 12.4277 331.242 12.9609 331.242 13.6289C331.242 14.2383 331.5 14.7598 332.016 15.1934C332.672 15.7441 334.266 16.3184 336.797 16.916C339.328 17.5137 341.197 18.1348 342.404 18.7793C343.623 19.4121 344.572 20.2852 345.252 21.3984C345.943 22.5 346.289 23.8652 346.289 25.4941C346.289 26.9707 345.879 28.3535 345.059 29.6426C344.238 30.9316 343.078 31.8926 341.578 32.5254C340.078 33.1465 338.209 33.457 335.971 33.457C332.713 33.457 330.211 32.707 328.465 31.207C326.719 29.6953 325.676 27.498 325.336 24.6152ZM350.684 33V7.23047H355.887V17.373H366.082V7.23047H371.285V33H366.082V21.7324H355.887V33H350.684Z" fill="#1976D2"/>
<path d="M260.42 68V46.5898H252.773V42.2305H273.252V46.5898H265.623V68H260.42ZM276.469 68V42.2305H281.672V68H276.469ZM286.629 42.2305H296.139C298.283 42.2305 299.918 42.3945 301.043 42.7227C302.555 43.168 303.85 43.959 304.928 45.0957C306.006 46.2324 306.826 47.627 307.389 49.2793C307.951 50.9199 308.232 52.9473 308.232 55.3613C308.232 57.4824 307.969 59.3105 307.441 60.8457C306.797 62.7207 305.877 64.2383 304.682 65.3984C303.779 66.2773 302.561 66.9629 301.025 67.4551C299.877 67.8184 298.342 68 296.42 68H286.629V42.2305ZM291.832 46.5898V63.6582H295.717C297.17 63.6582 298.219 63.5762 298.863 63.4121C299.707 63.2012 300.404 62.8438 300.955 62.3398C301.518 61.8359 301.975 61.0098 302.326 59.8613C302.678 58.7012 302.854 57.125 302.854 55.1328C302.854 53.1406 302.678 51.6113 302.326 50.5449C301.975 49.4785 301.482 48.6465 300.85 48.0488C300.217 47.4512 299.414 47.0469 298.441 46.8359C297.715 46.6719 296.291 46.5898 294.17 46.5898H291.832ZM312.662 68V42.2305H331.77V46.5898H317.865V52.3027H330.803V56.6445H317.865V63.6582H332.262V68H312.662Z" fill="#0D47A1"/>
<path d="M253.484 94V79.6836H256.336L259.725 89.8203C260.037 90.7643 260.265 91.4707 260.408 91.9395C260.571 91.4186 260.825 90.6536 261.17 89.6445L264.598 79.6836H267.146V94H265.32V82.0176L261.16 94H259.451L255.311 81.8125V94H253.484ZM268.631 94L274.129 79.6836H276.17L282.029 94H279.871L278.201 89.6641H272.215L270.643 94H268.631ZM272.762 88.1211H277.615L276.121 84.1562C275.665 82.9518 275.327 81.9622 275.105 81.1875C274.923 82.1055 274.666 83.0169 274.334 83.9219L272.762 88.1211ZM283.572 94V79.6836H289.92C291.196 79.6836 292.166 79.8138 292.83 80.0742C293.494 80.3281 294.025 80.7806 294.422 81.4316C294.819 82.0827 295.018 82.8021 295.018 83.5898C295.018 84.6055 294.689 85.4616 294.031 86.1582C293.374 86.8548 292.358 87.2975 290.984 87.4863C291.486 87.7272 291.867 87.9648 292.127 88.1992C292.68 88.707 293.204 89.3418 293.699 90.1035L296.189 94H293.807L291.912 91.0215C291.359 90.1621 290.903 89.5046 290.545 89.0488C290.187 88.5931 289.865 88.2741 289.578 88.0918C289.298 87.9095 289.012 87.7826 288.719 87.7109C288.504 87.6654 288.152 87.6426 287.664 87.6426H285.467V94H283.572ZM285.467 86.002H289.539C290.405 86.002 291.082 85.9141 291.57 85.7383C292.059 85.556 292.43 85.2695 292.684 84.8789C292.938 84.4818 293.064 84.0521 293.064 83.5898C293.064 82.9128 292.817 82.3561 292.322 81.9199C291.834 81.4837 291.059 81.2656 289.998 81.2656H285.467V86.002ZM297.918 94V79.6836H299.812V86.7832L306.922 79.6836H309.49L303.484 85.4844L309.754 94H307.254L302.156 86.7539L299.812 89.0391V94H297.918ZM311.375 94V79.6836H321.727V81.373H313.27V85.7578H321.189V87.4375H313.27V92.3105H322.059V94H311.375ZM328.318 94V81.373H323.602V79.6836H334.949V81.373H330.213V94H328.318Z" fill="#1976D2"/>
<path d="M172 31C182 31 187 28 189 31C187 34 182 31 172 31Z" fill="#0D47A1"/>
<path d="M152 51C162 51 167 48 169 51C167 54 162 51 152 51Z" fill="#0D47A1"/>
</svg>
