<svg width="302" height="56" viewBox="0 0 302 56" fill="none" xmlns="http://www.w3.org/2000/svg">
<path d="M2 27C22 22 42 32 32 42C22 52 2 42 12 32C22 22 42 32 52 22" stroke="#E8A5C1" stroke-width="3" stroke-linecap="round"/>
<path d="M27 12C27 12 22 7 17 7C7 7 7 22 17 29L27 37L37 29C47 22 47 7 37 7C32 7 27 12 27 12Z" fill="#E8A5C1"/>
<path d="M63.504 12.344V12.984C62.7787 13.0053 62.224 13.0907 61.84 13.24C61.4773 13.368 61.232 13.624 61.104 14.008C60.976 14.3707 60.912 14.9467 60.912 15.736V31.608C60.912 32.376 60.976 32.952 61.104 33.336C61.232 33.72 61.4773 33.976 61.84 34.104C62.224 34.2107 62.7787 34.264 63.504 34.264H65.84C66.8427 34.264 67.6533 34.1573 68.272 33.944C68.912 33.7307 69.4133 33.4 69.776 32.952C70.16 32.4827 70.448 31.864 70.64 31.096C70.832 30.328 70.9813 29.3893 71.088 28.28H71.824C71.76 28.9413 71.728 29.816 71.728 30.904C71.728 31.3093 71.7387 31.896 71.76 32.664C71.8027 33.4107 71.8667 34.1893 71.952 35C70.864 34.9573 69.6373 34.936 68.272 34.936C66.9067 34.9147 65.6907 34.904 64.624 34.904C64.1547 34.904 63.5467 34.904 62.8 34.904C62.0747 34.904 61.2853 34.9147 60.432 34.936C59.5787 34.936 58.7147 34.9467 57.84 34.968C56.9653 34.968 56.1333 34.9787 55.344 35V34.36C56.0693 34.3173 56.6133 34.232 56.976 34.104C57.36 33.976 57.616 33.72 57.744 33.336C57.872 32.952 57.936 32.376 57.936 31.608V15.736C57.936 14.9467 57.872 14.3707 57.744 14.008C57.616 13.624 57.36 13.368 56.976 13.24C56.6133 13.0907 56.0693 13.0053 55.344 12.984V12.344C55.792 12.3653 56.3787 12.3867 57.104 12.408C57.8293 12.4293 58.608 12.44 59.44 12.44C60.1867 12.44 60.9227 12.4293 61.648 12.408C62.3947 12.3867 63.0133 12.3653 63.504 12.344ZM81.5805 18.072C82.9458 18.072 84.1725 18.3707 85.2605 18.968C86.3485 19.5653 87.2125 20.504 87.8525 21.784C88.5138 23.064 88.8445 24.728 88.8445 26.776C88.8445 28.824 88.5138 30.488 87.8525 31.768C87.2125 33.0267 86.3485 33.9547 85.2605 34.552C84.1725 35.1493 82.9458 35.448 81.5805 35.448C80.2365 35.448 79.0098 35.1493 77.9005 34.552C76.8125 33.9547 75.9378 33.0267 75.2765 31.768C74.6365 30.488 74.3165 28.824 74.3165 26.776C74.3165 24.728 74.6365 23.064 75.2765 21.784C75.9378 20.504 76.8125 19.5653 77.9005 18.968C79.0098 18.3707 80.2365 18.072 81.5805 18.072ZM81.5805 18.712C80.3645 18.712 79.3618 19.3413 78.5725 20.6C77.8045 21.8587 77.4205 23.9173 77.4205 26.776C77.4205 29.6347 77.8045 31.6933 78.5725 32.952C79.3618 34.1893 80.3645 34.808 81.5805 34.808C82.7965 34.808 83.7885 34.1893 84.5565 32.952C85.3458 31.6933 85.7405 29.6347 85.7405 26.776C85.7405 23.9173 85.3458 21.8587 84.5565 20.6C83.7885 19.3413 82.7965 18.712 81.5805 18.712ZM105.677 18.52V19.16C105.272 19.2027 104.898 19.384 104.557 19.704C104.216 20.024 103.896 20.5893 103.597 21.4L98.349 35.16C98.2637 35.16 98.1783 35.16 98.093 35.16C98.0077 35.16 97.9117 35.16 97.805 35.16L91.917 20.984C91.5757 20.152 91.2343 19.6507 90.893 19.48C90.573 19.288 90.2957 19.192 90.061 19.192V18.52C90.4877 18.5413 90.925 18.5733 91.373 18.616C91.8423 18.6373 92.3437 18.648 92.877 18.648C93.5383 18.648 94.2317 18.6373 94.957 18.616C95.7037 18.5947 96.397 18.5627 97.037 18.52V19.192C96.5037 19.192 96.0237 19.2347 95.597 19.32C95.1917 19.384 94.925 19.5867 94.797 19.928C94.6903 20.2693 94.797 20.856 95.117 21.688L99.117 31.576L98.925 31.736L102.573 22.168C102.85 21.464 102.957 20.9093 102.893 20.504C102.85 20.0773 102.637 19.7573 102.253 19.544C101.89 19.3307 101.325 19.2027 100.557 19.16V18.52C100.941 18.5413 101.272 18.5627 101.549 18.584C101.826 18.584 102.093 18.5947 102.349 18.616C102.626 18.616 102.925 18.616 103.245 18.616C103.736 18.616 104.173 18.6053 104.557 18.584C104.962 18.5627 105.336 18.5413 105.677 18.52ZM114.204 18.072C116.081 18.072 117.543 18.648 118.588 19.8C119.655 20.9307 120.188 22.7013 120.188 25.112H108.892L108.86 24.504H117.116C117.159 23.4587 117.073 22.4987 116.86 21.624C116.647 20.728 116.305 20.0133 115.836 19.48C115.388 18.9467 114.801 18.68 114.076 18.68C113.095 18.68 112.22 19.1707 111.452 20.152C110.705 21.1333 110.257 22.6907 110.108 24.824L110.204 24.952C110.161 25.272 110.129 25.624 110.108 26.008C110.087 26.392 110.076 26.776 110.076 27.16C110.076 28.6107 110.311 29.8587 110.78 30.904C111.249 31.9493 111.857 32.7493 112.604 33.304C113.372 33.8373 114.161 34.104 114.972 34.104C115.612 34.104 116.22 34.008 116.796 33.816C117.372 33.6027 117.905 33.2613 118.396 32.792C118.887 32.3227 119.313 31.6933 119.676 30.904L120.316 31.16C120.081 31.864 119.697 32.5467 119.164 33.208C118.631 33.8693 117.959 34.4133 117.148 34.84C116.337 35.2453 115.399 35.448 114.332 35.448C112.796 35.448 111.473 35.096 110.364 34.392C109.276 33.688 108.433 32.7173 107.836 31.48C107.26 30.2213 106.972 28.7813 106.972 27.16C106.972 25.2827 107.271 23.672 107.868 22.328C108.465 20.9627 109.308 19.9173 110.396 19.192C111.484 18.4453 112.753 18.072 114.204 18.072ZM200.337 12.344V12.984C199.931 13.0693 199.483 13.3147 198.993 13.72C198.502 14.104 198.107 14.7867 197.809 15.768L191.761 35.16C191.718 35.16 191.675 35.16 191.633 35.16C191.59 35.16 191.547 35.16 191.505 35.16C191.462 35.16 191.419 35.16 191.377 35.16C191.334 35.16 191.291 35.16 191.249 35.16L184.465 15.032C184.187 14.2 183.878 13.656 183.537 13.4C183.195 13.144 182.875 13.0053 182.577 12.984V12.344C182.961 12.3653 183.441 12.3867 184.017 12.408C184.593 12.4293 185.147 12.44 185.681 12.44C186.513 12.44 187.291 12.4293 188.017 12.408C188.742 12.3867 189.329 12.3653 189.777 12.344V12.984C189.137 13.0053 188.625 13.0693 188.241 13.176C187.878 13.2827 187.665 13.5173 187.601 13.88C187.558 14.2427 187.665 14.84 187.921 15.672L192.689 30.424L192.241 30.808L196.465 17.528C196.849 16.3547 197.019 15.448 196.977 14.808C196.955 14.1467 196.721 13.688 196.273 13.432C195.825 13.1547 195.153 13.0053 194.257 12.984V12.344C194.875 12.3653 195.505 12.3867 196.145 12.408C196.785 12.4293 197.382 12.44 197.937 12.44C198.491 12.44 198.95 12.4293 199.313 12.408C199.675 12.3867 200.017 12.3653 200.337 12.344ZM177.969 12.344V12.984C177.414 13.0267 177.009 13.1333 176.753 13.304C176.518 13.4747 176.401 13.752 176.401 14.136C176.422 14.4987 176.539 15.0107 176.753 15.672L181.713 30.808L180.913 31.608L185.393 17.304L185.873 18.072L180.593 35.16C180.55 35.16 180.507 35.16 180.465 35.16C180.422 35.16 180.379 35.16 180.337 35.16C180.294 35.16 180.251 35.16 180.209 35.16C180.166 35.16 180.123 35.16 180.081 35.16L173.297 15.032C173.019 14.2 172.667 13.656 172.241 13.4C171.814 13.144 171.43 13.0053 171.088 12.984V12.344C171.515 12.3653 172.038 12.3867 172.657 12.408C173.297 12.4293 173.915 12.44 174.513 12.44C175.217 12.44 175.867 12.4293 176.465 12.408C177.083 12.3867 177.585 12.3653 177.969 12.344ZM209.755 18.072C210.331 18.072 210.832 18.1893 211.259 18.424C211.707 18.6587 212.048 18.968 212.283 19.352C212.539 19.7147 212.667 20.1307 212.667 20.6C212.667 21.1333 212.496 21.6027 212.155 22.008C211.835 22.4133 211.398 22.616 210.843 22.616C210.395 22.616 210 22.4773 209.659 22.2C209.318 21.9013 209.147 21.4853 209.147 20.952C209.147 20.5467 209.254 20.2053 209.467 19.928C209.702 19.6293 209.958 19.3947 210.235 19.224C210.086 19.0107 209.862 18.904 209.563 18.904C208.902 18.904 208.294 19.1067 207.739 19.512C207.184 19.896 206.715 20.3973 206.331 21.016C205.947 21.6347 205.648 22.296 205.435 23C205.222 23.6827 205.115 24.3227 205.115 24.92V31.704C205.115 32.7493 205.414 33.4533 206.011 33.816C206.63 34.1573 207.462 34.328 208.507 34.328V35C208.016 34.9787 207.323 34.9573 206.427 34.936C205.531 34.8933 204.582 34.872 203.579 34.872C202.854 34.872 202.128 34.8933 201.403 34.936C200.699 34.9573 200.166 34.9787 199.803 35V34.328C200.678 34.328 201.296 34.168 201.659 33.848C202.043 33.528 202.235 32.92 202.235 32.024V22.008C202.235 21.048 202.064 20.344 201.723 19.896C201.382 19.4267 200.742 19.192 199.803 19.192V18.52C200.486 18.584 201.147 18.616 201.787 18.616C202.406 18.616 202.992 18.584 203.547 18.52C204.123 18.4347 204.646 18.3173 205.115 18.168V22.168C205.35 21.5493 205.68 20.9307 206.107 20.312C206.555 19.672 207.088 19.1387 207.707 18.712C208.326 18.2853 209.008 18.072 209.755 18.072ZM218.597 35.224C217.722 35.224 216.965 35.064 216.325 34.744C215.685 34.4027 215.194 33.9333 214.853 33.336C214.533 32.7387 214.373 32.0453 214.373 31.256C214.373 30.3173 214.586 29.5493 215.013 28.952C215.461 28.3547 216.026 27.8747 216.709 27.512C217.392 27.1493 218.106 26.8507 218.853 26.616C219.621 26.36 220.346 26.1253 221.029 25.912C221.712 25.6773 222.266 25.4107 222.693 25.112C223.141 24.8133 223.365 24.4187 223.365 23.928V21.944C223.365 21.048 223.226 20.3653 222.949 19.896C222.693 19.4267 222.341 19.1173 221.893 18.968C221.445 18.7973 220.944 18.712 220.389 18.712C219.856 18.712 219.28 18.7867 218.661 18.936C218.064 19.0853 217.584 19.3947 217.221 19.864C217.626 19.9493 217.978 20.1627 218.277 20.504C218.576 20.8453 218.725 21.2827 218.725 21.816C218.725 22.3493 218.554 22.776 218.213 23.096C217.872 23.3947 217.434 23.544 216.901 23.544C216.282 23.544 215.824 23.352 215.525 22.968C215.248 22.5627 215.109 22.1147 215.109 21.624C215.109 21.0693 215.248 20.6213 215.525 20.28C215.802 19.9387 216.154 19.6187 216.581 19.32C217.072 18.9787 217.701 18.6907 218.469 18.456C219.258 18.2 220.144 18.072 221.125 18.072C222 18.072 222.746 18.1787 223.365 18.392C223.984 18.584 224.496 18.872 224.901 19.256C225.456 19.768 225.818 20.3973 225.989 21.144C226.16 21.8693 226.245 22.744 226.245 23.768V32.664C226.245 33.1973 226.32 33.5813 226.469 33.816C226.64 34.0507 226.896 34.168 227.237 34.168C227.472 34.168 227.696 34.1147 227.909 34.008C228.122 33.9013 228.378 33.7307 228.677 33.496L229.029 34.04C228.581 34.3813 228.154 34.6693 227.749 34.904C227.344 35.1173 226.8 35.224 226.117 35.224C225.498 35.224 224.986 35.1173 224.581 34.904C224.176 34.6907 223.866 34.3813 223.653 33.976C223.461 33.5493 223.365 33.016 223.365 32.376C222.789 33.336 222.096 34.0507 221.285 34.52C220.496 34.9893 219.6 35.224 218.597 35.224ZM219.749 33.944C220.453 33.944 221.104 33.7413 221.701 33.336C222.32 32.9307 222.874 32.3227 223.365 31.512V25.24C223.109 25.6027 222.736 25.912 222.245 26.168C221.754 26.4027 221.221 26.648 220.645 26.904C220.069 27.1387 219.514 27.4267 218.981 27.768C218.469 28.088 218.042 28.5147 217.701 29.048C217.36 29.5813 217.189 30.2747 217.189 31.128C217.189 31.9813 217.413 32.664 217.861 33.176C218.33 33.688 218.96 33.944 219.749 33.944ZM235.079 18.168V37.816C235.079 38.7333 235.345 39.3413 235.879 39.64C236.433 39.96 237.191 40.12 238.151 40.12V40.792C237.681 40.7707 237.031 40.7387 236.199 40.696C235.367 40.6747 234.481 40.664 233.543 40.664C232.881 40.664 232.22 40.6747 231.559 40.696C230.919 40.7387 230.428 40.7707 230.087 40.792V40.12C230.855 40.12 231.399 39.9813 231.719 39.704C232.039 39.4267 232.199 38.904 232.199 38.136V22.008C232.199 21.048 232.028 20.344 231.687 19.896C231.345 19.4267 230.705 19.192 229.767 19.192V18.52C230.449 18.584 231.111 18.616 231.751 18.616C232.369 18.616 232.956 18.584 233.511 18.52C234.087 18.4347 234.609 18.3173 235.079 18.168ZM240.199 18.072C241.329 18.072 242.343 18.3813 243.239 19C244.135 19.5973 244.839 20.4827 245.351 21.656C245.884 22.8293 246.151 24.28 246.151 26.008C246.151 27.16 246.012 28.3013 245.735 29.432C245.457 30.5413 245.02 31.5547 244.423 32.472C243.847 33.368 243.089 34.0933 242.151 34.648C241.233 35.1813 240.124 35.448 238.823 35.448C237.82 35.448 236.945 35.2133 236.199 34.744C235.473 34.2747 234.983 33.7093 234.727 33.048L235.047 32.6C235.345 33.1973 235.772 33.6987 236.327 34.104C236.903 34.5093 237.617 34.712 238.47 34.712C239.665 34.712 240.593 34.3387 241.255 33.592C241.916 32.8453 242.375 31.8533 242.631 30.616C242.908 29.3573 243.047 27.9707 243.047 26.456C243.047 24.7493 242.908 23.352 242.631 22.264C242.353 21.176 241.937 20.3653 241.383 19.832C240.828 19.2987 240.145 19.032 239.335 19.032C238.289 19.032 237.34 19.4693 236.487 20.344C235.633 21.1973 235.089 22.4987 234.855 24.248L234.471 23.8C234.705 21.9867 235.345 20.5787 236.391 19.576C237.457 18.5733 238.727 18.072 240.199 18.072ZM253.672 18.168V37.816C253.672 38.7333 253.939 39.3413 254.472 39.64C255.027 39.96 255.784 40.12 256.744 40.12V40.792C256.275 40.7707 255.624 40.7387 254.792 40.696C253.96 40.6747 253.075 40.664 252.136 40.664C251.475 40.664 250.814 40.6747 250.152 40.696C249.512 40.7387 249.022 40.7707 248.68 40.792V40.12C249.448 40.12 249.992 39.9813 250.312 39.704C250.632 39.4267 250.792 38.904 250.792 38.136V22.008C250.792 21.048 250.622 20.344 250.28 19.896C249.939 19.4267 249.299 19.192 248.36 19.192V18.52C249.043 18.584 249.704 18.616 250.344 18.616C250.963 18.616 251.55 18.584 252.104 18.52C252.68 18.4347 253.203 18.3173 253.672 18.168ZM258.792 18.072C259.923 18.072 260.936 18.3813 261.832 19C262.728 19.5973 263.432 20.4827 263.944 21.656C264.478 22.8293 264.744 24.28 264.744 26.008C264.744 27.16 264.606 28.3013 264.328 29.432C264.051 30.5413 263.614 31.5547 263.016 32.472C262.44 33.368 261.683 34.0933 260.744 34.648C259.827 35.1813 258.718 35.448 257.416 35.448C256.414 35.448 255.539 35.2133 254.792 34.744C254.067 34.2747 253.576 33.7093 253.32 33.048L253.64 32.6C253.939 33.1973 254.366 33.6987 254.92 34.104C255.496 34.5093 256.211 34.712 257.064 34.712C258.259 34.712 259.187 34.3387 259.848 33.592C260.51 32.8453 260.968 31.8533 261.224 30.616C261.502 29.3573 261.64 27.9707 261.64 26.456C261.64 24.7493 261.502 23.352 261.224 22.264C260.947 21.176 260.531 20.3653 259.976 19.832C259.422 19.2987 258.739 19.032 257.928 19.032C256.883 19.032 255.934 19.4693 255.08 20.344C254.227 21.1973 253.683 22.4987 253.448 24.248L253.064 23.8C253.299 21.9867 253.939 20.5787 254.984 19.576C256.051 18.5733 257.32 18.072 258.792 18.072ZM274.954 18.072C276.831 18.072 278.293 18.648 279.338 19.8C280.405 20.9307 280.938 22.7013 280.938 25.112H269.642L269.61 24.504H277.866C277.909 23.4587 277.823 22.4987 277.61 21.624C277.397 20.728 277.055 20.0133 276.586 19.48C276.138 18.9467 275.551 18.68 274.826 18.68C273.845 18.68 272.97 19.1707 272.202 20.152C271.455 21.1333 271.007 22.6907 270.858 24.824L270.954 24.952C270.911 25.272 270.879 25.624 270.858 26.008C270.837 26.392 270.826 26.776 270.826 27.16C270.826 28.6107 271.061 29.8587 271.53 30.904C271.999 31.9493 272.607 32.7493 273.354 33.304C274.122 33.8373 274.911 34.104 275.722 34.104C276.362 34.104 276.97 34.008 277.546 33.816C278.122 33.6027 278.655 33.2613 279.146 32.792C279.637 32.3227 280.063 31.6933 280.426 30.904L281.066 31.16C280.831 31.864 280.447 32.5467 279.914 33.208C279.381 33.8693 278.709 34.4133 277.898 34.84C277.087 35.2453 276.149 35.448 275.082 35.448C273.546 35.448 272.223 35.096 271.114 34.392C270.026 33.688 269.183 32.7173 268.586 31.48C268.01 30.2213 267.722 28.7813 267.722 27.16C267.722 25.2827 268.021 23.672 268.618 22.328C269.215 20.9627 270.058 19.9173 271.146 19.192C272.234 18.4453 273.503 18.072 274.954 18.072ZM297.926 9.912V31.512C297.926 32.472 298.096 33.1867 298.438 33.656C298.8 34.104 299.44 34.328 300.358 34.328V35C299.696 34.936 299.035 34.904 298.374 34.904C297.755 34.904 297.158 34.936 296.582 35C296.027 35.064 295.515 35.1813 295.046 35.352V13.752C295.046 12.792 294.875 12.088 294.534 11.64C294.192 11.1707 293.552 10.936 292.614 10.936V10.264C293.296 10.328 293.958 10.36 294.598 10.36C295.216 10.36 295.803 10.328 296.358 10.264C296.934 10.1787 297.456 10.0613 297.926 9.912ZM291.206 18.072C292.144 18.072 293.019 18.296 293.83 18.744C294.662 19.192 295.216 19.96 295.494 21.048L295.078 21.368C294.779 20.472 294.31 19.8213 293.67 19.416C293.051 19.0107 292.315 18.808 291.462 18.808C290.203 18.808 289.147 19.4587 288.294 20.76C287.462 22.0613 287.056 24.0667 287.078 26.776C287.078 28.504 287.238 29.944 287.558 31.096C287.899 32.2267 288.39 33.08 289.03 33.656C289.691 34.2107 290.491 34.488 291.43 34.488C292.326 34.488 293.136 34.104 293.862 33.336C294.587 32.568 295.024 31.4373 295.174 29.944L295.558 30.392C295.387 32.0133 294.864 33.2613 293.99 34.136C293.136 35.0107 291.974 35.448 290.502 35.448C289.179 35.448 288.016 35.128 287.014 34.488C286.032 33.848 285.275 32.888 284.742 31.608C284.23 30.328 283.974 28.7173 283.974 26.776C283.974 24.8347 284.304 23.224 284.966 21.944C285.648 20.6427 286.534 19.672 287.622 19.032C288.731 18.392 289.926 18.072 291.206 18.072Z" fill="#6B4B3E"/>
<path d="M147.449 12.536C148.26 12.536 148.932 12.632 149.465 12.824C149.998 12.9947 150.436 13.2187 150.777 13.496C151.054 13.7093 151.278 13.944 151.449 14.2C151.62 14.456 151.748 14.712 151.833 14.968C151.918 15.224 151.961 15.4693 151.961 15.704C151.961 16.2373 151.769 16.6533 151.385 16.952C151.022 17.2507 150.617 17.4 150.169 17.4C149.742 17.4 149.358 17.2613 149.017 16.984C148.676 16.7067 148.505 16.312 148.505 15.8C148.505 15.3307 148.665 14.936 148.985 14.616C149.305 14.2747 149.71 14.0827 150.201 14.04C150.116 13.7627 149.849 13.528 149.401 13.336C148.974 13.1227 148.43 13.016 147.769 13.016C146.681 13.016 145.785 13.3467 145.081 14.008C144.398 14.648 144.057 15.5867 144.057 16.824C144.057 17.4213 144.164 18.0293 144.377 18.648C144.612 19.2667 145.049 19.8747 145.689 20.472C146.052 20.408 146.425 20.3653 146.809 20.344C147.193 20.3013 147.481 20.28 147.673 20.28C148.057 20.28 148.366 20.344 148.601 20.472C148.836 20.6 148.953 20.7813 148.953 21.016C148.953 21.208 148.868 21.3573 148.697 21.464C148.548 21.5707 148.334 21.624 148.057 21.624C147.652 21.624 147.225 21.5387 146.777 21.368C146.329 21.176 145.977 21.0267 145.721 20.92C144.484 21.2827 143.481 21.88 142.713 22.712C141.945 23.5227 141.561 24.6747 141.561 26.168C141.561 27.64 141.945 28.888 142.713 29.912C143.481 30.936 144.505 31.7253 145.785 32.28C147.086 32.8133 148.537 33.08 150.137 33.08C151.268 33.08 152.334 32.952 153.337 32.696C154.361 32.4187 155.257 32.024 156.025 31.512C156.814 31 157.433 30.392 157.881 29.688C158.329 28.9627 158.553 28.1413 158.553 27.224C158.553 26.8187 158.468 26.3067 158.297 25.688C158.126 25.048 157.774 24.4293 157.241 23.832C156.708 23.2133 155.886 22.7333 154.777 22.392L155.161 22.072C156.718 22.5413 157.828 23.2987 158.489 24.344C159.15 25.368 159.481 26.52 159.481 27.8C159.481 29.08 159.097 30.3067 158.329 31.48C157.561 32.6533 156.452 33.6133 155.001 34.36C153.55 35.0853 151.79 35.448 149.721 35.448C148.334 35.448 147.012 35.2667 145.753 34.904C144.516 34.5413 143.417 34.0187 142.457 33.336C141.497 32.632 140.74 31.7893 140.185 30.808C139.63 29.8267 139.353 28.7173 139.353 27.48C139.353 26.328 139.577 25.3467 140.025 24.536C140.473 23.704 141.028 23.0213 141.689 22.488C142.35 21.9547 143.012 21.5493 143.673 21.272C144.334 20.9733 144.868 20.7707 145.273 20.664C144.569 20.344 143.972 19.9707 143.481 19.544C143.012 19.096 142.649 18.616 142.393 18.104C142.158 17.5707 142.041 17.048 142.041 16.536C142.041 16.024 142.158 15.5333 142.393 15.064C142.628 14.5733 142.969 14.136 143.417 13.752C143.865 13.368 144.42 13.0693 145.081 12.856C145.764 12.6427 146.553 12.536 147.449 12.536ZM159.097 11.896C160.42 11.896 161.529 12.28 162.425 13.048C163.321 13.7947 163.769 14.8507 163.769 16.216C163.769 16.9413 163.63 17.592 163.353 18.168C163.097 18.7227 162.734 19.2133 162.265 19.64C161.817 20.0667 161.305 20.4187 160.729 20.696C160.238 20.9307 159.588 21.1867 158.777 21.464C157.988 21.7413 157.134 22.0187 156.217 22.296C155.321 22.5733 154.457 22.8507 153.625 23.128C152.814 23.384 152.153 23.608 151.641 23.8C150.852 24.0987 150.18 24.472 149.625 24.92C149.092 25.3467 148.825 25.9013 148.825 26.584C148.825 27.1387 148.985 27.608 149.305 27.992C149.625 28.376 150.009 28.664 150.457 28.856C150.926 29.048 151.364 29.144 151.769 29.144C151.961 29.144 152.196 29.1227 152.473 29.08C152.772 29.016 153.038 28.9307 153.273 28.824C153.508 28.7173 153.646 28.5893 153.689 28.44C153.348 28.376 153.006 28.2267 152.665 27.992C152.345 27.736 152.185 27.3413 152.185 26.808C152.185 26.296 152.356 25.8907 152.697 25.592C153.038 25.2933 153.454 25.144 153.945 25.144C154.457 25.144 154.862 25.304 155.161 25.624C155.481 25.944 155.641 26.36 155.641 26.872C155.641 27.4693 155.438 27.9813 155.033 28.408C154.649 28.8133 154.158 29.1227 153.561 29.336C152.985 29.528 152.409 29.624 151.833 29.624C151.236 29.624 150.628 29.496 150.009 29.24C149.39 28.984 148.878 28.5893 148.473 28.056C148.068 27.5013 147.865 26.776 147.865 25.88C147.865 25.1333 148.025 24.472 148.345 23.896C148.686 23.32 149.188 22.808 149.849 22.36C150.51 21.912 151.321 21.528 152.281 21.208C152.921 20.9947 153.7 20.76 154.617 20.504C155.534 20.248 156.473 19.9707 157.433 19.672C158.414 19.3733 159.3 19.0427 160.089 18.68C161.156 18.1893 161.881 17.688 162.265 17.176C162.649 16.664 162.841 16.1413 162.841 15.608C162.841 14.9893 162.67 14.4453 162.329 13.976C161.988 13.4853 161.529 13.1013 160.953 12.824C160.398 12.5253 159.79 12.376 159.129 12.376C158.873 12.376 158.66 12.3973 158.489 12.44C158.318 12.4827 158.212 12.5573 158.169 12.664C158.468 12.8133 158.692 13.0267 158.841 13.304C158.99 13.5813 159.065 13.8587 159.065 14.136C159.065 14.584 158.884 14.9573 158.521 15.256C158.18 15.5547 157.764 15.704 157.273 15.704C156.868 15.704 156.484 15.576 156.121 15.32C155.758 15.0427 155.577 14.6373 155.577 14.104C155.577 13.5493 155.758 13.112 156.121 12.792C156.505 12.472 156.964 12.248 157.497 12.12C158.052 11.9707 158.585 11.896 159.097 11.896Z" fill="#E8A5C1"/>
<path d="M58.512 51.624C58.1813 51.624 57.952 51.4693 57.824 51.16C57.7067 50.8613 57.648 50.4987 57.648 50.072C57.648 49.8587 57.6587 49.6293 57.68 49.384C57.7013 49.128 57.728 48.8773 57.76 48.632C57.5253 49.1013 57.2693 49.5547 56.992 49.992C56.7253 50.4293 56.4427 50.7867 56.144 51.064C55.8453 51.3413 55.5307 51.48 55.2 51.48C54.848 51.48 54.56 51.32 54.336 51C54.112 50.68 54 50.3013 54 49.864C54 49.5547 54.048 49.1973 54.144 48.792C54.2507 48.3867 54.3787 47.9867 54.528 47.592C54.6773 47.1973 54.832 46.872 54.992 46.616C55.152 46.36 55.2907 46.232 55.408 46.232C55.4507 46.232 55.5147 46.248 55.6 46.28C55.696 46.3013 55.7867 46.3387 55.872 46.392C55.9573 46.4347 56 46.488 56 46.552C55.8827 46.7333 55.7387 47.0107 55.568 47.384C55.3973 47.7573 55.248 48.1627 55.12 48.6C54.992 49.0267 54.928 49.416 54.928 49.768C54.928 49.8533 54.9387 49.9867 54.96 50.168C54.9813 50.3387 55.0293 50.4933 55.104 50.632C55.1893 50.7707 55.3173 50.84 55.488 50.84C55.7333 50.84 55.9947 50.6853 56.272 50.376C56.5493 50.0667 56.8267 49.6773 57.104 49.208C57.3813 48.7387 57.6427 48.264 57.888 47.784C57.9733 47.3467 58.0427 47.0267 58.096 46.824C58.16 46.6213 58.224 46.4933 58.288 46.44C58.352 46.376 58.432 46.344 58.528 46.344C58.6667 46.344 58.784 46.376 58.88 46.44C58.9867 46.4933 59.024 46.5787 58.992 46.696C58.8853 47.144 58.7787 47.6827 58.672 48.312C58.5653 48.9413 58.512 49.576 58.512 50.216C58.512 50.4613 58.5387 50.6533 58.592 50.792C58.6453 50.9307 58.736 51 58.864 51C59.024 51 59.216 50.888 59.44 50.664C59.664 50.4293 59.8987 50.1307 60.144 49.768C60.3893 49.3947 60.6293 49 60.864 48.584C61.0987 48.168 61.3013 47.7733 61.472 47.4C61.472 46.8453 61.4987 46.4507 61.552 46.216C61.616 45.9707 61.696 45.8213 61.792 45.768C61.8987 45.7147 62.016 45.688 62.144 45.688C62.3467 45.688 62.4907 45.7627 62.576 45.912C62.672 46.0507 62.72 46.1787 62.72 46.296C62.6453 46.4987 62.5493 46.7387 62.432 47.016C62.3253 47.2827 62.272 47.6347 62.272 48.072C62.272 48.3173 62.3307 48.5307 62.448 48.712C62.5653 48.8827 62.7733 48.968 63.072 48.968C63.328 48.968 63.5627 48.8667 63.776 48.664C64 48.4507 64.1973 48.184 64.368 47.864C64.5493 47.544 64.7093 47.2133 64.848 46.872C64.9867 46.52 65.104 46.2053 65.2 45.928C65.1573 45.8747 65.12 45.816 65.088 45.752C65.056 45.688 65.04 45.6187 65.04 45.544C65.04 45.224 65.1307 44.9627 65.312 44.76C65.4933 44.5573 65.6267 44.456 65.712 44.456C65.8293 44.456 65.8933 44.5093 65.904 44.616C65.9253 44.712 65.936 44.7867 65.936 44.84C65.936 44.8933 65.904 45 65.84 45.16C65.7867 45.3093 65.76 45.4 65.76 45.432C65.76 45.5813 65.84 45.72 66 45.848C66.1707 45.9653 66.3627 46.104 66.576 46.264C66.7893 46.4133 66.976 46.6 67.136 46.824C67.3067 47.0373 67.392 47.3147 67.392 47.656C67.392 47.976 67.3227 48.3013 67.184 48.632C67.056 48.9627 66.9227 49.2773 66.784 49.576C66.656 49.8747 66.592 50.136 66.592 50.36C66.592 50.552 66.64 50.68 66.736 50.744C66.832 50.808 66.944 50.84 67.072 50.84C67.328 50.84 67.5893 50.76 67.856 50.6C68.1333 50.44 68.4 50.2373 68.656 49.992C68.912 49.7467 69.1413 49.4907 69.344 49.224C69.5467 48.9467 69.696 48.6907 69.792 48.456L70 48.616C69.7973 49.064 69.52 49.5067 69.168 49.944C68.816 50.3707 68.4213 50.7227 67.984 51C67.5573 51.2773 67.1147 51.416 66.656 51.416C66.2933 51.416 66.0053 51.32 65.792 51.128C65.5893 50.936 65.488 50.6853 65.488 50.376C65.488 50.056 65.5627 49.72 65.712 49.368C65.8613 49.016 66.0053 48.6693 66.144 48.328C66.2933 47.976 66.368 47.6613 66.368 47.384C66.368 47.0427 66.2667 46.792 66.064 46.632C65.872 46.4613 65.6747 46.3067 65.472 46.168C65.3653 46.488 65.232 46.8347 65.072 47.208C64.912 47.5813 64.7253 47.9333 64.512 48.264C64.3093 48.5947 64.0747 48.8667 63.808 49.08C63.5413 49.2933 63.248 49.4 62.928 49.4C62.5973 49.4 62.3147 49.304 62.08 49.112C61.856 48.92 61.6907 48.6533 61.584 48.312C61.3813 48.6853 61.152 49.0693 60.896 49.464C60.6507 49.848 60.3893 50.2053 60.112 50.536C59.8347 50.856 59.5573 51.1173 59.28 51.32C59.0133 51.5227 58.7573 51.624 58.512 51.624ZM70.2211 51.752C69.8905 51.752 69.6131 51.64 69.3891 51.416C69.1545 51.2027 69.0371 50.872 69.0371 50.424C69.0371 50.04 69.1225 49.6293 69.2931 49.192C69.4638 48.744 69.6985 48.3067 69.9971 47.88C70.2958 47.4427 70.6318 47.048 71.0051 46.696C71.3891 46.3333 71.7891 46.0453 72.2051 45.832C72.6318 45.6187 73.0531 45.512 73.4691 45.512C73.8851 45.512 74.2318 45.624 74.5091 45.848C74.7865 46.0613 74.9251 46.3493 74.9251 46.712C74.9251 46.9787 74.8505 47.16 74.7011 47.256C74.5625 47.352 74.3758 47.4 74.1411 47.4C74.1625 47.3147 74.1785 47.224 74.1891 47.128C74.2105 47.0213 74.2211 46.9253 74.2211 46.84C74.2211 46.5947 74.1625 46.3867 74.0451 46.216C73.9278 46.0347 73.7251 45.944 73.4371 45.944C73.1385 45.944 72.8345 46.0507 72.5251 46.264C72.2158 46.4667 71.9171 46.744 71.6291 47.096C71.3411 47.4373 71.0851 47.8107 70.8611 48.216C70.6371 48.6213 70.4611 49.0213 70.3331 49.416C70.2051 49.8107 70.1411 50.1627 70.1411 50.472C70.1411 50.888 70.2851 51.096 70.5731 51.096C70.8185 51.096 71.0851 50.984 71.3731 50.76C71.6611 50.5253 71.9545 50.232 72.2531 49.88C72.5625 49.5173 72.8558 49.144 73.1331 48.76C73.4105 48.376 73.6558 48.024 73.8691 47.704C73.9118 47.64 73.9385 47.608 73.9491 47.608C74.0131 47.6187 74.0931 47.64 74.1891 47.672C74.2958 47.704 74.3865 47.7467 74.4611 47.8C74.5358 47.8533 74.5731 47.9227 74.5731 48.008C74.5731 48.104 74.5251 48.2373 74.4291 48.408C74.3331 48.568 74.2265 48.7547 74.1091 48.968C73.9918 49.1813 73.8851 49.4 73.7891 49.624C73.6931 49.8373 73.6451 50.04 73.6451 50.232C73.6451 50.392 73.6878 50.552 73.7731 50.712C73.8585 50.8613 73.9971 50.936 74.1891 50.936C74.4771 50.936 74.8558 50.728 75.3251 50.312C75.7945 49.8853 76.2691 49.2507 76.7491 48.408L76.9091 48.568C76.6851 49.144 76.3971 49.6507 76.0451 50.088C75.6931 50.5253 75.3145 50.8667 74.9091 51.112C74.5145 51.3573 74.1251 51.48 73.7411 51.48C73.3465 51.48 73.0531 51.3627 72.8611 51.128C72.6798 50.8933 72.5891 50.6373 72.5891 50.36C72.5891 50.296 72.5945 50.2267 72.6051 50.152C72.6158 50.0667 72.6265 49.9813 72.6371 49.896C72.1785 50.5147 71.7571 50.9787 71.3731 51.288C70.9998 51.5973 70.6158 51.752 70.2211 51.752ZM75.4139 55.48C75.3285 55.48 75.2485 55.432 75.1739 55.336C75.0885 55.2507 75.0245 55.1547 74.9819 55.048C74.9392 54.952 74.9179 54.8933 74.9179 54.872C75.0672 54.3493 75.2165 53.88 75.3659 53.464C75.5045 53.0587 75.6485 52.6373 75.7979 52.2C75.9365 51.7733 76.0752 51.272 76.2139 50.696C76.3525 50.1093 76.4965 49.384 76.6459 48.52C76.7952 47.656 76.9445 46.584 77.0939 45.304C77.1045 45.208 77.1259 45.1387 77.1579 45.096C77.1899 45.0533 77.2699 45.032 77.3979 45.032C77.6752 45.032 77.8725 45.112 77.9899 45.272C78.1072 45.4213 78.1659 45.5867 78.1659 45.768C78.1659 45.9173 78.1339 46.184 78.0699 46.568C78.0059 46.952 77.9152 47.4053 77.7979 47.928C77.9792 47.576 78.2032 47.2187 78.4699 46.856C78.7472 46.4933 79.0619 46.1893 79.4139 45.944C79.7659 45.6987 80.1499 45.576 80.5659 45.576C81.0352 45.576 81.4192 45.7467 81.7179 46.088C82.0272 46.4187 82.1819 46.856 82.1819 47.4C82.1819 47.816 82.0859 48.2587 81.8939 48.728C81.7125 49.1867 81.4512 49.624 81.1099 50.04C80.7792 50.4453 80.3845 50.776 79.9259 51.032C79.4672 51.288 78.9605 51.416 78.4059 51.416C78.1285 51.416 77.9045 51.384 77.7339 51.32C77.5632 51.256 77.4779 51.192 77.4779 51.128C77.4779 51.0853 77.5152 51.0587 77.5899 51.048C77.6752 51.048 77.7712 51.048 77.8779 51.048C78.3045 51.048 78.7099 50.9467 79.0939 50.744C79.4885 50.5307 79.8405 50.2533 80.1499 49.912C80.4592 49.5707 80.6992 49.192 80.8699 48.776C81.0512 48.36 81.1419 47.9493 81.1419 47.544C81.1419 47.2027 81.0672 46.9147 80.9179 46.68C80.7792 46.4347 80.5499 46.312 80.2299 46.312C79.9525 46.312 79.6752 46.4027 79.3979 46.584C79.1312 46.7547 78.8752 46.9787 78.6299 47.256C78.3952 47.5227 78.1819 47.8053 77.9899 48.104C77.8085 48.392 77.6699 48.6533 77.5739 48.888C77.3819 49.688 77.1899 50.456 76.9979 51.192C76.8059 51.9387 76.6192 52.6107 76.4379 53.208C76.2672 53.816 76.1125 54.312 75.9739 54.696C75.8245 55.08 75.7019 55.3147 75.6059 55.4C75.5525 55.4533 75.4885 55.48 75.4139 55.48ZM81.6639 55.48C81.5785 55.48 81.4985 55.432 81.4239 55.336C81.3385 55.2507 81.2745 55.1547 81.2319 55.048C81.1892 54.952 81.1679 54.8933 81.1679 54.872C81.3172 54.3493 81.4665 53.88 81.6159 53.464C81.7545 53.0587 81.8985 52.6373 82.0479 52.2C82.1865 51.7733 82.3252 51.272 82.4639 50.696C82.6025 50.1093 82.7465 49.384 82.8959 48.52C83.0452 47.656 83.1945 46.584 83.3439 45.304C83.3545 45.208 83.3759 45.1387 83.4079 45.096C83.4399 45.0533 83.5199 45.032 83.6479 45.032C83.9252 45.032 84.1225 45.112 84.2399 45.272C84.3572 45.4213 84.4159 45.5867 84.4159 45.768C84.4159 45.9173 84.3839 46.184 84.3199 46.568C84.2559 46.952 84.1652 47.4053 84.0479 47.928C84.2292 47.576 84.4532 47.2187 84.7199 46.856C84.9972 46.4933 85.3119 46.1893 85.6639 45.944C86.0159 45.6987 86.3999 45.576 86.8159 45.576C87.2852 45.576 87.6692 45.7467 87.9679 46.088C88.2772 46.4187 88.4319 46.856 88.4319 47.4C88.4319 47.816 88.3359 48.2587 88.1439 48.728C87.9625 49.1867 87.7012 49.624 87.3599 50.04C87.0292 50.4453 86.6345 50.776 86.1759 51.032C85.7172 51.288 85.2105 51.416 84.6559 51.416C84.3785 51.416 84.1545 51.384 83.9839 51.32C83.8132 51.256 83.7279 51.192 83.7279 51.128C83.7279 51.0853 83.7652 51.0587 83.8399 51.048C83.9252 51.048 84.0212 51.048 84.1279 51.048C84.5545 51.048 84.9599 50.9467 85.3439 50.744C85.7385 50.5307 86.0905 50.2533 86.3999 49.912C86.7092 49.5707 86.9492 49.192 87.1199 48.776C87.3012 48.36 87.3919 47.9493 87.3919 47.544C87.3919 47.2027 87.3172 46.9147 87.1679 46.68C87.0292 46.4347 86.7999 46.312 86.4799 46.312C86.2025 46.312 85.9252 46.4027 85.6479 46.584C85.3812 46.7547 85.1252 46.9787 84.8799 47.256C84.6452 47.5227 84.4319 47.8053 84.2399 48.104C84.0585 48.392 83.9199 48.6533 83.8239 48.888C83.6319 49.688 83.4399 50.456 83.2479 51.192C83.0559 51.9387 82.8692 52.6107 82.6879 53.208C82.5172 53.816 82.3625 54.312 82.2239 54.696C82.0745 55.08 81.9519 55.3147 81.8559 55.4C81.8025 55.4533 81.7385 55.48 81.6639 55.48ZM90.6499 51.704C89.9992 51.704 89.5085 51.5227 89.1779 51.16C88.8579 50.808 88.6979 50.3707 88.6979 49.848C88.6979 49.368 88.8152 48.8613 89.0499 48.328C89.2952 47.7947 89.6152 47.2933 90.0099 46.824C90.4152 46.3547 90.8579 45.976 91.3379 45.688C91.8179 45.3893 92.2925 45.24 92.7619 45.24C93.0072 45.24 93.2312 45.304 93.4339 45.432C93.6472 45.56 93.7539 45.8213 93.7539 46.216C93.7539 46.6213 93.6312 47.0053 93.3859 47.368C93.1512 47.72 92.8365 48.0347 92.4419 48.312C92.0579 48.5893 91.6312 48.8187 91.1619 49C90.7032 49.1707 90.2445 49.2773 89.7859 49.32C89.7645 49.4267 89.7485 49.528 89.7379 49.624C89.7272 49.72 89.7219 49.8107 89.7219 49.896C89.7219 50.056 89.7379 50.216 89.7699 50.376C89.8125 50.536 89.8819 50.6853 89.9779 50.824C90.0739 50.952 90.2019 51.0533 90.3619 51.128C90.5325 51.2027 90.7405 51.24 90.9859 51.24C91.4445 51.24 91.8979 51.112 92.3459 50.856C92.7939 50.5893 93.2099 50.2427 93.5939 49.816C93.9779 49.3893 94.3032 48.92 94.5699 48.408L94.7619 48.552C94.4739 49.192 94.1059 49.7467 93.6579 50.216C93.2205 50.6853 92.7405 51.048 92.2179 51.304C91.7059 51.5707 91.1832 51.704 90.6499 51.704ZM89.8659 49.016C90.1539 48.92 90.4792 48.7813 90.8419 48.6C91.2045 48.408 91.5512 48.184 91.8819 47.928C92.2232 47.672 92.5005 47.3893 92.7139 47.08C92.9379 46.7707 93.0499 46.4453 93.0499 46.104C93.0499 45.9867 93.0285 45.896 92.9859 45.832C92.9432 45.768 92.8525 45.736 92.7139 45.736C92.4579 45.736 92.1859 45.8373 91.8979 46.04C91.6099 46.232 91.3325 46.488 91.0659 46.808C90.7992 47.128 90.5592 47.48 90.3459 47.864C90.1325 48.248 89.9725 48.632 89.8659 49.016ZM95.194 51.48C95.0127 51.48 94.826 51.432 94.634 51.336C94.4527 51.2507 94.3033 51.1067 94.186 50.904C94.058 50.7013 93.994 50.4453 93.994 50.136C93.994 49.784 94.0793 49.3893 94.25 48.952C94.4207 48.5147 94.65 48.0827 94.938 47.656C95.226 47.2187 95.5567 46.8187 95.93 46.456C96.3033 46.0827 96.6927 45.7893 97.098 45.576C97.5033 45.352 97.9033 45.24 98.298 45.24C98.522 45.24 98.6927 45.2827 98.81 45.368C98.938 45.4427 99.002 45.5653 99.002 45.736C99.002 45.7787 98.9967 45.816 98.986 45.848C98.986 45.88 98.9807 45.9173 98.97 45.96C98.9167 45.8747 98.8367 45.816 98.73 45.784C98.634 45.7413 98.5113 45.72 98.362 45.72C98.0207 45.72 97.6847 45.8267 97.354 46.04C97.034 46.2427 96.7353 46.5147 96.458 46.856C96.1913 47.1867 95.9567 47.544 95.754 47.928C95.5513 48.312 95.3913 48.6853 95.274 49.048C95.1673 49.4 95.114 49.6987 95.114 49.944C95.114 50.1787 95.1673 50.3653 95.274 50.504C95.3807 50.6427 95.5193 50.712 95.69 50.712C95.978 50.712 96.3247 50.5307 96.73 50.168C97.146 49.8053 97.5673 49.2933 97.994 48.632C98.4207 47.9707 98.8047 47.1973 99.146 46.312C99.3807 45.6933 99.6207 45.064 99.866 44.424C100.122 43.784 100.378 43.1707 100.634 42.584C100.89 41.9867 101.135 41.4587 101.37 41C101.615 40.5307 101.845 40.1627 102.058 39.896C102.282 39.6187 102.479 39.48 102.65 39.48C102.735 39.48 102.81 39.5173 102.874 39.592C102.938 39.656 102.97 39.7413 102.97 39.848C102.97 40.0187 102.879 40.312 102.698 40.728C102.527 41.1333 102.298 41.624 102.01 42.2C101.733 42.7653 101.439 43.384 101.13 44.056C100.821 44.728 100.522 45.4107 100.234 46.104C99.9567 46.7973 99.7273 47.4693 99.546 48.12C99.3753 48.76 99.29 49.3467 99.29 49.88C99.29 50.1787 99.306 50.4027 99.338 50.552C99.37 50.7013 99.4767 50.776 99.658 50.776C99.882 50.776 100.143 50.68 100.442 50.488C100.741 50.296 101.039 50.024 101.338 49.672C101.637 49.32 101.898 48.8987 102.122 48.408L102.314 48.552C102.111 49.096 101.834 49.5867 101.482 50.024C101.13 50.4507 100.751 50.7867 100.346 51.032C99.9513 51.288 99.5727 51.416 99.21 51.416C98.8153 51.416 98.538 51.2827 98.378 51.016C98.2287 50.76 98.154 50.4933 98.154 50.216C98.154 50.0347 98.1807 49.7947 98.234 49.496C98.2873 49.1973 98.362 48.8667 98.458 48.504C98.1167 49.0693 97.754 49.5813 97.37 50.04C96.986 50.488 96.6073 50.84 96.234 51.096C95.8713 51.352 95.5247 51.48 95.194 51.48ZM110.481 51.624C110.15 51.624 109.921 51.4693 109.793 51.16C109.675 50.8613 109.617 50.4987 109.617 50.072C109.617 49.8587 109.627 49.6293 109.649 49.384C109.67 49.128 109.697 48.8773 109.729 48.632C109.494 49.1013 109.238 49.5547 108.961 49.992C108.694 50.4293 108.411 50.7867 108.113 51.064C107.814 51.3413 107.499 51.48 107.169 51.48C106.817 51.48 106.529 51.32 106.305 51C106.081 50.68 105.969 50.3013 105.969 49.864C105.969 49.5547 106.017 49.1973 106.113 48.792C106.219 48.3867 106.347 47.9867 106.497 47.592C106.646 47.1973 106.801 46.872 106.961 46.616C107.121 46.36 107.259 46.232 107.377 46.232C107.43 46.232 107.542 46.264 107.713 46.328C107.883 46.3813 107.969 46.456 107.969 46.552C107.851 46.7333 107.707 47.0107 107.537 47.384C107.366 47.7573 107.217 48.1627 107.089 48.6C106.961 49.0267 106.897 49.416 106.897 49.768C106.897 49.8533 106.907 49.9867 106.929 50.168C106.95 50.3387 106.998 50.4933 107.073 50.632C107.158 50.7707 107.286 50.84 107.457 50.84C107.702 50.84 107.963 50.6853 108.241 50.376C108.518 50.0667 108.795 49.6773 109.073 49.208C109.35 48.7387 109.611 48.264 109.857 47.784C109.942 47.3467 110.011 47.0267 110.065 46.824C110.129 46.6213 110.193 46.4933 110.257 46.44C110.321 46.376 110.401 46.344 110.497 46.344C110.635 46.344 110.747 46.376 110.833 46.44C110.918 46.4933 110.961 46.5787 110.961 46.696C110.961 46.7173 110.955 46.744 110.945 46.776C110.945 46.808 110.939 46.84 110.929 46.872C110.854 47.128 110.779 47.4533 110.705 47.848C110.641 48.232 110.587 48.632 110.545 49.048C110.502 49.464 110.481 49.8533 110.481 50.216C110.481 50.4613 110.507 50.6533 110.561 50.792C110.614 50.9307 110.705 51 110.833 51C110.993 51 111.179 50.904 111.393 50.712C111.606 50.5093 111.825 50.248 112.049 49.928C112.283 49.5973 112.507 49.24 112.721 48.856C112.945 48.472 113.142 48.0933 113.313 47.72C113.313 47.1653 113.35 46.744 113.425 46.456C113.51 46.1573 113.611 45.9547 113.729 45.848C113.857 45.7413 113.985 45.688 114.113 45.688C114.315 45.688 114.459 45.7627 114.545 45.912C114.641 46.0507 114.689 46.1787 114.689 46.296C114.689 46.3707 114.673 46.4507 114.641 46.536C114.609 46.6107 114.566 46.696 114.513 46.792C114.427 46.952 114.342 47.16 114.257 47.416C114.171 47.6613 114.129 48.0027 114.129 48.44C114.129 48.6107 114.145 48.792 114.177 48.984C114.209 49.176 114.278 49.336 114.385 49.464C114.491 49.592 114.657 49.656 114.881 49.656C115.105 49.656 115.318 49.5707 115.521 49.4C115.734 49.2187 115.942 48.9093 116.145 48.472L116.353 48.632C116.118 49.1653 115.857 49.5227 115.569 49.704C115.291 49.8853 115.025 49.976 114.769 49.976C114.438 49.976 114.155 49.864 113.921 49.64C113.697 49.416 113.531 49.08 113.425 48.632C113.158 49.1227 112.859 49.5973 112.529 50.056C112.198 50.5147 111.857 50.888 111.505 51.176C111.153 51.4747 110.811 51.624 110.481 51.624ZM116.996 51.416C116.58 51.416 116.27 51.2827 116.068 51.016C115.865 50.76 115.764 50.4453 115.764 50.072C115.764 49.8267 115.806 49.5173 115.892 49.144C115.988 48.7707 116.11 48.3813 116.26 47.976C116.409 47.56 116.58 47.1707 116.772 46.808C116.974 46.4453 117.188 46.152 117.412 45.928C117.636 45.6933 117.854 45.576 118.068 45.576C118.164 45.576 118.244 45.608 118.308 45.672C118.382 45.7253 118.42 45.8107 118.42 45.928C118.42 46.056 118.334 46.264 118.164 46.552C118.004 46.84 117.812 47.1707 117.588 47.544C117.364 47.9173 117.166 48.312 116.996 48.728C116.836 49.1333 116.756 49.5227 116.756 49.896C116.756 50.28 116.82 50.536 116.948 50.664C117.076 50.792 117.273 50.856 117.54 50.856C117.902 50.856 118.286 50.6747 118.692 50.312C119.108 49.9493 119.545 49.3147 120.004 48.408L120.148 48.568C119.838 49.4853 119.39 50.1893 118.804 50.68C118.228 51.1707 117.625 51.416 116.996 51.416ZM118.916 44.088C118.745 44.088 118.59 44.0453 118.452 43.96C118.324 43.8747 118.26 43.7413 118.26 43.56C118.26 43.336 118.388 43.144 118.644 42.984C118.91 42.8133 119.172 42.728 119.428 42.728C119.588 42.728 119.716 42.7653 119.812 42.84C119.908 42.9147 119.956 43.0427 119.956 43.224C119.956 43.4267 119.844 43.624 119.62 43.816C119.406 43.9973 119.172 44.088 118.916 44.088ZM121.063 51.736C120.604 51.736 120.252 51.6027 120.007 51.336C119.762 51.0693 119.639 50.6747 119.639 50.152C119.639 49.832 119.682 49.448 119.767 49C119.863 48.552 119.986 48.0773 120.135 47.576C120.295 47.064 120.466 46.568 120.647 46.088C120.54 46.0667 120.439 46.0347 120.343 45.992C120.247 45.9387 120.156 45.896 120.071 45.864V45.576C120.156 45.5867 120.258 45.6133 120.375 45.656C120.492 45.6987 120.626 45.7253 120.775 45.736C121.074 44.968 121.388 44.2587 121.719 43.608C122.06 42.9573 122.386 42.4347 122.695 42.04C123.004 41.6453 123.266 41.448 123.479 41.448C123.564 41.448 123.639 41.48 123.703 41.544C123.778 41.5973 123.815 41.6827 123.815 41.8C123.815 41.9067 123.772 42.0613 123.687 42.264C123.602 42.456 123.484 42.6853 123.335 42.952C123.186 43.2187 123.02 43.512 122.839 43.832C122.658 44.152 122.466 44.4933 122.263 44.856C122.06 45.2187 121.868 45.5973 121.687 45.992C121.954 46.0347 122.21 46.072 122.455 46.104C122.711 46.136 122.972 46.152 123.239 46.152C123.527 46.152 123.836 46.1307 124.167 46.088C124.498 46.0453 124.876 45.9813 125.303 45.896C125.58 45.1387 125.89 44.3867 126.231 43.64C126.583 42.8933 126.935 42.216 127.287 41.608C127.65 40.9893 127.991 40.4987 128.311 40.136C128.642 39.7627 128.924 39.576 129.159 39.576C129.351 39.576 129.484 39.6933 129.559 39.928C129.644 40.152 129.687 40.3707 129.687 40.584C129.687 40.9573 129.591 41.4 129.399 41.912C129.218 42.4133 128.967 42.936 128.647 43.48C128.327 44.0133 127.954 44.5147 127.527 44.984C127.111 45.4427 126.668 45.816 126.199 46.104C126.028 46.5093 125.874 46.9787 125.735 47.512C125.607 48.0453 125.516 48.5733 125.463 49.096C125.41 49.608 125.404 50.0347 125.447 50.376C125.703 49.64 125.991 48.9573 126.311 48.328C126.631 47.6987 126.988 47.192 127.383 46.808C127.788 46.424 128.226 46.232 128.695 46.232C129.132 46.232 129.442 46.3867 129.623 46.696C129.815 46.9947 129.911 47.32 129.911 47.672C129.911 48.0027 129.852 48.3227 129.735 48.632C129.628 48.9413 129.516 49.24 129.399 49.528C129.282 49.816 129.223 50.0933 129.223 50.36C129.223 50.5733 129.266 50.728 129.351 50.824C129.447 50.92 129.564 50.968 129.703 50.968C129.948 50.968 130.22 50.8507 130.519 50.616C130.828 50.3813 131.132 50.072 131.431 49.688C131.73 49.2933 131.986 48.8667 132.199 48.408L132.407 48.6C132.183 49.1227 131.911 49.5973 131.591 50.024C131.271 50.44 130.919 50.7707 130.535 51.016C130.151 51.2613 129.751 51.384 129.335 51.384C128.972 51.384 128.695 51.288 128.503 51.096C128.322 50.904 128.231 50.664 128.231 50.376C128.231 50.152 128.274 49.9013 128.359 49.624C128.444 49.3467 128.524 49.064 128.599 48.776C128.684 48.488 128.727 48.216 128.727 47.96C128.727 47.6827 128.668 47.4853 128.551 47.368C128.434 47.2507 128.29 47.192 128.119 47.192C127.852 47.192 127.612 47.2987 127.399 47.512C127.186 47.7253 126.988 48.0027 126.807 48.344C126.636 48.6747 126.471 49.0267 126.311 49.4C126.162 49.7733 126.018 50.1307 125.879 50.472C125.74 50.8027 125.602 51.0747 125.463 51.288C125.324 51.5013 125.18 51.608 125.031 51.608C124.914 51.608 124.807 51.5493 124.711 51.432C124.615 51.3147 124.535 51.1493 124.471 50.936C124.418 50.7227 124.386 50.4773 124.375 50.2C124.364 49.912 124.38 49.608 124.423 49.288C124.018 50.0027 123.516 50.5893 122.919 51.048C122.332 51.5067 121.714 51.736 121.063 51.736ZM121.527 51.144C122.082 51.144 122.626 50.8987 123.159 50.408C123.692 49.9173 124.162 49.2507 124.567 48.408C124.642 48.056 124.716 47.72 124.791 47.4C124.876 47.08 124.988 46.7227 125.127 46.328C124.764 46.4133 124.418 46.472 124.087 46.504C123.767 46.536 123.458 46.552 123.159 46.552C122.86 46.552 122.578 46.536 122.311 46.504C122.044 46.4613 121.778 46.4187 121.511 46.376C121.266 46.9413 121.058 47.5227 120.887 48.12C120.716 48.7173 120.631 49.2987 120.631 49.864C120.631 50.3227 120.7 50.6533 120.839 50.856C120.978 51.048 121.207 51.144 121.527 51.144ZM126.407 45.48C126.78 45.1813 127.127 44.824 127.447 44.408C127.778 43.9813 128.071 43.5493 128.327 43.112C128.583 42.664 128.78 42.2533 128.919 41.88C129.068 41.496 129.143 41.2027 129.143 41C129.143 40.9147 129.122 40.872 129.079 40.872C129.004 40.872 128.86 40.9893 128.647 41.224C128.434 41.4587 128.188 41.784 127.911 42.2C127.644 42.616 127.378 43.1067 127.111 43.672C126.844 44.2267 126.61 44.8293 126.407 45.48ZM137.375 51.48C136.916 51.48 136.586 51.32 136.383 51C136.191 50.6907 136.095 50.3013 136.095 49.832C136.095 49.32 136.191 48.712 136.383 48.008C136.575 47.304 136.826 46.5627 137.135 45.784C137.455 45.0053 137.802 44.248 138.175 43.512C138.548 42.7653 138.922 42.088 139.295 41.48C139.668 40.872 140.01 40.3867 140.319 40.024C140.639 39.6613 140.89 39.48 141.071 39.48C141.188 39.48 141.284 39.5493 141.359 39.688C141.434 39.816 141.492 39.976 141.535 40.168C141.578 40.3493 141.599 40.5147 141.599 40.664C141.599 40.952 141.524 41.3307 141.375 41.8C141.236 42.2587 141.034 42.776 140.767 43.352C140.511 43.9173 140.202 44.4933 139.839 45.08C139.487 45.656 139.098 46.2107 138.671 46.744C138.255 47.2773 137.812 47.736 137.343 48.12C137.279 48.408 137.226 48.6907 137.183 48.968C137.151 49.2347 137.135 49.4907 137.135 49.736C137.135 50.152 137.194 50.4613 137.311 50.664C137.428 50.8667 137.604 50.968 137.839 50.968C138.127 50.968 138.41 50.84 138.687 50.584C138.975 50.328 139.242 50.008 139.487 49.624C139.743 49.2293 139.962 48.824 140.143 48.408L140.383 48.536C139.956 49.4427 139.492 50.1627 138.991 50.696C138.49 51.2187 137.951 51.48 137.375 51.48ZM137.487 47.576C137.86 47.2027 138.223 46.776 138.575 46.296C138.927 45.8053 139.252 45.2987 139.551 44.776C139.86 44.2533 140.132 43.7467 140.367 43.256C140.602 42.7653 140.783 42.328 140.911 41.944C141.039 41.5493 141.103 41.2453 141.103 41.032C141.103 40.9253 141.087 40.856 141.055 40.824C141.034 40.792 141.012 40.776 140.991 40.776C140.906 40.776 140.756 40.9147 140.543 41.192C140.34 41.4587 140.1 41.8213 139.823 42.28C139.546 42.7387 139.263 43.2613 138.975 43.848C138.687 44.4347 138.41 45.048 138.143 45.688C137.887 46.328 137.668 46.9573 137.487 47.576ZM140.932 51.512C140.473 51.512 140.148 51.368 139.956 51.08C139.764 50.8027 139.668 50.4613 139.668 50.056C139.668 49.7253 139.721 49.384 139.828 49.032C139.935 48.68 140.073 48.3493 140.244 48.04C140.425 47.7307 140.623 47.48 140.836 47.288C141.06 47.096 141.284 47 141.508 47C141.561 47 141.615 47.0107 141.668 47.032C141.732 47.0427 141.791 47.0587 141.844 47.08C141.748 47.1653 141.631 47.3253 141.492 47.56C141.364 47.784 141.241 48.0453 141.124 48.344C141.007 48.632 140.905 48.92 140.82 49.208C140.745 49.496 140.708 49.7413 140.708 49.944C140.708 50.264 140.761 50.4987 140.868 50.648C140.975 50.7867 141.113 50.856 141.284 50.856C141.508 50.856 141.775 50.7387 142.084 50.504C142.393 50.2587 142.697 49.9493 142.996 49.576C142.697 49.3307 142.463 49.0107 142.292 48.616C142.132 48.2107 142.052 47.8 142.052 47.384C142.052 47.032 142.111 46.7013 142.228 46.392C142.356 46.0827 142.537 45.8373 142.772 45.656C143.007 45.464 143.289 45.368 143.62 45.368C144.057 45.368 144.351 45.4853 144.5 45.72C144.649 45.9547 144.724 46.248 144.724 46.6C144.724 47.016 144.623 47.48 144.42 47.992C144.217 48.4933 143.961 48.9787 143.652 49.448C143.844 49.5547 144.047 49.608 144.26 49.608C144.431 49.608 144.623 49.576 144.836 49.512C145.049 49.4373 145.257 49.3147 145.46 49.144C145.673 48.9733 145.844 48.744 145.972 48.456L146.164 48.616C145.951 49.1173 145.647 49.4747 145.252 49.688C144.868 49.8907 144.5 49.992 144.148 49.992C144.009 49.992 143.876 49.9813 143.748 49.96C143.62 49.928 143.497 49.8853 143.38 49.832C143.017 50.312 142.617 50.712 142.18 51.032C141.753 51.352 141.337 51.512 140.932 51.512ZM143.284 49.16C143.551 48.7653 143.769 48.3547 143.94 47.928C144.121 47.4907 144.212 47.08 144.212 46.696C144.212 46.3867 144.164 46.1627 144.068 46.024C143.983 45.8747 143.871 45.8 143.732 45.8C143.519 45.8 143.3 45.9547 143.076 46.264C142.852 46.5733 142.74 46.9627 142.74 47.432C142.74 47.7413 142.783 48.056 142.868 48.376C142.964 48.6853 143.103 48.9467 143.284 49.16ZM146.712 51.624C146.381 51.624 146.152 51.4587 146.024 51.128C145.896 50.808 145.832 50.3867 145.832 49.864C145.832 49.8427 145.837 49.6773 145.848 49.368C145.859 49.048 145.885 48.5147 145.928 47.768C145.949 47.48 145.981 47.2827 146.024 47.176C146.067 47.0693 146.205 47.016 146.44 47.016C146.621 47.016 146.733 47.0533 146.776 47.128C146.829 47.192 146.856 47.3253 146.856 47.528C146.856 47.88 146.829 48.296 146.776 48.776C146.733 49.2453 146.712 49.688 146.712 50.104C146.712 50.4133 146.739 50.6427 146.792 50.792C146.845 50.9307 146.941 51 147.08 51C147.272 51 147.485 50.8933 147.72 50.68C147.955 50.456 148.195 50.168 148.44 49.816C148.685 49.4533 148.915 49.0693 149.128 48.664C149.352 48.2587 149.549 47.8693 149.72 47.496C149.741 46.7707 149.816 46.2907 149.944 46.056C150.083 45.8107 150.253 45.688 150.456 45.688C150.659 45.688 150.803 45.7627 150.888 45.912C150.984 46.0507 151.032 46.1787 151.032 46.296C151.032 46.4347 150.984 46.5787 150.888 46.728C150.803 46.8773 150.712 47.08 150.616 47.336C150.52 47.592 150.472 47.96 150.472 48.44C150.472 48.6107 150.488 48.792 150.52 48.984C150.552 49.176 150.621 49.336 150.728 49.464C150.835 49.592 151 49.656 151.224 49.656C151.448 49.656 151.661 49.5707 151.864 49.4C152.077 49.2187 152.285 48.9093 152.488 48.472L152.696 48.632C152.461 49.1653 152.2 49.5227 151.912 49.704C151.635 49.8853 151.368 49.976 151.112 49.976C150.76 49.976 150.467 49.848 150.232 49.592C149.997 49.336 149.843 48.9467 149.768 48.424C149.512 48.9467 149.208 49.4533 148.856 49.944C148.515 50.424 148.157 50.824 147.784 51.144C147.411 51.464 147.053 51.624 146.712 51.624ZM153.916 51.704C153.265 51.704 152.774 51.5227 152.444 51.16C152.123 50.808 151.963 50.3707 151.963 49.848C151.963 49.368 152.081 48.8613 152.316 48.328C152.561 47.7947 152.881 47.2933 153.276 46.824C153.681 46.3547 154.124 45.976 154.604 45.688C155.084 45.3893 155.558 45.24 156.028 45.24C156.273 45.24 156.497 45.304 156.7 45.432C156.913 45.56 157.02 45.8213 157.02 46.216C157.02 46.6213 156.897 47.0053 156.652 47.368C156.417 47.72 156.102 48.0347 155.708 48.312C155.324 48.5893 154.897 48.8187 154.428 49C153.969 49.1707 153.51 49.2773 153.052 49.32C153.03 49.4267 153.014 49.528 153.004 49.624C152.993 49.72 152.988 49.8107 152.988 49.896C152.988 50.056 153.004 50.216 153.036 50.376C153.078 50.536 153.148 50.6853 153.243 50.824C153.34 50.952 153.468 51.0533 153.628 51.128C153.798 51.2027 154.006 51.24 154.252 51.24C154.71 51.24 155.164 51.112 155.612 50.856C156.06 50.5893 156.476 50.2427 156.86 49.816C157.244 49.3893 157.569 48.92 157.836 48.408L158.028 48.552C157.74 49.192 157.372 49.7467 156.924 50.216C156.486 50.6853 156.006 51.048 155.484 51.304C154.972 51.5707 154.449 51.704 153.916 51.704ZM153.132 49.016C153.42 48.92 153.745 48.7813 154.108 48.6C154.47 48.408 154.817 48.184 155.148 47.928C155.489 47.672 155.766 47.3893 155.98 47.08C156.204 46.7707 156.316 46.4453 156.316 46.104C156.316 45.9867 156.294 45.896 156.252 45.832C156.209 45.768 156.118 45.736 155.98 45.736C155.724 45.736 155.452 45.8373 155.164 46.04C154.876 46.232 154.598 46.488 154.332 46.808C154.065 47.128 153.825 47.48 153.612 47.864C153.398 48.248 153.238 48.632 153.132 49.016ZM157.628 52.408C157.532 52.3547 157.462 52.2747 157.42 52.168C157.377 52.0613 157.356 51.944 157.356 51.816C157.356 51.6027 157.404 51.3573 157.5 51.08C157.596 50.8133 157.718 50.584 157.868 50.392C158.017 50.2 158.172 50.104 158.332 50.104C158.438 50.104 158.529 50.152 158.604 50.248C158.689 50.3333 158.732 50.4347 158.732 50.552C158.433 50.8613 158.209 51.1707 158.06 51.48C157.921 51.7893 157.777 52.0987 157.628 52.408ZM165.421 55.48C165.186 55.48 164.973 55.4053 164.78 55.256C164.588 55.1173 164.492 54.8827 164.492 54.552C164.492 54.232 164.594 53.9333 164.796 53.656C164.989 53.3893 165.239 53.1387 165.549 52.904C165.858 52.68 166.194 52.472 166.557 52.28C166.93 52.088 167.282 51.9067 167.613 51.736C167.762 51.3627 167.901 50.9627 168.029 50.536C168.167 50.0987 168.301 49.6187 168.429 49.096C168.023 49.6827 167.597 50.1733 167.149 50.568C166.711 50.952 166.269 51.144 165.821 51.144C165.437 51.144 165.138 51 164.925 50.712C164.722 50.424 164.62 50.0507 164.62 49.592C164.62 49.0373 164.754 48.5093 165.021 48.008C165.298 47.5067 165.655 47.064 166.093 46.68C166.53 46.296 166.994 45.9973 167.485 45.784C167.975 45.56 168.434 45.448 168.861 45.448C169.17 45.448 169.389 45.5013 169.516 45.608C169.655 45.704 169.725 45.8213 169.725 45.96C169.725 46.056 169.698 46.1307 169.645 46.184C169.591 46.2373 169.554 46.2693 169.533 46.28C169.479 46.1947 169.399 46.136 169.293 46.104C169.186 46.0613 169.053 46.04 168.893 46.04C168.477 46.04 168.071 46.1627 167.677 46.408C167.293 46.6533 166.951 46.968 166.653 47.352C166.354 47.736 166.114 48.136 165.933 48.552C165.762 48.9573 165.677 49.3307 165.677 49.672C165.677 49.928 165.725 50.1253 165.821 50.264C165.927 50.392 166.066 50.456 166.237 50.456C166.546 50.456 166.914 50.2533 167.341 49.848C167.778 49.432 168.199 48.9307 168.605 48.344C168.637 48.1947 168.663 48.0613 168.685 47.944C168.717 47.8267 168.754 47.6773 168.797 47.496C168.829 47.3467 168.903 47.176 169.021 46.984C169.149 46.7813 169.346 46.68 169.613 46.68C169.666 46.68 169.719 46.6853 169.773 46.696C169.826 46.696 169.885 46.7067 169.949 46.728C169.949 46.8987 169.895 47.2133 169.789 47.672C169.693 48.12 169.549 48.648 169.357 49.256C169.175 49.8533 168.962 50.472 168.717 51.112C169.069 50.9413 169.41 50.7227 169.741 50.456C170.082 50.1893 170.391 49.8853 170.669 49.544C170.946 49.192 171.165 48.8133 171.325 48.408L171.533 48.568C171.373 49.048 171.117 49.4853 170.765 49.88C170.413 50.2747 170.034 50.616 169.629 50.904C169.234 51.192 168.871 51.416 168.541 51.576C168.242 52.2907 167.927 52.9413 167.597 53.528C167.266 54.1253 166.919 54.6 166.557 54.952C166.205 55.304 165.826 55.48 165.421 55.48ZM165.373 54.968C165.586 54.968 165.874 54.7547 166.237 54.328C166.61 53.912 167.01 53.192 167.437 52.168C167.01 52.3813 166.61 52.6 166.237 52.824C165.874 53.0587 165.575 53.304 165.34 53.56C165.106 53.816 164.989 54.0987 164.989 54.408C164.989 54.5787 165.026 54.712 165.101 54.808C165.175 54.9147 165.266 54.968 165.373 54.968ZM172.183 51.416C171.767 51.416 171.458 51.2827 171.255 51.016C171.053 50.76 170.951 50.4453 170.951 50.072C170.951 49.8267 170.994 49.5173 171.079 49.144C171.175 48.7707 171.298 48.3813 171.447 47.976C171.597 47.56 171.767 47.1707 171.959 46.808C172.162 46.4453 172.375 46.152 172.599 45.928C172.823 45.6933 173.042 45.576 173.255 45.576C173.351 45.576 173.431 45.608 173.495 45.672C173.57 45.7253 173.607 45.8107 173.607 45.928C173.607 46.056 173.522 46.264 173.351 46.552C173.191 46.84 172.999 47.1707 172.775 47.544C172.551 47.9173 172.354 48.312 172.183 48.728C172.023 49.1333 171.943 49.5227 171.943 49.896C171.943 50.28 172.007 50.536 172.135 50.664C172.263 50.792 172.461 50.856 172.727 50.856C173.09 50.856 173.474 50.6747 173.879 50.312C174.295 49.9493 174.733 49.3147 175.191 48.408L175.335 48.568C175.026 49.4853 174.578 50.1893 173.991 50.68C173.415 51.1707 172.813 51.416 172.183 51.416ZM174.103 44.088C173.933 44.088 173.778 44.0453 173.639 43.96C173.511 43.8747 173.447 43.7413 173.447 43.56C173.447 43.336 173.575 43.144 173.831 42.984C174.098 42.8133 174.359 42.728 174.615 42.728C174.775 42.728 174.903 42.7653 174.999 42.84C175.095 42.9147 175.143 43.0427 175.143 43.224C175.143 43.4267 175.031 43.624 174.807 43.816C174.594 43.9973 174.359 44.088 174.103 44.088ZM175.931 51.624C175.6 51.624 175.371 51.4587 175.243 51.128C175.115 50.808 175.051 50.3867 175.051 49.864C175.051 49.8427 175.056 49.6773 175.067 49.368C175.077 49.048 175.104 48.5147 175.147 47.768C175.168 47.48 175.2 47.2827 175.243 47.176C175.285 47.0693 175.424 47.016 175.659 47.016C175.84 47.016 175.952 47.0533 175.995 47.128C176.048 47.192 176.075 47.3253 176.075 47.528C176.075 47.88 176.048 48.296 175.995 48.776C175.952 49.2453 175.931 49.688 175.931 50.104C175.931 50.4133 175.957 50.6427 176.011 50.792C176.064 50.9307 176.16 51 176.299 51C176.491 51 176.704 50.8933 176.939 50.68C177.173 50.456 177.413 50.168 177.659 49.816C177.904 49.4533 178.133 49.0693 178.347 48.664C178.571 48.2587 178.768 47.8693 178.939 47.496C178.96 46.7707 179.035 46.2907 179.163 46.056C179.301 45.8107 179.472 45.688 179.675 45.688C179.877 45.688 180.021 45.7627 180.107 45.912C180.203 46.0507 180.251 46.1787 180.251 46.296C180.251 46.4347 180.203 46.5787 180.107 46.728C180.021 46.8773 179.931 47.08 179.835 47.336C179.739 47.592 179.691 47.96 179.691 48.44C179.691 48.6107 179.707 48.792 179.739 48.984C179.771 49.176 179.84 49.336 179.947 49.464C180.053 49.592 180.219 49.656 180.443 49.656C180.667 49.656 180.88 49.5707 181.083 49.4C181.296 49.2187 181.504 48.9093 181.707 48.472L181.915 48.632C181.68 49.1653 181.419 49.5227 181.131 49.704C180.853 49.8853 180.587 49.976 180.331 49.976C179.979 49.976 179.685 49.848 179.451 49.592C179.216 49.336 179.061 48.9467 178.987 48.424C178.731 48.9467 178.427 49.4533 178.075 49.944C177.733 50.424 177.376 50.824 177.003 51.144C176.629 51.464 176.272 51.624 175.931 51.624ZM183.134 51.704C182.484 51.704 181.993 51.5227 181.662 51.16C181.342 50.808 181.182 50.3707 181.182 49.848C181.182 49.368 181.3 48.8613 181.534 48.328C181.78 47.7947 182.1 47.2933 182.494 46.824C182.9 46.3547 183.342 45.976 183.822 45.688C184.302 45.3893 184.777 45.24 185.246 45.24C185.492 45.24 185.716 45.304 185.918 45.432C186.132 45.56 186.238 45.8213 186.238 46.216C186.238 46.6213 186.116 47.0053 185.87 47.368C185.636 47.72 185.321 48.0347 184.926 48.312C184.542 48.5893 184.116 48.8187 183.646 49C183.188 49.1707 182.729 49.2773 182.27 49.32C182.249 49.4267 182.233 49.528 182.222 49.624C182.212 49.72 182.206 49.8107 182.206 49.896C182.206 50.056 182.222 50.216 182.254 50.376C182.297 50.536 182.366 50.6853 182.462 50.824C182.558 50.952 182.686 51.0533 182.846 51.128C183.017 51.2027 183.225 51.24 183.47 51.24C183.929 51.24 184.382 51.112 184.83 50.856C185.278 50.5893 185.694 50.2427 186.078 49.816C186.462 49.3893 186.788 48.92 187.054 48.408L187.246 48.552C186.958 49.192 186.59 49.7467 186.142 50.216C185.705 50.6853 185.225 51.048 184.702 51.304C184.19 51.5707 183.668 51.704 183.134 51.704ZM182.35 49.016C182.638 48.92 182.964 48.7813 183.326 48.6C183.689 48.408 184.036 48.184 184.366 47.928C184.708 47.672 184.985 47.3893 185.198 47.08C185.422 46.7707 185.534 46.4453 185.534 46.104C185.534 45.9867 185.513 45.896 185.47 45.832C185.428 45.768 185.337 45.736 185.198 45.736C184.942 45.736 184.67 45.8373 184.382 46.04C184.094 46.232 183.817 46.488 183.55 46.808C183.284 47.128 183.044 47.48 182.83 47.864C182.617 48.248 182.457 48.632 182.35 49.016ZM191.902 51.32C191.529 51.32 191.246 51.224 191.054 51.032C190.873 50.84 190.782 50.5947 190.782 50.296C190.782 50.072 190.82 49.8373 190.894 49.592C190.98 49.3467 191.06 49.096 191.134 48.84C191.209 48.5733 191.246 48.3173 191.246 48.072C191.246 47.7733 191.182 47.5707 191.054 47.464C190.937 47.3467 190.788 47.288 190.606 47.288C190.276 47.288 189.94 47.4267 189.598 47.704C189.257 47.9707 188.926 48.3173 188.606 48.744C188.286 49.16 187.988 49.592 187.71 50.04C187.433 50.488 187.188 50.888 186.974 51.24C186.804 51.24 186.644 51.208 186.494 51.144C186.334 51.0907 186.212 51.0053 186.126 50.888C186.126 50.8347 186.185 50.6693 186.302 50.392C186.409 50.1147 186.537 49.7733 186.686 49.368C186.836 48.9627 186.969 48.5467 187.086 48.12C187.204 47.6933 187.262 47.304 187.262 46.952C187.326 46.8773 187.428 46.8027 187.566 46.728C187.705 46.6533 187.849 46.616 187.998 46.616C188.286 46.616 188.43 46.7547 188.43 47.032C188.43 47.2027 188.382 47.4907 188.286 47.896C188.19 48.2907 188.068 48.7067 187.918 49.144C188.206 48.7067 188.526 48.2747 188.878 47.848C189.241 47.4107 189.625 47.048 190.03 46.76C190.436 46.472 190.841 46.328 191.246 46.328C191.662 46.328 191.961 46.4773 192.142 46.776C192.334 47.0747 192.43 47.4053 192.43 47.768C192.43 48.0987 192.377 48.408 192.27 48.696C192.164 48.9733 192.052 49.2453 191.934 49.512C191.828 49.768 191.774 50.0293 191.774 50.296C191.774 50.52 191.817 50.68 191.902 50.776C191.998 50.8613 192.116 50.904 192.254 50.904C192.521 50.904 192.788 50.7813 193.054 50.536C193.321 50.28 193.577 49.96 193.822 49.576C194.078 49.192 194.302 48.8027 194.494 48.408L194.67 48.616C194.446 49.1387 194.196 49.6027 193.918 50.008C193.641 50.4133 193.337 50.7333 193.006 50.968C192.676 51.2027 192.308 51.32 191.902 51.32ZM202.856 51.624C202.525 51.624 202.296 51.4693 202.168 51.16C202.05 50.8613 201.992 50.4987 201.992 50.072C201.992 49.8587 202.002 49.6293 202.024 49.384C202.045 49.128 202.072 48.8773 202.104 48.632C201.869 49.1013 201.613 49.5547 201.336 49.992C201.069 50.4293 200.786 50.7867 200.488 51.064C200.189 51.3413 199.874 51.48 199.544 51.48C199.192 51.48 198.904 51.32 198.68 51C198.456 50.68 198.344 50.3013 198.344 49.864C198.344 49.5547 198.392 49.1973 198.488 48.792C198.594 48.3867 198.722 47.9867 198.872 47.592C199.021 47.1973 199.176 46.872 199.336 46.616C199.496 46.36 199.634 46.232 199.752 46.232C199.805 46.232 199.917 46.264 200.088 46.328C200.258 46.3813 200.344 46.456 200.344 46.552C200.226 46.7333 200.082 47.0107 199.912 47.384C199.741 47.7573 199.592 48.1627 199.464 48.6C199.336 49.0267 199.272 49.416 199.272 49.768C199.272 49.8533 199.282 49.9867 199.304 50.168C199.325 50.3387 199.373 50.4933 199.448 50.632C199.533 50.7707 199.661 50.84 199.832 50.84C200.077 50.84 200.338 50.6853 200.616 50.376C200.893 50.0667 201.17 49.6773 201.448 49.208C201.725 48.7387 201.986 48.264 202.232 47.784C202.317 47.3467 202.386 47.0267 202.44 46.824C202.504 46.6213 202.568 46.4933 202.632 46.44C202.696 46.376 202.776 46.344 202.872 46.344C203.01 46.344 203.122 46.376 203.208 46.44C203.293 46.4933 203.336 46.5787 203.336 46.696C203.336 46.7173 203.33 46.744 203.32 46.776C203.32 46.808 203.314 46.84 203.304 46.872C203.229 47.128 203.154 47.4533 203.08 47.848C203.016 48.232 202.962 48.632 202.92 49.048C202.877 49.464 202.856 49.8533 202.856 50.216C202.856 50.4613 202.882 50.6533 202.936 50.792C202.989 50.9307 203.08 51 203.208 51C203.368 51 203.554 50.904 203.768 50.712C203.981 50.5093 204.2 50.248 204.424 49.928C204.658 49.5973 204.882 49.24 205.096 48.856C205.32 48.472 205.517 48.0933 205.688 47.72C205.688 47.1653 205.725 46.744 205.8 46.456C205.885 46.1573 205.986 45.9547 206.104 45.848C206.232 45.7413 206.36 45.688 206.488 45.688C206.69 45.688 206.834 45.7627 206.92 45.912C207.016 46.0507 207.064 46.1787 207.064 46.296C207.064 46.3707 207.048 46.4507 207.016 46.536C206.984 46.6107 206.941 46.696 206.888 46.792C206.802 46.952 206.717 47.16 206.632 47.416C206.546 47.6613 206.504 48.0027 206.504 48.44C206.504 48.6107 206.52 48.792 206.552 48.984C206.584 49.176 206.653 49.336 206.76 49.464C206.866 49.592 207.032 49.656 207.256 49.656C207.48 49.656 207.693 49.5707 207.896 49.4C208.109 49.2187 208.317 48.9093 208.52 48.472L208.728 48.632C208.493 49.1653 208.232 49.5227 207.944 49.704C207.666 49.8853 207.4 49.976 207.144 49.976C206.813 49.976 206.53 49.864 206.296 49.64C206.072 49.416 205.906 49.08 205.8 48.632C205.533 49.1227 205.234 49.5973 204.904 50.056C204.573 50.5147 204.232 50.888 203.88 51.176C203.528 51.4747 203.186 51.624 202.856 51.624ZM209.371 51.416C208.955 51.416 208.645 51.2827 208.443 51.016C208.24 50.76 208.139 50.4453 208.139 50.072C208.139 49.8267 208.181 49.5173 208.267 49.144C208.363 48.7707 208.485 48.3813 208.635 47.976C208.784 47.56 208.955 47.1707 209.147 46.808C209.349 46.4453 209.563 46.152 209.787 45.928C210.011 45.6933 210.229 45.576 210.443 45.576C210.539 45.576 210.619 45.608 210.683 45.672C210.757 45.7253 210.795 45.8107 210.795 45.928C210.795 46.056 210.709 46.264 210.539 46.552C210.379 46.84 210.187 47.1707 209.963 47.544C209.739 47.9173 209.541 48.312 209.371 48.728C209.211 49.1333 209.131 49.5227 209.131 49.896C209.131 50.28 209.195 50.536 209.323 50.664C209.451 50.792 209.648 50.856 209.915 50.856C210.277 50.856 210.661 50.6747 211.067 50.312C211.483 49.9493 211.92 49.3147 212.379 48.408L212.523 48.568C212.213 49.4853 211.765 50.1893 211.179 50.68C210.603 51.1707 210 51.416 209.371 51.416ZM211.291 44.088C211.12 44.088 210.965 44.0453 210.827 43.96C210.699 43.8747 210.635 43.7413 210.635 43.56C210.635 43.336 210.763 43.144 211.019 42.984C211.285 42.8133 211.547 42.728 211.803 42.728C211.963 42.728 212.091 42.7653 212.187 42.84C212.283 42.9147 212.331 43.0427 212.331 43.224C212.331 43.4267 212.219 43.624 211.995 43.816C211.781 43.9973 211.547 44.088 211.291 44.088ZM213.438 51.736C212.979 51.736 212.627 51.6027 212.382 51.336C212.137 51.0693 212.014 50.6747 212.014 50.152C212.014 49.832 212.057 49.448 212.142 49C212.238 48.552 212.361 48.0773 212.51 47.576C212.67 47.064 212.841 46.568 213.022 46.088C212.915 46.0667 212.814 46.0347 212.718 45.992C212.622 45.9387 212.531 45.896 212.446 45.864V45.576C212.531 45.5867 212.633 45.6133 212.75 45.656C212.867 45.6987 213.001 45.7253 213.15 45.736C213.449 44.968 213.763 44.2587 214.094 43.608C214.435 42.9573 214.761 42.4347 215.07 42.04C215.379 41.6453 215.641 41.448 215.854 41.448C215.939 41.448 216.014 41.48 216.078 41.544C216.153 41.5973 216.19 41.6827 216.19 41.8C216.19 41.9067 216.147 42.0613 216.062 42.264C215.977 42.456 215.859 42.6853 215.71 42.952C215.561 43.2187 215.395 43.512 215.214 43.832C215.033 44.152 214.841 44.4933 214.638 44.856C214.435 45.2187 214.243 45.5973 214.062 45.992C214.329 46.0347 214.585 46.072 214.83 46.104C215.086 46.136 215.347 46.152 215.614 46.152C215.902 46.152 216.211 46.1307 216.542 46.088C216.873 46.0453 217.251 45.9813 217.678 45.896C217.955 45.1387 218.265 44.3867 218.606 43.64C218.958 42.8933 219.31 42.216 219.662 41.608C220.025 40.9893 220.366 40.4987 220.686 40.136C221.017 39.7627 221.299 39.576 221.534 39.576C221.726 39.576 221.859 39.6933 221.934 39.928C222.019 40.152 222.062 40.3707 222.062 40.584C222.062 40.9573 221.966 41.4 221.774 41.912C221.593 42.4133 221.342 42.936 221.022 43.48C220.702 44.0133 220.329 44.5147 219.902 44.984C219.486 45.4427 219.043 45.816 218.574 46.104C218.403 46.5093 218.249 46.9787 218.11 47.512C217.982 48.0453 217.891 48.5733 217.838 49.096C217.785 49.608 217.779 50.0347 217.822 50.376C218.078 49.64 218.366 48.9573 218.686 48.328C219.006 47.6987 219.363 47.192 219.758 46.808C220.163 46.424 220.601 46.232 221.07 46.232C221.507 46.232 221.817 46.3867 221.998 46.696C222.19 46.9947 222.286 47.32 222.286 47.672C222.286 48.0027 222.227 48.3227 222.11 48.632C222.003 48.9413 221.891 49.24 221.774 49.528C221.657 49.816 221.598 50.0933 221.598 50.36C221.598 50.5733 221.641 50.728 221.726 50.824C221.822 50.92 221.939 50.968 222.078 50.968C222.323 50.968 222.595 50.8507 222.894 50.616C223.203 50.3813 223.507 50.072 223.806 49.688C224.105 49.2933 224.361 48.8667 224.574 48.408L224.782 48.6C224.558 49.1227 224.286 49.5973 223.966 50.024C223.646 50.44 223.294 50.7707 222.91 51.016C222.526 51.2613 222.126 51.384 221.71 51.384C221.347 51.384 221.07 51.288 220.878 51.096C220.697 50.904 220.606 50.664 220.606 50.376C220.606 50.152 220.649 49.9013 220.734 49.624C220.819 49.3467 220.899 49.064 220.974 48.776C221.059 48.488 221.102 48.216 221.102 47.96C221.102 47.6827 221.043 47.4853 220.926 47.368C220.809 47.2507 220.665 47.192 220.494 47.192C220.227 47.192 219.987 47.2987 219.774 47.512C219.561 47.7253 219.363 48.0027 219.182 48.344C219.011 48.6747 218.846 49.0267 218.686 49.4C218.537 49.7733 218.393 50.1307 218.254 50.472C218.115 50.8027 217.977 51.0747 217.838 51.288C217.699 51.5013 217.555 51.608 217.406 51.608C217.289 51.608 217.182 51.5493 217.086 51.432C216.99 51.3147 216.91 51.1493 216.846 50.936C216.793 50.7227 216.761 50.4773 216.75 50.2C216.739 49.912 216.755 49.608 216.798 49.288C216.393 50.0027 215.891 50.5893 215.294 51.048C214.707 51.5067 214.089 51.736 213.438 51.736ZM213.902 51.144C214.457 51.144 215.001 50.8987 215.534 50.408C216.067 49.9173 216.537 49.2507 216.942 48.408C217.017 48.056 217.091 47.72 217.166 47.4C217.251 47.08 217.363 46.7227 217.502 46.328C217.139 46.4133 216.793 46.472 216.462 46.504C216.142 46.536 215.833 46.552 215.534 46.552C215.235 46.552 214.953 46.536 214.686 46.504C214.419 46.4613 214.153 46.4187 213.886 46.376C213.641 46.9413 213.433 47.5227 213.262 48.12C213.091 48.7173 213.006 49.2987 213.006 49.864C213.006 50.3227 213.075 50.6533 213.214 50.856C213.353 51.048 213.582 51.144 213.902 51.144ZM218.782 45.48C219.155 45.1813 219.502 44.824 219.822 44.408C220.153 43.9813 220.446 43.5493 220.702 43.112C220.958 42.664 221.155 42.2533 221.294 41.88C221.443 41.496 221.518 41.2027 221.518 41C221.518 40.9147 221.497 40.872 221.454 40.872C221.379 40.872 221.235 40.9893 221.022 41.224C220.809 41.4587 220.563 41.784 220.286 42.2C220.019 42.616 219.753 43.1067 219.486 43.672C219.219 44.2267 218.985 44.8293 218.782 45.48ZM226.182 55.48C225.915 55.48 225.713 55.4 225.574 55.24C225.425 55.0907 225.35 54.8987 225.35 54.664C225.35 54.2693 225.542 53.8373 225.926 53.368C226.299 52.8987 226.779 52.4987 227.366 52.168C227.515 52.0827 227.675 52.0027 227.846 51.928C228.006 51.8533 228.187 51.7627 228.39 51.656C228.603 51.144 228.801 50.5627 228.982 49.912C229.163 49.2507 229.323 48.52 229.462 47.72C229.302 48.008 229.153 48.2587 229.014 48.472C228.886 48.6853 228.785 48.856 228.71 48.984L228.566 48.744C228.747 48.4133 228.907 48.0613 229.046 47.688C229.195 47.304 229.334 46.9413 229.462 46.6C229.601 46.2587 229.739 45.9813 229.878 45.768C230.017 45.5547 230.166 45.448 230.326 45.448C230.443 45.448 230.534 45.496 230.598 45.592C230.673 45.6773 230.71 45.7893 230.71 45.928C230.71 46.0453 230.678 46.2747 230.614 46.616C230.561 46.9467 230.475 47.3573 230.358 47.848C230.251 48.328 230.118 48.8507 229.958 49.416C229.798 49.9813 229.622 50.552 229.43 51.128C229.739 50.9467 230.049 50.76 230.358 50.568C230.667 50.376 230.977 50.12 231.286 49.8C231.606 49.48 231.915 49.0427 232.214 48.488L232.422 48.6C232.155 49.2293 231.835 49.7307 231.462 50.104C231.099 50.4667 230.726 50.7547 230.342 50.968C229.958 51.1813 229.601 51.384 229.27 51.576C229.035 52.2373 228.758 52.8667 228.438 53.464C228.129 54.0613 227.787 54.5467 227.414 54.92C227.03 55.2933 226.619 55.48 226.182 55.48ZM226.038 54.936C226.251 54.936 226.561 54.7013 226.966 54.232C227.361 53.7733 227.766 53.0853 228.182 52.168C227.371 52.5627 226.769 52.9733 226.374 53.4C225.969 53.8267 225.766 54.2107 225.766 54.552C225.766 54.6907 225.793 54.7867 225.846 54.84C225.899 54.904 225.963 54.936 226.038 54.936ZM230.582 44.008C230.411 44.008 230.262 43.9653 230.134 43.88C230.006 43.7947 229.942 43.6667 229.942 43.496C229.942 43.336 230.001 43.192 230.118 43.064C230.246 42.936 230.401 42.8347 230.582 42.76C230.763 42.6853 230.939 42.648 231.11 42.648C231.259 42.648 231.382 42.6853 231.478 42.76C231.585 42.8347 231.638 42.9467 231.638 43.096C231.638 43.3307 231.526 43.544 231.302 43.736C231.089 43.9173 230.849 44.008 230.582 44.008ZM233.01 51.512C232.552 51.512 232.226 51.368 232.034 51.08C231.842 50.8027 231.746 50.4613 231.746 50.056C231.746 49.7253 231.8 49.384 231.906 49.032C232.013 48.68 232.152 48.3493 232.322 48.04C232.504 47.7307 232.701 47.48 232.914 47.288C233.138 47.096 233.362 47 233.586 47C233.64 47 233.693 47.0107 233.746 47.032C233.81 47.0427 233.869 47.0587 233.922 47.08C233.826 47.1653 233.709 47.3253 233.57 47.56C233.442 47.784 233.32 48.0453 233.202 48.344C233.085 48.632 232.984 48.92 232.898 49.208C232.824 49.496 232.786 49.7413 232.786 49.944C232.786 50.264 232.84 50.4987 232.946 50.648C233.053 50.7867 233.192 50.856 233.362 50.856C233.586 50.856 233.853 50.7387 234.162 50.504C234.472 50.2587 234.776 49.9493 235.074 49.576C234.776 49.3307 234.541 49.0107 234.37 48.616C234.21 48.2107 234.13 47.8 234.13 47.384C234.13 47.032 234.189 46.7013 234.306 46.392C234.434 46.0827 234.616 45.8373 234.85 45.656C235.085 45.464 235.368 45.368 235.698 45.368C236.136 45.368 236.429 45.4853 236.578 45.72C236.728 45.9547 236.802 46.248 236.802 46.6C236.802 47.016 236.701 47.48 236.498 47.992C236.296 48.4933 236.04 48.9787 235.73 49.448C235.922 49.5547 236.125 49.608 236.338 49.608C236.509 49.608 236.701 49.576 236.914 49.512C237.128 49.4373 237.336 49.3147 237.538 49.144C237.752 48.9733 237.922 48.744 238.05 48.456L238.242 48.616C238.029 49.1173 237.725 49.4747 237.33 49.688C236.946 49.8907 236.578 49.992 236.226 49.992C236.088 49.992 235.954 49.9813 235.826 49.96C235.698 49.928 235.576 49.8853 235.458 49.832C235.096 50.312 234.696 50.712 234.258 51.032C233.832 51.352 233.416 51.512 233.01 51.512ZM235.362 49.16C235.629 48.7653 235.848 48.3547 236.018 47.928C236.2 47.4907 236.29 47.08 236.29 46.696C236.29 46.3867 236.242 46.1627 236.146 46.024C236.061 45.8747 235.949 45.8 235.81 45.8C235.597 45.8 235.378 45.9547 235.154 46.264C234.93 46.5733 234.818 46.9627 234.818 47.432C234.818 47.7413 234.861 48.056 234.946 48.376C235.042 48.6853 235.181 48.9467 235.362 49.16ZM238.438 55.48C238.171 55.48 237.937 55.4053 237.734 55.256C237.531 55.1173 237.43 54.9093 237.43 54.632C237.43 54.2907 237.515 53.9867 237.686 53.72C237.857 53.4533 238.086 53.208 238.374 52.984C238.662 52.76 238.993 52.5467 239.366 52.344C239.739 52.1413 240.129 51.9387 240.534 51.736C240.683 51.3413 240.833 50.904 240.982 50.424C241.142 49.9333 241.291 49.3947 241.43 48.808C241.089 49.3627 240.721 49.8427 240.326 50.248C239.942 50.6427 239.531 50.84 239.094 50.84C238.891 50.84 238.689 50.7973 238.486 50.712C238.294 50.616 238.134 50.472 238.006 50.28C237.878 50.088 237.814 49.8427 237.814 49.544C237.814 49.2453 237.862 48.8987 237.958 48.504C238.065 48.1093 238.193 47.7253 238.342 47.352C238.491 46.9787 238.646 46.6693 238.806 46.424C238.966 46.1787 239.105 46.056 239.222 46.056C239.265 46.056 239.339 46.072 239.446 46.104C239.563 46.136 239.67 46.184 239.766 46.248C239.873 46.3013 239.926 46.36 239.926 46.424C239.83 46.5627 239.723 46.76 239.606 47.016C239.489 47.272 239.371 47.56 239.254 47.88C239.147 48.1893 239.057 48.4933 238.982 48.792C238.907 49.0907 238.87 49.3467 238.87 49.56C238.87 49.752 238.913 49.9067 238.998 50.024C239.083 50.1413 239.233 50.2 239.446 50.2C239.649 50.2 239.873 50.104 240.118 49.912C240.374 49.7093 240.625 49.4533 240.87 49.144C241.126 48.8347 241.361 48.504 241.574 48.152C241.606 48.0347 241.633 47.9173 241.654 47.8C241.686 47.672 241.713 47.544 241.734 47.416C241.766 47.2667 241.841 47.096 241.958 46.904C242.086 46.7013 242.283 46.6 242.55 46.6C242.603 46.6 242.657 46.6053 242.71 46.616C242.763 46.616 242.822 46.6267 242.886 46.648C242.886 46.8187 242.833 47.1387 242.726 47.608C242.63 48.0667 242.486 48.6053 242.294 49.224C242.113 49.8427 241.894 50.4773 241.638 51.128C242.139 50.936 242.63 50.6213 243.11 50.184C243.59 49.736 243.979 49.144 244.278 48.408L244.486 48.568C244.326 49.08 244.081 49.528 243.75 49.912C243.43 50.2853 243.067 50.6107 242.662 50.888C242.257 51.1547 241.857 51.3787 241.462 51.56C241.185 52.2427 240.881 52.8827 240.55 53.48C240.23 54.0773 239.889 54.5573 239.526 54.92C239.174 55.2933 238.811 55.48 238.438 55.48ZM238.358 54.968C238.518 54.968 238.785 54.7547 239.158 54.328C239.542 53.912 239.947 53.176 240.374 52.12C239.937 52.3547 239.531 52.584 239.158 52.808C238.785 53.0427 238.486 53.2933 238.262 53.56C238.038 53.8267 237.926 54.136 237.926 54.488C237.926 54.5733 237.958 54.6747 238.022 54.792C238.086 54.9093 238.198 54.968 238.358 54.968Z" fill="#6B4B3E"/>
</svg>
