<svg width="160" height="77" viewBox="0 0 160 77" fill="none" xmlns="http://www.w3.org/2000/svg">
<path d="M10 36C10 22.6667 13.3333 12.6667 20 6C26.6667 -0.666667 33.3333 -0.666667 40 6C46.6667 12.6667 50 22.6667 50 36L45 56L40 66L38 71L42 76H30L34 71L32 66L27 56L25 36" stroke="#9B2C2C" stroke-width="2"/>
<path d="M50 36C50 22.6667 46.6667 12.6667 40 6C33.3333 -0.666667 26.6667 -0.666667 20 6C13.3333 12.6667 10 22.6667 10 36L15 56L20 66L22 71L18 76H30L26 71L28 66L33 56L35 36" stroke="#9B2C2C" stroke-width="2"/>
<path d="M1.51578 38.608H4.62378V19.456H1.51578V19.064H10.5318V19.456H7.42378V38.608H12.4078C14.0504 38.608 15.3384 38.0947 16.2718 37.068C17.2051 36.0413 17.8864 34.6413 18.3158 32.868H18.6238V39H1.51578V38.608ZM28.3278 32.14H28.2718C28.2344 32.3827 27.9264 32.6253 27.3478 32.868L25.2478 33.708C24.6504 33.9507 24.1931 34.296 23.8758 34.744C23.5584 35.1733 23.3998 35.7147 23.3998 36.368C23.3998 36.648 23.4278 36.9373 23.4838 37.236C23.5398 37.5347 23.6424 37.8053 23.7918 38.048C23.9411 38.272 24.1464 38.4587 24.4078 38.608C24.6878 38.7573 25.0424 38.832 25.4718 38.832C26.0878 38.832 26.5824 38.7013 26.9558 38.44C27.3478 38.1787 27.6371 37.852 27.8238 37.46C28.0291 37.068 28.1598 36.648 28.2158 36.2C28.2904 35.7333 28.3278 35.3133 28.3278 34.94V32.14ZM33.2278 38.692C32.9851 38.8787 32.6958 39.0373 32.3598 39.168C32.0238 39.3173 31.6131 39.392 31.1278 39.392C30.2318 39.392 29.5784 39.2053 29.1678 38.832C28.7758 38.44 28.5051 37.8987 28.3558 37.208H28.2998C28.2251 37.376 28.1224 37.5907 27.9918 37.852C27.8611 38.0947 27.6558 38.3373 27.3758 38.58C27.1144 38.804 26.7598 38.9907 26.3118 39.14C25.8638 39.308 25.2944 39.392 24.6038 39.392C23.8198 39.392 23.1944 39.2987 22.7278 39.112C22.2611 38.944 21.8971 38.7293 21.6358 38.468C21.3744 38.2067 21.1971 37.9173 21.1038 37.6C21.0291 37.264 20.9918 36.956 20.9918 36.676C20.9918 36.0227 21.1224 35.5 21.3838 35.108C21.6451 34.716 21.9811 34.408 22.3918 34.184C22.8211 33.9413 23.2878 33.7453 23.7918 33.596C24.3144 33.4467 24.8371 33.288 25.3598 33.12C25.9758 32.9147 26.4798 32.7373 26.8718 32.588C27.2824 32.4387 27.5998 32.2613 27.8238 32.056C28.0478 31.832 28.1971 31.5613 28.2718 31.244C28.3651 30.908 28.4118 30.46 28.4118 29.9C28.4118 29.452 28.3838 29.0507 28.3278 28.696C28.2718 28.3413 28.1691 28.0427 28.0198 27.8C27.8704 27.5387 27.6558 27.3427 27.3758 27.212C27.0958 27.0813 26.7224 27.016 26.2558 27.016C25.6398 27.016 25.1264 27.128 24.7158 27.352C24.3238 27.5573 24.1278 27.9027 24.1278 28.388C24.1278 28.7053 24.1558 29.0227 24.2118 29.34C24.2678 29.6387 24.2958 29.8627 24.2958 30.012C24.2958 30.2733 24.2024 30.4973 24.0158 30.684C23.8291 30.852 23.5584 30.936 23.2038 30.936C22.5878 30.936 22.2051 30.824 22.0558 30.6C21.9064 30.376 21.8318 30.0867 21.8318 29.732C21.8318 29.3213 21.9251 28.9293 22.1118 28.556C22.2984 28.1827 22.5691 27.856 22.9238 27.576C23.2971 27.2773 23.7544 27.044 24.2958 26.876C24.8558 26.708 25.4904 26.624 26.1998 26.624C27.0584 26.624 27.7771 26.736 28.3558 26.96C28.9344 27.1653 29.4011 27.4547 29.7558 27.828C30.1104 28.1827 30.3624 28.5933 30.5118 29.06C30.6611 29.508 30.7358 29.984 30.7358 30.488V37.46C30.7358 38.0013 30.8198 38.3653 30.9878 38.552C31.1558 38.7387 31.3984 38.832 31.7158 38.832C31.9211 38.832 32.1358 38.7947 32.3598 38.72C32.5838 38.6453 32.7984 38.5333 33.0038 38.384L33.2278 38.692ZM47.8652 28.108H50.4412C50.9639 28.108 51.4399 28.0427 51.8692 27.912C52.2985 27.7813 52.6625 27.5573 52.9612 27.24C53.2785 26.904 53.5212 26.456 53.6892 25.896C53.8572 25.336 53.9412 24.6267 53.9412 23.768C53.9412 22.7973 53.8105 22.0227 53.5492 21.444C53.3065 20.8467 52.9799 20.3987 52.5692 20.1C52.1772 19.8013 51.7292 19.6053 51.2252 19.512C50.7399 19.4187 50.2545 19.372 49.7692 19.372C49.4332 19.372 49.0879 19.3813 48.7332 19.4C48.3972 19.4 48.1079 19.4187 47.8652 19.456V28.108ZM41.9572 38.608H45.0652V19.456H41.9572V19.064H47.2772C47.5012 19.064 47.7252 19.064 47.9492 19.064C48.1732 19.0453 48.3972 19.0267 48.6212 19.008C48.8452 19.008 49.0692 19.008 49.2932 19.008C49.5172 18.9893 49.7412 18.98 49.9652 18.98C51.0665 18.98 52.0372 19.0453 52.8772 19.176C53.7172 19.288 54.5012 19.6333 55.2292 20.212C55.8825 20.716 56.3399 21.2853 56.6012 21.92C56.8812 22.5547 57.0212 23.152 57.0212 23.712C57.0212 23.992 56.9652 24.356 56.8532 24.804C56.7599 25.2333 56.5359 25.6813 56.1812 26.148C55.8452 26.596 55.3505 27.016 54.6972 27.408C54.0439 27.7813 53.1759 28.0333 52.0932 28.164V28.22C52.3919 28.2573 52.7932 28.332 53.2972 28.444C53.8199 28.5373 54.3425 28.7053 54.8652 28.948C55.4065 29.1907 55.9012 29.5173 56.3492 29.928C56.7972 30.32 57.1145 30.8333 57.3012 31.468C57.4132 31.8413 57.4879 32.2707 57.5252 32.756C57.5812 33.2227 57.6185 33.708 57.6372 34.212C57.6745 34.716 57.7025 35.2013 57.7212 35.668C57.7585 36.1347 57.8145 36.5267 57.8892 36.844C58.0012 37.3293 58.1785 37.768 58.4212 38.16C58.6639 38.552 59.0559 38.748 59.5972 38.748C59.8399 38.748 60.0919 38.7013 60.3532 38.608C60.6145 38.5147 60.8479 38.3653 61.0532 38.16L61.3052 38.468C61.2119 38.5427 61.0999 38.6267 60.9692 38.72C60.8572 38.7947 60.7079 38.8693 60.5212 38.944C60.3345 39.0187 60.1012 39.0747 59.8212 39.112C59.5599 39.168 59.2332 39.196 58.8412 39.196C58.0945 39.196 57.4692 39.1027 56.9652 38.916C56.4799 38.7293 56.0879 38.4587 55.7892 38.104C55.4905 37.7307 55.2665 37.2827 55.1172 36.76C54.9865 36.2187 54.8932 35.5933 54.8372 34.884L54.6412 32.336C54.5665 31.4027 54.3799 30.6747 54.0812 30.152C53.7825 29.6293 53.4279 29.2467 53.0172 29.004C52.6252 28.7613 52.2145 28.6213 51.7852 28.584C51.3559 28.528 50.9825 28.5 50.6652 28.5H47.8652V38.608H50.9732V39H41.9572V38.608ZM65.3842 33.008C65.3842 34.3333 65.4869 35.388 65.6922 36.172C65.8976 36.956 66.1682 37.5627 66.5042 37.992C66.8402 38.4027 67.2322 38.6733 67.6802 38.804C68.1282 38.9347 68.6042 39 69.1082 39C69.6122 39 70.0882 38.9347 70.5362 38.804C70.9842 38.6733 71.3762 38.4027 71.7122 37.992C72.0482 37.5627 72.3189 36.956 72.5242 36.172C72.7296 35.388 72.8322 34.3333 72.8322 33.008C72.8322 31.888 72.7576 30.9547 72.6082 30.208C72.4589 29.4427 72.2256 28.8267 71.9082 28.36C71.6096 27.8747 71.2269 27.5293 70.7602 27.324C70.2936 27.1187 69.7429 27.016 69.1082 27.016C68.4736 27.016 67.9229 27.1187 67.4562 27.324C66.9896 27.5293 66.5976 27.8747 66.2802 28.36C65.9816 28.8267 65.7576 29.4427 65.6082 30.208C65.4589 30.9547 65.3842 31.888 65.3842 33.008ZM62.5842 33.008C62.5842 32.0933 62.7802 31.244 63.1722 30.46C63.5829 29.676 64.0962 29.004 64.7122 28.444C65.3469 27.8653 66.0469 27.4173 66.8122 27.1C67.5962 26.7827 68.3616 26.624 69.1082 26.624C69.8549 26.624 70.6109 26.7827 71.3762 27.1C72.1602 27.4173 72.8602 27.8653 73.4762 28.444C74.1109 29.004 74.6242 29.676 75.0162 30.46C75.4269 31.244 75.6322 32.0933 75.6322 33.008C75.6322 33.8853 75.4456 34.716 75.0722 35.5C74.6989 36.2653 74.2042 36.9373 73.5882 37.516C72.9909 38.0947 72.3002 38.552 71.5162 38.888C70.7322 39.224 69.9296 39.392 69.1082 39.392C68.2869 39.392 67.4842 39.224 66.7002 38.888C65.9162 38.552 65.2162 38.0947 64.6002 37.516C64.0029 36.9373 63.5176 36.2653 63.1442 35.5C62.7709 34.716 62.5842 33.8853 62.5842 33.008ZM77.4428 38.608H79.5988V27.38H77.4428V26.988H81.9508V29.928H82.0068C82.3988 28.808 82.9588 27.9867 83.6868 27.464C84.4335 26.9413 85.3295 26.68 86.3748 26.68C87.3081 26.68 88.1295 26.8853 88.8388 27.296C89.5668 27.7067 90.0428 28.388 90.2668 29.34H90.3228C90.4535 29.004 90.6308 28.6773 90.8548 28.36C91.0788 28.0427 91.3588 27.7627 91.6948 27.52C92.0308 27.2587 92.4228 27.0533 92.8708 26.904C93.3375 26.7547 93.8601 26.68 94.4388 26.68C97.1641 26.68 98.5268 28.0707 98.5268 30.852V38.608H100.683V39H93.9628V38.608H96.1188V29.088C96.1188 28.4533 95.9415 27.9587 95.5868 27.604C95.2508 27.2493 94.7841 27.072 94.1868 27.072C93.7201 27.072 93.2535 27.1653 92.7868 27.352C92.3201 27.52 91.9001 27.7813 91.5268 28.136C91.1535 28.4907 90.8455 28.948 90.6028 29.508C90.3788 30.068 90.2668 30.7213 90.2668 31.468V38.608H92.4228V39H85.7028V38.608H87.8588V29.48C87.8588 28.6587 87.6908 28.052 87.3548 27.66C87.0188 27.268 86.5708 27.072 86.0108 27.072C85.6188 27.072 85.1895 27.1747 84.7228 27.38C84.2561 27.5667 83.8175 27.8747 83.4068 28.304C83.0148 28.7147 82.6788 29.256 82.3988 29.928C82.1375 30.6 82.0068 31.4213 82.0068 32.392V38.608H84.1628V39H77.4428V38.608ZM109.73 32.14H109.674C109.637 32.3827 109.329 32.6253 108.75 32.868L106.65 33.708C106.053 33.9507 105.595 34.296 105.278 34.744C104.961 35.1733 104.802 35.7147 104.802 36.368C104.802 36.648 104.83 36.9373 104.886 37.236C104.942 37.5347 105.045 37.8053 105.194 38.048C105.343 38.272 105.549 38.4587 105.81 38.608C106.09 38.7573 106.445 38.832 106.874 38.832C107.49 38.832 107.985 38.7013 108.358 38.44C108.75 38.1787 109.039 37.852 109.226 37.46C109.431 37.068 109.562 36.648 109.618 36.2C109.693 35.7333 109.73 35.3133 109.73 34.94V32.14ZM114.63 38.692C114.387 38.8787 114.098 39.0373 113.762 39.168C113.426 39.3173 113.015 39.392 112.53 39.392C111.634 39.392 110.981 39.2053 110.57 38.832C110.178 38.44 109.907 37.8987 109.758 37.208H109.702C109.627 37.376 109.525 37.5907 109.394 37.852C109.263 38.0947 109.058 38.3373 108.778 38.58C108.517 38.804 108.162 38.9907 107.714 39.14C107.266 39.308 106.697 39.392 106.006 39.392C105.222 39.392 104.597 39.2987 104.13 39.112C103.663 38.944 103.299 38.7293 103.038 38.468C102.777 38.2067 102.599 37.9173 102.506 37.6C102.431 37.264 102.394 36.956 102.394 36.676C102.394 36.0227 102.525 35.5 102.786 35.108C103.047 34.716 103.383 34.408 103.794 34.184C104.223 33.9413 104.69 33.7453 105.194 33.596C105.717 33.4467 106.239 33.288 106.762 33.12C107.378 32.9147 107.882 32.7373 108.274 32.588C108.685 32.4387 109.002 32.2613 109.226 32.056C109.45 31.832 109.599 31.5613 109.674 31.244C109.767 30.908 109.814 30.46 109.814 29.9C109.814 29.452 109.786 29.0507 109.73 28.696C109.674 28.3413 109.571 28.0427 109.422 27.8C109.273 27.5387 109.058 27.3427 108.778 27.212C108.498 27.0813 108.125 27.016 107.658 27.016C107.042 27.016 106.529 27.128 106.118 27.352C105.726 27.5573 105.53 27.9027 105.53 28.388C105.53 28.7053 105.558 29.0227 105.614 29.34C105.67 29.6387 105.698 29.8627 105.698 30.012C105.698 30.2733 105.605 30.4973 105.418 30.684C105.231 30.852 104.961 30.936 104.606 30.936C103.99 30.936 103.607 30.824 103.458 30.6C103.309 30.376 103.234 30.0867 103.234 29.732C103.234 29.3213 103.327 28.9293 103.514 28.556C103.701 28.1827 103.971 27.856 104.326 27.576C104.699 27.2773 105.157 27.044 105.698 26.876C106.258 26.708 106.893 26.624 107.602 26.624C108.461 26.624 109.179 26.736 109.758 26.96C110.337 27.1653 110.803 27.4547 111.158 27.828C111.513 28.1827 111.765 28.5933 111.914 29.06C112.063 29.508 112.138 29.984 112.138 30.488V37.46C112.138 38.0013 112.222 38.3653 112.39 38.552C112.558 38.7387 112.801 38.832 113.118 38.832C113.323 38.832 113.538 38.7947 113.762 38.72C113.986 38.6453 114.201 38.5333 114.406 38.384L114.63 38.692ZM115.427 38.608H117.583V27.38H115.427V26.988H119.935V29.984H119.991C120.103 29.7413 120.261 29.4333 120.467 29.06C120.691 28.6867 120.989 28.3227 121.363 27.968C121.736 27.6133 122.203 27.3147 122.763 27.072C123.323 26.8107 124.004 26.68 124.807 26.68C126.039 26.68 127.037 26.9787 127.803 27.576C128.587 28.1733 128.979 29.1253 128.979 30.432V38.608H131.135V39H124.415V38.608H126.571V29.564C126.571 28.836 126.393 28.2387 126.039 27.772C125.703 27.3053 125.171 27.072 124.443 27.072C123.845 27.072 123.276 27.2027 122.735 27.464C122.193 27.7253 121.717 28.0893 121.307 28.556C120.896 29.0227 120.569 29.5733 120.327 30.208C120.103 30.8427 119.991 31.5333 119.991 32.28V38.608H122.147V39H115.427V38.608ZM144.332 35.92C144.276 36.1253 144.164 36.424 143.996 36.816C143.846 37.1893 143.594 37.572 143.24 37.964C142.904 38.3373 142.437 38.6733 141.84 38.972C141.261 39.252 140.505 39.392 139.572 39.392C138.862 39.392 138.125 39.28 137.36 39.056C136.594 38.832 135.894 38.4773 135.26 37.992C134.625 37.488 134.102 36.8347 133.692 36.032C133.3 35.2293 133.104 34.24 133.104 33.064C133.104 32.1493 133.272 31.3 133.608 30.516C133.962 29.732 134.429 29.0507 135.008 28.472C135.605 27.8933 136.296 27.4453 137.08 27.128C137.882 26.792 138.732 26.624 139.628 26.624C140.132 26.624 140.645 26.6893 141.168 26.82C141.709 26.932 142.194 27.1187 142.624 27.38C143.072 27.6227 143.436 27.9493 143.716 28.36C144.014 28.752 144.164 29.2373 144.164 29.816C144.164 30.208 144.033 30.5347 143.772 30.796C143.529 31.0387 143.174 31.16 142.708 31.16C142.39 31.16 142.082 31.0947 141.784 30.964C141.504 30.8147 141.364 30.572 141.364 30.236C141.364 29.9747 141.429 29.6573 141.56 29.284C141.69 28.9107 141.756 28.6027 141.756 28.36C141.756 27.9307 141.541 27.604 141.112 27.38C140.682 27.1373 140.188 27.016 139.628 27.016C139.217 27.016 138.788 27.072 138.34 27.184C137.91 27.2773 137.509 27.5293 137.136 27.94C136.781 28.3507 136.482 28.9667 136.24 29.788C136.016 30.6093 135.904 31.7293 135.904 33.148C135.904 33.9507 135.95 34.7067 136.044 35.416C136.156 36.1253 136.342 36.7507 136.604 37.292C136.884 37.8147 137.257 38.2347 137.724 38.552C138.209 38.8507 138.834 39 139.6 39C140.421 39 141.093 38.8787 141.616 38.636C142.157 38.3933 142.577 38.104 142.876 37.768C143.193 37.4133 143.426 37.0587 143.576 36.704C143.725 36.3493 143.837 36.06 143.912 35.836L144.332 35.92ZM155.18 31.664C155.218 31.4027 155.236 31.16 155.236 30.936C155.236 30.712 155.236 30.4787 155.236 30.236C155.236 29.6013 155.171 29.0787 155.04 28.668C154.928 28.2573 154.76 27.9307 154.536 27.688C154.331 27.4453 154.07 27.2773 153.752 27.184C153.454 27.072 153.127 27.016 152.772 27.016C152.138 27.016 151.615 27.1467 151.204 27.408C150.794 27.6507 150.467 27.9867 150.224 28.416C149.982 28.8453 149.795 29.34 149.664 29.9C149.552 30.46 149.478 31.048 149.44 31.664H155.18ZM149.412 32.056C149.412 32.2427 149.403 32.4387 149.384 32.644C149.384 32.8307 149.384 33.0733 149.384 33.372C149.384 33.988 149.422 34.632 149.496 35.304C149.571 35.976 149.73 36.5827 149.972 37.124C150.234 37.6653 150.607 38.1133 151.092 38.468C151.596 38.8227 152.259 39 153.08 39C153.902 39 154.574 38.8787 155.096 38.636C155.638 38.3933 156.058 38.104 156.356 37.768C156.674 37.4133 156.907 37.0587 157.056 36.704C157.206 36.3493 157.318 36.06 157.392 35.836L157.812 35.92C157.756 36.1253 157.644 36.424 157.476 36.816C157.327 37.1893 157.075 37.572 156.72 37.964C156.384 38.3373 155.918 38.6733 155.32 38.972C154.742 39.252 153.986 39.392 153.052 39.392C152.119 39.392 151.251 39.2427 150.448 38.944C149.664 38.6453 148.983 38.216 148.404 37.656C147.826 37.096 147.378 36.4333 147.06 35.668C146.743 34.884 146.584 34.016 146.584 33.064C146.584 32.2427 146.743 31.4493 147.06 30.684C147.396 29.9 147.844 29.2093 148.404 28.612C148.983 28.0147 149.655 27.5387 150.42 27.184C151.186 26.8107 152.007 26.624 152.884 26.624C153.407 26.624 153.967 26.7173 154.564 26.904C155.162 27.0907 155.712 27.3987 156.216 27.828C156.739 28.2387 157.168 28.7893 157.504 29.48C157.859 30.1707 158.036 31.0293 158.036 32.056H149.412Z" fill="#1A202C"/>
<path d="M53.3223 46.3926H59.5977V47.4473H54.459V50.0605H59.2109V51.0566H54.459V53.9746H59.6855V55H53.3223V46.3926ZM61.9766 52.2227C62.0039 52.7109 62.1191 53.1074 62.3223 53.4121C62.709 53.9824 63.3906 54.2676 64.3672 54.2676C64.8047 54.2676 65.2031 54.2051 65.5625 54.0801C66.2578 53.8379 66.6055 53.4043 66.6055 52.7793C66.6055 52.3105 66.459 51.9766 66.166 51.7773C65.8691 51.582 65.4043 51.4121 64.7715 51.2676L63.6055 51.0039C62.8438 50.832 62.3047 50.6426 61.9883 50.4355C61.4414 50.0762 61.168 49.5391 61.168 48.8242C61.168 48.0508 61.4355 47.416 61.9707 46.9199C62.5059 46.4238 63.2637 46.1758 64.2441 46.1758C65.1465 46.1758 65.9121 46.3945 66.541 46.832C67.1738 47.2656 67.4902 47.9609 67.4902 48.918H66.3945C66.3359 48.457 66.2109 48.1035 66.0195 47.8574C65.6641 47.4082 65.0605 47.1836 64.209 47.1836C63.5215 47.1836 63.0273 47.3281 62.7266 47.6172C62.4258 47.9062 62.2754 48.2422 62.2754 48.625C62.2754 49.0469 62.4512 49.3555 62.8027 49.5508C63.0332 49.6758 63.5547 49.832 64.3672 50.0195L65.5742 50.2949C66.1562 50.4277 66.6055 50.6094 66.9219 50.8398C67.4688 51.2422 67.7422 51.8262 67.7422 52.5918C67.7422 53.5449 67.3945 54.2266 66.6992 54.6367C66.0078 55.0469 65.2031 55.252 64.2852 55.252C63.2148 55.252 62.377 54.9785 61.7715 54.4316C61.166 53.8887 60.8691 53.1523 60.8809 52.2227H61.9766ZM75.4824 46.3926V47.418H72.582V55H71.3984V47.418H68.498V46.3926H75.4824ZM75.3301 53.7227H76.5547V55H75.3301V53.7227ZM81.3594 55C81.3984 54.2773 81.5469 53.6484 81.8047 53.1133C82.0664 52.5781 82.5742 52.0918 83.3281 51.6543L84.4531 51.0039C84.957 50.7109 85.3105 50.4609 85.5137 50.2539C85.834 49.9297 85.9941 49.5586 85.9941 49.1406C85.9941 48.6523 85.8477 48.2656 85.5547 47.9805C85.2617 47.6914 84.8711 47.5469 84.3828 47.5469C83.6602 47.5469 83.1602 47.8203 82.8828 48.3672C82.7344 48.6602 82.6523 49.0664 82.6367 49.5859H81.5645C81.5762 48.8555 81.7109 48.2598 81.9688 47.7988C82.4258 46.9863 83.2324 46.5801 84.3887 46.5801C85.3496 46.5801 86.0508 46.8398 86.4922 47.3594C86.9375 47.8789 87.1602 48.457 87.1602 49.0938C87.1602 49.7656 86.9238 50.3398 86.4512 50.8164C86.1777 51.0938 85.6875 51.4297 84.9805 51.8242L84.1777 52.2695C83.7949 52.4805 83.4941 52.6816 83.2754 52.873C82.8848 53.2129 82.6387 53.5898 82.5371 54.0039H87.1191V55H81.3594ZM90.9102 46.6094C91.9961 46.6094 92.7812 47.0566 93.2656 47.9512C93.6406 48.6426 93.8281 49.5898 93.8281 50.793C93.8281 51.9336 93.6582 52.877 93.3184 53.623C92.8262 54.6934 92.0215 55.2285 90.9043 55.2285C89.8965 55.2285 89.1465 54.791 88.6543 53.916C88.2441 53.1855 88.0391 52.2051 88.0391 50.9746C88.0391 50.0215 88.1621 49.2031 88.4082 48.5195C88.8691 47.2461 89.7031 46.6094 90.9102 46.6094ZM90.8984 54.2676C91.4453 54.2676 91.8809 54.0254 92.2051 53.541C92.5293 53.0566 92.6914 52.1543 92.6914 50.834C92.6914 49.8809 92.5742 49.0977 92.3398 48.4844C92.1055 47.8672 91.6504 47.5586 90.9746 47.5586C90.3535 47.5586 89.8984 47.8516 89.6094 48.4375C89.3242 49.0195 89.1816 49.8789 89.1816 51.0156C89.1816 51.8711 89.2734 52.5586 89.457 53.0781C89.7383 53.8711 90.2188 54.2676 90.8984 54.2676ZM94.7188 55C94.7578 54.2773 94.9062 53.6484 95.1641 53.1133C95.4258 52.5781 95.9336 52.0918 96.6875 51.6543L97.8125 51.0039C98.3164 50.7109 98.6699 50.4609 98.873 50.2539C99.1934 49.9297 99.3535 49.5586 99.3535 49.1406C99.3535 48.6523 99.207 48.2656 98.9141 47.9805C98.6211 47.6914 98.2305 47.5469 97.7422 47.5469C97.0195 47.5469 96.5195 47.8203 96.2422 48.3672C96.0938 48.6602 96.0117 49.0664 95.9961 49.5859H94.9238C94.9355 48.8555 95.0703 48.2598 95.3281 47.7988C95.7852 46.9863 96.5918 46.5801 97.748 46.5801C98.709 46.5801 99.4102 46.8398 99.8516 47.3594C100.297 47.8789 100.52 48.457 100.52 49.0938C100.52 49.7656 100.283 50.3398 99.8105 50.8164C99.5371 51.0938 99.0469 51.4297 98.3398 51.8242L97.5371 52.2695C97.1543 52.4805 96.8535 52.6816 96.6348 52.873C96.2441 53.2129 95.998 53.5898 95.8965 54.0039H100.479V55H94.7188ZM104.27 46.6094C105.355 46.6094 106.141 47.0566 106.625 47.9512C107 48.6426 107.188 49.5898 107.188 50.793C107.188 51.9336 107.018 52.877 106.678 53.623C106.186 54.6934 105.381 55.2285 104.264 55.2285C103.256 55.2285 102.506 54.791 102.014 53.916C101.604 53.1855 101.398 52.2051 101.398 50.9746C101.398 50.0215 101.521 49.2031 101.768 48.5195C102.229 47.2461 103.062 46.6094 104.27 46.6094ZM104.258 54.2676C104.805 54.2676 105.24 54.0254 105.564 53.541C105.889 53.0566 106.051 52.1543 106.051 50.834C106.051 49.8809 105.934 49.0977 105.699 48.4844C105.465 47.8672 105.01 47.5586 104.334 47.5586C103.713 47.5586 103.258 47.8516 102.969 48.4375C102.684 49.0195 102.541 49.8789 102.541 51.0156C102.541 51.8711 102.633 52.5586 102.816 53.0781C103.098 53.8711 103.578 54.2676 104.258 54.2676Z" fill="#4A5568"/>
</svg>
