<svg width="125" height="162" viewBox="0 0 125 162" fill="none" xmlns="http://www.w3.org/2000/svg">
<path d="M43 82C43 42 83 42 83 82" stroke="#4A321F" stroke-width="8" stroke-linecap="round"/>
<path d="M23 82V132C49.6667 138.667 76.3333 138.667 103 132V82" fill="#6B4423"/>
<path d="M53 47C59.6667 40.3333 63 33.6667 63 27C63 20.3333 59.6667 13.6667 53 7C59.6667 0.333333 66.3333 0.333333 73 7" stroke="#8B5E3C" stroke-width="3" stroke-linecap="round"/>
<path d="M2.17188 138.82H9.03906C10.3984 138.82 11.4102 138.879 12.0742 138.996C12.7461 139.105 13.3438 139.34 13.8672 139.699C14.3984 140.059 14.8398 140.539 15.1914 141.141C15.543 141.734 15.7188 142.402 15.7188 143.145C15.7188 143.949 15.5 144.688 15.0625 145.359C14.6328 146.031 14.0469 146.535 13.3047 146.871C14.3516 147.176 15.1562 147.695 15.7188 148.43C16.2812 149.164 16.5625 150.027 16.5625 151.02C16.5625 151.801 16.3789 152.562 16.0117 153.305C15.6523 154.039 15.1562 154.629 14.5234 155.074C13.8984 155.512 13.125 155.781 12.2031 155.883C11.625 155.945 10.2305 155.984 8.01953 156H2.17188V138.82ZM5.64062 141.68V145.652H7.91406C9.26562 145.652 10.1055 145.633 10.4336 145.594C11.0273 145.523 11.4922 145.32 11.8281 144.984C12.1719 144.641 12.3438 144.191 12.3438 143.637C12.3438 143.105 12.1953 142.676 11.8984 142.348C11.6094 142.012 11.1758 141.809 10.5977 141.738C10.2539 141.699 9.26562 141.68 7.63281 141.68H5.64062ZM5.64062 148.512V153.105H8.85156C10.1016 153.105 10.8945 153.07 11.2305 153C11.7461 152.906 12.1641 152.68 12.4844 152.32C12.8125 151.953 12.9766 151.465 12.9766 150.855C12.9766 150.34 12.8516 149.902 12.6016 149.543C12.3516 149.184 11.9883 148.922 11.5117 148.758C11.043 148.594 10.0195 148.512 8.44141 148.512H5.64062ZM26.6875 152.039L29.9688 152.59C29.5469 153.793 28.8789 154.711 27.9648 155.344C27.0586 155.969 25.9219 156.281 24.5547 156.281C22.3906 156.281 20.7891 155.574 19.75 154.16C18.9297 153.027 18.5195 151.598 18.5195 149.871C18.5195 147.809 19.0586 146.195 20.1367 145.031C21.2148 143.859 22.5781 143.273 24.2266 143.273C26.0781 143.273 27.5391 143.887 28.6094 145.113C29.6797 146.332 30.1914 148.203 30.1445 150.727H21.8945C21.918 151.703 22.1836 152.465 22.6914 153.012C23.1992 153.551 23.832 153.82 24.5898 153.82C25.1055 153.82 25.5391 153.68 25.8906 153.398C26.2422 153.117 26.5078 152.664 26.6875 152.039ZM26.875 148.711C26.8516 147.758 26.6055 147.035 26.1367 146.543C25.668 146.043 25.0977 145.793 24.4258 145.793C23.707 145.793 23.1133 146.055 22.6445 146.578C22.1758 147.102 21.9453 147.812 21.9531 148.711H26.875ZM35.3008 147.352L32.3125 146.812C32.6484 145.609 33.2266 144.719 34.0469 144.141C34.8672 143.562 36.0859 143.273 37.7031 143.273C39.1719 143.273 40.2656 143.449 40.9844 143.801C41.7031 144.145 42.207 144.586 42.4961 145.125C42.793 145.656 42.9414 146.637 42.9414 148.066L42.9062 151.91C42.9062 153.004 42.957 153.812 43.0586 154.336C43.168 154.852 43.3672 155.406 43.6562 156H40.3984C40.3125 155.781 40.207 155.457 40.082 155.027C40.0273 154.832 39.9883 154.703 39.9648 154.641C39.4023 155.188 38.8008 155.598 38.1602 155.871C37.5195 156.145 36.8359 156.281 36.1094 156.281C34.8281 156.281 33.8164 155.934 33.0742 155.238C32.3398 154.543 31.9727 153.664 31.9727 152.602C31.9727 151.898 32.1406 151.273 32.4766 150.727C32.8125 150.172 33.2812 149.75 33.8828 149.461C34.4922 149.164 35.3672 148.906 36.5078 148.688C38.0469 148.398 39.1133 148.129 39.707 147.879V147.551C39.707 146.918 39.5508 146.469 39.2383 146.203C38.9258 145.93 38.3359 145.793 37.4688 145.793C36.8828 145.793 36.4258 145.91 36.0977 146.145C35.7695 146.371 35.5039 146.773 35.3008 147.352ZM39.707 150.023C39.2852 150.164 38.6172 150.332 37.7031 150.527C36.7891 150.723 36.1914 150.914 35.9102 151.102C35.4805 151.406 35.2656 151.793 35.2656 152.262C35.2656 152.723 35.4375 153.121 35.7812 153.457C36.125 153.793 36.5625 153.961 37.0938 153.961C37.6875 153.961 38.2539 153.766 38.793 153.375C39.1914 153.078 39.4531 152.715 39.5781 152.285C39.6641 152.004 39.707 151.469 39.707 150.68V150.023ZM57.5195 156H54.2266V149.648C54.2266 148.305 54.1562 147.438 54.0156 147.047C53.875 146.648 53.6445 146.34 53.3242 146.121C53.0117 145.902 52.6328 145.793 52.1875 145.793C51.6172 145.793 51.1055 145.949 50.6523 146.262C50.1992 146.574 49.8867 146.988 49.7148 147.504C49.5508 148.02 49.4688 148.973 49.4688 150.363V156H46.1758V143.555H49.2344V145.383C50.3203 143.977 51.6875 143.273 53.3359 143.273C54.0625 143.273 54.7266 143.406 55.3281 143.672C55.9297 143.93 56.3828 144.262 56.6875 144.668C57 145.074 57.2148 145.535 57.332 146.051C57.457 146.566 57.5195 147.305 57.5195 148.266V156ZM60.0156 150.41L63.3906 150.082C63.5938 151.215 64.0039 152.047 64.6211 152.578C65.2461 153.109 66.0859 153.375 67.1406 153.375C68.2578 153.375 69.0977 153.141 69.6602 152.672C70.2305 152.195 70.5156 151.641 70.5156 151.008C70.5156 150.602 70.3945 150.258 70.1523 149.977C69.918 149.688 69.5039 149.438 68.9102 149.227C68.5039 149.086 67.5781 148.836 66.1328 148.477C64.2734 148.016 62.9688 147.449 62.2188 146.777C61.1641 145.832 60.6367 144.68 60.6367 143.32C60.6367 142.445 60.8828 141.629 61.375 140.871C61.875 140.105 62.5898 139.523 63.5195 139.125C64.457 138.727 65.5859 138.527 66.9062 138.527C69.0625 138.527 70.6836 139 71.7695 139.945C72.8633 140.891 73.4375 142.152 73.4922 143.73L70.0234 143.883C69.875 143 69.5547 142.367 69.0625 141.984C68.5781 141.594 67.8477 141.398 66.8711 141.398C65.8633 141.398 65.0742 141.605 64.5039 142.02C64.1367 142.285 63.9531 142.641 63.9531 143.086C63.9531 143.492 64.125 143.84 64.4688 144.129C64.9062 144.496 65.9688 144.879 67.6562 145.277C69.3438 145.676 70.5898 146.09 71.3945 146.52C72.207 146.941 72.8398 147.523 73.293 148.266C73.7539 149 73.9844 149.91 73.9844 150.996C73.9844 151.98 73.7109 152.902 73.1641 153.762C72.6172 154.621 71.8438 155.262 70.8438 155.684C69.8438 156.098 68.5977 156.305 67.1055 156.305C64.9336 156.305 63.2656 155.805 62.1016 154.805C60.9375 153.797 60.2422 152.332 60.0156 150.41ZM79.3398 147.352L76.3516 146.812C76.6875 145.609 77.2656 144.719 78.0859 144.141C78.9062 143.562 80.125 143.273 81.7422 143.273C83.2109 143.273 84.3047 143.449 85.0234 143.801C85.7422 144.145 86.2461 144.586 86.5352 145.125C86.832 145.656 86.9805 146.637 86.9805 148.066L86.9453 151.91C86.9453 153.004 86.9961 153.812 87.0977 154.336C87.207 154.852 87.4062 155.406 87.6953 156H84.4375C84.3516 155.781 84.2461 155.457 84.1211 155.027C84.0664 154.832 84.0273 154.703 84.0039 154.641C83.4414 155.188 82.8398 155.598 82.1992 155.871C81.5586 156.145 80.875 156.281 80.1484 156.281C78.8672 156.281 77.8555 155.934 77.1133 155.238C76.3789 154.543 76.0117 153.664 76.0117 152.602C76.0117 151.898 76.1797 151.273 76.5156 150.727C76.8516 150.172 77.3203 149.75 77.9219 149.461C78.5312 149.164 79.4062 148.906 80.5469 148.688C82.0859 148.398 83.1523 148.129 83.7461 147.879V147.551C83.7461 146.918 83.5898 146.469 83.2773 146.203C82.9648 145.93 82.375 145.793 81.5078 145.793C80.9219 145.793 80.4648 145.91 80.1367 146.145C79.8086 146.371 79.543 146.773 79.3398 147.352ZM83.7461 150.023C83.3242 150.164 82.6562 150.332 81.7422 150.527C80.8281 150.723 80.2305 150.914 79.9492 151.102C79.5195 151.406 79.3047 151.793 79.3047 152.262C79.3047 152.723 79.4766 153.121 79.8203 153.457C80.1641 153.793 80.6016 153.961 81.1328 153.961C81.7266 153.961 82.293 153.766 82.832 153.375C83.2305 153.078 83.4922 152.715 83.6172 152.285C83.7031 152.004 83.7461 151.469 83.7461 150.68V150.023ZM93.6602 156L88.6445 143.555H92.1016L94.4453 149.906L95.125 152.027C95.3047 151.488 95.418 151.133 95.4648 150.961C95.5742 150.609 95.6914 150.258 95.8164 149.906L98.1836 143.555H101.57L96.625 156H93.6602ZM110.805 152.039L114.086 152.59C113.664 153.793 112.996 154.711 112.082 155.344C111.176 155.969 110.039 156.281 108.672 156.281C106.508 156.281 104.906 155.574 103.867 154.16C103.047 153.027 102.637 151.598 102.637 149.871C102.637 147.809 103.176 146.195 104.254 145.031C105.332 143.859 106.695 143.273 108.344 143.273C110.195 143.273 111.656 143.887 112.727 145.113C113.797 146.332 114.309 148.203 114.262 150.727H106.012C106.035 151.703 106.301 152.465 106.809 153.012C107.316 153.551 107.949 153.82 108.707 153.82C109.223 153.82 109.656 153.68 110.008 153.398C110.359 153.117 110.625 152.664 110.805 152.039ZM110.992 148.711C110.969 147.758 110.723 147.035 110.254 146.543C109.785 146.043 109.215 145.793 108.543 145.793C107.824 145.793 107.23 146.055 106.762 146.578C106.293 147.102 106.062 147.812 106.07 148.711H110.992ZM120.109 156H116.816V143.555H119.875V145.324C120.398 144.488 120.867 143.938 121.281 143.672C121.703 143.406 122.18 143.273 122.711 143.273C123.461 143.273 124.184 143.48 124.879 143.895L123.859 146.766C123.305 146.406 122.789 146.227 122.312 146.227C121.852 146.227 121.461 146.355 121.141 146.613C120.82 146.863 120.566 147.32 120.379 147.984C120.199 148.648 120.109 150.039 120.109 152.156V156Z" fill="#4A321F"/>
<path d="M13 72C6.33333 68.6667 6.33333 65.3333 13 62C19.6667 58.6667 19.6667 55.3333 13 52C6.33333 48.6667 6.33333 45.3333 13 42" fill="#8B5E3C"/>
<path d="M113 72C119.667 68.6667 119.667 65.3333 113 62C106.333 58.6667 106.333 55.3333 113 52C119.667 48.6667 119.667 45.3333 113 42" fill="#8B5E3C"/>
</svg>
