<svg width="402" height="71" viewBox="0 0 402 71" fill="none" xmlns="http://www.w3.org/2000/svg">
<path d="M0.75 0.25H44.55L66.45 17.95H22.65L0.75 0.25Z" fill="#2C5282"/>
<path d="M50.025 0.25H93.825L115.725 17.95H71.925L50.025 0.25Z" fill="#3182CE"/>
<path d="M0.75 22.375H44.55L66.45 40.075H22.65L0.75 22.375Z" fill="#3182CE"/>
<path d="M50.025 22.375H93.825L115.725 40.075H71.925L50.025 22.375Z" fill="#2C5282"/>
<path d="M135.689 46.02V11.6606H159.244V17.4731H142.627V25.606H156.97V31.4185H142.627V46.02H135.689ZM164.939 46.02V11.6606H171.525V46.02H164.939ZM176.775 33.2231C176.775 31.0356 177.314 28.9185 178.392 26.8716C179.47 24.8247 180.994 23.2622 182.963 22.1841C184.947 21.106 187.158 20.5669 189.595 20.5669C193.361 20.5669 196.447 21.7935 198.853 24.2466C201.259 26.6841 202.463 29.77 202.463 33.5044C202.463 37.27 201.244 40.395 198.806 42.8794C196.384 45.3481 193.33 46.5825 189.642 46.5825C187.361 46.5825 185.181 46.0669 183.103 45.0356C181.041 44.0044 179.47 42.4966 178.392 40.5122C177.314 38.5122 176.775 36.0825 176.775 33.2231ZM183.525 33.5747C183.525 36.0435 184.111 37.9341 185.283 39.2466C186.455 40.5591 187.9 41.2153 189.619 41.2153C191.338 41.2153 192.775 40.5591 193.931 39.2466C195.103 37.9341 195.689 36.0278 195.689 33.5278C195.689 31.0903 195.103 29.2153 193.931 27.9028C192.775 26.5903 191.338 25.9341 189.619 25.9341C187.9 25.9341 186.455 26.5903 185.283 27.9028C184.111 29.2153 183.525 31.106 183.525 33.5747ZM206.119 33.2231C206.119 31.0356 206.658 28.9185 207.736 26.8716C208.814 24.8247 210.338 23.2622 212.306 22.1841C214.291 21.106 216.502 20.5669 218.939 20.5669C222.705 20.5669 225.791 21.7935 228.197 24.2466C230.603 26.6841 231.806 29.77 231.806 33.5044C231.806 37.27 230.588 40.395 228.15 42.8794C225.728 45.3481 222.673 46.5825 218.986 46.5825C216.705 46.5825 214.525 46.0669 212.447 45.0356C210.384 44.0044 208.814 42.4966 207.736 40.5122C206.658 38.5122 206.119 36.0825 206.119 33.2231ZM212.869 33.5747C212.869 36.0435 213.455 37.9341 214.627 39.2466C215.798 40.5591 217.244 41.2153 218.963 41.2153C220.681 41.2153 222.119 40.5591 223.275 39.2466C224.447 37.9341 225.033 36.0278 225.033 33.5278C225.033 31.0903 224.447 29.2153 223.275 27.9028C222.119 26.5903 220.681 25.9341 218.963 25.9341C217.244 25.9341 215.798 26.5903 214.627 27.9028C213.455 29.2153 212.869 31.106 212.869 33.5747ZM243.291 46.02H236.705V21.1294H242.822V24.6685C243.869 22.9966 244.806 21.895 245.634 21.3638C246.478 20.8325 247.431 20.5669 248.494 20.5669C249.994 20.5669 251.439 20.981 252.83 21.8091L250.791 27.5513C249.681 26.8325 248.65 26.4731 247.697 26.4731C246.775 26.4731 245.994 26.731 245.353 27.2466C244.713 27.7466 244.205 28.6606 243.83 29.9888C243.47 31.3169 243.291 34.0981 243.291 38.3325V46.02Z" fill="#2C5282"/>
<path d="M277.72 33.3872L284.447 35.52C283.416 39.27 281.697 42.0591 279.291 43.8872C276.9 45.6997 273.861 46.606 270.173 46.606C265.611 46.606 261.861 45.0513 258.923 41.9419C255.986 38.8169 254.517 34.5513 254.517 29.145C254.517 23.4263 255.994 18.9888 258.947 15.8325C261.9 12.6606 265.783 11.0747 270.595 11.0747C274.798 11.0747 278.213 12.3169 280.838 14.8013C282.4 16.27 283.572 18.3794 284.353 21.1294L277.486 22.77C277.08 20.9888 276.228 19.5825 274.931 18.5513C273.65 17.52 272.088 17.0044 270.244 17.0044C267.697 17.0044 265.627 17.9185 264.033 19.7466C262.455 21.5747 261.666 24.5356 261.666 28.6294C261.666 32.9731 262.447 36.0669 264.009 37.9106C265.572 39.7544 267.603 40.6763 270.103 40.6763C271.947 40.6763 273.533 40.0903 274.861 38.9185C276.189 37.7466 277.142 35.9028 277.72 33.3872ZM296.681 46.02H290.095V21.1294H296.213V24.6685C297.259 22.9966 298.197 21.895 299.025 21.3638C299.869 20.8325 300.822 20.5669 301.884 20.5669C303.384 20.5669 304.83 20.981 306.22 21.8091L304.181 27.5513C303.072 26.8325 302.041 26.4731 301.088 26.4731C300.166 26.4731 299.384 26.731 298.744 27.2466C298.103 27.7466 297.595 28.6606 297.22 29.9888C296.861 31.3169 296.681 34.0981 296.681 38.3325V46.02ZM314.002 28.7231L308.025 27.645C308.697 25.2388 309.853 23.4575 311.494 22.3013C313.134 21.145 315.572 20.5669 318.806 20.5669C321.744 20.5669 323.931 20.9185 325.369 21.6216C326.806 22.3091 327.814 23.1919 328.392 24.27C328.986 25.3325 329.283 27.2935 329.283 30.1528L329.213 37.8403C329.213 40.0278 329.314 41.645 329.517 42.6919C329.736 43.7231 330.134 44.8325 330.713 46.02H324.197C324.025 45.5825 323.814 44.9341 323.564 44.0747C323.455 43.6841 323.377 43.4263 323.33 43.3013C322.205 44.395 321.002 45.2153 319.72 45.7622C318.439 46.3091 317.072 46.5825 315.619 46.5825C313.056 46.5825 311.033 45.8872 309.548 44.4966C308.08 43.106 307.345 41.3481 307.345 39.2231C307.345 37.8169 307.681 36.5669 308.353 35.4731C309.025 34.3638 309.963 33.52 311.166 32.9419C312.384 32.3481 314.134 31.8325 316.416 31.395C319.494 30.8169 321.627 30.2778 322.814 29.7778V29.1216C322.814 27.856 322.502 26.9575 321.877 26.4263C321.252 25.8794 320.072 25.606 318.338 25.606C317.166 25.606 316.252 25.8403 315.595 26.3091C314.939 26.7622 314.408 27.5669 314.002 28.7231ZM322.814 34.0669C321.97 34.3481 320.634 34.6841 318.806 35.0747C316.978 35.4653 315.783 35.8481 315.22 36.2231C314.361 36.8325 313.931 37.606 313.931 38.5435C313.931 39.4653 314.275 40.2622 314.963 40.9341C315.65 41.606 316.525 41.9419 317.588 41.9419C318.775 41.9419 319.908 41.5513 320.986 40.77C321.783 40.1763 322.306 39.4497 322.556 38.5903C322.728 38.0278 322.814 36.9575 322.814 35.3794V34.0669ZM332.916 21.1294H336.572V19.2544C336.572 17.1606 336.791 15.5981 337.228 14.5669C337.681 13.5356 338.502 12.6997 339.689 12.0591C340.892 11.4028 342.408 11.0747 344.236 11.0747C346.111 11.0747 347.947 11.356 349.744 11.9185L348.853 16.5122C347.806 16.2622 346.798 16.1372 345.83 16.1372C344.877 16.1372 344.189 16.3638 343.767 16.8169C343.361 17.2544 343.158 18.106 343.158 19.3716V21.1294H348.08V26.3091H343.158V46.02H336.572V26.3091H332.916V21.1294ZM363.197 21.1294V26.3794H358.697V36.4106C358.697 38.4419 358.736 39.6294 358.814 39.9731C358.908 40.3013 359.103 40.5747 359.4 40.7935C359.713 41.0122 360.088 41.1216 360.525 41.1216C361.134 41.1216 362.017 40.9106 363.173 40.4888L363.736 45.5981C362.205 46.2544 360.47 46.5825 358.533 46.5825C357.345 46.5825 356.275 46.3872 355.322 45.9966C354.369 45.5903 353.666 45.0747 353.213 44.4497C352.775 43.8091 352.47 42.9497 352.298 41.8716C352.158 41.106 352.088 39.5591 352.088 37.231V26.3794H349.064V21.1294H352.088V16.1841L358.697 12.3403V21.1294H363.197Z" fill="#3182CE"/>
<path d="M133.384 67.465V56.0118H137.33C138.22 56.0118 138.9 56.0665 139.369 56.1759C140.025 56.3269 140.585 56.6004 141.048 56.9962C141.653 57.5066 142.103 58.1603 142.4 58.9572C142.702 59.7488 142.853 60.6551 142.853 61.6759C142.853 62.5457 142.752 63.3165 142.548 63.9884C142.345 64.6603 142.085 65.2176 141.767 65.6603C141.45 66.0978 141.101 66.4441 140.72 66.6993C140.345 66.9493 139.89 67.1394 139.353 67.2697C138.822 67.3999 138.21 67.465 137.517 67.465H133.384ZM134.9 66.1134H137.345C138.101 66.1134 138.692 66.0431 139.119 65.9025C139.551 65.7618 139.895 65.5639 140.15 65.3087C140.509 64.9493 140.788 64.4676 140.986 63.8634C141.189 63.254 141.291 62.517 141.291 61.6525C141.291 60.4545 141.093 59.5353 140.697 58.8947C140.306 58.2488 139.83 57.8165 139.267 57.5978C138.861 57.4415 138.207 57.3634 137.306 57.3634H134.9V66.1134ZM150.447 64.7931L151.9 64.9728C151.671 65.8217 151.246 66.4806 150.627 66.9493C150.007 67.4181 149.215 67.6525 148.252 67.6525C147.038 67.6525 146.075 67.2801 145.361 66.5353C144.653 65.7853 144.298 64.7358 144.298 63.3868C144.298 61.991 144.658 60.9077 145.377 60.1368C146.095 59.366 147.028 58.9806 148.173 58.9806C149.283 58.9806 150.189 59.3582 150.892 60.1134C151.595 60.8686 151.947 61.9311 151.947 63.3009C151.947 63.3842 151.944 63.5092 151.939 63.6759H145.752C145.804 64.5874 146.061 65.2853 146.525 65.7697C146.989 66.254 147.567 66.4962 148.259 66.4962C148.775 66.4962 149.215 66.3608 149.58 66.09C149.944 65.8191 150.233 65.3868 150.447 64.7931ZM145.83 62.5197H150.463C150.4 61.8217 150.223 61.2983 149.931 60.9493C149.483 60.4077 148.903 60.1368 148.189 60.1368C147.543 60.1368 146.999 60.353 146.556 60.7853C146.119 61.2176 145.877 61.7957 145.83 62.5197ZM153.111 64.9884L154.502 64.7697C154.58 65.3269 154.796 65.754 155.15 66.0509C155.509 66.3478 156.009 66.4962 156.65 66.4962C157.296 66.4962 157.775 66.366 158.088 66.1056C158.4 65.84 158.556 65.5301 158.556 65.1759C158.556 64.8582 158.418 64.6082 158.142 64.4259C157.95 64.3009 157.47 64.142 156.705 63.9493C155.673 63.6889 154.957 63.465 154.556 63.2775C154.16 63.0848 153.858 62.8217 153.65 62.4884C153.447 62.1499 153.345 61.7775 153.345 61.3712C153.345 61.0014 153.429 60.6603 153.595 60.3478C153.767 60.0301 153.999 59.767 154.291 59.5587C154.509 59.3973 154.806 59.2618 155.181 59.1525C155.561 59.0379 155.968 58.9806 156.4 58.9806C157.051 58.9806 157.621 59.0743 158.111 59.2618C158.606 59.4493 158.97 59.7045 159.205 60.0275C159.439 60.3452 159.601 60.7723 159.689 61.3087L158.314 61.4962C158.252 61.0691 158.069 60.7358 157.767 60.4962C157.47 60.2566 157.048 60.1368 156.502 60.1368C155.856 60.1368 155.395 60.2436 155.119 60.4572C154.843 60.6707 154.705 60.9207 154.705 61.2072C154.705 61.3894 154.762 61.5535 154.877 61.6993C154.991 61.8504 155.171 61.9754 155.416 62.0743C155.556 62.1264 155.97 62.2462 156.658 62.4337C157.653 62.6993 158.345 62.9181 158.736 63.09C159.132 63.2566 159.442 63.5014 159.666 63.8243C159.89 64.1473 160.002 64.5483 160.002 65.0275C160.002 65.4962 159.864 65.9389 159.588 66.3556C159.317 66.767 158.923 67.0874 158.408 67.3165C157.892 67.5405 157.309 67.6525 156.658 67.6525C155.58 67.6525 154.757 67.4285 154.189 66.9806C153.627 66.5327 153.267 65.8686 153.111 64.9884ZM161.681 57.629V56.0118H163.088V57.629H161.681ZM161.681 67.465V59.1681H163.088V67.465H161.681ZM164.978 68.1525L166.345 68.3556C166.403 68.7775 166.561 69.0848 166.822 69.2775C167.171 69.5379 167.647 69.6681 168.252 69.6681C168.903 69.6681 169.405 69.5379 169.759 69.2775C170.114 69.017 170.353 68.6525 170.478 68.1837C170.551 67.8973 170.585 67.2957 170.58 66.379C169.965 67.103 169.2 67.465 168.283 67.465C167.142 67.465 166.259 67.0535 165.634 66.2306C165.009 65.4077 164.697 64.4207 164.697 63.2697C164.697 62.478 164.84 61.7488 165.127 61.0822C165.413 60.4103 165.827 59.892 166.369 59.5275C166.916 59.1629 167.556 58.9806 168.291 58.9806C169.27 58.9806 170.077 59.3764 170.713 60.1681V59.1681H172.009V66.34C172.009 67.6316 171.877 68.5457 171.611 69.0822C171.351 69.6238 170.934 70.0509 170.361 70.3634C169.793 70.6759 169.093 70.8322 168.259 70.8322C167.27 70.8322 166.47 70.6082 165.861 70.1603C165.252 69.7176 164.957 69.0483 164.978 68.1525ZM166.142 63.1681C166.142 64.2566 166.358 65.0509 166.791 65.5509C167.223 66.0509 167.765 66.3009 168.416 66.3009C169.061 66.3009 169.603 66.0535 170.041 65.5587C170.478 65.0587 170.697 64.2775 170.697 63.215C170.697 62.1993 170.47 61.4337 170.017 60.9181C169.569 60.4025 169.028 60.1447 168.392 60.1447C167.767 60.1447 167.236 60.3999 166.798 60.9103C166.361 61.4155 166.142 62.1681 166.142 63.1681ZM174.142 67.465V59.1681H175.408V60.3478C176.017 59.4363 176.897 58.9806 178.048 58.9806C178.548 58.9806 179.007 59.0717 179.423 59.254C179.845 59.4311 180.16 59.6655 180.369 59.9572C180.577 60.2488 180.723 60.5952 180.806 60.9962C180.858 61.2566 180.884 61.7124 180.884 62.3634V67.465H179.478V62.4181C179.478 61.8452 179.423 61.4181 179.314 61.1368C179.205 60.8504 179.009 60.6238 178.728 60.4572C178.452 60.2853 178.127 60.1993 177.752 60.1993C177.153 60.1993 176.634 60.3894 176.197 60.7697C175.765 61.1499 175.548 61.8712 175.548 62.9337V67.465H174.142ZM187.298 61.8556C187.298 61.3087 187.491 60.8426 187.877 60.4572C188.267 60.0717 188.733 59.879 189.275 59.879C189.822 59.879 190.288 60.0717 190.673 60.4572C191.064 60.8426 191.259 61.3087 191.259 61.8556C191.259 62.4025 191.064 62.8712 190.673 63.2618C190.288 63.6473 189.822 63.84 189.275 63.84C188.733 63.84 188.267 63.6473 187.877 63.2618C187.491 62.8712 187.298 62.4025 187.298 61.8556ZM206.423 66.2384C207.127 66.7228 207.775 67.0769 208.369 67.3009L207.923 68.3556C207.101 68.0587 206.28 67.59 205.463 66.9493C204.614 67.4233 203.676 67.6603 202.65 67.6603C201.614 67.6603 200.673 67.4103 199.83 66.9103C198.986 66.4103 198.335 65.7072 197.877 64.8009C197.423 63.8947 197.197 62.8738 197.197 61.7384C197.197 60.6082 197.426 59.5795 197.884 58.6525C198.343 57.7254 198.994 57.0197 199.838 56.5353C200.686 56.0509 201.634 55.8087 202.681 55.8087C203.739 55.8087 204.692 56.0613 205.541 56.5665C206.39 57.0665 207.035 57.7697 207.478 58.6759C207.926 59.5769 208.15 60.5952 208.15 61.7306C208.15 62.6733 208.007 63.5223 207.72 64.2775C207.434 65.0275 207.002 65.6811 206.423 66.2384ZM203.088 64.3009C203.963 64.5457 204.684 64.9103 205.252 65.3947C206.142 64.5822 206.588 63.3608 206.588 61.7306C206.588 60.8035 206.429 59.9936 206.111 59.3009C205.798 58.6082 205.338 58.0717 204.728 57.6915C204.124 57.3061 203.444 57.1134 202.689 57.1134C201.559 57.1134 200.621 57.5014 199.877 58.2775C199.132 59.0483 198.759 60.2019 198.759 61.7384C198.759 63.228 199.127 64.3712 199.861 65.1681C200.601 65.965 201.543 66.3634 202.689 66.3634C203.231 66.3634 203.741 66.2618 204.22 66.0587C203.746 65.7514 203.246 65.5327 202.72 65.4025L203.088 64.3009ZM215.455 67.465V66.2462C214.809 67.1837 213.931 67.6525 212.822 67.6525C212.332 67.6525 211.874 67.5587 211.447 67.3712C211.025 67.1837 210.71 66.9493 210.502 66.6681C210.298 66.3816 210.155 66.0327 210.072 65.6212C210.015 65.3452 209.986 64.9077 209.986 64.3087V59.1681H211.392V63.7697C211.392 64.504 211.421 64.9988 211.478 65.254C211.567 65.6238 211.754 65.9155 212.041 66.129C212.327 66.3374 212.681 66.4415 213.103 66.4415C213.525 66.4415 213.921 66.3348 214.291 66.1212C214.66 65.9025 214.921 65.6082 215.072 65.2384C215.228 64.8634 215.306 64.3217 215.306 63.6134V59.1681H216.713V67.465H215.455ZM224.338 66.4415C223.817 66.8842 223.314 67.1967 222.83 67.379C222.351 67.5613 221.835 67.6525 221.283 67.6525C220.371 67.6525 219.671 67.4311 219.181 66.9884C218.692 66.5405 218.447 65.9702 218.447 65.2775C218.447 64.8712 218.538 64.5014 218.72 64.1681C218.908 63.8295 219.15 63.5587 219.447 63.3556C219.749 63.1525 220.088 62.9988 220.463 62.8947C220.739 62.8217 221.155 62.7514 221.713 62.6837C222.848 62.5483 223.684 62.3868 224.22 62.1993C224.226 62.0066 224.228 61.8842 224.228 61.8322C224.228 61.2592 224.095 60.8556 223.83 60.6212C223.47 60.3035 222.936 60.1447 222.228 60.1447C221.567 60.1447 221.077 60.2618 220.759 60.4962C220.447 60.7254 220.215 61.1342 220.064 61.7228L218.689 61.5353C218.814 60.9467 219.02 60.4728 219.306 60.1134C219.593 59.7488 220.007 59.4702 220.548 59.2775C221.09 59.0795 221.718 58.9806 222.431 58.9806C223.14 58.9806 223.715 59.0639 224.158 59.2306C224.601 59.3973 224.926 59.6082 225.134 59.8634C225.343 60.1134 225.489 60.4311 225.572 60.8165C225.619 61.0561 225.642 61.4884 225.642 62.1134V63.9884C225.642 65.2957 225.671 66.1238 225.728 66.4728C225.791 66.8165 225.91 67.1473 226.088 67.465H224.619C224.473 67.1733 224.379 66.8322 224.338 66.4415ZM224.22 63.3009C223.71 63.5092 222.944 63.6863 221.923 63.8322C221.345 63.9155 220.936 64.0092 220.697 64.1134C220.457 64.2176 220.272 64.3712 220.142 64.5743C220.012 64.7723 219.947 64.9936 219.947 65.2384C219.947 65.6134 220.088 65.9259 220.369 66.1759C220.655 66.4259 221.072 66.5509 221.619 66.5509C222.16 66.5509 222.642 66.4337 223.064 66.1993C223.486 65.9598 223.796 65.6342 223.994 65.2228C224.145 64.9051 224.22 64.4363 224.22 63.8165V63.3009ZM227.798 67.465V56.0118H229.205V67.465H227.798ZM231.4 57.629V56.0118H232.806V57.629H231.4ZM231.4 67.465V59.1681H232.806V67.465H231.4ZM238.025 66.2072L238.228 67.4493C237.832 67.5327 237.478 67.5743 237.166 67.5743C236.655 67.5743 236.259 67.4936 235.978 67.3322C235.697 67.1707 235.499 66.9598 235.384 66.6993C235.27 66.4337 235.213 65.879 235.213 65.0353V60.2618H234.181V59.1681H235.213V57.1134L236.611 56.2697V59.1681H238.025V60.2618H236.611V65.1134C236.611 65.5144 236.634 65.7723 236.681 65.8868C236.733 66.0014 236.814 66.0926 236.923 66.1603C237.038 66.228 237.2 66.2618 237.408 66.2618C237.564 66.2618 237.77 66.2436 238.025 66.2072ZM239.345 70.6603L239.189 69.34C239.496 69.4233 239.765 69.465 239.994 69.465C240.306 69.465 240.556 69.4129 240.744 69.3087C240.931 69.2045 241.085 69.0587 241.205 68.8712C241.293 68.7306 241.436 68.3816 241.634 67.8243C241.66 67.7462 241.702 67.6316 241.759 67.4806L238.611 59.1681H240.127L241.853 63.9728C242.077 64.5822 242.278 65.2228 242.455 65.8947C242.616 65.2488 242.809 64.6186 243.033 64.004L244.806 59.1681H246.213L243.056 67.6056C242.718 68.517 242.455 69.1447 242.267 69.4884C242.017 69.9519 241.731 70.2905 241.408 70.504C241.085 70.7228 240.7 70.8322 240.252 70.8322C239.981 70.8322 239.679 70.7749 239.345 70.6603ZM251.658 61.8556C251.658 61.3087 251.851 60.8426 252.236 60.4572C252.627 60.0717 253.093 59.879 253.634 59.879C254.181 59.879 254.647 60.0717 255.033 60.4572C255.423 60.8426 255.619 61.3087 255.619 61.8556C255.619 62.4025 255.423 62.8712 255.033 63.2618C254.647 63.6473 254.181 63.84 253.634 63.84C253.093 63.84 252.627 63.6473 252.236 63.2618C251.851 62.8712 251.658 62.4025 251.658 61.8556ZM261.588 63.7853L263.017 63.6603C263.085 64.2332 263.241 64.7045 263.486 65.0743C263.736 65.4389 264.121 65.7358 264.642 65.965C265.163 66.1889 265.749 66.3009 266.4 66.3009C266.978 66.3009 267.489 66.215 267.931 66.0431C268.374 65.8712 268.702 65.6368 268.916 65.34C269.134 65.0379 269.244 64.7098 269.244 64.3556C269.244 63.9962 269.14 63.6837 268.931 63.4181C268.723 63.1473 268.379 62.9207 267.9 62.7384C267.593 62.6186 266.913 62.4337 265.861 62.1837C264.809 61.9285 264.072 61.6889 263.65 61.465C263.103 61.1785 262.694 60.8243 262.423 60.4025C262.158 59.9754 262.025 59.4988 262.025 58.9728C262.025 58.3947 262.189 57.8556 262.517 57.3556C262.845 56.8504 263.325 56.4676 263.955 56.2072C264.585 55.9467 265.285 55.8165 266.056 55.8165C266.905 55.8165 267.653 55.9545 268.298 56.2306C268.95 56.5014 269.45 56.9025 269.798 57.4337C270.147 57.965 270.335 58.5665 270.361 59.2384L268.908 59.3478C268.83 58.6238 268.564 58.0769 268.111 57.7072C267.663 57.3374 266.999 57.1525 266.119 57.1525C265.202 57.1525 264.533 57.3217 264.111 57.6603C263.694 57.9936 263.486 58.3973 263.486 58.8712C263.486 59.2827 263.634 59.6212 263.931 59.8868C264.223 60.1525 264.983 60.4259 266.213 60.7072C267.447 60.9832 268.293 61.2254 268.752 61.4337C269.418 61.741 269.91 62.1316 270.228 62.6056C270.546 63.0743 270.705 63.616 270.705 64.2306C270.705 64.84 270.53 65.4155 270.181 65.9572C269.832 66.4936 269.33 66.9129 268.673 67.215C268.022 67.5118 267.288 67.6603 266.47 67.6603C265.434 67.6603 264.564 67.5092 263.861 67.2072C263.163 66.9051 262.614 66.4519 262.213 65.8478C261.817 65.2384 261.608 64.5509 261.588 63.7853ZM275.666 66.2072L275.869 67.4493C275.473 67.5327 275.119 67.5743 274.806 67.5743C274.296 67.5743 273.9 67.4936 273.619 67.3322C273.338 67.1707 273.14 66.9598 273.025 66.6993C272.91 66.4337 272.853 65.879 272.853 65.0353V60.2618H271.822V59.1681H272.853V57.1134L274.252 56.2697V59.1681H275.666V60.2618H274.252V65.1134C274.252 65.5144 274.275 65.7723 274.322 65.8868C274.374 66.0014 274.455 66.0926 274.564 66.1603C274.679 66.228 274.84 66.2618 275.048 66.2618C275.205 66.2618 275.41 66.2436 275.666 66.2072ZM276.986 70.6603L276.83 69.34C277.137 69.4233 277.405 69.465 277.634 69.465C277.947 69.465 278.197 69.4129 278.384 69.3087C278.572 69.2045 278.726 69.0587 278.845 68.8712C278.934 68.7306 279.077 68.3816 279.275 67.8243C279.301 67.7462 279.343 67.6316 279.4 67.4806L276.252 59.1681H277.767L279.494 63.9728C279.718 64.5822 279.918 65.2228 280.095 65.8947C280.257 65.2488 280.45 64.6186 280.673 64.004L282.447 59.1681H283.853L280.697 67.6056C280.358 68.517 280.095 69.1447 279.908 69.4884C279.658 69.9519 279.371 70.2905 279.048 70.504C278.726 70.7228 278.34 70.8322 277.892 70.8322C277.621 70.8322 277.319 70.7749 276.986 70.6603ZM285.017 67.465V56.0118H286.423V67.465H285.017ZM294.291 64.7931L295.744 64.9728C295.515 65.8217 295.09 66.4806 294.47 66.9493C293.851 67.4181 293.059 67.6525 292.095 67.6525C290.882 67.6525 289.918 67.2801 289.205 66.5353C288.496 65.7853 288.142 64.7358 288.142 63.3868C288.142 61.991 288.502 60.9077 289.22 60.1368C289.939 59.366 290.871 58.9806 292.017 58.9806C293.127 58.9806 294.033 59.3582 294.736 60.1134C295.439 60.8686 295.791 61.9311 295.791 63.3009C295.791 63.3842 295.788 63.5092 295.783 63.6759H289.595C289.647 64.5874 289.905 65.2853 290.369 65.7697C290.832 66.254 291.41 66.4962 292.103 66.4962C292.619 66.4962 293.059 66.3608 293.423 66.09C293.788 65.8191 294.077 65.3868 294.291 64.7931ZM289.673 62.5197H294.306C294.244 61.8217 294.067 61.2983 293.775 60.9493C293.327 60.4077 292.746 60.1368 292.033 60.1368C291.387 60.1368 290.843 60.353 290.4 60.7853C289.963 61.2176 289.72 61.7957 289.673 62.5197Z" fill="#718096"/>
</svg>
