<svg width="136" height="110" viewBox="0 0 136 110" fill="none" xmlns="http://www.w3.org/2000/svg">
<path opacity="0.9" d="M13 8H33L38 88H28L23 108H43L38 88H8L13 8Z" fill="#FF6B6B"/>
<path opacity="0.9" d="M53 8H73L78 88H68L63 108H83L78 88H48L53 8Z" fill="#4ECDC4"/>
<path opacity="0.1" d="M43 63C51.2843 63 58 56.2843 58 48C58 39.7157 51.2843 33 43 33C34.7157 33 28 39.7157 28 48C28 56.2843 34.7157 63 43 63Z" fill="#2C3E50"/>
<path d="M28 28L30 26L32 28L30 30L28 28Z" fill="#2C3E50"/>
<path d="M58 33L60 31L62 33L60 35L58 33Z" fill="#2C3E50"/>
<path d="M46.8359 39.0078C48.5391 39.0078 49.9219 38.8203 50.9844 38.4453C53 37.7266 54.0078 36.3906 54.0078 34.4375C54.0078 33.2969 53.5078 32.4141 52.5078 31.7891C51.5078 31.1797 49.9375 30.6406 47.7969 30.1719L44.1406 29.3516C40.5469 28.5391 38.0625 27.6562 36.6875 26.7031C34.3594 25.1094 33.1953 22.6172 33.1953 19.2266C33.1953 16.1328 34.3203 13.5625 36.5703 11.5156C38.8203 9.46875 42.125 8.44531 46.4844 8.44531C50.125 8.44531 53.2266 9.41406 55.7891 11.3516C58.3672 13.2734 59.7188 16.0703 59.8438 19.7422H52.9062C52.7812 17.6641 51.875 16.1875 50.1875 15.3125C49.0625 14.7344 47.6641 14.4453 45.9922 14.4453C44.1328 14.4453 42.6484 14.8203 41.5391 15.5703C40.4297 16.3203 39.875 17.3672 39.875 18.7109C39.875 19.9453 40.4219 20.8672 41.5156 21.4766C42.2188 21.8828 43.7188 22.3594 46.0156 22.9062L51.9688 24.3359C54.5781 24.9609 56.5469 25.7969 57.875 26.8438C59.9375 28.4688 60.9688 30.8203 60.9688 33.8984C60.9688 37.0547 59.7578 39.6797 57.3359 41.7734C54.9297 43.8516 51.5234 44.8906 47.1172 44.8906C42.6172 44.8906 39.0781 43.8672 36.5 41.8203C33.9219 39.7578 32.6328 36.9297 32.6328 33.3359H39.5234C39.7422 34.9141 40.1719 36.0938 40.8125 36.875C41.9844 38.2969 43.9922 39.0078 46.8359 39.0078ZM72.6406 18.4531V44H65.8672V18.4531H72.6406ZM72.6406 9.24219V15.4062H65.8672V9.24219H72.6406ZM100.531 21.1953C102.594 23.3984 103.625 26.6328 103.625 30.8984C103.625 35.3984 102.609 38.8281 100.578 41.1875C98.5625 43.5469 95.9609 44.7266 92.7734 44.7266C90.7422 44.7266 89.0547 44.2188 87.7109 43.2031C86.9766 42.6406 86.2578 41.8203 85.5547 40.7422V54.0547H78.9453V18.4531H85.3438V22.2266C86.0625 21.1172 86.8281 20.2422 87.6406 19.6016C89.125 18.4609 90.8906 17.8906 92.9375 17.8906C95.9219 17.8906 98.4531 18.9922 100.531 21.1953ZM96.7344 31.2266C96.7344 29.2578 96.2812 27.5156 95.375 26C94.4844 24.4844 93.0312 23.7266 91.0156 23.7266C88.5938 23.7266 86.9297 24.875 86.0234 27.1719C85.5547 28.3906 85.3203 29.9375 85.3203 31.8125C85.3203 34.7812 86.1094 36.8672 87.6875 38.0703C88.625 38.7734 89.7344 39.125 91.0156 39.125C92.875 39.125 94.2891 38.4062 95.2578 36.9688C96.2422 35.5312 96.7344 33.6172 96.7344 31.2266Z" fill="#2C3E50"/>
<path d="M13.1895 86.0479C14.5378 86.0479 15.6325 85.8994 16.4736 85.6025C18.0693 85.0335 18.8672 83.9759 18.8672 82.4297C18.8672 81.5267 18.4714 80.8278 17.6797 80.333C16.888 79.8506 15.6449 79.4238 13.9502 79.0527L11.0557 78.4033C8.21061 77.7601 6.24382 77.0612 5.15527 76.3066C3.31217 75.0449 2.39062 73.0719 2.39062 70.3877C2.39062 67.9385 3.28125 65.9036 5.0625 64.2832C6.84375 62.6628 9.45996 61.8525 12.9111 61.8525C15.7933 61.8525 18.2487 62.6195 20.2773 64.1533C22.3184 65.6748 23.3883 67.889 23.4873 70.7959H17.9951C17.8962 69.1507 17.1787 67.9818 15.8428 67.2891C14.9521 66.8314 13.8451 66.6025 12.5215 66.6025C11.0495 66.6025 9.87435 66.8994 8.99609 67.4932C8.11784 68.0869 7.67871 68.9157 7.67871 69.9795C7.67871 70.9567 8.11165 71.6865 8.97754 72.1689C9.53418 72.4906 10.7217 72.8678 12.54 73.3008L17.2529 74.4326C19.3187 74.9274 20.8773 75.5892 21.9287 76.418C23.5615 77.7044 24.3779 79.5661 24.3779 82.0029C24.3779 84.5016 23.4193 86.5798 21.502 88.2373C19.597 89.8825 16.9004 90.7051 13.4121 90.7051C9.84961 90.7051 7.04785 89.8949 5.00684 88.2744C2.96582 86.6416 1.94531 84.4027 1.94531 81.5576H7.40039C7.57357 82.807 7.91374 83.7409 8.4209 84.3594C9.34863 85.485 10.9382 86.0479 13.1895 86.0479ZM45.0479 72.3359C46.7549 74.4759 47.6084 77.0055 47.6084 79.9248C47.6084 82.8936 46.7549 85.4355 45.0479 87.5508C43.3408 89.6536 40.7493 90.7051 37.2734 90.7051C33.7975 90.7051 31.2061 89.6536 29.499 87.5508C27.792 85.4355 26.9385 82.8936 26.9385 79.9248C26.9385 77.0055 27.792 74.4759 29.499 72.3359C31.2061 70.196 33.7975 69.126 37.2734 69.126C40.7493 69.126 43.3408 70.196 45.0479 72.3359ZM37.2549 73.5977C35.7087 73.5977 34.515 74.1481 33.6738 75.249C32.8451 76.3376 32.4307 77.8962 32.4307 79.9248C32.4307 81.9535 32.8451 83.5182 33.6738 84.6191C34.515 85.7201 35.7087 86.2705 37.2549 86.2705C38.8011 86.2705 39.9886 85.7201 40.8174 84.6191C41.6462 83.5182 42.0605 81.9535 42.0605 79.9248C42.0605 77.8962 41.6462 76.3376 40.8174 75.249C39.9886 74.1481 38.8011 73.5977 37.2549 73.5977ZM68.9092 77.0303H63.4912C63.3923 76.2757 63.1387 75.5954 62.7305 74.9893C62.1367 74.1729 61.2152 73.7646 59.9658 73.7646C58.1846 73.7646 56.9661 74.6491 56.3105 76.418C55.9642 77.3581 55.791 78.6074 55.791 80.166C55.791 81.6504 55.9642 82.8441 56.3105 83.7471C56.9414 85.4294 58.1289 86.2705 59.873 86.2705C61.11 86.2705 61.9883 85.9365 62.5078 85.2686C63.0273 84.6006 63.3428 83.7347 63.4541 82.6709H68.8535C68.7298 84.279 68.1484 85.8005 67.1094 87.2354C65.4518 89.5485 62.9964 90.7051 59.7432 90.7051C56.4899 90.7051 54.0964 89.7402 52.5625 87.8105C51.0286 85.8809 50.2617 83.376 50.2617 80.2959C50.2617 76.82 51.109 74.1172 52.8037 72.1875C54.4984 70.2578 56.8363 69.293 59.8174 69.293C62.3532 69.293 64.4251 69.862 66.0332 71C67.6536 72.138 68.6123 74.1481 68.9092 77.0303ZM78.001 69.7754V90H72.6387V69.7754H78.001ZM78.001 62.4834V67.3633H72.6387V62.4834H78.001ZM100.452 84.0625C100.316 85.2624 99.6914 86.4808 98.5781 87.7178C96.8464 89.6846 94.4219 90.668 91.3047 90.668C88.7318 90.668 86.4619 89.8392 84.4951 88.1816C82.5283 86.5241 81.5449 83.8275 81.5449 80.0918C81.5449 76.5911 82.4294 73.9069 84.1982 72.0391C85.9795 70.1712 88.2865 69.2373 91.1191 69.2373C92.8014 69.2373 94.3167 69.5527 95.665 70.1836C97.0133 70.8145 98.1266 71.8102 99.0049 73.1709C99.7965 74.3708 100.31 75.7624 100.545 77.3457C100.681 78.2734 100.737 79.6094 100.712 81.3535H86.8701C86.9443 83.3822 87.5814 84.8047 88.7812 85.6211C89.5111 86.1283 90.3893 86.3818 91.416 86.3818C92.5046 86.3818 93.389 86.0726 94.0693 85.4541C94.4404 85.1201 94.7682 84.6562 95.0527 84.0625H100.452ZM95.2197 77.8652C95.1331 76.4674 94.7064 75.4098 93.9395 74.6924C93.1849 73.9626 92.2448 73.5977 91.1191 73.5977C89.8945 73.5977 88.9421 73.9811 88.2617 74.748C87.5938 75.515 87.1732 76.554 87 77.8652H95.2197ZM113.552 86.2334V90.1855L111.047 90.2783C108.548 90.3649 106.841 89.932 105.926 88.9795C105.332 88.3734 105.035 87.4395 105.035 86.1777V73.7275H102.215V69.9609H105.035V64.3203H110.268V69.9609H113.552V73.7275H110.268V84.415C110.268 85.2438 110.373 85.7633 110.583 85.9736C110.793 86.1715 111.437 86.2705 112.513 86.2705C112.674 86.2705 112.84 86.2705 113.014 86.2705C113.199 86.2581 113.379 86.2458 113.552 86.2334ZM125.167 84.6934L129.342 69.7754H134.964L128.024 89.666C126.688 93.5007 125.631 95.8757 124.852 96.791C124.072 97.7188 122.514 98.1826 120.176 98.1826C119.706 98.1826 119.328 98.1764 119.044 98.1641C118.759 98.1641 118.333 98.1455 117.764 98.1084V93.8779L118.432 93.915C118.951 93.9398 119.446 93.9212 119.916 93.8594C120.386 93.7975 120.782 93.6553 121.104 93.4326C121.413 93.2223 121.697 92.7832 121.957 92.1152C122.229 91.4473 122.34 91.0391 122.291 90.8906L114.869 69.7754H120.751L125.167 84.6934Z" fill="#2C3E50"/>
<path d="M41.3223 98.3926H47.5977V99.4473H42.459V102.061H47.2109V103.057H42.459V105.975H47.6855V107H41.3223V98.3926ZM49.9766 104.223C50.0039 104.711 50.1191 105.107 50.3223 105.412C50.709 105.982 51.3906 106.268 52.3672 106.268C52.8047 106.268 53.2031 106.205 53.5625 106.08C54.2578 105.838 54.6055 105.404 54.6055 104.779C54.6055 104.311 54.459 103.977 54.166 103.777C53.8691 103.582 53.4043 103.412 52.7715 103.268L51.6055 103.004C50.8438 102.832 50.3047 102.643 49.9883 102.436C49.4414 102.076 49.168 101.539 49.168 100.824C49.168 100.051 49.4355 99.416 49.9707 98.9199C50.5059 98.4238 51.2637 98.1758 52.2441 98.1758C53.1465 98.1758 53.9121 98.3945 54.541 98.832C55.1738 99.2656 55.4902 99.9609 55.4902 100.918H54.3945C54.3359 100.457 54.2109 100.104 54.0195 99.8574C53.6641 99.4082 53.0605 99.1836 52.209 99.1836C51.5215 99.1836 51.0273 99.3281 50.7266 99.6172C50.4258 99.9062 50.2754 100.242 50.2754 100.625C50.2754 101.047 50.4512 101.355 50.8027 101.551C51.0332 101.676 51.5547 101.832 52.3672 102.02L53.5742 102.295C54.1562 102.428 54.6055 102.609 54.9219 102.84C55.4688 103.242 55.7422 103.826 55.7422 104.592C55.7422 105.545 55.3945 106.227 54.6992 106.637C54.0078 107.047 53.2031 107.252 52.2852 107.252C51.2148 107.252 50.377 106.979 49.7715 106.432C49.166 105.889 48.8691 105.152 48.8809 104.223H49.9766ZM63.4824 98.3926V99.418H60.582V107H59.3984V99.418H56.498V98.3926H63.4824ZM63.3301 105.723H64.5547V107H63.3301V105.723ZM70.1328 101.059V100.25C70.8945 100.176 71.4258 100.053 71.7266 99.8809C72.0273 99.7051 72.252 99.293 72.4004 98.6445H73.2324V107H72.1074V101.059H70.1328ZM77.2578 104.973C77.2891 105.555 77.5137 105.957 77.9316 106.18C78.1465 106.297 78.3887 106.355 78.6582 106.355C79.1621 106.355 79.5918 106.146 79.9473 105.729C80.3027 105.307 80.5547 104.453 80.7031 103.168C80.4688 103.539 80.1777 103.801 79.8301 103.953C79.4863 104.102 79.1152 104.176 78.7168 104.176C77.9082 104.176 77.2676 103.924 76.7949 103.42C76.3262 102.916 76.0918 102.268 76.0918 101.475C76.0918 100.713 76.3242 100.043 76.7891 99.4648C77.2539 98.8867 77.9395 98.5977 78.8457 98.5977C80.0684 98.5977 80.9121 99.1484 81.377 100.25C81.6348 100.855 81.7637 101.613 81.7637 102.523C81.7637 103.551 81.6094 104.461 81.3008 105.254C80.7891 106.574 79.9219 107.234 78.6992 107.234C77.8789 107.234 77.2559 107.02 76.8301 106.59C76.4043 106.16 76.1914 105.621 76.1914 104.973H77.2578ZM78.8574 103.25C79.2754 103.25 79.6562 103.113 80 102.84C80.3477 102.562 80.5215 102.08 80.5215 101.393C80.5215 100.775 80.3652 100.316 80.0527 100.016C79.7441 99.7109 79.3496 99.5586 78.8691 99.5586C78.3535 99.5586 77.9434 99.7324 77.6387 100.08C77.3379 100.424 77.1875 100.885 77.1875 101.463C77.1875 102.01 77.3203 102.445 77.5859 102.77C77.8516 103.09 78.2754 103.25 78.8574 103.25ZM83.9375 104.973C83.9688 105.555 84.1934 105.957 84.6113 106.18C84.8262 106.297 85.0684 106.355 85.3379 106.355C85.8418 106.355 86.2715 106.146 86.627 105.729C86.9824 105.307 87.2344 104.453 87.3828 103.168C87.1484 103.539 86.8574 103.801 86.5098 103.953C86.166 104.102 85.7949 104.176 85.3965 104.176C84.5879 104.176 83.9473 103.924 83.4746 103.42C83.0059 102.916 82.7715 102.268 82.7715 101.475C82.7715 100.713 83.0039 100.043 83.4688 99.4648C83.9336 98.8867 84.6191 98.5977 85.5254 98.5977C86.748 98.5977 87.5918 99.1484 88.0566 100.25C88.3145 100.855 88.4434 101.613 88.4434 102.523C88.4434 103.551 88.2891 104.461 87.9805 105.254C87.4688 106.574 86.6016 107.234 85.3789 107.234C84.5586 107.234 83.9355 107.02 83.5098 106.59C83.084 106.16 82.8711 105.621 82.8711 104.973H83.9375ZM85.5371 103.25C85.9551 103.25 86.3359 103.113 86.6797 102.84C87.0273 102.562 87.2012 102.08 87.2012 101.393C87.2012 100.775 87.0449 100.316 86.7324 100.016C86.4238 99.7109 86.0293 99.5586 85.5488 99.5586C85.0332 99.5586 84.623 99.7324 84.3184 100.08C84.0176 100.424 83.8672 100.885 83.8672 101.463C83.8672 102.01 84 102.445 84.2656 102.77C84.5312 103.09 84.9551 103.25 85.5371 103.25ZM95.2988 98.75V99.6699C95.0293 99.9316 94.6699 100.387 94.2207 101.035C93.7754 101.684 93.3809 102.383 93.0371 103.133C92.6973 103.863 92.4395 104.529 92.2637 105.131C92.1504 105.518 92.0039 106.141 91.8242 107H90.6582C90.9238 105.398 91.5098 103.805 92.416 102.219C92.9512 101.289 93.5137 100.486 94.1035 99.8105H89.4629V98.75H95.2988Z" fill="#2C3E50"/>
</svg>
