<svg width="280" height="113" viewBox="0 0 280 113" fill="none" xmlns="http://www.w3.org/2000/svg">
<path d="M1.5 42C41.3431 42 71.2255 35.3333 91.1471 22C111.069 8.66667 130.99 2 150.912 2C170.833 2 190.755 8.66667 210.676 22C230.598 35.3333 245.539 42 255.5 42" stroke="#00838F" stroke-width="3" stroke-linecap="round"/>
<path d="M250.266 23C260.266 23 270.266 28 275.266 38C280.266 48 280.266 58 275.266 68C270.266 78 260.266 83 250.266 78C245.266 75 243.266 71 245.266 68C247.266 65 250.266 58 250.266 23Z" fill="#00838F"/>
<path d="M29.1719 57.5703H11.8516V65.5156H27.0156V71.5156H11.8516V86H4.67969V51.5H29.1719V57.5703ZM46.3281 66.6172C43.6406 66.6172 41.8359 67.4922 40.9141 69.2422C40.3984 70.2266 40.1406 71.7422 40.1406 73.7891V86H33.4141V60.4531H39.7891V64.9062C40.8203 63.2031 41.7188 62.0391 42.4844 61.4141C43.7344 60.3672 45.3594 59.8438 47.3594 59.8438C47.4844 59.8438 47.5859 59.8516 47.6641 59.8672C47.7578 59.8672 47.9531 59.875 48.25 59.8906V66.7344C47.8281 66.6875 47.4531 66.6562 47.125 66.6406C46.7969 66.625 46.5312 66.6172 46.3281 66.6172ZM74.0547 78.5C73.8828 80.0156 73.0938 81.5547 71.6875 83.1172C69.5 85.6016 66.4375 86.8438 62.5 86.8438C59.25 86.8438 56.3828 85.7969 53.8984 83.7031C51.4141 81.6094 50.1719 78.2031 50.1719 73.4844C50.1719 69.0625 51.2891 65.6719 53.5234 63.3125C55.7734 60.9531 58.6875 59.7734 62.2656 59.7734C64.3906 59.7734 66.3047 60.1719 68.0078 60.9688C69.7109 61.7656 71.1172 63.0234 72.2266 64.7422C73.2266 66.2578 73.875 68.0156 74.1719 70.0156C74.3438 71.1875 74.4141 72.875 74.3828 75.0781H56.8984C56.9922 77.6406 57.7969 79.4375 59.3125 80.4688C60.2344 81.1094 61.3438 81.4297 62.6406 81.4297C64.0156 81.4297 65.1328 81.0391 65.9922 80.2578C66.4609 79.8359 66.875 79.25 67.2344 78.5H74.0547ZM67.4453 70.6719C67.3359 68.9062 66.7969 67.5703 65.8281 66.6641C64.875 65.7422 63.6875 65.2812 62.2656 65.2812C60.7188 65.2812 59.5156 65.7656 58.6562 66.7344C57.8125 67.7031 57.2812 69.0156 57.0625 70.6719H67.4453ZM96.5078 61.625C98.5078 62.9062 99.6562 65.1094 99.9531 68.2344H93.2734C93.1797 67.375 92.9375 66.6953 92.5469 66.1953C91.8125 65.2891 90.5625 64.8359 88.7969 64.8359C87.3438 64.8359 86.3047 65.0625 85.6797 65.5156C85.0703 65.9688 84.7656 66.5 84.7656 67.1094C84.7656 67.875 85.0938 68.4297 85.75 68.7734C86.4062 69.1328 88.7266 69.75 92.7109 70.625C95.3672 71.25 97.3594 72.1953 98.6875 73.4609C100 74.7422 100.656 76.3438 100.656 78.2656C100.656 80.7969 99.7109 82.8672 97.8203 84.4766C95.9453 86.0703 93.0391 86.8672 89.1016 86.8672C85.0859 86.8672 82.1172 86.0234 80.1953 84.3359C78.2891 82.6328 77.3359 80.4688 77.3359 77.8438H84.1094C84.25 79.0312 84.5547 79.875 85.0234 80.375C85.8516 81.2656 87.3828 81.7109 89.6172 81.7109C90.9297 81.7109 91.9688 81.5156 92.7344 81.125C93.5156 80.7344 93.9062 80.1484 93.9062 79.3672C93.9062 78.6172 93.5938 78.0469 92.9688 77.6562C92.3438 77.2656 90.0234 76.5938 86.0078 75.6406C83.1172 74.9219 81.0781 74.0234 79.8906 72.9453C78.7031 71.8828 78.1094 70.3516 78.1094 68.3516C78.1094 65.9922 79.0312 63.9688 80.875 62.2812C82.7344 60.5781 85.3438 59.7266 88.7031 59.7266C91.8906 59.7266 94.4922 60.3594 96.5078 61.625ZM128.711 71V86H121.891V70.4609C121.891 69.0859 121.656 67.9766 121.188 67.1328C120.578 65.9453 119.422 65.3516 117.719 65.3516C115.953 65.3516 114.609 65.9453 113.688 67.1328C112.781 68.3047 112.328 69.9844 112.328 72.1719V86H105.672V51.5703H112.328V63.7812C113.297 62.2969 114.414 61.2656 115.68 60.6875C116.961 60.0938 118.305 59.7969 119.711 59.7969C121.289 59.7969 122.719 60.0703 124 60.6172C125.297 61.1641 126.359 62 127.188 63.125C127.891 64.0781 128.32 65.0625 128.477 66.0781C128.633 67.0781 128.711 68.7188 128.711 71ZM148.867 51.4531H156.086V79.7891H173.195V86H148.867V51.4531ZM184.539 60.4531V86H177.766V60.4531H184.539ZM184.539 51.2422V57.4062H177.766V51.2422H184.539ZM203.055 65.3984C200.789 65.3984 199.234 66.3594 198.391 68.2812C197.953 69.2969 197.734 70.5938 197.734 72.1719V86H191.078V60.5H197.523V64.2266C198.383 62.9141 199.195 61.9688 199.961 61.3906C201.336 60.3594 203.078 59.8438 205.188 59.8438C207.828 59.8438 209.984 60.5391 211.656 61.9297C213.344 63.3047 214.188 65.5938 214.188 68.7969V86H207.344V70.4609C207.344 69.1172 207.164 68.0859 206.805 67.3672C206.148 66.0547 204.898 65.3984 203.055 65.3984ZM242.242 78.5C242.07 80.0156 241.281 81.5547 239.875 83.1172C237.688 85.6016 234.625 86.8438 230.688 86.8438C227.438 86.8438 224.57 85.7969 222.086 83.7031C219.602 81.6094 218.359 78.2031 218.359 73.4844C218.359 69.0625 219.477 65.6719 221.711 63.3125C223.961 60.9531 226.875 59.7734 230.453 59.7734C232.578 59.7734 234.492 60.1719 236.195 60.9688C237.898 61.7656 239.305 63.0234 240.414 64.7422C241.414 66.2578 242.062 68.0156 242.359 70.0156C242.531 71.1875 242.602 72.875 242.57 75.0781H225.086C225.18 77.6406 225.984 79.4375 227.5 80.4688C228.422 81.1094 229.531 81.4297 230.828 81.4297C232.203 81.4297 233.32 81.0391 234.18 80.2578C234.648 79.8359 235.062 79.25 235.422 78.5H242.242ZM235.633 70.6719C235.523 68.9062 234.984 67.5703 234.016 66.6641C233.062 65.7422 231.875 65.2812 230.453 65.2812C228.906 65.2812 227.703 65.7656 226.844 66.7344C226 67.7031 225.469 69.0156 225.25 70.6719H235.633Z" fill="#00838F"/>
<path d="M52.8789 99.958H57.3975C58.2907 99.958 59.0107 100.211 59.5576 100.717C60.1045 101.218 60.3779 101.924 60.3779 102.836C60.3779 103.62 60.1341 104.303 59.6465 104.887C59.1589 105.465 58.4092 105.755 57.3975 105.755H54.2393V110H52.8789V99.958ZM59.0039 102.843C59.0039 102.104 58.7305 101.603 58.1836 101.339C57.8828 101.198 57.4704 101.127 56.9463 101.127H54.2393V104.606H56.9463C57.557 104.606 58.0514 104.477 58.4297 104.217C58.8125 103.957 59.0039 103.499 59.0039 102.843ZM66.7559 104.559C67.3939 104.559 67.8975 104.431 68.2666 104.176C68.6403 103.921 68.8271 103.46 68.8271 102.795C68.8271 102.079 68.5674 101.592 68.0479 101.332C67.7699 101.195 67.3984 101.127 66.9336 101.127H63.6113V104.559H66.7559ZM62.251 99.958H66.8994C67.665 99.958 68.2962 100.07 68.793 100.293C69.7363 100.721 70.208 101.512 70.208 102.665C70.208 103.267 70.0827 103.759 69.832 104.142C69.5859 104.524 69.2396 104.832 68.793 105.064C69.1849 105.224 69.4788 105.434 69.6748 105.693C69.8753 105.953 69.987 106.375 70.0098 106.958L70.0576 108.305C70.0713 108.688 70.1032 108.972 70.1533 109.159C70.2354 109.478 70.3812 109.683 70.5908 109.774V110H68.9229C68.8773 109.913 68.8408 109.802 68.8135 109.665C68.7861 109.528 68.7633 109.264 68.7451 108.872L68.6631 107.197C68.6312 106.541 68.3874 106.101 67.9316 105.878C67.6719 105.755 67.264 105.693 66.708 105.693H63.6113V110H62.251V99.958ZM72.334 99.958H79.6553V101.188H73.6602V104.237H79.2041V105.399H73.6602V108.804H79.7578V110H72.334V99.958ZM81.5078 99.958H83.4561L86.3408 108.448L89.2051 99.958H91.1328V110H89.8408V104.073C89.8408 103.868 89.8454 103.529 89.8545 103.055C89.8636 102.581 89.8682 102.073 89.8682 101.53L87.0039 110H85.6572L82.7725 101.53V101.838C82.7725 102.084 82.777 102.46 82.7861 102.966C82.7998 103.467 82.8066 103.836 82.8066 104.073V110H81.5078V99.958ZM93.5117 99.958H94.8857V110H93.5117V99.958ZM98.5771 99.958V106.165C98.5771 106.894 98.7139 107.5 98.9873 107.983C99.3929 108.713 100.076 109.077 101.038 109.077C102.191 109.077 102.975 108.683 103.39 107.895C103.613 107.466 103.725 106.89 103.725 106.165V99.958H105.105V105.598C105.105 106.833 104.939 107.783 104.606 108.448C103.996 109.66 102.843 110.267 101.147 110.267C99.4521 110.267 98.3014 109.66 97.6953 108.448C97.3626 107.783 97.1963 106.833 97.1963 105.598V99.958H98.5771ZM107.184 99.958H109.132L112.017 108.448L114.881 99.958H116.809V110H115.517V104.073C115.517 103.868 115.521 103.529 115.53 103.055C115.539 102.581 115.544 102.073 115.544 101.53L112.68 110H111.333L108.448 101.53V101.838C108.448 102.084 108.453 102.46 108.462 102.966C108.476 103.467 108.482 103.836 108.482 104.073V110H107.184V99.958ZM123.665 106.76C123.697 107.329 123.831 107.792 124.068 108.147C124.52 108.813 125.315 109.146 126.454 109.146C126.965 109.146 127.429 109.073 127.849 108.927C128.66 108.644 129.065 108.138 129.065 107.409C129.065 106.862 128.895 106.473 128.553 106.24C128.206 106.012 127.664 105.814 126.926 105.646L125.565 105.338C124.677 105.137 124.048 104.916 123.679 104.675C123.041 104.256 122.722 103.629 122.722 102.795C122.722 101.893 123.034 101.152 123.658 100.573C124.283 99.9945 125.167 99.7051 126.311 99.7051C127.363 99.7051 128.257 99.9603 128.99 100.471C129.729 100.977 130.098 101.788 130.098 102.904H128.819C128.751 102.367 128.605 101.954 128.382 101.667C127.967 101.143 127.263 100.881 126.27 100.881C125.467 100.881 124.891 101.049 124.54 101.387C124.189 101.724 124.014 102.116 124.014 102.562C124.014 103.055 124.219 103.415 124.629 103.643C124.898 103.788 125.506 103.971 126.454 104.189L127.862 104.511C128.541 104.666 129.065 104.878 129.435 105.146C130.073 105.616 130.392 106.297 130.392 107.19C130.392 108.302 129.986 109.098 129.175 109.576C128.368 110.055 127.429 110.294 126.358 110.294C125.11 110.294 124.132 109.975 123.426 109.337C122.719 108.703 122.373 107.844 122.387 106.76H123.665ZM132.244 99.958H139.565V101.188H133.57V104.237H139.114V105.399H133.57V108.804H139.668V110H132.244V99.958ZM146.606 105.885L145.082 101.448L143.462 105.885H146.606ZM144.371 99.958H145.909L149.553 110H148.062L147.044 106.992H143.072L141.985 110H140.591L144.371 99.958ZM150.92 99.958H157.886V101.188H152.28V104.237H157.209V105.434H152.28V110H150.92V99.958ZM163.683 99.6846C165.455 99.6846 166.768 100.254 167.62 101.394C168.285 102.282 168.618 103.419 168.618 104.805C168.618 106.304 168.238 107.55 167.477 108.544C166.583 109.711 165.31 110.294 163.655 110.294C162.11 110.294 160.896 109.784 160.012 108.763C159.223 107.778 158.829 106.534 158.829 105.03C158.829 103.672 159.166 102.51 159.841 101.544C160.707 100.304 161.987 99.6846 163.683 99.6846ZM163.819 109.077C165.018 109.077 165.884 108.649 166.417 107.792C166.955 106.931 167.224 105.942 167.224 104.825C167.224 103.645 166.914 102.695 166.294 101.975C165.679 101.255 164.836 100.895 163.765 100.895C162.726 100.895 161.878 101.252 161.222 101.968C160.565 102.679 160.237 103.729 160.237 105.119C160.237 106.231 160.518 107.17 161.078 107.936C161.643 108.697 162.557 109.077 163.819 109.077ZM174.579 99.6846C176.352 99.6846 177.664 100.254 178.517 101.394C179.182 102.282 179.515 103.419 179.515 104.805C179.515 106.304 179.134 107.55 178.373 108.544C177.48 109.711 176.206 110.294 174.552 110.294C173.007 110.294 171.792 109.784 170.908 108.763C170.12 107.778 169.726 106.534 169.726 105.03C169.726 103.672 170.063 102.51 170.737 101.544C171.603 100.304 172.884 99.6846 174.579 99.6846ZM174.716 109.077C175.914 109.077 176.78 108.649 177.313 107.792C177.851 106.931 178.12 105.942 178.12 104.825C178.12 103.645 177.81 102.695 177.19 101.975C176.575 101.255 175.732 100.895 174.661 100.895C173.622 100.895 172.774 101.252 172.118 101.968C171.462 102.679 171.134 103.729 171.134 105.119C171.134 106.231 171.414 107.17 171.975 107.936C172.54 108.697 173.453 109.077 174.716 109.077ZM184.997 108.838C185.457 108.838 185.836 108.79 186.132 108.694C186.66 108.517 187.093 108.175 187.431 107.669C187.7 107.263 187.893 106.744 188.012 106.11C188.08 105.732 188.114 105.381 188.114 105.058C188.114 103.813 187.866 102.847 187.369 102.159C186.877 101.471 186.082 101.127 184.983 101.127H182.57V108.838H184.997ZM181.203 99.958H185.271C186.651 99.958 187.722 100.448 188.483 101.428C189.162 102.312 189.502 103.444 189.502 104.825C189.502 105.892 189.301 106.855 188.9 107.717C188.194 109.239 186.979 110 185.257 110H181.203V99.958ZM195.121 99.958H197.069L199.954 108.448L202.818 99.958H204.746V110H203.454V104.073C203.454 103.868 203.459 103.529 203.468 103.055C203.477 102.581 203.481 102.073 203.481 101.53L200.617 110H199.271L196.386 101.53V101.838C196.386 102.084 196.39 102.46 196.399 102.966C196.413 103.467 196.42 103.836 196.42 104.073V110H195.121V99.958ZM211.972 105.885L210.447 101.448L208.827 105.885H211.972ZM209.736 99.958H211.274L214.918 110H213.428L212.409 106.992H208.438L207.351 110H205.956L209.736 99.958ZM220.824 104.559C221.462 104.559 221.966 104.431 222.335 104.176C222.709 103.921 222.896 103.46 222.896 102.795C222.896 102.079 222.636 101.592 222.116 101.332C221.838 101.195 221.467 101.127 221.002 101.127H217.68V104.559H220.824ZM216.319 99.958H220.968C221.733 99.958 222.365 100.07 222.861 100.293C223.805 100.721 224.276 101.512 224.276 102.665C224.276 103.267 224.151 103.759 223.9 104.142C223.654 104.524 223.308 104.832 222.861 105.064C223.253 105.224 223.547 105.434 223.743 105.693C223.944 105.953 224.055 106.375 224.078 106.958L224.126 108.305C224.14 108.688 224.172 108.972 224.222 109.159C224.304 109.478 224.45 109.683 224.659 109.774V110H222.991C222.946 109.913 222.909 109.802 222.882 109.665C222.854 109.528 222.832 109.264 222.813 108.872L222.731 107.197C222.7 106.541 222.456 106.101 222 105.878C221.74 105.755 221.332 105.693 220.776 105.693H217.68V110H216.319V99.958ZM226.272 99.958H227.599V104.853L232.493 99.958H234.373L230.196 104.005L234.489 110H232.719L229.205 104.962L227.599 106.5V110H226.272V99.958ZM235.74 99.958H243.062V101.188H237.066V104.237H242.61V105.399H237.066V108.804H243.164V110H235.74V99.958ZM252.256 99.958V101.154H248.872V110H247.491V101.154H244.107V99.958H252.256Z" fill="#455A64"/>
</svg>
