<svg width="126" height="101" viewBox="0 0 126 101" fill="none" xmlns="http://www.w3.org/2000/svg">
<path d="M63 32C71.2843 32 78 25.2843 78 17C78 8.71573 71.2843 2 63 2C54.7157 2 48 8.71573 48 17C48 25.2843 54.7157 32 63 32Z" stroke="#0EA5E9" stroke-width="3" stroke-linecap="round"/>
<path d="M33 32C43 28.6667 53 28.6667 63 32C73 35.3333 83 35.3333 93 32" stroke="#0EA5E9" stroke-opacity="0.4" stroke-width="2" stroke-linecap="round"/>
<path d="M33 42C43 38.6667 53 38.6667 63 42C73 45.3333 83 45.3333 93 42" stroke="#0EA5E9" stroke-opacity="0.2" stroke-width="2" stroke-linecap="round"/>
<path d="M8.31009 65.43C8.31009 66.326 8.42209 66.984 8.64609 67.404C8.89809 67.796 9.36009 68.076 10.0321 68.244C10.7321 68.412 11.8241 68.496 13.3081 68.496C13.3921 68.496 13.4341 68.58 13.4341 68.748C13.4341 68.916 13.3921 69 13.3081 69C12.1601 69 11.2641 68.986 10.6201 68.958L6.96609 68.916L4.15209 68.958C3.62009 68.986 2.90609 69 2.01009 69C1.95409 69 1.92609 68.916 1.92609 68.748C1.92609 68.58 1.95409 68.496 2.01009 68.496C3.07409 68.496 3.84409 68.426 4.32009 68.286C4.82409 68.146 5.16009 67.88 5.32809 67.488C5.49609 67.068 5.58009 66.438 5.58009 65.598V46.152C5.58009 45.312 5.49609 44.696 5.32809 44.304C5.16009 43.912 4.82409 43.646 4.32009 43.506C3.84409 43.338 3.07409 43.254 2.01009 43.254C1.95409 43.254 1.92609 43.17 1.92609 43.002C1.92609 42.834 1.95409 42.75 2.01009 42.75L4.11009 42.792C5.28609 42.848 6.22409 42.876 6.92409 42.876C7.62409 42.876 8.40809 42.834 9.27609 42.75C9.61209 42.75 10.1441 42.736 10.8721 42.708C11.6001 42.652 12.2301 42.624 12.7621 42.624C15.3381 42.624 17.3961 43.198 18.9361 44.346C20.5041 45.494 21.2881 47.244 21.2881 49.596C21.2881 51.444 20.8261 52.998 19.9021 54.258C19.0061 55.518 17.8441 56.456 16.4161 57.072C14.9881 57.688 13.5181 57.996 12.0061 57.996C11.1941 57.996 10.5221 57.926 9.99009 57.786C9.90609 57.786 9.86409 57.716 9.86409 57.576C9.86409 57.492 9.87809 57.408 9.90609 57.324C9.96209 57.24 10.0181 57.212 10.0741 57.24C10.5221 57.352 11.0261 57.408 11.5861 57.408C13.4341 57.408 14.9881 56.806 16.2481 55.602C17.5361 54.398 18.1801 52.662 18.1801 50.394C18.1801 48.182 17.5781 46.446 16.3741 45.186C15.1701 43.898 13.6301 43.254 11.7541 43.254C10.7461 43.254 10.0181 43.31 9.57009 43.422C9.12209 43.534 8.80009 43.8 8.60409 44.22C8.40809 44.612 8.31009 45.284 8.31009 46.236V65.43ZM24.8568 69C24.8008 69 24.7728 68.916 24.7728 68.748C24.7728 68.58 24.8008 68.496 24.8568 68.496C25.9208 68.496 26.6908 68.426 27.1668 68.286C27.6708 68.146 28.0068 67.88 28.1748 67.488C28.3708 67.068 28.4688 66.438 28.4688 65.598V46.152C28.4688 45.312 28.3708 44.696 28.1748 44.304C28.0068 43.912 27.6708 43.646 27.1668 43.506C26.6908 43.338 25.9208 43.254 24.8568 43.254C24.8008 43.254 24.7728 43.17 24.7728 43.002C24.7728 42.834 24.8008 42.75 24.8568 42.75H41.7408C41.9928 42.75 42.1188 42.876 42.1188 43.128L42.2028 48.294C42.2028 48.378 42.1188 48.434 41.9508 48.462C41.8108 48.462 41.7408 48.42 41.7408 48.336C41.6568 46.852 41.2088 45.704 40.3968 44.892C39.5848 44.052 38.5068 43.632 37.1628 43.632H34.6008C33.6208 43.632 32.8928 43.716 32.4168 43.884C31.9408 44.024 31.6048 44.276 31.4088 44.64C31.2408 45.004 31.1568 45.578 31.1568 46.362V65.43C31.1568 66.186 31.2408 66.76 31.4088 67.152C31.6048 67.516 31.9268 67.768 32.3748 67.908C32.8228 68.048 33.5228 68.118 34.4748 68.118H37.8348C39.1788 68.118 40.2988 67.642 41.1948 66.69C42.0908 65.738 42.6928 64.422 43.0008 62.742C43.0008 62.686 43.0568 62.658 43.1688 62.658C43.2528 62.658 43.3228 62.686 43.3788 62.742C43.4628 62.77 43.5048 62.798 43.5048 62.826C43.2528 64.59 43.1268 66.438 43.1268 68.37C43.1268 68.594 43.0708 68.762 42.9588 68.874C42.8748 68.958 42.7068 69 42.4548 69H24.8568ZM40.1028 59.214C40.1028 57.982 39.7948 57.1 39.1788 56.568C38.5908 56.036 37.5968 55.77 36.1968 55.77H29.8968V54.888H36.3228C37.6668 54.888 38.6188 54.664 39.1788 54.216C39.7668 53.768 40.0608 53.012 40.0608 51.948C40.0608 51.892 40.1448 51.864 40.3128 51.864C40.4808 51.864 40.5648 51.892 40.5648 51.948L40.5228 55.35C40.5228 56.162 40.5368 56.778 40.5648 57.198L40.6068 59.214C40.6068 59.27 40.5228 59.298 40.3548 59.298C40.1868 59.298 40.1028 59.27 40.1028 59.214ZM54.1774 56.61H65.3074L65.6014 57.45H53.7574L54.1774 56.61ZM74.9674 68.496C75.0794 68.496 75.1354 68.58 75.1354 68.748C75.1354 68.916 75.0794 69 74.9674 69C74.4354 69 73.6094 68.972 72.4894 68.916C71.3694 68.86 70.5574 68.832 70.0534 68.832C69.4374 68.832 68.6534 68.86 67.7014 68.916C66.8054 68.972 66.1194 69 65.6434 69C65.5314 69 65.4754 68.916 65.4754 68.748C65.4754 68.58 65.5314 68.496 65.6434 68.496C66.7074 68.496 67.4634 68.398 67.9114 68.202C68.3874 68.006 68.6254 67.656 68.6254 67.152C68.6254 66.732 68.4574 66.144 68.1214 65.388L58.7974 45.69L59.8474 44.388L51.6994 63.666C51.3074 64.618 51.1114 65.402 51.1114 66.018C51.1114 67.67 52.4834 68.496 55.2274 68.496C55.3674 68.496 55.4374 68.58 55.4374 68.748C55.4374 68.916 55.3674 69 55.2274 69C54.7234 69 53.9954 68.972 53.0434 68.916C51.9794 68.86 51.0554 68.832 50.2714 68.832C49.5434 68.832 48.7034 68.86 47.7514 68.916C46.9114 68.972 46.2114 69 45.6514 69C45.5114 69 45.4414 68.916 45.4414 68.748C45.4414 68.58 45.5114 68.496 45.6514 68.496C46.4354 68.496 47.0934 68.356 47.6254 68.076C48.1854 67.768 48.7034 67.25 49.1794 66.522C49.6834 65.766 50.2294 64.688 50.8174 63.288L59.6794 42.372C59.7354 42.288 59.8334 42.246 59.9734 42.246C60.1134 42.246 60.1974 42.288 60.2254 42.372L70.1374 63.246C71.0894 65.318 71.9014 66.718 72.5734 67.446C73.2454 68.146 74.0434 68.496 74.9674 68.496ZM98.3676 69C97.6676 69 96.3236 67.81 94.3356 65.43C92.3756 63.022 90.0096 59.718 87.2376 55.518L89.5896 54.804C92.0256 58.304 94.0556 61.034 95.6796 62.994C97.3316 64.926 98.7876 66.326 100.048 67.194C101.308 68.062 102.54 68.496 103.744 68.496C103.828 68.496 103.87 68.58 103.87 68.748C103.87 68.916 103.828 69 103.744 69H98.3676ZM87.7836 42.624C89.9956 42.624 91.7036 43.128 92.9076 44.136C94.1116 45.144 94.7136 46.488 94.7136 48.168C94.7136 49.652 94.2796 51.01 93.4116 52.242C92.5436 53.446 91.3676 54.412 89.8836 55.14C88.4276 55.84 86.8596 56.19 85.1796 56.19C85.0116 56.19 84.3816 56.148 83.2896 56.064V65.598C83.2896 66.466 83.3736 67.096 83.5416 67.488C83.7096 67.88 84.0316 68.146 84.5076 68.286C85.0116 68.426 85.7956 68.496 86.8596 68.496C86.9436 68.496 86.9856 68.58 86.9856 68.748C86.9856 68.916 86.9436 69 86.8596 69C85.9916 69 85.3056 68.986 84.8016 68.958L81.9036 68.916L79.0476 68.958C78.5436 68.986 77.8296 69 76.9056 69C76.8496 69 76.8216 68.916 76.8216 68.748C76.8216 68.58 76.8496 68.496 76.9056 68.496C77.9696 68.496 78.7536 68.426 79.2576 68.286C79.7616 68.118 80.1116 67.838 80.3076 67.446C80.5036 67.054 80.6016 66.438 80.6016 65.598V46.152C80.6016 45.312 80.5036 44.696 80.3076 44.304C80.1396 43.912 79.8036 43.646 79.2996 43.506C78.8236 43.338 78.0536 43.254 76.9896 43.254C76.9056 43.254 76.8636 43.17 76.8636 43.002C76.8636 42.834 76.9056 42.75 76.9896 42.75L79.0476 42.792C80.2236 42.848 81.1756 42.876 81.9036 42.876C82.5196 42.876 83.0936 42.862 83.6256 42.834C84.1576 42.806 84.6056 42.778 84.9696 42.75C86.0336 42.666 86.9716 42.624 87.7836 42.624ZM91.8576 49.386C91.8576 47.202 91.3676 45.634 90.3876 44.682C89.4356 43.73 88.0356 43.254 86.1876 43.254C85.0956 43.254 84.3396 43.45 83.9196 43.842C83.4996 44.234 83.2896 45.032 83.2896 46.236V55.056C83.9616 55.168 84.7876 55.224 85.7676 55.224C87.9516 55.224 89.5056 54.748 90.4296 53.796C91.3816 52.844 91.8576 51.374 91.8576 49.386ZM111.129 65.43C111.129 66.242 111.213 66.83 111.381 67.194C111.549 67.558 111.857 67.81 112.305 67.95C112.753 68.062 113.481 68.118 114.489 68.118H119.067C120.663 68.118 121.937 67.628 122.889 66.648C123.841 65.668 124.471 64.31 124.779 62.574C124.779 62.49 124.849 62.462 124.989 62.49C125.157 62.49 125.241 62.532 125.241 62.616C124.989 64.94 124.863 66.858 124.863 68.37C124.863 68.594 124.821 68.762 124.737 68.874C124.653 68.958 124.485 69 124.233 69H104.829C104.773 69 104.745 68.916 104.745 68.748C104.745 68.58 104.773 68.496 104.829 68.496C105.893 68.496 106.663 68.426 107.139 68.286C107.643 68.146 107.979 67.88 108.147 67.488C108.315 67.068 108.399 66.438 108.399 65.598V46.152C108.399 45.312 108.315 44.696 108.147 44.304C107.979 43.912 107.643 43.646 107.139 43.506C106.663 43.338 105.893 43.254 104.829 43.254C104.773 43.254 104.745 43.17 104.745 43.002C104.745 42.834 104.773 42.75 104.829 42.75L106.887 42.792C108.063 42.848 109.015 42.876 109.743 42.876C110.527 42.876 111.507 42.848 112.683 42.792L114.699 42.75C114.783 42.75 114.825 42.834 114.825 43.002C114.825 43.17 114.783 43.254 114.699 43.254C113.663 43.254 112.893 43.338 112.389 43.506C111.885 43.646 111.549 43.926 111.381 44.346C111.213 44.738 111.129 45.354 111.129 46.194V65.43Z" fill="#2C3E50"/>
<path d="M51.1438 87.94C51.9172 87.94 52.6038 88.0867 53.2038 88.38C53.8038 88.6733 54.2638 89.08 54.5838 89.6C54.9172 90.1067 55.0838 90.68 55.0838 91.32C55.0838 92.0267 54.9105 92.6667 54.5638 93.24C54.2172 93.8133 53.7372 94.2667 53.1238 94.6C52.5238 94.92 51.8505 95.08 51.1038 95.08C50.6638 95.08 50.1838 95.06 49.6638 95.02C49.4772 95.0067 49.2572 94.9933 49.0038 94.98C48.7505 94.9667 48.4705 94.96 48.1638 94.96L46.8038 94.98C46.5638 94.9933 46.2238 95 45.7838 95C45.7572 95 45.7438 94.96 45.7438 94.88C45.7438 94.8 45.7572 94.76 45.7838 94.76C46.2905 94.76 46.6638 94.7267 46.9038 94.66C47.1438 94.58 47.3105 94.4467 47.4038 94.26C47.4972 94.0733 47.5438 93.78 47.5438 93.38V84.12C47.5438 83.72 47.4972 83.4267 47.4038 83.24C47.3238 83.0533 47.1638 82.9267 46.9238 82.86C46.6838 82.78 46.3172 82.74 45.8238 82.74C45.7838 82.74 45.7638 82.7 45.7638 82.62C45.7638 82.54 45.7838 82.5 45.8238 82.5L46.8038 82.52C47.3638 82.5467 47.8172 82.56 48.1638 82.56C48.4038 82.56 48.6238 82.5533 48.8238 82.54C49.0372 82.5267 49.2172 82.5133 49.3638 82.5C49.7905 82.46 50.1772 82.44 50.5238 82.44C51.6438 82.44 52.4838 82.6867 53.0438 83.18C53.6038 83.66 53.8838 84.2933 53.8838 85.08C53.8838 85.8267 53.6105 86.4733 53.0638 87.02C52.5305 87.5533 51.8172 87.9333 50.9238 88.16L51.1438 87.94ZM50.0838 82.74C49.7238 82.74 49.4638 82.7667 49.3038 82.82C49.1438 82.8733 49.0238 83 48.9438 83.2C48.8638 83.4 48.8238 83.72 48.8238 84.16V88.08L48.1838 87.92C48.7572 87.96 49.2705 87.98 49.7238 87.98C50.6972 87.98 51.4172 87.7333 51.8838 87.24C52.3505 86.7333 52.5838 86.0667 52.5838 85.24C52.5838 84.4933 52.3772 83.8933 51.9638 83.44C51.5638 82.9733 50.9372 82.74 50.0838 82.74ZM50.8038 94.72C51.7772 94.72 52.4972 94.4733 52.9638 93.98C53.4438 93.4733 53.6838 92.7533 53.6838 91.82C53.6838 90.8067 53.3838 89.9867 52.7838 89.36C52.1972 88.7333 51.3838 88.4133 50.3438 88.4C49.5838 88.3733 48.8838 88.4067 48.2438 88.5L48.8238 88.28V93.38C48.8238 93.7267 48.8705 93.9933 48.9638 94.18C49.0705 94.3667 49.2638 94.5067 49.5438 94.6C49.8372 94.68 50.2572 94.72 50.8038 94.72ZM60.1562 89.1H65.4562L65.5962 89.5H59.9562L60.1562 89.1ZM70.0562 94.76C70.1095 94.76 70.1362 94.8 70.1362 94.88C70.1362 94.96 70.1095 95 70.0562 95C69.8028 95 69.4095 94.9867 68.8762 94.96C68.3428 94.9333 67.9562 94.92 67.7162 94.92C67.4228 94.92 67.0495 94.9333 66.5962 94.96C66.1695 94.9867 65.8428 95 65.6162 95C65.5628 95 65.5362 94.96 65.5362 94.88C65.5362 94.8 65.5628 94.76 65.6162 94.76C66.1228 94.76 66.4828 94.7133 66.6962 94.62C66.9228 94.5267 67.0362 94.36 67.0362 94.12C67.0362 93.92 66.9562 93.64 66.7962 93.28L62.3562 83.9L62.8562 83.28L58.9762 92.46C58.7895 92.9133 58.6962 93.2867 58.6962 93.58C58.6962 94.3667 59.3495 94.76 60.6562 94.76C60.7228 94.76 60.7562 94.8 60.7562 94.88C60.7562 94.96 60.7228 95 60.6562 95C60.4162 95 60.0695 94.9867 59.6162 94.96C59.1095 94.9333 58.6695 94.92 58.2962 94.92C57.9495 94.92 57.5495 94.9333 57.0962 94.96C56.6962 94.9867 56.3628 95 56.0962 95C56.0295 95 55.9962 94.96 55.9962 94.88C55.9962 94.8 56.0295 94.76 56.0962 94.76C56.4695 94.76 56.7828 94.6933 57.0362 94.56C57.3028 94.4133 57.5495 94.1667 57.7762 93.82C58.0162 93.46 58.2762 92.9467 58.5562 92.28L62.7762 82.32C62.8028 82.28 62.8495 82.26 62.9162 82.26C62.9828 82.26 63.0228 82.28 63.0362 82.32L67.7562 92.26C68.2095 93.2467 68.5962 93.9133 68.9162 94.26C69.2362 94.5933 69.6162 94.76 70.0562 94.76ZM77.9087 84.64C78.202 84.1733 78.3487 83.78 78.3487 83.46C78.3487 82.98 77.9887 82.74 77.2687 82.74C77.242 82.74 77.2287 82.7 77.2287 82.62C77.2287 82.54 77.242 82.5 77.2687 82.5L78.2087 82.52C78.7153 82.5467 79.182 82.56 79.6087 82.56C79.8353 82.56 80.1087 82.5467 80.4287 82.52L81.1687 82.5C81.1953 82.5 81.2087 82.54 81.2087 82.62C81.2087 82.7 81.1953 82.74 81.1687 82.74C80.6887 82.74 80.202 82.92 79.7087 83.28C79.2153 83.6267 78.7753 84.1067 78.3887 84.72L75.2487 89.54L74.9087 89.24L77.9087 84.64ZM71.0887 84.28C70.7153 83.7067 70.362 83.3067 70.0287 83.08C69.6953 82.8533 69.3087 82.74 68.8687 82.74C68.8287 82.74 68.8087 82.7 68.8087 82.62C68.8087 82.54 68.8287 82.5 68.8687 82.5C69.0287 82.5 69.2687 82.5133 69.5887 82.54L70.2887 82.56C70.742 82.56 71.3153 82.5467 72.0087 82.52L73.0887 82.5C73.1153 82.5 73.1287 82.54 73.1287 82.62C73.1287 82.7 73.1153 82.74 73.0887 82.74C72.3953 82.74 72.0487 82.88 72.0487 83.16C72.0487 83.3067 72.1153 83.4667 72.2487 83.64L75.6687 88.66L74.6887 89.56L71.0887 84.28ZM75.7087 88.62V93.38C75.7087 93.7933 75.7487 94.0933 75.8287 94.28C75.9087 94.4667 76.062 94.5933 76.2887 94.66C76.5287 94.7267 76.902 94.76 77.4087 94.76C77.4487 94.76 77.4687 94.8 77.4687 94.88C77.4687 94.96 77.4487 95 77.4087 95C76.9953 95 76.6753 94.9933 76.4487 94.98L75.0487 94.96L73.6687 94.98C73.4287 94.9933 73.102 95 72.6887 95C72.6487 95 72.6287 94.96 72.6287 94.88C72.6287 94.8 72.6487 94.76 72.6887 94.76C73.1953 94.76 73.562 94.7267 73.7887 94.66C74.0287 94.5933 74.1887 94.4667 74.2687 94.28C74.362 94.08 74.4087 93.78 74.4087 93.38V88.8L75.7087 88.62Z" fill="#0EA5E9"/>
</svg>
