<svg width="325" height="64" viewBox="0 0 325 64" fill="none" xmlns="http://www.w3.org/2000/svg">
<path d="M2 2H62V62H2V2Z" stroke="#1E3D59" stroke-width="4"/>
<path d="M7 22C13.6667 15.3333 20.3333 15.3333 27 22C33.6667 28.6667 40.3333 28.6667 47 22C53.6667 15.3333 57 15.3333 57 22" stroke="#17A2B8" stroke-width="3"/>
<path d="M7 37C13.6667 30.3333 20.3333 30.3333 27 37C33.6667 43.6667 40.3333 43.6667 47 37C53.6667 30.3333 57 30.3333 57 37" stroke="#17A2B8" stroke-width="3"/>
<path d="M7 52C13.6667 45.3333 20.3333 45.3333 27 52C33.6667 58.6667 40.3333 58.6667 47 52C53.6667 45.3333 57 45.3333 57 52" stroke="#17A2B8" stroke-width="3"/>
<path d="M83.3906 28.6875C83.3906 26.3542 83.7396 24.3958 84.4375 22.8125C84.9583 21.6458 85.6667 20.599 86.5625 19.6719C87.4688 18.7448 88.4583 18.0573 89.5312 17.6094C90.9583 17.0052 92.6042 16.7031 94.4688 16.7031C97.8438 16.7031 100.542 17.75 102.562 19.8438C104.594 21.9375 105.609 24.849 105.609 28.5781C105.609 32.276 104.604 35.1719 102.594 37.2656C100.583 39.349 97.8958 40.3906 94.5312 40.3906C91.125 40.3906 88.4167 39.3542 86.4062 37.2812C84.3958 35.1979 83.3906 32.3333 83.3906 28.6875ZM88.1562 28.5312C88.1562 31.125 88.7552 33.0938 89.9531 34.4375C91.151 35.7708 92.6719 36.4375 94.5156 36.4375C96.3594 36.4375 97.8698 35.776 99.0469 34.4531C100.234 33.1198 100.828 31.125 100.828 28.4688C100.828 25.8438 100.25 23.8854 99.0938 22.5938C97.9479 21.3021 96.4219 20.6562 94.5156 20.6562C92.6094 20.6562 91.0729 21.3125 89.9062 22.625C88.7396 23.9271 88.1562 25.8958 88.1562 28.5312ZM123.672 28.3125L119.344 29.0938C119.198 28.2292 118.865 27.5781 118.344 27.1406C117.833 26.7031 117.167 26.4844 116.344 26.4844C115.25 26.4844 114.375 26.8646 113.719 27.625C113.073 28.375 112.75 29.6354 112.75 31.4062C112.75 33.375 113.078 34.7656 113.734 35.5781C114.401 36.3906 115.292 36.7969 116.406 36.7969C117.24 36.7969 117.922 36.5625 118.453 36.0938C118.984 35.6146 119.359 34.7969 119.578 33.6406L123.891 34.375C123.443 36.3542 122.583 37.849 121.312 38.8594C120.042 39.8698 118.339 40.375 116.203 40.375C113.776 40.375 111.839 39.6094 110.391 38.0781C108.953 36.5469 108.234 34.4271 108.234 31.7188C108.234 28.9792 108.958 26.849 110.406 25.3281C111.854 23.7969 113.812 23.0312 116.281 23.0312C118.302 23.0312 119.906 23.4688 121.094 24.3438C122.292 25.2083 123.151 26.5312 123.672 28.3125ZM136.625 34.7188L141 35.4531C140.438 37.0573 139.547 38.2812 138.328 39.125C137.12 39.9583 135.604 40.375 133.781 40.375C130.896 40.375 128.76 39.4323 127.375 37.5469C126.281 36.0365 125.734 34.1302 125.734 31.8281C125.734 29.0781 126.453 26.9271 127.891 25.375C129.328 23.8125 131.146 23.0312 133.344 23.0312C135.812 23.0312 137.76 23.849 139.188 25.4844C140.615 27.1094 141.297 29.6042 141.234 32.9688H130.234C130.266 34.2708 130.62 35.2865 131.297 36.0156C131.974 36.7344 132.818 37.0938 133.828 37.0938C134.516 37.0938 135.094 36.9062 135.562 36.5312C136.031 36.1562 136.385 35.5521 136.625 34.7188ZM136.875 30.2812C136.844 29.0104 136.516 28.0469 135.891 27.3906C135.266 26.724 134.505 26.3906 133.609 26.3906C132.651 26.3906 131.859 26.7396 131.234 27.4375C130.609 28.1354 130.302 29.0833 130.312 30.2812H136.875ZM148.109 28.4688L144.125 27.75C144.573 26.1458 145.344 24.9583 146.438 24.1875C147.531 23.4167 149.156 23.0312 151.312 23.0312C153.271 23.0312 154.729 23.2656 155.688 23.7344C156.646 24.1927 157.318 24.7812 157.703 25.5C158.099 26.2083 158.297 27.5156 158.297 29.4219L158.25 34.5469C158.25 36.0052 158.318 37.0833 158.453 37.7812C158.599 38.4688 158.865 39.2083 159.25 40H154.906C154.792 39.7083 154.651 39.276 154.484 38.7031C154.411 38.4427 154.359 38.2708 154.328 38.1875C153.578 38.9167 152.776 39.4635 151.922 39.8281C151.068 40.1927 150.156 40.375 149.188 40.375C147.479 40.375 146.13 39.9115 145.141 38.9844C144.161 38.0573 143.672 36.8854 143.672 35.4688C143.672 34.5312 143.896 33.6979 144.344 32.9688C144.792 32.2292 145.417 31.6667 146.219 31.2812C147.031 30.8854 148.198 30.5417 149.719 30.25C151.771 29.8646 153.193 29.5052 153.984 29.1719V28.7344C153.984 27.8906 153.776 27.2917 153.359 26.9375C152.943 26.5729 152.156 26.3906 151 26.3906C150.219 26.3906 149.609 26.5469 149.172 26.8594C148.734 27.1615 148.38 27.6979 148.109 28.4688ZM153.984 32.0312C153.422 32.2188 152.531 32.4427 151.312 32.7031C150.094 32.9635 149.297 33.2188 148.922 33.4688C148.349 33.875 148.062 34.3906 148.062 35.0156C148.062 35.6302 148.292 36.1615 148.75 36.6094C149.208 37.0573 149.792 37.2812 150.5 37.2812C151.292 37.2812 152.047 37.0208 152.766 36.5C153.297 36.1042 153.646 35.6198 153.812 35.0469C153.927 34.6719 153.984 33.9583 153.984 32.9062V32.0312ZM177.734 40H173.344V31.5312C173.344 29.7396 173.25 28.5833 173.062 28.0625C172.875 27.5312 172.568 27.1198 172.141 26.8281C171.724 26.5365 171.219 26.3906 170.625 26.3906C169.865 26.3906 169.182 26.599 168.578 27.0156C167.974 27.4323 167.557 27.9844 167.328 28.6719C167.109 29.3594 167 30.6302 167 32.4844V40H162.609V23.4062H166.688V25.8438C168.135 23.9688 169.958 23.0312 172.156 23.0312C173.125 23.0312 174.01 23.2083 174.812 23.5625C175.615 23.9062 176.219 24.349 176.625 24.8906C177.042 25.4323 177.328 26.0469 177.484 26.7344C177.651 27.4219 177.734 28.4062 177.734 29.6875V40ZM182.172 25.2344L181.344 20.9688V17.0938H186.125V20.9688L185.406 25.2344H182.172ZM188.281 35.2656L192.688 34.5938C192.875 35.4479 193.255 36.099 193.828 36.5469C194.401 36.9844 195.203 37.2031 196.234 37.2031C197.37 37.2031 198.224 36.9948 198.797 36.5781C199.182 36.2865 199.375 35.8958 199.375 35.4062C199.375 35.0729 199.271 34.7969 199.062 34.5781C198.844 34.3698 198.354 34.1771 197.594 34C194.052 33.2188 191.807 32.5052 190.859 31.8594C189.547 30.9635 188.891 29.7188 188.891 28.125C188.891 26.6875 189.458 25.4792 190.594 24.5C191.729 23.5208 193.49 23.0312 195.875 23.0312C198.146 23.0312 199.833 23.401 200.938 24.1406C202.042 24.8802 202.802 25.974 203.219 27.4219L199.078 28.1875C198.901 27.5417 198.562 27.0469 198.062 26.7031C197.573 26.3594 196.87 26.1875 195.953 26.1875C194.797 26.1875 193.969 26.349 193.469 26.6719C193.135 26.901 192.969 27.1979 192.969 27.5625C192.969 27.875 193.115 28.1406 193.406 28.3594C193.802 28.651 195.167 29.0625 197.5 29.5938C199.844 30.125 201.479 30.776 202.406 31.5469C203.323 32.3281 203.781 33.4167 203.781 34.8125C203.781 36.3333 203.146 37.6406 201.875 38.7344C200.604 39.8281 198.724 40.375 196.234 40.375C193.974 40.375 192.182 39.9167 190.859 39C189.547 38.0833 188.688 36.8385 188.281 35.2656ZM216.594 17.0938H225.75C227.562 17.0938 228.911 17.1719 229.797 17.3281C230.693 17.474 231.49 17.7865 232.188 18.2656C232.896 18.7448 233.484 19.3854 233.953 20.1875C234.422 20.9792 234.656 21.8698 234.656 22.8594C234.656 23.9323 234.365 24.9167 233.781 25.8125C233.208 26.7083 232.427 27.3802 231.438 27.8281C232.833 28.2344 233.906 28.9271 234.656 29.9062C235.406 30.8854 235.781 32.0365 235.781 33.3594C235.781 34.401 235.536 35.4167 235.047 36.4062C234.568 37.3854 233.906 38.1719 233.062 38.7656C232.229 39.349 231.198 39.7083 229.969 39.8438C229.198 39.9271 227.339 39.9792 224.391 40H216.594V17.0938ZM221.219 20.9062V26.2031H224.25C226.052 26.2031 227.172 26.1771 227.609 26.125C228.401 26.0312 229.021 25.7604 229.469 25.3125C229.927 24.8542 230.156 24.2552 230.156 23.5156C230.156 22.8073 229.958 22.2344 229.562 21.7969C229.177 21.349 228.599 21.0781 227.828 20.9844C227.37 20.9323 226.052 20.9062 223.875 20.9062H221.219ZM221.219 30.0156V36.1406H225.5C227.167 36.1406 228.224 36.0938 228.672 36C229.359 35.875 229.917 35.5729 230.344 35.0938C230.781 34.6042 231 33.9531 231 33.1406C231 32.4531 230.833 31.8698 230.5 31.3906C230.167 30.9115 229.682 30.5625 229.047 30.3438C228.422 30.125 227.057 30.0156 224.953 30.0156H221.219ZM238.656 31.4688C238.656 30.0104 239.016 28.599 239.734 27.2344C240.453 25.8698 241.469 24.8281 242.781 24.1094C244.104 23.3906 245.578 23.0312 247.203 23.0312C249.714 23.0312 251.771 23.849 253.375 25.4844C254.979 27.1094 255.781 29.1667 255.781 31.6562C255.781 34.1667 254.969 36.25 253.344 37.9062C251.729 39.5521 249.693 40.375 247.234 40.375C245.714 40.375 244.26 40.0312 242.875 39.3438C241.5 38.6562 240.453 37.651 239.734 36.3281C239.016 34.9948 238.656 33.375 238.656 31.4688ZM243.156 31.7031C243.156 33.349 243.547 34.6094 244.328 35.4844C245.109 36.3594 246.073 36.7969 247.219 36.7969C248.365 36.7969 249.323 36.3594 250.094 35.4844C250.875 34.6094 251.266 33.3385 251.266 31.6719C251.266 30.0469 250.875 28.7969 250.094 27.9219C249.323 27.0469 248.365 26.6094 247.219 26.6094C246.073 26.6094 245.109 27.0469 244.328 27.9219C243.547 28.7969 243.156 30.0573 243.156 31.7031ZM270.156 40V37.5156C269.552 38.401 268.755 39.099 267.766 39.6094C266.786 40.1198 265.75 40.375 264.656 40.375C263.542 40.375 262.542 40.1302 261.656 39.6406C260.771 39.151 260.13 38.4635 259.734 37.5781C259.339 36.6927 259.141 35.4688 259.141 33.9062V23.4062H263.531V31.0312C263.531 33.3646 263.609 34.7969 263.766 35.3281C263.932 35.849 264.229 36.2656 264.656 36.5781C265.083 36.8802 265.625 37.0312 266.281 37.0312C267.031 37.0312 267.703 36.8281 268.297 36.4219C268.891 36.0052 269.297 35.4948 269.516 34.8906C269.734 34.276 269.844 32.7812 269.844 30.4062V23.4062H274.234V40H270.156ZM293.891 40H289.5V31.5312C289.5 29.7396 289.406 28.5833 289.219 28.0625C289.031 27.5312 288.724 27.1198 288.297 26.8281C287.88 26.5365 287.375 26.3906 286.781 26.3906C286.021 26.3906 285.339 26.599 284.734 27.0156C284.13 27.4323 283.714 27.9844 283.484 28.6719C283.266 29.3594 283.156 30.6302 283.156 32.4844V40H278.766V23.4062H282.844V25.8438C284.292 23.9688 286.115 23.0312 288.312 23.0312C289.281 23.0312 290.167 23.2083 290.969 23.5625C291.771 23.9062 292.375 24.349 292.781 24.8906C293.198 25.4323 293.484 26.0469 293.641 26.7344C293.807 27.4219 293.891 28.4062 293.891 29.6875V40ZM305.969 23.4062V26.9062H302.969V33.5938C302.969 34.9479 302.995 35.7396 303.047 35.9688C303.109 36.1875 303.24 36.3698 303.438 36.5156C303.646 36.6615 303.896 36.7344 304.188 36.7344C304.594 36.7344 305.182 36.5938 305.953 36.3125L306.328 39.7188C305.307 40.1562 304.151 40.375 302.859 40.375C302.068 40.375 301.354 40.2448 300.719 39.9844C300.083 39.7135 299.615 39.3698 299.312 38.9531C299.021 38.526 298.818 37.9531 298.703 37.2344C298.609 36.724 298.562 35.6927 298.562 34.1406V26.9062H296.547V23.4062H298.562V20.1094L302.969 17.5469V23.4062H305.969ZM306.938 23.4062H311.609L315.578 35.1875L319.453 23.4062H324L318.141 39.375L317.094 42.2656C316.708 43.2344 316.339 43.974 315.984 44.4844C315.641 44.9948 315.24 45.4062 314.781 45.7188C314.333 46.0417 313.776 46.2917 313.109 46.4688C312.453 46.6458 311.708 46.7344 310.875 46.7344C310.031 46.7344 309.203 46.6458 308.391 46.4688L308 43.0312C308.688 43.1667 309.307 43.2344 309.859 43.2344C310.88 43.2344 311.635 42.9323 312.125 42.3281C312.615 41.7344 312.99 40.974 313.25 40.0469L306.938 23.4062Z" fill="#1E3D59"/>
</svg>
