<svg width="244" height="80" viewBox="0 0 244 80" fill="none" xmlns="http://www.w3.org/2000/svg">
<path d="M2 11H42H82C102 11 122 -9 142 11C162 31 182 31 202 11C208.081 10.2979 214.979 9.9282 222 9.9282C229.021 9.9282 235.919 10.2979 242 11" stroke="#1D1D1D" stroke-width="2.5" stroke-linecap="round"/>
<path d="M142 8C143.105 8 144 7.10457 144 6C144 4.89543 143.105 4 142 4C140.895 4 140 4.89543 140 6C140 7.10457 140.895 8 142 8Z" fill="#1D1D1D"/>
<path d="M19.5245 37.544C19.9512 37.6293 20.3992 37.6933 20.8685 37.736C21.3378 37.7787 21.7538 37.8 22.1165 37.8C23.6952 37.8 24.9218 37.3413 25.7965 36.424C26.6925 35.4853 27.1405 34.0773 27.1405 32.2C27.1405 31.112 27.0338 30.2053 26.8205 29.48C26.6072 28.7547 26.2658 28.1787 25.7965 27.752C25.3485 27.304 24.7512 26.9947 24.0045 26.824C23.2792 26.6533 22.4045 26.568 21.3805 26.568C20.9752 26.568 20.6018 26.5787 20.2605 26.6C19.9405 26.6213 19.6952 26.6427 19.5245 26.664V37.544ZM12.7725 48.552H16.3245V26.664H12.7725V26.216H18.7885C19.0872 26.216 19.3858 26.216 19.6845 26.216C19.9832 26.1947 20.2818 26.1733 20.5805 26.152C20.8792 26.152 21.1672 26.152 21.4445 26.152C21.7432 26.1307 22.0418 26.12 22.3405 26.12C23.5565 26.12 24.6765 26.2693 25.7005 26.568C26.7458 26.8453 27.6418 27.2507 28.3885 27.784C29.1565 28.3173 29.7538 28.9573 30.1805 29.704C30.6072 30.4507 30.8205 31.2827 30.8205 32.2C30.8205 33.16 30.5752 34.0133 30.0845 34.76C29.5938 35.5067 28.9432 36.136 28.1325 36.648C27.3218 37.16 26.3725 37.5547 25.2845 37.832C24.2178 38.1093 23.0978 38.248 21.9245 38.248C21.6258 38.248 21.2418 38.2267 20.7725 38.184C20.3032 38.12 19.8872 38.056 19.5245 37.992V48.552H23.0765V49H12.7725V48.552ZM33.6185 48.552H37.1705V26.664H33.6185V26.216H43.9225V26.664H40.3705V48.552H43.9225V49H33.6185V48.552ZM45.9288 48.552H49.4808V26.664H45.9288V26.216H64.2328V31.752H63.8808C63.6034 30.92 63.3048 30.1947 62.9848 29.576C62.6648 28.936 62.2808 28.4027 61.8328 27.976C61.3848 27.528 60.8514 27.1973 60.2328 26.984C59.6141 26.7707 58.8674 26.664 57.9928 26.664H52.6808V36.552H54.7608C55.4648 36.552 56.0621 36.488 56.5528 36.36C57.0434 36.232 57.4594 35.9973 57.8008 35.656C58.1634 35.2933 58.4621 34.8133 58.6968 34.216C58.9528 33.5973 59.1981 32.808 59.4328 31.848H59.7848V41.8H59.4328C59.2834 41.1813 59.1234 40.584 58.9528 40.008C58.8034 39.432 58.5794 38.92 58.2808 38.472C58.0034 38.024 57.6194 37.672 57.1288 37.416C56.6594 37.1387 56.0408 37 55.2728 37H52.6808V48.552H58.7288C59.9021 48.552 60.8728 48.3067 61.6408 47.816C62.4301 47.304 63.0701 46.7067 63.5608 46.024C64.0514 45.32 64.4141 44.5947 64.6488 43.848C64.8834 43.1013 65.0328 42.4827 65.0968 41.992H65.4488V49H45.9288V48.552ZM75.212 36.552H78.156C78.7533 36.552 79.2973 36.4773 79.788 36.328C80.2787 36.1787 80.6947 35.9227 81.036 35.56C81.3987 35.176 81.676 34.664 81.868 34.024C82.06 33.384 82.156 32.5733 82.156 31.592C82.156 30.4827 82.0067 29.5973 81.708 28.936C81.4307 28.2533 81.0573 27.7413 80.588 27.4C80.14 27.0587 79.628 26.8347 79.052 26.728C78.4973 26.6213 77.9427 26.568 77.388 26.568C77.004 26.568 76.6093 26.5787 76.204 26.6C75.82 26.6 75.4893 26.6213 75.212 26.664V36.552ZM68.46 48.552H72.012V26.664H68.46V26.216H74.54C74.796 26.216 75.052 26.216 75.308 26.216C75.564 26.1947 75.82 26.1733 76.076 26.152C76.332 26.152 76.588 26.152 76.844 26.152C77.1 26.1307 77.356 26.12 77.612 26.12C78.8707 26.12 79.98 26.1947 80.94 26.344C81.9 26.472 82.796 26.8667 83.628 27.528C84.3747 28.104 84.8973 28.7547 85.196 29.48C85.516 30.2053 85.676 30.888 85.676 31.528C85.676 31.848 85.612 32.264 85.484 32.776C85.3773 33.2667 85.1213 33.7787 84.716 34.312C84.332 34.824 83.7667 35.304 83.02 35.752C82.2733 36.1787 81.2813 36.4667 80.044 36.616V36.68C80.3853 36.7227 80.844 36.808 81.42 36.936C82.0173 37.0427 82.6147 37.2347 83.212 37.512C83.8307 37.7893 84.396 38.1627 84.908 38.632C85.42 39.08 85.7827 39.6667 85.996 40.392C86.124 40.8187 86.2093 41.3093 86.252 41.864C86.316 42.3973 86.3587 42.952 86.38 43.528C86.4227 44.104 86.4547 44.6587 86.476 45.192C86.5187 45.7253 86.5827 46.1733 86.668 46.536C86.796 47.0907 86.9987 47.592 87.276 48.04C87.5533 48.488 88.0013 48.712 88.62 48.712C88.8973 48.712 89.1853 48.6587 89.484 48.552C89.7827 48.4453 90.0493 48.2747 90.284 48.04L90.572 48.392C90.4653 48.4773 90.3373 48.5733 90.188 48.68C90.06 48.7653 89.8893 48.8507 89.676 48.936C89.4627 49.0213 89.196 49.0853 88.876 49.128C88.5773 49.192 88.204 49.224 87.756 49.224C86.9027 49.224 86.188 49.1173 85.612 48.904C85.0573 48.6907 84.6093 48.3813 84.268 47.976C83.9267 47.5493 83.6707 47.0373 83.5 46.44C83.3507 45.8213 83.244 45.1067 83.18 44.296L82.956 41.384C82.8707 40.3173 82.6573 39.4853 82.316 38.888C81.9747 38.2907 81.5693 37.8533 81.1 37.576C80.652 37.2987 80.1827 37.1387 79.692 37.096C79.2013 37.032 78.7747 37 78.412 37H75.212V48.552H78.764V49H68.46V48.552ZM103.404 27.432C103.297 27.3467 103.169 27.24 103.02 27.112C102.892 26.984 102.828 26.8027 102.828 26.568C102.828 26.2693 102.935 26.0133 103.148 25.8C103.361 25.5653 103.617 25.448 103.916 25.448C104.215 25.448 104.449 25.5333 104.62 25.704C104.812 25.8747 105.121 26.216 105.548 26.728L109.324 31.336H108.876L103.404 27.432ZM109.196 41.16H109.132C109.089 41.4373 108.737 41.7147 108.076 41.992L105.676 42.952C104.993 43.2293 104.471 43.624 104.108 44.136C103.745 44.6267 103.564 45.2453 103.564 45.992C103.564 46.312 103.596 46.6427 103.66 46.984C103.724 47.3253 103.841 47.6347 104.012 47.912C104.183 48.168 104.417 48.3813 104.716 48.552C105.036 48.7227 105.441 48.808 105.932 48.808C106.636 48.808 107.201 48.6587 107.628 48.36C108.076 48.0613 108.407 47.688 108.62 47.24C108.855 46.792 109.004 46.312 109.068 45.8C109.153 45.2667 109.196 44.7867 109.196 44.36V41.16ZM114.796 48.648C114.519 48.8613 114.188 49.0427 113.804 49.192C113.42 49.3627 112.951 49.448 112.396 49.448C111.372 49.448 110.625 49.2347 110.156 48.808C109.708 48.36 109.399 47.7413 109.228 46.952H109.164C109.079 47.144 108.961 47.3893 108.812 47.688C108.663 47.9653 108.428 48.2427 108.108 48.52C107.809 48.776 107.404 48.9893 106.892 49.16C106.38 49.352 105.729 49.448 104.94 49.448C104.044 49.448 103.329 49.3413 102.796 49.128C102.263 48.936 101.847 48.6907 101.548 48.392C101.249 48.0933 101.047 47.7627 100.94 47.4C100.855 47.016 100.812 46.664 100.812 46.344C100.812 45.5973 100.961 45 101.26 44.552C101.559 44.104 101.943 43.752 102.412 43.496C102.903 43.2187 103.436 42.9947 104.012 42.824C104.609 42.6533 105.207 42.472 105.804 42.28C106.508 42.0453 107.084 41.8427 107.532 41.672C108.001 41.5013 108.364 41.2987 108.62 41.064C108.876 40.808 109.047 40.4987 109.132 40.136C109.239 39.752 109.292 39.24 109.292 38.6C109.292 38.088 109.26 37.6293 109.196 37.224C109.132 36.8187 109.015 36.4773 108.844 36.2C108.673 35.9013 108.428 35.6773 108.108 35.528C107.788 35.3787 107.361 35.304 106.828 35.304C106.124 35.304 105.537 35.432 105.068 35.688C104.62 35.9227 104.396 36.3173 104.396 36.872C104.396 37.2347 104.428 37.5973 104.492 37.96C104.556 38.3013 104.588 38.5573 104.588 38.728C104.588 39.0267 104.481 39.2827 104.268 39.496C104.055 39.688 103.745 39.784 103.34 39.784C102.636 39.784 102.199 39.656 102.028 39.4C101.857 39.144 101.772 38.8133 101.772 38.408C101.772 37.9387 101.879 37.4907 102.092 37.064C102.305 36.6373 102.615 36.264 103.02 35.944C103.447 35.6027 103.969 35.336 104.588 35.144C105.228 34.952 105.953 34.856 106.764 34.856C107.745 34.856 108.567 34.984 109.228 35.24C109.889 35.4747 110.423 35.8053 110.828 36.232C111.233 36.6373 111.521 37.1067 111.692 37.64C111.863 38.152 111.948 38.696 111.948 39.272V47.24C111.948 47.8587 112.044 48.2747 112.236 48.488C112.428 48.7013 112.705 48.808 113.068 48.808C113.303 48.808 113.548 48.7653 113.804 48.68C114.06 48.5947 114.305 48.4667 114.54 48.296L114.796 48.648ZM131.525 37.544C131.951 37.6293 132.399 37.6933 132.869 37.736C133.338 37.7787 133.754 37.8 134.117 37.8C135.695 37.8 136.922 37.3413 137.797 36.424C138.693 35.4853 139.141 34.0773 139.141 32.2C139.141 31.112 139.034 30.2053 138.821 29.48C138.607 28.7547 138.266 28.1787 137.797 27.752C137.349 27.304 136.751 26.9947 136.005 26.824C135.279 26.6533 134.405 26.568 133.381 26.568C132.975 26.568 132.602 26.5787 132.26 26.6C131.941 26.6213 131.695 26.6427 131.525 26.664V37.544ZM124.773 48.552H128.325V26.664H124.773V26.216H130.789C131.087 26.216 131.386 26.216 131.685 26.216C131.983 26.1947 132.282 26.1733 132.581 26.152C132.879 26.152 133.167 26.152 133.445 26.152C133.743 26.1307 134.042 26.12 134.341 26.12C135.557 26.12 136.677 26.2693 137.701 26.568C138.746 26.8453 139.642 27.2507 140.389 27.784C141.157 28.3173 141.754 28.9573 142.181 29.704C142.607 30.4507 142.821 31.2827 142.821 32.2C142.821 33.16 142.575 34.0133 142.085 34.76C141.594 35.5067 140.943 36.136 140.133 36.648C139.322 37.16 138.373 37.5547 137.285 37.832C136.218 38.1093 135.098 38.248 133.925 38.248C133.626 38.248 133.242 38.2267 132.773 38.184C132.303 38.12 131.887 38.056 131.525 37.992V48.552H135.077V49H124.773V48.552ZM145.523 48.552H149.075V26.664H145.523V26.216H155.827V26.664H152.275V48.552H157.971C159.848 48.552 161.32 47.9653 162.387 46.792C163.453 45.6187 164.232 44.0187 164.723 41.992H165.075V49H145.523V48.552ZM176.837 29.896L173.317 39.208H180.357L176.837 29.896ZM166.437 48.552H169.253L177.893 25.64H178.661L187.365 48.552H190.213V49H180.357V48.552H183.909L180.549 39.656H173.125L169.765 48.552H173.317V49H166.437V48.552ZM193.573 48.552H197.125V26.664H195.269C194.843 26.664 194.363 26.7067 193.829 26.792C193.296 26.856 192.752 27.0587 192.197 27.4C191.664 27.7413 191.141 28.2853 190.629 29.032C190.139 29.7573 189.712 30.7707 189.349 32.072H188.997V26.216H208.453V32.072H208.101C207.739 30.7707 207.301 29.7573 206.789 29.032C206.299 28.2853 205.776 27.7413 205.221 27.4C204.688 27.0587 204.155 26.856 203.621 26.792C203.088 26.7067 202.608 26.664 202.181 26.664H200.325V48.552H203.877V49H193.573V48.552ZM210.616 48.552H214.168V26.664H210.616V26.216H228.92V31.752H228.568C228.291 30.92 227.992 30.1947 227.672 29.576C227.352 28.936 226.968 28.4027 226.52 27.976C226.072 27.528 225.539 27.1973 224.92 26.984C224.302 26.7707 223.555 26.664 222.68 26.664H217.368V36.552H219.448C220.152 36.552 220.75 36.488 221.24 36.36C221.731 36.232 222.147 35.9973 222.488 35.656C222.851 35.2933 223.15 34.8133 223.384 34.216C223.64 33.5973 223.886 32.808 224.12 31.848H224.472V41.8H224.12C223.971 41.1813 223.811 40.584 223.64 40.008C223.491 39.432 223.267 38.92 222.968 38.472C222.691 38.024 222.307 37.672 221.816 37.416C221.347 37.1387 220.728 37 219.96 37H217.368V48.552H223.416C224.59 48.552 225.56 48.3067 226.328 47.816C227.118 47.304 227.758 46.7067 228.248 46.024C228.739 45.32 229.102 44.5947 229.336 43.848C229.571 43.1013 229.72 42.4827 229.784 41.992H230.136V49H210.616V48.552Z" fill="#1D1D1D"/>
<path d="M95.3014 69.832H96.6334V61.624H95.3014V61.456H102.165V63.532H102.033C101.929 63.22 101.817 62.948 101.697 62.716C101.577 62.476 101.433 62.276 101.265 62.116C101.097 61.948 100.897 61.824 100.665 61.744C100.433 61.664 100.153 61.624 99.8254 61.624H97.8334V65.332H98.6134C98.8774 65.332 99.1014 65.308 99.2854 65.26C99.4694 65.212 99.6254 65.124 99.7534 64.996C99.8894 64.86 100.001 64.68 100.089 64.456C100.185 64.224 100.277 63.928 100.365 63.568H100.497V67.3H100.365C100.309 67.068 100.249 66.844 100.185 66.628C100.129 66.412 100.045 66.22 99.9334 66.052C99.8294 65.884 99.6854 65.752 99.5014 65.656C99.3254 65.552 99.0934 65.5 98.8054 65.5H97.8334V69.832H100.101C100.541 69.832 100.905 69.74 101.193 69.556C101.489 69.364 101.729 69.14 101.913 68.884C102.097 68.62 102.233 68.348 102.321 68.068C102.409 67.788 102.465 67.556 102.489 67.372H102.621V70H95.3014V69.832ZM104.291 67.42H104.423C104.511 67.852 104.623 68.216 104.759 68.512C104.903 68.808 105.059 69.052 105.227 69.244C105.395 69.436 105.571 69.584 105.755 69.688C105.939 69.792 106.123 69.868 106.307 69.916C106.499 69.964 106.679 69.992 106.847 70C107.023 70.008 107.187 70.012 107.339 70.012C107.763 70.012 108.111 69.948 108.383 69.82C108.655 69.692 108.871 69.532 109.031 69.34C109.191 69.14 109.303 68.928 109.367 68.704C109.431 68.472 109.463 68.26 109.463 68.068C109.463 67.788 109.411 67.548 109.307 67.348C109.203 67.148 109.071 66.98 108.911 66.844C108.751 66.7 108.575 66.584 108.383 66.496C108.199 66.408 108.023 66.34 107.855 66.292L106.475 65.872C105.827 65.672 105.335 65.408 104.999 65.08C104.671 64.752 104.507 64.312 104.507 63.76C104.507 63.4 104.571 63.068 104.699 62.764C104.827 62.452 105.007 62.184 105.239 61.96C105.471 61.736 105.747 61.56 106.067 61.432C106.395 61.304 106.751 61.24 107.135 61.24C107.415 61.24 107.647 61.264 107.831 61.312C108.023 61.36 108.187 61.416 108.323 61.48C108.459 61.536 108.579 61.588 108.683 61.636C108.795 61.684 108.907 61.708 109.019 61.708C109.123 61.708 109.191 61.696 109.223 61.672C109.263 61.64 109.315 61.568 109.379 61.456H109.547V63.628H109.403C109.355 63.34 109.271 63.064 109.151 62.8C109.039 62.528 108.891 62.292 108.707 62.092C108.523 61.884 108.299 61.72 108.035 61.6C107.779 61.472 107.479 61.408 107.135 61.408C106.943 61.408 106.731 61.436 106.499 61.492C106.267 61.54 106.051 61.628 105.851 61.756C105.651 61.884 105.483 62.052 105.347 62.26C105.219 62.468 105.155 62.732 105.155 63.052C105.155 63.308 105.207 63.528 105.311 63.712C105.415 63.888 105.547 64.04 105.707 64.168C105.875 64.288 106.059 64.392 106.259 64.48C106.467 64.56 106.675 64.632 106.883 64.696L108.335 65.152C108.487 65.2 108.679 65.264 108.911 65.344C109.143 65.424 109.367 65.544 109.583 65.704C109.807 65.864 109.995 66.076 110.147 66.34C110.307 66.604 110.387 66.94 110.387 67.348C110.387 67.724 110.315 68.084 110.171 68.428C110.035 68.764 109.835 69.064 109.571 69.328C109.307 69.584 108.987 69.792 108.611 69.952C108.235 70.104 107.811 70.18 107.339 70.18C107.171 70.18 107.023 70.176 106.895 70.168C106.767 70.168 106.647 70.16 106.535 70.144C106.423 70.128 106.311 70.108 106.199 70.084C106.087 70.068 105.963 70.04 105.827 70C105.667 69.952 105.495 69.896 105.311 69.832C105.127 69.768 104.967 69.736 104.831 69.736C104.711 69.736 104.627 69.76 104.579 69.808C104.539 69.856 104.503 69.92 104.471 70H104.291V67.42ZM113.567 69.832H114.899V61.624H114.203C114.043 61.624 113.863 61.64 113.663 61.672C113.463 61.696 113.259 61.772 113.051 61.9C112.851 62.028 112.655 62.232 112.463 62.512C112.279 62.784 112.119 63.164 111.983 63.652H111.851V61.456H119.147V63.652H119.015C118.879 63.164 118.715 62.784 118.523 62.512C118.339 62.232 118.143 62.028 117.935 61.9C117.735 61.772 117.535 61.696 117.335 61.672C117.135 61.64 116.955 61.624 116.795 61.624H116.099V69.832H117.431V70H113.567V69.832ZM119.13 69.496C119.13 69.32 119.19 69.172 119.31 69.052C119.438 68.924 119.59 68.86 119.766 68.86C119.942 68.86 120.09 68.924 120.21 69.052C120.338 69.172 120.402 69.32 120.402 69.496C120.402 69.672 120.338 69.824 120.21 69.952C120.09 70.072 119.942 70.132 119.766 70.132C119.59 70.132 119.438 70.072 119.31 69.952C119.19 69.824 119.13 69.672 119.13 69.496ZM125.609 69.832H126.941V62.224C126.821 62.312 126.685 62.4 126.533 62.488L125.165 63.268L125.069 63.112C125.597 62.816 126.077 62.532 126.509 62.26C126.941 61.988 127.349 61.66 127.733 61.276H127.973V69.832H129.305V70H125.609V69.832ZM131.843 64.06C131.843 64.38 131.855 64.692 131.879 64.996C131.911 65.3 131.975 65.572 132.071 65.812C132.175 66.052 132.327 66.248 132.527 66.4C132.727 66.544 132.999 66.616 133.343 66.616C133.431 66.616 133.563 66.6 133.739 66.568C133.923 66.528 134.107 66.448 134.291 66.328C134.475 66.208 134.635 66.032 134.771 65.8C134.907 65.56 134.975 65.24 134.975 64.84C134.975 64.608 134.967 64.356 134.951 64.084C134.935 63.804 134.911 63.536 134.879 63.28C134.847 63.016 134.803 62.776 134.747 62.56C134.699 62.336 134.635 62.16 134.555 62.032C134.483 61.904 134.363 61.776 134.195 61.648C134.027 61.512 133.759 61.444 133.391 61.444C133.079 61.444 132.823 61.504 132.623 61.624C132.423 61.744 132.263 61.916 132.143 62.14C132.031 62.364 131.951 62.64 131.903 62.968C131.863 63.288 131.843 63.652 131.843 64.06ZM130.643 64.072C130.643 63.688 130.723 63.328 130.883 62.992C131.051 62.648 131.263 62.352 131.519 62.104C131.783 61.848 132.075 61.648 132.395 61.504C132.723 61.352 133.051 61.276 133.379 61.276C133.707 61.276 134.031 61.336 134.351 61.456C134.679 61.576 134.971 61.788 135.227 62.092C135.491 62.388 135.703 62.792 135.863 63.304C136.023 63.808 136.103 64.448 136.103 65.224C136.103 65.96 136.047 66.596 135.935 67.132C135.823 67.66 135.675 68.108 135.491 68.476C135.315 68.844 135.111 69.14 134.879 69.364C134.655 69.58 134.427 69.748 134.195 69.868C133.963 69.988 133.739 70.068 133.523 70.108C133.315 70.148 133.135 70.168 132.983 70.168C132.743 70.168 132.503 70.132 132.263 70.06C132.023 69.996 131.807 69.904 131.615 69.784C131.423 69.664 131.267 69.516 131.147 69.34C131.035 69.164 130.979 68.968 130.979 68.752C130.979 68.48 131.047 68.296 131.183 68.2C131.319 68.096 131.475 68.044 131.651 68.044C131.843 68.044 131.979 68.092 132.059 68.188C132.139 68.276 132.179 68.368 132.179 68.464C132.179 68.528 132.163 68.588 132.131 68.644C132.099 68.7 132.063 68.76 132.023 68.824C131.991 68.888 131.959 68.964 131.927 69.052C131.903 69.132 131.891 69.232 131.891 69.352C131.891 69.536 131.975 69.692 132.143 69.82C132.319 69.94 132.579 70 132.923 70C133.243 70 133.527 69.936 133.775 69.808C134.031 69.672 134.247 69.444 134.423 69.124C134.599 68.804 134.731 68.376 134.819 67.84C134.915 67.304 134.963 66.632 134.963 65.824H134.939C134.899 65.904 134.835 66 134.747 66.112C134.667 66.216 134.559 66.32 134.423 66.424C134.287 66.52 134.123 66.604 133.931 66.676C133.739 66.748 133.515 66.784 133.259 66.784C132.851 66.784 132.483 66.704 132.155 66.544C131.835 66.376 131.563 66.164 131.339 65.908C131.115 65.644 130.943 65.352 130.823 65.032C130.703 64.704 130.643 64.384 130.643 64.072ZM138.078 64.06C138.078 64.38 138.09 64.692 138.114 64.996C138.146 65.3 138.21 65.572 138.306 65.812C138.41 66.052 138.562 66.248 138.762 66.4C138.962 66.544 139.234 66.616 139.578 66.616C139.666 66.616 139.798 66.6 139.974 66.568C140.158 66.528 140.342 66.448 140.526 66.328C140.71 66.208 140.87 66.032 141.006 65.8C141.142 65.56 141.21 65.24 141.21 64.84C141.21 64.608 141.202 64.356 141.186 64.084C141.17 63.804 141.146 63.536 141.114 63.28C141.082 63.016 141.038 62.776 140.982 62.56C140.934 62.336 140.87 62.16 140.79 62.032C140.718 61.904 140.598 61.776 140.43 61.648C140.262 61.512 139.994 61.444 139.626 61.444C139.314 61.444 139.058 61.504 138.858 61.624C138.658 61.744 138.498 61.916 138.378 62.14C138.266 62.364 138.186 62.64 138.138 62.968C138.098 63.288 138.078 63.652 138.078 64.06ZM136.878 64.072C136.878 63.688 136.958 63.328 137.118 62.992C137.286 62.648 137.498 62.352 137.754 62.104C138.018 61.848 138.31 61.648 138.63 61.504C138.958 61.352 139.286 61.276 139.614 61.276C139.942 61.276 140.266 61.336 140.586 61.456C140.914 61.576 141.206 61.788 141.462 62.092C141.726 62.388 141.938 62.792 142.098 63.304C142.258 63.808 142.338 64.448 142.338 65.224C142.338 65.96 142.282 66.596 142.17 67.132C142.058 67.66 141.91 68.108 141.726 68.476C141.55 68.844 141.346 69.14 141.114 69.364C140.89 69.58 140.662 69.748 140.43 69.868C140.198 69.988 139.974 70.068 139.758 70.108C139.55 70.148 139.37 70.168 139.218 70.168C138.978 70.168 138.738 70.132 138.498 70.06C138.258 69.996 138.042 69.904 137.85 69.784C137.658 69.664 137.502 69.516 137.382 69.34C137.27 69.164 137.214 68.968 137.214 68.752C137.214 68.48 137.282 68.296 137.418 68.2C137.554 68.096 137.71 68.044 137.886 68.044C138.078 68.044 138.214 68.092 138.294 68.188C138.374 68.276 138.414 68.368 138.414 68.464C138.414 68.528 138.398 68.588 138.366 68.644C138.334 68.7 138.298 68.76 138.258 68.824C138.226 68.888 138.194 68.964 138.162 69.052C138.138 69.132 138.126 69.232 138.126 69.352C138.126 69.536 138.21 69.692 138.378 69.82C138.554 69.94 138.814 70 139.158 70C139.478 70 139.762 69.936 140.01 69.808C140.266 69.672 140.482 69.444 140.658 69.124C140.834 68.804 140.966 68.376 141.054 67.84C141.15 67.304 141.198 66.632 141.198 65.824H141.174C141.134 65.904 141.07 66 140.982 66.112C140.902 66.216 140.794 66.32 140.658 66.424C140.522 66.52 140.358 66.604 140.166 66.676C139.974 66.748 139.75 66.784 139.494 66.784C139.086 66.784 138.718 66.704 138.39 66.544C138.07 66.376 137.798 66.164 137.574 65.908C137.35 65.644 137.178 65.352 137.058 65.032C136.938 64.704 136.878 64.384 136.878 64.072ZM143.64 61.456H148.308C148.268 62.152 148.164 62.852 147.996 63.556C147.828 64.26 147.644 64.912 147.444 65.512C147.244 66.112 147.052 66.628 146.868 67.06C146.684 67.484 146.56 67.764 146.496 67.9C146.24 68.452 146.024 68.884 145.848 69.196C145.672 69.5 145.516 69.724 145.38 69.868C145.252 70.012 145.132 70.096 145.02 70.12C144.916 70.152 144.808 70.168 144.696 70.168C144.584 70.168 144.464 70.136 144.336 70.072C144.208 70.008 144.144 69.908 144.144 69.772C144.144 69.62 144.192 69.5 144.288 69.412C144.392 69.316 144.516 69.196 144.66 69.052C145.004 68.716 145.292 68.416 145.524 68.152C145.756 67.88 145.956 67.624 146.124 67.384C146.292 67.136 146.44 66.892 146.568 66.652C146.696 66.412 146.828 66.152 146.964 65.872C147.172 65.44 147.344 65.028 147.48 64.636C147.616 64.244 147.72 63.896 147.792 63.592C147.872 63.28 147.928 63.024 147.96 62.824C147.992 62.616 148.012 62.48 148.02 62.416H145.056C144.648 62.416 144.344 62.532 144.144 62.764C143.944 62.988 143.82 63.292 143.772 63.676H143.64V61.456Z" fill="#666666"/>
<path d="M62 76H182" stroke="#1D1D1D" stroke-width="0.5"/>
<path d="M52 79H192" stroke="#1D1D1D" stroke-width="0.5"/>
</svg>
