<svg width="258" height="119" viewBox="0 0 258 119" fill="none" xmlns="http://www.w3.org/2000/svg">
<path d="M7 2C20.3333 2 30.3333 8.66667 37 22C43.6667 35.3333 40.3333 48.6667 27 62C13.6667 75.3333 10.3333 88.6667 17 102" stroke="#1B3A57" stroke-width="3" stroke-linecap="round"/>
<path d="M17 117C25.2843 117 32 110.284 32 102C32 93.7157 25.2843 87 17 87C8.71573 87 2 93.7157 2 102C2 110.284 8.71573 117 17 117Z" stroke="#1B3A57" stroke-width="3"/>
<path opacity="0.7" d="M32 102C42 95.3333 48.6667 87 52 77C55.3333 67 53.6667 58.6667 47 52" stroke="#1B3A57" stroke-width="2"/>
<path opacity="0.5" d="M12 92C15.3333 95.3333 15.3333 98.6667 12 102" stroke="#1B3A57" stroke-width="1.5"/>
<path d="M57.6989 18.4545H62.1136L72.4943 43.8097H72.8523L83.233 18.4545H87.6477V49H84.1875V25.7926H83.8892L74.3438 49H71.0028L61.4574 25.7926H61.1591V49H57.6989V18.4545ZM96.3169 49H92.4391L103.655 18.4545H107.473L118.689 49H114.811L105.683 23.2869H105.445L96.3169 49ZM97.7488 37.0682H113.379V40.3494H97.7488V37.0682ZM123.447 49V18.4545H141.882V21.7358H127.146V32.0568H140.927V35.3381H127.146V45.7188H142.12V49H123.447ZM165.253 26.0909C165.074 24.5795 164.348 23.4062 163.075 22.571C161.803 21.7358 160.242 21.3182 158.392 21.3182C157.04 21.3182 155.857 21.5369 154.843 21.9744C153.838 22.4119 153.053 23.0135 152.486 23.7791C151.929 24.5447 151.651 25.4148 151.651 26.3892C151.651 27.2045 151.845 27.9055 152.232 28.4922C152.63 29.0689 153.137 29.5511 153.754 29.9389C154.37 30.3168 155.017 30.63 155.693 30.8786C156.369 31.1172 156.99 31.3111 157.557 31.4602L160.659 32.2955C161.455 32.5043 162.34 32.7926 163.314 33.1605C164.298 33.5284 165.238 34.0305 166.133 34.6669C167.038 35.2933 167.784 36.0987 168.37 37.0831C168.957 38.0675 169.25 39.2756 169.25 40.7074C169.25 42.358 168.818 43.8494 167.953 45.1818C167.097 46.5142 165.845 47.5732 164.194 48.3587C162.553 49.1442 160.56 49.5369 158.213 49.5369C156.026 49.5369 154.132 49.1839 152.531 48.478C150.94 47.772 149.687 46.7876 148.772 45.5249C147.867 44.2621 147.355 42.7955 147.236 41.125H151.054C151.154 42.2784 151.541 43.233 152.218 43.9886C152.904 44.7344 153.769 45.2912 154.813 45.6591C155.867 46.017 157 46.196 158.213 46.196C159.625 46.196 160.893 45.9673 162.017 45.5099C163.14 45.0426 164.03 44.3963 164.686 43.571C165.343 42.7358 165.671 41.7614 165.671 40.6477C165.671 39.6335 165.387 38.8082 164.82 38.1719C164.254 37.5355 163.508 37.0185 162.583 36.6207C161.659 36.223 160.659 35.875 159.585 35.5767L155.827 34.5028C153.441 33.8168 151.551 32.8374 150.159 31.5646C148.767 30.2919 148.071 28.6264 148.071 26.5682C148.071 24.858 148.534 23.3665 149.458 22.0938C150.393 20.8111 151.646 19.8168 153.217 19.1108C154.798 18.3949 156.563 18.0369 158.512 18.0369C160.48 18.0369 162.23 18.3899 163.762 19.0959C165.293 19.7919 166.506 20.7464 167.401 21.9595C168.306 23.1726 168.783 24.5497 168.833 26.0909H165.253ZM173.661 21.7358V18.4545H196.57V21.7358H186.965V49H183.266V21.7358H173.661ZM202.279 49V18.4545H212.6C214.986 18.4545 216.945 18.8622 218.476 19.6776C220.008 20.483 221.141 21.5916 221.877 23.0036C222.613 24.4155 222.981 26.0213 222.981 27.821C222.981 29.6207 222.613 31.2166 221.877 32.6087C221.141 34.0007 220.013 35.0945 218.491 35.8899C216.97 36.6754 215.026 37.0682 212.66 37.0682H204.307V33.7273H212.54C214.171 33.7273 215.483 33.4886 216.478 33.0114C217.482 32.5341 218.208 31.858 218.655 30.983C219.113 30.098 219.341 29.044 219.341 27.821C219.341 26.598 219.113 25.5291 218.655 24.6143C218.198 23.6996 217.467 22.9936 216.463 22.4964C215.459 21.9893 214.131 21.7358 212.481 21.7358H205.978V49H202.279ZM216.657 35.2784L224.174 49H219.878L212.481 35.2784H216.657ZM254.917 33.7273C254.917 36.9489 254.335 39.733 253.172 42.0795C252.009 44.4261 250.413 46.2358 248.384 47.5085C246.356 48.7812 244.039 49.4176 241.434 49.4176C238.829 49.4176 236.512 48.7812 234.484 47.5085C232.455 46.2358 230.859 44.4261 229.696 42.0795C228.533 39.733 227.951 36.9489 227.951 33.7273C227.951 30.5057 228.533 27.7216 229.696 25.375C230.859 23.0284 232.455 21.2188 234.484 19.946C236.512 18.6733 238.829 18.0369 241.434 18.0369C244.039 18.0369 246.356 18.6733 248.384 19.946C250.413 21.2188 252.009 23.0284 253.172 25.375C254.335 27.7216 254.917 30.5057 254.917 33.7273ZM251.337 33.7273C251.337 31.0824 250.895 28.8501 250.01 27.0305C249.135 25.2109 247.947 23.8338 246.445 22.8991C244.954 21.9645 243.283 21.4972 241.434 21.4972C239.585 21.4972 237.909 21.9645 236.408 22.8991C234.916 23.8338 233.728 25.2109 232.843 27.0305C231.968 28.8501 231.531 31.0824 231.531 33.7273C231.531 36.3722 231.968 38.6044 232.843 40.424C233.728 42.2436 234.916 43.6207 236.408 44.5554C237.909 45.4901 239.585 45.9574 241.434 45.9574C243.283 45.9574 244.954 45.4901 246.445 44.5554C247.947 43.6207 249.135 42.2436 250.01 40.424C250.895 38.6044 251.337 36.3722 251.337 33.7273Z" fill="#1B3A57"/>
<path d="M74.1113 80.248C73.8926 80.2754 73.5964 80.321 73.2227 80.3848C72.8581 80.4395 72.5618 80.5215 72.334 80.6309C72.0605 80.7676 71.8646 80.9635 71.7461 81.2188C71.6367 81.4648 71.582 81.7565 71.582 82.0938V83.5977C71.582 84.6914 71.5866 85.4297 71.5957 85.8125C71.6139 86.1953 71.6322 86.5098 71.6504 86.7559C70.4382 87.3027 69.2305 87.722 68.0273 88.0137C66.8242 88.3053 65.6439 88.4512 64.4863 88.4512C63.2467 88.4512 62.0527 88.2188 60.9043 87.7539C59.7559 87.2891 58.7533 86.6283 57.8965 85.7715C57.0306 84.9056 56.3424 83.8529 55.832 82.6133C55.3216 81.3737 55.0664 79.9883 55.0664 78.457C55.0664 76.9805 55.3079 75.6133 55.791 74.3555C56.2832 73.0885 56.9759 71.9902 57.8691 71.0605C58.735 70.1491 59.765 69.4427 60.959 68.9414C62.1621 68.431 63.4473 68.1758 64.8145 68.1758C65.9082 68.1758 66.8607 68.3079 67.6719 68.5723C68.4831 68.8366 69.1986 69.1556 69.8184 69.5293L70.3789 68.5996H71.4727L71.5957 75.3809H70.4746C70.2832 74.6335 70.0462 73.8997 69.7637 73.1797C69.4811 72.4505 69.1165 71.7988 68.6699 71.2246C68.2233 70.6504 67.6764 70.1947 67.0293 69.8574C66.3913 69.5111 65.6257 69.3379 64.7324 69.3379C63.7572 69.3379 62.8867 69.5384 62.1211 69.9395C61.3555 70.3314 60.6901 70.9193 60.125 71.7031C59.569 72.4596 59.1406 73.403 58.8398 74.5332C58.5391 75.6634 58.3887 76.9258 58.3887 78.3203C58.3887 79.5508 58.5345 80.7129 58.8262 81.8066C59.127 82.8913 59.5599 83.8301 60.125 84.623C60.6901 85.4342 61.3965 86.0723 62.2441 86.5371C63.0918 87.002 64.0534 87.2344 65.1289 87.2344C65.931 87.2344 66.6602 87.1113 67.3164 86.8652C67.9818 86.6191 68.4512 86.3594 68.7246 86.0859C68.7975 85.612 68.834 85.1335 68.834 84.6504C68.8431 84.1673 68.8477 83.7572 68.8477 83.4199V82.3535C68.8477 81.9707 68.793 81.6335 68.6836 81.3418C68.5833 81.041 68.3691 80.8223 68.041 80.6855C67.7402 80.5488 67.3301 80.4486 66.8105 80.3848C66.3001 80.3118 65.8991 80.2663 65.6074 80.248V79.25H74.1113V80.248ZM91.2285 82.2305L90.8184 88H75.6562V87.0293C75.875 87.0111 76.1895 86.9792 76.5996 86.9336C77.0189 86.888 77.3105 86.8288 77.4746 86.7559C77.748 86.6374 77.944 86.4642 78.0625 86.2363C78.1901 86.0085 78.2539 85.7168 78.2539 85.3613V71.4707C78.2539 71.1608 78.1992 70.8874 78.0898 70.6504C77.9896 70.4134 77.7845 70.222 77.4746 70.0762C77.265 69.9668 76.9688 69.862 76.5859 69.7617C76.2122 69.6523 75.9023 69.5885 75.6562 69.5703V68.5996H83.8457V69.5703C83.5905 69.5794 83.2578 69.625 82.8477 69.707C82.4466 69.7891 82.1549 69.862 81.9727 69.9258C81.6628 70.0352 81.4486 70.222 81.3301 70.4863C81.2207 70.7507 81.166 71.0332 81.166 71.334V84.3633C81.166 84.9648 81.1934 85.4342 81.248 85.7715C81.3118 86.0996 81.4531 86.3548 81.6719 86.5371C81.8815 86.7012 82.1914 86.8105 82.6016 86.8652C83.0208 86.9108 83.6042 86.9336 84.3516 86.9336C84.6888 86.9336 85.0397 86.9245 85.4043 86.9062C85.7689 86.888 86.1152 86.8516 86.4434 86.7969C86.7624 86.7422 87.054 86.6693 87.3184 86.5781C87.5918 86.4779 87.7923 86.3548 87.9199 86.209C88.2936 85.7897 88.7266 85.1562 89.2188 84.3086C89.7201 83.4518 90.0664 82.7591 90.2578 82.2305H91.2285ZM110.643 88H102.562V87.0293C103.273 86.9837 103.861 86.8926 104.326 86.7559C104.8 86.6191 105.037 86.4505 105.037 86.25C105.037 86.168 105.028 86.0677 105.01 85.9492C104.992 85.8307 104.964 85.7259 104.928 85.6348L103.314 81.2871H96.5195C96.2643 81.9251 96.0547 82.4811 95.8906 82.9551C95.7357 83.429 95.5944 83.8665 95.4668 84.2676C95.3483 84.6595 95.2663 84.9785 95.2207 85.2246C95.1751 85.4707 95.1523 85.6712 95.1523 85.8262C95.1523 86.1908 95.4395 86.4733 96.0137 86.6738C96.5879 86.8743 97.235 86.9928 97.9551 87.0293V88H90.6543V87.0293C90.8913 87.0111 91.1875 86.9609 91.543 86.8789C91.8984 86.7878 92.1901 86.6693 92.418 86.5234C92.7826 86.2773 93.0651 86.0221 93.2656 85.7578C93.4661 85.4844 93.6621 85.1107 93.8535 84.6367C94.8288 82.2031 95.9043 79.4688 97.0801 76.4336C98.2559 73.3984 99.304 70.696 100.225 68.3262H101.318L107.785 85.0605C107.922 85.416 108.077 85.7031 108.25 85.9219C108.423 86.1406 108.665 86.3548 108.975 86.5645C109.184 86.6921 109.458 86.8014 109.795 86.8926C110.132 86.9746 110.415 87.0202 110.643 87.0293V88ZM102.822 80.0703L99.8828 72.5508L96.998 80.0703H102.822ZM123.412 79.0996C123.822 79.5553 124.123 80.0566 124.314 80.6035C124.515 81.1413 124.615 81.7702 124.615 82.4902C124.615 84.2038 123.982 85.6165 122.715 86.7285C121.448 87.8405 119.876 88.3965 117.998 88.3965C117.132 88.3965 116.266 88.2643 115.4 88C114.535 87.7266 113.787 87.3984 113.158 87.0156L112.57 88.0137H111.477L111.285 81.3691H112.393C112.62 82.1895 112.885 82.9323 113.186 83.5977C113.495 84.2539 113.901 84.8691 114.402 85.4434C114.876 85.9811 115.428 86.4095 116.057 86.7285C116.695 87.0475 117.433 87.207 118.271 87.207C118.9 87.207 119.447 87.125 119.912 86.9609C120.386 86.7969 120.769 86.5645 121.061 86.2637C121.352 85.9629 121.566 85.612 121.703 85.2109C121.849 84.8008 121.922 84.3314 121.922 83.8027C121.922 83.028 121.703 82.3079 121.266 81.6426C120.828 80.9681 120.176 80.4577 119.311 80.1113C118.718 79.8743 118.039 79.6146 117.273 79.332C116.508 79.0404 115.847 78.7669 115.291 78.5117C114.197 78.0195 113.345 77.377 112.734 76.584C112.133 75.7819 111.832 74.7383 111.832 73.4531C111.832 72.7148 111.982 72.0267 112.283 71.3887C112.584 70.7507 113.012 70.181 113.568 69.6797C114.097 69.2057 114.721 68.8366 115.441 68.5723C116.161 68.2988 116.913 68.1621 117.697 68.1621C118.59 68.1621 119.388 68.2988 120.09 68.5723C120.801 68.8457 121.448 69.1647 122.031 69.5293L122.592 68.5996H123.686L123.795 75.0391H122.688C122.487 74.3008 122.259 73.5944 122.004 72.9199C121.758 72.2454 121.434 71.6348 121.033 71.0879C120.641 70.5592 120.163 70.14 119.598 69.8301C119.033 69.5111 118.34 69.3516 117.52 69.3516C116.654 69.3516 115.915 69.6296 115.305 70.1855C114.694 70.7415 114.389 71.4206 114.389 72.2227C114.389 73.0612 114.585 73.7585 114.977 74.3145C115.368 74.8613 115.938 75.3125 116.686 75.668C117.351 75.987 118.003 76.265 118.641 76.502C119.288 76.7298 119.912 76.9759 120.514 77.2402C121.061 77.4772 121.585 77.7461 122.086 78.0469C122.596 78.3477 123.038 78.6986 123.412 79.0996ZM139.135 79.0996C139.545 79.5553 139.846 80.0566 140.037 80.6035C140.238 81.1413 140.338 81.7702 140.338 82.4902C140.338 84.2038 139.704 85.6165 138.438 86.7285C137.171 87.8405 135.598 88.3965 133.721 88.3965C132.855 88.3965 131.989 88.2643 131.123 88C130.257 87.7266 129.51 87.3984 128.881 87.0156L128.293 88.0137H127.199L127.008 81.3691H128.115C128.343 82.1895 128.607 82.9323 128.908 83.5977C129.218 84.2539 129.624 84.8691 130.125 85.4434C130.599 85.9811 131.15 86.4095 131.779 86.7285C132.417 87.0475 133.156 87.207 133.994 87.207C134.623 87.207 135.17 87.125 135.635 86.9609C136.109 86.7969 136.492 86.5645 136.783 86.2637C137.075 85.9629 137.289 85.612 137.426 85.2109C137.572 84.8008 137.645 84.3314 137.645 83.8027C137.645 83.028 137.426 82.3079 136.988 81.6426C136.551 80.9681 135.899 80.4577 135.033 80.1113C134.441 79.8743 133.762 79.6146 132.996 79.332C132.23 79.0404 131.57 78.7669 131.014 78.5117C129.92 78.0195 129.068 77.377 128.457 76.584C127.855 75.7819 127.555 74.7383 127.555 73.4531C127.555 72.7148 127.705 72.0267 128.006 71.3887C128.307 70.7507 128.735 70.181 129.291 69.6797C129.82 69.2057 130.444 68.8366 131.164 68.5723C131.884 68.2988 132.636 68.1621 133.42 68.1621C134.313 68.1621 135.111 68.2988 135.812 68.5723C136.523 68.8457 137.171 69.1647 137.754 69.5293L138.314 68.5996H139.408L139.518 75.0391H138.41C138.21 74.3008 137.982 73.5944 137.727 72.9199C137.48 72.2454 137.157 71.6348 136.756 71.0879C136.364 70.5592 135.885 70.14 135.32 69.8301C134.755 69.5111 134.062 69.3516 133.242 69.3516C132.376 69.3516 131.638 69.6296 131.027 70.1855C130.417 70.7415 130.111 71.4206 130.111 72.2227C130.111 73.0612 130.307 73.7585 130.699 74.3145C131.091 74.8613 131.661 75.3125 132.408 75.668C133.074 75.987 133.725 76.265 134.363 76.502C135.01 76.7298 135.635 76.9759 136.236 77.2402C136.783 77.4772 137.307 77.7461 137.809 78.0469C138.319 78.3477 138.761 78.6986 139.135 79.0996ZM175.926 69.5703C175.698 69.5794 175.434 69.6341 175.133 69.7344C174.832 69.8255 174.554 69.9486 174.299 70.1035C173.98 70.304 173.72 70.5365 173.52 70.8008C173.328 71.056 173.16 71.416 173.014 71.8809C172.367 73.9863 171.615 76.4473 170.758 79.2637C169.901 82.071 168.976 85.0651 167.982 88.2461H166.725L161.83 73.3164L156.73 88.2461H155.527C154.625 85.056 153.691 81.7474 152.725 78.3203C151.758 74.8841 151.111 72.5827 150.783 71.416C150.701 71.1335 150.578 70.8828 150.414 70.6641C150.259 70.4453 150.045 70.2448 149.771 70.0625C149.544 69.9076 149.275 69.7936 148.965 69.7207C148.664 69.6387 148.391 69.5885 148.145 69.5703V68.5996H156.061V69.5703C155.368 69.6068 154.775 69.6751 154.283 69.7754C153.8 69.8757 153.559 70.0443 153.559 70.2812C153.559 70.3724 153.572 70.4954 153.6 70.6504C153.627 70.7962 153.65 70.9147 153.668 71.0059C153.878 71.8079 154.247 73.1341 154.775 74.9844C155.313 76.8255 156.106 79.5872 157.154 83.2695L161.994 68.873H163.334L168.215 83.584C168.871 81.3236 169.436 79.3503 169.91 77.6641C170.384 75.9688 170.776 74.5195 171.086 73.3164C171.305 72.4688 171.441 71.89 171.496 71.5801C171.551 71.2611 171.578 70.9922 171.578 70.7734C171.578 70.4635 171.364 70.2038 170.936 69.9941C170.516 69.7845 169.833 69.6432 168.885 69.5703V68.5996H175.926V69.5703ZM192.523 70.8965C193.38 71.7897 194.05 72.8698 194.533 74.1367C195.016 75.3945 195.258 76.7891 195.258 78.3203C195.258 79.8607 195.012 81.2598 194.52 82.5176C194.027 83.7754 193.344 84.8464 192.469 85.7305C191.621 86.6055 190.637 87.2799 189.516 87.7539C188.395 88.2279 187.201 88.4648 185.934 88.4648C184.585 88.4648 183.336 88.2142 182.188 87.7129C181.048 87.2025 180.068 86.4961 179.248 85.5938C178.428 84.7096 177.781 83.6387 177.307 82.3809C176.842 81.1139 176.609 79.7604 176.609 78.3203C176.609 76.7435 176.855 75.3398 177.348 74.1094C177.84 72.8698 178.519 71.7988 179.385 70.8965C180.242 70.0033 181.235 69.3197 182.365 68.8457C183.505 68.3717 184.694 68.1348 185.934 68.1348C187.219 68.1348 188.431 68.3763 189.57 68.8594C190.71 69.3424 191.694 70.0215 192.523 70.8965ZM190.486 84.6504C190.997 83.821 191.366 82.8822 191.594 81.834C191.831 80.7858 191.949 79.6146 191.949 78.3203C191.949 76.9896 191.817 75.7682 191.553 74.6562C191.298 73.5443 190.919 72.5964 190.418 71.8125C189.917 71.0378 189.288 70.4362 188.531 70.0078C187.775 69.5703 186.909 69.3516 185.934 69.3516C184.84 69.3516 183.91 69.6022 183.145 70.1035C182.379 70.6048 181.755 71.2747 181.271 72.1133C180.816 72.9154 180.474 73.8542 180.246 74.9297C180.027 76.0052 179.918 77.1354 179.918 78.3203C179.918 79.6328 180.036 80.8177 180.273 81.875C180.51 82.9323 180.884 83.8711 181.395 84.6914C181.887 85.4935 182.507 86.1224 183.254 86.5781C184.001 87.0247 184.895 87.248 185.934 87.248C186.909 87.248 187.788 87.0202 188.572 86.5645C189.356 86.1087 189.994 85.4707 190.486 84.6504ZM216.586 88H211.363C210.206 86.1862 209.158 84.6185 208.219 83.2969C207.289 81.9753 206.277 80.6126 205.184 79.209H203.201V85.3613C203.201 85.6803 203.251 85.9629 203.352 86.209C203.452 86.446 203.666 86.6283 203.994 86.7559C204.158 86.8197 204.445 86.8789 204.855 86.9336C205.266 86.9883 205.612 87.0202 205.895 87.0293V88H197.691V87.0293C197.91 87.0111 198.225 86.9792 198.635 86.9336C199.054 86.888 199.346 86.8288 199.51 86.7559C199.783 86.6374 199.979 86.4642 200.098 86.2363C200.225 86.0085 200.289 85.7168 200.289 85.3613V71.334C200.289 71.015 200.243 70.7324 200.152 70.4863C200.061 70.2402 199.847 70.0534 199.51 69.9258C199.282 69.8438 198.986 69.7708 198.621 69.707C198.257 69.6341 197.947 69.5885 197.691 69.5703V68.5996H206.646C207.467 68.5996 208.237 68.6862 208.957 68.8594C209.677 69.0234 210.329 69.2923 210.912 69.666C211.477 70.0306 211.928 70.5091 212.266 71.1016C212.603 71.6849 212.771 72.3913 212.771 73.2207C212.771 73.9681 212.658 74.6289 212.43 75.2031C212.202 75.7773 211.865 76.2741 211.418 76.6934C211.008 77.0853 210.516 77.4271 209.941 77.7188C209.367 78.0013 208.734 78.2428 208.041 78.4434C208.998 79.7103 209.791 80.7767 210.42 81.6426C211.058 82.5085 211.837 83.5612 212.758 84.8008C213.159 85.3477 213.519 85.7533 213.838 86.0176C214.166 86.2728 214.49 86.4824 214.809 86.6465C215.046 86.765 215.342 86.8561 215.697 86.9199C216.053 86.9837 216.349 87.0202 216.586 87.0293V88ZM209.395 73.5352C209.395 72.3594 209.057 71.4297 208.383 70.7461C207.708 70.0534 206.756 69.707 205.525 69.707H203.201V78.0332H204.992C206.25 78.0332 207.298 77.6322 208.137 76.8301C208.975 76.0189 209.395 74.9206 209.395 73.5352ZM236.178 88H230.736C229.688 86.3776 228.521 84.7689 227.236 83.1738C225.96 81.5697 224.62 80.0156 223.217 78.5117H222.861V85.2656C222.861 85.5664 222.916 85.8353 223.025 86.0723C223.144 86.3092 223.354 86.5007 223.654 86.6465C223.8 86.7103 224.069 86.7878 224.461 86.8789C224.862 86.9701 225.195 87.0202 225.459 87.0293V88H217.406V87.0293C217.616 87.0111 217.921 86.9837 218.322 86.9473C218.723 86.9108 219.006 86.8561 219.17 86.7832C219.443 86.6647 219.639 86.4915 219.758 86.2637C219.885 86.0267 219.949 85.7441 219.949 85.416V71.416C219.949 71.1061 219.895 70.8372 219.785 70.6094C219.685 70.3815 219.48 70.1947 219.17 70.0488C218.924 69.9303 218.632 69.8255 218.295 69.7344C217.958 69.6432 217.661 69.5885 217.406 69.5703V68.5996H225.459V69.5703C225.204 69.5794 224.885 69.6204 224.502 69.6934C224.119 69.7663 223.837 69.8346 223.654 69.8984C223.344 70.0078 223.135 70.1901 223.025 70.4453C222.916 70.7005 222.861 70.9785 222.861 71.2793V77.9785H223.135C223.955 77.2858 224.762 76.5658 225.555 75.8184C226.348 75.0618 227.068 74.3099 227.715 73.5625C228.435 72.7331 228.959 72.0723 229.287 71.5801C229.624 71.0788 229.793 70.6367 229.793 70.2539C229.793 70.1172 229.706 70.0078 229.533 69.9258C229.369 69.8346 229.178 69.7617 228.959 69.707C228.704 69.6523 228.476 69.6204 228.275 69.6113C228.075 69.5931 227.911 69.5794 227.783 69.5703V68.5996H235.057V69.5703C235.029 69.5703 234.97 69.5749 234.879 69.584C234.788 69.5931 234.683 69.6022 234.564 69.6113C234.437 69.6204 234.309 69.6387 234.182 69.666C234.054 69.6934 233.89 69.7253 233.689 69.7617C233.37 69.8346 233.038 69.9531 232.691 70.1172C232.354 70.2721 232.076 70.4681 231.857 70.7051C230.919 71.7715 229.939 72.8743 228.918 74.0137C227.897 75.153 226.885 76.1921 225.883 77.1309C227.268 78.6986 228.412 80.0475 229.314 81.1777C230.226 82.3079 231.192 83.5156 232.213 84.8008C232.605 85.293 232.997 85.6895 233.389 85.9902C233.781 86.2819 234.118 86.5007 234.4 86.6465C234.637 86.765 234.934 86.8561 235.289 86.9199C235.645 86.9837 235.941 87.0202 236.178 87.0293V88ZM248.865 79.0996C249.275 79.5553 249.576 80.0566 249.768 80.6035C249.968 81.1413 250.068 81.7702 250.068 82.4902C250.068 84.2038 249.435 85.6165 248.168 86.7285C246.901 87.8405 245.329 88.3965 243.451 88.3965C242.585 88.3965 241.719 88.2643 240.854 88C239.988 87.7266 239.24 87.3984 238.611 87.0156L238.023 88.0137H236.93L236.738 81.3691H237.846C238.074 82.1895 238.338 82.9323 238.639 83.5977C238.949 84.2539 239.354 84.8691 239.855 85.4434C240.329 85.9811 240.881 86.4095 241.51 86.7285C242.148 87.0475 242.886 87.207 243.725 87.207C244.354 87.207 244.9 87.125 245.365 86.9609C245.839 86.7969 246.222 86.5645 246.514 86.2637C246.805 85.9629 247.02 85.612 247.156 85.2109C247.302 84.8008 247.375 84.3314 247.375 83.8027C247.375 83.028 247.156 82.3079 246.719 81.6426C246.281 80.9681 245.63 80.4577 244.764 80.1113C244.171 79.8743 243.492 79.6146 242.727 79.332C241.961 79.0404 241.3 78.7669 240.744 78.5117C239.65 78.0195 238.798 77.377 238.188 76.584C237.586 75.7819 237.285 74.7383 237.285 73.4531C237.285 72.7148 237.436 72.0267 237.736 71.3887C238.037 70.7507 238.465 70.181 239.021 69.6797C239.55 69.2057 240.174 68.8366 240.895 68.5723C241.615 68.2988 242.367 68.1621 243.15 68.1621C244.044 68.1621 244.841 68.2988 245.543 68.5723C246.254 68.8457 246.901 69.1647 247.484 69.5293L248.045 68.5996H249.139L249.248 75.0391H248.141C247.94 74.3008 247.712 73.5944 247.457 72.9199C247.211 72.2454 246.887 71.6348 246.486 71.0879C246.094 70.5592 245.616 70.14 245.051 69.8301C244.486 69.5111 243.793 69.3516 242.973 69.3516C242.107 69.3516 241.368 69.6296 240.758 70.1855C240.147 70.7415 239.842 71.4206 239.842 72.2227C239.842 73.0612 240.038 73.7585 240.43 74.3145C240.822 74.8613 241.391 75.3125 242.139 75.668C242.804 75.987 243.456 76.265 244.094 76.502C244.741 76.7298 245.365 76.9759 245.967 77.2402C246.514 77.4772 247.038 77.7461 247.539 78.0469C248.049 78.3477 248.492 78.6986 248.865 79.0996Z" fill="#1B3A57"/>
<path d="M62.8252 111.143L62.6406 114H54.5879V113.515C54.7246 113.506 54.9069 113.487 55.1348 113.46C55.3626 113.428 55.5107 113.396 55.5791 113.364C55.7249 113.296 55.8252 113.207 55.8799 113.098C55.9391 112.988 55.9688 112.849 55.9688 112.681V105.708C55.9688 105.558 55.9437 105.425 55.8936 105.312C55.8434 105.193 55.7386 105.097 55.5791 105.024C55.4561 104.965 55.2897 104.913 55.0801 104.867C54.875 104.822 54.7109 104.794 54.5879 104.785V104.3H62.0938V106.638H61.5811C61.4899 106.291 61.2917 105.924 60.9863 105.537C60.6855 105.145 60.3984 104.931 60.125 104.895C59.9837 104.876 59.8151 104.863 59.6191 104.854C59.4232 104.844 59.1999 104.84 58.9492 104.84H57.4248V108.695H58.5186C58.8695 108.695 59.1247 108.663 59.2842 108.6C59.4482 108.531 59.5918 108.42 59.7148 108.265C59.8151 108.132 59.8994 107.957 59.9678 107.738C60.0407 107.515 60.0885 107.305 60.1113 107.109H60.624V110.903H60.1113C60.0931 110.685 60.043 110.454 59.9609 110.213C59.8835 109.967 59.8014 109.789 59.7148 109.68C59.5736 109.502 59.4118 109.386 59.2295 109.331C59.0518 109.276 58.8148 109.249 58.5186 109.249H57.4248V112.161C57.4248 112.453 57.4453 112.683 57.4863 112.852C57.5273 113.02 57.6071 113.148 57.7256 113.234C57.8441 113.321 58.0059 113.378 58.2109 113.405C58.416 113.428 58.7077 113.439 59.0859 113.439C59.2363 113.439 59.4346 113.439 59.6807 113.439C59.9268 113.439 60.1341 113.43 60.3027 113.412C60.4759 113.394 60.6536 113.362 60.8359 113.316C61.0228 113.266 61.1549 113.2 61.2324 113.118C61.4421 112.899 61.6608 112.569 61.8887 112.127C62.1211 111.68 62.2692 111.352 62.333 111.143H62.8252ZM69.8525 109.55C70.0576 109.778 70.208 110.028 70.3037 110.302C70.404 110.571 70.4541 110.885 70.4541 111.245C70.4541 112.102 70.1374 112.808 69.5039 113.364C68.8704 113.92 68.0843 114.198 67.1455 114.198C66.7126 114.198 66.2796 114.132 65.8467 114C65.4137 113.863 65.04 113.699 64.7256 113.508L64.4316 114.007H63.8848L63.7891 110.685H64.3428C64.4567 111.095 64.5889 111.466 64.7393 111.799C64.8942 112.127 65.097 112.435 65.3477 112.722C65.5846 112.991 65.8604 113.205 66.1748 113.364C66.4938 113.524 66.863 113.604 67.2822 113.604C67.5967 113.604 67.8701 113.562 68.1025 113.48C68.3395 113.398 68.5309 113.282 68.6768 113.132C68.8226 112.981 68.9297 112.806 68.998 112.605C69.071 112.4 69.1074 112.166 69.1074 111.901C69.1074 111.514 68.998 111.154 68.7793 110.821C68.5605 110.484 68.2347 110.229 67.8018 110.056C67.5055 109.937 67.166 109.807 66.7832 109.666C66.4004 109.52 66.07 109.383 65.792 109.256C65.2451 109.01 64.819 108.688 64.5137 108.292C64.2129 107.891 64.0625 107.369 64.0625 106.727C64.0625 106.357 64.1377 106.013 64.2881 105.694C64.4385 105.375 64.6527 105.09 64.9307 104.84C65.195 104.603 65.5072 104.418 65.8672 104.286C66.2272 104.149 66.6032 104.081 66.9951 104.081C67.4417 104.081 67.8405 104.149 68.1914 104.286C68.5469 104.423 68.8704 104.582 69.1621 104.765L69.4424 104.3H69.9893L70.0439 107.52H69.4902C69.39 107.15 69.276 106.797 69.1484 106.46C69.0254 106.123 68.8636 105.817 68.6631 105.544C68.4671 105.28 68.2279 105.07 67.9453 104.915C67.6628 104.756 67.3164 104.676 66.9062 104.676C66.4733 104.676 66.1042 104.815 65.7988 105.093C65.4935 105.371 65.3408 105.71 65.3408 106.111C65.3408 106.531 65.4388 106.879 65.6348 107.157C65.8307 107.431 66.1156 107.656 66.4893 107.834C66.8219 107.993 67.1478 108.132 67.4668 108.251C67.7904 108.365 68.1025 108.488 68.4033 108.62C68.6768 108.739 68.9388 108.873 69.1895 109.023C69.4447 109.174 69.6657 109.349 69.8525 109.55ZM79.5596 106.932H79.0879C79.0469 106.768 78.9717 106.574 78.8623 106.351C78.7575 106.123 78.639 105.909 78.5068 105.708C78.3701 105.498 78.2197 105.316 78.0557 105.161C77.8962 105.002 77.7412 104.91 77.5908 104.888C77.4495 104.869 77.2718 104.856 77.0576 104.847C76.8434 104.838 76.6452 104.833 76.4629 104.833H76.0664V112.592C76.0664 112.742 76.0983 112.881 76.1621 113.009C76.2259 113.132 76.3376 113.228 76.4971 113.296C76.5791 113.328 76.75 113.371 77.0098 113.426C77.2741 113.48 77.4792 113.51 77.625 113.515V114H73.0449V113.515C73.1725 113.506 73.3662 113.487 73.626 113.46C73.8903 113.433 74.0726 113.398 74.1729 113.357C74.3232 113.298 74.4326 113.214 74.501 113.104C74.5739 112.991 74.6104 112.84 74.6104 112.653V104.833H74.2139C74.0726 104.833 73.8971 104.838 73.6875 104.847C73.4779 104.851 73.2773 104.865 73.0859 104.888C72.9355 104.906 72.7783 104.997 72.6143 105.161C72.4548 105.321 72.3066 105.503 72.1699 105.708C72.0332 105.913 71.9124 106.132 71.8076 106.364C71.7028 106.592 71.6299 106.781 71.5889 106.932H71.1104V104.3H79.5596V106.932ZM82.5127 113.214C82.5127 113.469 82.4193 113.688 82.2324 113.87C82.0501 114.048 81.8314 114.137 81.5762 114.137C81.321 114.137 81.0999 114.048 80.9131 113.87C80.7308 113.688 80.6396 113.469 80.6396 113.214C80.6396 112.959 80.7308 112.74 80.9131 112.558C81.0999 112.371 81.321 112.277 81.5762 112.277C81.8314 112.277 82.0501 112.371 82.2324 112.558C82.4193 112.74 82.5127 112.959 82.5127 113.214ZM92.3564 114H87.749V113.515C87.8857 113.506 88.0977 113.487 88.3848 113.46C88.6764 113.428 88.877 113.396 88.9863 113.364C89.1276 113.319 89.2347 113.246 89.3076 113.146C89.3851 113.041 89.4238 112.886 89.4238 112.681V107.882H87.7217V107.308H88.0977C88.5898 107.308 89.0296 107.216 89.417 107.034C89.8089 106.852 90.0892 106.656 90.2578 106.446H90.8252C90.8115 106.743 90.7979 107.089 90.7842 107.485C90.7705 107.882 90.7637 108.237 90.7637 108.552V112.605C90.7637 112.765 90.7979 112.909 90.8662 113.036C90.9391 113.159 91.0417 113.25 91.1738 113.31C91.2923 113.36 91.486 113.405 91.7549 113.446C92.0238 113.487 92.2243 113.51 92.3564 113.515V114ZM100.061 110.473C100.061 111.266 99.9352 112.013 99.6846 112.715C99.4339 113.412 99.0739 114.025 98.6045 114.554C98.1442 115.073 97.5814 115.504 96.916 115.846C96.2552 116.192 95.5146 116.42 94.6943 116.529L94.5713 115.914L95.1865 115.805C96.1663 115.495 96.932 115.019 97.4834 114.376C98.0348 113.733 98.3903 112.918 98.5498 111.929C98.1761 112.248 97.8024 112.482 97.4287 112.633C97.0596 112.779 96.6426 112.852 96.1777 112.852C95.4349 112.852 94.7878 112.562 94.2363 111.983C93.6895 111.405 93.416 110.675 93.416 109.796C93.416 108.853 93.7327 108.057 94.3662 107.41C95.0042 106.763 95.7904 106.439 96.7246 106.439C97.7409 106.439 98.5498 106.802 99.1514 107.526C99.7575 108.251 100.061 109.233 100.061 110.473ZM98.6113 110.391C98.6113 109.324 98.4359 108.49 98.085 107.889C97.7386 107.283 97.2806 106.979 96.7109 106.979C96.1686 106.979 95.7311 107.214 95.3984 107.684C95.0658 108.148 94.8994 108.791 94.8994 109.611C94.8994 110.35 95.068 110.942 95.4053 111.389C95.7471 111.835 96.2028 112.059 96.7725 112.059C97.1279 112.059 97.4538 111.995 97.75 111.867C98.0462 111.735 98.3219 111.525 98.5771 111.238C98.5771 111.22 98.5794 111.184 98.584 111.129C98.5931 111.074 98.5977 110.997 98.5977 110.896C98.5977 110.833 98.5999 110.755 98.6045 110.664C98.609 110.573 98.6113 110.482 98.6113 110.391ZM107.99 110.473C107.99 111.266 107.865 112.013 107.614 112.715C107.364 113.412 107.004 114.025 106.534 114.554C106.074 115.073 105.511 115.504 104.846 115.846C104.185 116.192 103.444 116.42 102.624 116.529L102.501 115.914L103.116 115.805C104.096 115.495 104.862 115.019 105.413 114.376C105.965 113.733 106.32 112.918 106.479 111.929C106.106 112.248 105.732 112.482 105.358 112.633C104.989 112.779 104.572 112.852 104.107 112.852C103.365 112.852 102.717 112.562 102.166 111.983C101.619 111.405 101.346 110.675 101.346 109.796C101.346 108.853 101.662 108.057 102.296 107.41C102.934 106.763 103.72 106.439 104.654 106.439C105.671 106.439 106.479 106.802 107.081 107.526C107.687 108.251 107.99 109.233 107.99 110.473ZM106.541 110.391C106.541 109.324 106.366 108.49 106.015 107.889C105.668 107.283 105.21 106.979 104.641 106.979C104.098 106.979 103.661 107.214 103.328 107.684C102.995 108.148 102.829 108.791 102.829 109.611C102.829 110.35 102.998 110.942 103.335 111.389C103.677 111.835 104.132 112.059 104.702 112.059C105.058 112.059 105.383 111.995 105.68 111.867C105.976 111.735 106.252 111.525 106.507 111.238C106.507 111.22 106.509 111.184 106.514 111.129C106.523 111.074 106.527 110.997 106.527 110.896C106.527 110.833 106.53 110.755 106.534 110.664C106.539 110.573 106.541 110.482 106.541 110.391ZM115.735 107.109L110.861 116.495H110.007L114.594 107.813H111.907C111.511 107.813 111.201 107.818 110.978 107.827C110.754 107.836 110.549 107.88 110.362 107.957C110.221 108.016 110.093 108.169 109.979 108.415C109.87 108.657 109.786 108.966 109.727 109.345H109.31V106.665H115.735V107.109Z" fill="#1B3A57"/>
</svg>
