<svg width="170" height="94" viewBox="0 0 170 94" fill="none" xmlns="http://www.w3.org/2000/svg">
<path d="M41 87C63.0914 87 81 69.0914 81 47C81 24.9086 63.0914 7 41 7C18.9086 7 1 24.9086 1 47C1 69.0914 18.9086 87 41 87Z" stroke="#B76E79" stroke-width="2"/>
<path d="M51 77C70.33 77 86 61.33 86 42C86 22.67 70.33 7 51 7C31.67 7 16 22.67 16 42C16 61.33 31.67 77 51 77Z" stroke="#B76E79" stroke-width="2"/>
<path d="M21 2H71" stroke="#B76E79" stroke-width="3"/>
<path d="M21 92H71" stroke="#B76E79" stroke-width="3"/>
<path d="M28.4227 44H23.8867L13.3447 14.012H17.6287L26.1967 40.01H26.2807L34.9327 14.012H39.0907L28.4227 44ZM42.4645 14.012H46.4545V44H42.4645V14.012ZM59.9696 17.372H49.9736V14.012H73.9556V17.372H63.9596V44H59.9696V17.372ZM77.2828 14.012H91.3948C94.2508 14.012 96.4768 14.712 98.0728 16.112C99.6968 17.512 100.509 19.43 100.509 21.866C100.509 23.686 100.089 25.282 99.2488 26.654C98.4368 28.026 97.1208 28.964 95.3008 29.468V29.552C96.1688 29.72 96.8688 30 97.4008 30.392C97.9608 30.784 98.3948 31.26 98.7028 31.82C99.0388 32.352 99.2768 32.954 99.4168 33.626C99.5848 34.298 99.7108 34.998 99.7948 35.726C99.8508 36.454 99.8928 37.196 99.9208 37.952C99.9488 38.708 100.019 39.45 100.131 40.178C100.243 40.906 100.397 41.606 100.593 42.278C100.817 42.922 101.139 43.496 101.559 44H97.1068C96.8268 43.692 96.6308 43.272 96.5188 42.74C96.4348 42.208 96.3788 41.62 96.3508 40.976C96.3228 40.304 96.2948 39.59 96.2668 38.834C96.2388 38.078 96.1548 37.336 96.0148 36.608C95.9028 35.88 95.7628 35.194 95.5948 34.55C95.4268 33.878 95.1608 33.304 94.7968 32.828C94.4328 32.324 93.9568 31.932 93.3688 31.652C92.7808 31.344 91.9968 31.19 91.0168 31.19H81.2728V44H77.2828V14.012ZM89.5888 27.83C90.5128 27.83 91.3948 27.76 92.2348 27.62C93.0748 27.48 93.8028 27.214 94.4188 26.822C95.0628 26.402 95.5668 25.856 95.9308 25.184C96.3228 24.484 96.5188 23.588 96.5188 22.496C96.5188 20.984 96.0988 19.752 95.2588 18.8C94.4188 17.848 93.0608 17.372 91.1848 17.372H81.2728V27.83H89.5888ZM129.975 33.164C129.975 37 128.953 39.884 126.909 41.816C124.865 43.72 121.953 44.672 118.173 44.672C114.309 44.672 111.285 43.762 109.101 41.942C106.945 40.094 105.867 37.168 105.867 33.164V14.012H109.857V33.164C109.857 35.852 110.571 37.896 111.999 39.296C113.427 40.668 115.485 41.354 118.173 41.354C120.721 41.354 122.653 40.668 123.969 39.296C125.313 37.896 125.985 35.852 125.985 33.164V14.012H129.975V33.164ZM136.429 14.012H141.889L151.339 39.212L160.831 14.012H166.291V44H162.511V19.052H162.427L153.061 44H149.659L140.293 19.052H140.209V44H136.429V14.012Z" fill="#2C3E50"/>
<path d="M62.872 53.864H65.152V69.08H74.224V71H62.872V53.864ZM89.8879 64.808C89.8879 67 89.3039 68.648 88.1359 69.752C86.9679 70.84 85.3039 71.384 83.1439 71.384C80.9359 71.384 79.2079 70.864 77.9599 69.824C76.7279 68.768 76.1119 67.096 76.1119 64.808V53.864H78.3919V64.808C78.3919 66.344 78.7999 67.512 79.6159 68.312C80.4319 69.096 81.6079 69.488 83.1439 69.488C84.5999 69.488 85.7039 69.096 86.4559 68.312C87.2239 67.512 87.6079 66.344 87.6079 64.808V53.864H89.8879V64.808ZM97.6083 62.192L91.9683 53.864H94.7043L98.9763 60.56L103.44 53.864H105.984L100.32 62.192L106.344 71H103.56L98.9523 63.92L94.2003 71H91.6562L97.6083 62.192ZM108.2 53.864H120.032V55.784H110.48V61.232H119.384V63.152H110.48V69.08H120.104V71H108.2V53.864Z" fill="#B76E79"/>
</svg>
