<svg width="179" height="123" viewBox="0 0 179 123" fill="none" xmlns="http://www.w3.org/2000/svg">
<path d="M42 2L82 42L62 122H22L2 42L42 2Z" stroke="#2D3958" stroke-width="2"/>
<path d="M2 42H82H2Z" fill="black"/>
<path d="M2 42H82" stroke="#2D3958" stroke-width="2"/>
<path d="M22 22L62 102L22 22Z" fill="black"/>
<path d="M22 22L62 102" stroke="#2D3958" stroke-width="2"/>
<path d="M36.5664 24.3691C39.1094 24.3691 41.0827 25.0391 42.4863 26.3789C43.89 27.7188 44.6693 29.2409 44.8242 30.9453H42.1719C41.8711 29.651 41.2695 28.6257 40.3672 27.8691C39.474 27.1126 38.2161 26.7344 36.5938 26.7344C34.6159 26.7344 33.0163 27.4316 31.7949 28.8262C30.5827 30.2116 29.9766 32.3398 29.9766 35.2109C29.9766 37.5625 30.5234 39.472 31.6172 40.9395C32.7201 42.3978 34.3607 43.127 36.5391 43.127C38.5443 43.127 40.071 42.3568 41.1191 40.8164C41.6751 40.0052 42.0898 38.9388 42.3633 37.6172H45.0156C44.7786 39.7318 43.9948 41.5046 42.6641 42.9355C41.069 44.6582 38.918 45.5195 36.2109 45.5195C33.8776 45.5195 31.918 44.8132 30.332 43.4004C28.2448 41.5319 27.2012 38.6471 27.2012 34.7461C27.2012 31.7839 27.985 29.3548 29.5527 27.459C31.248 25.3991 33.5859 24.3691 36.5664 24.3691ZM57.6758 34.1172C58.9518 34.1172 59.959 33.862 60.6973 33.3516C61.4447 32.8411 61.8184 31.9206 61.8184 30.5898C61.8184 29.1589 61.2988 28.1836 60.2598 27.6641C59.7038 27.3906 58.9609 27.2539 58.0312 27.2539H51.3867V34.1172H57.6758ZM48.666 24.916H57.9629C59.4941 24.916 60.7565 25.1393 61.75 25.5859C63.6367 26.4427 64.5801 28.0241 64.5801 30.3301C64.5801 31.5332 64.3294 32.5176 63.8281 33.2832C63.3359 34.0488 62.6432 34.6641 61.75 35.1289C62.5339 35.4479 63.1217 35.8672 63.5137 36.3867C63.9147 36.9062 64.138 37.7493 64.1836 38.916L64.2793 41.6094C64.3066 42.375 64.3704 42.9447 64.4707 43.3184C64.6348 43.9564 64.9264 44.3665 65.3457 44.5488V45H62.0098C61.9186 44.8268 61.8457 44.6035 61.791 44.3301C61.7363 44.0566 61.6908 43.528 61.6543 42.7441L61.4902 39.3945C61.4264 38.082 60.9388 37.2025 60.0273 36.7559C59.5078 36.5098 58.6921 36.3867 57.5801 36.3867H51.3867V45H48.666V24.916ZM66.5215 24.916H69.6934L75.4629 34.5684L81.2324 24.916H84.418L76.8301 36.9062V45H74.1094V36.9062L66.5215 24.916ZM88.5332 38.5195C88.597 39.6589 88.8659 40.584 89.3398 41.2949C90.2422 42.6257 91.8327 43.291 94.1113 43.291C95.1322 43.291 96.0618 43.1452 96.9004 42.8535C98.5228 42.2884 99.334 41.2767 99.334 39.8184C99.334 38.7246 98.9922 37.9453 98.3086 37.4805C97.6159 37.0247 96.5312 36.6283 95.0547 36.291L92.334 35.6758C90.5566 35.2747 89.2988 34.8327 88.5605 34.3496C87.2845 33.5111 86.6465 32.2578 86.6465 30.5898C86.6465 28.7852 87.2708 27.304 88.5195 26.1465C89.7682 24.9889 91.5365 24.4102 93.8242 24.4102C95.9297 24.4102 97.7161 24.9206 99.1836 25.9414C100.66 26.9531 101.398 28.5755 101.398 30.8086H98.8418C98.7051 29.7331 98.4134 28.9082 97.9668 28.334C97.1374 27.2858 95.7292 26.7617 93.7422 26.7617C92.138 26.7617 90.985 27.099 90.2832 27.7734C89.5814 28.4479 89.2305 29.2318 89.2305 30.125C89.2305 31.1094 89.6406 31.8294 90.4609 32.2852C90.9987 32.5768 92.2155 32.9414 94.1113 33.3789L96.9277 34.0215C98.2858 34.3314 99.334 34.7552 100.072 35.293C101.348 36.2318 101.986 37.5944 101.986 39.3809C101.986 41.6048 101.175 43.1953 99.5527 44.1523C97.9395 45.1094 96.0618 45.5879 93.9199 45.5879C91.4225 45.5879 89.4674 44.9499 88.0547 43.6738C86.6419 42.4069 85.9492 40.6888 85.9766 38.5195H88.5332ZM120.047 24.916V27.3086H113.279V45H110.518V27.3086H103.75V24.916H120.047ZM130.779 36.7695L127.73 27.8965L124.49 36.7695H130.779ZM126.309 24.916H129.385L136.672 45H133.691L131.654 38.9844H123.711L121.537 45H118.748L126.309 24.916ZM139.146 24.916H141.867V42.6074H152.039V45H139.146V24.916ZM167.352 32.7227C168.217 32.112 168.814 31.6152 169.143 31.2324C169.68 30.6126 169.949 29.9245 169.949 29.168C169.949 28.5755 169.753 28.0651 169.361 27.6367C168.969 27.2083 168.441 26.9941 167.775 26.9941C166.764 26.9941 166.062 27.3314 165.67 28.0059C165.469 28.3522 165.369 28.7305 165.369 29.1406C165.369 29.6966 165.52 30.2298 165.82 30.7402C166.13 31.2507 166.641 31.9115 167.352 32.7227ZM166.723 43.3047C167.734 43.3047 168.605 43.0723 169.334 42.6074C170.063 42.1426 170.624 41.623 171.016 41.0488L166.477 35.5117C165.191 36.3685 164.353 37.0247 163.961 37.4805C163.359 38.1641 163.059 38.998 163.059 39.9824C163.059 41.0488 163.446 41.8691 164.221 42.4434C165.005 43.0176 165.839 43.3047 166.723 43.3047ZM165.109 33.8301C164.262 32.8548 163.692 32.0345 163.4 31.3691C163.118 30.7038 162.977 30.0612 162.977 29.4414C162.977 28.1471 163.414 27.0762 164.289 26.2285C165.164 25.3717 166.335 24.9434 167.803 24.9434C169.197 24.9434 170.286 25.3398 171.07 26.1328C171.854 26.9258 172.246 27.8737 172.246 28.9766C172.246 30.2617 171.84 31.3874 171.029 32.3535C170.555 32.9186 169.762 33.5703 168.65 34.3086L172.314 38.6836C172.561 37.9544 172.729 37.4121 172.82 37.0566C172.921 36.6921 173.021 36.1862 173.121 35.5391H175.459C175.304 36.8242 174.994 38.0592 174.529 39.2441C174.064 40.4199 173.832 40.8939 173.832 40.666L177.4 45H174.229L172.342 42.7031C171.594 43.5143 170.911 44.1068 170.291 44.4805C169.206 45.1367 167.958 45.4648 166.545 45.4648C164.458 45.4648 162.94 44.9043 161.992 43.7832C161.044 42.653 160.57 41.3815 160.57 39.9688C160.57 38.4466 161.031 37.1751 161.951 36.1543C162.516 35.5345 163.569 34.7598 165.109 33.8301Z" fill="#2D3958"/>
<path d="M53.1826 56.001C56.6338 56.001 59.3118 56.9102 61.2168 58.7285C63.1217 60.5469 64.1794 62.6126 64.3896 64.9258H60.79C60.3818 63.1693 59.5654 61.7777 58.3408 60.751C57.1286 59.7243 55.4215 59.2109 53.2197 59.2109C50.5355 59.2109 48.3646 60.1572 46.707 62.0498C45.0618 63.93 44.2393 66.8184 44.2393 70.7148C44.2393 73.9062 44.9814 76.4977 46.4658 78.4893C47.9626 80.4684 50.1891 81.458 53.1455 81.458C55.8669 81.458 57.9388 80.4128 59.3613 78.3223C60.1159 77.2214 60.6787 75.7741 61.0498 73.9805H64.6494C64.3278 76.8503 63.264 79.2562 61.458 81.1982C59.2933 83.5361 56.374 84.7051 52.7002 84.7051C49.5335 84.7051 46.874 83.7464 44.7217 81.8291C41.889 79.2933 40.4727 75.3783 40.4727 70.084C40.4727 66.0638 41.5365 62.7673 43.6641 60.1943C45.9648 57.3988 49.1377 56.001 53.1826 56.001ZM81.8311 69.2305C83.5628 69.2305 84.9297 68.8841 85.9316 68.1914C86.946 67.4987 87.4531 66.2493 87.4531 64.4434C87.4531 62.5013 86.748 61.1777 85.3379 60.4727C84.5833 60.1016 83.5752 59.916 82.3135 59.916H73.2959V69.2305H81.8311ZM69.6035 56.7432H82.2207C84.2988 56.7432 86.012 57.0462 87.3604 57.6523C89.9209 58.8151 91.2012 60.9613 91.2012 64.0908C91.2012 65.7236 90.861 67.0596 90.1807 68.0986C89.5127 69.1377 88.5726 69.9727 87.3604 70.6035C88.4242 71.0365 89.222 71.6055 89.7539 72.3105C90.2982 73.0156 90.6012 74.1598 90.6631 75.7432L90.793 79.3984C90.8301 80.4375 90.9167 81.2106 91.0527 81.7178C91.2754 82.5837 91.6712 83.1403 92.2402 83.3877V84H87.7129C87.5892 83.765 87.4902 83.4619 87.416 83.0908C87.3418 82.7197 87.2799 82.0023 87.2305 80.9385L87.0078 76.3926C86.9212 74.6113 86.2594 73.4176 85.0225 72.8115C84.3174 72.4775 83.2103 72.3105 81.7012 72.3105H73.2959V84H69.6035V56.7432ZM110.609 72.8301L106.472 60.7881L102.074 72.8301H110.609ZM104.542 56.7432H108.717L118.606 84H114.562L111.797 75.8359H101.017L98.0664 84H94.2812L104.542 56.7432ZM122.317 56.7432H141.225V60.083H126.01V68.3584H139.388V71.6055H126.01V84H122.317V56.7432ZM165.03 56.7432V59.9902H155.846V84H152.098V59.9902H142.913V56.7432H165.03Z" fill="#2D3958"/>
</svg>
