<svg width="256" height="121" viewBox="0 0 256 121" fill="none" xmlns="http://www.w3.org/2000/svg">
<path d="M128 85.5C151.196 85.5 170 66.696 170 43.5C170 20.304 151.196 1.5 128 1.5C104.804 1.5 86 20.304 86 43.5C86 66.696 104.804 85.5 128 85.5Z" stroke="#006D77" stroke-width="2.1"/>
<path d="M100 43.5C142 22.5 170 22.5 198 43.5C170 64.5 142 64.5 100 43.5Z" fill="#006D77"/>
<path d="M100 43.5L79 22.5V64.5L100 43.5Z" fill="#006D77"/>
<path d="M177 47.7C179.32 47.7 181.2 45.8196 181.2 43.5C181.2 41.1805 179.32 39.3 177 39.3C174.68 39.3 172.8 41.1805 172.8 43.5C172.8 45.8196 174.68 47.7 177 47.7Z" fill="white"/>
<path d="M177 45.6C178.16 45.6 179.1 44.6598 179.1 43.5C179.1 42.3402 178.16 41.4 177 41.4C175.84 41.4 174.9 42.3402 174.9 43.5C174.9 44.6598 175.84 45.6 177 45.6Z" fill="#333333"/>
<path d="M107 26C114 23.6667 121 23.6667 128 26" stroke="#83C5BE" stroke-width="1.4"/>
<path d="M107 61C114 63.3333 121 63.3333 128 61" stroke="#83C5BE" stroke-width="1.4"/>
<path d="M2.91406 113V87.2305H20.5801V91.5898H8.11719V97.6895H18.875V102.049H8.11719V113H2.91406ZM24.9043 113V87.2305H35.8555C38.6094 87.2305 40.6074 87.4648 41.8496 87.9336C43.1035 88.3906 44.1055 89.2109 44.8555 90.3945C45.6055 91.5781 45.9805 92.9316 45.9805 94.4551C45.9805 96.3887 45.4121 97.9883 44.2754 99.2539C43.1387 100.508 41.4395 101.299 39.1777 101.627C40.3027 102.283 41.2285 103.004 41.9551 103.789C42.6934 104.574 43.6836 105.969 44.9258 107.973L48.0723 113H41.8496L38.0879 107.393C36.752 105.389 35.8379 104.129 35.3457 103.613C34.8535 103.086 34.332 102.729 33.7812 102.541C33.2305 102.342 32.3574 102.242 31.1621 102.242H30.1074V113H24.9043ZM30.1074 98.1289H33.957C36.4531 98.1289 38.0117 98.0234 38.6328 97.8125C39.2539 97.6016 39.7402 97.2383 40.0918 96.7227C40.4434 96.207 40.6191 95.5625 40.6191 94.7891C40.6191 93.9219 40.3848 93.2246 39.916 92.6973C39.459 92.1582 38.8086 91.8184 37.9648 91.6777C37.543 91.6191 36.2773 91.5898 34.168 91.5898H30.1074V98.1289ZM50.9023 113V87.2305H70.0098V91.5898H56.1055V97.3027H69.043V101.645H56.1055V108.658H70.502V113H50.9023ZM73.5957 104.615L78.6582 104.123C78.9629 105.822 79.5781 107.07 80.5039 107.867C81.4414 108.664 82.7012 109.062 84.2832 109.062C85.959 109.062 87.2188 108.711 88.0625 108.008C88.918 107.293 89.3457 106.461 89.3457 105.512C89.3457 104.902 89.1641 104.387 88.8008 103.965C88.4492 103.531 87.8281 103.156 86.9375 102.84C86.3281 102.629 84.9395 102.254 82.7715 101.715C79.9824 101.023 78.0254 100.174 76.9004 99.166C75.3184 97.748 74.5273 96.0195 74.5273 93.9805C74.5273 92.668 74.8965 91.4434 75.6348 90.3066C76.3848 89.1582 77.457 88.2852 78.8516 87.6875C80.2578 87.0898 81.9512 86.791 83.9316 86.791C87.166 86.791 89.5977 87.5 91.2266 88.918C92.8672 90.3359 93.7285 92.2285 93.8105 94.5957L88.6074 94.8242C88.3848 93.5 87.9043 92.5508 87.166 91.9766C86.4395 91.3906 85.3438 91.0977 83.8789 91.0977C82.3672 91.0977 81.1836 91.4082 80.3281 92.0293C79.7773 92.4277 79.502 92.9609 79.502 93.6289C79.502 94.2383 79.7598 94.7598 80.2754 95.1934C80.9316 95.7441 82.5254 96.3184 85.0566 96.916C87.5879 97.5137 89.457 98.1348 90.6641 98.7793C91.8828 99.4121 92.832 100.285 93.5117 101.398C94.2031 102.5 94.5488 103.865 94.5488 105.494C94.5488 106.971 94.1387 108.354 93.3184 109.643C92.498 110.932 91.3379 111.893 89.8379 112.525C88.3379 113.146 86.4688 113.457 84.2305 113.457C80.9727 113.457 78.4707 112.707 76.7246 111.207C74.9785 109.695 73.9355 107.498 73.5957 104.615ZM98.9434 113V87.2305H104.146V97.373H114.342V87.2305H119.545V113H114.342V101.732H104.146V113H98.9434ZM151.449 103.525L156.494 105.125C155.721 107.938 154.432 110.029 152.627 111.4C150.834 112.76 148.555 113.439 145.789 113.439C142.367 113.439 139.555 112.273 137.352 109.941C135.148 107.598 134.047 104.398 134.047 100.344C134.047 96.0547 135.154 92.7266 137.369 90.3594C139.584 87.9805 142.496 86.791 146.105 86.791C149.258 86.791 151.818 87.7227 153.787 89.5859C154.959 90.6875 155.838 92.2695 156.424 94.332L151.273 95.5625C150.969 94.2266 150.33 93.1719 149.357 92.3984C148.396 91.625 147.225 91.2383 145.842 91.2383C143.932 91.2383 142.379 91.9238 141.184 93.2949C140 94.666 139.408 96.8867 139.408 99.957C139.408 103.215 139.994 105.535 141.166 106.918C142.338 108.301 143.861 108.992 145.736 108.992C147.119 108.992 148.309 108.553 149.305 107.674C150.301 106.795 151.016 105.412 151.449 103.525ZM184.215 113H178.555L176.305 107.146H166.004L163.877 113H158.357L168.395 87.2305H173.896L184.215 113ZM174.635 102.805L171.084 93.2422L167.604 102.805H174.635ZM190.121 113V91.5898H182.475V87.2305H202.953V91.5898H195.324V113H190.121ZM222.816 103.525L227.861 105.125C227.088 107.938 225.799 110.029 223.994 111.4C222.201 112.76 219.922 113.439 217.156 113.439C213.734 113.439 210.922 112.273 208.719 109.941C206.516 107.598 205.414 104.398 205.414 100.344C205.414 96.0547 206.521 92.7266 208.736 90.3594C210.951 87.9805 213.863 86.791 217.473 86.791C220.625 86.791 223.186 87.7227 225.154 89.5859C226.326 90.6875 227.205 92.2695 227.791 94.332L222.641 95.5625C222.336 94.2266 221.697 93.1719 220.725 92.3984C219.764 91.625 218.592 91.2383 217.209 91.2383C215.299 91.2383 213.746 91.9238 212.551 93.2949C211.367 94.666 210.775 96.8867 210.775 99.957C210.775 103.215 211.361 105.535 212.533 106.918C213.705 108.301 215.229 108.992 217.104 108.992C218.486 108.992 219.676 108.553 220.672 107.674C221.668 106.795 222.383 105.412 222.816 103.525ZM232.361 113V87.2305H237.564V97.373H247.76V87.2305H252.963V113H247.76V101.732H237.564V113H232.361Z" fill="#006D77"/>
</svg>
