<svg width="234" height="83" viewBox="0 0 234 83" fill="none" xmlns="http://www.w3.org/2000/svg">
<path d="M106 14.2222C154 14.2222 170 -17.7778 202 14.2222C170 46.2222 154 46.2222 106 46.2222C74 46.2222 42 30.2222 42 30.2222C42 30.2222 74 14.2222 106 14.2222Z" fill="#1E88E5"/>
<path d="M42 30.2222L10 46.2222L26 30.2222L10 14.2222L42 30.2222Z" fill="#1E88E5"/>
<path d="M186 20.6223C189.535 20.6223 192.4 17.7569 192.4 14.2223C192.4 10.6876 189.535 7.82227 186 7.82227C182.465 7.82227 179.6 10.6876 179.6 14.2223C179.6 17.7569 182.465 20.6223 186 20.6223Z" fill="white"/>
<path d="M186 17.4222C187.767 17.4222 189.2 15.9895 189.2 14.2222C189.2 12.4549 187.767 11.0222 186 11.0222C184.233 11.0222 182.8 12.4549 182.8 14.2222C182.8 15.9895 184.233 17.4222 186 17.4222Z" fill="#333333"/>
<path d="M1.875 64.6875C1.875 62.3542 2.22396 60.3958 2.92188 58.8125C3.44271 57.6458 4.15104 56.599 5.04688 55.6719C5.95312 54.7448 6.94271 54.0573 8.01562 53.6094C9.44271 53.0052 11.0885 52.7031 12.9531 52.7031C16.3281 52.7031 19.026 53.75 21.0469 55.8438C23.0781 57.9375 24.0938 60.849 24.0938 64.5781C24.0938 68.276 23.0885 71.1719 21.0781 73.2656C19.0677 75.349 16.3802 76.3906 13.0156 76.3906C9.60938 76.3906 6.90104 75.3542 4.89062 73.2812C2.88021 71.1979 1.875 68.3333 1.875 64.6875ZM6.64062 64.5312C6.64062 67.125 7.23958 69.0938 8.4375 70.4375C9.63542 71.7708 11.1562 72.4375 13 72.4375C14.8438 72.4375 16.3542 71.776 17.5312 70.4531C18.7188 69.1198 19.3125 67.125 19.3125 64.4688C19.3125 61.8438 18.7344 59.8854 17.5781 58.5938C16.4323 57.3021 14.9062 56.6562 13 56.6562C11.0938 56.6562 9.55729 57.3125 8.39062 58.625C7.22396 59.9271 6.64062 61.8958 6.64062 64.5312ZM42.375 67.5781L46.8594 69C46.1719 71.5 45.026 73.3594 43.4219 74.5781C41.8281 75.7865 39.8021 76.3906 37.3438 76.3906C34.3021 76.3906 31.8021 75.3542 29.8438 73.2812C27.8854 71.1979 26.9062 68.3542 26.9062 64.75C26.9062 60.9375 27.8906 57.9792 29.8594 55.875C31.8281 53.7604 34.4167 52.7031 37.625 52.7031C40.4271 52.7031 42.7031 53.5312 44.4531 55.1875C45.4948 56.1667 46.276 57.5729 46.7969 59.4062L42.2188 60.5C41.9479 59.3125 41.3802 58.375 40.5156 57.6875C39.6615 57 38.6198 56.6562 37.3906 56.6562C35.6927 56.6562 34.3125 57.2656 33.25 58.4844C32.1979 59.7031 31.6719 61.6771 31.6719 64.4062C31.6719 67.3021 32.1927 69.3646 33.2344 70.5938C34.276 71.8229 35.6302 72.4375 37.2969 72.4375C38.526 72.4375 39.5833 72.0469 40.4688 71.2656C41.3542 70.4844 41.9896 69.2552 42.375 67.5781ZM50.8438 76V53.0938H67.8281V56.9688H55.4688V62.0469H66.9688V65.9062H55.4688V72.1406H68.2656V76H50.8438ZM92.8438 76H87.8125L85.8125 70.7969H76.6562L74.7656 76H69.8594L78.7812 53.0938H83.6719L92.8438 76ZM84.3281 66.9375L81.1719 58.4375L78.0781 66.9375H84.3281ZM95.3594 76V53.0938H99.8594L109.234 68.3906V53.0938H113.531V76H108.891L99.6562 61.0625V76H95.3594ZM127.375 76V53.0938H143.078V56.9688H132V62.3906H141.562V66.2656H132V76H127.375ZM146.922 76V53.0938H156.656C159.104 53.0938 160.88 53.3021 161.984 53.7188C163.099 54.125 163.99 54.8542 164.656 55.9062C165.323 56.9583 165.656 58.1615 165.656 59.5156C165.656 61.2344 165.151 62.6562 164.141 63.7812C163.13 64.8958 161.62 65.599 159.609 65.8906C160.609 66.474 161.432 67.1146 162.078 67.8125C162.734 68.5104 163.615 69.75 164.719 71.5312L167.516 76H161.984L158.641 71.0156C157.453 69.2344 156.641 68.1146 156.203 67.6562C155.766 67.1875 155.302 66.8698 154.812 66.7031C154.323 66.526 153.547 66.4375 152.484 66.4375H151.547V76H146.922ZM151.547 62.7812H154.969C157.188 62.7812 158.573 62.6875 159.125 62.5C159.677 62.3125 160.109 61.9896 160.422 61.5312C160.734 61.0729 160.891 60.5 160.891 59.8125C160.891 59.0417 160.682 58.4219 160.266 57.9531C159.859 57.474 159.281 57.1719 158.531 57.0469C158.156 56.9948 157.031 56.9688 155.156 56.9688H151.547V62.7812ZM170.031 76V53.0938H187.016V56.9688H174.656V62.0469H186.156V65.9062H174.656V72.1406H187.453V76H170.031ZM190.203 68.5469L194.703 68.1094C194.974 69.6198 195.521 70.7292 196.344 71.4375C197.177 72.1458 198.297 72.5 199.703 72.5C201.193 72.5 202.312 72.1875 203.062 71.5625C203.823 70.9271 204.203 70.1875 204.203 69.3438C204.203 68.8021 204.042 68.3438 203.719 67.9688C203.406 67.5833 202.854 67.25 202.062 66.9688C201.521 66.7812 200.286 66.4479 198.359 65.9688C195.88 65.3542 194.141 64.599 193.141 63.7031C191.734 62.4427 191.031 60.9062 191.031 59.0938C191.031 57.9271 191.359 56.8385 192.016 55.8281C192.682 54.8073 193.635 54.0312 194.875 53.5C196.125 52.9688 197.63 52.7031 199.391 52.7031C202.266 52.7031 204.427 53.3333 205.875 54.5938C207.333 55.8542 208.099 57.5365 208.172 59.6406L203.547 59.8438C203.349 58.6667 202.922 57.8229 202.266 57.3125C201.62 56.7917 200.646 56.5312 199.344 56.5312C198 56.5312 196.948 56.8073 196.188 57.3594C195.698 57.7135 195.453 58.1875 195.453 58.7812C195.453 59.3229 195.682 59.7865 196.141 60.1719C196.724 60.6615 198.141 61.1719 200.391 61.7031C202.641 62.2344 204.302 62.7865 205.375 63.3594C206.458 63.9219 207.302 64.6979 207.906 65.6875C208.521 66.6667 208.828 67.8802 208.828 69.3281C208.828 70.6406 208.464 71.8698 207.734 73.0156C207.005 74.1615 205.974 75.0156 204.641 75.5781C203.307 76.1302 201.646 76.4062 199.656 76.4062C196.76 76.4062 194.536 75.7396 192.984 74.4062C191.432 73.0625 190.505 71.1094 190.203 68.5469ZM212.734 76V53.0938H217.359V62.1094H226.422V53.0938H231.047V76H226.422V65.9844H217.359V76H212.734Z" fill="#1E88E5"/>
</svg>
