<svg width="358" height="120" viewBox="0 0 358 120" fill="none" xmlns="http://www.w3.org/2000/svg">
<path d="M60 120C93.1371 120 120 93.1371 120 60C120 26.8629 93.1371 0 60 0C26.8629 0 0 26.8629 0 60C0 93.1371 26.8629 120 60 120Z" fill="#1E3D59"/>
<path d="M10 60C26.6667 46.6667 43.3333 46.6667 60 60C76.6667 73.3333 93.3333 73.3333 110 60" stroke="#17B1B1" stroke-width="4" stroke-linecap="round"/>
<path d="M45 30C55 16.6667 65 16.6667 75 30C65 26.6667 55 26.6667 45 30Z" fill="#F5F5F5" stroke="#17B1B1" stroke-width="2"/>
<path d="M70 50L90 40V60L70 50Z" fill="#F5F5F5" stroke="#17B1B1" stroke-width="2"/>
<path d="M150.797 44.6719C151.932 44.6719 152.854 44.5469 153.562 44.2969C154.906 43.8177 155.578 42.9271 155.578 41.625C155.578 40.8646 155.245 40.276 154.578 39.8594C153.911 39.4531 152.865 39.0938 151.438 38.7812L149 38.2344C146.604 37.6927 144.948 37.1042 144.031 36.4688C142.479 35.4062 141.703 33.7448 141.703 31.4844C141.703 29.4219 142.453 27.7083 143.953 26.3438C145.453 24.9792 147.656 24.2969 150.562 24.2969C152.99 24.2969 155.057 24.9427 156.766 26.2344C158.484 27.5156 159.385 29.3802 159.469 31.8281H154.844C154.76 30.4427 154.156 29.4583 153.031 28.875C152.281 28.4896 151.349 28.2969 150.234 28.2969C148.995 28.2969 148.005 28.5469 147.266 29.0469C146.526 29.5469 146.156 30.2448 146.156 31.1406C146.156 31.9635 146.521 32.5781 147.25 32.9844C147.719 33.2552 148.719 33.5729 150.25 33.9375L154.219 34.8906C155.958 35.3073 157.271 35.8646 158.156 36.5625C159.531 37.6458 160.219 39.2135 160.219 41.2656C160.219 43.3698 159.411 45.1198 157.797 46.5156C156.193 47.901 153.922 48.5938 150.984 48.5938C147.984 48.5938 145.625 47.9115 143.906 46.5469C142.188 45.1719 141.328 43.2865 141.328 40.8906H145.922C146.068 41.9427 146.354 42.7292 146.781 43.25C147.562 44.1979 148.901 44.6719 150.797 44.6719ZM179.812 37.9375H168.625V43.8594H181.375V48H163.922V24.9688H180.812V29.0469H168.625V33.9375H179.812V37.9375ZM198.609 43.2656H190.125L188.531 48H183.5L191.719 24.9688H197.156L205.312 48H200.094L198.609 43.2656ZM197.266 39.2969L194.391 30.2344L191.422 39.2969H197.266ZM222.703 48.5625C220.37 48.5625 218.547 47.875 217.234 46.5C215.922 45.125 215.266 43.599 215.266 41.9219C215.266 40.5365 215.609 39.349 216.297 38.3594C216.984 37.3698 218.109 36.3906 219.672 35.4219L220.156 35.125C219.49 34.375 218.974 33.6094 218.609 32.8281C218.245 32.0469 218.062 31.2344 218.062 30.3906C218.062 28.7135 218.625 27.4062 219.75 26.4688C220.875 25.5208 222.333 25.0469 224.125 25.0469C225.76 25.0469 227.109 25.5312 228.172 26.5C229.245 27.4583 229.781 28.6875 229.781 30.1875C229.781 31.5417 229.458 32.6406 228.812 33.4844C228.177 34.3281 227.24 35.1094 226 35.8281L229.266 39.8594C229.641 39.3177 229.927 38.7292 230.125 38.0938C230.333 37.4583 230.443 36.7865 230.453 36.0781H234.406C234.344 37.474 234.01 38.8854 233.406 40.3125C233.073 41.1146 232.531 42 231.781 42.9688L235.969 48H230.562L228.969 46.0469C228.198 46.7656 227.479 47.2969 226.812 47.6406C225.625 48.2552 224.255 48.5625 222.703 48.5625ZM222.453 37.9688C221.339 38.7083 220.599 39.3594 220.234 39.9219C219.88 40.4844 219.703 41.1042 219.703 41.7812C219.703 42.5417 220.01 43.2396 220.625 43.875C221.25 44.5104 222.047 44.8281 223.016 44.8281C223.745 44.8281 224.432 44.6615 225.078 44.3281C225.734 43.9844 226.266 43.6042 226.672 43.1875L222.453 37.9688ZM222.156 30.2344C222.156 30.651 222.302 31.0885 222.594 31.5469C222.781 31.849 223.188 32.3854 223.812 33.1562C224.438 32.7188 224.885 32.349 225.156 32.0469C225.677 31.4844 225.938 30.875 225.938 30.2188C225.938 29.7396 225.781 29.3125 225.469 28.9375C225.156 28.5625 224.682 28.375 224.047 28.375C223.651 28.375 223.281 28.4844 222.938 28.7031C222.417 29.026 222.156 29.5365 222.156 30.2344ZM256.359 44.6719C257.495 44.6719 258.417 44.5469 259.125 44.2969C260.469 43.8177 261.141 42.9271 261.141 41.625C261.141 40.8646 260.807 40.276 260.141 39.8594C259.474 39.4531 258.427 39.0938 257 38.7812L254.562 38.2344C252.167 37.6927 250.51 37.1042 249.594 36.4688C248.042 35.4062 247.266 33.7448 247.266 31.4844C247.266 29.4219 248.016 27.7083 249.516 26.3438C251.016 24.9792 253.219 24.2969 256.125 24.2969C258.552 24.2969 260.62 24.9427 262.328 26.2344C264.047 27.5156 264.948 29.3802 265.031 31.8281H260.406C260.323 30.4427 259.719 29.4583 258.594 28.875C257.844 28.4896 256.911 28.2969 255.797 28.2969C254.557 28.2969 253.568 28.5469 252.828 29.0469C252.089 29.5469 251.719 30.2448 251.719 31.1406C251.719 31.9635 252.083 32.5781 252.812 32.9844C253.281 33.2552 254.281 33.5729 255.812 33.9375L259.781 34.8906C261.521 35.3073 262.833 35.8646 263.719 36.5625C265.094 37.6458 265.781 39.2135 265.781 41.2656C265.781 43.3698 264.974 45.1198 263.359 46.5156C261.755 47.901 259.484 48.5938 256.547 48.5938C253.547 48.5938 251.188 47.9115 249.469 46.5469C247.75 45.1719 246.891 43.2865 246.891 40.8906H251.484C251.63 41.9427 251.917 42.7292 252.344 43.25C253.125 44.1979 254.464 44.6719 256.359 44.6719ZM282.828 43.2656H274.344L272.75 48H267.719L275.938 24.9688H281.375L289.531 48H284.312L282.828 43.2656ZM281.484 39.2969L278.609 30.2344L275.641 39.2969H281.484ZM288.391 24.9688H293.531L298.531 42.4531L303.578 24.9688H308.578L300.719 48H296.172L288.391 24.9688ZM321.625 48.6406C318.333 48.6406 315.818 47.7448 314.078 45.9531C311.745 43.7552 310.578 40.5885 310.578 36.4531C310.578 32.2344 311.745 29.0677 314.078 26.9531C315.818 25.1615 318.333 24.2656 321.625 24.2656C324.917 24.2656 327.432 25.1615 329.172 26.9531C331.495 29.0677 332.656 32.2344 332.656 36.4531C332.656 40.5885 331.495 43.7552 329.172 45.9531C327.432 47.7448 324.917 48.6406 321.625 48.6406ZM326.172 42.4531C327.286 41.0469 327.844 39.0469 327.844 36.4531C327.844 33.8698 327.281 31.875 326.156 30.4688C325.042 29.0521 323.531 28.3438 321.625 28.3438C319.719 28.3438 318.198 29.0469 317.062 30.4531C315.927 31.8594 315.359 33.8594 315.359 36.4531C315.359 39.0469 315.927 41.0469 317.062 42.4531C318.198 43.8594 319.719 44.5625 321.625 44.5625C323.531 44.5625 325.047 43.8594 326.172 42.4531ZM346.125 38.9688H341.156V48H336.453V24.9688H347.75C349.365 25 350.604 25.1979 351.469 25.5625C352.344 25.9271 353.083 26.4635 353.688 27.1719C354.188 27.7552 354.583 28.401 354.875 29.1094C355.167 29.8177 355.312 30.625 355.312 31.5312C355.312 32.625 355.036 33.7031 354.484 34.7656C353.932 35.8177 353.021 36.5625 351.75 37C352.812 37.4271 353.562 38.0365 354 38.8281C354.448 39.6094 354.672 40.8073 354.672 42.4219V43.9688C354.672 45.0208 354.714 45.7344 354.797 46.1094C354.922 46.7031 355.214 47.1406 355.672 47.4219V48H350.375C350.229 47.4896 350.125 47.0781 350.062 46.7656C349.938 46.1198 349.87 45.4583 349.859 44.7812L349.828 42.6406C349.807 41.1719 349.536 40.1927 349.016 39.7031C348.505 39.2135 347.542 38.9688 346.125 38.9688ZM349.047 34.7812C350.005 34.3438 350.484 33.4792 350.484 32.1875C350.484 30.7917 350.021 29.8542 349.094 29.375C348.573 29.1042 347.792 28.9688 346.75 28.9688H341.156V35.1562H346.609C347.693 35.1562 348.505 35.0312 349.047 34.7812Z" fill="#1E3D59"/>
<path d="M145.298 63.6846C146.569 63.6846 147.556 64.0195 148.258 64.6895C148.96 65.3594 149.349 66.1204 149.427 66.9727H148.101C147.95 66.3255 147.649 65.8128 147.198 65.4346C146.752 65.0563 146.123 64.8672 145.312 64.8672C144.323 64.8672 143.523 65.2158 142.912 65.9131C142.306 66.6058 142.003 67.6699 142.003 69.1055C142.003 70.2812 142.276 71.236 142.823 71.9697C143.375 72.6989 144.195 73.0635 145.284 73.0635C146.287 73.0635 147.05 72.6784 147.574 71.9082C147.852 71.5026 148.06 70.9694 148.196 70.3086H149.522C149.404 71.3659 149.012 72.2523 148.347 72.9678C147.549 73.8291 146.474 74.2598 145.12 74.2598C143.953 74.2598 142.974 73.9066 142.181 73.2002C141.137 72.266 140.615 70.8236 140.615 68.873C140.615 67.3919 141.007 66.1774 141.791 65.2295C142.639 64.1995 143.808 63.6846 145.298 63.6846ZM152.66 63.958V70.165C152.66 70.8942 152.797 71.5003 153.07 71.9834C153.476 72.7126 154.16 73.0771 155.121 73.0771C156.274 73.0771 157.058 72.6829 157.473 71.8945C157.696 71.4661 157.808 70.8896 157.808 70.165V63.958H159.188V69.5977C159.188 70.8327 159.022 71.7829 158.689 72.4482C158.079 73.6605 156.926 74.2666 155.23 74.2666C153.535 74.2666 152.384 73.6605 151.778 72.4482C151.446 71.7829 151.279 70.8327 151.279 69.5977V63.958H152.66ZM161.301 63.958H162.661V72.8037H167.747V74H161.301V63.958ZM169.401 63.958H170.775V74H169.401V63.958ZM172.99 63.958H174.597L179.669 72.0928V63.958H180.961V74H179.437L174.289 65.8721V74H172.99V63.958ZM188.262 69.8848L186.737 65.4482L185.117 69.8848H188.262ZM186.026 63.958H187.564L191.208 74H189.718L188.699 70.9922H184.728L183.641 74H182.246L186.026 63.958ZM197.114 68.5586C197.752 68.5586 198.256 68.431 198.625 68.1758C198.999 67.9206 199.186 67.4603 199.186 66.7949C199.186 66.0794 198.926 65.5918 198.406 65.332C198.128 65.1953 197.757 65.127 197.292 65.127H193.97V68.5586H197.114ZM192.609 63.958H197.258C198.023 63.958 198.655 64.0697 199.151 64.293C200.095 64.7214 200.566 65.512 200.566 66.665C200.566 67.2666 200.441 67.7588 200.19 68.1416C199.944 68.5244 199.598 68.832 199.151 69.0645C199.543 69.224 199.837 69.4336 200.033 69.6934C200.234 69.9531 200.345 70.3747 200.368 70.958L200.416 72.3047C200.43 72.6875 200.462 72.9723 200.512 73.1592C200.594 73.4782 200.74 73.6833 200.949 73.7744V74H199.281C199.236 73.9134 199.199 73.8018 199.172 73.665C199.145 73.5283 199.122 73.264 199.104 72.8721L199.021 71.1973C198.99 70.541 198.746 70.1012 198.29 69.8779C198.03 69.7549 197.622 69.6934 197.066 69.6934H193.97V74H192.609V63.958ZM201.537 63.958H203.123L206.008 68.7842L208.893 63.958H210.485L206.691 69.9531V74H205.331V69.9531L201.537 63.958ZM215.968 63.958L217.861 72.127L220.131 63.958H221.607L223.877 72.127L225.771 63.958H227.261L224.622 74H223.193L220.876 65.6738L218.545 74H217.116L214.491 63.958H215.968ZM232.859 63.6846C234.632 63.6846 235.945 64.2542 236.797 65.3936C237.462 66.2822 237.795 67.4193 237.795 68.8047C237.795 70.304 237.414 71.5505 236.653 72.5439C235.76 73.7106 234.486 74.2939 232.832 74.2939C231.287 74.2939 230.073 73.7835 229.188 72.7627C228.4 71.7783 228.006 70.5342 228.006 69.0303C228.006 67.6722 228.343 66.5101 229.018 65.5439C229.883 64.3044 231.164 63.6846 232.859 63.6846ZM232.996 73.0771C234.195 73.0771 235.061 72.6488 235.594 71.792C236.132 70.9307 236.4 69.9417 236.4 68.8252C236.4 67.6449 236.09 66.6947 235.471 65.9746C234.855 65.2546 234.012 64.8945 232.941 64.8945C231.902 64.8945 231.055 65.2523 230.398 65.9678C229.742 66.6787 229.414 67.7292 229.414 69.1191C229.414 70.2311 229.694 71.1699 230.255 71.9355C230.82 72.6966 231.734 73.0771 232.996 73.0771ZM244.091 68.5586C244.729 68.5586 245.232 68.431 245.602 68.1758C245.975 67.9206 246.162 67.4603 246.162 66.7949C246.162 66.0794 245.902 65.5918 245.383 65.332C245.105 65.1953 244.733 65.127 244.269 65.127H240.946V68.5586H244.091ZM239.586 63.958H244.234C245 63.958 245.631 64.0697 246.128 64.293C247.071 64.7214 247.543 65.512 247.543 66.665C247.543 67.2666 247.418 67.7588 247.167 68.1416C246.921 68.5244 246.575 68.832 246.128 69.0645C246.52 69.224 246.814 69.4336 247.01 69.6934C247.21 69.9531 247.322 70.3747 247.345 70.958L247.393 72.3047C247.406 72.6875 247.438 72.9723 247.488 73.1592C247.57 73.4782 247.716 73.6833 247.926 73.7744V74H246.258C246.212 73.9134 246.176 73.8018 246.148 73.665C246.121 73.5283 246.098 73.264 246.08 72.8721L245.998 71.1973C245.966 70.541 245.722 70.1012 245.267 69.8779C245.007 69.7549 244.599 69.6934 244.043 69.6934H240.946V74H239.586V63.958ZM249.539 63.958H250.865V68.8525L255.76 63.958H257.64L253.463 68.0049L257.756 74H255.985L252.472 68.9619L250.865 70.5V74H249.539V63.958ZM259.766 70.7598C259.798 71.3294 259.932 71.792 260.169 72.1475C260.62 72.8128 261.415 73.1455 262.555 73.1455C263.065 73.1455 263.53 73.0726 263.949 72.9268C264.76 72.6442 265.166 72.1383 265.166 71.4092C265.166 70.8623 264.995 70.4727 264.653 70.2402C264.307 70.0124 263.765 69.8141 263.026 69.6455L261.666 69.3379C260.777 69.1374 260.148 68.9163 259.779 68.6748C259.141 68.2555 258.822 67.6289 258.822 66.7949C258.822 65.8926 259.134 65.152 259.759 64.5732C260.383 63.9945 261.267 63.7051 262.411 63.7051C263.464 63.7051 264.357 63.9603 265.091 64.4707C265.829 64.9766 266.198 65.7878 266.198 66.9043H264.92C264.852 66.3665 264.706 65.9541 264.482 65.667C264.068 65.1429 263.364 64.8809 262.37 64.8809C261.568 64.8809 260.992 65.0495 260.641 65.3867C260.29 65.724 260.114 66.1159 260.114 66.5625C260.114 67.0547 260.319 67.4147 260.729 67.6426C260.998 67.7884 261.607 67.9707 262.555 68.1895L263.963 68.5107C264.642 68.6657 265.166 68.8776 265.535 69.1465C266.173 69.6159 266.492 70.2972 266.492 71.1904C266.492 72.3024 266.087 73.0977 265.275 73.5762C264.469 74.0547 263.53 74.2939 262.459 74.2939C261.21 74.2939 260.233 73.9749 259.526 73.3369C258.82 72.7035 258.474 71.8444 258.487 70.7598H259.766ZM268.249 63.958H269.623V68.1074H274.846V63.958H276.22V74H274.846V69.3037H269.623V74H268.249V63.958ZM282.666 63.6846C284.439 63.6846 285.751 64.2542 286.604 65.3936C287.269 66.2822 287.602 67.4193 287.602 68.8047C287.602 70.304 287.221 71.5505 286.46 72.5439C285.567 73.7106 284.293 74.2939 282.639 74.2939C281.094 74.2939 279.879 73.7835 278.995 72.7627C278.207 71.7783 277.812 70.5342 277.812 69.0303C277.812 67.6722 278.15 66.5101 278.824 65.5439C279.69 64.3044 280.971 63.6846 282.666 63.6846ZM282.803 73.0771C284.001 73.0771 284.867 72.6488 285.4 71.792C285.938 70.9307 286.207 69.9417 286.207 68.8252C286.207 67.6449 285.897 66.6947 285.277 65.9746C284.662 65.2546 283.819 64.8945 282.748 64.8945C281.709 64.8945 280.861 65.2523 280.205 65.9678C279.549 66.6787 279.221 67.7292 279.221 69.1191C279.221 70.2311 279.501 71.1699 280.062 71.9355C280.627 72.6966 281.54 73.0771 282.803 73.0771ZM289.358 63.958H293.877C294.77 63.958 295.49 64.2109 296.037 64.7168C296.584 65.2181 296.857 65.9245 296.857 66.8359C296.857 67.6198 296.614 68.3034 296.126 68.8867C295.638 69.4655 294.889 69.7549 293.877 69.7549H290.719V74H289.358V63.958ZM295.483 66.8428C295.483 66.1045 295.21 65.6032 294.663 65.3389C294.362 65.1976 293.95 65.127 293.426 65.127H290.719V68.6064H293.426C294.036 68.6064 294.531 68.4766 294.909 68.2168C295.292 67.957 295.483 67.499 295.483 66.8428Z" fill="#17B1B1"/>
</svg>
