<svg width="185" height="105" viewBox="0 0 185 105" fill="none" xmlns="http://www.w3.org/2000/svg">
<path d="M92 71V41M77 71H107" stroke="#2D3748" stroke-width="3"/>
<path d="M62 41C62 14.3333 72 1 92 1C112 1 122 14.3333 122 41H62Z" fill="url(#paint0_linear_775_5)" stroke="#2D3748" stroke-width="2"/>
<path d="M82 13C83.1046 13 84 12.1046 84 11C84 9.89543 83.1046 9 82 9C80.8954 9 80 9.89543 80 11C80 12.1046 80.8954 13 82 13Z" fill="#E2E8F0"/>
<path d="M102 17.5C102.828 17.5 103.5 16.8284 103.5 16C103.5 15.1716 102.828 14.5 102 14.5C101.172 14.5 100.5 15.1716 100.5 16C100.5 16.8284 101.172 17.5 102 17.5Z" fill="#E2E8F0"/>
<path d="M12.9102 92.6836L16.2734 93.75C15.7578 95.625 14.8984 97.0195 13.6953 97.9336C12.5 98.8398 10.9805 99.293 9.13672 99.293C6.85547 99.293 4.98047 98.5156 3.51172 96.9609C2.04297 95.3984 1.30859 93.2656 1.30859 90.5625C1.30859 87.7031 2.04688 85.4844 3.52344 83.9062C5 82.3203 6.94141 81.5273 9.34766 81.5273C11.4492 81.5273 13.1562 82.1484 14.4688 83.3906C15.25 84.125 15.8359 85.1797 16.2266 86.5547L12.793 87.375C12.5898 86.4844 12.1641 85.7812 11.5156 85.2656C10.875 84.75 10.0938 84.4922 9.17188 84.4922C7.89844 84.4922 6.86328 84.9492 6.06641 85.8633C5.27734 86.7773 4.88281 88.2578 4.88281 90.3047C4.88281 92.4766 5.27344 94.0234 6.05469 94.9453C6.83594 95.8672 7.85156 96.3281 9.10156 96.3281C10.0234 96.3281 10.8164 96.0352 11.4805 95.4492C12.1445 94.8633 12.6211 93.9414 12.9102 92.6836ZM19.2734 99V81.8203H26.5742C28.4102 81.8203 29.7422 81.9766 30.5703 82.2891C31.4062 82.5938 32.0742 83.1406 32.5742 83.9297C33.0742 84.7188 33.3242 85.6211 33.3242 86.6367C33.3242 87.9258 32.9453 88.9922 32.1875 89.8359C31.4297 90.6719 30.2969 91.1992 28.7891 91.418C29.5391 91.8555 30.1562 92.3359 30.6406 92.8594C31.1328 93.3828 31.793 94.3125 32.6211 95.6484L34.7188 99H30.5703L28.0625 95.2617C27.1719 93.9258 26.5625 93.0859 26.2344 92.7422C25.9062 92.3906 25.5586 92.1523 25.1914 92.0273C24.8242 91.8945 24.2422 91.8281 23.4453 91.8281H22.7422V99H19.2734ZM22.7422 89.0859H25.3086C26.9727 89.0859 28.0117 89.0156 28.4258 88.875C28.8398 88.7344 29.1641 88.4922 29.3984 88.1484C29.6328 87.8047 29.75 87.375 29.75 86.8594C29.75 86.2812 29.5938 85.8164 29.2812 85.4648C28.9766 85.1055 28.543 84.8789 27.9805 84.7852C27.6992 84.7461 26.8555 84.7266 25.4492 84.7266H22.7422V89.0859ZM40.2266 99V91.7695L33.9336 81.8203H38L42.043 88.6172L46.0039 81.8203H50L43.6836 91.793V99H40.2266ZM50.8438 93.4102L54.2188 93.082C54.4219 94.2148 54.832 95.0469 55.4492 95.5781C56.0742 96.1094 56.9141 96.375 57.9688 96.375C59.0859 96.375 59.9258 96.1406 60.4883 95.6719C61.0586 95.1953 61.3438 94.6406 61.3438 94.0078C61.3438 93.6016 61.2227 93.2578 60.9805 92.9766C60.7461 92.6875 60.332 92.4375 59.7383 92.2266C59.332 92.0859 58.4062 91.8359 56.9609 91.4766C55.1016 91.0156 53.7969 90.4492 53.0469 89.7773C51.9922 88.832 51.4648 87.6797 51.4648 86.3203C51.4648 85.4453 51.7109 84.6289 52.2031 83.8711C52.7031 83.1055 53.418 82.5234 54.3477 82.125C55.2852 81.7266 56.4141 81.5273 57.7344 81.5273C59.8906 81.5273 61.5117 82 62.5977 82.9453C63.6914 83.8906 64.2656 85.1523 64.3203 86.7305L60.8516 86.8828C60.7031 86 60.3828 85.3672 59.8906 84.9844C59.4062 84.5938 58.6758 84.3984 57.6992 84.3984C56.6914 84.3984 55.9023 84.6055 55.332 85.0195C54.9648 85.2852 54.7812 85.6406 54.7812 86.0859C54.7812 86.4922 54.9531 86.8398 55.2969 87.1289C55.7344 87.4961 56.7969 87.8789 58.4844 88.2773C60.1719 88.6758 61.418 89.0898 62.2227 89.5195C63.0352 89.9414 63.668 90.5234 64.1211 91.2656C64.582 92 64.8125 92.9102 64.8125 93.9961C64.8125 94.9805 64.5391 95.9023 63.9922 96.7617C63.4453 97.6211 62.6719 98.2617 61.6719 98.6836C60.6719 99.0977 59.4258 99.3047 57.9336 99.3047C55.7617 99.3047 54.0938 98.8047 52.9297 97.8047C51.7656 96.7969 51.0703 95.332 50.8438 93.4102ZM71.5977 99V84.7266H66.5V81.8203H80.1523V84.7266H75.0664V99H71.5977ZM96.1133 99H92.3398L90.8398 95.0977H83.9727L82.5547 99H78.875L85.5664 81.8203H89.2344L96.1133 99ZM89.7266 92.2031L87.3594 85.8281L85.0391 92.2031H89.7266ZM98.0586 99V81.9609H101.527V96.1055H110.152V99H98.0586ZM118.906 99V81.8203H122.281L129.312 93.293V81.8203H132.535V99H129.055L122.129 87.7969V99H118.906ZM135.512 90.5156C135.512 88.7656 135.773 87.2969 136.297 86.1094C136.688 85.2344 137.219 84.4492 137.891 83.7539C138.57 83.0586 139.312 82.543 140.117 82.207C141.188 81.7539 142.422 81.5273 143.82 81.5273C146.352 81.5273 148.375 82.3125 149.891 83.8828C151.414 85.4531 152.176 87.6367 152.176 90.4336C152.176 93.207 151.422 95.3789 149.914 96.9492C148.406 98.5117 146.391 99.293 143.867 99.293C141.312 99.293 139.281 98.5156 137.773 96.9609C136.266 95.3984 135.512 93.25 135.512 90.5156ZM139.086 90.3984C139.086 92.3438 139.535 93.8203 140.434 94.8281C141.332 95.8281 142.473 96.3281 143.855 96.3281C145.238 96.3281 146.371 95.832 147.254 94.8398C148.145 93.8398 148.59 92.3438 148.59 90.3516C148.59 88.3828 148.156 86.9141 147.289 85.9453C146.43 84.9766 145.285 84.4922 143.855 84.4922C142.426 84.4922 141.273 84.9844 140.398 85.9688C139.523 86.9453 139.086 88.4219 139.086 90.3984ZM159.277 99L153.137 81.8203H156.898L161.246 94.5352L165.453 81.8203H169.133L162.98 99H159.277ZM184.613 99H180.84L179.34 95.0977H172.473L171.055 99H167.375L174.066 81.8203H177.734L184.613 99ZM178.227 92.2031L175.859 85.8281L173.539 92.2031H178.227Z" fill="#2D3748"/>
<defs>
<linearGradient id="paint0_linear_775_5" x1="62" y1="1" x2="6062" y2="1" gradientUnits="userSpaceOnUse">
<stop stop-color="#4A5568" stop-opacity="0.9"/>
<stop offset="0.5" stop-color="#718096" stop-opacity="0.7"/>
<stop offset="1" stop-color="#4A5568" stop-opacity="0.9"/>
</linearGradient>
</defs>
</svg>
