<svg width="111" height="204" viewBox="0 0 111 204" fill="none" xmlns="http://www.w3.org/2000/svg">
<path d="M56 3L96 63C99.3333 69.6667 101 76.3333 101 83V123L91 133H21L11 123V83C11 76.3333 12.6667 69.6667 16 63L56 3Z" stroke="#2C3E50" stroke-width="3"/>
<path d="M56 8L76 43L56 78L36 43L56 8Z" stroke="#2C3E50" stroke-width="1.5"/>
<path d="M56 23L71 53L56 68L41 53L56 23Z" stroke="#2C3E50" stroke-width="1.5"/>
<path d="M61 133H51V153H61V133Z" fill="#2C3E50"/>
<path d="M36 153H76C79.3333 153 81 154.667 81 158H31C31 154.667 32.6667 153 36 153Z" fill="#2C3E50"/>
<path d="M16.7227 175.879L16.1836 177.062C15.207 177.578 14.3281 177.93 13.5469 178.117C12.7734 178.312 11.8047 178.41 10.6406 178.41C8.98438 178.41 7.51953 178.148 6.24609 177.625C5.24609 177.203 4.39844 176.645 3.70312 175.949C3.00781 175.254 2.47266 174.5 2.09766 173.688C1.52734 172.461 1.24219 171.129 1.24219 169.691C1.24219 167.23 2.08203 165.223 3.76172 163.668C5.44922 162.105 7.82812 161.324 10.8984 161.324C11.9531 161.324 12.8984 161.402 13.7344 161.559C14.5781 161.715 15.5547 161.992 16.6641 162.391L16.7227 162.543C16.5977 162.91 16.5 163.371 16.4297 163.926C16.3125 164.809 16.2383 165.625 16.207 166.375H15.293C15.2773 165.516 15.2383 164.828 15.1758 164.312C14.6523 163.766 14.0625 163.359 13.4062 163.094C12.7578 162.82 11.9258 162.684 10.9102 162.684C9.07422 162.684 7.60547 163.266 6.50391 164.43C5.40234 165.586 4.85156 167.203 4.85156 169.281C4.85156 170.539 5.03516 171.637 5.40234 172.574C5.77734 173.512 6.27344 174.289 6.89062 174.906C7.50781 175.516 8.12891 175.961 8.75391 176.242C9.60547 176.617 10.6367 176.805 11.8477 176.805C12.6445 176.805 13.3984 176.715 14.1094 176.535C14.8203 176.355 15.5938 176.047 16.4297 175.609L16.7227 175.879ZM18.3047 162.578V161.617C18.4844 161.617 19.1094 161.633 20.1797 161.664C20.7031 161.68 21.4453 161.688 22.4062 161.688C23.2266 161.688 23.9297 161.672 24.5156 161.641C25.4844 161.602 26.2852 161.582 26.918 161.582C28.1445 161.582 29.0625 161.672 29.6719 161.852C30.2812 162.023 30.8008 162.387 31.2305 162.941C31.6602 163.496 31.875 164.172 31.875 164.969C31.875 165.914 31.582 166.773 30.9961 167.547C30.4102 168.32 29.5078 168.934 28.2891 169.387C28.4844 169.738 28.707 170.098 28.957 170.465C29.207 170.832 29.3516 171.055 29.3906 171.133C29.4375 171.211 29.4844 171.285 29.5312 171.355L31.3477 174.086C31.832 174.812 32.0938 175.203 32.1328 175.258C32.7188 176.039 33.0781 176.5 33.2109 176.641C33.3438 176.781 33.4727 176.879 33.5977 176.934C33.7227 176.988 33.9688 177.02 34.3359 177.027V178C33.1328 177.969 32.2617 177.953 31.7227 177.953C31.0977 177.953 30.4766 177.969 29.8594 178C29.8203 177.828 29.7266 177.605 29.5781 177.332L27.0703 173.195C26.3516 172.008 25.7422 171.074 25.2422 170.395C24.9922 170.051 24.75 169.793 24.5156 169.621L24.6445 169.234C25.582 169.266 26.2891 169.172 26.7656 168.953C27.2422 168.727 27.6445 168.328 27.9727 167.758C28.3008 167.18 28.4648 166.535 28.4648 165.824C28.4648 165.105 28.293 164.508 27.9492 164.031C27.6055 163.555 27.1797 163.223 26.6719 163.035C26.3438 162.918 25.7578 162.859 24.9141 162.859C24.5391 162.859 24.168 162.891 23.8008 162.953C23.7773 163.234 23.7539 163.867 23.7305 164.852C23.6836 167.062 23.6602 168.539 23.6602 169.281C23.6602 170.453 23.6719 171.695 23.6953 173.008C23.7266 174.617 23.75 175.531 23.7656 175.75C23.7891 176.188 23.832 176.473 23.8945 176.605C23.9258 176.668 23.9766 176.727 24.0469 176.781C24.1172 176.828 24.2305 176.867 24.3867 176.898C24.543 176.93 24.9961 176.953 25.7461 176.969V178C24.4102 177.953 23.0586 177.93 21.6914 177.93C20.4727 177.93 19.3438 177.953 18.3047 178V176.969C19.1953 176.938 19.7227 176.895 19.8867 176.84C19.9805 176.816 20.0469 176.777 20.0859 176.723C20.1328 176.668 20.168 176.559 20.1914 176.395C20.2461 176.09 20.2852 175.629 20.3086 175.012L20.4023 171.59V167.242L20.3555 164.77C20.3398 163.793 20.293 163.207 20.2148 163.012C20.1758 162.926 20.1172 162.859 20.0391 162.812C19.8516 162.719 19.2734 162.641 18.3047 162.578ZM42.8438 169.387L44.3203 166.996C44.5703 166.566 45.3125 165.258 46.5469 163.07C46.9766 162.32 47.2461 161.832 47.3555 161.605H49.1953V162.133C48.25 163.406 47.2305 164.902 46.1367 166.621C45.043 168.34 44.3672 169.445 44.1094 169.938C43.9375 170.273 43.8242 170.566 43.7695 170.816C43.7227 170.996 43.6992 171.289 43.6992 171.695V173.676C43.6992 174.668 43.7227 175.391 43.7695 175.844C43.8242 176.297 43.8867 176.57 43.957 176.664C44.0273 176.758 44.1445 176.828 44.3086 176.875C44.4727 176.922 44.9883 176.953 45.8555 176.969V178C44.3633 177.953 43.0156 177.93 41.8125 177.93C40.6406 177.93 39.4531 177.953 38.25 178V176.969C39.1406 176.938 39.6602 176.902 39.8086 176.863C39.9648 176.824 40.0703 176.766 40.125 176.688C40.1875 176.609 40.2305 176.375 40.2539 175.984C40.3008 175.094 40.3242 174.336 40.3242 173.711V171.484C40.3242 171.305 40.1758 170.934 39.8789 170.371C39.1445 169.027 38.3594 167.703 37.5234 166.398C36.8438 165.336 36.2109 164.484 35.625 163.844C35.2344 163.422 34.957 163.168 34.793 163.082C34.6914 163.035 34.3477 163.012 33.7617 163.012V162.133L36.2461 161.641C36.668 161.547 37.1016 161.441 37.5469 161.324C38.0234 161.59 38.3711 161.828 38.5898 162.039C38.8086 162.242 39.1094 162.629 39.4922 163.199C40.0625 164.043 40.6289 165.016 41.1914 166.117C42.1055 167.891 42.6562 168.98 42.8438 169.387ZM61.4648 165.895H60.4805C60.4648 164.988 60.4258 164.348 60.3633 163.973C60.1211 163.629 59.6992 163.324 59.0977 163.059C58.5039 162.793 57.8359 162.66 57.0938 162.66C56.0312 162.66 55.207 162.93 54.6211 163.469C54.043 164 53.7539 164.625 53.7539 165.344C53.7617 165.859 53.8477 166.277 54.0117 166.598C54.1758 166.918 54.4102 167.172 54.7148 167.359C55.0195 167.547 55.4688 167.719 56.0625 167.875C56.5156 167.969 57.1445 168.086 57.9492 168.227C58.7617 168.367 59.2891 168.465 59.5312 168.52C60.1641 168.684 60.6758 168.883 61.0664 169.117C61.457 169.344 61.7656 169.609 61.9922 169.914C62.2266 170.211 62.418 170.59 62.5664 171.051C62.7148 171.504 62.7891 172.016 62.7891 172.586C62.7891 173.586 62.582 174.465 62.168 175.223C61.8555 175.793 61.4219 176.316 60.8672 176.793C60.3125 177.262 59.7422 177.613 59.1562 177.848C58.2188 178.223 57.0938 178.41 55.7812 178.41C54.8203 178.41 53.9648 178.32 53.2148 178.141C52.4648 177.961 51.6406 177.652 50.7422 177.215C50.9844 176.324 51.1094 174.969 51.1172 173.148H52.1016C52.0859 173.711 52.1289 174.41 52.2305 175.246C52.5273 175.73 53.0352 176.156 53.7539 176.523C54.4727 176.891 55.2578 177.074 56.1094 177.074C56.8516 177.074 57.5117 176.945 58.0898 176.688C58.6758 176.422 59.0977 176.059 59.3555 175.598C59.6211 175.137 59.7539 174.613 59.7539 174.027C59.7539 173.535 59.6602 173.113 59.4727 172.762C59.293 172.41 59.0078 172.129 58.6172 171.918C58.2266 171.707 57.5391 171.488 56.5547 171.262C55.1406 170.965 54.2109 170.75 53.7656 170.617C53.0938 170.414 52.5508 170.121 52.1367 169.738C51.7305 169.355 51.4258 168.895 51.2227 168.355C51.0195 167.809 50.918 167.223 50.918 166.598C50.918 165.723 51.1016 164.918 51.4688 164.184C51.8359 163.441 52.3203 162.867 52.9219 162.461C53.5234 162.055 54.2031 161.766 54.9609 161.594C55.7188 161.414 56.4961 161.324 57.293 161.324C58.1211 161.324 58.9219 161.398 59.6953 161.547C60.4766 161.695 61.1523 161.91 61.7227 162.191L61.8164 162.473C61.707 162.98 61.625 163.48 61.5703 163.973C61.5234 164.457 61.4883 165.098 61.4648 165.895ZM68.2734 178V177.039C69.2109 177.008 69.7656 176.945 69.9375 176.852C70.1172 176.758 70.2383 176.602 70.3008 176.383C70.3867 176.047 70.4297 175.035 70.4297 173.348V166.328C70.4297 164.414 70.418 163.344 70.3945 163.117H68.7188C67.875 163.117 67.1328 163.145 66.4922 163.199C66.2344 163.223 66.0859 163.254 66.0469 163.293C65.9922 163.34 65.9453 163.477 65.9062 163.703C65.8047 164.25 65.7461 164.863 65.7305 165.543H64.7578C64.7266 163.941 64.707 163.039 64.6992 162.836C64.6758 162.492 64.6367 162.121 64.582 161.723L64.6875 161.605C65.0547 161.645 65.4453 161.672 65.8594 161.688C66.5312 161.711 67.8242 161.723 69.7383 161.723H74.4727C76.4414 161.723 77.7578 161.711 78.4219 161.688C78.7812 161.672 79.1445 161.645 79.5117 161.605L79.6289 161.723C79.5586 162.199 79.5156 162.617 79.5 162.977C79.4922 163.039 79.4766 163.895 79.4531 165.543H78.4805C78.4648 164.934 78.4141 164.352 78.3281 163.797C78.2812 163.516 78.2305 163.348 78.1758 163.293C78.1289 163.254 78.0039 163.227 77.8008 163.211C77.1602 163.148 76.3906 163.117 75.4922 163.117H73.8164C73.793 163.391 73.7812 164.461 73.7812 166.328V173.348C73.7812 175.035 73.8242 176.051 73.9102 176.395C73.9648 176.598 74.082 176.75 74.2617 176.852C74.4414 176.945 75 177.008 75.9375 177.039V178C74.4219 177.93 73.1445 177.895 72.1055 177.895C70.9961 177.895 69.7188 177.93 68.2734 178ZM78.4336 178V177.027C79.0664 176.98 79.4414 176.941 79.5586 176.91C79.6836 176.871 79.7891 176.816 79.875 176.746C79.9609 176.668 80.0469 176.551 80.1328 176.395C80.2266 176.23 80.4961 175.633 80.9414 174.602C81.1445 174.117 81.5352 173.16 82.1133 171.73L85.1719 164.184L86.2031 161.523H87.8672L93.1055 173.758L93.832 175.363L94.3008 176.441C94.3789 176.582 94.4531 176.684 94.5234 176.746C94.5938 176.809 94.6719 176.855 94.7578 176.887C94.8516 176.918 95.082 176.945 95.4492 176.969C95.5664 176.984 95.7383 177.004 95.9648 177.027V178L92.707 177.93L88.5938 178V177.027C89.5391 176.988 90.0703 176.938 90.1875 176.875C90.3125 176.805 90.375 176.691 90.375 176.535C90.375 176.34 90.2852 176.02 90.1055 175.574L89.0977 172.996H83.0742L82.5586 174.402C82.168 175.48 81.9727 176.152 81.9727 176.418C81.9727 176.605 82.0352 176.738 82.1602 176.816C82.3477 176.926 82.9062 176.996 83.8359 177.027V178L81.1289 177.93L78.4336 178ZM83.6133 171.66C84.3477 171.684 85.1797 171.695 86.1094 171.695C87.0078 171.695 87.8125 171.684 88.5234 171.66L86.0156 165.613L83.6133 171.66ZM98.1445 178V177.402C98.3477 177.316 98.6328 177.164 99 176.945C99.1641 176.852 99.2695 176.773 99.3164 176.711C99.3477 176.672 99.3672 176.629 99.375 176.582C99.4141 176.387 99.4492 175.691 99.4805 174.496C99.5117 173.293 99.5273 171.852 99.5273 170.172C99.5273 167.703 99.5195 166.18 99.5039 165.602C99.4727 164.133 99.4219 163.293 99.3516 163.082C99.3203 162.988 99.2617 162.918 99.1758 162.871C98.9961 162.754 98.3984 162.676 97.3828 162.637V161.605C98.375 161.652 99.5078 161.676 100.781 161.676C102.203 161.676 103.551 161.652 104.824 161.605V162.637C103.941 162.676 103.402 162.746 103.207 162.848C103.121 162.895 103.059 162.973 103.02 163.082C102.98 163.184 102.941 163.664 102.902 164.523C102.871 165.383 102.855 166.469 102.855 167.781C102.855 167.922 102.859 169.051 102.867 171.168C102.875 172.285 102.879 173.395 102.879 174.496C102.887 175.59 102.895 176.254 102.902 176.488C103.98 176.535 104.715 176.559 105.105 176.559C106.293 176.559 107.328 176.488 108.211 176.348C108.531 176.301 108.723 176.25 108.785 176.195C108.848 176.141 108.914 175.996 108.984 175.762C109.141 175.168 109.293 174.488 109.441 173.723H110.414C110.391 173.941 110.379 174.07 110.379 174.109L110.086 176.477C110.023 177.219 109.988 177.664 109.98 177.812C109.754 177.875 109.527 177.918 109.301 177.941C108.824 177.98 108.086 178 107.086 178C106.945 178 106.027 177.98 104.332 177.941C103.043 177.91 102.145 177.895 101.637 177.895C100.871 177.895 99.707 177.93 98.1445 178Z" fill="#2C3E50"/>
<path d="M6.42188 198V197.402C6.625 197.316 6.91016 197.164 7.27734 196.945C7.44141 196.852 7.54688 196.773 7.59375 196.711C7.625 196.672 7.64453 196.629 7.65234 196.582C7.69141 196.387 7.72656 195.691 7.75781 194.496C7.78906 193.293 7.80469 191.852 7.80469 190.172C7.80469 187.703 7.79688 186.18 7.78125 185.602C7.75 184.133 7.69922 183.293 7.62891 183.082C7.59766 182.988 7.53906 182.918 7.45312 182.871C7.27344 182.754 6.67578 182.676 5.66016 182.637V181.605C6.65234 181.652 7.78516 181.676 9.05859 181.676C10.4805 181.676 11.8281 181.652 13.1016 181.605V182.637C12.2188 182.676 11.6797 182.746 11.4844 182.848C11.3984 182.895 11.3359 182.973 11.2969 183.082C11.2578 183.184 11.2188 183.664 11.1797 184.523C11.1484 185.383 11.1328 186.469 11.1328 187.781C11.1328 187.922 11.1367 189.051 11.1445 191.168C11.1523 192.285 11.1562 193.395 11.1562 194.496C11.1641 195.59 11.1719 196.254 11.1797 196.488C12.2578 196.535 12.9922 196.559 13.3828 196.559C14.5703 196.559 15.6055 196.488 16.4883 196.348C16.8086 196.301 17 196.25 17.0625 196.195C17.125 196.141 17.1914 195.996 17.2617 195.762C17.418 195.168 17.5703 194.488 17.7188 193.723H18.6914C18.668 193.941 18.6562 194.07 18.6562 194.109L18.3633 196.477C18.3008 197.219 18.2656 197.664 18.2578 197.812C18.0312 197.875 17.8047 197.918 17.5781 197.941C17.1016 197.98 16.3633 198 15.3633 198C15.2227 198 14.3047 197.98 12.6094 197.941C11.3203 197.91 10.4219 197.895 9.91406 197.895C9.14844 197.895 7.98438 197.93 6.42188 198ZM20.9297 198V197.367C21.3984 197.148 21.7812 196.922 22.0781 196.688C22.125 196.359 22.1641 195.828 22.1953 195.094C22.2578 193.75 22.2891 192.773 22.2891 192.164V186.891C22.2891 186.688 22.2773 185.926 22.2539 184.605C22.2305 183.723 22.1758 183.184 22.0898 182.988C22.0508 182.91 21.9922 182.852 21.9141 182.812C21.7031 182.719 21.1406 182.648 20.2266 182.602V181.605L22.9453 181.664C23.4844 181.672 24 181.676 24.4922 181.676C25.5625 181.676 26.7539 181.664 28.0664 181.641L30.4453 181.582C30.7266 181.582 31.2969 181.598 32.1562 181.629C32.2344 181.629 32.3633 181.652 32.543 181.699L32.625 181.852L32.4023 183.539C32.3945 183.656 32.3555 184.219 32.2852 185.227H31.3711C31.3555 184.305 31.3203 183.738 31.2656 183.527C31.2344 183.418 31.1875 183.34 31.125 183.293C31.0234 183.223 30.7109 183.16 30.1875 183.105C29.4141 183.02 28.6562 182.977 27.9141 182.977C27.2188 182.977 26.5078 183.004 25.7812 183.059C25.6719 183.941 25.6172 185.062 25.6172 186.422V188.824C26.1484 188.863 26.7031 188.883 27.2812 188.883C27.4609 188.883 28.1094 188.867 29.2266 188.836C29.6484 188.828 29.8945 188.801 29.9648 188.754C30.043 188.707 30.1016 188.625 30.1406 188.508C30.2344 188.211 30.2891 187.715 30.3047 187.02H31.2539L31.207 189.598L31.2539 192.164H30.2461C30.2539 191.258 30.1953 190.699 30.0703 190.488C29.9766 190.332 29.8086 190.234 29.5664 190.195C29.0273 190.109 28.3359 190.066 27.4922 190.066C26.7344 190.066 26.1094 190.09 25.6172 190.137V195.105C25.6172 195.66 25.6289 196.137 25.6523 196.535C26.2852 196.582 27.0352 196.605 27.9023 196.605C28.7461 196.605 29.5234 196.578 30.2344 196.523C30.9531 196.469 31.3945 196.391 31.5586 196.289C31.6133 196.258 31.6641 196.188 31.7109 196.078C31.8516 195.703 32 194.992 32.1562 193.945H33.1172C32.9453 195.492 32.8594 196.766 32.8594 197.766L32.707 197.918C32.207 197.973 31.4961 198 30.5742 198L28.6875 197.965C26.8281 197.941 25.5469 197.93 24.8438 197.93C24.6562 197.93 23.3516 197.953 20.9297 198ZM51.3281 186.352H50.3906C50.3906 186.102 50.375 185.73 50.3438 185.238C50.3203 184.895 50.2812 184.602 50.2266 184.359C50.0312 184.125 49.8203 183.934 49.5938 183.785C49.0859 183.441 48.5 183.172 47.8359 182.977C47.1719 182.781 46.4219 182.684 45.5859 182.684C43.6328 182.684 42.0664 183.289 40.8867 184.5C39.7148 185.711 39.1289 187.375 39.1289 189.492C39.1289 191.805 39.7461 193.645 40.9805 195.012C42.2227 196.371 43.7422 197.051 45.5391 197.051C46.0625 197.051 46.5703 196.996 47.0625 196.887C47.5625 196.777 48.0508 196.617 48.5273 196.406C48.5508 196.195 48.5703 195.789 48.5859 195.188C48.6016 194.586 48.6094 194.223 48.6094 194.098C48.6094 193.348 48.5781 192.902 48.5156 192.762C48.4688 192.668 48.3633 192.602 48.1992 192.562C47.9258 192.484 47.1836 192.41 45.9727 192.34V191.391L49.4766 191.438L53.0039 191.391V192.164C52.5508 192.258 52.2539 192.387 52.1133 192.551C52.043 192.629 52 192.844 51.9844 193.195C51.9453 194.094 51.9258 194.738 51.9258 195.129C51.9258 195.723 51.9609 196.332 52.0312 196.957C50.5781 197.488 49.3086 197.863 48.2227 198.082C47.1445 198.301 46.0664 198.41 44.9883 198.41C43.2305 198.41 41.6758 198.113 40.3242 197.52C39.3789 197.098 38.5703 196.555 37.8984 195.891C37.2266 195.227 36.7148 194.512 36.3633 193.746C35.8086 192.559 35.5312 191.238 35.5312 189.785C35.5312 188.559 35.7109 187.488 36.0703 186.574C36.4375 185.66 36.9453 184.863 37.5938 184.184C38.2422 183.496 38.9766 182.941 39.7969 182.52C40.625 182.09 41.4883 181.785 42.3867 181.605C43.293 181.418 44.2852 181.324 45.3633 181.324C46.6914 181.324 47.9258 181.445 49.0664 181.688C50.2148 181.93 51.1094 182.195 51.75 182.484L51.8438 182.707C51.6562 183.395 51.4844 184.609 51.3281 186.352ZM54.7266 198V197.027C55.3594 196.98 55.7344 196.941 55.8516 196.91C55.9766 196.871 56.082 196.816 56.168 196.746C56.2539 196.668 56.3398 196.551 56.4258 196.395C56.5195 196.23 56.7891 195.633 57.2344 194.602C57.4375 194.117 57.8281 193.16 58.4062 191.73L61.4648 184.184L62.4961 181.523H64.1602L69.3984 193.758L70.125 195.363L70.5938 196.441C70.6719 196.582 70.7461 196.684 70.8164 196.746C70.8867 196.809 70.9648 196.855 71.0508 196.887C71.1445 196.918 71.375 196.945 71.7422 196.969C71.8594 196.984 72.0312 197.004 72.2578 197.027V198L69 197.93L64.8867 198V197.027C65.832 196.988 66.3633 196.938 66.4805 196.875C66.6055 196.805 66.668 196.691 66.668 196.535C66.668 196.34 66.5781 196.02 66.3984 195.574L65.3906 192.996H59.3672L58.8516 194.402C58.4609 195.48 58.2656 196.152 58.2656 196.418C58.2656 196.605 58.3281 196.738 58.4531 196.816C58.6406 196.926 59.1992 196.996 60.1289 197.027V198L57.4219 197.93L54.7266 198ZM59.9062 191.66C60.6406 191.684 61.4727 191.695 62.4023 191.695C63.3008 191.695 64.1055 191.684 64.8164 191.66L62.3086 185.613L59.9062 191.66ZM89.5547 195.879L89.0156 197.062C88.0391 197.578 87.1602 197.93 86.3789 198.117C85.6055 198.312 84.6367 198.41 83.4727 198.41C81.8164 198.41 80.3516 198.148 79.0781 197.625C78.0781 197.203 77.2305 196.645 76.5352 195.949C75.8398 195.254 75.3047 194.5 74.9297 193.688C74.3594 192.461 74.0742 191.129 74.0742 189.691C74.0742 187.23 74.9141 185.223 76.5938 183.668C78.2812 182.105 80.6602 181.324 83.7305 181.324C84.7852 181.324 85.7305 181.402 86.5664 181.559C87.4102 181.715 88.3867 181.992 89.4961 182.391L89.5547 182.543C89.4297 182.91 89.332 183.371 89.2617 183.926C89.1445 184.809 89.0703 185.625 89.0391 186.375H88.125C88.1094 185.516 88.0703 184.828 88.0078 184.312C87.4844 183.766 86.8945 183.359 86.2383 183.094C85.5898 182.82 84.7578 182.684 83.7422 182.684C81.9062 182.684 80.4375 183.266 79.3359 184.43C78.2344 185.586 77.6836 187.203 77.6836 189.281C77.6836 190.539 77.8672 191.637 78.2344 192.574C78.6094 193.512 79.1055 194.289 79.7227 194.906C80.3398 195.516 80.9609 195.961 81.5859 196.242C82.4375 196.617 83.4688 196.805 84.6797 196.805C85.4766 196.805 86.2305 196.715 86.9414 196.535C87.6523 196.355 88.4258 196.047 89.2617 195.609L89.5547 195.879ZM99.6445 189.387L101.121 186.996C101.371 186.566 102.113 185.258 103.348 183.07C103.777 182.32 104.047 181.832 104.156 181.605H105.996V182.133C105.051 183.406 104.031 184.902 102.938 186.621C101.844 188.34 101.168 189.445 100.91 189.938C100.738 190.273 100.625 190.566 100.57 190.816C100.523 190.996 100.5 191.289 100.5 191.695V193.676C100.5 194.668 100.523 195.391 100.57 195.844C100.625 196.297 100.688 196.57 100.758 196.664C100.828 196.758 100.945 196.828 101.109 196.875C101.273 196.922 101.789 196.953 102.656 196.969V198C101.164 197.953 99.8164 197.93 98.6133 197.93C97.4414 197.93 96.2539 197.953 95.0508 198V196.969C95.9414 196.938 96.4609 196.902 96.6094 196.863C96.7656 196.824 96.8711 196.766 96.9258 196.688C96.9883 196.609 97.0312 196.375 97.0547 195.984C97.1016 195.094 97.125 194.336 97.125 193.711V191.484C97.125 191.305 96.9766 190.934 96.6797 190.371C95.9453 189.027 95.1602 187.703 94.3242 186.398C93.6445 185.336 93.0117 184.484 92.4258 183.844C92.0352 183.422 91.7578 183.168 91.5938 183.082C91.4922 183.035 91.1484 183.012 90.5625 183.012V182.133L93.0469 181.641C93.4688 181.547 93.9023 181.441 94.3477 181.324C94.8242 181.59 95.1719 181.828 95.3906 182.039C95.6094 182.242 95.9102 182.629 96.293 183.199C96.8633 184.043 97.4297 185.016 97.9922 186.117C98.9062 187.891 99.457 188.98 99.6445 189.387Z" fill="#2C3E50"/>
</svg>
