<svg width="202" height="70" viewBox="0 0 202 70" fill="none" xmlns="http://www.w3.org/2000/svg">
<path d="M58.2843 30L30 1.71573L1.71573 30L30 58.2843L58.2843 30Z" stroke="#2C3E50" stroke-width="2"/>
<path d="M68.2843 40L40 11.7157L11.7157 40L40 68.2843L68.2843 40Z" stroke="#E74C3C" stroke-width="2"/>
<path d="M73.192 34V14.4H75.264V32.208H86.24V34H73.192ZM97.2208 34.168C94.7195 34.168 92.7501 33.4493 91.3128 32.012C89.8755 30.5747 89.1568 28.4467 89.1568 25.628V14.4H91.2288V25.544C91.2288 27.8587 91.7515 29.5667 92.7968 30.668C93.8421 31.7693 95.3168 32.32 97.2208 32.32C99.1435 32.32 100.627 31.7693 101.673 30.668C102.718 29.5667 103.241 27.8587 103.241 25.544V14.4H105.257V25.628C105.257 28.4467 104.538 30.5747 103.101 32.012C101.682 33.4493 99.7221 34.168 97.2208 34.168ZM111.501 34V14.4H113.209L122.169 29.688H121.273L130.149 14.4H131.857V34H129.869V17.508H130.345L122.169 31.508H121.189L112.957 17.508H113.489V34H111.501ZM138.243 34V14.4H140.315V34H138.243ZM148.54 23.164H158.9V24.928H148.54V23.164ZM148.764 32.208H160.552V34H146.692V14.4H160.132V16.192H148.764V32.208ZM153.3 12.804L148.764 9.332H151.424L155.26 12.804H153.3ZM165.422 34V14.4H172.758C174.42 14.4 175.848 14.6707 177.042 15.212C178.237 15.7347 179.152 16.5 179.786 17.508C180.44 18.4973 180.766 19.7013 180.766 21.12C180.766 22.5013 180.44 23.696 179.786 24.704C179.152 25.6933 178.237 26.4587 177.042 27C175.848 27.5227 174.42 27.784 172.758 27.784H166.57L167.494 26.832V34H165.422ZM178.806 34L173.766 26.888H176.006L181.074 34H178.806ZM167.494 27L166.57 26.02H172.702C174.662 26.02 176.146 25.5907 177.154 24.732C178.181 23.8733 178.694 22.6693 178.694 21.12C178.694 19.552 178.181 18.3387 177.154 17.48C176.146 16.6213 174.662 16.192 172.702 16.192H166.57L167.494 15.212V27ZM187.505 23.164H197.865V24.928H187.505V23.164ZM187.729 32.208H199.517V34H185.657V14.4H199.097V16.192H187.729V32.208Z" fill="#2C3E50"/>
<path d="M71.368 50V41.6H74.992C75.928 41.6 76.652 41.788 77.164 42.164C77.684 42.54 77.944 43.072 77.944 43.76C77.944 44.216 77.836 44.6 77.62 44.912C77.412 45.224 77.124 45.46 76.756 45.62C76.396 45.78 76 45.86 75.568 45.86L75.772 45.572C76.308 45.572 76.768 45.656 77.152 45.824C77.544 45.984 77.848 46.228 78.064 46.556C78.28 46.876 78.388 47.276 78.388 47.756C78.388 48.468 78.124 49.02 77.596 49.412C77.076 49.804 76.288 50 75.232 50H71.368ZM72.256 49.268H75.22C75.956 49.268 76.52 49.144 76.912 48.896C77.304 48.64 77.5 48.236 77.5 47.684C77.5 47.14 77.304 46.744 76.912 46.496C76.52 46.24 75.956 46.112 75.22 46.112H72.16V45.38H74.932C75.604 45.38 76.124 45.252 76.492 44.996C76.868 44.74 77.056 44.36 77.056 43.856C77.056 43.344 76.868 42.964 76.492 42.716C76.124 42.46 75.604 42.332 74.932 42.332H72.256V49.268ZM84.0869 50.072C83.4549 50.072 82.8669 49.968 82.3229 49.76C81.7869 49.544 81.3189 49.244 80.9189 48.86C80.5269 48.468 80.2189 48.016 79.9949 47.504C79.7789 46.984 79.6709 46.416 79.6709 45.8C79.6709 45.184 79.7789 44.62 79.9949 44.108C80.2189 43.588 80.5269 43.136 80.9189 42.752C81.3189 42.36 81.7869 42.06 82.3229 41.852C82.8589 41.636 83.4469 41.528 84.0869 41.528C84.7189 41.528 85.3029 41.636 85.8389 41.852C86.3749 42.06 86.8389 42.356 87.2309 42.74C87.6309 43.124 87.9389 43.576 88.1549 44.096C88.3789 44.616 88.4909 45.184 88.4909 45.8C88.4909 46.416 88.3789 46.984 88.1549 47.504C87.9389 48.024 87.6309 48.476 87.2309 48.86C86.8389 49.244 86.3749 49.544 85.8389 49.76C85.3029 49.968 84.7189 50.072 84.0869 50.072ZM84.0869 49.28C84.5909 49.28 85.0549 49.196 85.4789 49.028C85.9109 48.852 86.2829 48.608 86.5949 48.296C86.9149 47.976 87.1629 47.608 87.3389 47.192C87.5149 46.768 87.6029 46.304 87.6029 45.8C87.6029 45.296 87.5149 44.836 87.3389 44.42C87.1629 43.996 86.9149 43.628 86.5949 43.316C86.2829 42.996 85.9109 42.752 85.4789 42.584C85.0549 42.408 84.5909 42.32 84.0869 42.32C83.5829 42.32 83.1149 42.408 82.6829 42.584C82.2509 42.752 81.8749 42.996 81.5549 43.316C81.2429 43.628 80.9949 43.996 80.8109 44.42C80.6349 44.836 80.5469 45.296 80.5469 45.8C80.5469 46.296 80.6349 46.756 80.8109 47.18C80.9949 47.604 81.2429 47.976 81.5549 48.296C81.8749 48.608 82.2509 48.852 82.6829 49.028C83.1149 49.196 83.5829 49.28 84.0869 49.28ZM93.8653 50.072C92.7933 50.072 91.9493 49.764 91.3333 49.148C90.7173 48.532 90.4093 47.62 90.4093 46.412V41.6H91.2973V46.376C91.2973 47.368 91.5213 48.1 91.9693 48.572C92.4173 49.044 93.0493 49.28 93.8653 49.28C94.6893 49.28 95.3253 49.044 95.7733 48.572C96.2213 48.1 96.4453 47.368 96.4453 46.376V41.6H97.3093V46.412C97.3093 47.62 97.0013 48.532 96.3853 49.148C95.7773 49.764 94.9373 50.072 93.8653 50.072ZM101.453 50V42.368H98.5011V41.6H105.293V42.368H102.341V50H101.453ZM106.712 50V41.6H107.6V50H106.712ZM114.005 50.072C113.373 50.072 112.785 49.968 112.241 49.76C111.705 49.544 111.237 49.244 110.837 48.86C110.445 48.468 110.137 48.016 109.913 47.504C109.697 46.984 109.589 46.416 109.589 45.8C109.589 45.184 109.697 44.62 109.913 44.108C110.137 43.588 110.445 43.136 110.837 42.752C111.237 42.36 111.705 42.06 112.241 41.852C112.777 41.636 113.365 41.528 114.005 41.528C114.637 41.528 115.221 41.636 115.757 41.852C116.293 42.06 116.757 42.356 117.149 42.74C117.549 43.124 117.857 43.576 118.073 44.096C118.297 44.616 118.409 45.184 118.409 45.8C118.409 46.416 118.297 46.984 118.073 47.504C117.857 48.024 117.549 48.476 117.149 48.86C116.757 49.244 116.293 49.544 115.757 49.76C115.221 49.968 114.637 50.072 114.005 50.072ZM116.753 51.668C116.497 51.668 116.249 51.636 116.009 51.572C115.769 51.508 115.525 51.404 115.277 51.26C115.037 51.124 114.789 50.944 114.533 50.72C114.277 50.496 113.997 50.224 113.693 49.904L114.665 49.664C114.913 49.96 115.153 50.204 115.385 50.396C115.625 50.588 115.857 50.728 116.081 50.816C116.313 50.912 116.541 50.96 116.765 50.96C117.389 50.96 117.921 50.704 118.361 50.192L118.793 50.708C118.265 51.348 117.585 51.668 116.753 51.668ZM114.005 49.28C114.509 49.28 114.973 49.196 115.397 49.028C115.829 48.852 116.201 48.604 116.513 48.284C116.833 47.964 117.081 47.596 117.257 47.18C117.433 46.756 117.521 46.296 117.521 45.8C117.521 45.296 117.433 44.836 117.257 44.42C117.081 43.996 116.833 43.628 116.513 43.316C116.201 42.996 115.829 42.752 115.397 42.584C114.973 42.408 114.509 42.32 114.005 42.32C113.501 42.32 113.033 42.408 112.601 42.584C112.169 42.752 111.793 42.996 111.473 43.316C111.161 43.628 110.913 43.996 110.729 44.42C110.553 44.836 110.465 45.296 110.465 45.8C110.465 46.296 110.553 46.756 110.729 47.18C110.913 47.596 111.161 47.964 111.473 48.284C111.793 48.604 112.169 48.852 112.601 49.028C113.033 49.196 113.501 49.28 114.005 49.28ZM123.783 50.072C122.711 50.072 121.867 49.764 121.251 49.148C120.635 48.532 120.327 47.62 120.327 46.412V41.6H121.215V46.376C121.215 47.368 121.439 48.1 121.887 48.572C122.335 49.044 122.967 49.28 123.783 49.28C124.607 49.28 125.243 49.044 125.691 48.572C126.139 48.1 126.363 47.368 126.363 46.376V41.6H127.227V46.412C127.227 47.62 126.919 48.532 126.303 49.148C125.695 49.764 124.855 50.072 123.783 50.072ZM130.695 45.356H135.135V46.112H130.695V45.356ZM130.791 49.232H135.843V50H129.903V41.6H135.663V42.368H130.791V49.232Z" fill="#E74C3C"/>
</svg>
