<svg width="241" height="99" viewBox="0 0 241 99" fill="none" xmlns="http://www.w3.org/2000/svg">
<path d="M34 4V64M34 64C34 77.3333 27.3333 84 14 84H54C40.6667 84 34 77.3333 34 64Z" stroke="#1A5F7A" stroke-width="8" stroke-linecap="round"/>
<path d="M4 24H64" stroke="#1A5F7A" stroke-width="8" stroke-linecap="round"/>
<path d="M34 4C47.3333 4 57.3333 10.6667 64 24C70.6667 37.3333 67.3333 47.3333 54 54" stroke="#E67E22" stroke-width="6" stroke-linecap="round"/>
<path d="M69.8438 73H57.8281V71.7812C58.1823 71.75 58.6146 71.6979 59.125 71.625C59.6458 71.5521 60 71.474 60.1875 71.3906C60.5729 71.2344 60.849 71.0208 61.0156 70.75C61.1823 70.4792 61.2656 70.1354 61.2656 69.7188V53.1562L53.6406 72.6406H51.6719C51.5781 72.2969 51.3438 71.6146 50.9688 70.5938C50.6042 69.5729 50.3073 68.7552 50.0781 68.1406L44.4688 52.9062V66.3906C44.4688 67.6823 44.5521 68.6667 44.7188 69.3438C44.8958 70.0104 45.1771 70.5 45.5625 70.8125C45.8229 71.0312 46.2865 71.2396 46.9531 71.4375C47.6302 71.6354 48.1042 71.75 48.375 71.7812V73H38.8438V71.7812C39.1042 71.75 39.526 71.6823 40.1094 71.5781C40.7031 71.4635 41.1875 71.2708 41.5625 71C41.9792 70.7083 42.2604 70.2188 42.4062 69.5312C42.5521 68.8333 42.625 67.8438 42.625 66.5625V55.5781C42.625 54.9115 42.5417 54.3594 42.375 53.9219C42.2083 53.474 41.9583 53.1198 41.625 52.8594C41.2083 52.5365 40.7812 52.3281 40.3438 52.2344C39.9062 52.1406 39.4635 52.0781 39.0156 52.0469V50.8281H49.2188L54.6875 65.4688L59.2969 53.5781C59.4531 53.1406 59.6042 52.6198 59.75 52.0156C59.8958 51.4115 59.974 51.0156 59.9844 50.8281H69.8125V52.0469C69.4792 52.0677 69.1302 52.1094 68.7656 52.1719C68.401 52.2344 68.0521 52.3177 67.7188 52.4219C67.3125 52.5573 67.0417 52.7708 66.9062 53.0625C66.7812 53.3542 66.7188 53.6771 66.7188 54.0312V69.7344C66.7188 70.1094 66.7812 70.4271 66.9062 70.6875C67.0417 70.9375 67.3125 71.1562 67.7188 71.3438C67.9271 71.4375 68.2656 71.526 68.7344 71.6094C69.2135 71.6927 69.5833 71.75 69.8438 71.7812V73ZM96.1875 73H84.1094V71.7812C84.6719 71.7396 85.3333 71.6406 86.0938 71.4844C86.8542 71.3177 87.2344 71.1146 87.2344 70.875C87.2344 70.7917 87.224 70.6979 87.2031 70.5938C87.1927 70.4896 87.151 70.349 87.0781 70.1719L85.1875 65.5781H77.5312C77.3542 66.0052 77.1562 66.5052 76.9375 67.0781C76.7292 67.651 76.5469 68.1615 76.3906 68.6094C76.1927 69.1927 76.0729 69.6146 76.0312 69.875C76 70.1354 75.9844 70.3177 75.9844 70.4219C75.9844 70.7552 76.2344 71.0417 76.7344 71.2812C77.2448 71.5104 78.0885 71.6771 79.2656 71.7812V73H70.1719V71.7812C70.5156 71.7604 70.901 71.7083 71.3281 71.625C71.7656 71.5312 72.1094 71.4062 72.3594 71.25C72.7865 71 73.1458 70.6927 73.4375 70.3281C73.7396 69.9635 73.9896 69.5312 74.1875 69.0312C75.3958 66.1042 76.6042 63.1719 77.8125 60.2344C79.0312 57.2969 80.375 54.0573 81.8438 50.5156H84.9688C87.0104 55.5365 88.6094 59.5052 89.7656 62.4219C90.9219 65.3385 91.9062 67.7552 92.7188 69.6719C92.8542 69.9844 93.026 70.2708 93.2344 70.5312C93.4427 70.7812 93.7396 71.0208 94.125 71.25C94.4167 71.4167 94.7552 71.5417 95.1406 71.625C95.526 71.7083 95.875 71.7604 96.1875 71.7812V73ZM84.5469 64.0312L81.3281 56L78.1562 64.0312H84.5469ZM121.859 73H113.359C111.891 70.75 110.667 68.9583 109.688 67.625C108.719 66.2917 107.51 64.75 106.062 63H105.203V69.7344C105.203 70.1094 105.271 70.4271 105.406 70.6875C105.552 70.9479 105.823 71.1667 106.219 71.3438C106.417 71.4271 106.724 71.5156 107.141 71.6094C107.568 71.6927 107.932 71.75 108.234 71.7812V73H96.4062V71.7812C96.7083 71.75 97.1042 71.7083 97.5938 71.6562C98.0938 71.5938 98.4479 71.5208 98.6562 71.4375C99.0521 71.2708 99.3177 71.0625 99.4531 70.8125C99.5885 70.5521 99.6562 70.224 99.6562 69.8281V54.1875C99.6562 53.8125 99.599 53.5 99.4844 53.25C99.3698 53 99.0938 52.7812 98.6562 52.5938C98.3229 52.4583 97.9271 52.3438 97.4688 52.25C97.0208 52.1562 96.6667 52.0885 96.4062 52.0469V50.8281H108.844C111.625 50.8281 113.734 51.2656 115.172 52.1406C116.62 53.0052 117.344 54.3177 117.344 56.0781C117.344 57.6302 116.896 58.8802 116 59.8281C115.115 60.7656 113.76 61.5 111.938 62.0312C112.646 62.9479 113.469 64.0104 114.406 65.2188C115.354 66.4271 116.339 67.6615 117.359 68.9219C117.682 69.3281 118.12 69.8281 118.672 70.4219C119.234 71.0052 119.729 71.3646 120.156 71.5C120.396 71.5729 120.698 71.6354 121.062 71.6875C121.438 71.7396 121.703 71.7708 121.859 71.7812V73ZM111.219 56.5156C111.219 55.0365 110.802 53.9583 109.969 53.2812C109.146 52.5938 107.969 52.25 106.438 52.25H105.203V61.5312H106.391C107.922 61.5312 109.109 61.1302 109.953 60.3281C110.797 59.526 111.219 58.2552 111.219 56.5156ZM134.141 73H121.844V71.7812C122.125 71.7604 122.536 71.7292 123.078 71.6875C123.63 71.6458 124.01 71.5833 124.219 71.5C124.604 71.3438 124.865 71.1406 125 70.8906C125.146 70.6302 125.219 70.3021 125.219 69.9062V54.1875C125.219 53.8333 125.151 53.5208 125.016 53.25C124.88 52.9792 124.615 52.7604 124.219 52.5938C123.969 52.4896 123.599 52.3854 123.109 52.2812C122.62 52.1667 122.198 52.0885 121.844 52.0469V50.8281H134.141V52.0469C133.828 52.0781 133.438 52.125 132.969 52.1875C132.5 52.2396 132.104 52.3177 131.781 52.4219C131.375 52.5573 131.104 52.7708 130.969 53.0625C130.833 53.3438 130.766 53.6667 130.766 54.0312V69.7344C130.766 70.1094 130.833 70.4323 130.969 70.7031C131.115 70.9635 131.385 71.1771 131.781 71.3438C132 71.4375 132.359 71.5312 132.859 71.625C133.37 71.7083 133.797 71.7604 134.141 71.7812V73ZM161.688 52.0469C161.396 52.0781 160.979 52.1354 160.438 52.2188C159.896 52.3021 159.406 52.5052 158.969 52.8281C158.583 53.1094 158.307 53.5938 158.141 54.2812C157.984 54.9583 157.906 55.9583 157.906 57.2812V73.125H155.125L141.312 55.9844V66.3906C141.312 67.6823 141.396 68.6667 141.562 69.3438C141.74 70.0104 142.021 70.5 142.406 70.8125C142.688 71.0417 143.135 71.2448 143.75 71.4219C144.365 71.599 144.854 71.7188 145.219 71.7812V73H135.688V71.7812C136.094 71.75 136.557 71.6771 137.078 71.5625C137.609 71.4375 138.052 71.25 138.406 71C138.812 70.6979 139.089 70.2448 139.234 69.6406C139.391 69.026 139.469 68 139.469 66.5625V56.0625C139.469 55.5417 139.385 55.0521 139.219 54.5938C139.062 54.125 138.812 53.724 138.469 53.3906C138.104 53.0365 137.682 52.7604 137.203 52.5625C136.734 52.3542 136.198 52.1927 135.594 52.0781V50.8281H143.938L156.062 65.8281V57.4375C156.062 56.1042 155.974 55.1146 155.797 54.4688C155.62 53.8125 155.339 53.3281 154.953 53.0156C154.651 52.776 154.203 52.5729 153.609 52.4062C153.016 52.2292 152.536 52.1094 152.172 52.0469V50.8281H161.688V52.0469ZM187.156 73H175.078V71.7812C175.641 71.7396 176.302 71.6406 177.062 71.4844C177.823 71.3177 178.203 71.1146 178.203 70.875C178.203 70.7917 178.193 70.6979 178.172 70.5938C178.161 70.4896 178.12 70.349 178.047 70.1719L176.156 65.5781H168.5C168.323 66.0052 168.125 66.5052 167.906 67.0781C167.698 67.651 167.516 68.1615 167.359 68.6094C167.161 69.1927 167.042 69.6146 167 69.875C166.969 70.1354 166.953 70.3177 166.953 70.4219C166.953 70.7552 167.203 71.0417 167.703 71.2812C168.214 71.5104 169.057 71.6771 170.234 71.7812V73H161.141V71.7812C161.484 71.7604 161.87 71.7083 162.297 71.625C162.734 71.5312 163.078 71.4062 163.328 71.25C163.755 71 164.115 70.6927 164.406 70.3281C164.708 69.9635 164.958 69.5312 165.156 69.0312C166.365 66.1042 167.573 63.1719 168.781 60.2344C170 57.2969 171.344 54.0573 172.812 50.5156H175.938C177.979 55.5365 179.578 59.5052 180.734 62.4219C181.891 65.3385 182.875 67.7552 183.688 69.6719C183.823 69.9844 183.995 70.2708 184.203 70.5312C184.411 70.7812 184.708 71.0208 185.094 71.25C185.385 71.4167 185.724 71.5417 186.109 71.625C186.495 71.7083 186.844 71.7604 187.156 71.7812V73ZM175.516 64.0312L172.297 56L169.125 64.0312H175.516ZM193.188 51.6094C193.188 52.1823 192.932 53.2969 192.422 54.9531C191.922 56.599 191.495 58.3281 191.141 60.1406H190.062C189.698 58.3281 189.266 56.599 188.766 54.9531C188.266 53.2969 188.016 52.1823 188.016 51.6094C188.016 50.9427 188.24 50.3594 188.688 49.8594C189.135 49.3594 189.776 49.1094 190.609 49.1094C191.422 49.1094 192.052 49.3594 192.5 49.8594C192.958 50.3594 193.188 50.9427 193.188 51.6094ZM205.297 73.5938C203.943 73.5938 202.677 73.4271 201.5 73.0938C200.333 72.7604 199.344 72.3646 198.531 71.9062L197.453 73H196.125L195.922 64.9844H197.266C197.568 65.7448 197.953 66.5469 198.422 67.3906C198.891 68.2344 199.432 68.9896 200.047 69.6562C200.682 70.3542 201.391 70.9219 202.172 71.3594C202.964 71.7969 203.885 72.0156 204.938 72.0156C206.354 72.0156 207.438 71.6719 208.188 70.9844C208.948 70.2865 209.328 69.4115 209.328 68.3594C209.328 67.4948 209.005 66.7708 208.359 66.1875C207.724 65.5938 206.734 65.0833 205.391 64.6562C204.516 64.375 203.708 64.1146 202.969 63.875C202.24 63.6354 201.552 63.3906 200.906 63.1406C199.417 62.5469 198.307 61.6979 197.578 60.5938C196.859 59.4896 196.5 58.2552 196.5 56.8906C196.5 56.026 196.688 55.1979 197.062 54.4062C197.438 53.6042 197.984 52.8854 198.703 52.25C199.391 51.6562 200.271 51.1719 201.344 50.7969C202.417 50.4219 203.583 50.2344 204.844 50.2344C206.073 50.2344 207.224 50.4062 208.297 50.75C209.37 51.0833 210.214 51.4219 210.828 51.7656L211.781 50.8281H213.141L213.266 58.3906H211.922C211.609 57.5781 211.24 56.75 210.812 55.9062C210.396 55.0521 209.953 54.3438 209.484 53.7812C208.974 53.1771 208.385 52.6979 207.719 52.3438C207.052 51.9792 206.271 51.7969 205.375 51.7969C204.25 51.7969 203.328 52.1146 202.609 52.75C201.901 53.3854 201.547 54.1719 201.547 55.1094C201.547 55.9948 201.854 56.7188 202.469 57.2812C203.094 57.8438 204.062 58.3385 205.375 58.7656C206.146 59.026 206.932 59.2865 207.734 59.5469C208.536 59.8073 209.25 60.0573 209.875 60.2969C211.385 60.8802 212.531 61.6875 213.312 62.7188C214.104 63.7396 214.5 65.0104 214.5 66.5312C214.5 67.4896 214.276 68.4167 213.828 69.3125C213.38 70.2083 212.776 70.9531 212.016 71.5469C211.182 72.2031 210.219 72.7083 209.125 73.0625C208.031 73.4167 206.755 73.5938 205.297 73.5938Z" fill="#1A5F7A"/>
<path d="M55.2051 89.4004L56.9922 89.2441C57.0768 89.9603 57.2721 90.5495 57.5781 91.0117C57.8906 91.4674 58.3724 91.8385 59.0234 92.125C59.6745 92.4049 60.4069 92.5449 61.2207 92.5449C61.9434 92.5449 62.5814 92.4375 63.1348 92.2227C63.6882 92.0078 64.0983 91.7148 64.3652 91.3438C64.6387 90.9661 64.7754 90.556 64.7754 90.1133C64.7754 89.6641 64.6452 89.2734 64.3848 88.9414C64.1243 88.6029 63.6947 88.3197 63.0957 88.0918C62.7116 87.9421 61.862 87.7109 60.5469 87.3984C59.2318 87.0794 58.3105 86.7799 57.7832 86.5C57.0996 86.1419 56.5885 85.6992 56.25 85.1719C55.918 84.638 55.752 84.0423 55.752 83.3848C55.752 82.6621 55.957 81.9883 56.3672 81.3633C56.7773 80.7318 57.3763 80.2533 58.1641 79.9277C58.9518 79.6022 59.8275 79.4395 60.791 79.4395C61.8522 79.4395 62.7865 79.612 63.5938 79.957C64.4076 80.2956 65.0326 80.7969 65.4688 81.4609C65.9049 82.125 66.1393 82.877 66.1719 83.7168L64.3555 83.8535C64.2578 82.9486 63.9258 82.265 63.3594 81.8027C62.7995 81.3405 61.9694 81.1094 60.8691 81.1094C59.7233 81.1094 58.8867 81.321 58.3594 81.7441C57.8385 82.1608 57.5781 82.6654 57.5781 83.2578C57.5781 83.7721 57.7637 84.1953 58.1348 84.5273C58.4993 84.8594 59.4499 85.2012 60.9863 85.5527C62.5293 85.8978 63.5872 86.2005 64.1602 86.4609C64.9935 86.8451 65.6087 87.3333 66.0059 87.9258C66.403 88.5117 66.6016 89.1888 66.6016 89.957C66.6016 90.7188 66.3835 91.4382 65.9473 92.1152C65.5111 92.7858 64.8828 93.3099 64.0625 93.6875C63.2487 94.0586 62.3307 94.2441 61.3086 94.2441C60.013 94.2441 58.9258 94.0553 58.0469 93.6777C57.1745 93.3001 56.4876 92.7337 55.9863 91.9785C55.4915 91.2168 55.2311 90.3574 55.2051 89.4004ZM69.2285 94V79.6836H79.5801V81.373H71.123V85.7578H79.043V87.4375H71.123V92.3105H79.9121V94H69.2285ZM80.957 94L86.4551 79.6836H88.4961L94.3555 94H92.1973L90.5273 89.6641H84.541L82.9688 94H80.957ZM85.0879 88.1211H89.9414L88.4473 84.1562C87.9915 82.9518 87.653 81.9622 87.4316 81.1875C87.2493 82.1055 86.9922 83.0169 86.6602 83.9219L85.0879 88.1211ZM95.9668 94V79.6836H105.625V81.373H97.8613V85.8066H104.58V87.4961H97.8613V94H95.9668ZM107.52 87.0273C107.52 84.651 108.158 82.7923 109.434 81.4512C110.71 80.1035 112.357 79.4297 114.375 79.4297C115.697 79.4297 116.888 79.7454 117.949 80.377C119.01 81.0085 119.818 81.8906 120.371 83.0234C120.931 84.1497 121.211 85.429 121.211 86.8613C121.211 88.3132 120.918 89.612 120.332 90.7578C119.746 91.9036 118.916 92.7728 117.842 93.3652C116.768 93.9512 115.609 94.2441 114.365 94.2441C113.018 94.2441 111.813 93.9186 110.752 93.2676C109.691 92.6165 108.887 91.7279 108.34 90.6016C107.793 89.4753 107.52 88.2839 107.52 87.0273ZM109.473 87.0566C109.473 88.7819 109.935 90.1426 110.859 91.1387C111.79 92.1283 112.956 92.623 114.355 92.623C115.781 92.623 116.953 92.1217 117.871 91.1191C118.796 90.1165 119.258 88.694 119.258 86.8516C119.258 85.6862 119.059 84.6706 118.662 83.8047C118.271 82.9323 117.695 82.2585 116.934 81.7832C116.178 81.3014 115.329 81.0605 114.385 81.0605C113.044 81.0605 111.888 81.5228 110.918 82.4473C109.954 83.3652 109.473 84.9017 109.473 87.0566ZM123.086 87.0273C123.086 84.651 123.724 82.7923 125 81.4512C126.276 80.1035 127.923 79.4297 129.941 79.4297C131.263 79.4297 132.454 79.7454 133.516 80.377C134.577 81.0085 135.384 81.8906 135.938 83.0234C136.497 84.1497 136.777 85.429 136.777 86.8613C136.777 88.3132 136.484 89.612 135.898 90.7578C135.312 91.9036 134.482 92.7728 133.408 93.3652C132.334 93.9512 131.175 94.2441 129.932 94.2441C128.584 94.2441 127.38 93.9186 126.318 93.2676C125.257 92.6165 124.453 91.7279 123.906 90.6016C123.359 89.4753 123.086 88.2839 123.086 87.0273ZM125.039 87.0566C125.039 88.7819 125.501 90.1426 126.426 91.1387C127.357 92.1283 128.522 92.623 129.922 92.623C131.348 92.623 132.52 92.1217 133.438 91.1191C134.362 90.1165 134.824 88.694 134.824 86.8516C134.824 85.6862 134.626 84.6706 134.229 83.8047C133.838 82.9323 133.262 82.2585 132.5 81.7832C131.745 81.3014 130.895 81.0605 129.951 81.0605C128.61 81.0605 127.454 81.5228 126.484 82.4473C125.521 83.3652 125.039 84.9017 125.039 87.0566ZM139.229 94V79.6836H144.16C145.273 79.6836 146.123 79.752 146.709 79.8887C147.529 80.0775 148.229 80.4193 148.809 80.9141C149.564 81.5521 150.127 82.3691 150.498 83.3652C150.876 84.3548 151.064 85.4876 151.064 86.7637C151.064 87.8509 150.938 88.8145 150.684 89.6543C150.43 90.4941 150.104 91.1908 149.707 91.7441C149.31 92.291 148.874 92.724 148.398 93.043C147.93 93.3555 147.36 93.5931 146.689 93.7559C146.025 93.9186 145.26 94 144.395 94H139.229ZM141.123 92.3105H144.18C145.124 92.3105 145.863 92.2227 146.396 92.0469C146.937 91.8711 147.367 91.6237 147.686 91.3047C148.135 90.8555 148.483 90.2533 148.73 89.498C148.984 88.7363 149.111 87.8151 149.111 86.7344C149.111 85.237 148.864 84.0879 148.369 83.2871C147.881 82.4798 147.285 81.9395 146.582 81.666C146.074 81.4707 145.257 81.373 144.131 81.373H141.123V92.3105ZM159.189 94V79.6836H162.041L165.43 89.8203C165.742 90.7643 165.97 91.4707 166.113 91.9395C166.276 91.4186 166.53 90.6536 166.875 89.6445L170.303 79.6836H172.852V94H171.025V82.0176L166.865 94H165.156L161.016 81.8125V94H159.189ZM174.336 94L179.834 79.6836H181.875L187.734 94H185.576L183.906 89.6641H177.92L176.348 94H174.336ZM178.467 88.1211H183.32L181.826 84.1562C181.37 82.9518 181.032 81.9622 180.811 81.1875C180.628 82.1055 180.371 83.0169 180.039 83.9219L178.467 88.1211ZM189.277 94V79.6836H195.625C196.901 79.6836 197.871 79.8138 198.535 80.0742C199.199 80.3281 199.73 80.7806 200.127 81.4316C200.524 82.0827 200.723 82.8021 200.723 83.5898C200.723 84.6055 200.394 85.4616 199.736 86.1582C199.079 86.8548 198.063 87.2975 196.689 87.4863C197.191 87.7272 197.572 87.9648 197.832 88.1992C198.385 88.707 198.91 89.3418 199.404 90.1035L201.895 94H199.512L197.617 91.0215C197.064 90.1621 196.608 89.5046 196.25 89.0488C195.892 88.5931 195.57 88.2741 195.283 88.0918C195.003 87.9095 194.717 87.7826 194.424 87.7109C194.209 87.6654 193.857 87.6426 193.369 87.6426H191.172V94H189.277ZM191.172 86.002H195.244C196.11 86.002 196.787 85.9141 197.275 85.7383C197.764 85.556 198.135 85.2695 198.389 84.8789C198.643 84.4818 198.77 84.0521 198.77 83.5898C198.77 82.9128 198.522 82.3561 198.027 81.9199C197.539 81.4837 196.764 81.2656 195.703 81.2656H191.172V86.002ZM203.623 94V79.6836H205.518V86.7832L212.627 79.6836H215.195L209.189 85.4844L215.459 94H212.959L207.861 86.7539L205.518 89.0391V94H203.623ZM217.08 94V79.6836H227.432V81.373H218.975V85.7578H226.895V87.4375H218.975V92.3105H227.764V94H217.08ZM234.023 94V81.373H229.307V79.6836H240.654V81.373H235.918V94H234.023Z" fill="#1A5F7A"/>
</svg>
