<svg width="230" height="65" viewBox="0 0 230 65" fill="none" xmlns="http://www.w3.org/2000/svg">
<path d="M2.83691 31V30.1094C2.93587 30.0475 3.10905 29.9486 3.35645 29.8125C3.8265 29.5527 4.25944 29.2806 4.65527 28.9961C4.79134 27.3385 4.85938 24.6481 4.85938 20.9248V17.8818C4.85938 16.249 4.82845 13.8555 4.7666 10.7012C4.72949 8.95703 4.64909 7.84375 4.52539 7.36133C4.48828 7.25 4.4388 7.16341 4.37695 7.10156C4.27799 7.0026 4.12337 6.92839 3.91309 6.87891C3.7028 6.82943 2.9235 6.7181 1.5752 6.54492V5.04199L8.31055 5.15332C9.10221 5.15332 10.5928 5.1224 12.7822 5.06055C14.3656 5.02344 15.6335 5.00488 16.5859 5.00488C18.7754 5.00488 20.5257 5.14095 21.8369 5.41309C23.1605 5.67285 24.3109 6.09961 25.2881 6.69336C26.2653 7.27474 27.0879 7.96745 27.7559 8.77148C28.4362 9.57552 28.9495 10.4414 29.2959 11.3691C29.8773 12.9277 30.168 14.6348 30.168 16.4902C30.168 18.8529 29.735 20.9619 28.8691 22.8174C28.0033 24.6729 26.8096 26.2253 25.2881 27.4746C23.779 28.724 22.14 29.627 20.3711 30.1836C18.6022 30.7279 16.4684 31 13.9697 31L8.45898 30.8887L2.83691 31ZM10.2588 28.7363C11.4092 28.9095 12.5101 28.9961 13.5615 28.9961C15.2067 28.9961 16.6663 28.8229 17.9404 28.4766C18.8805 28.2168 19.7031 27.8395 20.4082 27.3447C21.1133 26.8499 21.7874 26.1201 22.4307 25.1553C23.0863 24.1904 23.5934 23.04 23.9521 21.7041C24.3109 20.3682 24.4902 18.9271 24.4902 17.3809C24.4902 15.9707 24.3109 14.61 23.9521 13.2988C23.5934 11.9753 23.0059 10.8187 22.1895 9.8291C21.373 8.83952 20.3402 8.12207 19.0908 7.67676C17.8415 7.23145 15.9489 7.00879 13.4131 7.00879C12.4606 7.00879 11.4092 7.08919 10.2588 7.25C10.1351 9.00651 10.0732 12.3154 10.0732 17.1768V21.4443C10.0732 25.1305 10.1351 27.5612 10.2588 28.7363ZM33.6562 22.2422C33.6562 20.1393 34.015 18.4014 34.7324 17.0283C35.4499 15.6429 36.526 14.6038 37.9609 13.9111C39.3958 13.2061 41.0658 12.8535 42.9707 12.8535C45.8281 12.8535 47.999 13.6019 49.4834 15.0986C50.9801 16.5954 51.7285 18.791 51.7285 21.6855C51.7285 23.3555 51.512 24.8027 51.0791 26.0273C50.6462 27.252 50.0648 28.2415 49.335 28.9961C48.6051 29.7383 47.8382 30.3011 47.0342 30.6846C45.6611 31.3278 44.1149 31.6494 42.3955 31.6494C39.5999 31.6494 37.4414 30.8577 35.9199 29.2744C34.4108 27.6787 33.6562 25.3346 33.6562 22.2422ZM38.7959 21.3516C38.7959 24.6419 39.2783 26.986 40.2432 28.3838C40.8864 29.3115 41.8018 29.7754 42.9893 29.7754C44.0036 29.7754 44.8076 29.4229 45.4014 28.7178C46.193 27.7777 46.5889 25.9593 46.5889 23.2627C46.5889 21.3701 46.4281 19.7497 46.1064 18.4014C45.7972 17.0407 45.3333 16.0944 44.7148 15.5625C44.1087 15.0306 43.3727 14.7646 42.5068 14.7646C41.7646 14.7646 41.1152 14.9626 40.5586 15.3584C40.002 15.7419 39.569 16.3975 39.2598 17.3252C38.9505 18.2406 38.7959 19.5827 38.7959 21.3516ZM64.7539 29.5156V31C63.2077 30.901 61.5934 30.8516 59.9111 30.8516C58.2288 30.8516 56.3363 30.901 54.2334 31V29.5342C55.4085 29.4971 56.1198 29.4476 56.3672 29.3857C56.5527 29.3363 56.6888 29.2682 56.7754 29.1816C56.8743 29.0827 56.9424 28.9342 56.9795 28.7363C57.0661 28.3652 57.1279 27.1963 57.165 25.2295C57.2021 23.2627 57.2207 21.5186 57.2207 19.9971V13.874C57.2207 11.932 57.1774 10.1569 57.0908 8.54883C57.0413 7.68294 56.9795 7.1696 56.9053 7.00879C56.8558 6.9222 56.7878 6.85417 56.7012 6.80469C56.5527 6.70573 56.3177 6.63151 55.9961 6.58203C55.8105 6.55729 55.2539 6.52637 54.3262 6.48926V5.11621C55.86 4.9554 57.0846 4.78223 58 4.59668C58.9154 4.39876 60.1462 4.05859 61.6924 3.57617L62.082 3.79883L61.9336 7.54688C61.8717 9.64974 61.8346 12.2288 61.8223 15.2842V20.0342C61.8223 21.8278 61.8346 23.1699 61.8594 24.0605C61.9089 26.2747 61.946 27.6169 61.9707 28.0869C61.9954 28.5446 62.0387 28.8353 62.1006 28.959C62.1377 29.0456 62.1995 29.1198 62.2861 29.1816C62.3975 29.2682 62.5892 29.3363 62.8613 29.3857C62.9727 29.4105 63.6035 29.4538 64.7539 29.5156ZM81.8428 28.5508L81.0264 30.3506C79.9626 30.8825 79.0967 31.2288 78.4287 31.3896C77.7731 31.5628 76.9814 31.6494 76.0537 31.6494C74.0251 31.6494 72.3799 31.2536 71.1182 30.4619C69.8564 29.6702 68.8978 28.5384 68.2422 27.0664C67.7721 26.0273 67.5371 24.6419 67.5371 22.9102C67.5371 21.6113 67.6608 20.5475 67.9082 19.7188C68.1556 18.89 68.5081 18.1602 68.9658 17.5293C69.2751 17.1087 69.6895 16.7129 70.209 16.3418L73.0664 14.542C74.0312 13.9235 74.693 13.5524 75.0518 13.4287C75.6455 13.2061 76.4186 13.0947 77.3711 13.0947C78.1628 13.0947 78.8988 13.1628 79.5791 13.2988C80.2718 13.4225 80.9089 13.6143 81.4902 13.874L81.6758 14.1895L81.2119 17.2139C81.1748 17.486 81.113 18.3395 81.0264 19.7744H79.5791C79.5049 18.6735 79.4121 17.8571 79.3008 17.3252C79.041 16.9046 78.639 16.5645 78.0947 16.3047C77.5505 16.0326 76.8825 15.8965 76.0908 15.8965C75.1507 15.8965 74.4023 16.0697 73.8457 16.416C73.2891 16.7624 72.8809 17.3438 72.6211 18.1602C72.3613 18.9766 72.2314 19.9661 72.2314 21.1289C72.2314 22.6875 72.4974 24.0853 73.0293 25.3223C73.5612 26.5469 74.2601 27.4499 75.126 28.0312C76.0042 28.6003 77.0804 28.8848 78.3545 28.8848C78.9359 28.8848 79.4863 28.8229 80.0059 28.6992C80.5254 28.5632 81.0202 28.3714 81.4902 28.124L81.8428 28.5508ZM99.9707 28.1426L99.1543 29.9609C98.14 30.5794 97.0947 31.0371 96.0186 31.334C95.2145 31.5443 94.2992 31.6494 93.2725 31.6494C92.0479 31.6494 90.9655 31.5072 90.0254 31.2227C89.0977 30.9382 88.2998 30.5485 87.6318 30.0537C86.9762 29.5589 86.3949 28.9528 85.8877 28.2354C85.3929 27.5179 85.0342 26.6891 84.8115 25.749C84.5889 24.8089 84.4775 23.7822 84.4775 22.6689C84.4775 21.0485 84.694 19.6012 85.127 18.3271C85.4238 17.4365 85.7702 16.7933 86.166 16.3975C86.4134 16.1501 87.0566 15.6862 88.0957 15.0059C89.1348 14.3255 89.8893 13.8802 90.3594 13.6699C91.2253 13.2865 92.2458 13.0947 93.4209 13.0947C95.0785 13.0947 96.4391 13.4411 97.5029 14.1338C98.5667 14.8265 99.3151 15.7109 99.748 16.7871C100.193 17.8633 100.416 19.1683 100.416 20.7021C100.416 21.0485 100.404 21.3825 100.379 21.7041C100.07 21.8031 99.5996 21.9144 98.9688 22.0381C98.1276 22.1989 97.5586 22.2855 97.2617 22.2979C96.334 22.3721 95.1094 22.4154 93.5879 22.4277C92.0664 22.4401 91.2253 22.4525 91.0645 22.4648C90.9036 22.4772 90.7243 22.4834 90.5264 22.4834H89.3018C89.4007 24.4378 90.0068 25.984 91.1201 27.1221C92.2334 28.2477 93.6064 28.8105 95.2393 28.8105C95.9443 28.8105 96.5938 28.7363 97.1875 28.5879C97.7812 28.4271 98.5605 28.1055 99.5254 27.623L99.9707 28.1426ZM95.5547 20.4609C95.6042 18.4941 95.3382 17.1149 94.7568 16.3232C94.1631 15.5439 93.3962 15.1543 92.4561 15.1543C91.4912 15.1543 90.6934 15.5625 90.0625 16.3789C89.4193 17.2077 89.1224 18.5684 89.1719 20.4609C89.9017 20.5723 91.1201 20.6279 92.8271 20.6279C93.9157 20.6279 94.8249 20.5723 95.5547 20.4609ZM112.161 31V29.46C113.163 29.3857 113.757 29.3239 113.942 29.2744C114.14 29.2126 114.307 29.126 114.443 29.0146C114.579 28.891 114.715 28.7054 114.852 28.458C115 28.1982 115.427 27.252 116.132 25.6191C116.453 24.8522 117.072 23.3369 117.987 21.0732L122.83 9.12402L124.463 4.91211H127.098L135.392 24.2832L136.542 26.8252L137.284 28.5322C137.408 28.7549 137.525 28.9157 137.637 29.0146C137.748 29.1136 137.872 29.1878 138.008 29.2373C138.156 29.2868 138.521 29.3301 139.103 29.3672C139.288 29.3919 139.56 29.4229 139.919 29.46V31L134.761 30.8887L128.248 31V29.46C129.745 29.3981 130.586 29.3177 130.771 29.2188C130.969 29.1074 131.068 28.9281 131.068 28.6807C131.068 28.3714 130.926 27.8643 130.642 27.1592L129.046 23.0771H119.509L118.692 25.3037C118.074 27.0107 117.765 28.0745 117.765 28.4951C117.765 28.792 117.864 29.0023 118.062 29.126C118.358 29.2992 119.243 29.4105 120.715 29.46V31L116.429 30.8887L112.161 31ZM120.362 20.9619C121.525 20.999 122.842 21.0176 124.314 21.0176C125.737 21.0176 127.011 20.999 128.137 20.9619L124.166 11.3877L120.362 20.9619ZM141.979 31V29.5713C142.943 29.5713 143.611 29.5033 143.982 29.3672C144.156 29.3053 144.285 29.2002 144.372 29.0518C144.496 28.8167 144.564 28.3714 144.576 27.7158L144.65 26.0645C144.663 25.7181 144.669 25.1553 144.669 24.376V21.9453C144.669 20.8444 144.632 19.5085 144.558 17.9375C144.521 17.1458 144.465 16.7005 144.391 16.6016C144.329 16.4902 144.224 16.4098 144.075 16.3604C143.84 16.2738 143.141 16.2119 141.979 16.1748V14.7461C144.23 14.3626 145.708 14.0781 146.413 13.8926C147.118 13.707 147.916 13.4102 148.807 13.002L149.308 13.2246V16.2119L152.685 13.5029C153.08 13.3421 153.414 13.237 153.687 13.1875C153.971 13.1257 154.348 13.0947 154.818 13.0947C156.303 13.0947 157.422 13.3359 158.177 13.8184C158.944 14.2884 159.575 15.0863 160.069 16.2119L163.446 13.5029C163.842 13.3421 164.176 13.237 164.448 13.1875C164.733 13.1257 165.11 13.0947 165.58 13.0947C166.805 13.0947 167.751 13.2493 168.419 13.5586C169.099 13.8555 169.662 14.2637 170.107 14.7832C170.553 15.3027 170.868 15.8594 171.054 16.4531C171.239 17.0469 171.332 17.9622 171.332 19.1992C171.332 20.5599 171.32 21.4629 171.295 21.9082C171.283 22.0566 171.276 22.236 171.276 22.4463V24.376C171.276 26.3551 171.307 27.623 171.369 28.1797C171.443 28.724 171.561 29.0703 171.722 29.2188C171.895 29.3548 172.266 29.4414 172.835 29.4785C173.033 29.4909 173.379 29.5218 173.874 29.5713V31C172.179 30.901 170.782 30.8516 169.681 30.8516C168.431 30.8516 167.368 30.901 166.489 31L166.229 30.6475L166.452 27.2891C166.502 25.9284 166.526 24.7594 166.526 23.7822V22.3721C166.526 20.1702 166.427 18.7848 166.229 18.2158C166.032 17.6344 165.698 17.1829 165.228 16.8613C164.77 16.5273 164.188 16.3604 163.483 16.3604C162.692 16.3604 162.018 16.5645 161.461 16.9727C160.904 17.3685 160.558 17.7334 160.422 18.0674C160.298 18.389 160.243 19.0446 160.255 20.0342V24.5244L160.292 26.3799L160.329 27.8828C160.341 28.3405 160.385 28.6559 160.459 28.8291C160.533 29.0023 160.638 29.1322 160.774 29.2188C160.886 29.2806 161.121 29.3363 161.479 29.3857C162.185 29.4723 162.692 29.5342 163.001 29.5713V31C161.9 30.9505 160.317 30.9258 158.251 30.9258C155.95 30.9258 154.249 30.9505 153.148 31V29.5713C153.383 29.5342 153.687 29.4971 154.058 29.46C154.602 29.4229 154.942 29.361 155.078 29.2744C155.227 29.1755 155.344 28.9899 155.431 28.7178C155.517 28.4333 155.561 27.7839 155.561 26.7695L155.598 23.4854V20.8506C155.598 19.5889 155.517 18.6982 155.356 18.1787C155.208 17.6468 154.893 17.2077 154.41 16.8613C153.94 16.5026 153.328 16.3232 152.573 16.3232C151.744 16.3232 151.046 16.5335 150.477 16.9541C149.908 17.3747 149.549 17.7952 149.4 18.2158C149.326 18.4508 149.295 19.4219 149.308 21.1289V24.376C149.308 26.0459 149.345 27.3262 149.419 28.2168C149.444 28.6868 149.506 28.9837 149.604 29.1074C149.703 29.2311 149.87 29.3239 150.105 29.3857C150.279 29.4352 150.854 29.4971 151.831 29.5713V31C150.495 30.9505 148.887 30.9258 147.007 30.9258C144.892 30.9258 143.215 30.9505 141.979 31ZM176.23 22.2422C176.23 20.1393 176.589 18.4014 177.307 17.0283C178.024 15.6429 179.1 14.6038 180.535 13.9111C181.97 13.2061 183.64 12.8535 185.545 12.8535C188.402 12.8535 190.573 13.6019 192.058 15.0986C193.554 16.5954 194.303 18.791 194.303 21.6855C194.303 23.3555 194.086 24.8027 193.653 26.0273C193.22 27.252 192.639 28.2415 191.909 28.9961C191.179 29.7383 190.412 30.3011 189.608 30.6846C188.235 31.3278 186.689 31.6494 184.97 31.6494C182.174 31.6494 180.016 30.8577 178.494 29.2744C176.985 27.6787 176.23 25.3346 176.23 22.2422ZM181.37 21.3516C181.37 24.6419 181.853 26.986 182.817 28.3838C183.461 29.3115 184.376 29.7754 185.563 29.7754C186.578 29.7754 187.382 29.4229 187.976 28.7178C188.767 27.7777 189.163 25.9593 189.163 23.2627C189.163 21.3701 189.002 19.7497 188.681 18.4014C188.371 17.0407 187.908 16.0944 187.289 15.5625C186.683 15.0306 185.947 14.7646 185.081 14.7646C184.339 14.7646 183.689 14.9626 183.133 15.3584C182.576 15.7419 182.143 16.3975 181.834 17.3252C181.525 18.2406 181.37 19.5827 181.37 21.3516ZM207.588 29.5713V31C206.19 30.9382 204.632 30.9072 202.912 30.9072C200.995 30.9072 199.003 30.9382 196.938 31V29.5713C197.902 29.5713 198.57 29.5033 198.941 29.3672C199.115 29.3053 199.244 29.2002 199.331 29.0518C199.455 28.8167 199.523 28.3714 199.535 27.7158L199.609 26.0645C199.622 25.7181 199.628 25.1553 199.628 24.376V21.9453C199.628 20.8444 199.591 19.5085 199.517 17.9375C199.479 17.1458 199.424 16.7005 199.35 16.6016C199.288 16.4902 199.183 16.4098 199.034 16.3604C198.799 16.2738 198.1 16.2119 196.938 16.1748V14.7461C199.189 14.3626 200.667 14.0781 201.372 13.8926C202.077 13.707 202.875 13.4102 203.766 13.002L204.267 13.2246L204.229 16.9727C205.034 16.1439 205.652 15.4574 206.085 14.9131C206.728 14.1462 207.211 13.6576 207.532 13.4473C207.978 13.1504 208.565 13.002 209.295 13.002C209.753 13.002 210.167 13.0762 210.538 13.2246L210.427 15.8594C210.39 17.2943 210.359 18.1169 210.334 18.3271L209.555 18.5684C209.245 18.1602 208.949 17.8757 208.664 17.7148C208.206 17.4551 207.705 17.3252 207.161 17.3252C206.431 17.3252 205.8 17.554 205.269 18.0117C204.749 18.457 204.44 18.9147 204.341 19.3848C204.291 19.6569 204.267 20.7021 204.267 22.5205V24.376L204.304 26.8994C204.316 27.8519 204.347 28.4395 204.396 28.6621C204.458 28.8724 204.588 29.0394 204.786 29.1631C204.984 29.2868 205.411 29.3734 206.066 29.4229L207.588 29.5713ZM227.812 28.1426L226.996 29.9609C225.982 30.5794 224.937 31.0371 223.86 31.334C223.056 31.5443 222.141 31.6494 221.114 31.6494C219.89 31.6494 218.807 31.5072 217.867 31.2227C216.939 30.9382 216.142 30.5485 215.474 30.0537C214.818 29.5589 214.237 28.9528 213.729 28.2354C213.235 27.5179 212.876 26.6891 212.653 25.749C212.431 24.8089 212.319 23.7822 212.319 22.6689C212.319 21.0485 212.536 19.6012 212.969 18.3271C213.266 17.4365 213.612 16.7933 214.008 16.3975C214.255 16.1501 214.898 15.6862 215.938 15.0059C216.977 14.3255 217.731 13.8802 218.201 13.6699C219.067 13.2865 220.088 13.0947 221.263 13.0947C222.92 13.0947 224.281 13.4411 225.345 14.1338C226.409 14.8265 227.157 15.7109 227.59 16.7871C228.035 17.8633 228.258 19.1683 228.258 20.7021C228.258 21.0485 228.245 21.3825 228.221 21.7041C227.911 21.8031 227.441 21.9144 226.811 22.0381C225.969 22.1989 225.4 22.2855 225.104 22.2979C224.176 22.3721 222.951 22.4154 221.43 22.4277C219.908 22.4401 219.067 22.4525 218.906 22.4648C218.745 22.4772 218.566 22.4834 218.368 22.4834H217.144C217.243 24.4378 217.849 25.984 218.962 27.1221C220.075 28.2477 221.448 28.8105 223.081 28.8105C223.786 28.8105 224.436 28.7363 225.029 28.5879C225.623 28.4271 226.402 28.1055 227.367 27.623L227.812 28.1426ZM223.396 20.4609C223.446 18.4941 223.18 17.1149 222.599 16.3232C222.005 15.5439 221.238 15.1543 220.298 15.1543C219.333 15.1543 218.535 15.5625 217.904 16.3789C217.261 17.2077 216.964 18.5684 217.014 20.4609C217.743 20.5723 218.962 20.6279 220.669 20.6279C221.757 20.6279 222.667 20.5723 223.396 20.4609Z" fill="#8B4513"/>
<path d="M82.1484 60V59.5078C82.6953 59.5026 83.0547 59.4609 83.2266 59.3828C83.2995 59.3516 83.3516 59.3021 83.3828 59.2344C83.4349 59.1302 83.4714 58.8568 83.4922 58.4141C83.5234 57.7266 83.5391 57.1328 83.5391 56.6328V52.6406C83.5391 51.9323 83.5312 51.2396 83.5156 50.5625C83.5 50.0677 83.4609 49.776 83.3984 49.6875C83.3411 49.5938 83.2448 49.526 83.1094 49.4844C82.9792 49.4375 82.6042 49.4089 81.9844 49.3984V48.8984L84.2109 48.9453L86.5703 48.9062C87.7005 48.8906 88.5208 48.8828 89.0312 48.8828C89.5469 48.8828 90.0339 48.9115 90.4922 48.9688C90.4089 49.2656 90.3516 49.5234 90.3203 49.7422C90.3099 49.7891 90.263 50.3307 90.1797 51.3672H89.6875C89.6927 50.8359 89.6589 50.3516 89.5859 49.9141C89.2995 49.7943 88.9844 49.7135 88.6406 49.6719C88.0573 49.599 87.474 49.5625 86.8906 49.5625C86.7656 49.5625 86.487 49.5729 86.0547 49.5938C85.6224 49.6146 85.3125 49.6328 85.125 49.6484C85.1042 50.2266 85.0885 50.7682 85.0781 51.2734L85.0469 53.9141C85.6562 53.9453 86.2161 53.9609 86.7266 53.9609C87.3464 53.9609 87.875 53.9323 88.3125 53.875C88.4792 53.8542 88.5859 53.8125 88.6328 53.75C88.6797 53.6875 88.7214 53.474 88.7578 53.1094L88.8047 52.5625H89.2734V52.7109L89.2344 54.3359L89.2734 56.1562H88.7266L88.7031 55.625C88.6927 55.2396 88.6562 55 88.5938 54.9062C88.5365 54.8125 88.4245 54.7474 88.2578 54.7109C87.9609 54.6484 87.3854 54.6172 86.5312 54.6172C86.1823 54.6172 85.6875 54.6302 85.0469 54.6562C85.0208 55.1771 85.0078 55.9505 85.0078 56.9766C85.0078 57.9401 85.0208 58.6719 85.0469 59.1719C85.7969 59.2292 86.638 59.2578 87.5703 59.2578C88.2318 59.2578 88.7031 59.237 88.9844 59.1953C89.2656 59.1536 89.526 59.0833 89.7656 58.9844C89.8281 58.8229 89.8906 58.6042 89.9531 58.3281C90.0677 57.8646 90.1432 57.5156 90.1797 57.2812H90.6953C90.5599 58.3333 90.4922 59.2057 90.4922 59.8984C90.0443 59.9661 89.5 60 88.8594 60L84.1953 59.9375C84.1276 59.9375 83.4453 59.9583 82.1484 60ZM91.8828 59.6172C91.9661 59.1172 92.0156 58.3073 92.0312 57.1875H92.5625C92.5885 57.9479 92.6302 58.3984 92.6875 58.5391C92.75 58.6745 92.8958 58.8203 93.125 58.9766C93.3542 59.1328 93.6615 59.2734 94.0469 59.3984C94.4323 59.5182 94.8047 59.5781 95.1641 59.5781C95.6901 59.5781 96.1745 59.4583 96.6172 59.2188C97.0599 58.974 97.3828 58.6562 97.5859 58.2656C97.7891 57.8698 97.8906 57.4479 97.8906 57C97.8906 56.6562 97.8385 56.3594 97.7344 56.1094C97.6354 55.8594 97.4818 55.6589 97.2734 55.5078C97.0651 55.3516 96.8073 55.2422 96.5 55.1797C96.3073 55.1484 95.9219 55.0964 95.3438 55.0234C94.7656 54.9505 94.2734 54.8698 93.8672 54.7812C93.3255 54.6146 92.9271 54.4193 92.6719 54.1953C92.4167 53.9714 92.2083 53.6771 92.0469 53.3125C91.8906 52.9479 91.8125 52.5547 91.8125 52.1328C91.8125 51.5182 91.9714 50.9401 92.2891 50.3984C92.612 49.8516 93.0859 49.4271 93.7109 49.125C94.3411 48.8229 95.0234 48.6719 95.7578 48.6719C96.2005 48.6719 96.6823 48.7318 97.2031 48.8516C97.7292 48.9661 98.2188 49.1354 98.6719 49.3594C98.599 49.6875 98.5469 49.9948 98.5156 50.2812C98.4844 50.5625 98.4609 50.9792 98.4453 51.5312H97.9141C97.8984 50.7292 97.875 50.2917 97.8438 50.2188C97.7135 50.0312 97.5365 49.862 97.3125 49.7109C96.776 49.4089 96.2161 49.2578 95.6328 49.2578C94.8776 49.2578 94.2734 49.4896 93.8203 49.9531C93.3724 50.4115 93.1484 51.0078 93.1484 51.7422C93.1484 52.1849 93.2292 52.5286 93.3906 52.7734C93.5521 53.013 93.8411 53.2057 94.2578 53.3516C94.5443 53.4505 95.013 53.5443 95.6641 53.6328C96.3151 53.7161 96.901 53.8073 97.4219 53.9062C97.9115 54.0521 98.2734 54.2266 98.5078 54.4297C98.7422 54.6276 98.9349 54.8906 99.0859 55.2188C99.237 55.5417 99.3125 55.9219 99.3125 56.3594C99.3125 57.3958 98.8828 58.2995 98.0234 59.0703C97.1641 59.8411 96.0521 60.2266 94.6875 60.2266C93.6562 60.2266 92.7214 60.0234 91.8828 59.6172ZM100.68 51.4844H100.195C100.19 50.2396 100.164 49.3776 100.117 48.8984C100.685 48.9193 101.576 48.9453 102.789 48.9766C103.773 48.9974 104.43 49.0078 104.758 49.0078C105.112 49.0078 105.932 48.9922 107.219 48.9609C108.151 48.9401 108.831 48.9193 109.258 48.8984C109.195 49.4818 109.154 50.3438 109.133 51.4844H108.633L108.57 50.7344C108.529 50.2812 108.5 50.0234 108.484 49.9609C108.469 49.8984 108.445 49.8542 108.414 49.8281C108.388 49.8021 108.346 49.7812 108.289 49.7656C108.216 49.75 107.956 49.7292 107.508 49.7031C107.06 49.6771 106.706 49.6641 106.445 49.6641H105.492C105.44 50.1641 105.414 50.8385 105.414 51.6875V56.2578C105.414 56.9661 105.422 57.6562 105.438 58.3281C105.453 58.8229 105.49 59.1172 105.547 59.2109C105.609 59.3047 105.706 59.375 105.836 59.4219C105.971 59.4635 106.349 59.4896 106.969 59.5V60C106.036 59.9583 105.336 59.9375 104.867 59.9375C104.664 59.9375 103.852 59.9583 102.43 60V59.5C103.049 59.4896 103.427 59.4635 103.562 59.4219C103.698 59.375 103.789 59.3125 103.836 59.2344C103.904 59.1302 103.945 58.8776 103.961 58.4766C103.961 58.3672 103.971 57.6276 103.992 56.2578V51.7031C103.992 51.4844 103.987 51.2448 103.977 50.9844L103.93 49.6641H102.766C102.094 49.6641 101.56 49.6901 101.164 49.7422C101.039 49.7578 100.958 49.7917 100.922 49.8438C100.865 49.9323 100.812 50.2161 100.766 50.6953L100.68 51.4844ZM110.406 58.2109C110.667 58.2109 110.885 58.3021 111.062 58.4844C111.245 58.6667 111.336 58.888 111.336 59.1484C111.336 59.4036 111.245 59.6224 111.062 59.8047C110.88 59.987 110.661 60.0781 110.406 60.0781C110.146 60.0781 109.924 59.987 109.742 59.8047C109.56 59.6224 109.469 59.4036 109.469 59.1484C109.469 58.888 109.56 58.6667 109.742 58.4844C109.924 58.3021 110.146 58.2109 110.406 58.2109ZM117.602 51.1016L117.461 51.0625L117.383 50.4219L117.461 50.3438C118.018 50.1823 118.625 49.9609 119.281 49.6797C120.25 49.2682 120.872 48.9922 121.148 48.8516L121.352 48.9297C121.268 51.3151 121.227 52.6849 121.227 53.0391V55.9375C121.227 57.0938 121.24 57.9688 121.266 58.5625C121.281 58.9115 121.323 59.1328 121.391 59.2266C121.464 59.3151 121.568 59.3802 121.703 59.4219C121.844 59.4583 122.297 59.4922 123.062 59.5234V60C121.745 59.9583 120.919 59.9375 120.586 59.9375C120.336 59.9375 119.453 59.9583 117.938 60V59.5234C118.729 59.4766 119.185 59.4401 119.305 59.4141C119.43 59.3828 119.521 59.3385 119.578 59.2812C119.641 59.224 119.685 59.1432 119.711 59.0391C119.753 58.8776 119.789 58.4141 119.82 57.6484C119.852 56.8776 119.867 56.2943 119.867 55.8984V52.8203C119.867 51.5651 119.865 50.7786 119.859 50.4609C119.859 50.3203 119.841 50.2318 119.805 50.1953C119.784 50.1745 119.755 50.1641 119.719 50.1641C119.672 50.1641 119.552 50.2057 119.359 50.2891C118.474 50.6849 117.888 50.9557 117.602 51.1016ZM125.445 60V59.8516C126.383 59.6276 127.208 59.2734 127.922 58.7891C128.641 58.2995 129.211 57.638 129.633 56.8047C129.966 56.1484 130.174 55.3828 130.258 54.5078C130.023 54.6693 129.747 54.8906 129.43 55.1719C129.242 55.3438 129.099 55.4583 129 55.5156C128.849 55.6146 128.677 55.6927 128.484 55.75C128.234 55.8229 127.964 55.8594 127.672 55.8594C126.839 55.8594 126.154 55.5781 125.617 55.0156C125.081 54.4531 124.812 53.6823 124.812 52.7031C124.812 51.5885 125.148 50.6875 125.82 50C126.492 49.3073 127.339 48.9609 128.359 48.9609C129.01 48.9609 129.594 49.1224 130.109 49.4453C130.625 49.763 131.029 50.2292 131.32 50.8438C131.617 51.4583 131.766 52.2552 131.766 53.2344C131.766 54.4427 131.544 55.5 131.102 56.4062C130.565 57.5104 129.771 58.4193 128.719 59.1328C127.839 59.7318 126.919 60.1042 125.961 60.25L125.445 60ZM126.164 52.1953C126.164 52.638 126.24 53.0807 126.391 53.5234C126.547 53.9609 126.792 54.2995 127.125 54.5391C127.458 54.7734 127.846 54.8906 128.289 54.8906C128.898 54.8906 129.391 54.6849 129.766 54.2734C130.146 53.862 130.336 53.2422 130.336 52.4141C130.336 51.5964 130.156 50.9062 129.797 50.3438C129.443 49.7812 128.924 49.5 128.242 49.5C127.648 49.5 127.154 49.7266 126.758 50.1797C126.362 50.6276 126.164 51.2995 126.164 52.1953ZM133.445 60V59.8516C134.383 59.6276 135.208 59.2734 135.922 58.7891C136.641 58.2995 137.211 57.638 137.633 56.8047C137.966 56.1484 138.174 55.3828 138.258 54.5078C138.023 54.6693 137.747 54.8906 137.43 55.1719C137.242 55.3438 137.099 55.4583 137 55.5156C136.849 55.6146 136.677 55.6927 136.484 55.75C136.234 55.8229 135.964 55.8594 135.672 55.8594C134.839 55.8594 134.154 55.5781 133.617 55.0156C133.081 54.4531 132.812 53.6823 132.812 52.7031C132.812 51.5885 133.148 50.6875 133.82 50C134.492 49.3073 135.339 48.9609 136.359 48.9609C137.01 48.9609 137.594 49.1224 138.109 49.4453C138.625 49.763 139.029 50.2292 139.32 50.8438C139.617 51.4583 139.766 52.2552 139.766 53.2344C139.766 54.4427 139.544 55.5 139.102 56.4062C138.565 57.5104 137.771 58.4193 136.719 59.1328C135.839 59.7318 134.919 60.1042 133.961 60.25L133.445 60ZM134.164 52.1953C134.164 52.638 134.24 53.0807 134.391 53.5234C134.547 53.9609 134.792 54.2995 135.125 54.5391C135.458 54.7734 135.846 54.8906 136.289 54.8906C136.898 54.8906 137.391 54.6849 137.766 54.2734C138.146 53.862 138.336 53.2422 138.336 52.4141C138.336 51.5964 138.156 50.9062 137.797 50.3438C137.443 49.7812 136.924 49.5 136.242 49.5C135.648 49.5 135.154 49.7266 134.758 50.1797C134.362 50.6276 134.164 51.2995 134.164 52.1953ZM141.438 59.8281C141.318 59.474 141.221 59.2031 141.148 59.0156L140.633 57.7422L141.016 57.5156C141.484 58.3698 141.773 58.849 141.883 58.9531C141.992 59.0521 142.237 59.1693 142.617 59.3047C142.997 59.4401 143.385 59.5078 143.781 59.5078C144.302 59.5078 144.758 59.3984 145.148 59.1797C145.544 58.9609 145.849 58.6354 146.062 58.2031C146.281 57.7656 146.391 57.2396 146.391 56.625C146.391 55.7188 146.143 55.0469 145.648 54.6094C145.159 54.1719 144.578 53.9531 143.906 53.9531C143.51 53.9531 143.151 54.0286 142.828 54.1797C142.583 54.2995 142.292 54.5443 141.953 54.9141L141.633 54.8203L141.727 52.8906C141.737 52.599 141.742 52.362 141.742 52.1797V50.7891C141.742 50.3724 141.729 49.9557 141.703 49.5391C141.693 49.3776 141.685 49.2474 141.68 49.1484L141.781 49.0703C142.63 49.1328 143.521 49.1641 144.453 49.1641C145.245 49.1641 146.193 49.1328 147.297 49.0703L147.336 49.1484C147.299 49.4141 147.281 49.6536 147.281 49.8672C147.281 49.9714 147.286 50.151 147.297 50.4062L147.219 50.4531C146.495 50.4062 145.411 50.3828 143.969 50.3828C143.438 50.3828 142.935 50.3906 142.461 50.4062C142.383 51.125 142.331 52.2083 142.305 53.6562C142.721 53.3542 143.096 53.1458 143.43 53.0312C143.763 52.9115 144.133 52.8516 144.539 52.8516C145.143 52.8516 145.695 52.9818 146.195 53.2422C146.701 53.4974 147.089 53.8672 147.359 54.3516C147.63 54.8359 147.766 55.3672 147.766 55.9453C147.766 56.8464 147.458 57.6849 146.844 58.4609C145.917 59.638 144.672 60.2266 143.109 60.2266C142.766 60.2266 142.471 60.1953 142.227 60.1328C141.987 60.0755 141.724 59.974 141.438 59.8281Z" fill="#8B4513"/>
</svg>
