<svg width="223" height="97" viewBox="0 0 223 97" fill="none" xmlns="http://www.w3.org/2000/svg">
<path d="M26.3826 56.3816C-13.6174 -3.6184 -3.61741 -13.6184 26.3826 16.3816C56.3826 -13.6184 66.3826 -3.6184 26.3826 56.3816Z" fill="#FF69B4"/>
<path d="M26.3826 56.3816C66.3826 -3.6184 76.3826 -13.6184 106.383 16.3816C136.383 -13.6184 146.383 -3.6184 106.383 56.3816" fill="#FF69B4"/>
<path d="M66.3826 56.3816C66.3826 76.3816 66.3826 86.3816 66.3826 96.3816" stroke="#2E8B57" stroke-width="3"/>
<path d="M66.3826 76.3816C76.3826 79.7149 79.7159 76.3816 76.3826 66.3816L66.3826 76.3816Z" fill="#2E8B57"/>
<path d="M27.2107 63.0535C27.8565 63.491 28.393 64.0639 28.8201 64.7722C29.2472 65.4806 29.4607 66.3399 29.4607 67.3503C29.4607 68.3816 29.2367 69.2774 28.7888 70.0378C28.3409 70.7983 27.7576 71.4233 27.0388 71.9128C26.3409 72.392 25.5492 72.7566 24.6638 73.0066C23.7888 73.2566 22.8826 73.3816 21.9451 73.3816H11.4451V72.2722C11.6951 72.2514 12.0597 72.2097 12.5388 72.1472C13.018 72.0743 13.3617 71.991 13.5701 71.8972C13.893 71.7514 14.1222 71.5587 14.2576 71.3191C14.393 71.0691 14.4607 70.7514 14.4607 70.366V54.4285C14.4607 54.0743 14.3982 53.7618 14.2732 53.491C14.1586 53.2201 13.9242 53.0014 13.5701 52.8347C13.2576 52.6785 12.9086 52.5587 12.5232 52.4753C12.1378 52.392 11.8149 52.3399 11.5544 52.3191V51.2097H21.7888C22.5805 51.2097 23.3357 51.2878 24.0544 51.4441C24.7836 51.6003 25.4763 51.8764 26.1326 52.2722C26.7472 52.6368 27.2524 53.1316 27.6482 53.7566C28.044 54.3816 28.2419 55.142 28.2419 56.0378C28.2419 56.8191 28.1013 57.517 27.8201 58.1316C27.5388 58.7358 27.143 59.2566 26.6326 59.6941C26.1534 60.1108 25.6013 60.4649 24.9763 60.7566C24.3617 61.0378 23.6951 61.2566 22.9763 61.4128V61.5535C23.6117 61.6264 24.3201 61.7878 25.1013 62.0378C25.893 62.2774 26.5961 62.616 27.2107 63.0535ZM23.4451 59.7097C23.8305 59.2618 24.0961 58.7722 24.2419 58.241C24.3982 57.7097 24.4763 57.0795 24.4763 56.3503C24.4763 55.1316 24.143 54.1785 23.4763 53.491C22.8097 52.7931 21.7576 52.4441 20.3201 52.4441C19.9867 52.4441 19.5649 52.4545 19.0544 52.4753C18.5544 52.4858 18.1326 52.4962 17.7888 52.5066V61.0222H19.7732C20.6274 61.0222 21.3565 60.9128 21.9607 60.6941C22.5753 60.4753 23.0701 60.1472 23.4451 59.7097ZM25.6013 66.7878C25.6013 65.4753 25.1586 64.3972 24.2732 63.5535C23.3982 62.7097 22.143 62.2878 20.5076 62.2878C19.8409 62.2878 19.2784 62.2983 18.8201 62.3191C18.3617 62.3295 18.018 62.3399 17.7888 62.3503V70.1628C17.7888 70.8191 18.0544 71.3139 18.5857 71.6472C19.1169 71.9806 19.8565 72.1472 20.8044 72.1472C22.3565 72.1472 23.544 71.6941 24.3669 70.7878C25.1899 69.8816 25.6013 68.5483 25.6013 66.7878ZM39.2419 73.3816H31.7263V72.3503C31.9659 72.3295 32.2211 72.3087 32.4919 72.2878C32.7628 72.2566 32.9867 72.2149 33.1638 72.1628C33.4555 72.0691 33.6742 71.9076 33.8201 71.6785C33.9659 71.4389 34.0388 71.1316 34.0388 70.7566V52.9128C34.0388 52.5378 33.9555 52.1889 33.7888 51.866C33.6326 51.5326 33.4242 51.2722 33.1638 51.0847C32.9763 50.9597 32.6326 50.8451 32.1326 50.741C31.6326 50.6368 31.2315 50.5743 30.9294 50.5535V49.5535L36.7263 49.1941L36.9451 49.4285V70.5691C36.9451 70.9337 37.0128 71.2358 37.1482 71.4753C37.2836 71.7045 37.5024 71.8816 37.8044 72.0066C38.0336 72.1108 38.2576 72.1889 38.4763 72.241C38.7055 72.2931 38.9607 72.3295 39.2419 72.3503V73.3816ZM56.1951 65.5222C56.1951 66.6056 56.0232 67.6733 55.6794 68.7253C55.3357 69.767 54.8461 70.6524 54.2107 71.3816C53.4919 72.2149 52.6586 72.8347 51.7107 73.241C50.7628 73.6472 49.7003 73.8503 48.5232 73.8503C47.544 73.8503 46.6117 73.6681 45.7263 73.3035C44.8409 72.9285 44.0544 72.3868 43.3669 71.6785C42.6899 70.9806 42.1482 70.1316 41.7419 69.1316C41.3461 68.1212 41.1482 66.991 41.1482 65.741C41.1482 63.3347 41.8461 61.366 43.2419 59.8347C44.6482 58.3035 46.4867 57.5378 48.7576 57.5378C50.9138 57.5378 52.6899 58.267 54.0857 59.7253C55.4919 61.1733 56.1951 63.1056 56.1951 65.5222ZM52.9607 65.5535C52.9607 64.7722 52.8826 63.9493 52.7263 63.0847C52.5701 62.2097 52.3357 61.4701 52.0232 60.866C51.6899 60.2201 51.2524 59.7045 50.7107 59.3191C50.169 58.9233 49.5076 58.7253 48.7263 58.7253C47.9242 58.7253 47.2367 58.9233 46.6638 59.3191C46.1013 59.7149 45.643 60.2566 45.2888 60.9441C44.9555 61.5795 44.7211 62.3035 44.5857 63.116C44.4503 63.9285 44.3826 64.7149 44.3826 65.4753C44.3826 66.4753 44.4607 67.4024 44.6169 68.2566C44.7836 69.1003 45.044 69.8556 45.3982 70.5222C45.7524 71.1889 46.1951 71.7149 46.7263 72.1003C47.268 72.4753 47.9347 72.6628 48.7263 72.6628C50.0284 72.6628 51.0597 72.0326 51.8201 70.7722C52.5805 69.5118 52.9607 67.7722 52.9607 65.5535ZM73.4451 65.5222C73.4451 66.6056 73.2732 67.6733 72.9294 68.7253C72.5857 69.767 72.0961 70.6524 71.4607 71.3816C70.7419 72.2149 69.9086 72.8347 68.9607 73.241C68.0128 73.6472 66.9503 73.8503 65.7732 73.8503C64.794 73.8503 63.8617 73.6681 62.9763 73.3035C62.0909 72.9285 61.3044 72.3868 60.6169 71.6785C59.9399 70.9806 59.3982 70.1316 58.9919 69.1316C58.5961 68.1212 58.3982 66.991 58.3982 65.741C58.3982 63.3347 59.0961 61.366 60.4919 59.8347C61.8982 58.3035 63.7367 57.5378 66.0076 57.5378C68.1638 57.5378 69.9399 58.267 71.3357 59.7253C72.7419 61.1733 73.4451 63.1056 73.4451 65.5222ZM70.2107 65.5535C70.2107 64.7722 70.1326 63.9493 69.9763 63.0847C69.8201 62.2097 69.5857 61.4701 69.2732 60.866C68.9399 60.2201 68.5024 59.7045 67.9607 59.3191C67.419 58.9233 66.7576 58.7253 65.9763 58.7253C65.1742 58.7253 64.4867 58.9233 63.9138 59.3191C63.3513 59.7149 62.893 60.2566 62.5388 60.9441C62.2055 61.5795 61.9711 62.3035 61.8357 63.116C61.7003 63.9285 61.6326 64.7149 61.6326 65.4753C61.6326 66.4753 61.7107 67.4024 61.8669 68.2566C62.0336 69.1003 62.294 69.8556 62.6482 70.5222C63.0024 71.1889 63.4451 71.7149 63.9763 72.1003C64.518 72.4753 65.1847 72.6628 65.9763 72.6628C67.2784 72.6628 68.3097 72.0326 69.0701 70.7722C69.8305 69.5118 70.2107 67.7722 70.2107 65.5535ZM102.07 73.3816H94.5544V72.3503C94.794 72.3295 95.0336 72.3087 95.2732 72.2878C95.5232 72.267 95.7419 72.2253 95.9294 72.1628C96.2211 72.0691 96.4347 71.9076 96.5701 71.6785C96.7159 71.4389 96.7888 71.1316 96.7888 70.7566V62.8035C96.7888 61.7201 96.5388 60.8868 96.0388 60.3035C95.5492 59.7097 94.9347 59.4128 94.1951 59.4128C93.6847 59.4128 93.2055 59.491 92.7576 59.6472C92.3097 59.8035 91.8982 60.0222 91.5232 60.3035C91.2211 60.5326 90.9659 60.7826 90.7576 61.0535C90.5597 61.3139 90.4086 61.5326 90.3044 61.7097V70.6003C90.3044 70.9649 90.3669 71.267 90.4919 71.5066C90.6169 71.7358 90.8305 71.9128 91.1326 72.0378C91.3722 72.1316 91.5857 72.2045 91.7732 72.2566C91.9711 72.2983 92.2263 72.3295 92.5388 72.3503V73.3816H85.1794V72.3503C85.419 72.3295 85.6482 72.3087 85.8669 72.2878C86.0961 72.267 86.3044 72.2253 86.4919 72.1628C86.7836 72.0691 86.9972 71.9076 87.1326 71.6785C87.2784 71.4389 87.3513 71.1316 87.3513 70.7566V62.8035C87.3513 61.7201 87.1013 60.8868 86.6013 60.3035C86.1117 59.7097 85.4972 59.4128 84.7576 59.4128C84.2472 59.4128 83.768 59.4962 83.3201 59.6628C82.8722 59.8191 82.4607 60.0378 82.0857 60.3191C81.7836 60.5483 81.5284 60.8087 81.3201 61.1003C81.1117 61.3816 80.9555 61.5951 80.8513 61.741V70.5691C80.8513 70.9233 80.9242 71.2201 81.0701 71.4597C81.2159 71.6993 81.4347 71.8816 81.7263 72.0066C81.9451 72.1108 82.169 72.1889 82.3982 72.241C82.6274 72.2931 82.8826 72.3295 83.1638 72.3503V73.3816H75.6794V72.3503C75.919 72.3295 76.1638 72.3087 76.4138 72.2878C76.6742 72.267 76.8982 72.2253 77.0857 72.1628C77.3774 72.0691 77.5909 71.9076 77.7263 71.6785C77.8722 71.4389 77.9451 71.1316 77.9451 70.7566V61.1785C77.9451 60.8451 77.8669 60.5483 77.7107 60.2878C77.5649 60.017 77.3565 59.7878 77.0857 59.6003C76.8878 59.4753 76.643 59.3764 76.3513 59.3035C76.0597 59.2201 75.7576 59.1681 75.4451 59.1472V58.1316L80.6013 57.7878L80.8201 58.0066V60.2097H80.9294C81.1899 59.9493 81.5076 59.642 81.8826 59.2878C82.2576 58.9337 82.6065 58.6472 82.9294 58.4285C83.294 58.1785 83.7472 57.9701 84.2888 57.8035C84.8409 57.6368 85.4347 57.5535 86.0701 57.5535C87.0701 57.5535 87.9294 57.8243 88.6482 58.366C89.3669 58.8972 89.8826 59.5431 90.1951 60.3035C90.5701 59.9389 90.8982 59.6212 91.1794 59.3503C91.4711 59.0691 91.8513 58.7722 92.3201 58.4597C92.7159 58.1889 93.1794 57.9701 93.7107 57.8035C94.2524 57.6368 94.8513 57.5535 95.5076 57.5535C96.8097 57.5535 97.8409 57.9806 98.6013 58.8347C99.3617 59.6889 99.7419 61.0014 99.7419 62.7722V70.6003C99.7419 70.9649 99.8044 71.267 99.9294 71.5066C100.054 71.7358 100.268 71.9128 100.57 72.0378C100.81 72.1316 101.044 72.2045 101.273 72.2566C101.513 72.2983 101.778 72.3295 102.07 72.3503V73.3816ZM133.179 60.4441C132.565 60.4962 131.945 60.6212 131.32 60.8191C130.695 61.0066 130.216 61.3087 129.883 61.7253C129.664 61.9753 129.44 62.3451 129.211 62.8347C128.992 63.3243 128.726 63.9024 128.414 64.5691C128.101 65.2358 127.784 65.892 127.461 66.5378C127.138 67.1837 126.721 67.8295 126.211 68.4753C126.627 68.9753 127.138 69.5222 127.742 70.116C128.346 70.6993 128.862 71.1212 129.289 71.3816C129.705 71.6212 130.294 71.8243 131.054 71.991C131.825 72.1576 132.455 72.2514 132.945 72.2722V73.3816H126.508L124.179 70.7253C123.836 71.1003 123.44 71.491 122.992 71.8972C122.554 72.2931 122.091 72.6368 121.601 72.9285C121.06 73.241 120.513 73.4858 119.961 73.6628C119.419 73.8399 118.778 73.9285 118.039 73.9285C117.268 73.9285 116.502 73.8139 115.742 73.5847C114.982 73.366 114.289 73.0118 113.664 72.5222C113.06 72.0431 112.57 71.4285 112.195 70.6785C111.82 69.9285 111.633 69.0326 111.633 67.991C111.633 66.6993 111.971 65.5326 112.648 64.491C113.336 63.4389 114.612 62.3243 116.476 61.1472C115.633 60.0326 114.976 59.0691 114.508 58.2566C114.039 57.4441 113.804 56.5326 113.804 55.5222C113.804 54.8035 113.945 54.1472 114.226 53.5535C114.518 52.9493 114.924 52.4233 115.445 51.9753C115.924 51.5691 116.508 51.2514 117.195 51.0222C117.883 50.7931 118.58 50.6785 119.289 50.6785C120.122 50.6785 120.851 50.8139 121.476 51.0847C122.112 51.3451 122.627 51.6889 123.023 52.116C123.388 52.5118 123.664 52.9701 123.851 53.491C124.049 54.0118 124.148 54.5326 124.148 55.0535C124.148 56.3035 123.758 57.3816 122.976 58.2878C122.205 59.1837 121.138 59.991 119.773 60.7097C120.752 62.0326 121.711 63.241 122.648 64.3347C123.586 65.4181 124.487 66.4858 125.351 67.5378C126.049 66.4233 126.591 65.3764 126.976 64.3972C127.362 63.4076 127.554 62.5378 127.554 61.7878C127.554 61.4545 127.31 61.1941 126.82 61.0066C126.341 60.8087 125.674 60.6212 124.82 60.4441V59.3347H133.179V60.4441ZM122.133 55.366C122.133 54.3035 121.898 53.491 121.429 52.9285C120.961 52.3556 120.294 52.0691 119.429 52.0691C118.94 52.0691 118.534 52.1681 118.211 52.366C117.888 52.5639 117.612 52.8139 117.383 53.116C117.174 53.4076 117.023 53.7201 116.929 54.0535C116.836 54.3868 116.789 54.6837 116.789 54.9441C116.789 55.6628 116.976 56.392 117.351 57.1316C117.726 57.8608 118.31 58.7462 119.101 59.7878C120.174 59.1837 120.945 58.5326 121.414 57.8347C121.893 57.1264 122.133 56.3035 122.133 55.366ZM123.351 69.8191C122.383 68.5899 121.289 67.2462 120.07 65.7878C118.862 64.3191 117.893 63.0795 117.164 62.0691C116.32 62.6524 115.721 63.3399 115.367 64.1316C115.023 64.9128 114.851 65.8087 114.851 66.8191C114.851 68.2358 115.252 69.4128 116.054 70.3503C116.867 71.2774 117.95 71.741 119.304 71.741C120.065 71.741 120.81 71.5795 121.539 71.2566C122.278 70.9233 122.883 70.4441 123.351 69.8191ZM165.414 73.3816H156.211V72.2722C156.461 72.2514 156.82 72.2201 157.289 72.1785C157.768 72.1368 158.096 72.0743 158.273 71.991C158.586 71.866 158.815 71.6785 158.961 71.4285C159.107 71.1681 159.179 70.8347 159.179 70.4285V62.5378H148.758V70.2566C148.758 70.6212 148.815 70.9285 148.929 71.1785C149.054 71.4285 149.294 71.6472 149.648 71.8347C149.825 71.9285 150.138 72.0222 150.586 72.116C151.044 72.2097 151.403 72.2618 151.664 72.2722V73.3816H142.461V72.2722C142.711 72.2514 143.07 72.2201 143.539 72.1785C144.018 72.1368 144.346 72.0743 144.523 71.991C144.836 71.866 145.065 71.6785 145.211 71.4285C145.357 71.1681 145.429 70.8347 145.429 70.4285V54.4285C145.429 54.0951 145.362 53.7931 145.226 53.5222C145.091 53.241 144.857 53.0222 144.523 52.866C144.242 52.7306 143.898 52.6108 143.492 52.5066C143.096 52.4024 142.752 52.3399 142.461 52.3191V51.2097H151.664V52.3191C151.372 52.3295 151.013 52.3764 150.586 52.4597C150.169 52.5431 149.857 52.6212 149.648 52.6941C149.294 52.8191 149.054 53.0274 148.929 53.3191C148.815 53.6108 148.758 53.9285 148.758 54.2722V61.1472H159.179V54.4285C159.179 54.0951 159.112 53.7931 158.976 53.5222C158.841 53.241 158.607 53.0222 158.273 52.866C157.992 52.7306 157.648 52.6108 157.242 52.5066C156.846 52.4024 156.502 52.3399 156.211 52.3191V51.2097H165.414V52.3191C165.122 52.3295 164.763 52.3764 164.336 52.4597C163.919 52.5431 163.607 52.6212 163.398 52.6941C163.044 52.8191 162.804 53.0274 162.679 53.3191C162.565 53.6108 162.508 53.9285 162.508 54.2722V70.2566C162.508 70.6212 162.565 70.9285 162.679 71.1785C162.804 71.4285 163.044 71.6472 163.398 71.8347C163.575 71.9285 163.888 72.0222 164.336 72.116C164.794 72.2097 165.153 72.2618 165.414 72.2722V73.3816ZM181.836 69.7566C181.19 70.9858 180.325 71.9649 179.242 72.6941C178.159 73.4233 176.914 73.7878 175.508 73.7878C174.268 73.7878 173.179 73.5691 172.242 73.1316C171.315 72.6941 170.549 72.1003 169.945 71.3503C169.341 70.6003 168.888 69.7253 168.586 68.7253C168.294 67.7253 168.148 66.6681 168.148 65.5535C168.148 64.5535 168.304 63.5743 168.617 62.616C168.94 61.6472 169.409 60.7774 170.023 60.0066C170.617 59.267 171.351 58.6733 172.226 58.2253C173.112 57.767 174.101 57.5378 175.195 57.5378C176.32 57.5378 177.284 57.7149 178.086 58.0691C178.888 58.4233 179.539 58.9076 180.039 59.5222C180.518 60.1056 180.872 60.7931 181.101 61.5847C181.341 62.3764 181.461 63.2358 181.461 64.1628V65.1941H171.258C171.258 66.2045 171.351 67.1212 171.539 67.9441C171.737 68.767 172.044 69.491 172.461 70.116C172.867 70.7201 173.398 71.1993 174.054 71.5535C174.711 71.8972 175.492 72.0691 176.398 72.0691C177.325 72.0691 178.122 71.8556 178.789 71.4285C179.466 70.991 180.117 70.2097 180.742 69.0847L181.836 69.7566ZM178.383 63.8816C178.383 63.2983 178.33 62.6733 178.226 62.0066C178.133 61.3399 177.976 60.7826 177.758 60.3347C177.518 59.8556 177.19 59.4649 176.773 59.1628C176.357 58.8608 175.82 58.7097 175.164 58.7097C174.07 58.7097 173.159 59.1681 172.429 60.0847C171.711 60.991 171.32 62.2566 171.258 63.8816H178.383ZM198.211 73.1003C197.721 73.2774 197.289 73.4181 196.914 73.5222C196.549 73.6368 196.133 73.6941 195.664 73.6941C194.851 73.6941 194.2 73.5066 193.711 73.1316C193.232 72.7462 192.924 72.1889 192.789 71.4597H192.695C192.018 72.2097 191.289 72.7826 190.508 73.1785C189.737 73.5743 188.804 73.7722 187.711 73.7722C186.554 73.7722 185.601 73.4181 184.851 72.7097C184.112 72.0014 183.742 71.0743 183.742 69.9285C183.742 69.3347 183.825 68.8035 183.992 68.3347C184.159 67.866 184.409 67.4441 184.742 67.0691C185.002 66.7566 185.346 66.4806 185.773 66.241C186.2 65.991 186.601 65.7931 186.976 65.6472C187.445 65.4701 188.393 65.142 189.82 64.6628C191.258 64.1837 192.226 63.8087 192.726 63.5378V61.991C192.726 61.8556 192.695 61.5951 192.633 61.2097C192.58 60.8243 192.461 60.4597 192.273 60.116C192.065 59.7306 191.768 59.3972 191.383 59.116C191.008 58.8243 190.471 58.6785 189.773 58.6785C189.294 58.6785 188.846 58.7618 188.429 58.9285C188.023 59.0847 187.737 59.2514 187.57 59.4285C187.57 59.6368 187.617 59.9441 187.711 60.3503C187.815 60.7566 187.867 61.1316 187.867 61.4753C187.867 61.8399 187.7 62.1733 187.367 62.4753C187.044 62.7774 186.591 62.9285 186.008 62.9285C185.487 62.9285 185.101 62.7462 184.851 62.3816C184.612 62.0066 184.492 61.5899 184.492 61.1316C184.492 60.6524 184.659 60.1941 184.992 59.7566C185.336 59.3191 185.778 58.9285 186.32 58.5847C186.789 58.2931 187.357 58.0483 188.023 57.8503C188.69 57.642 189.341 57.5378 189.976 57.5378C190.851 57.5378 191.612 57.6003 192.258 57.7253C192.914 57.8399 193.508 58.0951 194.039 58.491C194.57 58.8764 194.971 59.4024 195.242 60.0691C195.523 60.7253 195.664 61.5743 195.664 62.616C195.664 64.1056 195.648 65.4285 195.617 66.5847C195.586 67.7306 195.57 68.9858 195.57 70.3503C195.57 70.7566 195.638 71.0795 195.773 71.3191C195.919 71.5587 196.138 71.7618 196.429 71.9285C196.586 72.0222 196.83 72.0743 197.164 72.0847C197.508 72.0951 197.857 72.1003 198.211 72.1003V73.1003ZM192.758 64.8503C191.872 65.1108 191.096 65.366 190.429 65.616C189.763 65.866 189.143 66.1785 188.57 66.5535C188.049 66.9076 187.638 67.3295 187.336 67.8191C187.034 68.2983 186.883 68.8712 186.883 69.5378C186.883 70.4024 187.107 71.0378 187.554 71.4441C188.013 71.8503 188.591 72.0535 189.289 72.0535C190.028 72.0535 190.679 71.8764 191.242 71.5222C191.804 71.1576 192.278 70.7306 192.664 70.241L192.758 64.8503ZM211.539 59.9597C211.539 60.491 211.409 60.9649 211.148 61.3816C210.888 61.7878 210.487 61.991 209.945 61.991C209.362 61.991 208.914 61.8399 208.601 61.5378C208.299 61.2358 208.148 60.9024 208.148 60.5378C208.148 60.3087 208.164 60.1003 208.195 59.9128C208.237 59.7253 208.273 59.5378 208.304 59.3503C207.815 59.3503 207.242 59.5483 206.586 59.9441C205.929 60.3399 205.372 60.9024 204.914 61.6316V70.6003C204.914 70.9649 204.982 71.2618 205.117 71.491C205.263 71.7201 205.487 71.892 205.789 72.0066C206.049 72.1108 206.383 72.1889 206.789 72.241C207.205 72.2931 207.565 72.3295 207.867 72.3503V73.3816H199.742V72.3503C199.982 72.3295 200.226 72.3087 200.476 72.2878C200.737 72.267 200.961 72.2253 201.148 72.1628C201.44 72.0691 201.653 71.9076 201.789 71.6785C201.935 71.4389 202.008 71.1316 202.008 70.7566V61.241C202.008 60.9181 201.929 60.6003 201.773 60.2878C201.627 59.9753 201.419 59.7253 201.148 59.5378C200.95 59.4128 200.716 59.3243 200.445 59.2722C200.174 59.2097 199.883 59.1681 199.57 59.1472V58.1316L204.695 57.7878L204.914 58.0066V60.1785H204.992C205.638 59.3347 206.357 58.6941 207.148 58.2566C207.94 57.8191 208.664 57.6003 209.32 57.6003C209.976 57.6003 210.508 57.8139 210.914 58.241C211.33 58.6681 211.539 59.241 211.539 59.9597ZM222.383 72.7097C221.705 72.991 221.065 73.2253 220.461 73.4128C219.857 73.6108 219.117 73.7097 218.242 73.7097C216.95 73.7097 216.039 73.3868 215.508 72.741C214.987 72.0847 214.726 71.1628 214.726 69.9753V59.5378H211.945V58.0378H214.789V53.241H217.633V58.0378H222.054V59.5378H217.664V68.1472C217.664 68.7931 217.685 69.3347 217.726 69.7722C217.778 70.1993 217.893 70.5743 218.07 70.8972C218.237 71.1993 218.487 71.4285 218.82 71.5847C219.153 71.741 219.601 71.8191 220.164 71.8191C220.424 71.8191 220.804 71.7983 221.304 71.7566C221.815 71.7045 222.174 71.642 222.383 71.5691V72.7097Z" fill="#333333"/>
</svg>
