<svg width="215" height="90" viewBox="0 0 215 90" fill="none" xmlns="http://www.w3.org/2000/svg">
<path d="M30 55C30 35 0 35 0 15C0 -5 30 -5 30 15V55Z" fill="#8B0033"/>
<path d="M30 55C30 35 60 35 60 15C60 -5 30 -5 30 15V55Z" fill="#8B0033"/>
<path d="M35 55H25V85H35V55Z" fill="#8B0033"/>
<path d="M45 85H15V90H45V85Z" fill="#8B0033"/>
<path d="M80.5469 29V27.9375C81.3698 27.9271 81.8802 27.8958 82.0781 27.8438C82.2865 27.7812 82.474 27.6719 82.6406 27.5156C82.8177 27.349 83.0677 26.9271 83.3906 26.25C83.5781 25.8646 84.2552 24.401 85.4219 21.8594L89.3281 13.0469C89.7552 12.0781 90.6667 9.92188 92.0625 6.57812H93.0781L99.75 22.25C100.833 24.7917 101.552 26.3854 101.906 27.0312C102.104 27.3958 102.318 27.6354 102.547 27.75C102.786 27.8646 103.318 27.9271 104.141 27.9375V29C102.516 28.8958 101.38 28.8438 100.734 28.8438L95.7031 29V27.9375C96.8698 27.9167 97.5781 27.8802 97.8281 27.8281C98.0781 27.776 98.2448 27.7031 98.3281 27.6094C98.4219 27.5052 98.4688 27.3802 98.4688 27.2344C98.4688 27.0052 98.3958 26.7083 98.25 26.3438L96.3281 21.5625H87.2812L85.5781 25.5781C85.276 26.2969 85.125 26.8229 85.125 27.1562C85.125 27.3021 85.1667 27.4219 85.25 27.5156C85.3646 27.651 85.5417 27.7448 85.7812 27.7969C86.1667 27.8802 86.8438 27.9271 87.8125 27.9375V29C86.0521 28.9062 84.7344 28.8594 83.8594 28.8594C82.849 28.8594 81.7448 28.9062 80.5469 29ZM87.8125 20.2344H95.7031L91.7969 10.8125L87.8125 20.2344ZM105.562 29V28.1094L107.047 28.0938C107.266 28.0833 107.432 28.0469 107.547 27.9844C107.672 27.9115 107.766 27.8229 107.828 27.7188C107.943 27.5104 108.016 27.1406 108.047 26.6094C108.047 26.474 108.078 24.9792 108.141 22.125V20.2656C108.141 19.4323 108.125 18.5365 108.094 17.5781C108.062 16.9635 108.01 16.599 107.938 16.4844C107.875 16.3698 107.76 16.2865 107.594 16.2344C107.427 16.1719 106.75 16.1458 105.562 16.1562V15.2656C107.667 14.974 109.203 14.5938 110.172 14.125C110.38 14.0208 110.521 13.9688 110.594 13.9688C110.667 13.9688 110.724 13.9948 110.766 14.0469C110.807 14.099 110.828 14.1771 110.828 14.2812C110.828 14.3542 110.823 14.4375 110.812 14.5312C110.771 15.0312 110.74 15.776 110.719 16.7656L112.766 14.8906C113.026 14.6615 113.188 14.5312 113.25 14.5C113.49 14.3646 113.833 14.2396 114.281 14.125C114.729 14.0104 115.198 13.9531 115.688 13.9531C116.688 13.9531 117.578 14.1979 118.359 14.6875C119.141 15.1771 119.74 15.901 120.156 16.8594L121.875 15.2656C122.26 14.9115 122.526 14.6927 122.672 14.6094C122.943 14.4531 123.328 14.3073 123.828 14.1719C124.328 14.0365 124.823 13.9688 125.312 13.9688C126.5 13.9688 127.495 14.2865 128.297 14.9219C129.099 15.5469 129.615 16.2604 129.844 17.0625C129.99 17.5938 130.062 18.7396 130.062 20.5V22.125L130.109 24.2969C130.141 25.5573 130.156 26.2969 130.156 26.5156C130.177 27.0365 130.24 27.4167 130.344 27.6562C130.385 27.75 130.448 27.8333 130.531 27.9062C130.625 27.9688 130.755 28.0208 130.922 28.0625C130.984 28.0729 131.557 28.0885 132.641 28.1094V29C131.328 28.9375 130.432 28.9062 129.953 28.9062C129.495 28.9062 128.573 28.9375 127.188 29L127.328 24.6875L127.375 23V21.6562C127.375 19.9062 127.286 18.7135 127.109 18.0781C126.932 17.4323 126.557 16.9115 125.984 16.5156C125.422 16.1198 124.766 15.9219 124.016 15.9219C123.151 15.9219 122.37 16.1719 121.672 16.6719C121.151 17.0573 120.807 17.5104 120.641 18.0312C120.474 18.5521 120.391 19.5677 120.391 21.0781V22.125L120.438 24.2969C120.458 25.5573 120.474 26.2969 120.484 26.5156C120.505 27.0365 120.568 27.4167 120.672 27.6562C120.714 27.75 120.776 27.8333 120.859 27.9062C120.943 27.9688 121.068 28.0208 121.234 28.0625C121.307 28.0729 121.885 28.0885 122.969 28.1094V29C121.438 28.9167 120.208 28.875 119.281 28.875C118.531 28.875 117.167 28.9167 115.188 29V28.1094L116.672 28.0938C116.901 28.0833 117.073 28.0469 117.188 27.9844C117.312 27.9115 117.406 27.8229 117.469 27.7188C117.583 27.5104 117.651 27.1406 117.672 26.6094C117.682 26.474 117.714 24.9792 117.766 22.125V20.9062C117.766 19.5625 117.661 18.5833 117.453 17.9688C117.245 17.3438 116.88 16.849 116.359 16.4844C115.839 16.1094 115.214 15.9219 114.484 15.9219C113.859 15.9219 113.266 16.0573 112.703 16.3281C112.151 16.5885 111.724 16.9167 111.422 17.3125C111.12 17.7083 110.938 18.1302 110.875 18.5781C110.771 19.2969 110.719 20.1615 110.719 21.1719V22.125C110.781 24.8333 110.812 26.2969 110.812 26.5156C110.833 27.0365 110.896 27.4167 111 27.6562C111.042 27.75 111.104 27.8333 111.188 27.9062C111.271 27.9688 111.401 28.0208 111.578 28.0625C111.641 28.0729 112.214 28.0885 113.297 28.1094V29C111.859 28.9167 110.635 28.875 109.625 28.875C108.729 28.875 107.375 28.9167 105.562 29ZM134.219 21.8125C134.219 19.4792 134.958 17.5781 136.438 16.1094C137.927 14.6302 139.833 13.8906 142.156 13.8906C144.344 13.8906 146.125 14.5781 147.5 15.9531C148.875 17.3281 149.562 19.1042 149.562 21.2812C149.562 22.8021 149.208 24.1927 148.5 25.4531C147.792 26.7135 146.792 27.7031 145.5 28.4219C144.208 29.1302 142.786 29.4844 141.234 29.4844C140.026 29.4844 139 29.2812 138.156 28.875C137.323 28.4688 136.646 27.9583 136.125 27.3438C135.604 26.7292 135.208 26.099 134.938 25.4531C134.458 24.3177 134.219 23.1042 134.219 21.8125ZM137.172 20.6562C137.172 21.9375 137.385 23.2396 137.812 24.5625C138.24 25.8854 138.854 26.8542 139.656 27.4688C140.469 28.0729 141.349 28.375 142.297 28.375C143.505 28.375 144.516 27.8958 145.328 26.9375C146.141 25.9792 146.547 24.5052 146.547 22.5156C146.547 20.8594 146.302 19.4323 145.812 18.2344C145.333 17.026 144.719 16.1771 143.969 15.6875C143.219 15.1875 142.391 14.9375 141.484 14.9375C140.203 14.9375 139.161 15.401 138.359 16.3281C137.568 17.2552 137.172 18.6979 137.172 20.6562ZM169.109 28.1094V29C167.745 28.9271 166.714 28.8906 166.016 28.8906C165.245 28.8906 164.464 28.9271 163.672 29C163.734 28.1562 163.781 27.2083 163.812 26.1562C163.188 26.6562 162.443 27.3385 161.578 28.2031C161.38 28.401 161.188 28.5469 161 28.6406C160.552 28.8906 160.104 29.0677 159.656 29.1719C159.208 29.2865 158.672 29.3438 158.047 29.3438C157.203 29.3438 156.495 29.2292 155.922 29C155.359 28.7708 154.875 28.4219 154.469 27.9531C154.167 27.6094 153.932 27.1667 153.766 26.625C153.609 26.0729 153.531 25.4115 153.531 24.6406C153.531 24.276 153.542 23.9323 153.562 23.6094C153.594 23.2865 153.609 22.9688 153.609 22.6562V19.9844C153.609 19.7135 153.594 19.0312 153.562 17.9375C153.542 17.25 153.495 16.8021 153.422 16.5938C153.38 16.4896 153.312 16.4062 153.219 16.3438C153.062 16.2396 152.786 16.1875 152.391 16.1875C151.818 16.1875 151.365 16.1823 151.031 16.1719V15.2812C153.271 15.0312 154.896 14.6302 155.906 14.0781C156.073 13.9844 156.203 13.9375 156.297 13.9375C156.37 13.9375 156.427 13.9635 156.469 14.0156C156.521 14.0677 156.547 14.1458 156.547 14.25C156.547 14.3333 156.542 14.4375 156.531 14.5625C156.49 14.8958 156.453 15.5365 156.422 16.4844C156.359 18.224 156.328 19.3906 156.328 19.9844V23.0312C156.328 24.3021 156.411 25.1979 156.578 25.7188C156.755 26.2292 157.089 26.6406 157.578 26.9531C158.078 27.2552 158.693 27.4062 159.422 27.4062C159.922 27.4062 160.417 27.3229 160.906 27.1562C161.406 26.9792 161.854 26.7292 162.25 26.4062C162.542 26.1667 162.839 25.8438 163.141 25.4375C163.37 25.1354 163.521 24.9062 163.594 24.75C163.667 24.5833 163.714 24.3438 163.734 24.0312C163.786 23.1146 163.812 22.2031 163.812 21.2969V19.9844C163.812 19.7135 163.797 19.0312 163.766 17.9375C163.745 17.25 163.698 16.8021 163.625 16.5938C163.583 16.4896 163.516 16.4062 163.422 16.3438C163.266 16.2396 162.99 16.1875 162.594 16.1875C162.021 16.1875 161.568 16.1823 161.234 16.1719V15.2812C163.474 15.0312 165.099 14.6302 166.109 14.0781C166.276 13.9844 166.406 13.9375 166.5 13.9375C166.573 13.9375 166.63 13.9635 166.672 14.0156C166.724 14.0677 166.75 14.1458 166.75 14.25C166.75 14.3333 166.745 14.4375 166.734 14.5625C166.703 14.8958 166.667 15.5573 166.625 16.5469C166.562 18.2448 166.531 19.3906 166.531 19.9844V22.125L166.562 24.2969C166.594 25.5573 166.615 26.2969 166.625 26.5156C166.635 27.0365 166.693 27.4167 166.797 27.6562C166.849 27.75 166.917 27.8333 167 27.9062C167.083 27.9688 167.208 28.0208 167.375 28.0625C167.438 28.0729 168.016 28.0885 169.109 28.1094ZM170.672 29V28.1094C171.849 28.0885 172.484 28.0677 172.578 28.0469C172.755 28.0156 172.885 27.9688 172.969 27.9062C173.062 27.8333 173.135 27.7344 173.188 27.6094C173.292 27.3698 173.354 26.9948 173.375 26.4844C173.438 23.7031 173.469 22.25 173.469 22.125V20.2656C173.469 19.4323 173.453 18.5365 173.422 17.5781C173.401 16.9635 173.354 16.599 173.281 16.4844C173.219 16.3698 173.099 16.2865 172.922 16.2344C172.755 16.1719 172.078 16.1458 170.891 16.1562V15.2656C172.995 14.974 174.531 14.5938 175.5 14.125C175.708 14.0208 175.849 13.9688 175.922 13.9688C175.995 13.9688 176.052 13.9948 176.094 14.0469C176.135 14.099 176.156 14.1771 176.156 14.2812C176.156 14.3542 176.151 14.4375 176.141 14.5312C176.089 15.1667 176.057 16.151 176.047 17.4844C176.516 16.9427 176.948 16.4062 177.344 15.875C177.74 15.3438 178.026 15 178.203 14.8438C178.516 14.5729 178.875 14.3594 179.281 14.2031C179.688 14.0365 180.109 13.9531 180.547 13.9531C180.984 13.9531 181.417 14.0469 181.844 14.2344L181.938 14.4531C181.781 15.8385 181.693 17.0573 181.672 18.1094H180.969C180.729 17.6094 180.448 17.2448 180.125 17.0156C179.812 16.7865 179.417 16.6719 178.938 16.6719C178.135 16.6719 177.453 17.0052 176.891 17.6719C176.328 18.3281 176.047 19.3177 176.047 20.6406V22.25C176.047 22.9375 176.073 24.1927 176.125 26.0156C176.135 26.6615 176.161 27.0729 176.203 27.25C176.245 27.4271 176.297 27.5573 176.359 27.6406C176.432 27.7135 176.547 27.776 176.703 27.8281C177.016 27.9219 177.859 28.0156 179.234 28.1094V29C177.401 28.9271 175.839 28.8906 174.547 28.8906C173.214 28.8906 171.922 28.9271 170.672 29Z" fill="#8B0033"/>
<path d="M214.031 27.25C213.271 27.7917 212.818 28.1198 212.672 28.2344C212.453 28.401 212 28.7656 211.312 29.3281C210.938 29.401 210.568 29.4375 210.203 29.4375C209.266 29.4375 208.479 29.3021 207.844 29.0312C206.729 28.6146 205.594 27.9323 204.438 26.9844C203.104 27.9635 201.979 28.6198 201.062 28.9531C200.146 29.2865 199.115 29.4531 197.969 29.4531C196.552 29.4531 195.354 29.1667 194.375 28.5938C193.406 28.0104 192.672 27.2188 192.172 26.2188C191.682 25.2083 191.438 24.2031 191.438 23.2031C191.438 21.7448 191.849 20.4688 192.672 19.375C193.495 18.2708 194.719 17.2708 196.344 16.375C195.719 14.875 195.406 13.4948 195.406 12.2344C195.406 11.6198 195.531 11.0208 195.781 10.4375C195.948 10.0208 196.089 9.74479 196.203 9.60938C196.328 9.46354 196.875 8.97396 197.844 8.14062C198.427 7.65104 198.885 7.32812 199.219 7.17188C199.656 6.96354 200.141 6.85938 200.672 6.85938C201.568 6.85938 202.266 7.11979 202.766 7.64062C203.276 8.16146 203.531 8.88542 203.531 9.8125C203.531 10.7917 203.172 11.8229 202.453 12.9062C201.745 13.9896 200.589 15.0729 198.984 16.1562C199.714 17.5833 200.703 19.0833 201.953 20.6562C203.214 22.2188 204.38 23.4323 205.453 24.2969C206.516 23.099 207.047 21.8333 207.047 20.5C207.047 19.7188 206.932 19.1094 206.703 18.6719C206.557 18.401 206.339 18.2344 206.047 18.1719C205.859 18.1198 205.031 18.0833 203.562 18.0625L203.422 17.8594L204.438 16.375C205.125 16.4688 205.979 16.5156 207 16.5156C207.656 16.5156 208.938 16.4792 210.844 16.4062C211.375 16.3854 212.318 16.375 213.672 16.375C213.495 17.1458 213.375 17.875 213.312 18.5625C211.875 18.3229 210.38 18.2188 208.828 18.25C208.953 18.7292 209.016 19.1823 209.016 19.6094C209.016 20.5573 208.807 21.4635 208.391 22.3281C207.984 23.1823 207.323 24.0833 206.406 25.0312C208.302 26.3958 210.172 27.0781 212.016 27.0781C212.297 27.0781 212.536 27.0469 212.734 26.9844C212.943 26.9115 213.307 26.7292 213.828 26.4375L214.031 27.25ZM198.469 15.0938C199.417 14.4167 200.141 13.6771 200.641 12.875C201.151 12.0625 201.406 11.3177 201.406 10.6406C201.406 10.0469 201.234 9.55729 200.891 9.17188C200.547 8.77604 200.156 8.57812 199.719 8.57812C199.333 8.57812 198.979 8.67188 198.656 8.85938C198.333 9.03646 198.083 9.32812 197.906 9.73438C197.74 10.1302 197.656 10.6562 197.656 11.3125C197.656 12.2708 197.927 13.5312 198.469 15.0938ZM203.422 26.1875C202.026 24.6875 201.078 23.6354 200.578 23.0312C199.891 22.2083 199.26 21.3854 198.688 20.5625C198.125 19.7396 197.516 18.75 196.859 17.5938C195.911 18.2812 195.229 18.9792 194.812 19.6875C194.396 20.3854 194.188 21.1979 194.188 22.125C194.188 23.0417 194.432 23.9479 194.922 24.8438C195.411 25.7396 196.068 26.4323 196.891 26.9219C197.724 27.401 198.599 27.6406 199.516 27.6406C200.839 27.6406 202.141 27.1562 203.422 26.1875Z" fill="#8B0033"/>
<path d="M90.75 69.1562C90.4375 68.25 89.7865 66.5 88.7969 63.9062L83.4844 50.7656C82.9219 49.3698 82.5729 48.5625 82.4375 48.3438C82.3438 48.2083 82.2135 48.1094 82.0469 48.0469C81.8177 47.9427 81.2448 47.8594 80.3281 47.7969V46.7969C82.2135 46.8802 83.6042 46.9219 84.5 46.9219C85.3438 46.9219 86.776 46.8802 88.7969 46.7969V47.9062C87.526 47.9271 86.7865 47.9531 86.5781 47.9844C86.3802 48.0156 86.2396 48.0781 86.1562 48.1719C86.0833 48.2552 86.0469 48.3542 86.0469 48.4688C86.0469 48.5833 86.1198 48.8542 86.2656 49.2812C86.7135 50.6667 87.1042 51.7812 87.4375 52.625L92.3281 64.9688L96.4062 54.7344C97 53.2656 97.5677 51.6667 98.1094 49.9375C98.3385 49.1979 98.4531 48.7396 98.4531 48.5625C98.4531 48.3125 98.3177 48.1458 98.0469 48.0625C97.8385 47.9896 97.0365 47.901 95.6406 47.7969V46.7969C97.2135 46.8594 98.3958 46.8906 99.1875 46.8906C100 46.8906 101.12 46.8594 102.547 46.7969V47.7969C101.755 47.8281 101.281 47.8802 101.125 47.9531C100.969 48.026 100.823 48.1719 100.688 48.3906C100.594 48.5469 100.208 49.3906 99.5312 50.9219L94.6562 62.9219L93.4531 66C93.2031 66.6146 93 67.1458 92.8438 67.5938C92.6875 68.0417 92.5156 68.5625 92.3281 69.1562H90.75ZM105.891 47C106.38 47 106.792 47.1719 107.125 47.5156C107.469 47.8594 107.641 48.276 107.641 48.7656C107.641 49.2448 107.469 49.6562 107.125 50C106.781 50.3438 106.37 50.5156 105.891 50.5156C105.401 50.5156 104.984 50.3438 104.641 50C104.297 49.6562 104.125 49.2448 104.125 48.7656C104.125 48.276 104.297 47.8594 104.641 47.5156C104.984 47.1719 105.401 47 105.891 47ZM102.078 56.1406V55.25C104.099 55.0208 105.797 54.5833 107.172 53.9375L107.516 54.1875C107.432 56.4062 107.391 58.1042 107.391 59.2812V62.125C107.443 64.8333 107.474 66.2969 107.484 66.5156C107.495 67.0365 107.552 67.4167 107.656 67.6562C107.708 67.75 107.776 67.8333 107.859 67.9062C107.943 67.9688 108.068 68.0208 108.234 68.0625C108.297 68.0729 108.875 68.0885 109.969 68.1094V69C108.385 68.9271 107.12 68.8906 106.172 68.8906C105.339 68.8906 103.974 68.9271 102.078 69V68.1094L103.562 68.0938C103.781 68.0833 103.948 68.0469 104.062 67.9844C104.188 67.9115 104.281 67.8229 104.344 67.7188C104.458 67.5104 104.531 67.1406 104.562 66.6094C104.562 66.474 104.594 64.9792 104.656 62.125V59.375C104.656 57.8229 104.604 56.901 104.5 56.6094C104.438 56.4531 104.323 56.3385 104.156 56.2656C104 56.1823 103.307 56.1406 102.078 56.1406ZM111.125 69V68.1094L112.609 68.0938C112.828 68.0833 112.995 68.0469 113.109 67.9844C113.234 67.9115 113.328 67.8229 113.391 67.7188C113.505 67.5104 113.578 67.1406 113.609 66.6094C113.609 66.474 113.641 64.9792 113.703 62.125V60.2656C113.703 59.4323 113.688 58.5365 113.656 57.5781C113.625 56.9635 113.573 56.599 113.5 56.4844C113.438 56.3698 113.323 56.2865 113.156 56.2344C112.99 56.1719 112.312 56.1458 111.125 56.1562V55.2656C113.229 54.974 114.766 54.5938 115.734 54.125C115.943 54.0208 116.083 53.9688 116.156 53.9688C116.229 53.9688 116.286 53.9948 116.328 54.0469C116.37 54.099 116.391 54.1771 116.391 54.2812C116.391 54.3542 116.385 54.4375 116.375 54.5312C116.344 54.9062 116.312 55.6979 116.281 56.9062L119.188 54.4219C120.042 54.1094 120.849 53.9531 121.609 53.9531C122.453 53.9531 123.25 54.125 124 54.4688C124.76 54.8125 125.328 55.2448 125.703 55.7656C126.089 56.2865 126.344 56.9427 126.469 57.7344C126.542 58.2031 126.578 59.5104 126.578 61.6562V64.4219C126.578 65.776 126.615 66.6979 126.688 67.1875C126.74 67.5 126.818 67.7188 126.922 67.8438C127.036 67.9583 127.208 68.0312 127.438 68.0625L129.109 68.1094V69C128.089 68.9271 127.24 68.8906 126.562 68.8906C125.979 68.8906 125.01 68.9271 123.656 69C123.802 66.4271 123.875 64.8021 123.875 64.125V61.5C123.875 59.8646 123.812 58.7917 123.688 58.2812C123.51 57.5833 123.109 57.0208 122.484 56.5938C121.859 56.1667 121.104 55.9531 120.219 55.9531C119.438 55.9531 118.724 56.1406 118.078 56.5156C117.432 56.8802 116.969 57.3073 116.688 57.7969C116.417 58.276 116.281 59.0885 116.281 60.2344V62.125C116.344 64.8333 116.375 66.2969 116.375 66.5156C116.396 67.0365 116.458 67.4167 116.562 67.6562C116.604 67.75 116.667 67.8333 116.75 67.9062C116.833 67.9688 116.964 68.0208 117.141 68.0625C117.203 68.0729 117.776 68.0885 118.859 68.1094V69C117.589 68.9271 116.438 68.8906 115.406 68.8906C114.531 68.8906 113.104 68.9271 111.125 69ZM143.125 66.5781L142.625 67.7031C141.906 68.151 141.38 68.4479 141.047 68.5938C140.557 68.8125 139.995 68.9948 139.359 69.1406C138.734 69.2969 138.073 69.375 137.375 69.375C136 69.375 134.755 69.0885 133.641 68.5156C132.526 67.9427 131.656 67.0885 131.031 65.9531C130.417 64.8073 130.109 63.4688 130.109 61.9375C130.109 60.7396 130.271 59.6615 130.594 58.7031C130.927 57.7344 131.302 57.0208 131.719 56.5625C132.021 56.2292 132.49 55.849 133.125 55.4219C133.76 54.9844 134.391 54.6406 135.016 54.3906C135.839 54.0469 136.729 53.875 137.688 53.875C138.854 53.875 139.906 54.1406 140.844 54.6719C141.792 55.2031 142.484 55.9271 142.922 56.8438C143.359 57.7604 143.578 58.7969 143.578 59.9531C143.578 60.2448 143.557 60.599 143.516 61.0156C142.766 61.1615 142.094 61.2552 141.5 61.2969C140.375 61.3802 139.25 61.4219 138.125 61.4219H133.109C133.13 62.9115 133.385 64.1198 133.875 65.0469C134.375 65.9635 135.057 66.6406 135.922 67.0781C136.797 67.5156 137.703 67.7344 138.641 67.7344C139.276 67.7344 139.906 67.6354 140.531 67.4375C141.167 67.2292 141.948 66.8542 142.875 66.3125L143.125 66.5781ZM133.109 60.1875C133.401 60.2188 133.953 60.25 134.766 60.2812C136.318 60.3333 137.385 60.3594 137.969 60.3594C139.354 60.3594 140.266 60.3333 140.703 60.2812C140.714 60.0312 140.719 59.8385 140.719 59.7031C140.719 58.0573 140.385 56.849 139.719 56.0781C139.052 55.3073 138.161 54.9219 137.047 54.9219C135.87 54.9219 134.922 55.3438 134.203 56.1875C133.484 57.0312 133.12 58.3646 133.109 60.1875Z" fill="#8B0033"/>
<path d="M70 45.0001C80 45.0001 90 40.0001 100 45.0001C110 50.0001 120 45.0001 130 45.0001" stroke="#8B0033" stroke-width="2"/>
<path d="M70 85.0001C80 85.0001 90 80.0001 100 85.0001C110 90.0001 120 85.0001 130 85.0001" stroke="#8B0033" stroke-width="2"/>
</svg>
