<svg width="322" height="94" viewBox="0 0 322 94" fill="none" xmlns="http://www.w3.org/2000/svg">
<path d="M93.8333 81.6321C98.9167 67.7537 109.083 57.3449 124.333 50.4056" stroke="#FF6B6B" stroke-width="6.4" stroke-linecap="round"/>
<path d="M124.333 50.4056C165 39.9968 195.5 41.7316 215.833 55.61C236.167 69.4884 226 79.8973 185.333 86.8365C144.667 93.7757 114.167 92.0409 93.8333 81.6321C73.5 71.2232 83.6667 60.8144 124.333 50.4056Z" stroke="#FF6B6B" stroke-width="4.8"/>
<path d="M17.0234 39.0078C18.7266 39.0078 20.1094 38.8203 21.1719 38.4453C23.1875 37.7266 24.1953 36.3906 24.1953 34.4375C24.1953 33.2969 23.6953 32.4141 22.6953 31.7891C21.6953 31.1797 20.125 30.6406 17.9844 30.1719L14.3281 29.3516C10.7344 28.5391 8.25 27.6562 6.875 26.7031C4.54688 25.1094 3.38281 22.6172 3.38281 19.2266C3.38281 16.1328 4.50781 13.5625 6.75781 11.5156C9.00781 9.46875 12.3125 8.44531 16.6719 8.44531C20.3125 8.44531 23.4141 9.41406 25.9766 11.3516C28.5547 13.2734 29.9062 16.0703 30.0312 19.7422H23.0938C22.9688 17.6641 22.0625 16.1875 20.375 15.3125C19.25 14.7344 17.8516 14.4453 16.1797 14.4453C14.3203 14.4453 12.8359 14.8203 11.7266 15.5703C10.6172 16.3203 10.0625 17.3672 10.0625 18.7109C10.0625 19.9453 10.6094 20.8672 11.7031 21.4766C12.4062 21.8828 13.9062 22.3594 16.2031 22.9062L22.1562 24.3359C24.7656 24.9609 26.7344 25.7969 28.0625 26.8438C30.125 28.4688 31.1562 30.8203 31.1562 33.8984C31.1562 37.0547 29.9453 39.6797 27.5234 41.7734C25.1172 43.8516 21.7109 44.8906 17.3047 44.8906C12.8047 44.8906 9.26562 43.8672 6.6875 41.8203C4.10938 39.7578 2.82031 36.9297 2.82031 33.3359H9.71094C9.92969 34.9141 10.3594 36.0938 11 36.875C12.1719 38.2969 14.1797 39.0078 17.0234 39.0078ZM55.3438 44L51.3359 25.3906L47.2812 44H40.3438L33.1719 18.4531H40.3438L44.3281 36.7812L48.0078 18.4531H54.7812L58.6719 36.8516L62.6562 18.4531H69.6172L62.2109 44H55.3438ZM95.1875 36.5C95.0156 38.0156 94.2266 39.5547 92.8203 41.1172C90.6328 43.6016 87.5703 44.8438 83.6328 44.8438C80.3828 44.8438 77.5156 43.7969 75.0312 41.7031C72.5469 39.6094 71.3047 36.2031 71.3047 31.4844C71.3047 27.0625 72.4219 23.6719 74.6562 21.3125C76.9062 18.9531 79.8203 17.7734 83.3984 17.7734C85.5234 17.7734 87.4375 18.1719 89.1406 18.9688C90.8438 19.7656 92.25 21.0234 93.3594 22.7422C94.3594 24.2578 95.0078 26.0156 95.3047 28.0156C95.4766 29.1875 95.5469 30.875 95.5156 33.0781H78.0312C78.125 35.6406 78.9297 37.4375 80.4453 38.4688C81.3672 39.1094 82.4766 39.4297 83.7734 39.4297C85.1484 39.4297 86.2656 39.0391 87.125 38.2578C87.5938 37.8359 88.0078 37.25 88.3672 36.5H95.1875ZM88.5781 28.6719C88.4688 26.9062 87.9297 25.5703 86.9609 24.6641C86.0078 23.7422 84.8203 23.2812 83.3984 23.2812C81.8516 23.2812 80.6484 23.7656 79.7891 24.7344C78.9453 25.7031 78.4141 27.0156 78.1953 28.6719H88.5781ZM121.906 36.5C121.734 38.0156 120.945 39.5547 119.539 41.1172C117.352 43.6016 114.289 44.8438 110.352 44.8438C107.102 44.8438 104.234 43.7969 101.75 41.7031C99.2656 39.6094 98.0234 36.2031 98.0234 31.4844C98.0234 27.0625 99.1406 23.6719 101.375 21.3125C103.625 18.9531 106.539 17.7734 110.117 17.7734C112.242 17.7734 114.156 18.1719 115.859 18.9688C117.562 19.7656 118.969 21.0234 120.078 22.7422C121.078 24.2578 121.727 26.0156 122.023 28.0156C122.195 29.1875 122.266 30.875 122.234 33.0781H104.75C104.844 35.6406 105.648 37.4375 107.164 38.4688C108.086 39.1094 109.195 39.4297 110.492 39.4297C111.867 39.4297 112.984 39.0391 113.844 38.2578C114.312 37.8359 114.727 37.25 115.086 36.5H121.906ZM115.297 28.6719C115.188 26.9062 114.648 25.5703 113.68 24.6641C112.727 23.7422 111.539 23.2812 110.117 23.2812C108.57 23.2812 107.367 23.7656 106.508 24.7344C105.664 25.7031 105.133 27.0156 104.914 28.6719H115.297ZM138.453 39.2422V44.2344L135.289 44.3516C132.133 44.4609 129.977 43.9141 128.82 42.7109C128.07 41.9453 127.695 40.7656 127.695 39.1719V23.4453H124.133V18.6875H127.695V11.5625H134.305V18.6875H138.453V23.4453H134.305V36.9453C134.305 37.9922 134.438 38.6484 134.703 38.9141C134.969 39.1641 135.781 39.2891 137.141 39.2891C137.344 39.2891 137.555 39.2891 137.773 39.2891C138.008 39.2734 138.234 39.2578 138.453 39.2422ZM190.25 9.45312H197.586L187.859 44H180.969L176.797 23.7969L175.578 17.1172L174.359 23.7969L170.188 44H163.484L153.688 9.45312H161.352L165.922 29.2344L166.906 34.7422L167.914 29.3516L171.805 9.45312H179.422L183.523 29.2344L184.578 34.7422L185.633 29.4453L190.25 9.45312ZM224.516 29V44H217.695V28.4609C217.695 27.0859 217.461 25.9766 216.992 25.1328C216.383 23.9453 215.227 23.3516 213.523 23.3516C211.758 23.3516 210.414 23.9453 209.492 25.1328C208.586 26.3047 208.133 27.9844 208.133 30.1719V44H201.477V9.57031H208.133V21.7812C209.102 20.2969 210.219 19.2656 211.484 18.6875C212.766 18.0938 214.109 17.7969 215.516 17.7969C217.094 17.7969 218.523 18.0703 219.805 18.6172C221.102 19.1641 222.164 20 222.992 21.125C223.695 22.0781 224.125 23.0625 224.281 24.0781C224.438 25.0781 224.516 26.7188 224.516 29ZM237.641 18.4531V44H230.867V18.4531H237.641ZM237.641 9.24219V15.4062H230.867V9.24219H237.641ZM261.734 19.625C263.734 20.9062 264.883 23.1094 265.18 26.2344H258.5C258.406 25.375 258.164 24.6953 257.773 24.1953C257.039 23.2891 255.789 22.8359 254.023 22.8359C252.57 22.8359 251.531 23.0625 250.906 23.5156C250.297 23.9688 249.992 24.5 249.992 25.1094C249.992 25.875 250.32 26.4297 250.977 26.7734C251.633 27.1328 253.953 27.75 257.938 28.625C260.594 29.25 262.586 30.1953 263.914 31.4609C265.227 32.7422 265.883 34.3438 265.883 36.2656C265.883 38.7969 264.938 40.8672 263.047 42.4766C261.172 44.0703 258.266 44.8672 254.328 44.8672C250.312 44.8672 247.344 44.0234 245.422 42.3359C243.516 40.6328 242.562 38.4688 242.562 35.8438H249.336C249.477 37.0312 249.781 37.875 250.25 38.375C251.078 39.2656 252.609 39.7109 254.844 39.7109C256.156 39.7109 257.195 39.5156 257.961 39.125C258.742 38.7344 259.133 38.1484 259.133 37.3672C259.133 36.6172 258.82 36.0469 258.195 35.6562C257.57 35.2656 255.25 34.5938 251.234 33.6406C248.344 32.9219 246.305 32.0234 245.117 30.9453C243.93 29.8828 243.336 28.3516 243.336 26.3516C243.336 23.9922 244.258 21.9688 246.102 20.2812C247.961 18.5781 250.57 17.7266 253.93 17.7266C257.117 17.7266 259.719 18.3594 261.734 19.625ZM294.289 44H286.227L280.109 33.0781L277.344 35.9609V44H270.781V9.57031H277.344V28.1797L285.664 18.5703H293.938L285.008 28.3438L294.289 44ZM315.172 19.625C317.172 20.9062 318.32 23.1094 318.617 26.2344H311.938C311.844 25.375 311.602 24.6953 311.211 24.1953C310.477 23.2891 309.227 22.8359 307.461 22.8359C306.008 22.8359 304.969 23.0625 304.344 23.5156C303.734 23.9688 303.43 24.5 303.43 25.1094C303.43 25.875 303.758 26.4297 304.414 26.7734C305.07 27.1328 307.391 27.75 311.375 28.625C314.031 29.25 316.023 30.1953 317.352 31.4609C318.664 32.7422 319.32 34.3438 319.32 36.2656C319.32 38.7969 318.375 40.8672 316.484 42.4766C314.609 44.0703 311.703 44.8672 307.766 44.8672C303.75 44.8672 300.781 44.0234 298.859 42.3359C296.953 40.6328 296 38.4688 296 35.8438H302.773C302.914 37.0312 303.219 37.875 303.688 38.375C304.516 39.2656 306.047 39.7109 308.281 39.7109C309.594 39.7109 310.633 39.5156 311.398 39.125C312.18 38.7344 312.57 38.1484 312.57 37.3672C312.57 36.6172 312.258 36.0469 311.633 35.6562C311.008 35.2656 308.688 34.5938 304.672 33.6406C301.781 32.9219 299.742 32.0234 298.555 30.9453C297.367 29.8828 296.773 28.3516 296.773 26.3516C296.773 23.9922 297.695 21.9688 299.539 20.2812C301.398 18.5781 304.008 17.7266 307.367 17.7266C310.555 17.7266 313.156 18.3594 315.172 19.625Z" fill="#333333"/>
<path d="M112.828 69.7734C112.828 70.1797 112.977 70.5 113.273 70.7344C113.57 70.9688 113.922 71.0859 114.328 71.0859C114.823 71.0859 115.302 70.9714 115.766 70.7422C116.547 70.362 116.938 69.7396 116.938 68.875V67.7422C116.766 67.8516 116.544 67.9427 116.273 68.0156C116.003 68.0885 115.737 68.1406 115.477 68.1719L114.625 68.2812C114.115 68.349 113.732 68.4557 113.477 68.6016C113.044 68.8464 112.828 69.237 112.828 69.7734ZM116.234 66.9297C116.557 66.888 116.773 66.7526 116.883 66.5234C116.945 66.3984 116.977 66.2188 116.977 65.9844C116.977 65.5052 116.805 65.1589 116.461 64.9453C116.122 64.7266 115.635 64.6172 115 64.6172C114.266 64.6172 113.745 64.8151 113.438 65.2109C113.266 65.4297 113.154 65.7552 113.102 66.1875H111.789C111.815 65.1562 112.148 64.4401 112.789 64.0391C113.435 63.6328 114.182 63.4297 115.031 63.4297C116.016 63.4297 116.815 63.6172 117.43 63.9922C118.039 64.3672 118.344 64.9505 118.344 65.7422V70.5625C118.344 70.7083 118.372 70.8255 118.43 70.9141C118.492 71.0026 118.62 71.0469 118.812 71.0469C118.875 71.0469 118.945 71.0443 119.023 71.0391C119.102 71.0286 119.185 71.0156 119.273 71V72.0391C119.055 72.1016 118.888 72.1406 118.773 72.1562C118.659 72.1719 118.503 72.1797 118.305 72.1797C117.82 72.1797 117.469 72.0078 117.25 71.6641C117.135 71.4818 117.055 71.224 117.008 70.8906C116.721 71.2656 116.31 71.5911 115.773 71.8672C115.237 72.1432 114.646 72.2812 114 72.2812C113.224 72.2812 112.589 72.0469 112.094 71.5781C111.604 71.1042 111.359 70.513 111.359 69.8047C111.359 69.0286 111.602 68.4271 112.086 68C112.57 67.5729 113.206 67.3099 113.992 67.2109L116.234 66.9297ZM120.695 63.6328H122.031V65.0781C122.141 64.7969 122.409 64.4557 122.836 64.0547C123.263 63.6484 123.755 63.4453 124.312 63.4453C124.339 63.4453 124.383 63.4479 124.445 63.4531C124.508 63.4583 124.615 63.4688 124.766 63.4844V64.9688C124.682 64.9531 124.604 64.9427 124.531 64.9375C124.464 64.9323 124.388 64.9297 124.305 64.9297C123.596 64.9297 123.052 65.1589 122.672 65.6172C122.292 66.0703 122.102 66.5938 122.102 67.1875V72H120.695V63.6328ZM126.266 61.2969H127.688V63.6328H129.023V64.7812H127.688V70.2422C127.688 70.5339 127.786 70.7292 127.984 70.8281C128.094 70.8854 128.276 70.9141 128.531 70.9141C128.599 70.9141 128.672 70.9141 128.75 70.9141C128.828 70.9089 128.919 70.901 129.023 70.8906V72C128.862 72.0469 128.693 72.0807 128.516 72.1016C128.344 72.1224 128.156 72.1328 127.953 72.1328C127.297 72.1328 126.852 71.9661 126.617 71.6328C126.383 71.2943 126.266 70.8568 126.266 70.3203V64.7812H125.133V63.6328H126.266V61.2969ZM130.438 63.6719H131.867V72H130.438V63.6719ZM130.438 60.5234H131.867V62.1172H130.438V60.5234ZM134.836 69.375C134.878 69.8438 134.995 70.2031 135.188 70.4531C135.542 70.9062 136.156 71.1328 137.031 71.1328C137.552 71.1328 138.01 71.0208 138.406 70.7969C138.802 70.5677 139 70.2161 139 69.7422C139 69.3828 138.841 69.1094 138.523 68.9219C138.32 68.8073 137.919 68.6745 137.32 68.5234L136.203 68.2422C135.49 68.0651 134.964 67.8672 134.625 67.6484C134.021 67.2682 133.719 66.7422 133.719 66.0703C133.719 65.2786 134.003 64.638 134.57 64.1484C135.143 63.6589 135.911 63.4141 136.875 63.4141C138.135 63.4141 139.044 63.7839 139.602 64.5234C139.951 64.9922 140.12 65.4974 140.109 66.0391H138.781C138.755 65.7214 138.643 65.4323 138.445 65.1719C138.122 64.8021 137.562 64.6172 136.766 64.6172C136.234 64.6172 135.831 64.7188 135.555 64.9219C135.284 65.125 135.148 65.3932 135.148 65.7266C135.148 66.0911 135.328 66.3828 135.688 66.6016C135.896 66.7318 136.203 66.8464 136.609 66.9453L137.539 67.1719C138.549 67.4167 139.227 67.6536 139.57 67.8828C140.117 68.2422 140.391 68.8073 140.391 69.5781C140.391 70.3229 140.107 70.9661 139.539 71.5078C138.977 72.0495 138.117 72.3203 136.961 72.3203C135.716 72.3203 134.833 72.0391 134.312 71.4766C133.797 70.9089 133.521 70.2083 133.484 69.375H134.836ZM143.078 69.7734C143.078 70.1797 143.227 70.5 143.523 70.7344C143.82 70.9688 144.172 71.0859 144.578 71.0859C145.073 71.0859 145.552 70.9714 146.016 70.7422C146.797 70.362 147.188 69.7396 147.188 68.875V67.7422C147.016 67.8516 146.794 67.9427 146.523 68.0156C146.253 68.0885 145.987 68.1406 145.727 68.1719L144.875 68.2812C144.365 68.349 143.982 68.4557 143.727 68.6016C143.294 68.8464 143.078 69.237 143.078 69.7734ZM146.484 66.9297C146.807 66.888 147.023 66.7526 147.133 66.5234C147.195 66.3984 147.227 66.2188 147.227 65.9844C147.227 65.5052 147.055 65.1589 146.711 64.9453C146.372 64.7266 145.885 64.6172 145.25 64.6172C144.516 64.6172 143.995 64.8151 143.688 65.2109C143.516 65.4297 143.404 65.7552 143.352 66.1875H142.039C142.065 65.1562 142.398 64.4401 143.039 64.0391C143.685 63.6328 144.432 63.4297 145.281 63.4297C146.266 63.4297 147.065 63.6172 147.68 63.9922C148.289 64.3672 148.594 64.9505 148.594 65.7422V70.5625C148.594 70.7083 148.622 70.8255 148.68 70.9141C148.742 71.0026 148.87 71.0469 149.062 71.0469C149.125 71.0469 149.195 71.0443 149.273 71.0391C149.352 71.0286 149.435 71.0156 149.523 71V72.0391C149.305 72.1016 149.138 72.1406 149.023 72.1562C148.909 72.1719 148.753 72.1797 148.555 72.1797C148.07 72.1797 147.719 72.0078 147.5 71.6641C147.385 71.4818 147.305 71.224 147.258 70.8906C146.971 71.2656 146.56 71.5911 146.023 71.8672C145.487 72.1432 144.896 72.2812 144.25 72.2812C143.474 72.2812 142.839 72.0469 142.344 71.5781C141.854 71.1042 141.609 70.513 141.609 69.8047C141.609 69.0286 141.852 68.4271 142.336 68C142.82 67.5729 143.456 67.3099 144.242 67.2109L146.484 66.9297ZM150.906 63.6328H152.242V64.8203C152.638 64.3307 153.057 63.9792 153.5 63.7656C153.943 63.5521 154.435 63.4453 154.977 63.4453C156.164 63.4453 156.966 63.8594 157.383 64.6875C157.612 65.1406 157.727 65.7891 157.727 66.6328V72H156.297V66.7266C156.297 66.2161 156.221 65.8047 156.07 65.4922C155.82 64.9714 155.367 64.7109 154.711 64.7109C154.378 64.7109 154.104 64.7448 153.891 64.8125C153.505 64.9271 153.167 65.1562 152.875 65.5C152.641 65.776 152.487 66.0625 152.414 66.3594C152.346 66.651 152.312 67.0703 152.312 67.6172V72H150.906V63.6328ZM164.156 60.4844H165.523V64.6484C165.831 64.2474 166.198 63.9427 166.625 63.7344C167.052 63.5208 167.516 63.4141 168.016 63.4141C169.057 63.4141 169.901 63.7734 170.547 64.4922C171.198 65.2057 171.523 66.2604 171.523 67.6562C171.523 68.9792 171.203 70.0781 170.562 70.9531C169.922 71.8281 169.034 72.2656 167.898 72.2656C167.263 72.2656 166.727 72.112 166.289 71.8047C166.029 71.6224 165.75 71.3307 165.453 70.9297V72H164.156V60.4844ZM167.812 71.0234C168.573 71.0234 169.141 70.7214 169.516 70.1172C169.896 69.513 170.086 68.7161 170.086 67.7266C170.086 66.8464 169.896 66.1172 169.516 65.5391C169.141 64.9609 168.586 64.6719 167.852 64.6719C167.211 64.6719 166.648 64.9089 166.164 65.3828C165.685 65.8568 165.445 66.638 165.445 67.7266C165.445 68.513 165.544 69.151 165.742 69.6406C166.112 70.5625 166.802 71.0234 167.812 71.0234ZM174.25 69.7734C174.25 70.1797 174.398 70.5 174.695 70.7344C174.992 70.9688 175.344 71.0859 175.75 71.0859C176.245 71.0859 176.724 70.9714 177.188 70.7422C177.969 70.362 178.359 69.7396 178.359 68.875V67.7422C178.188 67.8516 177.966 67.9427 177.695 68.0156C177.424 68.0885 177.159 68.1406 176.898 68.1719L176.047 68.2812C175.536 68.349 175.154 68.4557 174.898 68.6016C174.466 68.8464 174.25 69.237 174.25 69.7734ZM177.656 66.9297C177.979 66.888 178.195 66.7526 178.305 66.5234C178.367 66.3984 178.398 66.2188 178.398 65.9844C178.398 65.5052 178.227 65.1589 177.883 64.9453C177.544 64.7266 177.057 64.6172 176.422 64.6172C175.688 64.6172 175.167 64.8151 174.859 65.2109C174.688 65.4297 174.576 65.7552 174.523 66.1875H173.211C173.237 65.1562 173.57 64.4401 174.211 64.0391C174.857 63.6328 175.604 63.4297 176.453 63.4297C177.438 63.4297 178.237 63.6172 178.852 63.9922C179.461 64.3672 179.766 64.9505 179.766 65.7422V70.5625C179.766 70.7083 179.794 70.8255 179.852 70.9141C179.914 71.0026 180.042 71.0469 180.234 71.0469C180.297 71.0469 180.367 71.0443 180.445 71.0391C180.523 71.0286 180.607 71.0156 180.695 71V72.0391C180.477 72.1016 180.31 72.1406 180.195 72.1562C180.081 72.1719 179.924 72.1797 179.727 72.1797C179.242 72.1797 178.891 72.0078 178.672 71.6641C178.557 71.4818 178.477 71.224 178.43 70.8906C178.143 71.2656 177.732 71.5911 177.195 71.8672C176.659 72.1432 176.068 72.2812 175.422 72.2812C174.646 72.2812 174.01 72.0469 173.516 71.5781C173.026 71.1042 172.781 70.513 172.781 69.8047C172.781 69.0286 173.023 68.4271 173.508 68C173.992 67.5729 174.628 67.3099 175.414 67.2109L177.656 66.9297ZM182.047 60.5234H183.398V67.1875L187.008 63.6328H188.805L185.602 66.7656L188.984 72H187.188L184.578 67.7812L183.398 68.8594V72H182.047V60.5234ZM193.562 63.4453C194.156 63.4453 194.732 63.5859 195.289 63.8672C195.846 64.1432 196.271 64.5026 196.562 64.9453C196.844 65.3672 197.031 65.8594 197.125 66.4219C197.208 66.8073 197.25 67.4219 197.25 68.2656H191.117C191.143 69.1146 191.344 69.7969 191.719 70.3125C192.094 70.8229 192.674 71.0781 193.461 71.0781C194.195 71.0781 194.781 70.8359 195.219 70.3516C195.469 70.0703 195.646 69.7448 195.75 69.375H197.133C197.096 69.6823 196.974 70.026 196.766 70.4062C196.562 70.7812 196.333 71.0885 196.078 71.3281C195.651 71.7448 195.122 72.026 194.492 72.1719C194.154 72.2552 193.771 72.2969 193.344 72.2969C192.302 72.2969 191.419 71.9193 190.695 71.1641C189.971 70.4036 189.609 69.3411 189.609 67.9766C189.609 66.6328 189.974 65.5417 190.703 64.7031C191.432 63.8646 192.385 63.4453 193.562 63.4453ZM195.805 67.1484C195.747 66.5391 195.615 66.0521 195.406 65.6875C195.021 65.0104 194.378 64.6719 193.477 64.6719C192.831 64.6719 192.289 64.9062 191.852 65.375C191.414 65.8385 191.182 66.4297 191.156 67.1484H195.805ZM199.023 63.6328H200.359V65.0781C200.469 64.7969 200.737 64.4557 201.164 64.0547C201.591 63.6484 202.083 63.4453 202.641 63.4453C202.667 63.4453 202.711 63.4479 202.773 63.4531C202.836 63.4583 202.943 63.4688 203.094 63.4844V64.9688C203.01 64.9531 202.932 64.9427 202.859 64.9375C202.792 64.9323 202.716 64.9297 202.633 64.9297C201.924 64.9297 201.38 65.1589 201 65.6172C200.62 66.0703 200.43 66.5938 200.43 67.1875V72H199.023V63.6328ZM209.539 63.6328H211.094C210.896 64.1693 210.456 65.3932 209.773 67.3047C209.263 68.7422 208.836 69.9141 208.492 70.8203C207.68 72.9557 207.107 74.2578 206.773 74.7266C206.44 75.1953 205.867 75.4297 205.055 75.4297C204.857 75.4297 204.703 75.4219 204.594 75.4062C204.49 75.3906 204.359 75.362 204.203 75.3203V74.0391C204.448 74.1068 204.625 74.1484 204.734 74.1641C204.844 74.1797 204.94 74.1875 205.023 74.1875C205.284 74.1875 205.474 74.1432 205.594 74.0547C205.719 73.9714 205.823 73.8672 205.906 73.7422C205.932 73.7005 206.026 73.487 206.188 73.1016C206.349 72.7161 206.466 72.4297 206.539 72.2422L203.445 63.6328H205.039L207.281 70.4453L209.539 63.6328Z" fill="#666666"/>
</svg>
