<svg width="141" height="157" viewBox="0 0 141 157" fill="none" xmlns="http://www.w3.org/2000/svg">
<path d="M70 5L90 65C90 91.6667 83.3333 111.667 70 125C56.6667 111.667 50 91.6667 50 65L70 5Z" stroke="#B76E79" stroke-width="3"/>
<path d="M70 125V155" stroke="#B76E79" stroke-width="3"/>
<path d="M55 155H85" stroke="#B76E79" stroke-width="3"/>
<path d="M65 47C66.1046 47 67 46.1046 67 45C67 43.8954 66.1046 43 65 43C63.8954 43 63 43.8954 63 45C63 46.1046 63.8954 47 65 47Z" fill="#B76E79"/>
<path d="M75 57C76.1046 57 77 56.1046 77 55C77 53.8954 76.1046 53 75 53C73.8954 53 73 53.8954 73 55C73 56.1046 73.8954 57 75 57Z" fill="#B76E79"/>
<path d="M62 67C63.1046 67 64 66.1046 64 65C64 63.8954 63.1046 63 62 63C60.8954 63 60 63.8954 60 65C60 66.1046 60.8954 67 62 67Z" fill="#B76E79"/>
<path d="M3.88125 92.68H4.40925C4.76125 94.408 5.20925 95.864 5.75325 97.048C6.32925 98.232 6.95325 99.208 7.62525 99.976C8.29725 100.744 9.00125 101.336 9.73725 101.752C10.4733 102.168 11.2093 102.472 11.9453 102.664C12.7133 102.856 13.4333 102.968 14.1053 103C14.8093 103.032 15.4653 103.048 16.0733 103.048C17.7693 103.048 19.1613 102.792 20.2493 102.28C21.3373 101.768 22.2013 101.128 22.8413 100.36C23.4813 99.56 23.9293 98.712 24.1853 97.816C24.4413 96.888 24.5693 96.04 24.5693 95.272C24.5693 94.152 24.3613 93.192 23.9453 92.392C23.5293 91.592 23.0013 90.92 22.3613 90.376C21.7213 89.8 21.0173 89.336 20.2493 88.984C19.5133 88.632 18.8093 88.36 18.1373 88.168L12.6172 86.488C10.0253 85.688 8.05725 84.632 6.71325 83.32C5.40125 82.008 4.74525 80.248 4.74525 78.04C4.74525 76.6 5.00125 75.272 5.51325 74.056C6.02525 72.808 6.74525 71.736 7.67325 70.84C8.60125 69.944 9.70525 69.24 10.9853 68.728C12.2973 68.216 13.7213 67.96 15.2573 67.96C16.3773 67.96 17.3053 68.056 18.0413 68.248C18.8093 68.44 19.4653 68.664 20.0093 68.92C20.5533 69.144 21.0333 69.352 21.4493 69.544C21.8973 69.736 22.3453 69.832 22.7933 69.832C23.2093 69.832 23.4813 69.784 23.6093 69.688C23.7693 69.56 23.9773 69.272 24.2333 68.824H24.9053V77.512H24.3293C24.1373 76.36 23.8013 75.256 23.3213 74.2C22.8733 73.112 22.2813 72.168 21.5453 71.368C20.8093 70.536 19.9133 69.88 18.8573 69.4C17.8333 68.888 16.6333 68.632 15.2573 68.632C14.4893 68.632 13.6413 68.744 12.7133 68.968C11.7853 69.16 10.9213 69.512 10.1213 70.024C9.32125 70.536 8.64925 71.208 8.10525 72.04C7.59325 72.872 7.33725 73.928 7.33725 75.208C7.33725 76.232 7.54525 77.112 7.96125 77.848C8.37725 78.552 8.90525 79.16 9.54525 79.672C10.2173 80.152 10.9533 80.568 11.7533 80.92C12.5853 81.24 13.4173 81.528 14.2493 81.784L20.0573 83.608C20.6653 83.8 21.4333 84.056 22.3613 84.376C23.2893 84.696 24.1853 85.176 25.0493 85.816C25.9453 86.456 26.6973 87.304 27.3053 88.36C27.9453 89.416 28.2653 90.76 28.2653 92.392C28.2653 93.896 27.9773 95.336 27.4012 96.712C26.8573 98.056 26.0573 99.256 25.0013 100.312C23.9453 101.336 22.6653 102.168 21.1613 102.808C19.6573 103.416 17.9613 103.72 16.0733 103.72C15.4013 103.72 14.8093 103.704 14.2973 103.672C13.7853 103.672 13.3053 103.64 12.8573 103.576C12.4093 103.512 11.9613 103.432 11.5133 103.336C11.0653 103.272 10.5693 103.16 10.0253 103C9.38525 102.808 8.69725 102.584 7.96125 102.328C7.22525 102.072 6.58525 101.944 6.04125 101.944C5.56125 101.944 5.22525 102.04 5.03325 102.232C4.87325 102.424 4.72925 102.68 4.60125 103H3.88125V92.68ZM39.2569 92.728C39.2569 95 39.4329 96.808 39.7849 98.152C40.1369 99.496 40.6009 100.536 41.1769 101.272C41.7529 101.976 42.4249 102.44 43.1929 102.664C43.9609 102.888 44.7769 103 45.6409 103C46.5049 103 47.3209 102.888 48.0889 102.664C48.8569 102.44 49.5289 101.976 50.1049 101.272C50.6809 100.536 51.1449 99.496 51.4969 98.152C51.8489 96.808 52.0249 95 52.0249 92.728C52.0249 90.808 51.8969 89.208 51.6409 87.928C51.3849 86.616 50.9849 85.56 50.4409 84.76C49.9289 83.928 49.2729 83.336 48.4729 82.984C47.6729 82.632 46.7289 82.456 45.6409 82.456C44.5529 82.456 43.6089 82.632 42.8089 82.984C42.0089 83.336 41.3369 83.928 40.7929 84.76C40.2809 85.56 39.8969 86.616 39.6409 87.928C39.3849 89.208 39.2569 90.808 39.2569 92.728ZM34.4569 92.728C34.4569 91.16 34.7929 89.704 35.4649 88.36C36.1689 87.016 37.0489 85.864 38.1049 84.904C39.1929 83.912 40.3929 83.144 41.7049 82.6C43.0489 82.056 44.3609 81.784 45.6409 81.784C46.9209 81.784 48.2169 82.056 49.5289 82.6C50.8729 83.144 52.0729 83.912 53.1289 84.904C54.2169 85.864 55.0969 87.016 55.7689 88.36C56.4729 89.704 56.8249 91.16 56.8249 92.728C56.8249 94.232 56.5049 95.656 55.8649 97C55.2249 98.312 54.3769 99.464 53.3209 100.456C52.2969 101.448 51.1129 102.232 49.7689 102.808C48.4249 103.384 47.0489 103.672 45.6409 103.672C44.2329 103.672 42.8569 103.384 41.5129 102.808C40.1689 102.232 38.9689 101.448 37.9129 100.456C36.8889 99.464 36.0569 98.312 35.4169 97C34.7769 95.656 34.4569 94.232 34.4569 92.728ZM63.4328 71.224C63.4328 70.52 63.6728 69.928 64.1528 69.448C64.6648 68.936 65.2728 68.68 65.9768 68.68C66.6808 68.68 67.2728 68.936 67.7528 69.448C68.2648 69.928 68.5208 70.52 68.5208 71.224C68.5208 71.928 68.2648 72.536 67.7528 73.048C67.2728 73.528 66.6808 73.768 65.9768 73.768C65.2728 73.768 64.6648 73.528 64.1528 73.048C63.6728 72.536 63.4328 71.928 63.4328 71.224ZM60.3128 102.328H64.0088V83.08H60.3128V82.408H68.1368V102.328H71.8328V103H60.3128V102.328ZM74.4679 102.328H78.1639V83.08H74.4679V82.408H82.1959V87.256H82.2919C82.4199 86.776 82.6279 86.232 82.9159 85.624C83.2039 85.016 83.6039 84.44 84.1159 83.896C84.6279 83.32 85.2359 82.84 85.9399 82.456C86.6759 82.072 87.5559 81.88 88.5799 81.88C89.3159 81.88 89.9559 82.008 90.4999 82.264C91.0439 82.488 91.4919 82.792 91.8439 83.176C92.1959 83.528 92.4519 83.944 92.6119 84.424C92.7719 84.904 92.8519 85.384 92.8519 85.864C92.8519 86.92 92.6119 87.624 92.1319 87.976C91.6519 88.328 91.0919 88.504 90.4519 88.504C89.0439 88.504 88.3399 88.056 88.3399 87.16C88.3399 86.872 88.3719 86.648 88.4359 86.488C88.4999 86.296 88.5639 86.12 88.6279 85.96C88.7239 85.768 88.8039 85.56 88.8679 85.336C88.9319 85.112 88.9639 84.792 88.9639 84.376C88.9639 83.352 88.4039 82.84 87.2839 82.84C86.7719 82.84 86.2279 83.032 85.6519 83.416C85.0759 83.8 84.5319 84.36 84.0199 85.096C83.5399 85.832 83.1239 86.728 82.7719 87.784C82.4519 88.808 82.2919 89.992 82.2919 91.336V102.328H86.4679V103H74.4679V102.328ZM108.367 69.592C109.007 68.824 109.455 68.312 109.711 68.056C109.999 67.8 110.367 67.672 110.815 67.672C111.263 67.672 111.647 67.848 111.967 68.2C112.287 68.52 112.447 68.904 112.447 69.352C112.447 69.704 112.335 69.976 112.111 70.168C111.919 70.36 111.743 70.52 111.583 70.648L103.375 76.504H102.703L108.367 69.592ZM109.615 90.424C109.679 89.976 109.711 89.56 109.711 89.176C109.711 88.792 109.711 88.392 109.711 87.976C109.711 86.888 109.599 85.992 109.375 85.288C109.183 84.584 108.895 84.024 108.511 83.608C108.159 83.192 107.711 82.904 107.167 82.744C106.655 82.552 106.095 82.456 105.487 82.456C104.399 82.456 103.503 82.68 102.799 83.128C102.095 83.544 101.535 84.12 101.119 84.856C100.703 85.592 100.383 86.44 100.159 87.4C99.9668 88.36 99.8388 89.368 99.7747 90.424H109.615ZM99.7268 91.096C99.7268 91.416 99.7108 91.752 99.6788 92.104C99.6788 92.424 99.6788 92.84 99.6788 93.352C99.6788 94.408 99.7428 95.512 99.8708 96.664C99.9988 97.816 100.271 98.856 100.687 99.784C101.135 100.712 101.775 101.48 102.607 102.088C103.471 102.696 104.607 103 106.015 103C107.423 103 108.575 102.792 109.471 102.376C110.399 101.96 111.119 101.464 111.631 100.888C112.175 100.28 112.575 99.672 112.831 99.064C113.087 98.456 113.279 97.96 113.407 97.576L114.127 97.72C114.031 98.072 113.839 98.584 113.551 99.256C113.295 99.896 112.863 100.552 112.255 101.224C111.679 101.864 110.879 102.44 109.855 102.952C108.863 103.432 107.567 103.672 105.967 103.672C104.367 103.672 102.879 103.416 101.503 102.904C100.159 102.392 98.9908 101.656 97.9988 100.696C97.0068 99.736 96.2388 98.6 95.6948 97.288C95.1508 95.944 94.8788 94.456 94.8788 92.824C94.8788 91.416 95.1508 90.056 95.6948 88.744C96.2708 87.4 97.0388 86.216 97.9988 85.192C98.9908 84.168 100.143 83.352 101.455 82.744C102.767 82.104 104.175 81.784 105.679 81.784C106.575 81.784 107.535 81.944 108.559 82.264C109.583 82.584 110.527 83.112 111.391 83.848C112.287 84.552 113.023 85.496 113.599 86.68C114.207 87.864 114.511 89.336 114.511 91.096H99.7268ZM133.615 90.424C133.679 89.976 133.711 89.56 133.711 89.176C133.711 88.792 133.711 88.392 133.711 87.976C133.711 86.888 133.599 85.992 133.375 85.288C133.183 84.584 132.895 84.024 132.511 83.608C132.159 83.192 131.711 82.904 131.167 82.744C130.655 82.552 130.095 82.456 129.487 82.456C128.399 82.456 127.503 82.68 126.799 83.128C126.095 83.544 125.535 84.12 125.119 84.856C124.703 85.592 124.383 86.44 124.159 87.4C123.967 88.36 123.839 89.368 123.775 90.424H133.615ZM123.727 91.096C123.727 91.416 123.711 91.752 123.679 92.104C123.679 92.424 123.679 92.84 123.679 93.352C123.679 94.408 123.743 95.512 123.871 96.664C123.999 97.816 124.271 98.856 124.687 99.784C125.135 100.712 125.775 101.48 126.607 102.088C127.471 102.696 128.607 103 130.015 103C131.423 103 132.575 102.792 133.471 102.376C134.399 101.96 135.119 101.464 135.631 100.888C136.175 100.28 136.575 99.672 136.831 99.064C137.087 98.456 137.279 97.96 137.407 97.576L138.127 97.72C138.031 98.072 137.839 98.584 137.551 99.256C137.295 99.896 136.863 100.552 136.255 101.224C135.679 101.864 134.879 102.44 133.855 102.952C132.863 103.432 131.567 103.672 129.967 103.672C128.367 103.672 126.879 103.416 125.503 102.904C124.159 102.392 122.991 101.656 121.999 100.696C121.007 99.736 120.239 98.6 119.695 97.288C119.151 95.944 118.879 94.456 118.879 92.824C118.879 91.416 119.151 90.056 119.695 88.744C120.271 87.4 121.039 86.216 121.999 85.192C122.991 84.168 124.143 83.352 125.455 82.744C126.767 82.104 128.175 81.784 129.679 81.784C130.575 81.784 131.535 81.944 132.559 82.264C133.583 82.584 134.527 83.112 135.391 83.848C136.287 84.552 137.023 85.496 137.599 86.68C138.207 87.864 138.511 89.336 138.511 91.096H123.727Z" fill="#2C1810"/>
</svg>
