<svg width="324" height="62" viewBox="0 0 324 62" fill="none" xmlns="http://www.w3.org/2000/svg">
<path d="M2.85938 40V38.8984C3.82812 38.4141 4.36719 38.1172 4.47656 38.0078C4.58594 37.8828 4.67188 37.6719 4.73438 37.375C4.82812 36.9062 4.90625 35.9141 4.96875 34.3984C5.04688 32.8672 5.08594 31.7031 5.08594 30.9062V16.7734C5.08594 15.2422 5.03906 13.4453 4.94531 11.3828C4.88281 10.0859 4.77344 9.28125 4.61719 8.96875C4.50781 8.76562 4.34375 8.61719 4.125 8.52344C3.60938 8.30469 2.53906 8.1875 0.914062 8.17188V6.69531C1.42969 6.72656 2.07812 6.74219 2.85938 6.74219L7.73438 6.85938L16.3594 6.64844C18.6406 6.64844 20.3984 6.88281 21.6328 7.35156C22.8672 7.82031 23.8281 8.58594 24.5156 9.64844C25.2188 10.6953 25.5703 11.8672 25.5703 13.1641C25.5703 14.1953 25.3594 15.1641 24.9375 16.0703C24.5312 16.9766 23.9766 17.7656 23.2734 18.4375C22.5859 19.0938 21.8125 19.6328 20.9531 20.0547C20.1094 20.4609 19 20.8359 17.625 21.1797C19.4531 21.3516 20.9297 21.6094 22.0547 21.9531C23.1797 22.2812 24.1172 22.7812 24.8672 23.4531C25.6328 24.1094 26.2109 24.9141 26.6016 25.8672C26.9922 26.8203 27.1875 27.8828 27.1875 29.0547C27.1875 31.3672 26.4844 33.4062 25.0781 35.1719C23.6875 36.9219 21.8906 38.2188 19.6875 39.0625C18.0469 39.6875 16.1016 40 13.8516 40L7.05469 39.8125C6.32031 39.8125 4.92188 39.875 2.85938 40ZM9.53906 20.5234C10.4297 20.5703 11.2109 20.5938 11.8828 20.5938C13.8203 20.5938 15.3125 20.4453 16.3594 20.1484C17.4219 19.8516 18.2422 19.4609 18.8203 18.9766C19.3984 18.4922 19.875 17.8359 20.25 17.0078C20.6406 16.1797 20.8359 15.2109 20.8359 14.1016C20.8359 12.1484 20.2109 10.7422 18.9609 9.88281C17.7266 9.00781 15.9141 8.57031 13.5234 8.57031C12.1953 8.57031 10.9375 8.6875 9.75 8.92188C9.60938 10.2187 9.53906 12.2266 9.53906 14.9453V20.5234ZM9.60938 37.5859C10.7812 37.8672 12.0156 38.0078 13.3125 38.0078C15.375 38.0078 17.0391 37.6953 18.3047 37.0703C19.5703 36.4297 20.5391 35.4688 21.2109 34.1875C21.8984 32.9062 22.2422 31.4375 22.2422 29.7812C22.2422 28.1406 21.9219 26.7656 21.2812 25.6562C20.6406 24.5312 19.6797 23.7031 18.3984 23.1719C17.1328 22.625 15.0391 22.3516 12.1172 22.3516C11.4453 22.3516 10.5859 22.3828 9.53906 22.4453V31.3281C9.53906 32.1875 9.5625 34.2734 9.60938 37.5859ZM30.8203 40V38.6641L33.0234 38.6406C33.3672 38.625 33.625 38.5703 33.7969 38.4766C33.9844 38.3672 34.125 38.2344 34.2188 38.0781C34.3906 37.7656 34.4922 37.2109 34.5234 36.4141C34.5391 36.2109 34.5938 33.9688 34.6875 29.6875V19.9609C34.6875 17.3516 34.6406 14.6563 34.5469 11.875C34.4844 10 34.3984 8.95312 34.2891 8.73438C34.2109 8.57812 34.0859 8.46875 33.9141 8.40625C33.6797 8.29687 32.6016 8.24219 30.6797 8.24219V6.85938C34.2109 6.42187 36.6641 5.875 38.0391 5.21875C38.2422 5.125 38.3984 5.07812 38.5078 5.07812C38.6172 5.07812 38.7031 5.11719 38.7656 5.19531C38.8281 5.25781 38.8594 5.35156 38.8594 5.47656C38.8594 5.58594 38.8438 5.74219 38.8125 5.94531L38.7891 6.71875C38.7109 9.51562 38.6641 11.8984 38.6484 13.8672L38.6016 17.5234V29.6875C38.6797 33.75 38.7266 35.9453 38.7422 36.2734C38.7578 37.0547 38.8516 37.625 39.0234 37.9844C39.0859 38.125 39.1797 38.25 39.3047 38.3594C39.4297 38.4531 39.6172 38.5312 39.8672 38.5938C39.9766 38.6094 40.8438 38.6328 42.4688 38.6641V40C40.3438 39.875 38.4766 39.8125 36.8672 39.8125C35.3359 39.8125 33.3203 39.875 30.8203 40ZM45.1875 29.2188C45.1875 25.7188 46.2969 22.8672 48.5156 20.6641C50.75 18.4453 53.6094 17.3359 57.0938 17.3359C60.375 17.3359 63.0469 18.3672 65.1094 20.4297C67.1719 22.4922 68.2031 25.1562 68.2031 28.4219C68.2031 30.7031 67.6719 32.7891 66.6094 34.6797C65.5469 36.5703 64.0469 38.0547 62.1094 39.1328C60.1719 40.1953 58.0391 40.7266 55.7109 40.7266C53.8984 40.7266 52.3594 40.4219 51.0938 39.8125C49.8438 39.2031 48.8281 38.4375 48.0469 37.5156C47.2656 36.5938 46.6719 35.6484 46.2656 34.6797C45.5469 32.9766 45.1875 31.1562 45.1875 29.2188ZM49.6172 27.4844C49.6172 29.4062 49.9375 31.3594 50.5781 33.3438C51.2188 35.3281 52.1406 36.7812 53.3438 37.7031C54.5625 38.6094 55.8828 39.0625 57.3047 39.0625C59.1172 39.0625 60.6328 38.3438 61.8516 36.9062C63.0703 35.4688 63.6797 33.2578 63.6797 30.2734C63.6797 27.7891 63.3125 25.6484 62.5781 23.8516C61.8594 22.0391 60.9375 20.7656 59.8125 20.0312C58.6875 19.2812 57.4453 18.9062 56.0859 18.9062C54.1641 18.9062 52.6016 19.6016 51.3984 20.9922C50.2109 22.3828 49.6172 24.5469 49.6172 27.4844ZM71.3906 29.2188C71.3906 25.7188 72.5 22.8672 74.7188 20.6641C76.9531 18.4453 79.8125 17.3359 83.2969 17.3359C86.5781 17.3359 89.25 18.3672 91.3125 20.4297C93.375 22.4922 94.4062 25.1562 94.4062 28.4219C94.4062 30.7031 93.875 32.7891 92.8125 34.6797C91.75 36.5703 90.25 38.0547 88.3125 39.1328C86.375 40.1953 84.2422 40.7266 81.9141 40.7266C80.1016 40.7266 78.5625 40.4219 77.2969 39.8125C76.0469 39.2031 75.0312 38.4375 74.25 37.5156C73.4688 36.5938 72.875 35.6484 72.4688 34.6797C71.75 32.9766 71.3906 31.1562 71.3906 29.2188ZM75.8203 27.4844C75.8203 29.4062 76.1406 31.3594 76.7812 33.3438C77.4219 35.3281 78.3438 36.7812 79.5469 37.7031C80.7656 38.6094 82.0859 39.0625 83.5078 39.0625C85.3203 39.0625 86.8359 38.3438 88.0547 36.9062C89.2734 35.4688 89.8828 33.2578 89.8828 30.2734C89.8828 27.7891 89.5156 25.6484 88.7812 23.8516C88.0625 22.0391 87.1406 20.7656 86.0156 20.0312C84.8906 19.2812 83.6484 18.9062 82.2891 18.9062C80.3672 18.9062 78.8047 19.6016 77.6016 20.9922C76.4141 22.3828 75.8203 24.5469 75.8203 27.4844ZM96.9844 40V38.6641L99.2109 38.6406C99.5391 38.625 99.7891 38.5703 99.9609 38.4766C100.148 38.3672 100.289 38.2344 100.383 38.0781C100.555 37.7656 100.664 37.2109 100.711 36.4141C100.711 36.2109 100.758 33.9688 100.852 29.6875V26.8984C100.852 25.6484 100.828 24.3047 100.781 22.8672C100.734 21.9453 100.656 21.3984 100.547 21.2266C100.453 21.0547 100.281 20.9297 100.031 20.8516C99.7812 20.7578 98.7656 20.7188 96.9844 20.7344V19.3984C100.141 18.9609 102.445 18.3906 103.898 17.6875C104.211 17.5312 104.422 17.4531 104.531 17.4531C104.641 17.4531 104.727 17.4922 104.789 17.5703C104.852 17.6484 104.883 17.7656 104.883 17.9219C104.883 18.0312 104.875 18.1562 104.859 18.2969C104.797 19.0469 104.75 20.1641 104.719 21.6484L107.789 18.8359C108.18 18.4922 108.422 18.2969 108.516 18.25C108.875 18.0469 109.391 17.8594 110.062 17.6875C110.734 17.5156 111.438 17.4297 112.172 17.4297C113.672 17.4297 115.008 17.7969 116.18 18.5312C117.352 19.2656 118.25 20.3516 118.875 21.7891L121.453 19.3984C122.031 18.8672 122.43 18.5391 122.648 18.4141C123.055 18.1797 123.633 17.9609 124.383 17.7578C125.133 17.5547 125.875 17.4531 126.609 17.4531C128.391 17.4531 129.883 17.9297 131.086 18.8828C132.289 19.8203 133.062 20.8906 133.406 22.0938C133.625 22.8906 133.734 24.6094 133.734 27.25V29.6875L133.805 32.9453C133.852 34.8359 133.875 35.9453 133.875 36.2734C133.906 37.0547 134 37.625 134.156 37.9844C134.219 38.125 134.312 38.25 134.438 38.3594C134.578 38.4531 134.773 38.5312 135.023 38.5938C135.117 38.6094 135.977 38.6328 137.602 38.6641V40C135.633 39.9062 134.289 39.8594 133.57 39.8594C132.883 39.8594 131.5 39.9062 129.422 40L129.633 33.5312L129.703 31V28.9844C129.703 26.3594 129.57 24.5703 129.305 23.6172C129.039 22.6484 128.477 21.8672 127.617 21.2734C126.773 20.6797 125.789 20.3828 124.664 20.3828C123.367 20.3828 122.195 20.7578 121.148 21.5078C120.367 22.0859 119.852 22.7656 119.602 23.5469C119.352 24.3281 119.227 25.8516 119.227 28.1172V29.6875L119.297 32.9453C119.328 34.8359 119.352 35.9453 119.367 36.2734C119.398 37.0547 119.492 37.625 119.648 37.9844C119.711 38.125 119.805 38.25 119.93 38.3594C120.055 38.4531 120.242 38.5312 120.492 38.5938C120.602 38.6094 121.469 38.6328 123.094 38.6641V40C120.797 39.875 118.953 39.8125 117.562 39.8125C116.438 39.8125 114.391 39.875 111.422 40V38.6641L113.648 38.6406C113.992 38.625 114.25 38.5703 114.422 38.4766C114.609 38.3672 114.75 38.2344 114.844 38.0781C115.016 37.7656 115.117 37.2109 115.148 36.4141C115.164 36.2109 115.211 33.9688 115.289 29.6875V27.8594C115.289 25.8438 115.133 24.375 114.82 23.4531C114.508 22.5156 113.961 21.7734 113.18 21.2266C112.398 20.6641 111.461 20.3828 110.367 20.3828C109.43 20.3828 108.539 20.5859 107.695 20.9922C106.867 21.3828 106.227 21.875 105.773 22.4688C105.32 23.0625 105.047 23.6953 104.953 24.3672C104.797 25.4453 104.719 26.7422 104.719 28.2578V29.6875C104.812 33.75 104.859 35.9453 104.859 36.2734C104.891 37.0547 104.984 37.625 105.141 37.9844C105.203 38.125 105.297 38.25 105.422 38.3594C105.547 38.4531 105.742 38.5312 106.008 38.5938C106.102 38.6094 106.961 38.6328 108.586 38.6641V40C106.43 39.875 104.594 39.8125 103.078 39.8125C101.734 39.8125 99.7031 39.875 96.9844 40ZM186.422 37.375C185.281 38.1875 184.602 38.6797 184.383 38.8516C184.055 39.1016 183.375 39.6484 182.344 40.4922C181.781 40.6016 181.227 40.6562 180.68 40.6562C179.273 40.6562 178.094 40.4531 177.141 40.0469C175.469 39.4219 173.766 38.3984 172.031 36.9766C170.031 38.4453 168.344 39.4297 166.969 39.9297C165.594 40.4297 164.047 40.6797 162.328 40.6797C160.203 40.6797 158.406 40.25 156.938 39.3906C155.484 38.5156 154.383 37.3281 153.633 35.8281C152.898 34.3125 152.531 32.8047 152.531 31.3047C152.531 29.1172 153.148 27.2031 154.383 25.5625C155.617 23.9062 157.453 22.4062 159.891 21.0625C158.953 18.8125 158.484 16.7422 158.484 14.8516C158.484 13.9297 158.672 13.0312 159.047 12.1562C159.297 11.5312 159.508 11.1172 159.68 10.9141C159.867 10.6953 160.688 9.96094 162.141 8.71094C163.016 7.97656 163.703 7.49219 164.203 7.25781C164.859 6.94531 165.586 6.78906 166.383 6.78906C167.727 6.78906 168.773 7.17969 169.523 7.96094C170.289 8.74219 170.672 9.82813 170.672 11.2188C170.672 12.6875 170.133 14.2344 169.055 15.8594C167.992 17.4844 166.258 19.1094 163.852 20.7344C164.945 22.875 166.43 25.125 168.305 27.4844C170.195 29.8281 171.945 31.6484 173.555 32.9453C175.148 31.1484 175.945 29.25 175.945 27.25C175.945 26.0781 175.773 25.1641 175.43 24.5078C175.211 24.1016 174.883 23.8516 174.445 23.7578C174.164 23.6797 172.922 23.625 170.719 23.5938L170.508 23.2891L172.031 21.0625C173.062 21.2031 174.344 21.2734 175.875 21.2734C176.859 21.2734 178.781 21.2188 181.641 21.1094C182.438 21.0781 183.852 21.0625 185.883 21.0625C185.617 22.2188 185.438 23.3125 185.344 24.3438C183.188 23.9844 180.945 23.8281 178.617 23.875C178.805 24.5938 178.898 25.2734 178.898 25.9141C178.898 27.3359 178.586 28.6953 177.961 29.9922C177.352 31.2734 176.359 32.625 174.984 34.0469C177.828 36.0938 180.633 37.1172 183.398 37.1172C183.82 37.1172 184.18 37.0703 184.477 36.9766C184.789 36.8672 185.336 36.5938 186.117 36.1562L186.422 37.375ZM163.078 19.1406C164.5 18.125 165.586 17.0156 166.336 15.8125C167.102 14.5938 167.484 13.4766 167.484 12.4609C167.484 11.5703 167.227 10.8359 166.711 10.2578C166.195 9.66406 165.609 9.36719 164.953 9.36719C164.375 9.36719 163.844 9.50781 163.359 9.78906C162.875 10.0547 162.5 10.4922 162.234 11.1016C161.984 11.6953 161.859 12.4844 161.859 13.4688C161.859 14.9062 162.266 16.7969 163.078 19.1406ZM170.508 35.7812C168.414 33.5312 166.992 31.9531 166.242 31.0469C165.211 29.8125 164.266 28.5781 163.406 27.3438C162.562 26.1094 161.648 24.625 160.664 22.8906C159.242 23.9219 158.219 24.9688 157.594 26.0312C156.969 27.0781 156.656 28.2969 156.656 29.6875C156.656 31.0625 157.023 32.4219 157.758 33.7656C158.492 35.1094 159.477 36.1484 160.711 36.8828C161.961 37.6016 163.273 37.9609 164.648 37.9609C166.633 37.9609 168.586 37.2344 170.508 35.7812ZM233.109 38.1719C230.734 39.0312 228.789 39.6094 227.273 39.9062C224.602 40.4219 222.07 40.6797 219.68 40.6797C216.07 40.6797 212.859 39.9766 210.047 38.5703C207.234 37.1484 205.062 35.1641 203.531 32.6172C202 30.0703 201.234 27.0625 201.234 23.5938C201.234 20.5469 201.781 17.9609 202.875 15.8359C203.984 13.6953 205.359 11.9375 207 10.5625C208.656 9.1875 210.305 8.17188 211.945 7.51562C214.461 6.51562 217.57 6.01562 221.273 6.01562C223.008 6.03125 224.828 6.23437 226.734 6.625C228.656 7 230.82 7.52344 233.227 8.19531C232.992 8.99219 232.812 9.77344 232.688 10.5391C232.562 11.3047 232.398 12.875 232.195 15.25H230.766L230.648 12.5781C230.633 12.1719 230.617 11.8438 230.602 11.5938C230.586 11.3437 230.484 11.0234 230.297 10.6328C229.875 10.0703 229.203 9.5625 228.281 9.10938C226.688 8.5 225.367 8.09375 224.32 7.89062C223.289 7.6875 222.055 7.58594 220.617 7.58594C217.648 7.58594 215.078 8.21875 212.906 9.48438C210.734 10.75 209.086 12.5625 207.961 14.9219C206.852 17.2812 206.297 19.8594 206.297 22.6562C206.297 25.7344 206.945 28.5078 208.242 30.9766C209.555 33.4297 211.305 35.3125 213.492 36.625C215.695 37.9219 218.258 38.5703 221.18 38.5703C222.555 38.5703 223.883 38.4375 225.164 38.1719C226.461 37.9062 227.555 37.5391 228.445 37.0703C228.586 36.4453 228.656 35.4453 228.656 34.0703V31.4688C228.656 30.0938 228.586 29.2891 228.445 29.0547C228.305 28.8203 227.922 28.6484 227.297 28.5391C226.688 28.4141 225.273 28.3203 223.055 28.2578V26.8281L230.367 26.9922C231.789 26.9922 233.242 26.9375 234.727 26.8281L234.867 27.9531L233.109 28.9844C232.922 30.6562 232.828 32.1953 232.828 33.6016C232.828 35.0078 232.922 36.5312 233.109 38.1719ZM237.492 40V38.6641C239.258 38.6328 240.211 38.6016 240.352 38.5703C240.617 38.5234 240.812 38.4531 240.938 38.3594C241.078 38.25 241.188 38.1016 241.266 37.9141C241.422 37.5547 241.516 36.9922 241.547 36.2266C241.641 32.0547 241.688 29.875 241.688 29.6875V26.8984C241.688 25.6484 241.664 24.3047 241.617 22.8672C241.586 21.9453 241.516 21.3984 241.406 21.2266C241.312 21.0547 241.133 20.9297 240.867 20.8516C240.617 20.7578 239.602 20.7188 237.82 20.7344V19.3984C240.977 18.9609 243.281 18.3906 244.734 17.6875C245.047 17.5312 245.258 17.4531 245.367 17.4531C245.477 17.4531 245.562 17.4922 245.625 17.5703C245.688 17.6484 245.719 17.7656 245.719 17.9219C245.719 18.0312 245.711 18.1562 245.695 18.2969C245.617 19.25 245.57 20.7266 245.555 22.7266C246.258 21.9141 246.906 21.1094 247.5 20.3125C248.094 19.5156 248.523 19 248.789 18.7656C249.258 18.3594 249.797 18.0391 250.406 17.8047C251.016 17.5547 251.648 17.4297 252.305 17.4297C252.961 17.4297 253.609 17.5703 254.25 17.8516L254.391 18.1797C254.156 20.2578 254.023 22.0859 253.992 23.6641H252.938C252.578 22.9141 252.156 22.3672 251.672 22.0234C251.203 21.6797 250.609 21.5078 249.891 21.5078C248.688 21.5078 247.664 22.0078 246.82 23.0078C245.977 23.9922 245.555 25.4766 245.555 27.4609V29.875C245.555 30.9062 245.594 32.7891 245.672 35.5234C245.688 36.4922 245.727 37.1094 245.789 37.375C245.852 37.6406 245.93 37.8359 246.023 37.9609C246.133 38.0703 246.305 38.1641 246.539 38.2422C247.008 38.3828 248.273 38.5234 250.336 38.6641V40C247.586 39.8906 245.242 39.8359 243.305 39.8359C241.305 39.8359 239.367 39.8906 237.492 40ZM260.461 23.9453L259.219 23.6172C259.234 23.2578 259.242 22.7656 259.242 22.1406C259.242 21.4844 259.234 20.9609 259.219 20.5703C261.203 19.2734 262.828 18.3984 264.094 17.9453C265.062 17.6172 266.148 17.4531 267.352 17.4531C269.133 17.4531 270.633 17.7891 271.852 18.4609C273.07 19.1328 273.977 20.0938 274.57 21.3438C274.977 22.2188 275.18 23.4141 275.18 24.9297L275.086 29.2188V36.2031C275.086 36.9531 275.148 37.4922 275.273 37.8203C275.367 38.0547 275.516 38.2266 275.719 38.3359C275.875 38.4297 276.203 38.4922 276.703 38.5234L278.227 38.6641V40C276.945 39.8906 275.82 39.8359 274.852 39.8359C273.914 39.8359 272.664 39.8906 271.102 40L271.219 35.875C268.031 38.2812 266.141 39.6406 265.547 39.9531C264.953 40.25 264.203 40.3984 263.297 40.3984C261.406 40.3984 259.93 39.8984 258.867 38.8984C257.82 37.8828 257.297 36.5391 257.297 34.8672C257.297 33.7891 257.477 32.8047 257.836 31.9141C258.211 31.0234 258.656 30.3203 259.172 29.8047C259.688 29.2734 260.211 28.8828 260.742 28.6328C261.648 28.2109 263.117 27.7578 265.148 27.2734C267.195 26.7891 269.219 26.4297 271.219 26.1953C271.234 24.7109 271.055 23.5547 270.68 22.7266C270.305 21.8984 269.672 21.2188 268.781 20.6875C267.891 20.1562 266.805 19.8906 265.523 19.8906C264.602 19.8906 263.789 20.0156 263.086 20.2656C262.398 20.5156 261.977 20.7266 261.82 20.8984L261.398 21.7422C260.977 22.6797 260.664 23.4141 260.461 23.9453ZM271.219 27.625C269.188 27.9688 267.453 28.3516 266.016 28.7734C264.578 29.1953 263.562 29.6328 262.969 30.0859C262.609 30.3516 262.297 30.75 262.031 31.2812C261.625 32.0625 261.422 32.9297 261.422 33.8828C261.422 35.0391 261.742 35.9453 262.383 36.6016C263.023 37.2422 263.914 37.5625 265.055 37.5625C266.102 37.5625 267.133 37.2656 268.148 36.6719C269.18 36.0625 270.203 35.1562 271.219 33.9531V27.625ZM299.719 37.3047L298.781 38.875C297.703 39.4531 296.633 39.875 295.57 40.1406C294.523 40.4062 293.336 40.5391 292.008 40.5391C288.727 40.5391 286.109 39.5547 284.156 37.5859C282.219 35.6016 281.25 32.8828 281.25 29.4297C281.25 27.6016 281.508 26.0156 282.023 24.6719C282.555 23.3125 283.203 22.2656 283.969 21.5312C284.484 21.0156 285.461 20.3516 286.898 19.5391C288.352 18.7109 289.367 18.1797 289.945 17.9453C291.008 17.4922 292.281 17.2656 293.766 17.2656C295.172 17.2656 296.438 17.4141 297.562 17.7109C298.281 17.8984 299 18.2109 299.719 18.6484C299.531 19.8516 299.398 20.7656 299.32 21.3906C299.242 22 299.141 23.1172 299.016 24.7422H297.68C297.586 23.2266 297.492 22.2812 297.398 21.9062C297.336 21.6719 297.195 21.4609 296.977 21.2734C296.414 20.8359 295.688 20.4609 294.797 20.1484C293.922 19.8203 292.961 19.6562 291.914 19.6562C290.602 19.6562 289.461 19.9297 288.492 20.4766C287.539 21.0078 286.797 21.8594 286.266 23.0312C285.734 24.2031 285.469 25.6562 285.469 27.3906C285.469 29.5156 285.844 31.4375 286.594 33.1562C287.344 34.875 288.359 36.1328 289.641 36.9297C290.938 37.7109 292.383 38.1016 293.977 38.1016C294.773 38.1016 295.547 38.0078 296.297 37.8203C297.062 37.6172 298.039 37.2422 299.227 36.6953L299.719 37.3047ZM321.422 36.3672L320.672 38.0547C319.594 38.7266 318.805 39.1719 318.305 39.3906C317.57 39.7188 316.727 39.9922 315.773 40.2109C314.836 40.4453 313.844 40.5625 312.797 40.5625C310.734 40.5625 308.867 40.1328 307.195 39.2734C305.523 38.4141 304.219 37.1328 303.281 35.4297C302.359 33.7109 301.898 31.7031 301.898 29.4062C301.898 27.6094 302.141 25.9922 302.625 24.5547C303.125 23.1016 303.688 22.0312 304.312 21.3438C304.766 20.8438 305.469 20.2734 306.422 19.6328C307.375 18.9766 308.32 18.4609 309.258 18.0859C310.492 17.5703 311.828 17.3125 313.266 17.3125C315.016 17.3125 316.594 17.7109 318 18.5078C319.422 19.3047 320.461 20.3906 321.117 21.7656C321.773 23.1406 322.102 24.6953 322.102 26.4297C322.102 26.8672 322.07 27.3984 322.008 28.0234C320.883 28.2422 319.875 28.3828 318.984 28.4453C317.297 28.5703 315.609 28.6328 313.922 28.6328H306.398C306.43 30.8672 306.812 32.6797 307.547 34.0703C308.297 35.4453 309.32 36.4609 310.617 37.1172C311.93 37.7734 313.289 38.1016 314.695 38.1016C315.648 38.1016 316.594 37.9531 317.531 37.6562C318.484 37.3438 319.656 36.7812 321.047 35.9688L321.422 36.3672ZM306.398 26.7812C306.836 26.8281 307.664 26.875 308.883 26.9219C311.211 27 312.812 27.0391 313.688 27.0391C315.766 27.0391 317.133 27 317.789 26.9219C317.805 26.5469 317.812 26.2578 317.812 26.0547C317.812 23.5859 317.312 21.7734 316.312 20.6172C315.312 19.4609 313.977 18.8828 312.305 18.8828C310.539 18.8828 309.117 19.5156 308.039 20.7812C306.961 22.0469 306.414 24.0469 306.398 26.7812Z" fill="#654321"/>
<path d="M102 58C142 61.3333 182 61.3333 222 58" stroke="#C17E61" stroke-width="2"/>
</svg>
