<svg width="206" height="50" viewBox="0 0 206 50" fill="none" xmlns="http://www.w3.org/2000/svg">
<path d="M2 25H17L27 5L37 45L47 25H62" stroke="#FF4B75" stroke-width="3" stroke-linecap="round"/>
<path d="M87 10C87 0 77 0 72 0C62 0 62 10 62 10C62 10 62 0 52 0C47 0 37 0 37 10C37 20 47 25 62 35C77 25 87 20 87 10Z" fill="#FF4B75"/>
<path d="M60.4844 33V10.0938H65.1094V19.1094H74.1719V10.0938H78.7969V33H74.1719V22.9844H65.1094V33H60.4844ZM93.1719 27.7188L97.5469 28.4531C96.9844 30.0573 96.0938 31.2812 94.875 32.125C93.6667 32.9583 92.151 33.375 90.3281 33.375C87.4427 33.375 85.3073 32.4323 83.9219 30.5469C82.8281 29.0365 82.2812 27.1302 82.2812 24.8281C82.2812 22.0781 83 19.9271 84.4375 18.375C85.875 16.8125 87.6927 16.0312 89.8906 16.0312C92.3594 16.0312 94.3073 16.849 95.7344 18.4844C97.1615 20.1094 97.8438 22.6042 97.7812 25.9688H86.7812C86.8125 27.2708 87.1667 28.2865 87.8438 29.0156C88.5208 29.7344 89.3646 30.0938 90.375 30.0938C91.0625 30.0938 91.6406 29.9062 92.1094 29.5312C92.5781 29.1562 92.9323 28.5521 93.1719 27.7188ZM93.4219 23.2812C93.3906 22.0104 93.0625 21.0469 92.4375 20.3906C91.8125 19.724 91.0521 19.3906 90.1562 19.3906C89.1979 19.3906 88.4062 19.7396 87.7812 20.4375C87.1562 21.1354 86.849 22.0833 86.8594 23.2812H93.4219ZM104.656 21.4688L100.672 20.75C101.12 19.1458 101.891 17.9583 102.984 17.1875C104.078 16.4167 105.703 16.0312 107.859 16.0312C109.818 16.0312 111.276 16.2656 112.234 16.7344C113.193 17.1927 113.865 17.7812 114.25 18.5C114.646 19.2083 114.844 20.5156 114.844 22.4219L114.797 27.5469C114.797 29.0052 114.865 30.0833 115 30.7812C115.146 31.4688 115.411 32.2083 115.797 33H111.453C111.339 32.7083 111.198 32.276 111.031 31.7031C110.958 31.4427 110.906 31.2708 110.875 31.1875C110.125 31.9167 109.323 32.4635 108.469 32.8281C107.615 33.1927 106.703 33.375 105.734 33.375C104.026 33.375 102.677 32.9115 101.688 31.9844C100.708 31.0573 100.219 29.8854 100.219 28.4688C100.219 27.5312 100.443 26.6979 100.891 25.9688C101.339 25.2292 101.964 24.6667 102.766 24.2812C103.578 23.8854 104.745 23.5417 106.266 23.25C108.318 22.8646 109.74 22.5052 110.531 22.1719V21.7344C110.531 20.8906 110.323 20.2917 109.906 19.9375C109.49 19.5729 108.703 19.3906 107.547 19.3906C106.766 19.3906 106.156 19.5469 105.719 19.8594C105.281 20.1615 104.927 20.6979 104.656 21.4688ZM110.531 25.0312C109.969 25.2188 109.078 25.4427 107.859 25.7031C106.641 25.9635 105.844 26.2188 105.469 26.4688C104.896 26.875 104.609 27.3906 104.609 28.0156C104.609 28.6302 104.839 29.1615 105.297 29.6094C105.755 30.0573 106.339 30.2812 107.047 30.2812C107.839 30.2812 108.594 30.0208 109.312 29.5C109.844 29.1042 110.193 28.6198 110.359 28.0469C110.474 27.6719 110.531 26.9583 110.531 25.9062V25.0312ZM123.391 33H119V16.4062H123.078V18.7656C123.776 17.651 124.401 16.9167 124.953 16.5625C125.516 16.2083 126.151 16.0312 126.859 16.0312C127.859 16.0312 128.823 16.3073 129.75 16.8594L128.391 20.6875C127.651 20.2083 126.964 19.9688 126.328 19.9688C125.714 19.9688 125.193 20.1406 124.766 20.4844C124.339 20.8177 124 21.4271 123.75 22.3125C123.51 23.1979 123.391 25.0521 123.391 27.875V33ZM139.266 16.4062V19.9062H136.266V26.5938C136.266 27.9479 136.292 28.7396 136.344 28.9688C136.406 29.1875 136.536 29.3698 136.734 29.5156C136.943 29.6615 137.193 29.7344 137.484 29.7344C137.891 29.7344 138.479 29.5938 139.25 29.3125L139.625 32.7188C138.604 33.1562 137.448 33.375 136.156 33.375C135.365 33.375 134.651 33.2448 134.016 32.9844C133.38 32.7135 132.911 32.3698 132.609 31.9531C132.318 31.526 132.115 30.9531 132 30.2344C131.906 29.724 131.859 28.6927 131.859 27.1406V19.9062H129.844V16.4062H131.859V13.1094L136.266 10.5469V16.4062H139.266ZM142.125 33V10.0938H146.516V18.3438C147.87 16.8021 149.474 16.0312 151.328 16.0312C153.349 16.0312 155.021 16.7656 156.344 18.2344C157.667 19.6927 158.328 21.7917 158.328 24.5312C158.328 27.3646 157.651 29.5469 156.297 31.0781C154.953 32.6094 153.318 33.375 151.391 33.375C150.443 33.375 149.505 33.1406 148.578 32.6719C147.661 32.1927 146.87 31.4896 146.203 30.5625V33H142.125ZM146.484 24.3438C146.484 26.0625 146.755 27.3333 147.297 28.1562C148.057 29.3229 149.068 29.9062 150.328 29.9062C151.297 29.9062 152.12 29.4948 152.797 28.6719C153.484 27.8385 153.828 26.5312 153.828 24.75C153.828 22.8542 153.484 21.4896 152.797 20.6562C152.109 19.8125 151.229 19.3906 150.156 19.3906C149.104 19.3906 148.229 19.8021 147.531 20.625C146.833 21.4375 146.484 22.6771 146.484 24.3438ZM171.484 27.7188L175.859 28.4531C175.297 30.0573 174.406 31.2812 173.188 32.125C171.979 32.9583 170.464 33.375 168.641 33.375C165.755 33.375 163.62 32.4323 162.234 30.5469C161.141 29.0365 160.594 27.1302 160.594 24.8281C160.594 22.0781 161.312 19.9271 162.75 18.375C164.188 16.8125 166.005 16.0312 168.203 16.0312C170.672 16.0312 172.62 16.849 174.047 18.4844C175.474 20.1094 176.156 22.6042 176.094 25.9688H165.094C165.125 27.2708 165.479 28.2865 166.156 29.0156C166.833 29.7344 167.677 30.0938 168.688 30.0938C169.375 30.0938 169.953 29.9062 170.422 29.5312C170.891 29.1562 171.245 28.5521 171.484 27.7188ZM171.734 23.2812C171.703 22.0104 171.375 21.0469 170.75 20.3906C170.125 19.724 169.365 19.3906 168.469 19.3906C167.51 19.3906 166.719 19.7396 166.094 20.4375C165.469 21.1354 165.161 22.0833 165.172 23.2812H171.734ZM182.969 21.4688L178.984 20.75C179.432 19.1458 180.203 17.9583 181.297 17.1875C182.391 16.4167 184.016 16.0312 186.172 16.0312C188.13 16.0312 189.589 16.2656 190.547 16.7344C191.505 17.1927 192.177 17.7812 192.562 18.5C192.958 19.2083 193.156 20.5156 193.156 22.4219L193.109 27.5469C193.109 29.0052 193.177 30.0833 193.312 30.7812C193.458 31.4688 193.724 32.2083 194.109 33H189.766C189.651 32.7083 189.51 32.276 189.344 31.7031C189.271 31.4427 189.219 31.2708 189.188 31.1875C188.438 31.9167 187.635 32.4635 186.781 32.8281C185.927 33.1927 185.016 33.375 184.047 33.375C182.339 33.375 180.99 32.9115 180 31.9844C179.021 31.0573 178.531 29.8854 178.531 28.4688C178.531 27.5312 178.755 26.6979 179.203 25.9688C179.651 25.2292 180.276 24.6667 181.078 24.2812C181.891 23.8854 183.057 23.5417 184.578 23.25C186.63 22.8646 188.052 22.5052 188.844 22.1719V21.7344C188.844 20.8906 188.635 20.2917 188.219 19.9375C187.802 19.5729 187.016 19.3906 185.859 19.3906C185.078 19.3906 184.469 19.5469 184.031 19.8594C183.594 20.1615 183.24 20.6979 182.969 21.4688ZM188.844 25.0312C188.281 25.2188 187.391 25.4427 186.172 25.7031C184.953 25.9635 184.156 26.2188 183.781 26.4688C183.208 26.875 182.922 27.3906 182.922 28.0156C182.922 28.6302 183.151 29.1615 183.609 29.6094C184.068 30.0573 184.651 30.2812 185.359 30.2812C186.151 30.2812 186.906 30.0208 187.625 29.5C188.156 29.1042 188.505 28.6198 188.672 28.0469C188.786 27.6719 188.844 26.9583 188.844 25.9062V25.0312ZM205.109 16.4062V19.9062H202.109V26.5938C202.109 27.9479 202.135 28.7396 202.188 28.9688C202.25 29.1875 202.38 29.3698 202.578 29.5156C202.786 29.6615 203.036 29.7344 203.328 29.7344C203.734 29.7344 204.323 29.5938 205.094 29.3125L205.469 32.7188C204.448 33.1562 203.292 33.375 202 33.375C201.208 33.375 200.495 33.2448 199.859 32.9844C199.224 32.7135 198.755 32.3698 198.453 31.9531C198.161 31.526 197.958 30.9531 197.844 30.2344C197.75 29.724 197.703 28.6927 197.703 27.1406V19.9062H195.688V16.4062H197.703V13.1094L202.109 10.5469V16.4062H205.109Z" fill="#333333"/>
</svg>
