<svg width="190" height="94" viewBox="0 0 190 94" fill="none" xmlns="http://www.w3.org/2000/svg">
<path d="M31 28C32.8768 25.8719 35.185 24.1675 37.7712 23C40.3575 21.8325 43.1625 21.2288 46 21.2288C48.8375 21.2288 51.6425 21.8325 54.2288 23C56.815 24.1675 59.1232 25.8719 61 28C61.7451 30.6282 61.9439 33.3811 61.5841 36.089C61.2243 38.7969 60.3136 41.4025 58.9081 43.7449C57.5027 46.0873 55.6323 48.117 53.4122 49.7088C51.1922 51.3005 48.6696 52.4206 46 53L31 68L16 53C13.3304 52.4206 10.8078 51.3005 8.58777 49.7088C6.36773 48.117 4.4973 46.0873 3.09184 43.7449C1.68638 41.4025 0.775684 38.7969 0.415912 36.089C0.0561396 33.3811 0.254921 30.6282 0.999995 28C2.87683 25.8719 5.18502 24.1675 7.77124 23C10.3575 21.8325 13.1625 21.2288 16 21.2288C18.8375 21.2288 21.6425 21.8325 24.2288 23C26.815 24.1675 29.1232 25.8719 31 28Z" fill="#E91E63"/>
<path d="M26 23C36 13 46 13 56 23" stroke="#4CAF50" stroke-width="4"/>
<path d="M52.7344 32.8203L59.4844 32.1641C59.8906 34.4297 60.7109 36.0938 61.9453 37.1562C63.1953 38.2188 64.875 38.75 66.9844 38.75C69.2188 38.75 70.8984 38.2812 72.0234 37.3438C73.1641 36.3906 73.7344 35.2812 73.7344 34.0156C73.7344 33.2031 73.4922 32.5156 73.0078 31.9531C72.5391 31.375 71.7109 30.875 70.5234 30.4531C69.7109 30.1719 67.8594 29.6719 64.9688 28.9531C61.25 28.0312 58.6406 26.8984 57.1406 25.5547C55.0312 23.6641 53.9766 21.3594 53.9766 18.6406C53.9766 16.8906 54.4688 15.2578 55.4531 13.7422C56.4531 12.2109 57.8828 11.0469 59.7422 10.25C61.6172 9.45312 63.875 9.05469 66.5156 9.05469C70.8281 9.05469 74.0703 10 76.2422 11.8906C78.4297 13.7813 79.5781 16.3047 79.6875 19.4609L72.75 19.7656C72.4531 18 71.8125 16.7344 70.8281 15.9688C69.8594 15.1875 68.3984 14.7969 66.4453 14.7969C64.4297 14.7969 62.8516 15.2109 61.7109 16.0391C60.9766 16.5703 60.6094 17.2812 60.6094 18.1719C60.6094 18.9844 60.9531 19.6797 61.6406 20.2578C62.5156 20.9922 64.6406 21.7578 68.0156 22.5547C71.3906 23.3516 73.8828 24.1797 75.4922 25.0391C77.1172 25.8828 78.3828 27.0469 79.2891 28.5312C80.2109 30 80.6719 31.8203 80.6719 33.9922C80.6719 35.9609 80.125 37.8047 79.0312 39.5234C77.9375 41.2422 76.3906 42.5234 74.3906 43.3672C72.3906 44.1953 69.8984 44.6094 66.9141 44.6094C62.5703 44.6094 59.2344 43.6094 56.9062 41.6094C54.5781 39.5938 53.1875 36.6641 52.7344 32.8203ZM91.1016 44L83.2266 19.1094H89.625L94.2891 35.4219L98.5781 19.1094H104.93L109.078 35.4219L113.836 19.1094H120.328L112.336 44H106.008L101.719 27.9922L97.5 44H91.1016ZM138.234 36.0781L144.797 37.1797C143.953 39.5859 142.617 41.4219 140.789 42.6875C138.977 43.9375 136.703 44.5625 133.969 44.5625C129.641 44.5625 126.438 43.1484 124.359 40.3203C122.719 38.0547 121.898 35.1953 121.898 31.7422C121.898 27.6172 122.977 24.3906 125.133 22.0625C127.289 19.7188 130.016 18.5469 133.312 18.5469C137.016 18.5469 139.938 19.7734 142.078 22.2266C144.219 24.6641 145.242 28.4062 145.148 33.4531H128.648C128.695 35.4062 129.227 36.9297 130.242 38.0234C131.258 39.1016 132.523 39.6406 134.039 39.6406C135.07 39.6406 135.938 39.3594 136.641 38.7969C137.344 38.2344 137.875 37.3281 138.234 36.0781ZM138.609 29.4219C138.562 27.5156 138.07 26.0703 137.133 25.0859C136.195 24.0859 135.055 23.5859 133.711 23.5859C132.273 23.5859 131.086 24.1094 130.148 25.1562C129.211 26.2031 128.75 27.625 128.766 29.4219H138.609ZM164.953 36.0781L171.516 37.1797C170.672 39.5859 169.336 41.4219 167.508 42.6875C165.695 43.9375 163.422 44.5625 160.688 44.5625C156.359 44.5625 153.156 43.1484 151.078 40.3203C149.438 38.0547 148.617 35.1953 148.617 31.7422C148.617 27.6172 149.695 24.3906 151.852 22.0625C154.008 19.7188 156.734 18.5469 160.031 18.5469C163.734 18.5469 166.656 19.7734 168.797 22.2266C170.938 24.6641 171.961 28.4062 171.867 33.4531H155.367C155.414 35.4062 155.945 36.9297 156.961 38.0234C157.977 39.1016 159.242 39.6406 160.758 39.6406C161.789 39.6406 162.656 39.3594 163.359 38.7969C164.062 38.2344 164.594 37.3281 164.953 36.0781ZM165.328 29.4219C165.281 27.5156 164.789 26.0703 163.852 25.0859C162.914 24.0859 161.773 23.5859 160.43 23.5859C158.992 23.5859 157.805 24.1094 156.867 25.1562C155.93 26.2031 155.469 27.625 155.484 29.4219H165.328ZM188.672 19.1094V24.3594H184.172V34.3906C184.172 36.4219 184.211 37.6094 184.289 37.9531C184.383 38.2812 184.578 38.5547 184.875 38.7734C185.188 38.9922 185.562 39.1016 186 39.1016C186.609 39.1016 187.492 38.8906 188.648 38.4688L189.211 43.5781C187.68 44.2344 185.945 44.5625 184.008 44.5625C182.82 44.5625 181.75 44.3672 180.797 43.9766C179.844 43.5703 179.141 43.0547 178.688 42.4297C178.25 41.7891 177.945 40.9297 177.773 39.8516C177.633 39.0859 177.562 37.5391 177.562 35.2109V24.3594H174.539V19.1094H177.562V14.1641L184.172 10.3203V19.1094H188.672Z" fill="#333333"/>
<path d="M57.8252 85L64.1211 54.9355H73.4316C75.127 54.9355 76.3848 55.0039 77.2051 55.1406C78.5449 55.373 79.6729 55.7832 80.5889 56.3711C81.5186 56.9453 82.2363 57.7383 82.7422 58.75C83.248 59.748 83.501 60.8555 83.501 62.0723C83.501 63.7266 83.043 65.1826 82.127 66.4404C81.2246 67.6982 79.8369 68.6553 77.9639 69.3115C79.5908 69.8447 80.8076 70.6514 81.6143 71.7314C82.4209 72.7979 82.8242 74.0488 82.8242 75.4844C82.8242 77.1387 82.3457 78.7246 81.3887 80.2422C80.4453 81.7598 79.1875 82.9355 77.6152 83.7695C76.0566 84.5898 74.3135 85 72.3857 85H57.8252ZM65.4541 67.7734H71.5449C74.457 67.7734 76.5488 67.3086 77.8203 66.3789C79.1055 65.4492 79.748 64.0957 79.748 62.3184C79.748 61.4707 79.5498 60.7393 79.1533 60.124C78.7568 59.5088 78.2236 59.0645 77.5537 58.791C76.8975 58.5039 75.6533 58.3604 73.8213 58.3604H67.4229L65.4541 67.7734ZM62.5625 81.5957H69.4121C71.2305 81.5957 72.4541 81.5342 73.083 81.4111C74.3545 81.1924 75.3867 80.8232 76.1797 80.3037C76.9727 79.7705 77.5947 79.0732 78.0459 78.2119C78.4971 77.3506 78.7227 76.4482 78.7227 75.5049C78.7227 74.0967 78.2783 73.0303 77.3896 72.3057C76.5146 71.5674 74.8398 71.1982 72.3652 71.1982H64.7363L62.5625 81.5957ZM101.404 77.5967L105.014 77.9658C104.494 79.7568 103.298 81.459 101.425 83.0723C99.5654 84.6855 97.3438 85.4922 94.7598 85.4922C93.1465 85.4922 91.6631 85.123 90.3096 84.3848C88.9697 83.6328 87.9443 82.5459 87.2334 81.124C86.5361 79.7021 86.1875 78.082 86.1875 76.2637C86.1875 73.8848 86.7344 71.5811 87.8281 69.3525C88.9355 67.1104 90.3643 65.4492 92.1143 64.3691C93.8643 63.2754 95.7578 62.7285 97.7949 62.7285C100.393 62.7285 102.464 63.5352 104.009 65.1484C105.567 66.7617 106.347 68.9629 106.347 71.752C106.347 72.8184 106.251 73.9121 106.06 75.0332H90.0225C89.9678 75.457 89.9404 75.8398 89.9404 76.1816C89.9404 78.2188 90.4053 79.7773 91.335 80.8574C92.2783 81.9238 93.4268 82.457 94.7803 82.457C96.0518 82.457 97.3027 82.04 98.5332 81.2061C99.7637 80.3721 100.721 79.1689 101.404 77.5967ZM90.6172 72.2031H102.84C102.854 71.8203 102.86 71.5469 102.86 71.3828C102.86 69.5234 102.396 68.1016 101.466 67.1172C100.536 66.1191 99.3398 65.6201 97.877 65.6201C96.291 65.6201 94.8418 66.167 93.5293 67.2607C92.2305 68.3545 91.2598 70.002 90.6172 72.2031ZM108.787 85L113.34 63.2207H116.621L115.698 67.6709C116.819 65.9893 117.913 64.7451 118.979 63.9385C120.06 63.1318 121.16 62.7285 122.281 62.7285C123.02 62.7285 123.929 62.9951 125.009 63.5283L123.491 66.9736C122.849 66.5088 122.145 66.2764 121.379 66.2764C120.08 66.2764 118.747 67.001 117.38 68.4502C116.013 69.8994 114.939 72.5039 114.16 76.2637L112.314 85H108.787ZM122.773 85L127.326 63.2207H130.607L129.685 67.6709C130.806 65.9893 131.899 64.7451 132.966 63.9385C134.046 63.1318 135.146 62.7285 136.268 62.7285C137.006 62.7285 137.915 62.9951 138.995 63.5283L137.478 66.9736C136.835 66.5088 136.131 66.2764 135.365 66.2764C134.066 66.2764 132.733 67.001 131.366 68.4502C129.999 69.8994 128.926 72.5039 128.146 76.2637L126.301 85H122.773ZM135.365 93.4082L135.591 89.9219C136.356 90.1406 137.102 90.25 137.826 90.25C138.578 90.25 139.187 90.0791 139.651 89.7373C140.253 89.2861 140.909 88.4385 141.62 87.1943L142.81 85.0615L139.18 63.2207H142.83L144.471 74.2334C144.799 76.4072 145.079 78.5811 145.312 80.7549L155.053 63.2207H158.929L145.045 87.8916C143.705 90.2979 142.516 91.8906 141.477 92.6699C140.438 93.4492 139.241 93.8389 137.888 93.8389C137.026 93.8389 136.186 93.6953 135.365 93.4082Z" fill="#E91E63"/>
</svg>
