<svg width="194" height="149" viewBox="0 0 194 149" fill="none" xmlns="http://www.w3.org/2000/svg">
<path d="M32 57C32 97 192 97 192 57L172 17C172 -3 52 -3 52 17L32 57Z" fill="#F4D03F" stroke="#E67E22" stroke-width="4"/>
<path d="M52 27C92 40.3333 132 40.3333 172 27" stroke="#27AE60" stroke-width="6"/>
<path d="M62 37C95.3333 50.3333 128.667 50.3333 162 37" stroke="#E74C3C" stroke-width="4"/>
<path d="M2 27L22 47L7 62L27 87" stroke="#E67E22" stroke-width="4"/>
<path d="M45.9531 130V107.094H57.75C59.9375 107.094 61.6094 107.281 62.7656 107.656C63.9219 108.031 64.8542 108.729 65.5625 109.75C66.2708 110.76 66.625 111.995 66.625 113.453C66.625 114.724 66.3542 115.823 65.8125 116.75C65.2708 117.667 64.526 118.411 63.5781 118.984C62.974 119.349 62.1458 119.651 61.0938 119.891C61.9375 120.172 62.5521 120.453 62.9375 120.734C63.1979 120.922 63.5729 121.323 64.0625 121.938C64.5625 122.552 64.8958 123.026 65.0625 123.359L68.4844 130H60.4844L56.7031 123C56.224 122.094 55.7969 121.505 55.4219 121.234C54.9115 120.88 54.3333 120.703 53.6875 120.703H53.0625V130H45.9531ZM53.0625 116.375H56.0469C56.3698 116.375 56.9948 116.271 57.9219 116.062C58.3906 115.969 58.7708 115.729 59.0625 115.344C59.3646 114.958 59.5156 114.516 59.5156 114.016C59.5156 113.276 59.2812 112.708 58.8125 112.312C58.3438 111.917 57.4635 111.719 56.1719 111.719H53.0625V116.375ZM84.8594 126.219H76.7969L75.6875 130H68.4531L77.0625 107.094H84.7812L93.3906 130H85.9844L84.8594 126.219ZM83.375 121.266L80.8438 113.031L78.3281 121.266H83.375ZM95.6406 107.094H107.406C109.969 107.094 111.885 107.703 113.156 108.922C114.438 110.141 115.078 111.875 115.078 114.125C115.078 116.438 114.38 118.245 112.984 119.547C111.599 120.849 109.479 121.5 106.625 121.5H102.75V130H95.6406V107.094ZM102.75 116.859H104.484C105.849 116.859 106.807 116.625 107.359 116.156C107.911 115.677 108.188 115.068 108.188 114.328C108.188 113.609 107.948 113 107.469 112.5C106.99 112 106.089 111.75 104.766 111.75H102.75V116.859ZM119.078 107.094H126.172V130H119.078V107.094ZM131.359 107.094H141.875C143.948 107.094 145.62 107.375 146.891 107.938C148.172 108.5 149.229 109.307 150.062 110.359C150.896 111.411 151.5 112.635 151.875 114.031C152.25 115.427 152.438 116.906 152.438 118.469C152.438 120.917 152.156 122.818 151.594 124.172C151.042 125.516 150.271 126.646 149.281 127.562C148.292 128.469 147.229 129.073 146.094 129.375C144.542 129.792 143.135 130 141.875 130H131.359V107.094ZM138.438 112.281V124.797H140.172C141.651 124.797 142.703 124.635 143.328 124.312C143.953 123.979 144.443 123.406 144.797 122.594C145.151 121.771 145.328 120.443 145.328 118.609C145.328 116.182 144.932 114.521 144.141 113.625C143.349 112.729 142.036 112.281 140.203 112.281H138.438ZM155.281 118.562C155.281 114.823 156.323 111.911 158.406 109.828C160.49 107.745 163.391 106.703 167.109 106.703C170.922 106.703 173.859 107.729 175.922 109.781C177.984 111.823 179.016 114.688 179.016 118.375C179.016 121.052 178.562 123.25 177.656 124.969C176.76 126.677 175.458 128.01 173.75 128.969C172.052 129.917 169.932 130.391 167.391 130.391C164.807 130.391 162.667 129.979 160.969 129.156C159.281 128.333 157.911 127.031 156.859 125.25C155.807 123.469 155.281 121.24 155.281 118.562ZM162.359 118.594C162.359 120.906 162.786 122.568 163.641 123.578C164.505 124.589 165.677 125.094 167.156 125.094C168.677 125.094 169.854 124.599 170.688 123.609C171.521 122.62 171.938 120.844 171.938 118.281C171.938 116.125 171.5 114.552 170.625 113.562C169.76 112.562 168.583 112.062 167.094 112.062C165.667 112.062 164.521 112.568 163.656 113.578C162.792 114.589 162.359 116.26 162.359 118.594Z" fill="#D35400"/>
<path d="M89.1719 146V135.898H85.3984V134.547H94.4766V135.898H90.6875V146H89.1719ZM93.5938 146L97.9922 134.547H99.625L104.312 146H102.586L101.25 142.531H96.4609L95.2031 146H93.5938ZM96.8984 141.297H100.781L99.5859 138.125C99.2214 137.161 98.9505 136.37 98.7734 135.75C98.6276 136.484 98.4219 137.214 98.1562 137.938L96.8984 141.297ZM113.695 141.984L115.211 142.367C114.893 143.612 114.32 144.562 113.492 145.219C112.669 145.87 111.661 146.195 110.469 146.195C109.234 146.195 108.229 145.945 107.453 145.445C106.682 144.94 106.094 144.211 105.688 143.258C105.286 142.305 105.086 141.281 105.086 140.188C105.086 138.995 105.312 137.956 105.766 137.07C106.224 136.18 106.872 135.505 107.711 135.047C108.555 134.583 109.482 134.352 110.492 134.352C111.638 134.352 112.602 134.643 113.383 135.227C114.164 135.81 114.708 136.63 115.016 137.688L113.523 138.039C113.258 137.206 112.872 136.599 112.367 136.219C111.862 135.839 111.227 135.648 110.461 135.648C109.581 135.648 108.844 135.859 108.25 136.281C107.661 136.703 107.247 137.271 107.008 137.984C106.768 138.693 106.648 139.424 106.648 140.18C106.648 141.154 106.789 142.005 107.07 142.734C107.357 143.458 107.799 144 108.398 144.359C108.997 144.719 109.646 144.898 110.344 144.898C111.193 144.898 111.911 144.654 112.5 144.164C113.089 143.674 113.487 142.948 113.695 141.984ZM116.625 140.422C116.625 138.521 117.135 137.034 118.156 135.961C119.177 134.883 120.495 134.344 122.109 134.344C123.167 134.344 124.12 134.596 124.969 135.102C125.818 135.607 126.464 136.312 126.906 137.219C127.354 138.12 127.578 139.143 127.578 140.289C127.578 141.451 127.344 142.49 126.875 143.406C126.406 144.323 125.742 145.018 124.883 145.492C124.023 145.961 123.096 146.195 122.102 146.195C121.023 146.195 120.06 145.935 119.211 145.414C118.362 144.893 117.719 144.182 117.281 143.281C116.844 142.38 116.625 141.427 116.625 140.422ZM118.188 140.445C118.188 141.826 118.557 142.914 119.297 143.711C120.042 144.503 120.974 144.898 122.094 144.898C123.234 144.898 124.172 144.497 124.906 143.695C125.646 142.893 126.016 141.755 126.016 140.281C126.016 139.349 125.857 138.536 125.539 137.844C125.227 137.146 124.766 136.607 124.156 136.227C123.552 135.841 122.872 135.648 122.117 135.648C121.044 135.648 120.12 136.018 119.344 136.758C118.573 137.492 118.188 138.721 118.188 140.445ZM129.023 142.32L130.453 142.195C130.521 142.768 130.677 143.24 130.922 143.609C131.172 143.974 131.557 144.271 132.078 144.5C132.599 144.724 133.185 144.836 133.836 144.836C134.414 144.836 134.924 144.75 135.367 144.578C135.81 144.406 136.138 144.172 136.352 143.875C136.57 143.573 136.68 143.245 136.68 142.891C136.68 142.531 136.576 142.219 136.367 141.953C136.159 141.682 135.815 141.456 135.336 141.273C135.029 141.154 134.349 140.969 133.297 140.719C132.245 140.464 131.508 140.224 131.086 140C130.539 139.714 130.13 139.359 129.859 138.938C129.594 138.51 129.461 138.034 129.461 137.508C129.461 136.93 129.625 136.391 129.953 135.891C130.281 135.385 130.76 135.003 131.391 134.742C132.021 134.482 132.721 134.352 133.492 134.352C134.341 134.352 135.089 134.49 135.734 134.766C136.385 135.036 136.885 135.438 137.234 135.969C137.583 136.5 137.771 137.102 137.797 137.773L136.344 137.883C136.266 137.159 136 136.612 135.547 136.242C135.099 135.872 134.435 135.688 133.555 135.688C132.638 135.688 131.969 135.857 131.547 136.195C131.13 136.529 130.922 136.932 130.922 137.406C130.922 137.818 131.07 138.156 131.367 138.422C131.659 138.688 132.419 138.961 133.648 139.242C134.883 139.518 135.729 139.76 136.188 139.969C136.854 140.276 137.346 140.667 137.664 141.141C137.982 141.609 138.141 142.151 138.141 142.766C138.141 143.375 137.966 143.951 137.617 144.492C137.268 145.029 136.766 145.448 136.109 145.75C135.458 146.047 134.724 146.195 133.906 146.195C132.87 146.195 132 146.044 131.297 145.742C130.599 145.44 130.049 144.987 129.648 144.383C129.253 143.773 129.044 143.086 129.023 142.32Z" fill="#E67E22"/>
</svg>
