<svg width="302" height="80" viewBox="0 0 302 80" fill="none" xmlns="http://www.w3.org/2000/svg">
<path d="M40 80C62.0914 80 80 62.0914 80 40C80 17.9086 62.0914 0 40 0C17.9086 0 0 17.9086 0 40C0 62.0914 17.9086 80 40 80Z" fill="#FF6B6B"/>
<path d="M80 80C102.091 80 120 62.0914 120 40C120 17.9086 102.091 0 80 0C57.9086 0 40 17.9086 40 40C40 62.0914 57.9086 80 80 80Z" fill="#4ECDC4"/>
<path d="M50 10V70M35 15V30M65 15V30" stroke="white" stroke-width="6" stroke-linecap="round"/>
<path d="M134.398 56V21.6406H144.781L151.016 45.0781L157.18 21.6406H167.586V56H161.141V28.9531L154.32 56H147.641L140.844 28.9531V56H134.398ZM174.43 27.7344V21.6406H181.016V27.7344H174.43ZM174.43 56V31.1094H181.016V56H174.43ZM184.625 56L193.602 43.1797L185 31.1094H193.039L197.445 37.9531L202.086 31.1094H209.82L201.383 42.8984L210.594 56H202.508L197.445 48.2891L192.336 56H184.625Z" fill="#333333"/>
<path d="M214.578 21.6406H228.312C231.031 21.6406 233.055 21.7578 234.383 21.9922C235.727 22.2109 236.922 22.6797 237.969 23.3984C239.031 24.1172 239.914 25.0781 240.617 26.2812C241.32 27.4688 241.672 28.8047 241.672 30.2891C241.672 31.8984 241.234 33.375 240.359 34.7188C239.5 36.0625 238.328 37.0703 236.844 37.7422C238.938 38.3516 240.547 39.3906 241.672 40.8594C242.797 42.3281 243.359 44.0547 243.359 46.0391C243.359 47.6016 242.992 49.125 242.258 50.6094C241.539 52.0781 240.547 53.2578 239.281 54.1484C238.031 55.0234 236.484 55.5625 234.641 55.7656C233.484 55.8906 230.695 55.9688 226.273 56H214.578V21.6406ZM221.516 27.3594V35.3047H226.062C228.766 35.3047 230.445 35.2656 231.102 35.1875C232.289 35.0469 233.219 34.6406 233.891 33.9688C234.578 33.2812 234.922 32.3828 234.922 31.2734C234.922 30.2109 234.625 29.3516 234.031 28.6953C233.453 28.0234 232.586 27.6172 231.43 27.4766C230.742 27.3984 228.766 27.3594 225.5 27.3594H221.516ZM221.516 41.0234V50.2109H227.938C230.438 50.2109 232.023 50.1406 232.695 50C233.727 49.8125 234.562 49.3594 235.203 48.6406C235.859 47.9062 236.188 46.9297 236.188 45.7109C236.188 44.6797 235.938 43.8047 235.438 43.0859C234.938 42.3672 234.211 41.8438 233.258 41.5156C232.32 41.1875 230.273 41.0234 227.117 41.0234H221.516ZM249.195 27.7344V21.6406H255.781V27.7344H249.195ZM249.195 56V31.1094H255.781V56H249.195ZM273.969 31.1094V36.3594H269.469V46.3906C269.469 48.4219 269.508 49.6094 269.586 49.9531C269.68 50.2812 269.875 50.5547 270.172 50.7734C270.484 50.9922 270.859 51.1016 271.297 51.1016C271.906 51.1016 272.789 50.8906 273.945 50.4688L274.508 55.5781C272.977 56.2344 271.242 56.5625 269.305 56.5625C268.117 56.5625 267.047 56.3672 266.094 55.9766C265.141 55.5703 264.438 55.0547 263.984 54.4297C263.547 53.7891 263.242 52.9297 263.07 51.8516C262.93 51.0859 262.859 49.5391 262.859 47.2109V36.3594H259.836V31.1094H262.859V26.1641L269.469 22.3203V31.1094H273.969ZM292.953 48.0781L299.516 49.1797C298.672 51.5859 297.336 53.4219 295.508 54.6875C293.695 55.9375 291.422 56.5625 288.688 56.5625C284.359 56.5625 281.156 55.1484 279.078 52.3203C277.438 50.0547 276.617 47.1953 276.617 43.7422C276.617 39.6172 277.695 36.3906 279.852 34.0625C282.008 31.7188 284.734 30.5469 288.031 30.5469C291.734 30.5469 294.656 31.7734 296.797 34.2266C298.938 36.6641 299.961 40.4062 299.867 45.4531H283.367C283.414 47.4062 283.945 48.9297 284.961 50.0234C285.977 51.1016 287.242 51.6406 288.758 51.6406C289.789 51.6406 290.656 51.3594 291.359 50.7969C292.062 50.2344 292.594 49.3281 292.953 48.0781ZM293.328 41.4219C293.281 39.5156 292.789 38.0703 291.852 37.0859C290.914 36.0859 289.773 35.5859 288.43 35.5859C286.992 35.5859 285.805 36.1094 284.867 37.1562C283.93 38.2031 283.469 39.625 283.484 41.4219H293.328Z" fill="#FF6B6B"/>
</svg>
