<svg width="298" height="120" viewBox="0 0 298 120" fill="none" xmlns="http://www.w3.org/2000/svg">
<path d="M60 120C93.1371 120 120 93.1371 120 60C120 26.8629 93.1371 0 60 0C26.8629 0 0 26.8629 0 60C0 93.1371 26.8629 120 60 120Z" fill="#4CAF50"/>
<path d="M45 20V70V20ZM35 20V50V20ZM55 20V50V20Z" fill="black"/>
<path d="M45 20V70M35 20V50M55 20V50" stroke="white" stroke-width="4" stroke-linecap="round"/>
<path d="M45 50C45 70 45 70 45 90V50Z" fill="black"/>
<path d="M45 50C45 70 45 70 45 90" stroke="white" stroke-width="4" stroke-linecap="round"/>
<path d="M70 45C85 30 100 30 110 45C95 60 80 60 70 45Z" fill="white"/>
<path d="M140.562 46.1094H144.219V44.2344C144.219 42.1406 144.438 40.5781 144.875 39.5469C145.328 38.5156 146.148 37.6797 147.336 37.0391C148.539 36.3828 150.055 36.0547 151.883 36.0547C153.758 36.0547 155.594 36.3359 157.391 36.8984L156.5 41.4922C155.453 41.2422 154.445 41.1172 153.477 41.1172C152.523 41.1172 151.836 41.3438 151.414 41.7969C151.008 42.2344 150.805 43.0859 150.805 44.3516V46.1094H155.727V51.2891H150.805V71H144.219V51.2891H140.562V46.1094ZM165.734 71H159.148V46.1094H165.266V49.6484C166.312 47.9766 167.25 46.875 168.078 46.3438C168.922 45.8125 169.875 45.5469 170.938 45.5469C172.438 45.5469 173.883 45.9609 175.273 46.7891L173.234 52.5312C172.125 51.8125 171.094 51.4531 170.141 51.4531C169.219 51.4531 168.438 51.7109 167.797 52.2266C167.156 52.7266 166.648 53.6406 166.273 54.9688C165.914 56.2969 165.734 59.0781 165.734 63.3125V71ZM192.547 63.0781L199.109 64.1797C198.266 66.5859 196.93 68.4219 195.102 69.6875C193.289 70.9375 191.016 71.5625 188.281 71.5625C183.953 71.5625 180.75 70.1484 178.672 67.3203C177.031 65.0547 176.211 62.1953 176.211 58.7422C176.211 54.6172 177.289 51.3906 179.445 49.0625C181.602 46.7188 184.328 45.5469 187.625 45.5469C191.328 45.5469 194.25 46.7734 196.391 49.2266C198.531 51.6641 199.555 55.4062 199.461 60.4531H182.961C183.008 62.4062 183.539 63.9297 184.555 65.0234C185.57 66.1016 186.836 66.6406 188.352 66.6406C189.383 66.6406 190.25 66.3594 190.953 65.7969C191.656 65.2344 192.188 64.3281 192.547 63.0781ZM192.922 56.4219C192.875 54.5156 192.383 53.0703 191.445 52.0859C190.508 51.0859 189.367 50.5859 188.023 50.5859C186.586 50.5859 185.398 51.1094 184.461 52.1562C183.523 53.2031 183.062 54.625 183.078 56.4219H192.922ZM202.531 63.8984L209.141 62.8906C209.422 64.1719 209.992 65.1484 210.852 65.8203C211.711 66.4766 212.914 66.8047 214.461 66.8047C216.164 66.8047 217.445 66.4922 218.305 65.8672C218.883 65.4297 219.172 64.8438 219.172 64.1094C219.172 63.6094 219.016 63.1953 218.703 62.8672C218.375 62.5547 217.641 62.2656 216.5 62C211.188 60.8281 207.82 59.7578 206.398 58.7891C204.43 57.4453 203.445 55.5781 203.445 53.1875C203.445 51.0312 204.297 49.2188 206 47.75C207.703 46.2812 210.344 45.5469 213.922 45.5469C217.328 45.5469 219.859 46.1016 221.516 47.2109C223.172 48.3203 224.312 49.9609 224.938 52.1328L218.727 53.2812C218.461 52.3125 217.953 51.5703 217.203 51.0547C216.469 50.5391 215.414 50.2812 214.039 50.2812C212.305 50.2812 211.062 50.5234 210.312 51.0078C209.812 51.3516 209.562 51.7969 209.562 52.3438C209.562 52.8125 209.781 53.2109 210.219 53.5391C210.812 53.9766 212.859 54.5938 216.359 55.3906C219.875 56.1875 222.328 57.1641 223.719 58.3203C225.094 59.4922 225.781 61.125 225.781 63.2188C225.781 65.5 224.828 67.4609 222.922 69.1016C221.016 70.7422 218.195 71.5625 214.461 71.5625C211.07 71.5625 208.383 70.875 206.398 69.5C204.43 68.125 203.141 66.2578 202.531 63.8984ZM238.133 36.6406V49.2734C240.258 46.7891 242.797 45.5469 245.75 45.5469C247.266 45.5469 248.633 45.8281 249.852 46.3906C251.07 46.9531 251.984 47.6719 252.594 48.5469C253.219 49.4219 253.641 50.3906 253.859 51.4531C254.094 52.5156 254.211 54.1641 254.211 56.3984V71H247.625V57.8516C247.625 55.2422 247.5 53.5859 247.25 52.8828C247 52.1797 246.555 51.625 245.914 51.2188C245.289 50.7969 244.5 50.5859 243.547 50.5859C242.453 50.5859 241.477 50.8516 240.617 51.3828C239.758 51.9141 239.125 52.7188 238.719 53.7969C238.328 54.8594 238.133 56.4375 238.133 58.5312V71H231.547V36.6406H238.133ZM260.914 71V36.6406H267.5V71H260.914ZM271.156 46.1094H278.164L284.117 63.7812L289.93 46.1094H296.75L287.961 70.0625L286.391 74.3984C285.812 75.8516 285.258 76.9609 284.727 77.7266C284.211 78.4922 283.609 79.1094 282.922 79.5781C282.25 80.0625 281.414 80.4375 280.414 80.7031C279.43 80.9688 278.312 81.1016 277.062 81.1016C275.797 81.1016 274.555 80.9688 273.336 80.7031L272.75 75.5469C273.781 75.75 274.711 75.8516 275.539 75.8516C277.07 75.8516 278.203 75.3984 278.938 74.4922C279.672 73.6016 280.234 72.4609 280.625 71.0703L271.156 46.1094Z" fill="#333333"/>
<path d="M141.391 99V91.7969H140.148V90.7031H141.391V89.8203C141.391 89.263 141.44 88.849 141.539 88.5781C141.674 88.2135 141.911 87.9193 142.25 87.6953C142.594 87.4661 143.073 87.3516 143.688 87.3516C144.083 87.3516 144.521 87.3984 145 87.4922L144.789 88.7188C144.497 88.6667 144.221 88.6406 143.961 88.6406C143.534 88.6406 143.232 88.7318 143.055 88.9141C142.878 89.0964 142.789 89.4375 142.789 89.9375V90.7031H144.406V91.7969H142.789V99H141.391ZM145.492 99V90.7031H146.758V91.9609C147.081 91.3724 147.378 90.9844 147.648 90.7969C147.924 90.6094 148.227 90.5156 148.555 90.5156C149.029 90.5156 149.51 90.6667 150 90.9688L149.516 92.2734C149.172 92.0703 148.828 91.9688 148.484 91.9688C148.177 91.9688 147.901 92.0625 147.656 92.25C147.411 92.4323 147.237 92.6875 147.133 93.0156C146.977 93.5156 146.898 94.0625 146.898 94.6562V99H145.492ZM156.516 96.3281L157.969 96.5078C157.74 97.3568 157.315 98.0156 156.695 98.4844C156.076 98.9531 155.284 99.1875 154.32 99.1875C153.107 99.1875 152.143 98.8151 151.43 98.0703C150.721 97.3203 150.367 96.2708 150.367 94.9219C150.367 93.526 150.727 92.4427 151.445 91.6719C152.164 90.901 153.096 90.5156 154.242 90.5156C155.352 90.5156 156.258 90.8932 156.961 91.6484C157.664 92.4036 158.016 93.4661 158.016 94.8359C158.016 94.9193 158.013 95.0443 158.008 95.2109H151.82C151.872 96.1224 152.13 96.8203 152.594 97.3047C153.057 97.7891 153.635 98.0312 154.328 98.0312C154.844 98.0312 155.284 97.8958 155.648 97.625C156.013 97.3542 156.302 96.9219 156.516 96.3281ZM151.898 94.0547H156.531C156.469 93.3568 156.292 92.8333 156 92.4844C155.552 91.9427 154.971 91.6719 154.258 91.6719C153.612 91.6719 153.068 91.888 152.625 92.3203C152.188 92.7526 151.945 93.3307 151.898 94.0547ZM159.18 96.5234L160.57 96.3047C160.648 96.862 160.865 97.2891 161.219 97.5859C161.578 97.8828 162.078 98.0312 162.719 98.0312C163.365 98.0312 163.844 97.901 164.156 97.6406C164.469 97.375 164.625 97.0651 164.625 96.7109C164.625 96.3932 164.487 96.1432 164.211 95.9609C164.018 95.8359 163.539 95.6771 162.773 95.4844C161.742 95.224 161.026 95 160.625 94.8125C160.229 94.6198 159.927 94.3568 159.719 94.0234C159.516 93.6849 159.414 93.3125 159.414 92.9062C159.414 92.5365 159.497 92.1953 159.664 91.8828C159.836 91.5651 160.068 91.3021 160.359 91.0938C160.578 90.9323 160.875 90.7969 161.25 90.6875C161.63 90.5729 162.036 90.5156 162.469 90.5156C163.12 90.5156 163.69 90.6094 164.18 90.7969C164.674 90.9844 165.039 91.2396 165.273 91.5625C165.508 91.8802 165.669 92.3073 165.758 92.8438L164.383 93.0312C164.32 92.6042 164.138 92.2708 163.836 92.0312C163.539 91.7917 163.117 91.6719 162.57 91.6719C161.924 91.6719 161.464 91.7786 161.188 91.9922C160.911 92.2057 160.773 92.4557 160.773 92.7422C160.773 92.9245 160.831 93.0885 160.945 93.2344C161.06 93.3854 161.24 93.5104 161.484 93.6094C161.625 93.6615 162.039 93.7812 162.727 93.9688C163.721 94.2344 164.414 94.4531 164.805 94.625C165.201 94.7917 165.51 95.0365 165.734 95.3594C165.958 95.6823 166.07 96.0833 166.07 96.5625C166.07 97.0312 165.932 97.474 165.656 97.8906C165.385 98.3021 164.992 98.6224 164.477 98.8516C163.961 99.0755 163.378 99.1875 162.727 99.1875C161.648 99.1875 160.826 98.9635 160.258 98.5156C159.695 98.0677 159.336 97.4036 159.18 96.5234ZM167.742 99V87.5469H169.148V91.6562C169.805 90.8958 170.633 90.5156 171.633 90.5156C172.247 90.5156 172.781 90.638 173.234 90.8828C173.688 91.1224 174.01 91.4557 174.203 91.8828C174.401 92.3099 174.5 92.9297 174.5 93.7422V99H173.094V93.7422C173.094 93.0391 172.94 92.5286 172.633 92.2109C172.331 91.888 171.901 91.7266 171.344 91.7266C170.927 91.7266 170.534 91.8359 170.164 92.0547C169.799 92.2682 169.539 92.5599 169.383 92.9297C169.227 93.2995 169.148 93.8099 169.148 94.4609V99H167.742ZM187.648 97.6484C187.185 98.1641 186.68 98.5521 186.133 98.8125C185.586 99.0677 184.995 99.1953 184.359 99.1953C183.188 99.1953 182.258 98.7995 181.57 98.0078C181.013 97.362 180.734 96.6406 180.734 95.8438C180.734 95.1354 180.961 94.4974 181.414 93.9297C181.872 93.3568 182.555 92.8542 183.461 92.4219C182.945 91.8281 182.602 91.3464 182.43 90.9766C182.258 90.6068 182.172 90.25 182.172 89.9062C182.172 89.2188 182.44 88.6224 182.977 88.1172C183.518 87.6068 184.198 87.3516 185.016 87.3516C185.797 87.3516 186.435 87.5911 186.93 88.0703C187.43 88.5495 187.68 89.125 187.68 89.7969C187.68 90.8854 186.958 91.8151 185.516 92.5859L187.57 95.2031C187.805 94.7448 187.987 94.2135 188.117 93.6094L189.578 93.9219C189.328 94.9219 188.99 95.7448 188.562 96.3906C189.089 97.0885 189.685 97.6745 190.352 98.1484L189.406 99.2656C188.839 98.901 188.253 98.362 187.648 97.6484ZM184.789 91.6797C185.398 91.3203 185.792 91.0052 185.969 90.7344C186.151 90.4635 186.242 90.1641 186.242 89.8359C186.242 89.4453 186.117 89.1276 185.867 88.8828C185.622 88.6328 185.315 88.5078 184.945 88.5078C184.565 88.5078 184.247 88.6302 183.992 88.875C183.742 89.1198 183.617 89.4193 183.617 89.7734C183.617 89.9505 183.661 90.138 183.75 90.3359C183.844 90.5286 183.982 90.7344 184.164 90.9531L184.789 91.6797ZM186.766 96.5391L184.188 93.3438C183.427 93.7969 182.914 94.2188 182.648 94.6094C182.383 94.9948 182.25 95.3776 182.25 95.7578C182.25 96.2214 182.435 96.7031 182.805 97.2031C183.174 97.7031 183.698 97.9531 184.375 97.9531C184.797 97.9531 185.232 97.8229 185.68 97.5625C186.133 97.2969 186.495 96.9557 186.766 96.5391ZM196.562 99V91.7969H195.32V90.7031H196.562V89.8203C196.562 89.263 196.612 88.849 196.711 88.5781C196.846 88.2135 197.083 87.9193 197.422 87.6953C197.766 87.4661 198.245 87.3516 198.859 87.3516C199.255 87.3516 199.693 87.3984 200.172 87.4922L199.961 88.7188C199.669 88.6667 199.393 88.6406 199.133 88.6406C198.706 88.6406 198.404 88.7318 198.227 88.9141C198.049 89.0964 197.961 89.4375 197.961 89.9375V90.7031H199.578V91.7969H197.961V99H196.562ZM206.094 97.9766C205.573 98.4193 205.07 98.7318 204.586 98.9141C204.107 99.0964 203.591 99.1875 203.039 99.1875C202.128 99.1875 201.427 98.9661 200.938 98.5234C200.448 98.0755 200.203 97.5052 200.203 96.8125C200.203 96.4062 200.294 96.0365 200.477 95.7031C200.664 95.3646 200.906 95.0938 201.203 94.8906C201.505 94.6875 201.844 94.5339 202.219 94.4297C202.495 94.3568 202.911 94.2865 203.469 94.2188C204.604 94.0833 205.44 93.9219 205.977 93.7344C205.982 93.5417 205.984 93.4193 205.984 93.3672C205.984 92.7943 205.852 92.3906 205.586 92.1562C205.227 91.8385 204.693 91.6797 203.984 91.6797C203.323 91.6797 202.833 91.7969 202.516 92.0312C202.203 92.2604 201.971 92.6693 201.82 93.2578L200.445 93.0703C200.57 92.4818 200.776 92.0078 201.062 91.6484C201.349 91.2839 201.763 91.0052 202.305 90.8125C202.846 90.6146 203.474 90.5156 204.188 90.5156C204.896 90.5156 205.471 90.599 205.914 90.7656C206.357 90.9323 206.682 91.1432 206.891 91.3984C207.099 91.6484 207.245 91.9661 207.328 92.3516C207.375 92.5911 207.398 93.0234 207.398 93.6484V95.5234C207.398 96.8307 207.427 97.6589 207.484 98.0078C207.547 98.3516 207.667 98.6823 207.844 99H206.375C206.229 98.7083 206.135 98.3672 206.094 97.9766ZM205.977 94.8359C205.466 95.0443 204.701 95.2214 203.68 95.3672C203.102 95.4505 202.693 95.5443 202.453 95.6484C202.214 95.7526 202.029 95.9062 201.898 96.1094C201.768 96.3073 201.703 96.5286 201.703 96.7734C201.703 97.1484 201.844 97.4609 202.125 97.7109C202.411 97.9609 202.828 98.0859 203.375 98.0859C203.917 98.0859 204.398 97.9688 204.82 97.7344C205.242 97.4948 205.552 97.1693 205.75 96.7578C205.901 96.4401 205.977 95.9714 205.977 95.3516V94.8359ZM209.023 96.5234L210.414 96.3047C210.492 96.862 210.708 97.2891 211.062 97.5859C211.422 97.8828 211.922 98.0312 212.562 98.0312C213.208 98.0312 213.688 97.901 214 97.6406C214.312 97.375 214.469 97.0651 214.469 96.7109C214.469 96.3932 214.331 96.1432 214.055 95.9609C213.862 95.8359 213.383 95.6771 212.617 95.4844C211.586 95.224 210.87 95 210.469 94.8125C210.073 94.6198 209.771 94.3568 209.562 94.0234C209.359 93.6849 209.258 93.3125 209.258 92.9062C209.258 92.5365 209.341 92.1953 209.508 91.8828C209.68 91.5651 209.911 91.3021 210.203 91.0938C210.422 90.9323 210.719 90.7969 211.094 90.6875C211.474 90.5729 211.88 90.5156 212.312 90.5156C212.964 90.5156 213.534 90.6094 214.023 90.7969C214.518 90.9844 214.883 91.2396 215.117 91.5625C215.352 91.8802 215.513 92.3073 215.602 92.8438L214.227 93.0312C214.164 92.6042 213.982 92.2708 213.68 92.0312C213.383 91.7917 212.961 91.6719 212.414 91.6719C211.768 91.6719 211.307 91.7786 211.031 91.9922C210.755 92.2057 210.617 92.4557 210.617 92.7422C210.617 92.9245 210.674 93.0885 210.789 93.2344C210.904 93.3854 211.083 93.5104 211.328 93.6094C211.469 93.6615 211.883 93.7812 212.57 93.9688C213.565 94.2344 214.258 94.4531 214.648 94.625C215.044 94.7917 215.354 95.0365 215.578 95.3594C215.802 95.6823 215.914 96.0833 215.914 96.5625C215.914 97.0312 215.776 97.474 215.5 97.8906C215.229 98.3021 214.836 98.6224 214.32 98.8516C213.805 99.0755 213.221 99.1875 212.57 99.1875C211.492 99.1875 210.669 98.9635 210.102 98.5156C209.539 98.0677 209.18 97.4036 209.023 96.5234ZM220.656 97.7422L220.859 98.9844C220.464 99.0677 220.109 99.1094 219.797 99.1094C219.286 99.1094 218.891 99.0286 218.609 98.8672C218.328 98.7057 218.13 98.4948 218.016 98.2344C217.901 97.9688 217.844 97.4141 217.844 96.5703V91.7969H216.812V90.7031H217.844V88.6484L219.242 87.8047V90.7031H220.656V91.7969H219.242V96.6484C219.242 97.0495 219.266 97.3073 219.312 97.4219C219.365 97.5365 219.445 97.6276 219.555 97.6953C219.669 97.763 219.831 97.7969 220.039 97.7969C220.195 97.7969 220.401 97.7786 220.656 97.7422Z" fill="#666666"/>
</svg>
