<svg width="172" height="68" viewBox="0 0 172 68" fill="none" xmlns="http://www.w3.org/2000/svg">
<path d="M20 8H30V68H20V8Z" fill="#4A6741"/>
<path d="M10 8H40C40 -2 10 -2 10 8Z" fill="#4A6741"/>
<path d="M15 18H25V28H15V18Z" fill="#4A6741"/>
<path d="M5 13C-1.66667 19.6667 -1.66667 26.3333 5 33C11.6667 26.3333 11.6667 19.6667 5 13Z" fill="#4A6741"/>
<path d="M45 13C38.3333 19.6667 38.3333 26.3333 45 33C51.6667 26.3333 51.6667 19.6667 45 13Z" fill="#4A6741"/>
<path d="M5 28C-1.66667 34.6667 -1.66667 41.3333 5 48C11.6667 41.3333 11.6667 34.6667 5 28Z" fill="#4A6741"/>
<path d="M45 28C38.3333 34.6667 38.3333 41.3333 45 48C51.6667 41.3333 51.6667 34.6667 45 28Z" fill="#4A6741"/>
<path d="M84.4844 40H75.2812V38.8906C75.5312 38.8698 75.8906 38.8385 76.3594 38.7969C76.8385 38.7552 77.1667 38.6927 77.3438 38.6094C77.6562 38.4844 77.8854 38.2969 78.0312 38.0469C78.1771 37.7865 78.25 37.4531 78.25 37.0469V29.1562H67.8281V36.875C67.8281 37.2396 67.8854 37.5469 68 37.7969C68.125 38.0469 68.3646 38.2656 68.7188 38.4531C68.8958 38.5469 69.2083 38.6406 69.6562 38.7344C70.1146 38.8281 70.474 38.8802 70.7344 38.8906V40H61.5312V38.8906C61.7812 38.8698 62.1406 38.8385 62.6094 38.7969C63.0885 38.7552 63.4167 38.6927 63.5938 38.6094C63.9062 38.4844 64.1354 38.2969 64.2812 38.0469C64.4271 37.7865 64.5 37.4531 64.5 37.0469V21.0469C64.5 20.7135 64.4323 20.4115 64.2969 20.1406C64.1615 19.8594 63.9271 19.6406 63.5938 19.4844C63.3125 19.349 62.9688 19.2292 62.5625 19.125C62.1667 19.0208 61.8229 18.9583 61.5312 18.9375V17.8281H70.7344V18.9375C70.4427 18.9479 70.0833 18.9948 69.6562 19.0781C69.2396 19.1615 68.9271 19.2396 68.7188 19.3125C68.3646 19.4375 68.125 19.6458 68 19.9375C67.8854 20.2292 67.8281 20.5469 67.8281 20.8906V27.7656H78.25V21.0469C78.25 20.7135 78.1823 20.4115 78.0469 20.1406C77.9115 19.8594 77.6771 19.6406 77.3438 19.4844C77.0625 19.349 76.7188 19.2292 76.3125 19.125C75.9167 19.0208 75.5729 18.9583 75.2812 18.9375V17.8281H84.4844V18.9375C84.1927 18.9479 83.8333 18.9948 83.4062 19.0781C82.9896 19.1615 82.6771 19.2396 82.4688 19.3125C82.1146 19.4375 81.875 19.6458 81.75 19.9375C81.6354 20.2292 81.5781 20.5469 81.5781 20.8906V36.875C81.5781 37.2396 81.6354 37.5469 81.75 37.7969C81.875 38.0469 82.1146 38.2656 82.4688 38.4531C82.6458 38.5469 82.9583 38.6406 83.4062 38.7344C83.8646 38.8281 84.224 38.8802 84.4844 38.8906V40ZM101.812 39.7188C101.323 39.8958 100.891 40.0365 100.516 40.1406C100.151 40.2552 99.7344 40.3125 99.2656 40.3125C98.4531 40.3125 97.8021 40.125 97.3125 39.75C96.8333 39.3646 96.526 38.8073 96.3906 38.0781H96.2969C95.6198 38.8281 94.8906 39.401 94.1094 39.7969C93.3385 40.1927 92.4062 40.3906 91.3125 40.3906C90.1562 40.3906 89.2031 40.0365 88.4531 39.3281C87.7135 38.6198 87.3438 37.6927 87.3438 36.5469C87.3438 35.9531 87.4271 35.4219 87.5938 34.9531C87.7604 34.4844 88.0104 34.0625 88.3438 33.6875C88.6042 33.375 88.9479 33.099 89.375 32.8594C89.8021 32.6094 90.2031 32.4115 90.5781 32.2656C91.0469 32.0885 91.9948 31.7604 93.4219 31.2812C94.8594 30.8021 95.8281 30.4271 96.3281 30.1562V28.6094C96.3281 28.474 96.2969 28.2135 96.2344 27.8281C96.1823 27.4427 96.0625 27.0781 95.875 26.7344C95.6667 26.349 95.3698 26.0156 94.9844 25.7344C94.6094 25.4427 94.0729 25.2969 93.375 25.2969C92.8958 25.2969 92.4479 25.3802 92.0312 25.5469C91.625 25.7031 91.3385 25.8698 91.1719 26.0469C91.1719 26.2552 91.2188 26.5625 91.3125 26.9688C91.4167 27.375 91.4688 27.75 91.4688 28.0938C91.4688 28.4583 91.3021 28.7917 90.9688 29.0938C90.6458 29.3958 90.1927 29.5469 89.6094 29.5469C89.0885 29.5469 88.7031 29.3646 88.4531 29C88.2135 28.625 88.0938 28.2083 88.0938 27.75C88.0938 27.2708 88.2604 26.8125 88.5938 26.375C88.9375 25.9375 89.3802 25.5469 89.9219 25.2031C90.3906 24.9115 90.9583 24.6667 91.625 24.4688C92.2917 24.2604 92.9427 24.1562 93.5781 24.1562C94.4531 24.1562 95.2135 24.2188 95.8594 24.3438C96.5156 24.4583 97.1094 24.7135 97.6406 25.1094C98.1719 25.4948 98.5729 26.0208 98.8438 26.6875C99.125 27.3438 99.2656 28.1927 99.2656 29.2344C99.2656 30.724 99.25 32.0469 99.2188 33.2031C99.1875 34.349 99.1719 35.6042 99.1719 36.9688C99.1719 37.375 99.2396 37.6979 99.375 37.9375C99.5208 38.1771 99.7396 38.3802 100.031 38.5469C100.188 38.6406 100.432 38.6927 100.766 38.7031C101.109 38.7135 101.458 38.7188 101.812 38.7188V39.7188ZM96.3594 31.4688C95.474 31.7292 94.6979 31.9844 94.0312 32.2344C93.3646 32.4844 92.7448 32.7969 92.1719 33.1719C91.651 33.526 91.2396 33.9479 90.9375 34.4375C90.6354 34.9167 90.4844 35.4896 90.4844 36.1562C90.4844 37.0208 90.7083 37.6562 91.1562 38.0625C91.6146 38.4688 92.1927 38.6719 92.8906 38.6719C93.6302 38.6719 94.2812 38.4948 94.8438 38.1406C95.4062 37.776 95.8802 37.349 96.2656 36.8594L96.3594 31.4688ZM115.141 26.5781C115.141 27.1094 115.01 27.5833 114.75 28C114.49 28.4062 114.089 28.6094 113.547 28.6094C112.964 28.6094 112.516 28.4583 112.203 28.1562C111.901 27.8542 111.75 27.5208 111.75 27.1562C111.75 26.9271 111.766 26.7188 111.797 26.5312C111.839 26.3438 111.875 26.1562 111.906 25.9688C111.417 25.9688 110.844 26.1667 110.188 26.5625C109.531 26.9583 108.974 27.5208 108.516 28.25V37.2188C108.516 37.5833 108.583 37.8802 108.719 38.1094C108.865 38.3385 109.089 38.5104 109.391 38.625C109.651 38.7292 109.984 38.8073 110.391 38.8594C110.807 38.9115 111.167 38.9479 111.469 38.9688V40H103.344V38.9688C103.583 38.9479 103.828 38.9271 104.078 38.9062C104.339 38.8854 104.562 38.8438 104.75 38.7812C105.042 38.6875 105.255 38.526 105.391 38.2969C105.536 38.0573 105.609 37.75 105.609 37.375V27.8594C105.609 27.5365 105.531 27.2188 105.375 26.9062C105.229 26.5938 105.021 26.3438 104.75 26.1562C104.552 26.0312 104.318 25.9427 104.047 25.8906C103.776 25.8281 103.484 25.7865 103.172 25.7656V24.75L108.297 24.4062L108.516 24.625V26.7969H108.594C109.24 25.9531 109.958 25.3125 110.75 24.875C111.542 24.4375 112.266 24.2188 112.922 24.2188C113.578 24.2188 114.109 24.4323 114.516 24.8594C114.932 25.2865 115.141 25.8594 115.141 26.5781ZM131.688 25.5469C131.219 25.6302 130.771 25.8021 130.344 26.0625C129.927 26.3125 129.568 26.7604 129.266 27.4062C128.651 28.8021 128.016 30.2604 127.359 31.7812C126.703 33.2917 126.021 34.8802 125.312 36.5469C125.104 37.026 124.88 37.5938 124.641 38.25C124.411 38.9062 124.198 39.5365 124 40.1406H122.781C121.792 37.6927 120.88 35.4635 120.047 33.4531C119.214 31.4323 118.349 29.3646 117.453 27.25C117.245 26.7708 116.906 26.401 116.438 26.1406C115.979 25.8698 115.516 25.6979 115.047 25.625V24.5938H122.172V25.6875C121.859 25.6979 121.469 25.7656 121 25.8906C120.531 26.0052 120.297 26.1667 120.297 26.375C120.297 26.4062 120.323 26.4896 120.375 26.625C120.427 26.75 120.479 26.8958 120.531 27.0625C120.958 28.125 121.562 29.6094 122.344 31.5156C123.125 33.4219 123.76 34.9583 124.25 36.125C124.625 35.2292 125.094 34.1146 125.656 32.7812C126.229 31.4479 126.844 29.9583 127.5 28.3125C127.604 28.0312 127.703 27.7708 127.797 27.5312C127.891 27.2812 127.938 27.0312 127.938 26.7812C127.938 26.6042 127.849 26.4479 127.672 26.3125C127.505 26.1667 127.302 26.0417 127.062 25.9375C126.823 25.8333 126.589 25.7552 126.359 25.7031C126.13 25.651 125.943 25.6146 125.797 25.5938V24.5938H131.688V25.5469ZM146.062 36.375C145.417 37.6042 144.552 38.5833 143.469 39.3125C142.385 40.0417 141.141 40.4062 139.734 40.4062C138.495 40.4062 137.406 40.1875 136.469 39.75C135.542 39.3125 134.776 38.7188 134.172 37.9688C133.568 37.2188 133.115 36.3438 132.812 35.3438C132.521 34.3438 132.375 33.2865 132.375 32.1719C132.375 31.1719 132.531 30.1927 132.844 29.2344C133.167 28.2656 133.635 27.3958 134.25 26.625C134.844 25.8854 135.578 25.2917 136.453 24.8438C137.339 24.3854 138.328 24.1562 139.422 24.1562C140.547 24.1562 141.51 24.3333 142.312 24.6875C143.115 25.0417 143.766 25.526 144.266 26.1406C144.745 26.724 145.099 27.4115 145.328 28.2031C145.568 28.9948 145.688 29.8542 145.688 30.7812V31.8125H135.484C135.484 32.8229 135.578 33.7396 135.766 34.5625C135.964 35.3854 136.271 36.1094 136.688 36.7344C137.094 37.3385 137.625 37.8177 138.281 38.1719C138.938 38.5156 139.719 38.6875 140.625 38.6875C141.552 38.6875 142.349 38.474 143.016 38.0469C143.693 37.6094 144.344 36.8281 144.969 35.7031L146.062 36.375ZM142.609 30.5C142.609 29.9167 142.557 29.2917 142.453 28.625C142.359 27.9583 142.203 27.401 141.984 26.9531C141.745 26.474 141.417 26.0833 141 25.7812C140.583 25.4792 140.047 25.3281 139.391 25.3281C138.297 25.3281 137.385 25.7865 136.656 26.7031C135.938 27.6094 135.547 28.875 135.484 30.5H142.609ZM158.016 32.4531C158.443 32.8281 158.771 33.2604 159 33.75C159.229 34.2396 159.344 34.8385 159.344 35.5469C159.344 36.974 158.807 38.1406 157.734 39.0469C156.672 39.9531 155.292 40.4062 153.594 40.4062C152.698 40.4062 151.87 40.2448 151.109 39.9219C150.359 39.599 149.823 39.3021 149.5 39.0312L149.188 40.0469H148.016L147.859 34.6875H148.938C149.021 35.0938 149.198 35.5677 149.469 36.1094C149.74 36.651 150.068 37.1406 150.453 37.5781C150.859 38.0365 151.344 38.4219 151.906 38.7344C152.479 39.0469 153.12 39.2031 153.828 39.2031C154.828 39.2031 155.599 38.9792 156.141 38.5312C156.682 38.0729 156.953 37.4219 156.953 36.5781C156.953 36.1406 156.865 35.7656 156.688 35.4531C156.521 35.1302 156.271 34.849 155.938 34.6094C155.594 34.3698 155.172 34.1562 154.672 33.9688C154.172 33.7708 153.615 33.5781 153 33.3906C152.51 33.2448 151.964 33.0469 151.359 32.7969C150.766 32.5365 150.255 32.2344 149.828 31.8906C149.37 31.526 148.995 31.0781 148.703 30.5469C148.411 30.0156 148.266 29.3906 148.266 28.6719C148.266 27.4115 148.734 26.3438 149.672 25.4688C150.609 24.5938 151.865 24.1562 153.438 24.1562C154.042 24.1562 154.656 24.2344 155.281 24.3906C155.917 24.5469 156.432 24.7344 156.828 24.9531L157.188 24.1406H158.312L158.547 29.0938H157.469C157.25 27.9896 156.776 27.0938 156.047 26.4062C155.328 25.7083 154.448 25.3594 153.406 25.3594C152.552 25.3594 151.88 25.5729 151.391 26C150.901 26.4271 150.656 26.9427 150.656 27.5469C150.656 28.0156 150.734 28.4062 150.891 28.7188C151.057 29.0312 151.302 29.2969 151.625 29.5156C151.938 29.724 152.328 29.9219 152.797 30.1094C153.276 30.2865 153.865 30.4896 154.562 30.7188C155.25 30.9375 155.896 31.1927 156.5 31.4844C157.115 31.776 157.62 32.099 158.016 32.4531ZM171.203 39.3281C170.526 39.6094 169.885 39.8438 169.281 40.0312C168.677 40.2292 167.938 40.3281 167.062 40.3281C165.771 40.3281 164.859 40.0052 164.328 39.3594C163.807 38.7031 163.547 37.7812 163.547 36.5938V26.1562H160.766V24.6562H163.609V19.8594H166.453V24.6562H170.875V26.1562H166.484V34.7656C166.484 35.4115 166.505 35.9531 166.547 36.3906C166.599 36.8177 166.714 37.1927 166.891 37.5156C167.057 37.8177 167.307 38.0469 167.641 38.2031C167.974 38.3594 168.422 38.4375 168.984 38.4375C169.245 38.4375 169.625 38.4167 170.125 38.375C170.635 38.3229 170.995 38.2604 171.203 38.1875V39.3281Z" fill="#2C3E50"/>
<path d="M77.0391 51.2969C76.5781 51.3359 76.1133 51.4297 75.6445 51.5781C75.1758 51.7188 74.8164 51.9453 74.5664 52.2578C74.4023 52.4453 74.2344 52.7227 74.0625 53.0898C73.8984 53.457 73.6992 53.8906 73.4648 54.3906C73.2305 54.8906 72.9922 55.3828 72.75 55.8672C72.5078 56.3516 72.1953 56.8359 71.8125 57.3203C72.125 57.6953 72.5078 58.1055 72.9609 58.5508C73.4141 58.9883 73.8008 59.3047 74.1211 59.5C74.4336 59.6797 74.875 59.832 75.4453 59.957C76.0234 60.082 76.4961 60.1523 76.8633 60.168V61H72.0352L70.2891 59.0078C70.0312 59.2891 69.7344 59.582 69.3984 59.8867C69.0703 60.1836 68.7227 60.4414 68.3555 60.6602C67.9492 60.8945 67.5391 61.0781 67.125 61.2109C66.7188 61.3438 66.2383 61.4102 65.6836 61.4102C65.1055 61.4102 64.5312 61.3242 63.9609 61.1523C63.3906 60.9883 62.8711 60.7227 62.4023 60.3555C61.9492 59.9961 61.582 59.5352 61.3008 58.9727C61.0195 58.4102 60.8789 57.7383 60.8789 56.957C60.8789 55.9883 61.1328 55.1133 61.6406 54.332C62.1562 53.543 63.1133 52.707 64.5117 51.8242C63.8789 50.9883 63.3867 50.2656 63.0352 49.6562C62.6836 49.0469 62.5078 48.3633 62.5078 47.6055C62.5078 47.0664 62.6133 46.5742 62.8242 46.1289C63.043 45.6758 63.3477 45.2812 63.7383 44.9453C64.0977 44.6406 64.5352 44.4023 65.0508 44.2305C65.5664 44.0586 66.0898 43.9727 66.6211 43.9727C67.2461 43.9727 67.793 44.0742 68.2617 44.2773C68.7383 44.4727 69.125 44.7305 69.4219 45.0508C69.6953 45.3477 69.9023 45.6914 70.043 46.082C70.1914 46.4727 70.2656 46.8633 70.2656 47.2539C70.2656 48.1914 69.9727 49 69.3867 49.6797C68.8086 50.3516 68.0078 50.957 66.9844 51.4961C67.7188 52.4883 68.4375 53.3945 69.1406 54.2148C69.8438 55.0273 70.5195 55.8281 71.168 56.6172C71.6914 55.7812 72.0977 54.9961 72.3867 54.2617C72.6758 53.5195 72.8203 52.8672 72.8203 52.3047C72.8203 52.0547 72.6367 51.8594 72.2695 51.7188C71.9102 51.5703 71.4102 51.4297 70.7695 51.2969V50.4648H77.0391V51.2969ZM68.7539 47.4883C68.7539 46.6914 68.5781 46.082 68.2266 45.6602C67.875 45.2305 67.375 45.0156 66.7266 45.0156C66.3594 45.0156 66.0547 45.0898 65.8125 45.2383C65.5703 45.3867 65.3633 45.5742 65.1914 45.8008C65.0352 46.0195 64.9219 46.2539 64.8516 46.5039C64.7812 46.7539 64.7461 46.9766 64.7461 47.1719C64.7461 47.7109 64.8867 48.2578 65.168 48.8125C65.4492 49.3594 65.8867 50.0234 66.4805 50.8047C67.2852 50.3516 67.8633 49.8633 68.2148 49.3398C68.5742 48.8086 68.7539 48.1914 68.7539 47.4883ZM69.668 58.3281C68.9414 57.4062 68.1211 56.3984 67.207 55.3047C66.3008 54.2031 65.5742 53.2734 65.0273 52.5156C64.3945 52.9531 63.9453 53.4688 63.6797 54.0625C63.4219 54.6484 63.293 55.3203 63.293 56.0781C63.293 57.1406 63.5938 58.0234 64.1953 58.7266C64.8047 59.4219 65.6172 59.7695 66.6328 59.7695C67.2031 59.7695 67.7617 59.6484 68.3086 59.4062C68.8633 59.1562 69.3164 58.7969 69.668 58.3281ZM91.3242 61.3867C90.332 61.3867 89.3789 61.1914 88.4648 60.8008C87.5586 60.4102 86.7539 59.8477 86.0508 59.1133C85.3555 58.3789 84.8008 57.4844 84.3867 56.4297C83.9727 55.3672 83.7656 54.1719 83.7656 52.8438C83.7656 51.5156 83.9688 50.3125 84.375 49.2344C84.7812 48.1484 85.3438 47.2148 86.0625 46.4336C86.7734 45.6602 87.6133 45.0625 88.582 44.6406C89.5508 44.2188 90.5859 44.0078 91.6875 44.0078C92.5078 44.0078 93.25 44.1094 93.9141 44.3125C94.5781 44.5156 95.2109 44.8008 95.8125 45.168L96.293 44.3711H97.2305L97.3359 50.3008H96.375C96.25 49.7227 96.0625 49.0977 95.8125 48.4258C95.5625 47.7461 95.2695 47.1719 94.9336 46.7031C94.5586 46.1719 94.1133 45.7578 93.5977 45.4609C93.082 45.1562 92.4922 45.0039 91.8281 45.0039C91.0703 45.0039 90.3633 45.1719 89.707 45.5078C89.0586 45.8438 88.4961 46.3398 88.0195 46.9961C87.5664 47.6289 87.2109 48.4336 86.9531 49.4102C86.6953 50.3867 86.5664 51.4766 86.5664 52.6797C86.5664 53.7422 86.6992 54.7188 86.9648 55.6094C87.2383 56.4922 87.625 57.2695 88.125 57.9414C88.625 58.6055 89.2148 59.125 89.8945 59.5C90.582 59.875 91.3477 60.0625 92.1914 60.0625C92.8242 60.0625 93.4062 59.9648 93.9375 59.7695C94.4688 59.5664 94.9297 59.3008 95.3203 58.9727C95.7109 58.6289 96.0547 58.2383 96.3516 57.8008C96.6484 57.3633 96.8906 56.8867 97.0781 56.3711L97.957 56.793C97.2852 58.4414 96.3945 59.6211 95.2852 60.332C94.1758 61.0352 92.8555 61.3867 91.3242 61.3867ZM110.379 55.1055C110.379 55.918 110.25 56.7188 109.992 57.5078C109.734 58.2891 109.367 58.9531 108.891 59.5C108.352 60.125 107.727 60.5898 107.016 60.8945C106.305 61.1992 105.508 61.3516 104.625 61.3516C103.891 61.3516 103.191 61.2148 102.527 60.9414C101.863 60.6602 101.273 60.2539 100.758 59.7227C100.25 59.1992 99.8438 58.5625 99.5391 57.8125C99.2422 57.0547 99.0938 56.207 99.0938 55.2695C99.0938 53.4648 99.6172 51.9883 100.664 50.8398C101.719 49.6914 103.098 49.1172 104.801 49.1172C106.418 49.1172 107.75 49.6641 108.797 50.7578C109.852 51.8438 110.379 53.293 110.379 55.1055ZM107.953 55.1289C107.953 54.543 107.895 53.9258 107.777 53.2773C107.66 52.6211 107.484 52.0664 107.25 51.6133C107 51.1289 106.672 50.7422 106.266 50.4531C105.859 50.1562 105.363 50.0078 104.777 50.0078C104.176 50.0078 103.66 50.1562 103.23 50.4531C102.809 50.75 102.465 51.1562 102.199 51.6719C101.949 52.1484 101.773 52.6914 101.672 53.3008C101.57 53.9102 101.52 54.5 101.52 55.0703C101.52 55.8203 101.578 56.5156 101.695 57.1562C101.82 57.7891 102.016 58.3555 102.281 58.8555C102.547 59.3555 102.879 59.75 103.277 60.0391C103.684 60.3203 104.184 60.4609 104.777 60.4609C105.754 60.4609 106.527 59.9883 107.098 59.043C107.668 58.0977 107.953 56.793 107.953 55.1289Z" fill="#4A6741"/>
</svg>
