<svg width="213" height="128" viewBox="0 0 213 128" fill="none" xmlns="http://www.w3.org/2000/svg">
<path d="M34 112H58L62 40H30L34 112Z" fill="#B91C1C"/>
<path d="M34 16L38 40L34 16ZM46 16V40V16ZM58 16L54 40L58 16Z" fill="black"/>
<path d="M34 16L38 40M46 16V40M58 16L54 40" stroke="#B91C1C" stroke-width="6.4" stroke-linecap="round"/>
<path d="M18 56H10H18ZM18 72H6H18ZM18 88H2H18Z" fill="black"/>
<path d="M18 56H10M18 72H6M18 88H2" stroke="#D97706" stroke-width="2.4" stroke-linecap="round"/>
<path d="M80.5195 33.6318C82.0098 33.6318 83.2197 33.4678 84.1494 33.1396C85.9131 32.5107 86.7949 31.3418 86.7949 29.6328C86.7949 28.6348 86.3574 27.8623 85.4824 27.3154C84.6074 26.7822 83.2334 26.3105 81.3604 25.9004L78.1611 25.1826C75.0166 24.4717 72.8428 23.6992 71.6396 22.8652C69.6025 21.4707 68.584 19.29 68.584 16.3232C68.584 13.6162 69.5684 11.3672 71.5371 9.57617C73.5059 7.78516 76.3975 6.88965 80.2119 6.88965C83.3975 6.88965 86.1113 7.7373 88.3535 9.43262C90.6094 11.1143 91.792 13.5615 91.9014 16.7744H85.8311C85.7217 14.9561 84.9287 13.6641 83.4521 12.8984C82.4678 12.3926 81.2441 12.1396 79.7812 12.1396C78.1543 12.1396 76.8555 12.4678 75.8848 13.124C74.9141 13.7803 74.4287 14.6963 74.4287 15.8721C74.4287 16.9521 74.9072 17.7588 75.8643 18.292C76.4795 18.6475 77.792 19.0645 79.8018 19.543L85.0107 20.7939C87.2939 21.3408 89.0166 22.0723 90.1787 22.9883C91.9834 24.4102 92.8857 26.4678 92.8857 29.1611C92.8857 31.9229 91.8262 34.2197 89.707 36.0518C87.6016 37.8701 84.6211 38.7793 80.7656 38.7793C76.8281 38.7793 73.7314 37.8838 71.4756 36.0928C69.2197 34.2881 68.0918 31.8135 68.0918 28.6689H74.1211C74.3125 30.0498 74.6885 31.082 75.249 31.7656C76.2744 33.0098 78.0312 33.6318 80.5195 33.6318ZM115.26 31.7861H104.124L102.032 38H95.4287L106.216 7.77148H113.353L124.058 38H117.208L115.26 31.7861ZM113.496 26.5771L109.723 14.6826L105.826 26.5771H113.496ZM122.561 7.77148H129.308L135.87 30.7197L142.494 7.77148H149.057L138.741 38H132.773L122.561 7.77148ZM166.181 38.8408C161.86 38.8408 158.559 37.665 156.275 35.3135C153.213 32.4287 151.682 28.2725 151.682 22.8447C151.682 17.3076 153.213 13.1514 156.275 10.376C158.559 8.02441 161.86 6.84863 166.181 6.84863C170.501 6.84863 173.803 8.02441 176.086 10.376C179.135 13.1514 180.659 17.3076 180.659 22.8447C180.659 28.2725 179.135 32.4287 176.086 35.3135C173.803 37.665 170.501 38.8408 166.181 38.8408ZM172.148 30.7197C173.611 28.874 174.343 26.249 174.343 22.8447C174.343 19.4541 173.604 16.8359 172.128 14.9902C170.665 13.1309 168.683 12.2012 166.181 12.2012C163.679 12.2012 161.683 13.124 160.192 14.9697C158.702 16.8154 157.957 19.4404 157.957 22.8447C157.957 26.249 158.702 28.874 160.192 30.7197C161.683 32.5654 163.679 33.4883 166.181 33.4883C168.683 33.4883 170.672 32.5654 172.148 30.7197ZM198.337 26.1465H191.815V38H185.643V7.77148H200.47C202.589 7.8125 204.216 8.07227 205.351 8.55078C206.499 9.0293 207.47 9.7334 208.263 10.6631C208.919 11.4287 209.438 12.2764 209.821 13.2061C210.204 14.1357 210.396 15.1953 210.396 16.3848C210.396 17.8203 210.033 19.2354 209.309 20.6299C208.584 22.0107 207.388 22.9883 205.72 23.5625C207.114 24.123 208.099 24.9229 208.673 25.9619C209.261 26.9873 209.555 28.5596 209.555 30.6787V32.709C209.555 34.0898 209.609 35.0264 209.719 35.5186C209.883 36.2979 210.266 36.8721 210.867 37.2412V38H203.915C203.724 37.3301 203.587 36.79 203.505 36.3799C203.341 35.5322 203.252 34.6641 203.238 33.7754L203.197 30.9658C203.17 29.0381 202.814 27.7529 202.131 27.1104C201.461 26.4678 200.196 26.1465 198.337 26.1465ZM202.172 20.6504C203.43 20.0762 204.059 18.9414 204.059 17.2461C204.059 15.4141 203.45 14.1836 202.233 13.5547C201.55 13.1992 200.524 13.0215 199.157 13.0215H191.815V21.1426H198.973C200.395 21.1426 201.461 20.9785 202.172 20.6504Z" fill="#B91C1C"/>
<path d="M136.362 78.7383C133.3 78.7383 130.907 77.8359 129.185 76.0312C127.462 74.2266 126.601 72.2236 126.601 70.0225C126.601 68.2041 127.052 66.6455 127.954 65.3467C128.856 64.0479 130.333 62.7627 132.384 61.4912L133.02 61.1016C132.145 60.1172 131.468 59.1123 130.989 58.0869C130.511 57.0615 130.271 55.9951 130.271 54.8877C130.271 52.6865 131.01 50.9707 132.486 49.7402C133.963 48.4961 135.877 47.874 138.229 47.874C140.375 47.874 142.146 48.5098 143.54 49.7812C144.948 51.0391 145.652 52.6523 145.652 54.6211C145.652 56.3984 145.229 57.8408 144.381 58.9482C143.547 60.0557 142.316 61.0811 140.689 62.0244L144.976 67.3154C145.468 66.6045 145.844 65.832 146.104 64.998C146.377 64.1641 146.521 63.2822 146.534 62.3525H151.723C151.641 64.1846 151.203 66.0371 150.41 67.9102C149.973 68.9629 149.262 70.125 148.277 71.3965L153.773 78H146.678L144.586 75.4365C143.574 76.3799 142.631 77.0771 141.756 77.5283C140.197 78.335 138.399 78.7383 136.362 78.7383ZM136.034 64.834C134.571 65.8047 133.601 66.6592 133.122 67.3975C132.657 68.1357 132.425 68.9492 132.425 69.8379C132.425 70.8359 132.828 71.752 133.635 72.5859C134.455 73.4199 135.501 73.8369 136.772 73.8369C137.729 73.8369 138.632 73.6182 139.479 73.1807C140.341 72.7295 141.038 72.2305 141.571 71.6836L136.034 64.834ZM135.645 54.6826C135.645 55.2295 135.836 55.8037 136.219 56.4053C136.465 56.8018 136.998 57.5059 137.818 58.5176C138.639 57.9434 139.227 57.458 139.582 57.0615C140.266 56.3232 140.607 55.5234 140.607 54.6621C140.607 54.0332 140.402 53.4727 139.992 52.9805C139.582 52.4883 138.96 52.2422 138.126 52.2422C137.606 52.2422 137.121 52.3857 136.67 52.6729C135.986 53.0967 135.645 53.7666 135.645 54.6826Z" fill="#D97706"/>
<path d="M88.3125 113.632C89.8027 113.632 91.0127 113.468 91.9424 113.14C93.7061 112.511 94.5879 111.342 94.5879 109.633C94.5879 108.635 94.1504 107.862 93.2754 107.315C92.4004 106.782 91.0264 106.311 89.1533 105.9L85.9541 105.183C82.8096 104.472 80.6357 103.699 79.4326 102.865C77.3955 101.471 76.377 99.29 76.377 96.3232C76.377 93.6162 77.3613 91.3672 79.3301 89.5762C81.2988 87.7852 84.1904 86.8896 88.0049 86.8896C91.1904 86.8896 93.9043 87.7373 96.1465 89.4326C98.4023 91.1143 99.585 93.5615 99.6943 96.7744H93.624C93.5146 94.9561 92.7217 93.6641 91.2451 92.8984C90.2607 92.3926 89.0371 92.1396 87.5742 92.1396C85.9473 92.1396 84.6484 92.4678 83.6777 93.124C82.707 93.7803 82.2217 94.6963 82.2217 95.8721C82.2217 96.9521 82.7002 97.7588 83.6572 98.292C84.2725 98.6475 85.585 99.0645 87.5947 99.543L92.8037 100.794C95.0869 101.341 96.8096 102.072 97.9717 102.988C99.7764 104.41 100.679 106.468 100.679 109.161C100.679 111.923 99.6191 114.22 97.5 116.052C95.3945 117.87 92.4141 118.779 88.5586 118.779C84.6211 118.779 81.5244 117.884 79.2686 116.093C77.0127 114.288 75.8848 111.813 75.8848 108.669H81.9141C82.1055 110.05 82.4814 111.082 83.042 111.766C84.0674 113.01 85.8242 113.632 88.3125 113.632ZM134.763 87.7715H141.182L132.671 118H126.642L122.991 100.322L121.925 94.4775L120.858 100.322L117.208 118H111.343L102.771 87.7715H109.477L113.476 105.08L114.337 109.899L115.219 105.183L118.623 87.7715H125.288L128.877 105.08L129.8 109.899L130.723 105.265L134.763 87.7715ZM144.524 87.7715H150.8V118H144.524V87.7715ZM178.137 93.124H162.981V100.076H176.25V105.326H162.981V118H156.706V87.8125H178.137V93.124ZM204.346 87.7715V93.124H195.302V118H188.944V93.124H179.859V87.7715H204.346Z" fill="#B91C1C"/>
</svg>
