<svg width="227" height="125" viewBox="0 0 227 125" fill="none" xmlns="http://www.w3.org/2000/svg">
<path d="M2 6.5C2 0.5 225 0.5 225 6.5V78.5C225 84.5 2 84.5 2 78.5V6.5Z" fill="white" stroke="#2E4057" stroke-width="3"/>
<path d="M94 53.5884C104.762 47.3752 109.456 35.3592 104.486 26.75C99.515 18.1407 86.7616 16.1983 76 22.4115C65.2384 28.6247 60.5439 40.6407 65.5144 49.25C70.485 57.8592 83.2384 59.8016 94 53.5884Z" fill="#FF6B6B"/>
<path d="M71.5 47C74.5 59 77.5 71 80.5 83C83.5 95 85 107 85 119" stroke="#FF6B6B" stroke-width="10.8" stroke-linecap="round"/>
<path d="M121 29L123.7 38L116.5 33.5H125.5L118.3 38L121 29Z" fill="#FFD93D"/>
<path d="M49 56L51.7 65L44.5 60.5H53.5L46.3 65L49 56Z" fill="#FFD93D"/>
<path d="M112 74L114.7 83L107.5 78.5H116.5L109.3 83L112 74Z" fill="#FFD93D"/>
<path d="M36.5469 53.8906L36.1094 61H15.6875V59.7812C16.0521 59.75 16.4792 59.7031 16.9688 59.6406C17.4583 59.5677 17.7812 59.5 17.9375 59.4375C18.3125 59.2917 18.5729 59.0885 18.7188 58.8281C18.8646 58.5677 18.9375 58.2344 18.9375 57.8281V42.1875C18.9375 41.8125 18.8802 41.5052 18.7656 41.2656C18.651 41.0156 18.375 40.7917 17.9375 40.5938C17.6146 40.4479 17.224 40.3333 16.7656 40.25C16.3177 40.1562 15.9583 40.0885 15.6875 40.0469V38.8281H27.8594V40.0469C27.526 40.0781 27.1302 40.125 26.6719 40.1875C26.224 40.2396 25.8333 40.3177 25.5 40.4219C25.0938 40.5573 24.8229 40.7708 24.6875 41.0625C24.5521 41.3438 24.4844 41.6667 24.4844 42.0312V56.6094C24.4844 57.2969 24.5312 57.8385 24.625 58.2344C24.7188 58.6302 24.901 58.9219 25.1719 59.1094C25.4427 59.3073 25.8177 59.4375 26.2969 59.5C26.7865 59.5521 27.4583 59.5781 28.3125 59.5781C29.1458 59.5781 29.9531 59.5312 30.7344 59.4375C31.526 59.3333 32.0938 59.1146 32.4375 58.7812C32.9688 58.25 33.5104 57.5052 34.0625 56.5469C34.625 55.5781 35.0729 54.6927 35.4062 53.8906H36.5469ZM47.3281 61H37.4531V59.8594C37.724 59.8385 37.9896 59.8125 38.25 59.7812C38.5104 59.75 38.7344 59.6979 38.9219 59.625C39.2552 59.5 39.4896 59.3229 39.625 59.0938C39.7604 58.8542 39.8281 58.5417 39.8281 58.1562V49.0625C39.8281 48.6979 39.7448 48.3802 39.5781 48.1094C39.4115 47.8281 39.2031 47.6042 38.9531 47.4375C38.7656 47.3125 38.4792 47.1927 38.0938 47.0781C37.7188 46.9635 37.375 46.8906 37.0625 46.8594V45.7188L44.7188 45.3125L44.9531 45.5469V57.9531C44.9531 58.3177 45.0312 58.6302 45.1875 58.8906C45.3438 59.1406 45.5677 59.3281 45.8594 59.4531C46.0677 59.5469 46.2969 59.6302 46.5469 59.7031C46.7969 59.776 47.0573 59.8281 47.3281 59.8594V61ZM45.0469 39.6875C45.0469 40.4792 44.7396 41.1562 44.125 41.7188C43.5208 42.2708 42.8021 42.5469 41.9688 42.5469C41.125 42.5469 40.3958 42.2708 39.7812 41.7188C39.1771 41.1562 38.875 40.4792 38.875 39.6875C38.875 38.8958 39.1771 38.2188 39.7812 37.6562C40.3958 37.0938 41.125 36.8125 41.9688 36.8125C42.8125 36.8125 43.5365 37.0938 44.1406 37.6562C44.7448 38.2188 45.0469 38.8958 45.0469 39.6875ZM60.3906 60.2812C59.724 60.5729 59.0104 60.8333 58.25 61.0625C57.4896 61.3021 56.5625 61.4219 55.4688 61.4219C53.8438 61.4219 52.6354 61.026 51.8438 60.2344C51.0625 59.4427 50.6719 58.3125 50.6719 56.8438V47.25H47.8594V45.5625H50.7344V40.8281H55.8125V45.5625H60.1875V47.25H55.8438V55.8125C55.8438 57.0312 56.0104 57.8958 56.3438 58.4062C56.6875 58.9167 57.2969 59.1719 58.1719 59.1719C58.4531 59.1719 58.8438 59.151 59.3438 59.1094C59.8438 59.0677 60.1927 59.0208 60.3906 58.9688V60.2812ZM73.1094 60.2812C72.4427 60.5729 71.7292 60.8333 70.9688 61.0625C70.2083 61.3021 69.2812 61.4219 68.1875 61.4219C66.5625 61.4219 65.3542 61.026 64.5625 60.2344C63.7812 59.4427 63.3906 58.3125 63.3906 56.8438V47.25H60.5781V45.5625H63.4531V40.8281H68.5312V45.5625H72.9062V47.25H68.5625V55.8125C68.5625 57.0312 68.7292 57.8958 69.0625 58.4062C69.4062 58.9167 70.0156 59.1719 70.8906 59.1719C71.1719 59.1719 71.5625 59.151 72.0625 59.1094C72.5625 59.0677 72.9115 59.0208 73.1094 58.9688V60.2812ZM83.7188 61H73.9219V59.8594C74.1927 59.8385 74.4531 59.8125 74.7031 59.7812C74.9635 59.75 75.1927 59.6979 75.3906 59.625C75.724 59.5 75.9479 59.3229 76.0625 59.0938C76.1875 58.8542 76.25 58.5417 76.25 58.1562V40.8438C76.25 40.4479 76.1667 40.0833 76 39.75C75.8438 39.4062 75.6302 39.1458 75.3594 38.9688C75.151 38.8333 74.8333 38.7031 74.4062 38.5781C73.9896 38.4531 73.6198 38.3802 73.2969 38.3594V37.2188L81.1562 36.8125L81.3906 37.0625V57.9531C81.3906 58.3385 81.4583 58.651 81.5938 58.8906C81.7292 59.1302 81.9479 59.3177 82.25 59.4531C82.4583 59.5469 82.6771 59.6302 82.9062 59.7031C83.1354 59.776 83.4062 59.8281 83.7188 59.8594V61ZM102.031 57.2656C101.667 57.8594 101.224 58.4219 100.703 58.9531C100.193 59.474 99.6094 59.9219 98.9531 60.2969C98.2552 60.6927 97.5469 60.9896 96.8281 61.1875C96.1198 61.3958 95.3021 61.5 94.375 61.5C92.8333 61.5 91.5 61.2812 90.375 60.8438C89.2604 60.4062 88.3385 59.8177 87.6094 59.0781C86.8802 58.3385 86.3333 57.4688 85.9688 56.4688C85.6146 55.4583 85.4375 54.3646 85.4375 53.1875C85.4375 52.125 85.6302 51.1094 86.0156 50.1406C86.4115 49.1615 86.9688 48.2917 87.6875 47.5312C88.3958 46.7917 89.2865 46.1927 90.3594 45.7344C91.4427 45.276 92.651 45.0469 93.9844 45.0469C95.4427 45.0469 96.6406 45.224 97.5781 45.5781C98.5156 45.9323 99.2917 46.4219 99.9062 47.0469C100.5 47.6406 100.932 48.3438 101.203 49.1562C101.474 49.9583 101.609 50.8021 101.609 51.6875V52.7031H91.0469C91.0469 54.8385 91.4583 56.4635 92.2812 57.5781C93.1042 58.6927 94.4115 59.25 96.2031 59.25C97.1823 59.25 98.0625 58.9844 98.8438 58.4531C99.625 57.9115 100.292 57.2292 100.844 56.4062L102.031 57.2656ZM96.0625 51.3281C96.0625 50.7031 96.0312 50.0625 95.9688 49.4062C95.9062 48.75 95.7969 48.2135 95.6406 47.7969C95.4635 47.3073 95.2188 46.9375 94.9062 46.6875C94.6042 46.4375 94.2188 46.3125 93.75 46.3125C92.9479 46.3125 92.3073 46.7188 91.8281 47.5312C91.349 48.3438 91.0885 49.6302 91.0469 51.3906L96.0625 51.3281ZM121.141 61.5938C119.786 61.5938 118.521 61.4271 117.344 61.0938C116.177 60.7604 115.188 60.3646 114.375 59.9062L113.297 61H111.969L111.766 52.9844H113.109C113.411 53.7448 113.797 54.5469 114.266 55.3906C114.734 56.2344 115.276 56.9896 115.891 57.6562C116.526 58.3542 117.234 58.9219 118.016 59.3594C118.807 59.7969 119.729 60.0156 120.781 60.0156C122.198 60.0156 123.281 59.6719 124.031 58.9844C124.792 58.2865 125.172 57.4115 125.172 56.3594C125.172 55.4948 124.849 54.7708 124.203 54.1875C123.568 53.5938 122.578 53.0833 121.234 52.6562C120.359 52.375 119.552 52.1146 118.812 51.875C118.083 51.6354 117.396 51.3906 116.75 51.1406C115.26 50.5469 114.151 49.6979 113.422 48.5938C112.703 47.4896 112.344 46.2552 112.344 44.8906C112.344 44.026 112.531 43.1979 112.906 42.4062C113.281 41.6042 113.828 40.8854 114.547 40.25C115.234 39.6562 116.115 39.1719 117.188 38.7969C118.26 38.4219 119.427 38.2344 120.688 38.2344C121.917 38.2344 123.068 38.4062 124.141 38.75C125.214 39.0833 126.057 39.4219 126.672 39.7656L127.625 38.8281H128.984L129.109 46.3906H127.766C127.453 45.5781 127.083 44.75 126.656 43.9062C126.24 43.0521 125.797 42.3438 125.328 41.7812C124.818 41.1771 124.229 40.6979 123.562 40.3438C122.896 39.9792 122.115 39.7969 121.219 39.7969C120.094 39.7969 119.172 40.1146 118.453 40.75C117.745 41.3854 117.391 42.1719 117.391 43.1094C117.391 43.9948 117.698 44.7188 118.312 45.2812C118.938 45.8438 119.906 46.3385 121.219 46.7656C121.99 47.026 122.776 47.2865 123.578 47.5469C124.38 47.8073 125.094 48.0573 125.719 48.2969C127.229 48.8802 128.375 49.6875 129.156 50.7188C129.948 51.7396 130.344 53.0104 130.344 54.5312C130.344 55.4896 130.12 56.4167 129.672 57.3125C129.224 58.2083 128.62 58.9531 127.859 59.5469C127.026 60.2031 126.062 60.7083 124.969 61.0625C123.875 61.4167 122.599 61.5938 121.141 61.5938ZM151.484 53.3906C151.484 55.5885 150.75 57.474 149.281 59.0469C147.812 60.6198 145.953 61.4062 143.703 61.4062C142.703 61.4062 141.891 61.3021 141.266 61.0938C140.641 60.8958 140.125 60.651 139.719 60.3594H139.594V64.75C139.594 65.1146 139.672 65.4323 139.828 65.7031C139.995 65.974 140.224 66.1719 140.516 66.2969C140.797 66.4115 141.193 66.5156 141.703 66.6094C142.224 66.7031 142.656 66.7604 143 66.7812V67.9375H131.719V66.7812C131.979 66.7604 132.307 66.7188 132.703 66.6562C133.099 66.6042 133.396 66.5469 133.594 66.4844C133.927 66.3698 134.151 66.1719 134.266 65.8906C134.391 65.6198 134.453 65.3073 134.453 64.9531V48.9688C134.422 48.625 134.339 48.3229 134.203 48.0625C134.078 47.8021 133.875 47.5729 133.594 47.375C133.385 47.2396 133.109 47.1302 132.766 47.0469C132.422 46.9531 132.083 46.8906 131.75 46.8594V45.7188L139.359 45.3125L139.594 45.5156V47.25L139.719 47.2812C140.406 46.5833 141.167 46.0417 142 45.6562C142.844 45.2708 143.677 45.0781 144.5 45.0781C146.656 45.0781 148.359 45.8438 149.609 47.375C150.859 48.8958 151.484 50.901 151.484 53.3906ZM145.875 53.4531C145.875 52.6719 145.818 51.9271 145.703 51.2188C145.589 50.5 145.385 49.8594 145.094 49.2969C144.812 48.7344 144.438 48.2865 143.969 47.9531C143.51 47.6198 142.948 47.4531 142.281 47.4531C141.604 47.4531 141.062 47.5729 140.656 47.8125C140.25 48.0417 139.896 48.3438 139.594 48.7188V57.5781C139.656 57.7865 139.776 58.0573 139.953 58.3906C140.13 58.7135 140.307 58.974 140.484 59.1719C140.745 59.4531 141.042 59.6615 141.375 59.7969C141.708 59.9323 142.073 60 142.469 60C143.5 60 144.323 59.4479 144.938 58.3438C145.562 57.2292 145.875 55.599 145.875 53.4531ZM169.469 47.3438C170.24 48.0625 170.828 48.9219 171.234 49.9219C171.641 50.9219 171.844 52.0052 171.844 53.1719C171.844 54.3281 171.641 55.4219 171.234 56.4531C170.839 57.474 170.255 58.349 169.484 59.0781C168.661 59.8594 167.677 60.4583 166.531 60.875C165.396 61.2917 164.094 61.5 162.625 61.5C161.354 61.5 160.182 61.3177 159.109 60.9531C158.047 60.5885 157.104 60.0417 156.281 59.3125C155.49 58.6146 154.865 57.7552 154.406 56.7344C153.948 55.7031 153.719 54.5521 153.719 53.2812C153.719 52.0312 153.917 50.9219 154.312 49.9531C154.719 48.974 155.323 48.1042 156.125 47.3438C156.896 46.6146 157.844 46.0521 158.969 45.6562C160.104 45.25 161.37 45.0469 162.766 45.0469C164.224 45.0469 165.505 45.25 166.609 45.6562C167.724 46.0521 168.677 46.6146 169.469 47.3438ZM165.469 58.1719C165.698 57.5885 165.865 56.8802 165.969 56.0469C166.083 55.2135 166.141 54.2448 166.141 53.1406C166.141 52.4115 166.089 51.5781 165.984 50.6406C165.88 49.7031 165.724 48.9635 165.516 48.4219C165.266 47.7656 164.917 47.25 164.469 46.875C164.031 46.5 163.474 46.3125 162.797 46.3125C162.057 46.3125 161.464 46.5156 161.016 46.9219C160.578 47.3281 160.24 47.8542 160 48.5C159.781 49.0938 159.63 49.7917 159.547 50.5938C159.464 51.3854 159.422 52.2135 159.422 53.0781C159.422 54.2135 159.458 55.1562 159.531 55.9062C159.604 56.6458 159.781 57.3906 160.062 58.1406C160.302 58.7865 160.646 59.2969 161.094 59.6719C161.542 60.0469 162.109 60.2344 162.797 60.2344C163.422 60.2344 163.958 60.0625 164.406 59.7188C164.854 59.3646 165.208 58.849 165.469 58.1719ZM189.812 47.3438C190.583 48.0625 191.172 48.9219 191.578 49.9219C191.984 50.9219 192.188 52.0052 192.188 53.1719C192.188 54.3281 191.984 55.4219 191.578 56.4531C191.182 57.474 190.599 58.349 189.828 59.0781C189.005 59.8594 188.021 60.4583 186.875 60.875C185.74 61.2917 184.438 61.5 182.969 61.5C181.698 61.5 180.526 61.3177 179.453 60.9531C178.391 60.5885 177.448 60.0417 176.625 59.3125C175.833 58.6146 175.208 57.7552 174.75 56.7344C174.292 55.7031 174.062 54.5521 174.062 53.2812C174.062 52.0312 174.26 50.9219 174.656 49.9531C175.062 48.974 175.667 48.1042 176.469 47.3438C177.24 46.6146 178.188 46.0521 179.312 45.6562C180.448 45.25 181.714 45.0469 183.109 45.0469C184.568 45.0469 185.849 45.25 186.953 45.6562C188.068 46.0521 189.021 46.6146 189.812 47.3438ZM185.812 58.1719C186.042 57.5885 186.208 56.8802 186.312 56.0469C186.427 55.2135 186.484 54.2448 186.484 53.1406C186.484 52.4115 186.432 51.5781 186.328 50.6406C186.224 49.7031 186.068 48.9635 185.859 48.4219C185.609 47.7656 185.26 47.25 184.812 46.875C184.375 46.5 183.818 46.3125 183.141 46.3125C182.401 46.3125 181.807 46.5156 181.359 46.9219C180.922 47.3281 180.583 47.8542 180.344 48.5C180.125 49.0938 179.974 49.7917 179.891 50.5938C179.807 51.3854 179.766 52.2135 179.766 53.0781C179.766 54.2135 179.802 55.1562 179.875 55.9062C179.948 56.6458 180.125 57.3906 180.406 58.1406C180.646 58.7865 180.99 59.2969 181.438 59.6719C181.885 60.0469 182.453 60.2344 183.141 60.2344C183.766 60.2344 184.302 60.0625 184.75 59.7188C185.198 59.3646 185.552 58.849 185.812 58.1719ZM214.828 61H205.422V59.8594C205.62 59.8385 205.859 59.8125 206.141 59.7812C206.422 59.75 206.635 59.6979 206.781 59.625C207 59.5104 207.156 59.3438 207.25 59.125C207.344 58.9062 207.391 58.5833 207.391 58.1562V50.8438C207.391 49.7812 207.193 48.9844 206.797 48.4531C206.411 47.9115 205.839 47.6406 205.078 47.6406C204.661 47.6406 204.271 47.7031 203.906 47.8281C203.552 47.9531 203.203 48.1354 202.859 48.375C202.557 48.5833 202.312 48.7969 202.125 49.0156C201.948 49.2344 201.797 49.4271 201.672 49.5938V57.9844C201.672 58.349 201.724 58.6562 201.828 58.9062C201.932 59.1458 202.104 59.3281 202.344 59.4531C202.51 59.5469 202.719 59.6302 202.969 59.7031C203.219 59.776 203.464 59.8281 203.703 59.8594V61H194.203V59.8594C194.464 59.8385 194.724 59.8125 194.984 59.7812C195.255 59.7396 195.484 59.6875 195.672 59.625C196.005 59.5104 196.234 59.3333 196.359 59.0938C196.484 58.8542 196.547 58.5417 196.547 58.1562V49.0625C196.547 48.7396 196.464 48.4219 196.297 48.1094C196.13 47.7969 195.911 47.5417 195.641 47.3438C195.453 47.2188 195.214 47.1146 194.922 47.0312C194.641 46.9479 194.328 46.8906 193.984 46.8594V45.7188L201.438 45.3125L201.672 45.5469V47.8125H201.734C202.026 47.5521 202.38 47.2396 202.797 46.875C203.214 46.5104 203.599 46.2135 203.953 45.9844C204.339 45.7344 204.844 45.5208 205.469 45.3438C206.094 45.1667 206.76 45.0781 207.469 45.0781C209.167 45.0781 210.438 45.5625 211.281 46.5312C212.135 47.4896 212.562 48.7656 212.562 50.3594V58.0156C212.562 58.401 212.62 58.7083 212.734 58.9375C212.849 59.1667 213.062 59.349 213.375 59.4844C213.542 59.5573 213.745 59.6302 213.984 59.7031C214.234 59.776 214.516 59.8281 214.828 59.8594V61Z" fill="#2E4057"/>
</svg>
