<svg width="223" height="151" viewBox="0 0 223 151" fill="none" xmlns="http://www.w3.org/2000/svg">
<path d="M86 0L56 50H76L46 120L96 60H76L96 0H86Z" fill="#F4A261"/>
<path d="M106 20V100M106 20H126V10M106 20H86V10M91 20V50M121 20V50" stroke="#2A9D8F" stroke-width="12" stroke-linecap="round"/>
<path d="M3.0957 143V117.23H20.7617V121.59H8.29883V127.689H19.0566V132.049H8.29883V143H3.0957ZM25.209 143V117.441H30.4121V138.658H43.3496V143H25.209ZM70.3145 143H64.6543L62.4043 137.146H52.1035L49.9766 143H44.457L54.4941 117.23H59.9961L70.3145 143ZM60.7344 132.805L57.1836 123.242L53.7031 132.805H60.7344ZM71.7734 134.615L76.8359 134.123C77.1406 135.822 77.7559 137.07 78.6816 137.867C79.6191 138.664 80.8789 139.062 82.4609 139.062C84.1367 139.062 85.3965 138.711 86.2402 138.008C87.0957 137.293 87.5234 136.461 87.5234 135.512C87.5234 134.902 87.3418 134.387 86.9785 133.965C86.627 133.531 86.0059 133.156 85.1152 132.84C84.5059 132.629 83.1172 132.254 80.9492 131.715C78.1602 131.023 76.2031 130.174 75.0781 129.166C73.4961 127.748 72.7051 126.02 72.7051 123.98C72.7051 122.668 73.0742 121.443 73.8125 120.307C74.5625 119.158 75.6348 118.285 77.0293 117.688C78.4355 117.09 80.1289 116.791 82.1094 116.791C85.3438 116.791 87.7754 117.5 89.4043 118.918C91.0449 120.336 91.9062 122.229 91.9883 124.596L86.7852 124.824C86.5625 123.5 86.082 122.551 85.3438 121.977C84.6172 121.391 83.5215 121.098 82.0566 121.098C80.5449 121.098 79.3613 121.408 78.5059 122.029C77.9551 122.428 77.6797 122.961 77.6797 123.629C77.6797 124.238 77.9375 124.76 78.4531 125.193C79.1094 125.744 80.7031 126.318 83.2344 126.916C85.7656 127.514 87.6348 128.135 88.8418 128.779C90.0605 129.412 91.0098 130.285 91.6895 131.398C92.3809 132.5 92.7266 133.865 92.7266 135.494C92.7266 136.971 92.3164 138.354 91.4961 139.643C90.6758 140.932 89.5156 141.893 88.0156 142.525C86.5156 143.146 84.6465 143.457 82.4082 143.457C79.1504 143.457 76.6484 142.707 74.9023 141.207C73.1562 139.695 72.1133 137.498 71.7734 134.615ZM97.1211 143V117.23H102.324V127.373H112.52V117.23H117.723V143H112.52V131.732H102.324V143H97.1211Z" fill="#264653"/>
<path d="M123.154 143V117.23H140.82V121.59H128.357V127.689H139.115V132.049H128.357V143H123.154ZM144.072 130.273C144.072 127.648 144.465 125.445 145.25 123.664C145.836 122.352 146.633 121.174 147.641 120.131C148.66 119.088 149.773 118.314 150.98 117.811C152.586 117.131 154.438 116.791 156.535 116.791C160.332 116.791 163.367 117.969 165.641 120.324C167.926 122.68 169.068 125.955 169.068 130.15C169.068 134.311 167.938 137.568 165.676 139.924C163.414 142.268 160.391 143.439 156.605 143.439C152.773 143.439 149.727 142.273 147.465 139.941C145.203 137.598 144.072 134.375 144.072 130.273ZM149.434 130.098C149.434 133.016 150.107 135.23 151.455 136.742C152.803 138.242 154.514 138.992 156.588 138.992C158.662 138.992 160.361 138.248 161.686 136.76C163.021 135.26 163.689 133.016 163.689 130.027C163.689 127.074 163.039 124.871 161.738 123.418C160.449 121.965 158.732 121.238 156.588 121.238C154.443 121.238 152.715 121.977 151.402 123.453C150.09 124.918 149.434 127.133 149.434 130.098ZM173.164 143V117.23H184.115C186.869 117.23 188.867 117.465 190.109 117.934C191.363 118.391 192.365 119.211 193.115 120.395C193.865 121.578 194.24 122.932 194.24 124.455C194.24 126.389 193.672 127.988 192.535 129.254C191.398 130.508 189.699 131.299 187.438 131.627C188.562 132.283 189.488 133.004 190.215 133.789C190.953 134.574 191.943 135.969 193.186 137.973L196.332 143H190.109L186.348 137.393C185.012 135.389 184.098 134.129 183.605 133.613C183.113 133.086 182.592 132.729 182.041 132.541C181.49 132.342 180.617 132.242 179.422 132.242H178.367V143H173.164ZM178.367 128.129H182.217C184.713 128.129 186.271 128.023 186.893 127.812C187.514 127.602 188 127.238 188.352 126.723C188.703 126.207 188.879 125.562 188.879 124.789C188.879 123.922 188.645 123.225 188.176 122.697C187.719 122.158 187.068 121.818 186.225 121.678C185.803 121.619 184.537 121.59 182.428 121.59H178.367V128.129ZM199.232 143V117.23H204.436V128.674L214.947 117.23H221.943L212.24 127.268L222.471 143H215.738L208.654 130.906L204.436 135.213V143H199.232Z" fill="#F4A261"/>
</svg>
