<svg width="300" height="100" viewBox="0 0 300 100" fill="none" xmlns="http://www.w3.org/2000/svg">
<path d="M45 30C55 25 65 35 60 45L45 65C40 70 30 65 35 60L45 30Z" fill="#FFB800"/>
<path d="M45 65C40 70 30 65 35 60L45 30" fill="#FF8A00"/>
<path d="M55 25C58.3333 21.6667 59.3333 18.3333 58 15" stroke="#666666" stroke-width="2" stroke-linecap="round"/>
<path d="M60 28C63.3333 24.6667 64.3333 21.3333 63 18" stroke="#666666" stroke-width="2" stroke-linecap="round"/>
<path d="M88.6455 52.2729L93.104 53.6206C92.8045 54.8709 92.3328 55.9154 91.689 56.7539C91.0451 57.5924 90.244 58.2251 89.2856 58.6519C88.3348 59.0786 87.1219 59.292 85.647 59.292C83.8576 59.292 82.3939 59.0337 81.2559 58.5171C80.1253 57.993 79.1483 57.0758 78.3247 55.7656C77.5011 54.4554 77.0894 52.7783 77.0894 50.7344C77.0894 48.0091 77.8118 45.9165 79.2568 44.4565C80.7093 42.9891 82.7607 42.2554 85.4111 42.2554C87.485 42.2554 89.1134 42.6746 90.2964 43.5132C91.4868 44.3517 92.3703 45.6395 92.9468 47.3765L88.4546 48.376C88.2974 47.8743 88.1326 47.5075 87.9604 47.2754C87.6759 46.8861 87.3278 46.5866 86.916 46.377C86.5042 46.1673 86.0438 46.0625 85.5347 46.0625C84.3817 46.0625 83.4982 46.5267 82.8843 47.4551C82.4201 48.1439 82.188 49.2257 82.188 50.7007C82.188 52.5275 82.465 53.7816 83.019 54.4629C83.5731 55.1367 84.3517 55.4736 85.355 55.4736C86.3283 55.4736 87.062 55.2004 87.5562 54.6538C88.0578 54.1073 88.4209 53.3136 88.6455 52.2729ZM95.3276 47.0732H99.6064V49.0273C100.018 48.1813 100.441 47.6011 100.875 47.2866C101.317 46.9647 101.86 46.8037 102.504 46.8037C103.178 46.8037 103.915 47.0133 104.716 47.4326L103.301 50.6895C102.762 50.4648 102.335 50.3525 102.021 50.3525C101.422 50.3525 100.958 50.5996 100.628 51.0938C100.157 51.79 99.9209 53.0928 99.9209 55.002V59H95.3276V47.0732ZM105.671 42.5361H110.242V45.647H105.671V42.5361ZM105.671 47.0732H110.242V59H105.671V47.0732ZM112.353 55.6982L116.89 55.2715C117.077 55.8105 117.339 56.1961 117.676 56.4282C118.013 56.6603 118.462 56.7764 119.024 56.7764C119.638 56.7764 120.113 56.6453 120.45 56.3833C120.712 56.1886 120.843 55.9453 120.843 55.6533C120.843 55.3239 120.671 55.0693 120.327 54.8896C120.08 54.7624 119.424 54.6051 118.361 54.418C116.774 54.141 115.67 53.8864 115.048 53.6543C114.434 53.4147 113.914 53.0142 113.487 52.4526C113.068 51.8911 112.858 51.251 112.858 50.5322C112.858 49.7461 113.087 49.0685 113.543 48.4995C114 47.9305 114.629 47.5075 115.43 47.2305C116.231 46.946 117.306 46.8037 118.653 46.8037C120.076 46.8037 121.124 46.9123 121.798 47.1294C122.479 47.3465 123.044 47.6834 123.494 48.1401C123.95 48.5968 124.328 49.2145 124.628 49.9932L120.293 50.4199C120.181 50.0381 119.993 49.7573 119.731 49.5776C119.372 49.3381 118.938 49.2183 118.429 49.2183C117.912 49.2183 117.534 49.3118 117.294 49.499C117.062 49.6787 116.946 49.8996 116.946 50.1616C116.946 50.4536 117.096 50.6745 117.396 50.8242C117.695 50.974 118.346 51.1087 119.35 51.2285C120.869 51.4007 122 51.6403 122.741 51.9473C123.482 52.2542 124.048 52.6922 124.437 53.2612C124.834 53.8302 125.032 54.4554 125.032 55.1367C125.032 55.8255 124.823 56.4956 124.403 57.147C123.992 57.7983 123.336 58.3187 122.438 58.708C121.547 59.0898 120.33 59.2808 118.788 59.2808C116.609 59.2808 115.056 58.9701 114.127 58.3486C113.207 57.7272 112.615 56.8438 112.353 55.6982ZM127.245 63.5371V47.0732H131.523V48.8364C132.115 48.0952 132.658 47.5936 133.152 47.3315C133.818 46.9797 134.556 46.8037 135.364 46.8037C136.959 46.8037 138.191 47.4139 139.059 48.6343C139.935 49.8547 140.373 51.3633 140.373 53.1602C140.373 55.1442 139.898 56.6603 138.947 57.7085C137.996 58.7492 136.794 59.2695 135.342 59.2695C134.638 59.2695 133.994 59.1497 133.41 58.9102C132.834 58.6706 132.317 58.3149 131.86 57.8433V63.5371H127.245ZM131.827 53.0703C131.827 54.0137 132.025 54.7137 132.422 55.1704C132.819 55.6271 133.32 55.8555 133.927 55.8555C134.458 55.8555 134.904 55.6383 135.263 55.2041C135.623 54.7624 135.802 54.0174 135.802 52.9692C135.802 52.0034 135.615 51.2959 135.241 50.8467C134.866 50.39 134.41 50.1616 133.871 50.1616C133.287 50.1616 132.8 50.39 132.411 50.8467C132.021 51.3034 131.827 52.0446 131.827 53.0703ZM141.238 47.0732H146.067L148.526 55.0132L150.806 47.0732H155.31L150.582 59.8198C150.042 61.2723 149.492 62.2531 148.931 62.7622C148.137 63.481 146.928 63.8403 145.303 63.8403C144.644 63.8403 143.626 63.7505 142.249 63.5708L141.889 60.3813C142.548 60.591 143.282 60.6958 144.09 60.6958C144.629 60.6958 145.064 60.5723 145.393 60.3252C145.73 60.0781 146.014 59.6364 146.247 59L141.238 47.0732Z" fill="#FF6B00"/>
<path d="M167.888 52.2729L172.346 53.6206C172.047 54.8709 171.575 55.9154 170.931 56.7539C170.287 57.5924 169.486 58.2251 168.528 58.6519C167.577 59.0786 166.364 59.292 164.889 59.292C163.1 59.292 161.636 59.0337 160.498 58.5171C159.368 57.993 158.39 57.0758 157.567 55.7656C156.743 54.4554 156.332 52.7783 156.332 50.7344C156.332 48.0091 157.054 45.9165 158.499 44.4565C159.951 42.9891 162.003 42.2554 164.653 42.2554C166.727 42.2554 168.356 42.6746 169.539 43.5132C170.729 44.3517 171.612 45.6395 172.189 47.3765L167.697 48.376C167.54 47.8743 167.375 47.5075 167.203 47.2754C166.918 46.8861 166.57 46.5866 166.158 46.377C165.746 46.1673 165.286 46.0625 164.777 46.0625C163.624 46.0625 162.74 46.5267 162.126 47.4551C161.662 48.1439 161.43 49.2257 161.43 50.7007C161.43 52.5275 161.707 53.7816 162.261 54.4629C162.815 55.1367 163.594 55.4736 164.597 55.4736C165.57 55.4736 166.304 55.2004 166.798 54.6538C167.3 54.1073 167.663 53.3136 167.888 52.2729ZM174.57 47.0732H178.849V49.0273C179.26 48.1813 179.683 47.6011 180.118 47.2866C180.559 46.9647 181.102 46.8037 181.746 46.8037C182.42 46.8037 183.157 47.0133 183.958 47.4326L182.543 50.6895C182.004 50.4648 181.578 50.3525 181.263 50.3525C180.664 50.3525 180.2 50.5996 179.871 51.0938C179.399 51.79 179.163 53.0928 179.163 55.002V59H174.57V47.0732ZM197.312 59H193.044V57.0684C192.408 57.862 191.764 58.4272 191.112 58.7642C190.468 59.1011 189.675 59.2695 188.731 59.2695C187.474 59.2695 186.485 58.8952 185.767 58.1465C185.055 57.3903 184.7 56.2298 184.7 54.665V47.0732H189.293V53.6318C189.293 54.3805 189.431 54.9121 189.708 55.2266C189.986 55.541 190.375 55.6982 190.876 55.6982C191.423 55.6982 191.868 55.4886 192.213 55.0693C192.565 54.6501 192.741 53.8976 192.741 52.812V47.0732H197.312V59ZM200.085 47.0732H204.342V49.0161C204.978 48.2225 205.622 47.6572 206.273 47.3203C206.925 46.9759 207.718 46.8037 208.654 46.8037C209.92 46.8037 210.908 47.1818 211.619 47.938C212.338 48.6867 212.697 49.8472 212.697 51.4194V59H208.104V52.4414C208.104 51.6927 207.965 51.1649 207.688 50.8579C207.411 50.5435 207.022 50.3862 206.521 50.3862C205.966 50.3862 205.517 50.5959 205.173 51.0151C204.828 51.4344 204.656 52.1868 204.656 53.2725V59H200.085V47.0732ZM224.321 54.3394L228.667 54.8335C228.427 55.7394 228.034 56.5256 227.488 57.1919C226.941 57.8507 226.241 58.3636 225.388 58.7305C224.542 59.0973 223.464 59.2808 222.153 59.2808C220.888 59.2808 219.832 59.1647 218.986 58.9326C218.148 58.693 217.425 58.3112 216.819 57.7871C216.212 57.2555 215.737 56.6341 215.393 55.9229C215.048 55.2116 214.876 54.2682 214.876 53.0928C214.876 51.8649 215.086 50.8429 215.505 50.0269C215.812 49.4279 216.231 48.8926 216.763 48.4209C217.294 47.9417 217.841 47.5861 218.402 47.354C219.293 46.9871 220.435 46.8037 221.828 46.8037C223.774 46.8037 225.257 47.1519 226.275 47.8481C227.301 48.5444 228.019 49.5627 228.431 50.9028L224.13 51.4756C223.995 50.9665 223.748 50.5846 223.389 50.3301C223.037 50.068 222.561 49.937 221.962 49.937C221.206 49.937 220.592 50.2103 220.121 50.7568C219.656 51.2959 219.424 52.1157 219.424 53.2163C219.424 54.1971 219.656 54.9421 220.121 55.4512C220.585 55.9603 221.176 56.2148 221.895 56.2148C222.494 56.2148 222.996 56.0614 223.4 55.7544C223.812 55.4474 224.119 54.9757 224.321 54.3394ZM230.767 42.5361H235.338V48.6006C235.959 47.9567 236.577 47.4963 237.191 47.2192C237.805 46.9422 238.531 46.8037 239.37 46.8037C240.612 46.8037 241.59 47.1818 242.301 47.938C243.02 48.6942 243.379 49.8547 243.379 51.4194V59H238.786V52.4414C238.786 51.6927 238.647 51.1649 238.37 50.8579C238.093 50.5435 237.704 50.3862 237.202 50.3862C236.648 50.3862 236.199 50.5959 235.854 51.0151C235.51 51.4344 235.338 52.1868 235.338 53.2725V59H230.767V42.5361Z" fill="#FFB800"/>
</svg>
