<svg width="298" height="120" viewBox="0 0 298 120" fill="none" xmlns="http://www.w3.org/2000/svg">
<path d="M60 120C93.1371 120 120 93.1371 120 60C120 26.8629 93.1371 0 60 0C26.8629 0 0 26.8629 0 60C0 93.1371 26.8629 120 60 120Z" fill="#FF6B35"/>
<path d="M20 50H100C100 50 110 55 100 60C90 65 20 60 20 60C20 60 9.99999 55 20 50Z" fill="white"/>
<path d="M25 45H95C95 45 105 40 95 35C85 30 25 35 25 35C25 35 15 40 25 45Z" fill="#FFD23F"/>
<path d="M25 65H95C95 65 105 70 95 75C85 80 25 75 25 75C25 75 15 70 25 65Z" fill="#4A4A4A"/>
<path d="M40 25C46.6667 18.3333 48.3333 11.6667 45 5" stroke="white" stroke-width="3" stroke-linecap="round"/>
<path d="M60 25C66.6667 18.3333 68.3333 11.6667 65 5" stroke="white" stroke-width="3" stroke-linecap="round"/>
<path d="M80 25C86.6667 18.3333 88.3333 11.6667 85 5" stroke="white" stroke-width="3" stroke-linecap="round"/>
<path d="M141.387 44.5273L149.805 44C149.987 45.3672 150.358 46.4089 150.918 47.125C151.829 48.2839 153.132 48.8633 154.824 48.8633C156.087 48.8633 157.057 48.5703 157.734 47.9844C158.424 47.3854 158.77 46.6953 158.77 45.9141C158.77 45.1719 158.444 44.5078 157.793 43.9219C157.142 43.3359 155.632 42.7826 153.262 42.2617C149.382 41.3893 146.615 40.2305 144.961 38.7852C143.294 37.3398 142.461 35.4974 142.461 33.2578C142.461 31.7865 142.884 30.3997 143.73 29.0977C144.59 27.7826 145.872 26.7539 147.578 26.0117C149.297 25.2565 151.647 24.8789 154.629 24.8789C158.288 24.8789 161.074 25.5625 162.988 26.9297C164.915 28.2839 166.061 30.4453 166.426 33.4141L158.086 33.9023C157.865 32.6133 157.396 31.6758 156.68 31.0898C155.977 30.5039 155 30.2109 153.75 30.2109C152.721 30.2109 151.947 30.4323 151.426 30.875C150.905 31.3047 150.645 31.832 150.645 32.457C150.645 32.9128 150.859 33.3229 151.289 33.6875C151.706 34.0651 152.695 34.4167 154.258 34.7422C158.125 35.5755 160.892 36.4219 162.559 37.2812C164.238 38.1276 165.456 39.1823 166.211 40.4453C166.979 41.7083 167.363 43.1211 167.363 44.6836C167.363 46.5195 166.855 48.2122 165.84 49.7617C164.824 51.3112 163.405 52.4896 161.582 53.2969C159.759 54.0911 157.461 54.4883 154.688 54.4883C149.818 54.4883 146.445 53.5508 144.57 51.6758C142.695 49.8008 141.634 47.418 141.387 44.5273ZM172.188 25.3672H181.055V54H172.188V25.3672ZM186.699 25.3672H211.738V31.0898L195.684 47.8477H212.324V54H185.156V48.0625L201.035 31.4805H186.699V25.3672ZM215.605 25.3672H240.645V31.0898L224.59 47.8477H241.23V54H214.062V48.0625L229.941 31.4805H215.605V25.3672ZM245.234 25.3672H254.082V46.9492H267.891V54H245.234V25.3672ZM271.895 25.3672H295.605V31.4805H280.762V36.0312H294.531V41.8711H280.762V47.5156H296.035V54H271.895V25.3672Z" fill="#4A4A4A"/>
<path d="M165.527 80.0742L171.738 81.4609C171.413 82.6068 171.1 83.5247 170.801 84.2148C170.501 84.9049 170.078 85.7188 169.531 86.6562L172.52 88.707C172.884 88.9414 173.353 89.2214 173.926 89.5469L169.648 94.4688C168.867 94.0521 168.053 93.5703 167.207 93.0234C166.374 92.4766 165.625 92.0078 164.961 91.6172C163.581 92.5286 162.201 93.1927 160.82 93.6094C158.906 94.1823 156.732 94.4688 154.297 94.4688C150.482 94.4688 147.643 93.6745 145.781 92.0859C143.919 90.4974 142.988 88.5703 142.988 86.3047C142.988 84.6771 143.535 83.1406 144.629 81.6953C145.723 80.237 147.513 79.0065 150 78.0039C148.958 76.7409 148.242 75.6471 147.852 74.7227C147.461 73.7852 147.266 72.8346 147.266 71.8711C147.266 69.8398 148.04 68.1667 149.59 66.8516C151.139 65.5365 153.49 64.8789 156.641 64.8789C159.857 64.8789 162.22 65.5039 163.73 66.7539C165.241 68.0039 165.996 69.5013 165.996 71.2461C165.996 72.2227 165.762 73.1602 165.293 74.0586C164.837 74.957 164.284 75.6862 163.633 76.2461C162.982 76.806 161.816 77.6393 160.137 78.7461C161.53 80.1393 162.982 81.4349 164.492 82.6328C164.896 81.8255 165.241 80.9727 165.527 80.0742ZM156.387 75.0547C157.415 74.4948 158.21 73.8893 158.77 73.2383C159.329 72.5742 159.609 71.9492 159.609 71.3633C159.609 70.7513 159.375 70.237 158.906 69.8203C158.438 69.3906 157.793 69.1758 156.973 69.1758C156.165 69.1758 155.508 69.4102 155 69.8789C154.492 70.3477 154.238 70.901 154.238 71.5391C154.238 72.3464 154.954 73.5182 156.387 75.0547ZM153.555 82.0078C152.461 82.776 151.732 83.4336 151.367 83.9805C151.016 84.5273 150.84 85.1068 150.84 85.7188C150.84 86.6693 151.25 87.5156 152.07 88.2578C152.891 89 153.958 89.3711 155.273 89.3711C156.693 89.3711 158.288 88.8177 160.059 87.7109C158.366 86.4089 156.198 84.5078 153.555 82.0078ZM191.895 65.3672H208.457C211.217 65.3672 213.333 66.0508 214.805 67.418C216.289 68.7852 217.031 70.4779 217.031 72.4961C217.031 74.1888 216.504 75.6406 215.449 76.8516C214.746 77.6589 213.717 78.2969 212.363 78.7656C214.421 79.2604 215.931 80.1133 216.895 81.3242C217.871 82.5221 218.359 84.0326 218.359 85.8555C218.359 87.3398 218.014 88.6745 217.324 89.8594C216.634 91.0443 215.69 91.9818 214.492 92.6719C213.75 93.1016 212.63 93.4141 211.133 93.6094C209.141 93.8698 207.819 94 207.168 94H191.895V65.3672ZM200.82 76.5977H204.668C206.048 76.5977 207.005 76.3633 207.539 75.8945C208.086 75.4128 208.359 74.7227 208.359 73.8242C208.359 72.9909 208.086 72.3398 207.539 71.8711C207.005 71.4023 206.068 71.168 204.727 71.168H200.82V76.5977ZM200.82 87.8477H205.332C206.855 87.8477 207.93 87.5807 208.555 87.0469C209.18 86.5 209.492 85.7708 209.492 84.8594C209.492 84.013 209.18 83.3359 208.555 82.8281C207.943 82.3073 206.862 82.0469 205.312 82.0469H200.82V87.8477ZM223.359 65.3672H232.227V94H223.359V65.3672ZM236.582 65.3672H263.477V72.4375H254.453V94H245.605V72.4375H236.582V65.3672ZM267.48 65.3672H291.191V71.4805H276.348V76.0312H290.117V81.8711H276.348V87.5156H291.621V94H267.48V65.3672Z" fill="#FF6B35"/>
</svg>
