<svg width="202" height="171" viewBox="0 0 202 171" fill="none" xmlns="http://www.w3.org/2000/svg">
<path d="M101 124C51 74 21 54 21 24C21 -6.00001 51 -6.00001 71 14C91 -6.00001 121 -6.00001 121 24C121 54 91 74 101 124Z" fill="#E94F64"/>
<path d="M1 44C67.6667 37.3333 134.333 37.3333 201 44" stroke="#333333" stroke-width="2"/>
<path d="M1 64C67.6667 57.3333 134.333 57.3333 201 64" stroke="#333333" stroke-width="2"/>
<path d="M32.0117 152V134.82H35.4805V141.582H42.2773V134.82H45.7461V152H42.2773V144.488H35.4805V152H32.0117ZM56.5273 148.039L59.8086 148.59C59.3867 149.793 58.7188 150.711 57.8047 151.344C56.8984 151.969 55.7617 152.281 54.3945 152.281C52.2305 152.281 50.6289 151.574 49.5898 150.16C48.7695 149.027 48.3594 147.598 48.3594 145.871C48.3594 143.809 48.8984 142.195 49.9766 141.031C51.0547 139.859 52.418 139.273 54.0664 139.273C55.918 139.273 57.3789 139.887 58.4492 141.113C59.5195 142.332 60.0312 144.203 59.9844 146.727H51.7344C51.7578 147.703 52.0234 148.465 52.5312 149.012C53.0391 149.551 53.6719 149.82 54.4297 149.82C54.9453 149.82 55.3789 149.68 55.7305 149.398C56.082 149.117 56.3477 148.664 56.5273 148.039ZM56.7148 144.711C56.6914 143.758 56.4453 143.035 55.9766 142.543C55.5078 142.043 54.9375 141.793 54.2656 141.793C53.5469 141.793 52.9531 142.055 52.4844 142.578C52.0156 143.102 51.7852 143.812 51.793 144.711H56.7148ZM65.1406 143.352L62.1523 142.812C62.4883 141.609 63.0664 140.719 63.8867 140.141C64.707 139.562 65.9258 139.273 67.543 139.273C69.0117 139.273 70.1055 139.449 70.8242 139.801C71.543 140.145 72.0469 140.586 72.3359 141.125C72.6328 141.656 72.7812 142.637 72.7812 144.066L72.7461 147.91C72.7461 149.004 72.7969 149.812 72.8984 150.336C73.0078 150.852 73.207 151.406 73.4961 152H70.2383C70.1523 151.781 70.0469 151.457 69.9219 151.027C69.8672 150.832 69.8281 150.703 69.8047 150.641C69.2422 151.188 68.6406 151.598 68 151.871C67.3594 152.145 66.6758 152.281 65.9492 152.281C64.668 152.281 63.6562 151.934 62.9141 151.238C62.1797 150.543 61.8125 149.664 61.8125 148.602C61.8125 147.898 61.9805 147.273 62.3164 146.727C62.6523 146.172 63.1211 145.75 63.7227 145.461C64.332 145.164 65.207 144.906 66.3477 144.688C67.8867 144.398 68.9531 144.129 69.5469 143.879V143.551C69.5469 142.918 69.3906 142.469 69.0781 142.203C68.7656 141.93 68.1758 141.793 67.3086 141.793C66.7227 141.793 66.2656 141.91 65.9375 142.145C65.6094 142.371 65.3438 142.773 65.1406 143.352ZM69.5469 146.023C69.125 146.164 68.457 146.332 67.543 146.527C66.6289 146.723 66.0312 146.914 65.75 147.102C65.3203 147.406 65.1055 147.793 65.1055 148.262C65.1055 148.723 65.2773 149.121 65.6211 149.457C65.9648 149.793 66.4023 149.961 66.9336 149.961C67.5273 149.961 68.0938 149.766 68.6328 149.375C69.0312 149.078 69.293 148.715 69.418 148.285C69.5039 148.004 69.5469 147.469 69.5469 146.68V146.023ZM79.1914 152H75.8984V139.555H78.957V141.324C79.4805 140.488 79.9492 139.938 80.3633 139.672C80.7852 139.406 81.2617 139.273 81.793 139.273C82.543 139.273 83.2656 139.48 83.9609 139.895L82.9414 142.766C82.3867 142.406 81.8711 142.227 81.3945 142.227C80.9336 142.227 80.543 142.355 80.2227 142.613C79.9023 142.863 79.6484 143.32 79.4609 143.984C79.2812 144.648 79.1914 146.039 79.1914 148.156V152ZM91.0977 139.555V142.18H88.8477V147.195C88.8477 148.211 88.8672 148.805 88.9062 148.977C88.9531 149.141 89.0508 149.277 89.1992 149.387C89.3555 149.496 89.543 149.551 89.7617 149.551C90.0664 149.551 90.5078 149.445 91.0859 149.234L91.3672 151.789C90.6016 152.117 89.7344 152.281 88.7656 152.281C88.1719 152.281 87.6367 152.184 87.1602 151.988C86.6836 151.785 86.332 151.527 86.1055 151.215C85.8867 150.895 85.7344 150.465 85.6484 149.926C85.5781 149.543 85.543 148.77 85.543 147.605V142.18H84.0312V139.555H85.543V137.082L88.8477 135.16V139.555H91.0977ZM92.2227 148.449L95.5273 147.945C95.668 148.586 95.9531 149.074 96.3828 149.41C96.8125 149.738 97.4141 149.902 98.1875 149.902C99.0391 149.902 99.6797 149.746 100.109 149.434C100.398 149.215 100.543 148.922 100.543 148.555C100.543 148.305 100.465 148.098 100.309 147.934C100.145 147.777 99.7773 147.633 99.207 147.5C96.5508 146.914 94.8672 146.379 94.1562 145.895C93.1719 145.223 92.6797 144.289 92.6797 143.094C92.6797 142.016 93.1055 141.109 93.957 140.375C94.8086 139.641 96.1289 139.273 97.918 139.273C99.6211 139.273 100.887 139.551 101.715 140.105C102.543 140.66 103.113 141.48 103.426 142.566L100.32 143.141C100.188 142.656 99.9336 142.285 99.5586 142.027C99.1914 141.77 98.6641 141.641 97.9766 141.641C97.1094 141.641 96.4883 141.762 96.1133 142.004C95.8633 142.176 95.7383 142.398 95.7383 142.672C95.7383 142.906 95.8477 143.105 96.0664 143.27C96.3633 143.488 97.3867 143.797 99.1367 144.195C100.895 144.594 102.121 145.082 102.816 145.66C103.504 146.246 103.848 147.062 103.848 148.109C103.848 149.25 103.371 150.23 102.418 151.051C101.465 151.871 100.055 152.281 98.1875 152.281C96.4922 152.281 95.1484 151.938 94.1562 151.25C93.1719 150.562 92.5273 149.629 92.2227 148.449ZM112.449 139.555V142.18H110.199V147.195C110.199 148.211 110.219 148.805 110.258 148.977C110.305 149.141 110.402 149.277 110.551 149.387C110.707 149.496 110.895 149.551 111.113 149.551C111.418 149.551 111.859 149.445 112.438 149.234L112.719 151.789C111.953 152.117 111.086 152.281 110.117 152.281C109.523 152.281 108.988 152.184 108.512 151.988C108.035 151.785 107.684 151.527 107.457 151.215C107.238 150.895 107.086 150.465 107 149.926C106.93 149.543 106.895 148.77 106.895 147.605V142.18H105.383V139.555H106.895V137.082L110.199 135.16V139.555H112.449ZM117.887 152H114.594V139.555H117.652V141.324C118.176 140.488 118.645 139.938 119.059 139.672C119.48 139.406 119.957 139.273 120.488 139.273C121.238 139.273 121.961 139.48 122.656 139.895L121.637 142.766C121.082 142.406 120.566 142.227 120.09 142.227C119.629 142.227 119.238 142.355 118.918 142.613C118.598 142.863 118.344 143.32 118.156 143.984C117.977 144.648 117.887 146.039 117.887 148.156V152ZM124.086 137.867V134.82H127.379V137.867H124.086ZM124.086 152V139.555H127.379V152H124.086ZM142.086 152H138.793V145.648C138.793 144.305 138.723 143.438 138.582 143.047C138.441 142.648 138.211 142.34 137.891 142.121C137.578 141.902 137.199 141.793 136.754 141.793C136.184 141.793 135.672 141.949 135.219 142.262C134.766 142.574 134.453 142.988 134.281 143.504C134.117 144.02 134.035 144.973 134.035 146.363V152H130.742V139.555H133.801V141.383C134.887 139.977 136.254 139.273 137.902 139.273C138.629 139.273 139.293 139.406 139.895 139.672C140.496 139.93 140.949 140.262 141.254 140.668C141.566 141.074 141.781 141.535 141.898 142.051C142.023 142.566 142.086 143.305 142.086 144.266V152ZM145.133 152.82L148.895 153.277C148.957 153.715 149.102 154.016 149.328 154.18C149.641 154.414 150.133 154.531 150.805 154.531C151.664 154.531 152.309 154.402 152.738 154.145C153.027 153.973 153.246 153.695 153.395 153.312C153.496 153.039 153.547 152.535 153.547 151.801V149.984C152.562 151.328 151.32 152 149.82 152C148.148 152 146.824 151.293 145.848 149.879C145.082 148.762 144.699 147.371 144.699 145.707C144.699 143.621 145.199 142.027 146.199 140.926C147.207 139.824 148.457 139.273 149.949 139.273C151.488 139.273 152.758 139.949 153.758 141.301V139.555H156.84V150.723C156.84 152.191 156.719 153.289 156.477 154.016C156.234 154.742 155.895 155.312 155.457 155.727C155.02 156.141 154.434 156.465 153.699 156.699C152.973 156.934 152.051 157.051 150.934 157.051C148.824 157.051 147.328 156.688 146.445 155.961C145.562 155.242 145.121 154.328 145.121 153.219C145.121 153.109 145.125 152.977 145.133 152.82ZM148.074 145.52C148.074 146.84 148.328 147.809 148.836 148.426C149.352 149.035 149.984 149.34 150.734 149.34C151.539 149.34 152.219 149.027 152.773 148.402C153.328 147.77 153.605 146.836 153.605 145.602C153.605 144.312 153.34 143.355 152.809 142.73C152.277 142.105 151.605 141.793 150.793 141.793C150.004 141.793 149.352 142.102 148.836 142.719C148.328 143.328 148.074 144.262 148.074 145.52ZM158.949 148.449L162.254 147.945C162.395 148.586 162.68 149.074 163.109 149.41C163.539 149.738 164.141 149.902 164.914 149.902C165.766 149.902 166.406 149.746 166.836 149.434C167.125 149.215 167.27 148.922 167.27 148.555C167.27 148.305 167.191 148.098 167.035 147.934C166.871 147.777 166.504 147.633 165.934 147.5C163.277 146.914 161.594 146.379 160.883 145.895C159.898 145.223 159.406 144.289 159.406 143.094C159.406 142.016 159.832 141.109 160.684 140.375C161.535 139.641 162.855 139.273 164.645 139.273C166.348 139.273 167.613 139.551 168.441 140.105C169.27 140.66 169.84 141.48 170.152 142.566L167.047 143.141C166.914 142.656 166.66 142.285 166.285 142.027C165.918 141.77 165.391 141.641 164.703 141.641C163.836 141.641 163.215 141.762 162.84 142.004C162.59 142.176 162.465 142.398 162.465 142.672C162.465 142.906 162.574 143.105 162.793 143.27C163.09 143.488 164.113 143.797 165.863 144.195C167.621 144.594 168.848 145.082 169.543 145.66C170.23 146.246 170.574 147.062 170.574 148.109C170.574 149.25 170.098 150.23 169.145 151.051C168.191 151.871 166.781 152.281 164.914 152.281C163.219 152.281 161.875 151.938 160.883 151.25C159.898 150.562 159.254 149.629 158.949 148.449Z" fill="#333333"/>
<path d="M64.5664 168V159.41H70.7773V160.424H65.7031V163.055H70.4551V164.062H65.7031V166.986H70.9766V168H64.5664ZM72.4121 168V161.777H73.3613V162.662C73.8184 161.979 74.4785 161.637 75.3418 161.637C75.7168 161.637 76.0605 161.705 76.373 161.842C76.6895 161.975 76.9258 162.15 77.082 162.369C77.2383 162.588 77.3477 162.848 77.4102 163.148C77.4492 163.344 77.4688 163.686 77.4688 164.174V168H76.4141V164.215C76.4141 163.785 76.373 163.465 76.291 163.254C76.209 163.039 76.0625 162.869 75.8516 162.744C75.6445 162.615 75.4004 162.551 75.1191 162.551C74.6699 162.551 74.2812 162.693 73.9531 162.979C73.6289 163.264 73.4668 163.805 73.4668 164.602V168H72.4121ZM81.3945 167.057L81.5469 167.988C81.25 168.051 80.9844 168.082 80.75 168.082C80.3672 168.082 80.0703 168.021 79.8594 167.9C79.6484 167.779 79.5 167.621 79.4141 167.426C79.3281 167.227 79.2852 166.811 79.2852 166.178V162.598H78.5117V161.777H79.2852V160.236L80.334 159.604V161.777H81.3945V162.598H80.334V166.236C80.334 166.537 80.3516 166.73 80.3867 166.816C80.4258 166.902 80.4863 166.971 80.5684 167.021C80.6543 167.072 80.7754 167.098 80.9316 167.098C81.0488 167.098 81.2031 167.084 81.3945 167.057ZM86.6914 165.996L87.7812 166.131C87.6094 166.768 87.291 167.262 86.8262 167.613C86.3613 167.965 85.7676 168.141 85.0449 168.141C84.1348 168.141 83.4121 167.861 82.877 167.303C82.3457 166.74 82.0801 165.953 82.0801 164.941C82.0801 163.895 82.3496 163.082 82.8887 162.504C83.4277 161.926 84.127 161.637 84.9863 161.637C85.8184 161.637 86.498 161.92 87.0254 162.486C87.5527 163.053 87.8164 163.85 87.8164 164.877C87.8164 164.939 87.8145 165.033 87.8105 165.158H83.1699C83.209 165.842 83.4023 166.365 83.75 166.729C84.0977 167.092 84.5312 167.273 85.0508 167.273C85.4375 167.273 85.7676 167.172 86.041 166.969C86.3145 166.766 86.5312 166.441 86.6914 165.996ZM83.2285 164.291H86.7031C86.6562 163.768 86.5234 163.375 86.3047 163.113C85.9688 162.707 85.5332 162.504 84.998 162.504C84.5137 162.504 84.1055 162.666 83.7734 162.99C83.4453 163.314 83.2637 163.748 83.2285 164.291ZM89.0996 168V161.777H90.0488V162.721C90.291 162.279 90.5137 161.988 90.7168 161.848C90.9238 161.707 91.1504 161.637 91.3965 161.637C91.752 161.637 92.1133 161.75 92.4805 161.977L92.1172 162.955C91.8594 162.803 91.6016 162.727 91.3438 162.727C91.1133 162.727 90.9062 162.797 90.7227 162.938C90.5391 163.074 90.4082 163.266 90.3301 163.512C90.2129 163.887 90.1543 164.297 90.1543 164.742V168H89.0996ZM95.4102 167.057L95.5625 167.988C95.2656 168.051 95 168.082 94.7656 168.082C94.3828 168.082 94.0859 168.021 93.875 167.9C93.6641 167.779 93.5156 167.621 93.4297 167.426C93.3438 167.227 93.3008 166.811 93.3008 166.178V162.598H92.5273V161.777H93.3008V160.236L94.3496 159.604V161.777H95.4102V162.598H94.3496V166.236C94.3496 166.537 94.3672 166.73 94.4023 166.816C94.4414 166.902 94.502 166.971 94.584 167.021C94.6699 167.072 94.791 167.098 94.9473 167.098C95.0645 167.098 95.2188 167.084 95.4102 167.057ZM100.508 167.232C100.117 167.564 99.7402 167.799 99.377 167.936C99.0176 168.072 98.6309 168.141 98.2168 168.141C97.5332 168.141 97.0078 167.975 96.6406 167.643C96.2734 167.307 96.0898 166.879 96.0898 166.359C96.0898 166.055 96.1582 165.777 96.2949 165.527C96.4355 165.273 96.6172 165.07 96.8398 164.918C97.0664 164.766 97.3203 164.65 97.6016 164.572C97.8086 164.518 98.1211 164.465 98.5391 164.414C99.3906 164.312 100.018 164.191 100.42 164.051C100.424 163.906 100.426 163.814 100.426 163.775C100.426 163.346 100.326 163.043 100.127 162.867C99.8574 162.629 99.457 162.51 98.9258 162.51C98.4297 162.51 98.0625 162.598 97.8242 162.773C97.5898 162.945 97.416 163.252 97.3027 163.693L96.2715 163.553C96.3652 163.111 96.5195 162.756 96.7344 162.486C96.9492 162.213 97.2598 162.004 97.666 161.859C98.0723 161.711 98.543 161.637 99.0781 161.637C99.6094 161.637 100.041 161.699 100.373 161.824C100.705 161.949 100.949 162.107 101.105 162.299C101.262 162.486 101.371 162.725 101.434 163.014C101.469 163.193 101.486 163.518 101.486 163.986V165.393C101.486 166.373 101.508 166.994 101.551 167.256C101.598 167.514 101.688 167.762 101.82 168H100.719C100.609 167.781 100.539 167.525 100.508 167.232ZM100.42 164.877C100.037 165.033 99.4629 165.166 98.6973 165.275C98.2637 165.338 97.957 165.408 97.7773 165.486C97.5977 165.564 97.459 165.68 97.3613 165.832C97.2637 165.98 97.2148 166.146 97.2148 166.33C97.2148 166.611 97.3203 166.846 97.5312 167.033C97.7461 167.221 98.0586 167.314 98.4688 167.314C98.875 167.314 99.2363 167.227 99.5527 167.051C99.8691 166.871 100.102 166.627 100.25 166.318C100.363 166.08 100.42 165.729 100.42 165.264V164.877ZM103.133 160.623V159.41H104.188V160.623H103.133ZM103.133 168V161.777H104.188V168H103.133ZM105.799 168V161.777H106.748V162.662C107.205 161.979 107.865 161.637 108.729 161.637C109.104 161.637 109.447 161.705 109.76 161.842C110.076 161.975 110.312 162.15 110.469 162.369C110.625 162.588 110.734 162.848 110.797 163.148C110.836 163.344 110.855 163.686 110.855 164.174V168H109.801V164.215C109.801 163.785 109.76 163.465 109.678 163.254C109.596 163.039 109.449 162.869 109.238 162.744C109.031 162.615 108.787 162.551 108.506 162.551C108.057 162.551 107.668 162.693 107.34 162.979C107.016 163.264 106.854 163.805 106.854 164.602V168H105.799ZM112.479 168V161.777H113.422V162.65C113.617 162.346 113.877 162.102 114.201 161.918C114.525 161.73 114.895 161.637 115.309 161.637C115.77 161.637 116.146 161.732 116.439 161.924C116.736 162.115 116.945 162.383 117.066 162.727C117.559 162 118.199 161.637 118.988 161.637C119.605 161.637 120.08 161.809 120.412 162.152C120.744 162.492 120.91 163.018 120.91 163.729V168H119.861V164.08C119.861 163.658 119.826 163.355 119.756 163.172C119.689 162.984 119.566 162.834 119.387 162.721C119.207 162.607 118.996 162.551 118.754 162.551C118.316 162.551 117.953 162.697 117.664 162.99C117.375 163.279 117.23 163.744 117.23 164.385V168H116.176V163.957C116.176 163.488 116.09 163.137 115.918 162.902C115.746 162.668 115.465 162.551 115.074 162.551C114.777 162.551 114.502 162.629 114.248 162.785C113.998 162.941 113.816 163.17 113.703 163.471C113.59 163.771 113.533 164.205 113.533 164.771V168H112.479ZM126.734 165.996L127.824 166.131C127.652 166.768 127.334 167.262 126.869 167.613C126.404 167.965 125.811 168.141 125.088 168.141C124.178 168.141 123.455 167.861 122.92 167.303C122.389 166.74 122.123 165.953 122.123 164.941C122.123 163.895 122.393 163.082 122.932 162.504C123.471 161.926 124.17 161.637 125.029 161.637C125.861 161.637 126.541 161.92 127.068 162.486C127.596 163.053 127.859 163.85 127.859 164.877C127.859 164.939 127.857 165.033 127.854 165.158H123.213C123.252 165.842 123.445 166.365 123.793 166.729C124.141 167.092 124.574 167.273 125.094 167.273C125.48 167.273 125.811 167.172 126.084 166.969C126.357 166.766 126.574 166.441 126.734 165.996ZM123.271 164.291H126.746C126.699 163.768 126.566 163.375 126.348 163.113C126.012 162.707 125.576 162.504 125.041 162.504C124.557 162.504 124.148 162.666 123.816 162.99C123.488 163.314 123.307 163.748 123.271 164.291ZM129.154 168V161.777H130.104V162.662C130.561 161.979 131.221 161.637 132.084 161.637C132.459 161.637 132.803 161.705 133.115 161.842C133.432 161.975 133.668 162.15 133.824 162.369C133.98 162.588 134.09 162.848 134.152 163.148C134.191 163.344 134.211 163.686 134.211 164.174V168H133.156V164.215C133.156 163.785 133.115 163.465 133.033 163.254C132.951 163.039 132.805 162.869 132.594 162.744C132.387 162.615 132.143 162.551 131.861 162.551C131.412 162.551 131.023 162.693 130.695 162.979C130.371 163.264 130.209 163.805 130.209 164.602V168H129.154ZM138.137 167.057L138.289 167.988C137.992 168.051 137.727 168.082 137.492 168.082C137.109 168.082 136.812 168.021 136.602 167.9C136.391 167.779 136.242 167.621 136.156 167.426C136.07 167.227 136.027 166.811 136.027 166.178V162.598H135.254V161.777H136.027V160.236L137.076 159.604V161.777H138.137V162.598H137.076V166.236C137.076 166.537 137.094 166.73 137.129 166.816C137.168 166.902 137.229 166.971 137.311 167.021C137.396 167.072 137.518 167.098 137.674 167.098C137.791 167.098 137.945 167.084 138.137 167.057Z" fill="#666666"/>
</svg>
