<svg width="363" height="86" viewBox="0 0 363 86" fill="none" xmlns="http://www.w3.org/2000/svg">
<path d="M2 53.95C2 14.35 88.2 14.35 88.2 53.95C88.2 93.55 2 93.55 2 53.95Z" fill="#FDA4AF" stroke="#F43F5E" stroke-width="3" stroke-linecap="round"/>
<path d="M18.1625 53.95C18.1625 29.2 72.0375 29.2 72.0375 53.95C72.0375 78.7 18.1625 78.7 18.1625 53.95Z" fill="#FFF1F2"/>
<path d="M39.7125 44.05C42.945 39.1 47.255 39.1 50.4875 44.05C53.72 39.1 58.03 39.1 61.2625 44.05C66.65 49 66.65 58.9 50.4875 68.8C34.325 58.9 34.325 49 39.7125 44.05Z" fill="#F43F5E"/>
<path d="M110.255 70.5521L111.527 70.7094C111.326 71.4522 110.955 72.0287 110.412 72.4388C109.87 72.849 109.177 73.0541 108.334 73.0541C107.272 73.0541 106.429 72.7282 105.805 72.0765C105.185 71.4203 104.875 70.502 104.875 69.3217C104.875 68.1003 105.19 67.1524 105.819 66.4779C106.447 65.8034 107.263 65.4662 108.266 65.4662C109.237 65.4662 110.029 65.7966 110.645 66.4574C111.26 67.1182 111.568 68.0479 111.568 69.2465C111.568 69.3194 111.565 69.4288 111.561 69.5746H106.147C106.192 70.3721 106.418 70.9828 106.823 71.4066C107.229 71.8304 107.735 72.0424 108.341 72.0424C108.792 72.0424 109.177 71.9239 109.496 71.6869C109.815 71.4499 110.068 71.0717 110.255 70.5521ZM106.215 68.5629H110.269C110.214 67.9522 110.059 67.4942 109.804 67.1888C109.412 66.7149 108.904 66.4779 108.279 66.4779C107.714 66.4779 107.238 66.667 106.851 67.0453C106.468 67.4235 106.256 67.9294 106.215 68.5629ZM113.078 72.89V65.6302H114.179V66.6488C114.407 66.2933 114.71 66.0085 115.088 65.7943C115.466 65.5756 115.897 65.4662 116.38 65.4662C116.918 65.4662 117.358 65.5778 117.699 65.8011C118.046 66.0245 118.29 66.3366 118.431 66.7377C119.005 65.89 119.752 65.4662 120.673 65.4662C121.393 65.4662 121.947 65.6667 122.334 66.0677C122.722 66.4642 122.915 67.0772 122.915 67.9066V72.89H121.692V68.3168C121.692 67.8246 121.651 67.4714 121.569 67.2572C121.491 67.0385 121.348 66.863 121.138 66.7308C120.928 66.5987 120.682 66.5326 120.4 66.5326C119.889 66.5326 119.465 66.7035 119.128 67.0453C118.791 67.3825 118.622 67.9248 118.622 68.6722V72.89H117.392V68.1732C117.392 67.6263 117.292 67.2162 117.091 66.9427C116.89 66.6693 116.562 66.5326 116.107 66.5326C115.76 66.5326 115.439 66.6237 115.143 66.806C114.851 66.9883 114.639 67.2549 114.507 67.6058C114.375 67.9567 114.309 68.4626 114.309 69.1234V72.89H113.078ZM125.875 72.89H124.734V62.8685H125.964V66.4437C126.484 65.792 127.147 65.4662 127.953 65.4662C128.4 65.4662 128.821 65.5573 129.218 65.7396C129.619 65.9174 129.947 66.1703 130.202 66.4984C130.462 66.822 130.665 67.2139 130.811 67.6742C130.957 68.1345 131.029 68.6267 131.029 69.1508C131.029 70.3949 130.722 71.3565 130.107 72.0355C129.491 72.7146 128.753 73.0541 127.892 73.0541C127.035 73.0541 126.363 72.6963 125.875 71.9808V72.89ZM125.862 69.2054C125.862 70.0759 125.98 70.7048 126.217 71.0922C126.604 71.7256 127.128 72.0424 127.789 72.0424C128.327 72.0424 128.792 71.8099 129.184 71.3451C129.576 70.8757 129.772 70.1784 129.772 69.2533C129.772 68.3054 129.583 67.6058 129.204 67.1547C128.831 66.7035 128.377 66.4779 127.844 66.4779C127.306 66.4779 126.841 66.7126 126.449 67.182C126.057 67.6469 125.862 68.3213 125.862 69.2054ZM132.52 72.89V65.6302H133.627V66.7308C133.91 66.2159 134.169 65.8763 134.406 65.7123C134.648 65.5482 134.912 65.4662 135.199 65.4662C135.614 65.4662 136.036 65.5983 136.464 65.8627L136.04 67.0043C135.739 66.8265 135.439 66.7377 135.138 66.7377C134.869 66.7377 134.627 66.8197 134.413 66.9838C134.199 67.1433 134.046 67.3666 133.955 67.6537C133.819 68.0912 133.75 68.5697 133.75 69.0892V72.89H132.52ZM141.933 71.9945C141.477 72.3819 141.037 72.6553 140.613 72.8148C140.194 72.9743 139.743 73.0541 139.26 73.0541C138.462 73.0541 137.849 72.8604 137.421 72.473C136.993 72.0811 136.779 71.5821 136.779 70.976C136.779 70.6205 136.858 70.2969 137.018 70.0052C137.182 69.709 137.394 69.472 137.654 69.2943C137.918 69.1166 138.214 68.9821 138.542 68.891C138.784 68.8272 139.148 68.7657 139.636 68.7064C140.629 68.5879 141.361 68.4467 141.83 68.2826C141.835 68.114 141.837 68.0069 141.837 67.9613C141.837 67.46 141.721 67.1068 141.488 66.9017C141.174 66.6237 140.707 66.4847 140.087 66.4847C139.508 66.4847 139.08 66.5873 138.802 66.7924C138.529 66.9929 138.326 67.3506 138.194 67.8656L136.99 67.7015C137.1 67.1866 137.28 66.7719 137.53 66.4574C137.781 66.1384 138.143 65.8946 138.617 65.726C139.091 65.5528 139.64 65.4662 140.265 65.4662C140.885 65.4662 141.388 65.5391 141.776 65.6849C142.163 65.8308 142.448 66.0153 142.63 66.2386C142.812 66.4574 142.94 66.7354 143.013 67.0726C143.054 67.2823 143.074 67.6605 143.074 68.2074V69.848C143.074 70.9919 143.099 71.7165 143.15 72.0219C143.204 72.3226 143.309 72.612 143.464 72.89H142.179C142.051 72.6348 141.969 72.3363 141.933 71.9945ZM141.83 69.2465C141.384 69.4288 140.714 69.5837 139.821 69.7113C139.315 69.7842 138.957 69.8663 138.747 69.9574C138.538 70.0485 138.376 70.183 138.262 70.3607C138.148 70.5339 138.091 70.7276 138.091 70.9418C138.091 71.2699 138.214 71.5433 138.46 71.7621C138.711 71.9808 139.075 72.0902 139.554 72.0902C140.028 72.0902 140.449 71.9877 140.819 71.7826C141.188 71.573 141.459 71.2881 141.632 70.9281C141.764 70.6501 141.83 70.2399 141.83 69.6976V69.2465ZM149.726 70.2308L150.936 70.3881C150.804 71.222 150.464 71.876 149.917 72.35C149.375 72.8194 148.707 73.0541 147.914 73.0541C146.921 73.0541 146.121 72.7305 145.515 72.0834C144.913 71.4317 144.613 70.4997 144.613 69.2875C144.613 68.5036 144.742 67.8177 145.002 67.2299C145.262 66.642 145.656 66.2022 146.185 65.9105C146.718 65.6143 147.297 65.4662 147.921 65.4662C148.71 65.4662 149.354 65.6667 149.856 66.0677C150.357 66.4642 150.678 67.0293 150.82 67.7631L149.623 67.9476C149.509 67.46 149.307 67.0931 149.015 66.847C148.728 66.601 148.379 66.4779 147.969 66.4779C147.349 66.4779 146.846 66.7012 146.458 67.1478C146.071 67.5899 145.877 68.2917 145.877 69.2533C145.877 70.2286 146.064 70.9372 146.438 71.3793C146.811 71.8213 147.299 72.0424 147.901 72.0424C148.384 72.0424 148.787 71.8942 149.111 71.598C149.434 71.3018 149.639 70.8461 149.726 70.2308ZM156.958 70.5521L158.23 70.7094C158.029 71.4522 157.658 72.0287 157.115 72.4388C156.573 72.849 155.88 73.0541 155.037 73.0541C153.975 73.0541 153.132 72.7282 152.508 72.0765C151.888 71.4203 151.578 70.502 151.578 69.3217C151.578 68.1003 151.893 67.1524 152.522 66.4779C153.151 65.8034 153.966 65.4662 154.969 65.4662C155.94 65.4662 156.733 65.7966 157.348 66.4574C157.963 67.1182 158.271 68.0479 158.271 69.2465C158.271 69.3194 158.268 69.4288 158.264 69.5746H152.85C152.895 70.3721 153.121 70.9828 153.527 71.4066C153.932 71.8304 154.438 72.0424 155.044 72.0424C155.495 72.0424 155.88 71.9239 156.199 71.6869C156.518 71.4499 156.771 71.0717 156.958 70.5521ZM152.918 68.5629H156.972C156.917 67.9522 156.762 67.4942 156.507 67.1888C156.115 66.7149 155.607 66.4779 154.983 66.4779C154.418 66.4779 153.941 66.667 153.554 67.0453C153.171 67.4235 152.959 67.9294 152.918 68.5629ZM163.651 72.89V62.8685H164.881V72.89H163.651ZM166.802 64.2836V62.8685H168.032V64.2836H166.802ZM166.802 72.89V65.6302H168.032V72.89H166.802ZM172.599 71.7894L172.777 72.8763C172.43 72.9493 172.12 72.9857 171.847 72.9857C171.4 72.9857 171.054 72.9151 170.808 72.7738C170.562 72.6325 170.389 72.448 170.288 72.2201C170.188 71.9877 170.138 71.5023 170.138 70.764V66.5873H169.236V65.6302H170.138V63.8324L171.362 63.0941V65.6302H172.599V66.5873H171.362V70.8324C171.362 71.1833 171.382 71.4089 171.423 71.5092C171.469 71.6094 171.539 71.6892 171.635 71.7484C171.735 71.8077 171.877 71.8373 172.059 71.8373C172.196 71.8373 172.376 71.8213 172.599 71.7894ZM176.495 71.7894L176.673 72.8763C176.327 72.9493 176.017 72.9857 175.743 72.9857C175.297 72.9857 174.95 72.9151 174.704 72.7738C174.458 72.6325 174.285 72.448 174.185 72.2201C174.085 71.9877 174.034 71.5023 174.034 70.764V66.5873H173.132V65.6302H174.034V63.8324L175.258 63.0941V65.6302H176.495V66.5873H175.258V70.8324C175.258 71.1833 175.279 71.4089 175.32 71.5092C175.365 71.6094 175.436 71.6892 175.531 71.7484C175.632 71.8077 175.773 71.8373 175.955 71.8373C176.092 71.8373 176.272 71.8213 176.495 71.7894ZM177.678 72.89V62.8685H178.908V72.89H177.678ZM185.792 70.5521L187.064 70.7094C186.863 71.4522 186.492 72.0287 185.949 72.4388C185.407 72.849 184.714 73.0541 183.871 73.0541C182.809 73.0541 181.966 72.7282 181.342 72.0765C180.722 71.4203 180.412 70.502 180.412 69.3217C180.412 68.1003 180.727 67.1524 181.356 66.4779C181.985 65.8034 182.8 65.4662 183.803 65.4662C184.774 65.4662 185.567 65.7966 186.182 66.4574C186.797 67.1182 187.105 68.0479 187.105 69.2465C187.105 69.3194 187.102 69.4288 187.098 69.5746H181.684C181.729 70.3721 181.955 70.9828 182.361 71.4066C182.766 71.8304 183.272 72.0424 183.878 72.0424C184.329 72.0424 184.714 71.9239 185.033 71.6869C185.352 71.4499 185.605 71.0717 185.792 70.5521ZM181.752 68.5629H185.806C185.751 67.9522 185.596 67.4942 185.341 67.1888C184.949 66.7149 184.441 66.4779 183.817 66.4779C183.252 66.4779 182.775 66.667 182.388 67.0453C182.005 67.4235 181.793 67.9294 181.752 68.5629ZM193.647 72.89H192.505V62.8685H193.736V66.4437C194.255 65.792 194.918 65.4662 195.725 65.4662C196.171 65.4662 196.593 65.5573 196.989 65.7396C197.39 65.9174 197.719 66.1703 197.974 66.4984C198.234 66.822 198.436 67.2139 198.582 67.6742C198.728 68.1345 198.801 68.6267 198.801 69.1508C198.801 70.3949 198.493 71.3565 197.878 72.0355C197.263 72.7146 196.525 73.0541 195.663 73.0541C194.807 73.0541 194.134 72.6963 193.647 71.9808V72.89ZM193.633 69.2054C193.633 70.0759 193.752 70.7048 193.988 71.0922C194.376 71.7256 194.9 72.0424 195.561 72.0424C196.099 72.0424 196.563 71.8099 196.955 71.3451C197.347 70.8757 197.543 70.1784 197.543 69.2533C197.543 68.3054 197.354 67.6058 196.976 67.1547C196.602 66.7035 196.149 66.4779 195.615 66.4779C195.078 66.4779 194.613 66.7126 194.221 67.182C193.829 67.6469 193.633 68.3213 193.633 69.2054ZM205.275 70.5521L206.546 70.7094C206.346 71.4522 205.974 72.0287 205.432 72.4388C204.89 72.849 204.197 73.0541 203.354 73.0541C202.292 73.0541 201.449 72.7282 200.824 72.0765C200.205 71.4203 199.895 70.502 199.895 69.3217C199.895 68.1003 200.209 67.1524 200.838 66.4779C201.467 65.8034 202.283 65.4662 203.285 65.4662C204.256 65.4662 205.049 65.7966 205.664 66.4574C206.279 67.1182 206.587 68.0479 206.587 69.2465C206.587 69.3194 206.585 69.4288 206.58 69.5746H201.166C201.212 70.3721 201.437 70.9828 201.843 71.4066C202.249 71.8304 202.754 72.0424 203.361 72.0424C203.812 72.0424 204.197 71.9239 204.516 71.6869C204.835 71.4499 205.088 71.0717 205.275 70.5521ZM201.235 68.5629H205.288C205.234 67.9522 205.079 67.4942 204.823 67.1888C204.432 66.7149 203.923 66.4779 203.299 66.4779C202.734 66.4779 202.258 66.667 201.87 67.0453C201.488 67.4235 201.276 67.9294 201.235 68.5629ZM207.872 73.4916L209.069 73.6693C209.119 74.0385 209.258 74.3073 209.486 74.476C209.791 74.7038 210.208 74.8177 210.737 74.8177C211.306 74.8177 211.746 74.7038 212.056 74.476C212.366 74.2481 212.575 73.9291 212.685 73.5189C212.749 73.2683 212.778 72.7419 212.774 71.9398C212.236 72.5733 211.566 72.89 210.764 72.89C209.766 72.89 208.993 72.53 208.446 71.8099C207.9 71.0899 207.626 70.2263 207.626 69.2191C207.626 68.5264 207.752 67.8884 208.002 67.3051C208.253 66.7172 208.615 66.2637 209.089 65.9447C209.568 65.6257 210.128 65.4662 210.771 65.4662C211.627 65.4662 212.334 65.8125 212.89 66.5052V65.6302H214.025V71.9056C214.025 73.0358 213.908 73.8357 213.676 74.3051C213.448 74.779 213.084 75.1527 212.582 75.4261C212.085 75.6996 211.473 75.8363 210.743 75.8363C209.877 75.8363 209.178 75.6403 208.645 75.2484C208.112 74.861 207.854 74.2754 207.872 73.4916ZM208.891 69.1302C208.891 70.0827 209.08 70.7777 209.458 71.2152C209.836 71.6527 210.31 71.8715 210.88 71.8715C211.445 71.8715 211.919 71.655 212.302 71.222C212.685 70.7845 212.876 70.101 212.876 69.1713C212.876 68.2826 212.678 67.6127 212.281 67.1615C211.89 66.7103 211.416 66.4847 210.86 66.4847C210.313 66.4847 209.848 66.708 209.465 67.1547C209.082 67.5967 208.891 68.2552 208.891 69.1302ZM215.898 64.2836V62.8685H217.128V64.2836H215.898ZM215.898 72.89V65.6302H217.128V72.89H215.898ZM219.008 72.89V65.6302H220.115V66.6625C220.649 65.8649 221.419 65.4662 222.426 65.4662C222.863 65.4662 223.265 65.5459 223.629 65.7054C223.998 65.8604 224.274 66.0655 224.456 66.3207C224.639 66.5759 224.766 66.8789 224.839 67.2299C224.885 67.4577 224.907 67.8565 224.907 68.4261V72.89H223.677V68.474C223.677 67.9727 223.629 67.599 223.533 67.3529C223.438 67.1023 223.267 66.904 223.021 66.7582C222.779 66.6078 222.494 66.5326 222.166 66.5326C221.642 66.5326 221.189 66.6989 220.806 67.0316C220.428 67.3643 220.238 67.9955 220.238 68.9252V72.89H219.008ZM226.801 72.89V65.6302H227.908V66.6625C228.442 65.8649 229.212 65.4662 230.219 65.4662C230.656 65.4662 231.057 65.5459 231.422 65.7054C231.791 65.8604 232.067 66.0655 232.249 66.3207C232.432 66.5759 232.559 66.8789 232.632 67.2299C232.678 67.4577 232.7 67.8565 232.7 68.4261V72.89H231.47V68.474C231.47 67.9727 231.422 67.599 231.326 67.3529C231.231 67.1023 231.06 66.904 230.814 66.7582C230.572 66.6078 230.287 66.5326 229.959 66.5326C229.435 66.5326 228.982 66.6989 228.599 67.0316C228.221 67.3643 228.031 67.9955 228.031 68.9252V72.89H226.801ZM234.601 64.2836V62.8685H235.831V64.2836H234.601ZM234.601 72.89V65.6302H235.831V72.89H234.601ZM237.711 72.89V65.6302H238.819V66.6625C239.352 65.8649 240.122 65.4662 241.129 65.4662C241.567 65.4662 241.968 65.5459 242.332 65.7054C242.701 65.8604 242.977 66.0655 243.159 66.3207C243.342 66.5759 243.469 66.8789 243.542 67.2299C243.588 67.4577 243.611 67.8565 243.611 68.4261V72.89H242.38V68.474C242.38 67.9727 242.332 67.599 242.237 67.3529C242.141 67.1023 241.97 66.904 241.724 66.7582C241.482 66.6078 241.197 66.5326 240.869 66.5326C240.345 66.5326 239.892 66.6989 239.509 67.0316C239.131 67.3643 238.942 67.9955 238.942 68.9252V72.89H237.711ZM245.279 73.4916L246.475 73.6693C246.525 74.0385 246.664 74.3073 246.892 74.476C247.197 74.7038 247.614 74.8177 248.143 74.8177C248.712 74.8177 249.152 74.7038 249.462 74.476C249.772 74.2481 249.982 73.9291 250.091 73.5189C250.155 73.2683 250.184 72.7419 250.18 71.9398C249.642 72.5733 248.972 72.89 248.17 72.89C247.172 72.89 246.4 72.53 245.853 71.8099C245.306 71.0899 245.032 70.2263 245.032 69.2191C245.032 68.5264 245.158 67.8884 245.408 67.3051C245.659 66.7172 246.021 66.2637 246.495 65.9447C246.974 65.6257 247.534 65.4662 248.177 65.4662C249.034 65.4662 249.74 65.8125 250.296 66.5052V65.6302H251.431V71.9056C251.431 73.0358 251.315 73.8357 251.082 74.3051C250.854 74.779 250.49 75.1527 249.988 75.4261C249.492 75.6996 248.879 75.8363 248.15 75.8363C247.284 75.8363 246.584 75.6403 246.051 75.2484C245.518 74.861 245.26 74.2754 245.279 73.4916ZM246.297 69.1302C246.297 70.0827 246.486 70.7777 246.864 71.2152C247.243 71.6527 247.717 71.8715 248.286 71.8715C248.851 71.8715 249.325 71.655 249.708 71.222C250.091 70.7845 250.282 70.101 250.282 69.1713C250.282 68.2826 250.084 67.6127 249.688 67.1615C249.296 66.7103 248.822 66.4847 248.266 66.4847C247.719 66.4847 247.254 66.708 246.871 67.1547C246.488 67.5967 246.297 68.2552 246.297 69.1302ZM252.805 70.723L254.022 70.5316C254.09 71.0192 254.279 71.3929 254.589 71.6527C254.904 71.9125 255.341 72.0424 255.902 72.0424C256.467 72.0424 256.886 71.9284 257.159 71.7006C257.433 71.4681 257.57 71.197 257.57 70.8871C257.57 70.6091 257.449 70.3903 257.207 70.2308C257.039 70.1215 256.619 69.9825 255.949 69.8138C255.047 69.586 254.42 69.39 254.07 69.226C253.723 69.0573 253.459 68.8272 253.277 68.5355C253.099 68.2393 253.01 67.9135 253.01 67.558C253.01 67.2344 253.083 66.9359 253.229 66.6625C253.379 66.3845 253.582 66.1543 253.837 65.972C254.029 65.8308 254.288 65.7123 254.616 65.6166C254.949 65.5163 255.305 65.4662 255.683 65.4662C256.252 65.4662 256.752 65.5482 257.18 65.7123C257.613 65.8763 257.932 66.0997 258.137 66.3822C258.342 66.6602 258.483 67.0339 258.561 67.5033L257.358 67.6674C257.303 67.2937 257.143 67.002 256.879 66.7924C256.619 66.5827 256.25 66.4779 255.772 66.4779C255.207 66.4779 254.803 66.5713 254.562 66.7582C254.32 66.945 254.199 67.1638 254.199 67.4144C254.199 67.5739 254.25 67.7175 254.35 67.8451C254.45 67.9773 254.607 68.0866 254.821 68.1732C254.945 68.2188 255.307 68.3236 255.908 68.4877C256.779 68.7201 257.385 68.9115 257.727 69.0619C258.073 69.2077 258.344 69.4219 258.54 69.7045C258.736 69.987 258.834 70.3379 258.834 70.7572C258.834 71.1674 258.713 71.5547 258.472 71.9193C258.235 72.2793 257.891 72.5596 257.44 72.7601C256.988 72.9561 256.478 73.0541 255.908 73.0541C254.965 73.0541 254.245 72.8581 253.748 72.4662C253.256 72.0743 252.942 71.4932 252.805 70.723Z" fill="#6B7280"/>
<path d="M109.545 50L99.285 13.442L104.361 11.822L112.893 44.546L120.939 16.142H127.365L135.357 44.546L143.835 11.984L148.587 13.442L138.381 50H132.009L124.017 21.596L115.917 50H109.545ZM163.928 50.648C161.264 50.648 158.87 50.036 156.746 48.812C154.622 47.552 152.948 45.824 151.724 43.628C150.536 41.396 149.942 38.84 149.942 35.96C149.942 32.936 150.554 30.326 151.778 28.13C153.002 25.934 154.676 24.242 156.8 23.054C158.924 21.866 161.3 21.272 163.928 21.272C166.556 21.272 168.914 21.866 171.002 23.054C173.126 24.242 174.8 25.934 176.024 28.13C177.284 30.29 177.914 32.864 177.914 35.852C177.914 38.84 177.302 41.45 176.078 43.682C174.854 45.878 173.18 47.588 171.056 48.812C168.968 50.036 166.592 50.648 163.928 50.648ZM163.928 46.328C166.772 46.328 168.986 45.374 170.57 43.466C172.154 41.522 172.946 39.02 172.946 35.96C172.946 34.088 172.55 32.378 171.758 30.83C170.966 29.246 169.886 27.986 168.518 27.05C167.186 26.078 165.656 25.592 163.928 25.592C161.084 25.592 158.87 26.528 157.286 28.4C155.702 30.272 154.91 32.756 154.91 35.852C154.91 37.724 155.306 39.47 156.098 41.09C156.89 42.674 157.952 43.952 159.284 44.924C160.652 45.86 162.2 46.328 163.928 46.328ZM184.375 50V21.92H189.073V26.618C190.081 25.106 191.359 23.846 192.907 22.838C194.455 21.794 196.219 21.272 198.199 21.272C200.431 21.272 202.249 21.812 203.653 22.892C205.093 23.972 206.101 25.412 206.677 27.212C207.793 25.556 209.107 24.152 210.619 23C212.167 21.848 214.075 21.272 216.343 21.272C219.403 21.272 221.671 22.244 223.147 24.188C224.659 26.096 225.415 28.598 225.415 31.694V50H220.555V32.072C220.555 30.128 220.105 28.562 219.205 27.374C218.305 26.15 217.063 25.538 215.479 25.538C213.859 25.538 212.347 26.15 210.943 27.374C209.575 28.562 208.369 29.966 207.325 31.586V50H202.465V32.072C202.465 30.128 202.015 28.562 201.115 27.374C200.215 26.15 198.973 25.538 197.389 25.538C195.805 25.538 194.311 26.132 192.907 27.32C191.503 28.472 190.279 29.84 189.235 31.424V50H184.375ZM246.423 50.648C244.803 50.648 243.273 50.36 241.833 49.784C240.429 49.172 239.259 48.47 238.323 47.678V50H233.787V10.04H238.647V24.836C239.367 24.008 240.411 23.216 241.779 22.46C243.183 21.668 244.839 21.272 246.747 21.272C248.907 21.272 250.923 21.848 252.795 23C254.703 24.116 256.233 25.754 257.385 27.914C258.537 30.038 259.113 32.63 259.113 35.69C259.113 37.922 258.753 39.956 258.033 41.792C257.313 43.628 256.341 45.212 255.117 46.544C253.929 47.84 252.579 48.848 251.067 49.568C249.555 50.288 248.007 50.648 246.423 50.648ZM245.127 46.328C246.891 46.328 248.439 45.896 249.771 45.032C251.139 44.168 252.201 42.944 252.957 41.36C253.749 39.776 254.145 37.94 254.145 35.852C254.145 33.692 253.749 31.838 252.957 30.29C252.201 28.742 251.175 27.554 249.879 26.726C248.619 25.898 247.215 25.484 245.667 25.484C244.119 25.484 242.715 25.88 241.455 26.672C240.231 27.428 239.295 28.256 238.647 29.156V44.168C239.475 44.816 240.447 45.338 241.563 45.734C242.679 46.13 243.867 46.328 245.127 46.328ZM274.382 50.648C272.726 50.648 271.232 50.342 269.9 49.73C268.568 49.082 267.506 48.056 266.714 46.652C265.958 45.248 265.58 43.43 265.58 41.198V10.04H270.44V40.712C270.44 42.656 270.836 44.096 271.628 45.032C272.456 45.968 273.59 46.436 275.03 46.436C275.714 46.436 276.38 46.364 277.028 46.22C277.712 46.04 278.288 45.842 278.756 45.626L279.944 49.568C279.296 49.856 278.486 50.108 277.514 50.324C276.578 50.54 275.534 50.648 274.382 50.648ZM283.058 62.528C281.978 62.528 281.024 62.42 280.196 62.204C279.404 61.988 278.774 61.736 278.306 61.448L279.386 57.398C279.818 57.65 280.358 57.866 281.006 58.046C281.654 58.226 282.374 58.316 283.166 58.316C284.678 58.316 286.028 57.83 287.216 56.858C288.404 55.886 289.538 53.978 290.618 51.134L291.86 47.894H289.268L278.306 23.216L282.626 21.272L293.102 44.654L301.256 21.488L305.738 23.216L295.424 51.404C294.38 54.284 293.246 56.534 292.022 58.154C290.798 59.774 289.448 60.908 287.972 61.556C286.496 62.204 284.858 62.528 283.058 62.528Z" fill="#9B7077"/>
</svg>
