<svg width="253" height="125" viewBox="0 0 253 125" fill="none" xmlns="http://www.w3.org/2000/svg">
<path d="M75 85L115 45L75 85Z" fill="black"/>
<path d="M75 85L115 45" stroke="#4B72B8" stroke-width="12" stroke-linecap="round"/>
<path d="M135 50C148.807 50 160 38.8071 160 25C160 11.1929 148.807 0 135 0C121.193 0 110 11.1929 110 25C110 38.8071 121.193 50 135 50Z" fill="#4B72B8"/>
<path d="M60 95C58.1232 97.1281 55.815 98.8325 53.2288 100C50.6425 101.167 47.8375 101.771 45 101.771C42.1625 101.771 39.3575 101.167 36.7712 100C34.185 98.8325 31.8768 97.1281 30 95C28.1232 97.1281 25.815 98.8325 23.2288 100C20.6425 101.167 17.8375 101.771 15 101.771C12.1625 101.771 9.35746 101.167 6.77124 100C4.18503 98.8325 1.87684 97.1281 0 95L30 125L60 95Z" fill="#FF6B6B"/>
<path d="M48.5781 101V72.4531H38.3828V66.6406H65.6875V72.4531H55.5156V101H48.5781ZM69.25 72.7344V66.6406H75.8359V72.7344H69.25ZM69.25 101V76.1094H75.8359V101H69.25ZM105.25 101H98.6641V88.2969C98.6641 85.6094 98.5234 83.875 98.2422 83.0938C97.9609 82.2969 97.5 81.6797 96.8594 81.2422C96.2344 80.8047 95.4766 80.5859 94.5859 80.5859C93.4453 80.5859 92.4219 80.8984 91.5156 81.5234C90.6094 82.1484 89.9844 82.9766 89.6406 84.0078C89.3125 85.0391 89.1484 86.9453 89.1484 89.7266V101H82.5625V76.1094H88.6797V79.7656C90.8516 76.9531 93.5859 75.5469 96.8828 75.5469C98.3359 75.5469 99.6641 75.8125 100.867 76.3438C102.07 76.8594 102.977 77.5234 103.586 78.3359C104.211 79.1484 104.641 80.0703 104.875 81.1016C105.125 82.1328 105.25 83.6094 105.25 85.5312V101ZM108.836 76.1094H115.844L121.797 93.7812L127.609 76.1094H134.43L125.641 100.062L124.07 104.398C123.492 105.852 122.938 106.961 122.406 107.727C121.891 108.492 121.289 109.109 120.602 109.578C119.93 110.062 119.094 110.438 118.094 110.703C117.109 110.969 115.992 111.102 114.742 111.102C113.477 111.102 112.234 110.969 111.016 110.703L110.43 105.547C111.461 105.75 112.391 105.852 113.219 105.852C114.75 105.852 115.883 105.398 116.617 104.492C117.352 103.602 117.914 102.461 118.305 101.07L108.836 76.1094Z" fill="#2C3E50"/>
<path d="M146.453 101V72.4531H136.258V66.6406H163.562V72.4531H153.391V101H146.453ZM171.648 101H165.062V76.1094H171.18V79.6484C172.227 77.9766 173.164 76.875 173.992 76.3438C174.836 75.8125 175.789 75.5469 176.852 75.5469C178.352 75.5469 179.797 75.9609 181.188 76.7891L179.148 82.5312C178.039 81.8125 177.008 81.4531 176.055 81.4531C175.133 81.4531 174.352 81.7109 173.711 82.2266C173.07 82.7266 172.562 83.6406 172.188 84.9688C171.828 86.2969 171.648 89.0781 171.648 93.3125V101ZM200.43 101V97.2734C199.523 98.6016 198.328 99.6484 196.844 100.414C195.375 101.18 193.82 101.562 192.18 101.562C190.508 101.562 189.008 101.195 187.68 100.461C186.352 99.7266 185.391 98.6953 184.797 97.3672C184.203 96.0391 183.906 94.2031 183.906 91.8594V76.1094H190.492V87.5469C190.492 91.0469 190.609 93.1953 190.844 93.9922C191.094 94.7734 191.539 95.3984 192.18 95.8672C192.82 96.3203 193.633 96.5469 194.617 96.5469C195.742 96.5469 196.75 96.2422 197.641 95.6328C198.531 95.0078 199.141 94.2422 199.469 93.3359C199.797 92.4141 199.961 90.1719 199.961 86.6094V76.1094H206.547V101H200.43ZM211.07 93.8984L217.68 92.8906C217.961 94.1719 218.531 95.1484 219.391 95.8203C220.25 96.4766 221.453 96.8047 223 96.8047C224.703 96.8047 225.984 96.4922 226.844 95.8672C227.422 95.4297 227.711 94.8438 227.711 94.1094C227.711 93.6094 227.555 93.1953 227.242 92.8672C226.914 92.5547 226.18 92.2656 225.039 92C219.727 90.8281 216.359 89.7578 214.938 88.7891C212.969 87.4453 211.984 85.5781 211.984 83.1875C211.984 81.0312 212.836 79.2188 214.539 77.75C216.242 76.2812 218.883 75.5469 222.461 75.5469C225.867 75.5469 228.398 76.1016 230.055 77.2109C231.711 78.3203 232.852 79.9609 233.477 82.1328L227.266 83.2812C227 82.3125 226.492 81.5703 225.742 81.0547C225.008 80.5391 223.953 80.2812 222.578 80.2812C220.844 80.2812 219.602 80.5234 218.852 81.0078C218.352 81.3516 218.102 81.7969 218.102 82.3438C218.102 82.8125 218.32 83.2109 218.758 83.5391C219.352 83.9766 221.398 84.5938 224.898 85.3906C228.414 86.1875 230.867 87.1641 232.258 88.3203C233.633 89.4922 234.32 91.125 234.32 93.2188C234.32 95.5 233.367 97.4609 231.461 99.1016C229.555 100.742 226.734 101.562 223 101.562C219.609 101.562 216.922 100.875 214.938 99.5C212.969 98.125 211.68 96.2578 211.07 93.8984ZM251.523 76.1094V81.3594H247.023V91.3906C247.023 93.4219 247.062 94.6094 247.141 94.9531C247.234 95.2812 247.43 95.5547 247.727 95.7734C248.039 95.9922 248.414 96.1016 248.852 96.1016C249.461 96.1016 250.344 95.8906 251.5 95.4688L252.062 100.578C250.531 101.234 248.797 101.562 246.859 101.562C245.672 101.562 244.602 101.367 243.648 100.977C242.695 100.57 241.992 100.055 241.539 99.4297C241.102 98.7891 240.797 97.9297 240.625 96.8516C240.484 96.0859 240.414 94.5391 240.414 92.2109V81.3594H237.391V76.1094H240.414V71.1641L247.023 67.3203V76.1094H251.523Z" fill="#4B72B8"/>
</svg>
