<svg width="381" height="90" viewBox="0 0 381 90" fill="none" xmlns="http://www.w3.org/2000/svg">
<path d="M60 15C60 15 45 0 30 0C10 0 0 20 0 30C0 45 15 60 30 70C45 80 60 90 60 90C60 90 75 80 90 70C105 60 120 45 120 30C120 20 110 0 90 0C75 0 60 15 60 15Z" fill="#FF9BBD"/>
<path d="M45 40C45 40 50 30 60 30C70 30 75 35 75 45C75 55 65 65 55 65C50 65 45 60 45 55V40Z" fill="white"/>
<path d="M162.191 49.959C160.15 51.8268 157.54 52.7607 154.361 52.7607C150.428 52.7607 147.335 51.499 145.084 48.9756C142.833 46.4398 141.707 42.9639 141.707 38.5479C141.707 33.7731 142.987 30.0931 145.548 27.5078C147.774 25.2565 150.607 24.1309 154.046 24.1309C158.647 24.1309 162.012 25.64 164.14 28.6582C165.315 30.3529 165.946 32.0537 166.032 33.7607H160.317C159.946 32.4495 159.47 31.46 158.889 30.792C157.85 29.6045 156.31 29.0107 154.269 29.0107C152.19 29.0107 150.551 29.8519 149.352 31.5342C148.152 33.2041 147.552 35.5729 147.552 38.6406C147.552 41.7083 148.183 44.0091 149.444 45.543C150.718 47.0645 152.333 47.8252 154.287 47.8252C156.291 47.8252 157.819 47.1696 158.87 45.8584C159.451 45.1533 159.934 44.0957 160.317 42.6855H165.977C165.482 45.6667 164.22 48.0911 162.191 49.959ZM182.898 49.1426C182.849 49.2044 182.725 49.39 182.527 49.6992C182.329 50.0085 182.094 50.2806 181.822 50.5156C180.993 51.2578 180.189 51.765 179.41 52.0371C178.643 52.3092 177.74 52.4453 176.701 52.4453C173.708 52.4453 171.691 51.3691 170.652 49.2168C170.071 48.0293 169.78 46.279 169.78 43.9658V31.7754H175.198V43.9658C175.198 45.1162 175.334 45.9821 175.606 46.5635C176.089 47.5902 177.035 48.1035 178.445 48.1035C180.251 48.1035 181.488 47.3737 182.156 45.9141C182.503 45.1224 182.676 44.0771 182.676 42.7783V31.7754H188.038V52H182.898V49.1426ZM211.565 24.6875V52H206.426V49.1982C205.671 50.3981 204.812 51.2702 203.847 51.8145C202.882 52.3587 201.682 52.6309 200.247 52.6309C197.884 52.6309 195.893 51.6784 194.272 49.7734C192.664 47.8561 191.86 45.4007 191.86 42.4072C191.86 38.9561 192.652 36.2409 194.235 34.2617C195.831 32.2826 197.959 31.293 200.618 31.293C201.843 31.293 202.931 31.5651 203.884 32.1094C204.836 32.6413 205.609 33.3835 206.203 34.3359V24.6875H211.565ZM197.315 42.0176C197.315 43.8854 197.687 45.376 198.429 46.4893C199.159 47.6149 200.272 48.1777 201.769 48.1777C203.265 48.1777 204.403 47.6211 205.183 46.5078C205.962 45.3945 206.352 43.9535 206.352 42.1846C206.352 39.7106 205.727 37.9417 204.478 36.8779C203.711 36.2347 202.82 35.9131 201.806 35.9131C200.259 35.9131 199.121 36.5007 198.392 37.6758C197.674 38.8385 197.315 40.2858 197.315 42.0176ZM234.796 24.6875V52H229.656V49.1982C228.902 50.3981 228.042 51.2702 227.077 51.8145C226.112 52.3587 224.912 52.6309 223.478 52.6309C221.115 52.6309 219.123 51.6784 217.503 49.7734C215.895 47.8561 215.091 45.4007 215.091 42.4072C215.091 38.9561 215.882 36.2409 217.466 34.2617C219.062 32.2826 221.189 31.293 223.849 31.293C225.073 31.293 226.162 31.5651 227.114 32.1094C228.067 32.6413 228.84 33.3835 229.434 34.3359V24.6875H234.796ZM220.546 42.0176C220.546 43.8854 220.917 45.376 221.659 46.4893C222.389 47.6149 223.502 48.1777 224.999 48.1777C226.496 48.1777 227.634 47.6211 228.413 46.5078C229.192 45.3945 229.582 43.9535 229.582 42.1846C229.582 39.7106 228.957 37.9417 227.708 36.8779C226.941 36.2347 226.05 35.9131 225.036 35.9131C223.49 35.9131 222.352 36.5007 221.622 37.6758C220.905 38.8385 220.546 40.2858 220.546 42.0176ZM239.731 24.6504H245.02V52H239.731V24.6504ZM267.508 46.0625C267.372 47.2624 266.747 48.4808 265.634 49.7178C263.902 51.6846 261.478 52.668 258.36 52.668C255.787 52.668 253.518 51.8392 251.551 50.1816C249.584 48.5241 248.601 45.8275 248.601 42.0918C248.601 38.5911 249.485 35.9069 251.254 34.0391C253.035 32.1712 255.342 31.2373 258.175 31.2373C259.857 31.2373 261.372 31.5527 262.721 32.1836C264.069 32.8145 265.182 33.8102 266.061 35.1709C266.852 36.3708 267.366 37.7624 267.601 39.3457C267.737 40.2734 267.792 41.6094 267.768 43.3535H253.926C254 45.3822 254.637 46.8047 255.837 47.6211C256.567 48.1283 257.445 48.3818 258.472 48.3818C259.56 48.3818 260.445 48.0726 261.125 47.4541C261.496 47.1201 261.824 46.6562 262.108 46.0625H267.508ZM262.275 39.8652C262.189 38.4674 261.762 37.4098 260.995 36.6924C260.241 35.9626 259.3 35.5977 258.175 35.5977C256.95 35.5977 255.998 35.9811 255.317 36.748C254.649 37.515 254.229 38.554 254.056 39.8652H262.275ZM318.533 49.959C316.492 51.8268 313.882 52.7607 310.703 52.7607C306.77 52.7607 303.677 51.499 301.426 48.9756C299.174 46.4398 298.049 42.9639 298.049 38.5479C298.049 33.7731 299.329 30.0931 301.89 27.5078C304.116 25.2565 306.949 24.1309 310.388 24.1309C314.989 24.1309 318.354 25.64 320.481 28.6582C321.657 30.3529 322.287 32.0537 322.374 33.7607H316.659C316.288 32.4495 315.812 31.46 315.23 30.792C314.191 29.6045 312.651 29.0107 310.61 29.0107C308.532 29.0107 306.893 29.8519 305.693 31.5342C304.493 33.2041 303.894 35.5729 303.894 38.6406C303.894 41.7083 304.524 44.0091 305.786 45.543C307.06 47.0645 308.674 47.8252 310.629 47.8252C312.633 47.8252 314.16 47.1696 315.212 45.8584C315.793 45.1533 316.276 44.0957 316.659 42.6855H322.318C321.824 45.6667 320.562 48.0911 318.533 49.959ZM327.031 33.9648C328.429 32.1836 330.829 31.293 334.23 31.293C336.445 31.293 338.411 31.7321 340.131 32.6104C341.85 33.4886 342.71 35.1462 342.71 37.583V46.8604C342.71 47.5036 342.722 48.2829 342.747 49.1982C342.784 49.891 342.889 50.361 343.062 50.6084C343.236 50.8558 343.495 51.0599 343.842 51.2207V52H338.09C337.929 51.5918 337.818 51.2083 337.756 50.8496C337.694 50.4909 337.645 50.0827 337.607 49.625C336.878 50.4167 336.036 51.0908 335.084 51.6475C333.946 52.3031 332.66 52.6309 331.225 52.6309C329.394 52.6309 327.879 52.1113 326.679 51.0723C325.491 50.0208 324.897 48.5365 324.897 46.6191C324.897 44.1328 325.856 42.333 327.773 41.2197C328.825 40.6136 330.371 40.1807 332.412 39.9209L334.212 39.6982C335.189 39.5745 335.888 39.4199 336.309 39.2344C337.063 38.9128 337.44 38.4118 337.44 37.7314C337.44 36.9027 337.15 36.3337 336.568 36.0244C335.999 35.7028 335.158 35.542 334.045 35.542C332.796 35.542 331.911 35.8512 331.392 36.4697C331.021 36.9274 330.773 37.5459 330.649 38.3252H325.547C325.658 36.5563 326.153 35.1029 327.031 33.9648ZM330.965 48.1777C331.46 48.5859 332.066 48.79 332.783 48.79C333.921 48.79 334.966 48.4561 335.919 47.7881C336.884 47.1201 337.385 45.9017 337.422 44.1328V42.166C337.088 42.3763 336.748 42.5495 336.401 42.6855C336.067 42.8092 335.604 42.9268 335.01 43.0381L333.822 43.2607C332.709 43.4587 331.911 43.6999 331.429 43.9844C330.612 44.4668 330.204 45.2152 330.204 46.2295C330.204 47.1325 330.458 47.7819 330.965 48.1777ZM357.591 36.6553C355.463 36.6553 354.035 37.348 353.305 38.7334C352.896 39.5127 352.692 40.7126 352.692 42.333V52H347.367V31.7754H352.414V35.3008C353.23 33.9525 353.942 33.0309 354.548 32.5361C355.537 31.7074 356.824 31.293 358.407 31.293C358.506 31.293 358.587 31.2992 358.648 31.3115C358.723 31.3115 358.877 31.3177 359.112 31.3301V36.748C358.778 36.7109 358.481 36.6862 358.222 36.6738C357.962 36.6615 357.752 36.6553 357.591 36.6553ZM379.541 46.0625C379.405 47.2624 378.78 48.4808 377.667 49.7178C375.935 51.6846 373.511 52.668 370.394 52.668C367.821 52.668 365.551 51.8392 363.584 50.1816C361.617 48.5241 360.634 45.8275 360.634 42.0918C360.634 38.5911 361.518 35.9069 363.287 34.0391C365.068 32.1712 367.375 31.2373 370.208 31.2373C371.89 31.2373 373.406 31.5527 374.754 32.1836C376.102 32.8145 377.215 33.8102 378.094 35.1709C378.885 36.3708 379.399 37.7624 379.634 39.3457C379.77 40.2734 379.826 41.6094 379.801 43.3535H365.959C366.033 45.3822 366.67 46.8047 367.87 47.6211C368.6 48.1283 369.478 48.3818 370.505 48.3818C371.593 48.3818 372.478 48.0726 373.158 47.4541C373.529 47.1201 373.857 46.6562 374.142 46.0625H379.541ZM374.309 39.8652C374.222 38.4674 373.795 37.4098 373.028 36.6924C372.274 35.9626 371.334 35.5977 370.208 35.5977C368.983 35.5977 368.031 35.9811 367.351 36.748C366.683 37.515 366.262 38.554 366.089 39.8652H374.309Z" fill="#4A4A4A"/>
<path d="M279.772 52.668C277.002 52.668 274.837 51.8516 273.278 50.2188C271.72 48.5859 270.94 46.7738 270.94 44.7822C270.94 43.137 271.349 41.7269 272.165 40.5518C272.981 39.3766 274.317 38.2139 276.173 37.0635L276.748 36.7109C275.956 35.8203 275.344 34.9111 274.911 33.9834C274.478 33.0557 274.262 32.0908 274.262 31.0889C274.262 29.0973 274.93 27.5449 276.266 26.4316C277.602 25.306 279.333 24.7432 281.461 24.7432C283.403 24.7432 285.005 25.3184 286.267 26.4688C287.541 27.6068 288.178 29.0664 288.178 30.8477C288.178 32.4557 287.794 33.7607 287.027 34.7627C286.273 35.7646 285.16 36.6924 283.688 37.5459L287.565 42.333C288.011 41.6898 288.351 40.9909 288.586 40.2363C288.833 39.4818 288.963 38.6839 288.976 37.8428H293.67C293.596 39.5003 293.2 41.1764 292.482 42.8711C292.087 43.8236 291.443 44.875 290.553 46.0254L295.525 52H289.105L287.213 49.6807C286.298 50.5342 285.444 51.165 284.652 51.5732C283.242 52.3031 281.616 52.668 279.772 52.668ZM279.476 40.0879C278.152 40.9661 277.274 41.7393 276.841 42.4072C276.42 43.0752 276.21 43.8112 276.21 44.6152C276.21 45.5182 276.575 46.347 277.305 47.1016C278.047 47.8561 278.993 48.2334 280.144 48.2334C281.009 48.2334 281.826 48.0355 282.593 47.6396C283.372 47.2314 284.003 46.7799 284.485 46.2852L279.476 40.0879ZM279.123 30.9033C279.123 31.3981 279.296 31.9176 279.643 32.4619C279.865 32.8206 280.348 33.4577 281.09 34.373C281.832 33.8535 282.364 33.4144 282.686 33.0557C283.304 32.3877 283.613 31.6641 283.613 30.8848C283.613 30.3158 283.428 29.8086 283.057 29.3633C282.686 28.918 282.123 28.6953 281.368 28.6953C280.898 28.6953 280.459 28.8252 280.051 29.085C279.432 29.4684 279.123 30.0745 279.123 30.9033Z" fill="#FF9BBD"/>
<path d="M150.254 73.9727L149.57 74.7998L148.019 73.6172C147.645 73.8223 147.239 73.9863 146.802 74.1094C146.369 74.2324 145.895 74.2939 145.38 74.2939C143.821 74.2939 142.6 73.7835 141.716 72.7627C140.937 71.7692 140.547 70.5251 140.547 69.0303C140.547 67.6722 140.884 66.5101 141.559 65.5439C142.424 64.3044 143.705 63.6846 145.4 63.6846C147.173 63.6846 148.486 64.2542 149.338 65.3936C150.003 66.2822 150.336 67.4193 150.336 68.8047C150.336 69.4518 150.256 70.0739 150.097 70.6709C149.855 71.5824 149.447 72.3252 148.873 72.8994L150.254 73.9727ZM145.544 73.0771C145.826 73.0771 146.091 73.0589 146.337 73.0225C146.583 72.9814 146.797 72.904 146.979 72.79L145.879 71.9287L146.562 71.0879L147.875 72.1064C148.29 71.6325 148.57 71.1016 148.716 70.5137C148.866 69.9258 148.941 69.363 148.941 68.8252C148.941 67.6449 148.632 66.6947 148.012 65.9746C147.396 65.2546 146.553 64.8945 145.482 64.8945C144.398 64.8945 143.539 65.2409 142.905 65.9336C142.272 66.6217 141.955 67.6836 141.955 69.1191C141.955 70.3268 142.258 71.2884 142.864 72.0039C143.475 72.7194 144.368 73.0771 145.544 73.0771ZM153.029 66.6787V71.5391C153.029 71.9128 153.089 72.2181 153.207 72.4551C153.426 72.8926 153.834 73.1113 154.431 73.1113C155.287 73.1113 155.871 72.7285 156.181 71.9629C156.349 71.5527 156.434 70.9899 156.434 70.2744V66.6787H157.664V74H156.502L156.516 72.9199C156.356 73.1979 156.158 73.4326 155.921 73.624C155.451 74.0068 154.882 74.1982 154.212 74.1982C153.168 74.1982 152.457 73.8496 152.079 73.1523C151.874 72.7786 151.771 72.2796 151.771 71.6553V66.6787H153.029ZM160.535 72.0518C160.535 72.4072 160.665 72.6875 160.925 72.8926C161.185 73.0977 161.492 73.2002 161.848 73.2002C162.281 73.2002 162.7 73.0999 163.105 72.8994C163.789 72.5667 164.131 72.0221 164.131 71.2656V70.2744C163.98 70.3701 163.787 70.4499 163.55 70.5137C163.313 70.5775 163.08 70.623 162.853 70.6504L162.107 70.7461C161.661 70.8053 161.326 70.8988 161.103 71.0264C160.724 71.2406 160.535 71.5824 160.535 72.0518ZM163.516 69.5635C163.798 69.527 163.987 69.4085 164.083 69.208C164.138 69.0986 164.165 68.9414 164.165 68.7363C164.165 68.3171 164.015 68.014 163.714 67.8271C163.418 67.6357 162.992 67.54 162.436 67.54C161.793 67.54 161.337 67.7132 161.068 68.0596C160.918 68.251 160.82 68.5358 160.774 68.9141H159.626C159.649 68.0117 159.94 67.3851 160.501 67.0342C161.066 66.6787 161.72 66.501 162.463 66.501C163.324 66.501 164.024 66.665 164.562 66.9932C165.095 67.3213 165.361 67.8317 165.361 68.5244V72.7422C165.361 72.8698 165.386 72.9723 165.437 73.0498C165.491 73.1273 165.603 73.166 165.771 73.166C165.826 73.166 165.888 73.1637 165.956 73.1592C166.024 73.1501 166.097 73.1387 166.175 73.125V74.0342C165.983 74.0889 165.838 74.123 165.737 74.1367C165.637 74.1504 165.5 74.1572 165.327 74.1572C164.903 74.1572 164.596 74.0068 164.404 73.7061C164.304 73.5465 164.233 73.321 164.192 73.0293C163.942 73.3574 163.582 73.6423 163.112 73.8838C162.643 74.1253 162.126 74.2461 161.561 74.2461C160.882 74.2461 160.326 74.041 159.893 73.6309C159.464 73.2161 159.25 72.6989 159.25 72.0791C159.25 71.4001 159.462 70.8737 159.886 70.5C160.31 70.1263 160.866 69.8962 161.554 69.8096L163.516 69.5635ZM167.419 63.958H168.649V74H167.419V63.958ZM170.502 66.7129H171.753V74H170.502V66.7129ZM170.502 63.958H171.753V65.3525H170.502V63.958ZM173.865 64.6348H175.109V66.6787H176.278V67.6836H175.109V72.4619C175.109 72.7171 175.196 72.888 175.369 72.9746C175.465 73.0247 175.624 73.0498 175.848 73.0498C175.907 73.0498 175.971 73.0498 176.039 73.0498C176.107 73.0452 176.187 73.0384 176.278 73.0293V74C176.137 74.041 175.989 74.0706 175.834 74.0889C175.684 74.1071 175.52 74.1162 175.342 74.1162C174.768 74.1162 174.378 73.9704 174.173 73.6787C173.968 73.3825 173.865 72.9997 173.865 72.5303V67.6836H172.874V66.6787H173.865V64.6348ZM182.089 66.6787H183.449C183.276 67.1481 182.891 68.2191 182.294 69.8916C181.847 71.1494 181.474 72.1748 181.173 72.9678C180.462 74.8363 179.961 75.9756 179.669 76.3857C179.377 76.7959 178.876 77.001 178.165 77.001C177.992 77.001 177.857 76.9941 177.762 76.9805C177.671 76.9668 177.557 76.9417 177.42 76.9053V75.7842C177.634 75.8434 177.789 75.8799 177.885 75.8936C177.98 75.9072 178.065 75.9141 178.138 75.9141C178.366 75.9141 178.532 75.8753 178.637 75.7979C178.746 75.7249 178.837 75.6338 178.91 75.5244C178.933 75.488 179.015 75.3011 179.156 74.9639C179.298 74.6266 179.4 74.376 179.464 74.2119L176.757 66.6787H178.151L180.113 72.6396L182.089 66.6787ZM188.706 63.958H196.027V65.1885H190.032V68.2373H195.576V69.3994H190.032V72.8037H196.13V74H188.706V63.958ZM198.543 70.4385C198.543 71.0719 198.632 71.6029 198.81 72.0312C199.124 72.7923 199.687 73.1729 200.498 73.1729C201.355 73.1729 201.945 72.7718 202.269 71.9697C202.446 71.5277 202.535 70.9626 202.535 70.2744C202.535 69.641 202.437 69.1123 202.241 68.6885C201.909 67.9639 201.323 67.6016 200.484 67.6016C199.951 67.6016 199.493 67.834 199.11 68.2988C198.732 68.7591 198.543 69.4723 198.543 70.4385ZM200.361 66.5146C200.967 66.5146 201.478 66.6673 201.893 66.9727C202.12 67.1367 202.339 67.3783 202.549 67.6973V66.6787H203.718V76.9189H202.48V73.1592C202.275 73.4873 201.991 73.7493 201.626 73.9453C201.266 74.1367 200.815 74.2324 200.272 74.2324C199.493 74.2324 198.796 73.9271 198.181 73.3164C197.565 72.7057 197.258 71.776 197.258 70.5273C197.258 69.3561 197.545 68.3945 198.119 67.6426C198.698 66.8906 199.445 66.5146 200.361 66.5146ZM206.773 66.6787V71.5391C206.773 71.9128 206.833 72.2181 206.951 72.4551C207.17 72.8926 207.578 73.1113 208.175 73.1113C209.032 73.1113 209.615 72.7285 209.925 71.9629C210.093 71.5527 210.178 70.9899 210.178 70.2744V66.6787H211.408V74H210.246L210.26 72.9199C210.1 73.1979 209.902 73.4326 209.665 73.624C209.196 74.0068 208.626 74.1982 207.956 74.1982C206.912 74.1982 206.201 73.8496 205.823 73.1523C205.618 72.7786 205.516 72.2796 205.516 71.6553V66.6787H206.773ZM213.336 66.7129H214.587V74H213.336V66.7129ZM213.336 63.958H214.587V65.3525H213.336V63.958ZM219.543 73.1729C220.117 73.1729 220.593 72.9336 220.972 72.4551C221.354 71.972 221.546 71.252 221.546 70.2949C221.546 69.7116 221.462 69.2103 221.293 68.791C220.974 67.9844 220.391 67.5811 219.543 67.5811C218.691 67.5811 218.107 68.0072 217.793 68.8594C217.624 69.3151 217.54 69.8939 217.54 70.5957C217.54 71.1608 217.624 71.6416 217.793 72.0381C218.112 72.7946 218.695 73.1729 219.543 73.1729ZM216.357 66.7129H217.554V67.6836C217.8 67.3509 218.069 67.0934 218.36 66.9111C218.775 66.6377 219.263 66.501 219.823 66.501C220.653 66.501 221.357 66.82 221.936 67.458C222.514 68.0915 222.804 68.9984 222.804 70.1787C222.804 71.7738 222.387 72.9131 221.553 73.5967C221.024 74.0296 220.409 74.2461 219.707 74.2461C219.156 74.2461 218.693 74.1253 218.319 73.8838C218.101 73.7471 217.857 73.5124 217.588 73.1797V76.9189H216.357V66.7129ZM224.246 66.6787H225.463V67.7178C225.755 67.3577 226.019 67.0957 226.256 66.9316C226.661 66.6536 227.122 66.5146 227.637 66.5146C228.22 66.5146 228.689 66.6582 229.045 66.9453C229.245 67.1094 229.428 67.3509 229.592 67.6699C229.865 67.278 230.187 66.9886 230.556 66.8018C230.925 66.6104 231.34 66.5146 231.8 66.5146C232.784 66.5146 233.454 66.8701 233.81 67.5811C234.001 67.9639 234.097 68.4788 234.097 69.126V74H232.818V68.9141C232.818 68.4264 232.695 68.0915 232.449 67.9092C232.208 67.7269 231.911 67.6357 231.561 67.6357C231.077 67.6357 230.66 67.7975 230.31 68.1211C229.963 68.4447 229.79 68.9847 229.79 69.7412V74H228.539V69.2217C228.539 68.7249 228.48 68.3626 228.361 68.1348C228.174 67.793 227.826 67.6221 227.315 67.6221C226.851 67.6221 226.427 67.8021 226.044 68.1621C225.666 68.5221 225.477 69.1738 225.477 70.1172V74H224.246V66.6787ZM238.957 66.5146C239.477 66.5146 239.98 66.6377 240.468 66.8838C240.955 67.1253 241.327 67.4398 241.582 67.8271C241.828 68.1963 241.992 68.627 242.074 69.1191C242.147 69.4564 242.184 69.9941 242.184 70.7324H236.817C236.84 71.4753 237.016 72.0723 237.344 72.5234C237.672 72.9701 238.18 73.1934 238.868 73.1934C239.511 73.1934 240.023 72.9814 240.406 72.5576C240.625 72.3115 240.78 72.0267 240.871 71.7031H242.081C242.049 71.972 241.942 72.2728 241.76 72.6055C241.582 72.9336 241.382 73.2025 241.158 73.4121C240.785 73.7767 240.322 74.0228 239.771 74.1504C239.474 74.2233 239.139 74.2598 238.766 74.2598C237.854 74.2598 237.082 73.9294 236.448 73.2686C235.815 72.6032 235.498 71.6735 235.498 70.4795C235.498 69.3037 235.817 68.349 236.455 67.6152C237.093 66.8815 237.927 66.5146 238.957 66.5146ZM240.919 69.7549C240.869 69.2217 240.753 68.7956 240.57 68.4766C240.233 67.8841 239.67 67.5879 238.882 67.5879C238.317 67.5879 237.843 67.793 237.46 68.2031C237.077 68.6087 236.874 69.126 236.852 69.7549H240.919ZM243.701 66.6787H244.87V67.7178C245.216 67.2894 245.583 66.9818 245.971 66.7949C246.358 66.6081 246.789 66.5146 247.263 66.5146C248.302 66.5146 249.004 66.877 249.368 67.6016C249.569 67.998 249.669 68.5654 249.669 69.3037V74H248.418V69.3857C248.418 68.9391 248.352 68.5791 248.22 68.3057C248.001 67.8499 247.604 67.6221 247.03 67.6221C246.739 67.6221 246.499 67.6517 246.312 67.7109C245.975 67.8112 245.679 68.0117 245.424 68.3125C245.219 68.554 245.084 68.8047 245.021 69.0645C244.961 69.3197 244.932 69.6865 244.932 70.165V74H243.701V66.6787ZM251.74 64.6348H252.984V66.6787H254.153V67.6836H252.984V72.4619C252.984 72.7171 253.071 72.888 253.244 72.9746C253.34 73.0247 253.499 73.0498 253.723 73.0498C253.782 73.0498 253.846 73.0498 253.914 73.0498C253.982 73.0452 254.062 73.0384 254.153 73.0293V74C254.012 74.041 253.864 74.0706 253.709 74.0889C253.559 74.1071 253.395 74.1162 253.217 74.1162C252.643 74.1162 252.253 73.9704 252.048 73.6787C251.843 73.3825 251.74 72.9997 251.74 72.5303V67.6836H250.749V66.6787H251.74V64.6348ZM259.595 65.5645C259.613 65.054 259.702 64.6803 259.861 64.4434C260.148 64.0241 260.702 63.8145 261.522 63.8145C261.6 63.8145 261.68 63.8167 261.762 63.8213C261.844 63.8258 261.937 63.8327 262.042 63.8418V64.9629C261.914 64.9538 261.821 64.9492 261.762 64.9492C261.707 64.9447 261.655 64.9424 261.604 64.9424C261.231 64.9424 261.007 65.0404 260.935 65.2363C260.862 65.4277 260.825 65.9199 260.825 66.7129H262.042V67.6836H260.812V74H259.595V67.6836H258.576V66.7129H259.595V65.5645ZM266.089 73.207C266.905 73.207 267.463 72.8994 267.764 72.2842C268.069 71.6644 268.222 70.9762 268.222 70.2197C268.222 69.5361 268.112 68.9801 267.894 68.5518C267.547 67.8773 266.95 67.54 266.103 67.54C265.351 67.54 264.804 67.8271 264.462 68.4014C264.12 68.9756 263.949 69.6683 263.949 70.4795C263.949 71.2588 264.12 71.9082 264.462 72.4277C264.804 72.9473 265.346 73.207 266.089 73.207ZM266.137 66.4668C267.08 66.4668 267.878 66.7812 268.529 67.4102C269.181 68.0391 269.507 68.9642 269.507 70.1855C269.507 71.3659 269.22 72.3411 268.646 73.1113C268.071 73.8815 267.18 74.2666 265.973 74.2666C264.965 74.2666 264.166 73.9271 263.573 73.248C262.981 72.5645 262.685 71.6484 262.685 70.5C262.685 69.2695 262.997 68.2897 263.621 67.5605C264.245 66.8314 265.084 66.4668 266.137 66.4668ZM271.011 66.6787H272.18V67.9434C272.275 67.6973 272.51 67.3988 272.884 67.0479C273.257 66.6924 273.688 66.5146 274.176 66.5146C274.199 66.5146 274.237 66.5169 274.292 66.5215C274.347 66.526 274.44 66.5352 274.572 66.5488V67.8477C274.499 67.834 274.431 67.8249 274.367 67.8203C274.308 67.8158 274.242 67.8135 274.169 67.8135C273.549 67.8135 273.073 68.014 272.74 68.415C272.408 68.8115 272.241 69.2695 272.241 69.7891V74H271.011V66.6787ZM278.674 63.958H280.26L283.145 68.7842L286.029 63.958H287.622L283.828 69.9531V74H282.468V69.9531L278.674 63.958ZM290.247 73.207C291.063 73.207 291.621 72.8994 291.922 72.2842C292.227 71.6644 292.38 70.9762 292.38 70.2197C292.38 69.5361 292.271 68.9801 292.052 68.5518C291.705 67.8773 291.108 67.54 290.261 67.54C289.509 67.54 288.962 67.8271 288.62 68.4014C288.278 68.9756 288.107 69.6683 288.107 70.4795C288.107 71.2588 288.278 71.9082 288.62 72.4277C288.962 72.9473 289.504 73.207 290.247 73.207ZM290.295 66.4668C291.238 66.4668 292.036 66.7812 292.688 67.4102C293.339 68.0391 293.665 68.9642 293.665 70.1855C293.665 71.3659 293.378 72.3411 292.804 73.1113C292.229 73.8815 291.339 74.2666 290.131 74.2666C289.124 74.2666 288.324 73.9271 287.731 73.248C287.139 72.5645 286.843 71.6484 286.843 70.5C286.843 69.2695 287.155 68.2897 287.779 67.5605C288.404 66.8314 289.242 66.4668 290.295 66.4668ZM296.365 66.6787V71.5391C296.365 71.9128 296.424 72.2181 296.543 72.4551C296.762 72.8926 297.17 73.1113 297.767 73.1113C298.623 73.1113 299.207 72.7285 299.517 71.9629C299.685 71.5527 299.77 70.9899 299.77 70.2744V66.6787H301V74H299.838L299.852 72.9199C299.692 73.1979 299.494 73.4326 299.257 73.624C298.787 74.0068 298.218 74.1982 297.548 74.1982C296.504 74.1982 295.793 73.8496 295.415 73.1523C295.21 72.7786 295.107 72.2796 295.107 71.6553V66.6787H296.365ZM302.962 66.6787H304.131V67.9434C304.227 67.6973 304.461 67.3988 304.835 67.0479C305.209 66.6924 305.639 66.5146 306.127 66.5146C306.15 66.5146 306.188 66.5169 306.243 66.5215C306.298 66.526 306.391 66.5352 306.523 66.5488V67.8477C306.451 67.834 306.382 67.8249 306.318 67.8203C306.259 67.8158 306.193 67.8135 306.12 67.8135C305.5 67.8135 305.024 68.014 304.691 68.415C304.359 68.8115 304.192 69.2695 304.192 69.7891V74H302.962V66.6787ZM311.65 63.958H313.011V72.8037H318.097V74H311.65V63.958ZM319.279 66.7129H320.53V74H319.279V66.7129ZM319.279 63.958H320.53V65.3525H319.279V63.958ZM322.643 64.6348H323.887V66.6787H325.056V67.6836H323.887V72.4619C323.887 72.7171 323.973 72.888 324.146 72.9746C324.242 73.0247 324.402 73.0498 324.625 73.0498C324.684 73.0498 324.748 73.0498 324.816 73.0498C324.885 73.0452 324.965 73.0384 325.056 73.0293V74C324.914 74.041 324.766 74.0706 324.611 74.0889C324.461 74.1071 324.297 74.1162 324.119 74.1162C323.545 74.1162 323.155 73.9704 322.95 73.6787C322.745 73.3825 322.643 72.9997 322.643 72.5303V67.6836H321.651V66.6787H322.643V64.6348ZM326.539 64.6348H327.783V66.6787H328.952V67.6836H327.783V72.4619C327.783 72.7171 327.87 72.888 328.043 72.9746C328.139 73.0247 328.298 73.0498 328.521 73.0498C328.581 73.0498 328.645 73.0498 328.713 73.0498C328.781 73.0452 328.861 73.0384 328.952 73.0293V74C328.811 74.041 328.663 74.0706 328.508 74.0889C328.357 74.1071 328.193 74.1162 328.016 74.1162C327.441 74.1162 327.052 73.9704 326.847 73.6787C326.642 73.3825 326.539 72.9997 326.539 72.5303V67.6836H325.548V66.6787H326.539V64.6348ZM330.224 63.958H331.454V74H330.224V63.958ZM336.355 66.5146C336.875 66.5146 337.379 66.6377 337.866 66.8838C338.354 67.1253 338.725 67.4398 338.98 67.8271C339.227 68.1963 339.391 68.627 339.473 69.1191C339.546 69.4564 339.582 69.9941 339.582 70.7324H334.216C334.239 71.4753 334.414 72.0723 334.742 72.5234C335.07 72.9701 335.578 73.1934 336.267 73.1934C336.909 73.1934 337.422 72.9814 337.805 72.5576C338.023 72.3115 338.178 72.0267 338.27 71.7031H339.479C339.448 71.972 339.34 72.2728 339.158 72.6055C338.98 72.9336 338.78 73.2025 338.557 73.4121C338.183 73.7767 337.72 74.0228 337.169 74.1504C336.873 74.2233 336.538 74.2598 336.164 74.2598C335.253 74.2598 334.48 73.9294 333.847 73.2686C333.213 72.6032 332.896 71.6735 332.896 70.4795C332.896 69.3037 333.215 68.349 333.854 67.6152C334.492 66.8815 335.326 66.5146 336.355 66.5146ZM338.317 69.7549C338.267 69.2217 338.151 68.7956 337.969 68.4766C337.632 67.8841 337.069 67.5879 336.28 67.5879C335.715 67.5879 335.241 67.793 334.858 68.2031C334.476 68.6087 334.273 69.126 334.25 69.7549H338.317ZM349.494 63.6846C351.267 63.6846 352.579 64.2542 353.432 65.3936C354.097 66.2822 354.43 67.4193 354.43 68.8047C354.43 70.304 354.049 71.5505 353.288 72.5439C352.395 73.7106 351.121 74.2939 349.467 74.2939C347.922 74.2939 346.707 73.7835 345.823 72.7627C345.035 71.7783 344.641 70.5342 344.641 69.0303C344.641 67.6722 344.978 66.5101 345.652 65.5439C346.518 64.3044 347.799 63.6846 349.494 63.6846ZM349.631 73.0771C350.829 73.0771 351.695 72.6488 352.229 71.792C352.766 70.9307 353.035 69.9417 353.035 68.8252C353.035 67.6449 352.725 66.6947 352.105 65.9746C351.49 65.2546 350.647 64.8945 349.576 64.8945C348.537 64.8945 347.689 65.2523 347.033 65.9678C346.377 66.6787 346.049 67.7292 346.049 69.1191C346.049 70.2311 346.329 71.1699 346.89 71.9355C347.455 72.6966 348.368 73.0771 349.631 73.0771ZM355.893 66.6787H357.062V67.7178C357.408 67.2894 357.775 66.9818 358.162 66.7949C358.549 66.6081 358.98 66.5146 359.454 66.5146C360.493 66.5146 361.195 66.877 361.56 67.6016C361.76 67.998 361.86 68.5654 361.86 69.3037V74H360.609V69.3857C360.609 68.9391 360.543 68.5791 360.411 68.3057C360.192 67.8499 359.796 67.6221 359.222 67.6221C358.93 67.6221 358.691 67.6517 358.504 67.7109C358.167 67.8112 357.87 68.0117 357.615 68.3125C357.41 68.554 357.276 68.8047 357.212 69.0645C357.153 69.3197 357.123 69.6865 357.123 70.165V74H355.893V66.6787ZM366.734 66.5146C367.254 66.5146 367.757 66.6377 368.245 66.8838C368.733 67.1253 369.104 67.4398 369.359 67.8271C369.605 68.1963 369.77 68.627 369.852 69.1191C369.924 69.4564 369.961 69.9941 369.961 70.7324H364.595C364.618 71.4753 364.793 72.0723 365.121 72.5234C365.449 72.9701 365.957 73.1934 366.646 73.1934C367.288 73.1934 367.801 72.9814 368.184 72.5576C368.402 72.3115 368.557 72.0267 368.648 71.7031H369.858C369.826 71.972 369.719 72.2728 369.537 72.6055C369.359 72.9336 369.159 73.2025 368.936 73.4121C368.562 73.7767 368.099 74.0228 367.548 74.1504C367.252 74.2233 366.917 74.2598 366.543 74.2598C365.632 74.2598 364.859 73.9294 364.226 73.2686C363.592 72.6032 363.275 71.6735 363.275 70.4795C363.275 69.3037 363.594 68.349 364.232 67.6152C364.87 66.8815 365.704 66.5146 366.734 66.5146ZM368.696 69.7549C368.646 69.2217 368.53 68.7956 368.348 68.4766C368.01 67.8841 367.448 67.5879 366.659 67.5879C366.094 67.5879 365.62 67.793 365.237 68.2031C364.854 68.6087 364.652 69.126 364.629 69.7549H368.696Z" fill="#888888"/>
</svg>
