<svg width="221" height="64" viewBox="0 0 221 64" fill="none" xmlns="http://www.w3.org/2000/svg">
<path d="M32 62C48.5685 62 62 48.5685 62 32C62 15.4315 48.5685 2 32 2C15.4315 2 2 15.4315 2 32C2 48.5685 15.4315 62 32 62Z" stroke="url(#paint0_linear_776_28)" stroke-width="3"/>
<path d="M32 39C38.6274 39 44 33.6274 44 27C44 20.3726 38.6274 15 32 15C25.3726 15 20 20.3726 20 27C20 33.6274 25.3726 39 32 39Z" fill="url(#paint1_linear_776_28)"/>
<path d="M22 42C28.6667 52 35.3333 52 42 42" stroke="url(#paint2_linear_776_28)" stroke-width="3" stroke-linecap="round"/>
<path d="M20 37C28 43.6667 36 43.6667 44 37" stroke="url(#paint3_linear_776_28)" stroke-width="3" stroke-linecap="round"/>
<path d="M84.2812 35H77.2812C76.2708 35 75.5469 34.776 75.1094 34.3281C74.6823 33.8698 74.4688 33.1458 74.4688 32.1562V14.9375C74.4688 13.9271 74.6875 13.2031 75.125 12.7656C75.5729 12.3177 76.2917 12.0938 77.2812 12.0938H84.7031C85.7969 12.0938 86.7448 12.1615 87.5469 12.2969C88.349 12.4323 89.0677 12.6927 89.7031 13.0781C90.2448 13.401 90.724 13.8125 91.1406 14.3125C91.5573 14.8021 91.875 15.349 92.0938 15.9531C92.3125 16.5469 92.4219 17.1771 92.4219 17.8438C92.4219 20.1354 91.276 21.8125 88.9844 22.875C91.9948 23.8333 93.5 25.6979 93.5 28.4688C93.5 29.75 93.1719 30.9062 92.5156 31.9375C91.8594 32.9583 90.974 33.7135 89.8594 34.2031C89.1615 34.4948 88.3594 34.7031 87.4531 34.8281C86.5469 34.9427 85.4896 35 84.2812 35ZM83.9375 24.8281H79.1094V31.5156H84.0938C87.2292 31.5156 88.7969 30.3854 88.7969 28.125C88.7969 26.9688 88.3906 26.1302 87.5781 25.6094C86.7656 25.0885 85.5521 24.8281 83.9375 24.8281ZM79.1094 15.5781V21.5H83.3594C84.5156 21.5 85.4062 21.3906 86.0312 21.1719C86.6667 20.9531 87.151 20.5365 87.4844 19.9219C87.7448 19.4844 87.875 18.9948 87.875 18.4531C87.875 17.2969 87.4635 16.5312 86.6406 16.1562C85.8177 15.7708 84.5625 15.5781 82.875 15.5781H79.1094ZM108.016 32.9844C106.984 33.7865 105.984 34.3906 105.016 34.7969C104.057 35.1927 102.979 35.3906 101.781 35.3906C100.688 35.3906 99.724 35.1771 98.8906 34.75C98.0677 34.3125 97.4323 33.724 96.9844 32.9844C96.5365 32.2448 96.3125 31.4427 96.3125 30.5781C96.3125 29.4115 96.6823 28.4167 97.4219 27.5938C98.1615 26.7708 99.1771 26.2188 100.469 25.9375C100.74 25.875 101.411 25.7344 102.484 25.5156C103.557 25.2969 104.474 25.099 105.234 24.9219C106.005 24.7344 106.839 24.5104 107.734 24.25C107.682 23.125 107.453 22.3021 107.047 21.7812C106.651 21.25 105.823 20.9844 104.562 20.9844C103.479 20.9844 102.661 21.1354 102.109 21.4375C101.568 21.7396 101.099 22.1927 100.703 22.7969C100.318 23.401 100.042 23.8021 99.875 24C99.7188 24.1875 99.375 24.2812 98.8438 24.2812C98.3646 24.2812 97.9479 24.1302 97.5938 23.8281C97.25 23.5156 97.0781 23.1198 97.0781 22.6406C97.0781 21.8906 97.3438 21.1615 97.875 20.4531C98.4062 19.7448 99.2344 19.1615 100.359 18.7031C101.484 18.2448 102.885 18.0156 104.562 18.0156C106.438 18.0156 107.911 18.2396 108.984 18.6875C110.057 19.125 110.812 19.8229 111.25 20.7812C111.698 21.7396 111.922 23.0104 111.922 24.5938C111.922 25.5938 111.917 26.4427 111.906 27.1406C111.906 27.8385 111.901 28.6146 111.891 29.4688C111.891 30.2708 112.021 31.1094 112.281 31.9844C112.552 32.849 112.688 33.4062 112.688 33.6562C112.688 34.0938 112.479 34.4948 112.062 34.8594C111.656 35.2135 111.193 35.3906 110.672 35.3906C110.234 35.3906 109.802 35.1875 109.375 34.7812C108.948 34.3646 108.495 33.7656 108.016 32.9844ZM107.734 26.8125C107.109 27.0417 106.198 27.2865 105 27.5469C103.812 27.7969 102.99 27.9844 102.531 28.1094C102.073 28.224 101.635 28.4583 101.219 28.8125C100.802 29.1562 100.594 29.6406 100.594 30.2656C100.594 30.9115 100.839 31.4635 101.328 31.9219C101.818 32.3698 102.458 32.5938 103.25 32.5938C104.094 32.5938 104.87 32.4115 105.578 32.0469C106.297 31.6719 106.823 31.1927 107.156 30.6094C107.542 29.9635 107.734 28.901 107.734 27.4219V26.8125ZM119.766 14.1406V20.6562C120.568 19.8229 121.385 19.1875 122.219 18.75C123.052 18.3021 124.083 18.0781 125.312 18.0781C126.729 18.0781 127.969 18.4167 129.031 19.0938C130.104 19.7604 130.932 20.7344 131.516 22.0156C132.109 23.2865 132.406 24.7969 132.406 26.5469C132.406 27.8385 132.24 29.026 131.906 30.1094C131.583 31.1823 131.109 32.1146 130.484 32.9062C129.859 33.6979 129.099 34.3125 128.203 34.75C127.318 35.1771 126.339 35.3906 125.266 35.3906C124.609 35.3906 123.99 35.3125 123.406 35.1562C122.833 35 122.344 34.7969 121.938 34.5469C121.531 34.2865 121.182 34.0208 120.891 33.75C120.609 33.4792 120.234 33.0729 119.766 32.5312V32.9531C119.766 33.7552 119.573 34.3646 119.188 34.7812C118.802 35.1875 118.312 35.3906 117.719 35.3906C117.115 35.3906 116.63 35.1875 116.266 34.7812C115.911 34.3646 115.734 33.7552 115.734 32.9531V14.3281C115.734 13.4635 115.906 12.8125 116.25 12.375C116.604 11.9271 117.094 11.7031 117.719 11.7031C118.375 11.7031 118.88 11.9167 119.234 12.3438C119.589 12.7604 119.766 13.3594 119.766 14.1406ZM119.969 26.8125C119.969 28.5104 120.354 29.8177 121.125 30.7344C121.906 31.6406 122.927 32.0938 124.188 32.0938C125.26 32.0938 126.182 31.6302 126.953 30.7031C127.734 29.7656 128.125 28.4271 128.125 26.6875C128.125 25.5625 127.964 24.5938 127.641 23.7812C127.318 22.9688 126.859 22.3438 126.266 21.9062C125.672 21.4583 124.979 21.2344 124.188 21.2344C123.375 21.2344 122.651 21.4583 122.016 21.9062C121.38 22.3438 120.88 22.9844 120.516 23.8281C120.151 24.6615 119.969 25.6562 119.969 26.8125ZM139.328 35.9219L139.719 34.9688L134.469 21.75C134.146 20.9896 133.984 20.4375 133.984 20.0938C133.984 19.7292 134.078 19.3906 134.266 19.0781C134.453 18.7656 134.708 18.5156 135.031 18.3281C135.365 18.1406 135.708 18.0469 136.062 18.0469C136.677 18.0469 137.141 18.2448 137.453 18.6406C137.766 19.026 138.042 19.5833 138.281 20.3125L141.891 30.8125L145.312 21.0469C145.583 20.2552 145.828 19.6354 146.047 19.1875C146.266 18.7396 146.495 18.4375 146.734 18.2812C146.984 18.125 147.333 18.0469 147.781 18.0469C148.104 18.0469 148.411 18.1354 148.703 18.3125C149.005 18.4792 149.234 18.7083 149.391 19C149.557 19.2917 149.641 19.599 149.641 19.9219C149.599 20.1198 149.531 20.401 149.438 20.7656C149.344 21.1302 149.229 21.5 149.094 21.875L143.531 36.4375C143.052 37.7188 142.583 38.724 142.125 39.4531C141.667 40.1823 141.057 40.7396 140.297 41.125C139.547 41.5208 138.531 41.7188 137.25 41.7188C136 41.7188 135.062 41.5833 134.438 41.3125C133.812 41.0417 133.5 40.5469 133.5 39.8281C133.5 39.3385 133.646 38.9583 133.938 38.6875C134.24 38.4271 134.682 38.2969 135.266 38.2969C135.495 38.2969 135.719 38.3281 135.938 38.3906C136.208 38.4531 136.443 38.4844 136.641 38.4844C137.13 38.4844 137.516 38.4115 137.797 38.2656C138.078 38.1198 138.328 37.8646 138.547 37.5C138.776 37.1458 139.036 36.6198 139.328 35.9219Z" fill="#4FC3F7"/>
<path d="M166.719 15.6719H157.578V21.5312H165.219C165.927 21.5312 166.453 21.6927 166.797 22.0156C167.151 22.3281 167.328 22.75 167.328 23.2812C167.328 23.8125 167.151 24.2344 166.797 24.5469C166.443 24.8594 165.917 25.0156 165.219 25.0156H157.578V32.5625C157.578 33.5208 157.359 34.2344 156.922 34.7031C156.495 35.1615 155.943 35.3906 155.266 35.3906C154.578 35.3906 154.016 35.1562 153.578 34.6875C153.151 34.2188 152.938 33.5104 152.938 32.5625V14.9375C152.938 14.2708 153.036 13.7292 153.234 13.3125C153.432 12.8854 153.74 12.5781 154.156 12.3906C154.583 12.1927 155.125 12.0938 155.781 12.0938H166.719C167.458 12.0938 168.005 12.2604 168.359 12.5938C168.724 12.9167 168.906 13.3438 168.906 13.875C168.906 14.4167 168.724 14.8542 168.359 15.1875C168.005 15.5104 167.458 15.6719 166.719 15.6719ZM175.906 20.4688V32.7969C175.906 33.651 175.703 34.2969 175.297 34.7344C174.891 35.1719 174.375 35.3906 173.75 35.3906C173.125 35.3906 172.615 35.1667 172.219 34.7188C171.833 34.2708 171.641 33.6302 171.641 32.7969V20.5938C171.641 19.75 171.833 19.1146 172.219 18.6875C172.615 18.2604 173.125 18.0469 173.75 18.0469C174.375 18.0469 174.891 18.2604 175.297 18.6875C175.703 19.1146 175.906 19.7083 175.906 20.4688ZM173.797 16.0625C173.203 16.0625 172.693 15.8802 172.266 15.5156C171.849 15.151 171.641 14.6354 171.641 13.9688C171.641 13.3646 171.854 12.8698 172.281 12.4844C172.719 12.0885 173.224 11.8906 173.797 11.8906C174.349 11.8906 174.839 12.0677 175.266 12.4219C175.693 12.776 175.906 13.2917 175.906 13.9688C175.906 14.625 175.698 15.1406 175.281 15.5156C174.865 15.8802 174.37 16.0625 173.797 16.0625ZM184.562 29.2344V32.7969C184.562 33.6615 184.359 34.3125 183.953 34.75C183.547 35.1771 183.031 35.3906 182.406 35.3906C181.792 35.3906 181.286 35.1719 180.891 34.7344C180.495 34.2969 180.297 33.651 180.297 32.7969V20.9219C180.297 19.0052 180.99 18.0469 182.375 18.0469C183.083 18.0469 183.594 18.2708 183.906 18.7188C184.219 19.1667 184.391 19.8281 184.422 20.7031C184.932 19.8281 185.453 19.1667 185.984 18.7188C186.526 18.2708 187.245 18.0469 188.141 18.0469C189.036 18.0469 189.906 18.2708 190.75 18.7188C191.594 19.1667 192.016 19.7604 192.016 20.5C192.016 21.0208 191.833 21.4531 191.469 21.7969C191.115 22.1302 190.729 22.2969 190.312 22.2969C190.156 22.2969 189.776 22.2031 189.172 22.0156C188.578 21.8177 188.052 21.7188 187.594 21.7188C186.969 21.7188 186.458 21.8854 186.062 22.2188C185.667 22.5417 185.359 23.026 185.141 23.6719C184.922 24.3177 184.771 25.0885 184.688 25.9844C184.604 26.8698 184.562 27.9531 184.562 29.2344ZM207.281 29.8125C207.281 30.9896 206.995 32 206.422 32.8438C205.849 33.6771 205 34.3125 203.875 34.75C202.76 35.1771 201.401 35.3906 199.797 35.3906C198.266 35.3906 196.953 35.1562 195.859 34.6875C194.766 34.2188 193.958 33.6354 193.438 32.9375C192.917 32.2292 192.656 31.5208 192.656 30.8125C192.656 30.3438 192.823 29.9427 193.156 29.6094C193.49 29.276 193.911 29.1094 194.422 29.1094C194.87 29.1094 195.214 29.2188 195.453 29.4375C195.693 29.6562 195.922 29.9635 196.141 30.3594C196.578 31.1198 197.099 31.6875 197.703 32.0625C198.318 32.4375 199.151 32.625 200.203 32.625C201.057 32.625 201.755 32.4375 202.297 32.0625C202.849 31.6771 203.125 31.2396 203.125 30.75C203.125 30 202.839 29.4531 202.266 29.1094C201.703 28.7656 200.771 28.4375 199.469 28.125C198 27.7604 196.802 27.3802 195.875 26.9844C194.958 26.5781 194.224 26.0469 193.672 25.3906C193.12 24.7344 192.844 23.9271 192.844 22.9688C192.844 22.1146 193.099 21.3073 193.609 20.5469C194.12 19.7865 194.87 19.1823 195.859 18.7344C196.859 18.276 198.062 18.0469 199.469 18.0469C200.573 18.0469 201.562 18.1615 202.438 18.3906C203.323 18.6198 204.057 18.9271 204.641 19.3125C205.234 19.6979 205.682 20.125 205.984 20.5938C206.297 21.0625 206.453 21.5208 206.453 21.9688C206.453 22.4583 206.286 22.8594 205.953 23.1719C205.63 23.4844 205.167 23.6406 204.562 23.6406C204.125 23.6406 203.75 23.5156 203.438 23.2656C203.135 23.0156 202.786 22.6406 202.391 22.1406C202.068 21.724 201.688 21.3906 201.25 21.1406C200.812 20.8906 200.219 20.7656 199.469 20.7656C198.698 20.7656 198.057 20.9323 197.547 21.2656C197.036 21.5885 196.781 21.9948 196.781 22.4844C196.781 22.9323 196.969 23.3021 197.344 23.5938C197.719 23.875 198.224 24.1094 198.859 24.2969C199.495 24.4844 200.37 24.7135 201.484 24.9844C202.807 25.3073 203.885 25.6927 204.719 26.1406C205.562 26.5885 206.198 27.1198 206.625 27.7344C207.062 28.3385 207.281 29.0312 207.281 29.8125ZM211.125 18.4219H211.594V15.8594C211.594 15.1719 211.609 14.6354 211.641 14.25C211.682 13.8542 211.786 13.5156 211.953 13.2344C212.12 12.9427 212.359 12.7083 212.672 12.5312C212.984 12.3438 213.333 12.25 213.719 12.25C214.26 12.25 214.75 12.4531 215.188 12.8594C215.479 13.1302 215.661 13.4635 215.734 13.8594C215.818 14.2448 215.859 14.7969 215.859 15.5156V18.4219H217.422C218.026 18.4219 218.484 18.5677 218.797 18.8594C219.12 19.1406 219.281 19.5052 219.281 19.9531C219.281 20.526 219.052 20.9271 218.594 21.1562C218.146 21.3854 217.5 21.5 216.656 21.5H215.859V29.3438C215.859 30.0104 215.88 30.526 215.922 30.8906C215.974 31.2448 216.099 31.5365 216.297 31.7656C216.505 31.9844 216.839 32.0938 217.297 32.0938C217.547 32.0938 217.885 32.0521 218.312 31.9688C218.74 31.875 219.073 31.8281 219.312 31.8281C219.656 31.8281 219.964 31.9688 220.234 32.25C220.516 32.5208 220.656 32.8594 220.656 33.2656C220.656 33.9531 220.281 34.4792 219.531 34.8438C218.781 35.2083 217.703 35.3906 216.297 35.3906C214.964 35.3906 213.953 35.1667 213.266 34.7188C212.578 34.2708 212.125 33.651 211.906 32.8594C211.698 32.0677 211.594 31.0104 211.594 29.6875V21.5H211.031C210.417 21.5 209.948 21.3542 209.625 21.0625C209.302 20.7708 209.141 20.401 209.141 19.9531C209.141 19.5052 209.307 19.1406 209.641 18.8594C209.984 18.5677 210.479 18.4219 211.125 18.4219Z" fill="#81C784"/>
<defs>
<linearGradient id="paint0_linear_776_28" x1="2" y1="2" x2="6002" y2="6002" gradientUnits="userSpaceOnUse">
<stop stop-color="#4FC3F7"/>
<stop offset="1" stop-color="#81C784"/>
</linearGradient>
<linearGradient id="paint1_linear_776_28" x1="20" y1="15" x2="2420" y2="2415" gradientUnits="userSpaceOnUse">
<stop stop-color="#4FC3F7"/>
<stop offset="1" stop-color="#81C784"/>
</linearGradient>
<linearGradient id="paint2_linear_776_28" x1="22" y1="42" x2="515.151" y2="1357.07" gradientUnits="userSpaceOnUse">
<stop stop-color="#4FC3F7"/>
<stop offset="1" stop-color="#81C784"/>
</linearGradient>
<linearGradient id="paint3_linear_776_28" x1="20" y1="37" x2="219.667" y2="995.403" gradientUnits="userSpaceOnUse">
<stop stop-color="#4FC3F7"/>
<stop offset="1" stop-color="#81C784"/>
</linearGradient>
</defs>
</svg>
