<svg width="326" height="89" viewBox="0 0 326 89" fill="none" xmlns="http://www.w3.org/2000/svg">
<path opacity="0.8" d="M33 9C53 -11 73 9 63 39C73 69 53 89 33 69C13 89 -6.99999 69 3.00001 39C-6.99999 9 13 -11 33 9Z" fill="#FF97B7"/>
<path opacity="0.8" d="M23 9C26.3333 42.3333 26.3333 69 23 89C36.3333 82.3333 44.6667 72.3333 48 59C51.3333 45.6667 51.3333 29 48 9" fill="#4A4A4A"/>
<path d="M85.6367 20.2305H95.9375C97.9766 20.2305 99.4941 20.3184 100.49 20.4941C101.498 20.6582 102.395 21.0098 103.18 21.5488C103.977 22.0879 104.639 22.8086 105.166 23.7109C105.693 24.6016 105.957 25.6035 105.957 26.7168C105.957 27.9238 105.629 29.0312 104.973 30.0391C104.328 31.0469 103.449 31.8027 102.336 32.3066C103.906 32.7637 105.113 33.543 105.957 34.6445C106.801 35.7461 107.223 37.041 107.223 38.5293C107.223 39.7012 106.947 40.8438 106.396 41.957C105.857 43.0586 105.113 43.9434 104.164 44.6113C103.227 45.2676 102.066 45.6719 100.684 45.8242C99.8164 45.918 97.7246 45.9766 94.4082 46H85.6367V20.2305ZM90.8398 24.5195V30.4785H94.25C96.2773 30.4785 97.5371 30.4492 98.0293 30.3906C98.9199 30.2852 99.6172 29.9805 100.121 29.4766C100.637 28.9609 100.895 28.2871 100.895 27.4551C100.895 26.6582 100.672 26.0137 100.227 25.5215C99.793 25.0176 99.1426 24.7129 98.2754 24.6074C97.7598 24.5488 96.2773 24.5195 93.8281 24.5195H90.8398ZM90.8398 34.7676V41.6582H95.6562C97.5312 41.6582 98.7207 41.6055 99.2246 41.5C99.998 41.3594 100.625 41.0195 101.105 40.4805C101.598 39.9297 101.844 39.1973 101.844 38.2832C101.844 37.5098 101.656 36.8535 101.281 36.3145C100.906 35.7754 100.361 35.3828 99.6465 35.1367C98.9434 34.8906 97.4082 34.7676 95.041 34.7676H90.8398ZM111.6 46V20.2305H116.539V46H111.6ZM120.477 36.4023C120.477 34.7617 120.881 33.1738 121.689 31.6387C122.498 30.1035 123.641 28.9316 125.117 28.123C126.605 27.3145 128.264 26.9102 130.092 26.9102C132.916 26.9102 135.23 27.8301 137.035 29.6699C138.84 31.498 139.742 33.8125 139.742 36.6133C139.742 39.4375 138.828 41.7812 137 43.6445C135.184 45.4961 132.893 46.4219 130.127 46.4219C128.416 46.4219 126.781 46.0352 125.223 45.2617C123.676 44.4883 122.498 43.3574 121.689 41.8691C120.881 40.3691 120.477 38.5469 120.477 36.4023ZM125.539 36.666C125.539 38.5176 125.979 39.9355 126.857 40.9199C127.736 41.9043 128.82 42.3965 130.109 42.3965C131.398 42.3965 132.477 41.9043 133.344 40.9199C134.223 39.9355 134.662 38.5059 134.662 36.6309C134.662 34.8027 134.223 33.3965 133.344 32.4121C132.477 31.4277 131.398 30.9355 130.109 30.9355C128.82 30.9355 127.736 31.4277 126.857 32.4121C125.979 33.3965 125.539 34.8145 125.539 36.666ZM142.484 36.4023C142.484 34.7617 142.889 33.1738 143.697 31.6387C144.506 30.1035 145.648 28.9316 147.125 28.123C148.613 27.3145 150.271 26.9102 152.1 26.9102C154.924 26.9102 157.238 27.8301 159.043 29.6699C160.848 31.498 161.75 33.8125 161.75 36.6133C161.75 39.4375 160.836 41.7812 159.008 43.6445C157.191 45.4961 154.9 46.4219 152.135 46.4219C150.424 46.4219 148.789 46.0352 147.23 45.2617C145.684 44.4883 144.506 43.3574 143.697 41.8691C142.889 40.3691 142.484 38.5469 142.484 36.4023ZM147.547 36.666C147.547 38.5176 147.986 39.9355 148.865 40.9199C149.744 41.9043 150.828 42.3965 152.117 42.3965C153.406 42.3965 154.484 41.9043 155.352 40.9199C156.23 39.9355 156.67 38.5059 156.67 36.6309C156.67 34.8027 156.23 33.3965 155.352 32.4121C154.484 31.4277 153.406 30.9355 152.117 30.9355C150.828 30.9355 149.744 31.4277 148.865 32.4121C147.986 33.3965 147.547 34.8145 147.547 36.666ZM165.266 27.332H169.818V29.8809C171.447 27.9004 173.387 26.9102 175.637 26.9102C176.832 26.9102 177.869 27.1562 178.748 27.6484C179.627 28.1406 180.348 28.8848 180.91 29.8809C181.73 28.8848 182.615 28.1406 183.564 27.6484C184.514 27.1562 185.527 26.9102 186.605 26.9102C187.977 26.9102 189.137 27.1914 190.086 27.7539C191.035 28.3047 191.744 29.1191 192.213 30.1973C192.553 30.9941 192.723 32.2832 192.723 34.0645V46H187.783V35.3301C187.783 33.4785 187.613 32.2832 187.273 31.7441C186.816 31.041 186.113 30.6895 185.164 30.6895C184.473 30.6895 183.822 30.9004 183.213 31.3223C182.604 31.7441 182.164 32.3652 181.895 33.1855C181.625 33.9941 181.49 35.2773 181.49 37.0352V46H176.551V35.7695C176.551 33.9531 176.463 32.7812 176.287 32.2539C176.111 31.7266 175.836 31.334 175.461 31.0762C175.098 30.8184 174.6 30.6895 173.967 30.6895C173.205 30.6895 172.52 30.8945 171.91 31.3047C171.301 31.7148 170.861 32.3066 170.592 33.0801C170.334 33.8535 170.205 35.1367 170.205 36.9297V46H165.266V27.332Z" fill="#4A4A4A"/>
<path d="M210.104 42.959C209.061 44.1191 207.924 44.9922 206.693 45.5781C205.463 46.1523 204.133 46.4395 202.703 46.4395C200.066 46.4395 197.975 45.5488 196.428 43.7676C195.174 42.3145 194.547 40.6914 194.547 38.8984C194.547 37.3047 195.057 35.8691 196.076 34.5918C197.107 33.3027 198.643 32.1719 200.682 31.1992C199.521 29.8633 198.748 28.7793 198.361 27.9473C197.975 27.1152 197.781 26.3125 197.781 25.5391C197.781 23.9922 198.385 22.6504 199.592 21.5137C200.811 20.3652 202.34 19.791 204.18 19.791C205.938 19.791 207.373 20.3301 208.486 21.4082C209.611 22.4863 210.174 23.7812 210.174 25.293C210.174 27.7422 208.551 29.834 205.305 31.5684L209.928 37.457C210.455 36.4258 210.865 35.2305 211.158 33.8711L214.445 34.5742C213.883 36.8242 213.121 38.6758 212.16 40.1289C213.344 41.6992 214.686 43.0176 216.186 44.084L214.059 46.5977C212.781 45.7773 211.463 44.5645 210.104 42.959ZM203.67 29.5293C205.041 28.7207 205.926 28.0117 206.324 27.4023C206.734 26.793 206.939 26.1191 206.939 25.3809C206.939 24.502 206.658 23.7871 206.096 23.2363C205.545 22.6738 204.854 22.3926 204.021 22.3926C203.166 22.3926 202.451 22.668 201.877 23.2188C201.314 23.7695 201.033 24.4434 201.033 25.2402C201.033 25.6387 201.133 26.0605 201.332 26.5059C201.543 26.9395 201.854 27.4023 202.264 27.8945L203.67 29.5293ZM208.117 40.4629L202.316 33.2734C200.605 34.293 199.451 35.2422 198.854 36.1211C198.256 36.9883 197.957 37.8496 197.957 38.7051C197.957 39.748 198.373 40.832 199.205 41.957C200.037 43.082 201.215 43.6445 202.738 43.6445C203.688 43.6445 204.666 43.3516 205.674 42.7656C206.693 42.168 207.508 41.4004 208.117 40.4629Z" fill="#FF97B7"/>
<path d="M225.637 20.2305H235.938C237.977 20.2305 239.494 20.3184 240.49 20.4941C241.498 20.6582 242.395 21.0098 243.18 21.5488C243.977 22.0879 244.639 22.8086 245.166 23.7109C245.693 24.6016 245.957 25.6035 245.957 26.7168C245.957 27.9238 245.629 29.0312 244.973 30.0391C244.328 31.0469 243.449 31.8027 242.336 32.3066C243.906 32.7637 245.113 33.543 245.957 34.6445C246.801 35.7461 247.223 37.041 247.223 38.5293C247.223 39.7012 246.947 40.8438 246.396 41.957C245.857 43.0586 245.113 43.9434 244.164 44.6113C243.227 45.2676 242.066 45.6719 240.684 45.8242C239.816 45.918 237.725 45.9766 234.408 46H225.637V20.2305ZM230.84 24.5195V30.4785H234.25C236.277 30.4785 237.537 30.4492 238.029 30.3906C238.92 30.2852 239.617 29.9805 240.121 29.4766C240.637 28.9609 240.895 28.2871 240.895 27.4551C240.895 26.6582 240.672 26.0137 240.227 25.5215C239.793 25.0176 239.143 24.7129 238.275 24.6074C237.76 24.5488 236.277 24.5195 233.828 24.5195H230.84ZM230.84 34.7676V41.6582H235.656C237.531 41.6582 238.721 41.6055 239.225 41.5C239.998 41.3594 240.625 41.0195 241.105 40.4805C241.598 39.9297 241.844 39.1973 241.844 38.2832C241.844 37.5098 241.656 36.8535 241.281 36.3145C240.906 35.7754 240.361 35.3828 239.646 35.1367C238.943 34.8906 237.408 34.7676 235.041 34.7676H230.84ZM263.887 46V43.2051C263.207 44.2012 262.311 44.9863 261.197 45.5605C260.096 46.1348 258.93 46.4219 257.699 46.4219C256.445 46.4219 255.32 46.1465 254.324 45.5957C253.328 45.0449 252.607 44.2715 252.162 43.2754C251.717 42.2793 251.494 40.9023 251.494 39.1445V27.332H256.434V35.9102C256.434 38.5352 256.521 40.1465 256.697 40.7441C256.885 41.3301 257.219 41.7988 257.699 42.1504C258.18 42.4902 258.789 42.6602 259.527 42.6602C260.371 42.6602 261.127 42.4316 261.795 41.9746C262.463 41.5059 262.92 40.9316 263.166 40.252C263.412 39.5605 263.535 37.8789 263.535 35.207V27.332H268.475V46H263.887ZM273.238 27.332H277.791V29.8809C279.42 27.9004 281.359 26.9102 283.609 26.9102C284.805 26.9102 285.842 27.1562 286.721 27.6484C287.6 28.1406 288.32 28.8848 288.883 29.8809C289.703 28.8848 290.588 28.1406 291.537 27.6484C292.486 27.1562 293.5 26.9102 294.578 26.9102C295.949 26.9102 297.109 27.1914 298.059 27.7539C299.008 28.3047 299.717 29.1191 300.186 30.1973C300.525 30.9941 300.695 32.2832 300.695 34.0645V46H295.756V35.3301C295.756 33.4785 295.586 32.2832 295.246 31.7441C294.789 31.041 294.086 30.6895 293.137 30.6895C292.445 30.6895 291.795 30.9004 291.186 31.3223C290.576 31.7441 290.137 32.3652 289.867 33.1855C289.598 33.9941 289.463 35.2773 289.463 37.0352V46H284.523V35.7695C284.523 33.9531 284.436 32.7812 284.26 32.2539C284.084 31.7266 283.809 31.334 283.434 31.0762C283.07 30.8184 282.572 30.6895 281.939 30.6895C281.178 30.6895 280.492 30.8945 279.883 31.3047C279.273 31.7148 278.834 32.3066 278.564 33.0801C278.307 33.8535 278.178 35.1367 278.178 36.9297V46H273.238V27.332ZM305.494 27.332H310.1V30.0742C310.697 29.1367 311.506 28.375 312.525 27.7891C313.545 27.2031 314.676 26.9102 315.918 26.9102C318.086 26.9102 319.926 27.7598 321.438 29.459C322.949 31.1582 323.705 33.5254 323.705 36.5605C323.705 39.6777 322.943 42.1035 321.42 43.8379C319.896 45.5605 318.051 46.4219 315.883 46.4219C314.852 46.4219 313.914 46.2168 313.07 45.8066C312.238 45.3965 311.359 44.6934 310.434 43.6973V53.1016H305.494V27.332ZM310.381 36.3496C310.381 38.4473 310.797 40 311.629 41.0078C312.461 42.0039 313.475 42.502 314.67 42.502C315.818 42.502 316.773 42.0449 317.535 41.1309C318.297 40.2051 318.678 38.6934 318.678 36.5957C318.678 34.6387 318.285 33.1855 317.5 32.2363C316.715 31.2871 315.742 30.8125 314.582 30.8125C313.375 30.8125 312.373 31.2812 311.576 32.2188C310.779 33.1445 310.381 34.5215 310.381 36.3496Z" fill="#4A4A4A"/>
</svg>
